<?xml version="1.0" encoding="utf-8"?>
<!-- Generator: Adobe Illustrator 18.1.1, SVG Export Plug-In . SVG Version: 6.00 Build 0)  -->
<svg version="1.1" id="Layer_1" xmlns="http://www.w3.org/2000/svg" xmlns:xlink="http://www.w3.org/1999/xlink" x="0px" y="0px"
	 viewBox="0 0 20 20" enable-background="new 0 0 20 20" xml:space="preserve">
<path fill="#2E368F" stroke="#2E368F" stroke-width="0.75" stroke-miterlimit="10" d="M347.8,12l4-4c0.1-0.1,0.1-0.2,0-0.3
	s-0.2-0.1-0.3,0l-4,4l-4-4c-0.1-0.1-0.2-0.1-0.3,0s-0.1,0.2,0,0.3l4,4l-4,4c-0.1,0.1-0.1,0.2,0,0.3c0,0,0.1,0.1,0.2,0.1
	s0.1,0,0.2-0.1l4-4l4,4c0,0,0.1,0.1,0.2,0.1s0.1,0,0.2-0.1c0.1-0.1,0.1-0.2,0-0.3L347.8,12z"/>
<path fill="#2E368F" stroke="#2E368F" stroke-width="0.75" stroke-miterlimit="10" d="M430.6-31.9c0.1-0.1,0.1-0.2,0-0.3
	s-0.2-0.1-0.3,0l-1.8,1.8l0.3,0.3L430.6-31.9z"/>
<path fill="#2E368F" stroke="#2E368F" stroke-width="0.75" stroke-miterlimit="10" d="M430.2-24c0,0,0.1,0.1,0.2,0.1
	c0.1,0,0.1,0,0.2-0.1c0.1-0.1,0.1-0.2,0-0.3l-2.2-2.2l-0.3,0.3L430.2-24z"/>
<path fill="#2E368F" stroke="#2E368F" stroke-width="0.75" stroke-miterlimit="10" d="M426.7-28.1l0.3-0.3l-0.3-0.3l-0.3,0.3
	l-3.8-3.8c-0.1-0.1-0.2-0.1-0.3,0c-0.1,0.1-0.1,0.2,0,0.3l3.8,3.8l-3.8,3.8c-0.1,0.1-0.1,0.2,0,0.3c0,0,0.1,0.1,0.2,0.1
	c0.1,0,0.1,0,0.2-0.1l3.8-3.8l1.3,1.3l0.3-0.3L426.7-28.1z"/>
<path fill="#2E368F" stroke="#2E368F" stroke-width="0.75" stroke-miterlimit="10" d="M425.2-24c-0.1,0.1-0.1,0.2,0,0.3
	c0,0,0.1,0.1,0.2,0.1c0.1,0,0.1,0,0.2-0.1l1.9-1.9l-0.3-0.3L425.2-24z"/>
<path fill="#2E368F" stroke="#2E368F" stroke-width="0.75" stroke-miterlimit="10" d="M425.5-32c-0.1-0.1-0.2-0.1-0.3,0
	c-0.1,0.1-0.1,0.2,0,0.3l2.2,2.2l0.3-0.3L425.5-32z"/>
<path fill="#2E368F" stroke="#2E368F" stroke-width="0.75" stroke-miterlimit="10" d="M429.6-27.8l3.8-3.8c0.1-0.1,0.1-0.2,0-0.3
	c-0.1-0.1-0.2-0.1-0.3,0l-3.8,3.8l-1.3-1.3l-0.3,0.3l1.3,1.3l-0.4,0.4l0.3,0.3l0.4-0.4l3.8,3.8c0,0,0.1,0.1,0.2,0.1
	c0.1,0,0.1,0,0.2-0.1c0.1-0.1,0.1-0.2,0-0.3L429.6-27.8z"/>
<rect x="427.8" y="-26.7" transform="matrix(-0.7072 -0.707 0.707 -0.7072 749.4525 257.3575)" fill="#2E368F" stroke="#2E368F" stroke-width="0.75" stroke-miterlimit="10" width="0.5" height="0.5"/>
<rect x="427.5" y="-29.7" transform="matrix(0.7067 0.7075 -0.7075 0.7067 104.6373 -311.2491)" fill="#2E368F" stroke="#2E368F" stroke-width="0.75" stroke-miterlimit="10" width="0.5" height="0.5"/>
<g>
	<path fill="#2E368F" stroke="#2E368F" stroke-width="0.45" stroke-miterlimit="10" d="M273.9-71.3h-2.4c0.1-0.2,0.2-0.5,0.2-0.8v-2
		c0-1.8-1.5-3.3-3.3-3.3h-2.5c-1.8,0-3.3,1.5-3.3,3.3v2c0,0.3,0.1,0.6,0.2,0.8h-2.4c-1,0-1.8,0.8-1.8,1.8v8.3c0,1,0.8,1.8,1.8,1.8
		h13.5c1,0,1.8-0.8,1.8-1.8v-8.3C275.7-70.5,274.9-71.3,273.9-71.3z M263.6-72.1v-2c0-1.3,1.1-2.3,2.3-2.3h2.5
		c1.3,0,2.3,1.1,2.3,2.3v2c0,0.4-0.4,0.8-0.8,0.8h-5.6C264-71.3,263.6-71.7,263.6-72.1z M274.8-61.2c0,0.4-0.4,0.8-0.8,0.8h-13.5
		c-0.4,0-0.8-0.4-0.8-0.8v-8.3c0-0.4,0.4-0.8,0.8-0.8h4h5.6h4c0.4,0,0.8,0.4,0.8,0.8V-61.2z"/>
	<path fill="#2E368F" stroke="#2E368F" stroke-width="0.45" stroke-miterlimit="10" d="M267.2-67.9c-1,0-1.9,0.8-1.9,1.9
		c0,0.9,0.6,1.6,1.4,1.8v1.6c0,0.3,0.2,0.5,0.5,0.5s0.5-0.2,0.5-0.5v-1.6c0.8-0.2,1.4-0.9,1.4-1.8C269.1-67.1,268.2-67.9,267.2-67.9
		z M267.2-65.1c-0.5,0-0.9-0.4-0.9-0.9s0.4-0.9,0.9-0.9c0.5,0,0.9,0.4,0.9,0.9S267.7-65.1,267.2-65.1z"/>
</g>
<g>
	<path fill="#2E368F" stroke="#2E368F" stroke-width="0.45" stroke-miterlimit="10" d="M315-70.4h-2.4c0.1-0.2,0.2-0.5,0.2-0.8v-2
		c0-1.8-1.5-3.3-3.3-3.3H307c-1.8,0-3.3,1.5-3.3,3.3c0,0.3,0.2,0.5,0.5,0.5s0.5-0.2,0.5-0.5c0-1.3,1.1-2.3,2.3-2.3h2.5
		c1.3,0,2.3,1.1,2.3,2.3v2c0,0.4-0.4,0.8-0.8,0.8h-5.6h-4c-1,0-1.8,0.8-1.8,1.8v8.3c0,1,0.8,1.8,1.8,1.8H315c1,0,1.8-0.8,1.8-1.8
		v-8.3C316.8-69.6,316-70.4,315-70.4z M315.8-60.3c0,0.4-0.4,0.8-0.8,0.8h-13.5c-0.4,0-0.8-0.4-0.8-0.8v-8.3c0-0.4,0.4-0.8,0.8-0.8
		h4h5.6h4c0.4,0,0.8,0.4,0.8,0.8V-60.3z"/>
	<path fill="#2E368F" stroke="#2E368F" stroke-width="0.45" stroke-miterlimit="10" d="M308.3-67c-1,0-1.9,0.8-1.9,1.9
		c0,0.9,0.6,1.6,1.4,1.8v1.6c0,0.3,0.2,0.5,0.5,0.5s0.5-0.2,0.5-0.5v-1.6c0.8-0.2,1.4-0.9,1.4-1.8C310.2-66.2,309.3-67,308.3-67z
		 M308.3-64.2c-0.5,0-0.9-0.4-0.9-0.9s0.4-0.9,0.9-0.9c0.5,0,0.9,0.4,0.9,0.9S308.8-64.2,308.3-64.2z"/>
</g>
<path fill="#2E368F" d="M154.9-77.1h-14.4c-1,0-1.8,0.8-1.8,1.8v14.4c0,1,0.8,1.8,1.8,1.8h14.4c1,0,1.8-0.8,1.8-1.8v-14.4
	C156.8-76.2,155.9-77.1,154.9-77.1z M152.6-70.4c0,0-5.8,5.8-5.8,5.8c-0.3,0.3-0.5,0.2-0.8,0l-2.8-2.8c-0.3-0.3-0.3-0.5,0-0.8
	c0.3-0.3,0.5-0.3,0.8,0l2.4,2.4l5.3-5.4c0.3-0.3,0.5-0.3,0.8,0C152.8-70.9,152.8-70.7,152.6-70.4z"/>
<path fill="#2E368F" stroke="#2E368F" stroke-width="0.5" stroke-miterlimit="10" d="M114.8,4c0.4,0,0.8,0.4,0.8,0.8V19
	c0,0.4-0.4,0.8-0.8,0.8h-14.3c-0.4,0-0.8-0.4-0.8-0.8V4.8c0-0.4,0.4-0.8,0.8-0.8L114.8,4 M114.8,2.9h-14.3c-1,0-1.9,0.8-1.9,1.9V19
	c0,1,0.8,1.9,1.9,1.9h14.3c1,0,1.9-0.8,1.9-1.9V4.8C116.7,3.7,115.9,2.9,114.8,2.9L114.8,2.9z"/>
<path fill="#2E368F" stroke="#2E368F" stroke-miterlimit="10" d="M433.9-107.8c0.1-0.1,0.1-0.2,0.1-0.3s0-0.2-0.1-0.3l-8.2-8.2
	c-0.2-0.2-0.5-0.2-0.6,0c-0.2,0.2-0.2,0.5,0,0.6l7.8,7.8l-7.8,7.8c-0.2,0.2-0.2,0.5,0,0.6c0.2,0.2,0.5,0.2,0.6,0L433.9-107.8z"/>
<path fill="#2E368F" stroke="#2E368F" stroke-miterlimit="10" d="M148.3,7.9c-0.1-0.1-0.2-0.1-0.3-0.1s-0.2,0-0.3,0.1l-8.2,8.2
	c-0.2,0.2-0.2,0.5,0,0.6s0.5,0.2,0.6,0l7.8-7.8l7.8,7.8c0.2,0.2,0.5,0.2,0.6,0s0.2-0.5,0-0.6L148.3,7.9z"/>
<path fill="#2E368F" stroke="#2E368F" stroke-miterlimit="10" d="M307.4-23.2c0.1,0.1,0.2,0.1,0.3,0.1c0.1,0,0.2,0,0.3-0.1l8.2-8.2
	c0.2-0.2,0.2-0.5,0-0.6s-0.5-0.2-0.6,0l-7.8,7.8l-7.8-7.8c-0.2-0.2-0.5-0.2-0.6,0c-0.2,0.2-0.2,0.5,0,0.6L307.4-23.2z"/>
<g transform="matrix( 1, 0, 0, 1, 0,0) ">
	<g>
		<g id="a_3_">
			<path fill="#2E368F" stroke="#2E368F" stroke-width="0.5" stroke-miterlimit="10" d="M178.2-32.6v7.2c0,0.9,0.3,1.7,1,2.4
				c0.7,0.7,1.5,1,2.4,1v2.6c0,0.1,0,0.2,0.1,0.3c0,0.1,0.1,0.1,0.2,0.2c0.1,0,0.1,0,0.2,0c0.1,0,0.2,0,0.3-0.1l3-2.9h8.3
				c1,0,1.8-0.3,2.5-1c0.7-0.7,1-1.5,1-2.4v-7.2c0-1-0.3-1.8-1-2.4c-0.7-0.7-1.5-1-2.5-1h-12.1c-1,0-1.8,0.3-2.5,1
				C178.5-34.4,178.2-33.6,178.2-32.6 M181.7-35.2h12.1c0.7,0,1.3,0.2,1.8,0.7c0.5,0.5,0.8,1.1,0.8,1.8v7.2c0,0.7-0.3,1.3-0.8,1.8
				c-0.5,0.5-1.1,0.8-1.8,0.8h-8.5c-0.1,0-0.2,0-0.3,0.1l-2.3,2.3v-2c0-0.1,0-0.2-0.1-0.3c-0.1-0.1-0.2-0.1-0.3-0.1h-0.4
				c-0.7,0-1.3-0.3-1.8-0.8c-0.5-0.5-0.8-1.1-0.8-1.8v-7.2c0-0.7,0.3-1.3,0.8-1.8C180.4-34.9,181-35.2,181.7-35.2z"/>
			<path fill="#2E368F" stroke="#2E368F" stroke-width="0.5" stroke-miterlimit="10" d="M192.9-28.2c0.2-0.2,0.4-0.5,0.4-0.8
				c0-0.3-0.1-0.6-0.4-0.8c-0.2-0.2-0.5-0.4-0.9-0.4s-0.6,0.1-0.9,0.4c-0.2,0.2-0.4,0.5-0.4,0.8c0,0.3,0.1,0.6,0.4,0.8
				c0.2,0.2,0.5,0.3,0.9,0.3S192.7-28,192.9-28.2 M184.6-29.1c0-0.3-0.1-0.6-0.4-0.8c-0.2-0.2-0.5-0.4-0.9-0.4
				c-0.3,0-0.6,0.1-0.9,0.4c-0.2,0.2-0.4,0.5-0.4,0.8c0,0.3,0.1,0.6,0.4,0.8c0.2,0.2,0.5,0.3,0.9,0.3c0.3,0,0.6-0.1,0.9-0.3
				C184.5-28.5,184.6-28.7,184.6-29.1 M186.9-29.9c-0.2,0.2-0.4,0.5-0.4,0.8c0,0.3,0.1,0.6,0.4,0.8c0.2,0.2,0.5,0.3,0.9,0.3
				c0.3,0,0.6-0.1,0.9-0.3c0.2-0.2,0.4-0.5,0.4-0.8c0-0.3-0.1-0.6-0.4-0.8c-0.2-0.2-0.5-0.4-0.9-0.4
				C187.4-30.2,187.1-30.1,186.9-29.9z"/>
		</g>
	</g>
</g>
<path fill="#2E368F" stroke="#2E368F" stroke-width="0.45" stroke-miterlimit="10" d="M71.3,19.4h-2v2H58.2V6.3h2v-2h2v-2h11.1v15.2
	h-2L71.3,19.4L71.3,19.4z M68.8,6.8H58.7v14.2h10.1V6.8z M60.2,8.8V8.3h7.1v0.5H60.2z M60.2,10.8v-0.5h7.1v0.5H60.2z M60.2,12.8
	v-0.5h7.1v0.5H60.2z M60.2,14.9v-0.5h7.1v0.5H60.2z M60.2,16.9v-0.5h7.1v0.5H60.2z M60.2,18.9v-0.5h7.1v0.5H60.2z M60.7,4.7v1.5h8.6
	v12.6h1.5V4.7H60.7z M62.7,2.7v1.5h8.6v12.6h1.5V2.7H62.7z"/>
<path fill="#2E368F" d="M147.1,42.1c0,0-0.1,0-0.1,0.1l-5.2,8.4c-0.1,0.1,0,0.2,0.1,0.2h10.4c0.1,0,0.2-0.1,0.1-0.2l-5.2-8.4
	C147.2,42.1,147.2,42.1,147.1,42.1L147.1,42.1z M141.9,52.5c-0.1,0-0.2,0.1-0.1,0.2l5.2,8.4c0.1,0.1,0.2,0.1,0.2,0l5.2-8.4
	c0.1-0.1,0-0.2-0.1-0.2H141.9L141.9,52.5z"/>
<path fill="#2E368F" stroke="#2E368F" stroke-width="0.75" stroke-miterlimit="10" d="M427.5-37.5c-5.3,0-9.6,4.3-9.6,9.6
	s4.3,9.6,9.6,9.6c5.3,0,9.6-4.3,9.6-9.6S432.7-37.5,427.5-37.5z M427.5-19.2c-4.8,0-8.7-3.9-8.7-8.7s3.9-8.7,8.7-8.7
	c4.8,0,8.7,3.9,8.7,8.7S432.3-19.2,427.5-19.2z"/>
<g>
	<path fill="#2E368F" stroke="#2E368F" stroke-width="0.75" stroke-miterlimit="10" d="M227.2,12.2c-1.9,0-3.5,1.2-4.1,2.9h0.4
		c0.6-1.6,1.9-2.5,3.7-2.5c2.1,0,3.9,1.8,3.9,3.9s-1.8,3.9-3.9,3.9c-1.6,0-2.9-1-3.5-2.3h-0.4c0.6,1.6,2.1,2.7,3.9,2.7
		c2.3,0,4.3-1.9,4.3-4.3S229.6,12.2,227.2,12.2z"/>
	<path fill="#2E368F" stroke="#2E368F" stroke-width="0.75" stroke-miterlimit="10" d="M227.2,13.7V17h2.5v0.4h-2.9
		c0-1.2,0-2.7,0-3.7L227.2,13.7z"/>
</g>
<path fill="#2E368F" stroke="#2E368F" stroke-miterlimit="10" d="M196.1,12.1c-0.2,0-0.3,0.1-0.3,0.3v5c0,1.6-1.3,2.9-2.9,2.9h-10.6
	c-1.6,0-2.9-1.3-2.9-2.9V8.9V6.7c0-1.6,1.3-2.9,2.9-2.9h4.9c0.2,0,0.3-0.1,0.3-0.3c0-0.2-0.1-0.3-0.3-0.3h-4.9
	c-1.9,0-3.5,1.6-3.5,3.5v2.2v8.4c0,1.9,1.6,3.5,3.5,3.5h10.6c1.9,0,3.5-1.6,3.5-3.5v-5C196.4,12.2,196.3,12.1,196.1,12.1z"/>
<g>
	<g>
		<path fill="#2E368F" d="M196.7,3.1c0.6,0.6,0.6,1.5,0,2.1L196,5.8L194,3.8l0.7-0.7C195.2,2.5,196.1,2.5,196.7,3.1z"/>
		<polygon fill="#2E368F" points="186.4,11.3 185.8,14 188.5,13.4 195.3,6.5 193.3,4.5 		"/>
	</g>
</g>
<path fill="#2E368F" stroke="#2E368F" stroke-width="0.75" stroke-miterlimit="10" d="M356.1,52.3c-0.2,0-0.3,0.1-0.3,0.3v5
	c0,1.6-1.3,2.9-2.9,2.9h-10.5c-1.6,0-2.9-1.3-2.9-2.9v-8.4V47c0-1.6,1.3-2.9,2.9-2.9h4.9c0.2,0,0.3-0.1,0.3-0.3s-0.1-0.3-0.3-0.3
	h-4.9c-1.9,0-3.5,1.5-3.5,3.5v2.2v8.4c0,1.9,1.5,3.5,3.5,3.5h10.5c1.9,0,3.5-1.5,3.5-3.5v-5C356.3,52.4,356.2,52.3,356.1,52.3z"/>
<path fill="#2E368F" stroke="#2E368F" stroke-width="0.75" stroke-miterlimit="10" d="M316.6-108.1c-0.2,0-0.3,0.1-0.3,0.3v5.3
	c0,1.7-1.4,3.1-3.1,3.1h-11.3c-1.7,0-3.1-1.4-3.1-3.1v-9v-2.3c0-1.7,1.4-3.1,3.1-3.1h5.3c0.2,0,0.3-0.1,0.3-0.3s-0.1-0.3-0.3-0.3
	h-5.3c-2,0-3.7,1.7-3.7,3.7v2.3v9c0,2,1.7,3.7,3.7,3.7h11.3c2,0,3.7-1.7,3.7-3.7v-5.3C316.9-108,316.8-108.1,316.6-108.1z"/>
<g>
	<path fill="#2E368F" d="M317.2-117.7c0.6,0.6,0.6,1.6,0,2.2l-0.7,0.7l-2.2-2.2l0.7-0.7C315.6-118.3,316.6-118.3,317.2-117.7z"/>
	<polygon fill="#2E368F" points="306.3,-108.9 305.5,-106 308.5,-106.7 315.8,-114 313.6,-116.2 	"/>
</g>
<path fill="#2E368F" stroke="#2E368F" stroke-width="0.75" stroke-miterlimit="10" d="M235.7-109h-7.1v-7.1c0-0.5-0.4-0.8-0.8-0.8
	c-0.5,0-0.8,0.4-0.8,0.8v7.1h-7.1c-0.5,0-0.8,0.4-0.8,0.8s0.4,0.8,0.8,0.8h7.1v7.1c0,0.5,0.4,0.8,0.8,0.8c0.5,0,0.8-0.4,0.8-0.8
	v-7.1h7.1c0.5,0,0.8-0.4,0.8-0.8S236.1-109,235.7-109z"/>
<path fill="#2E368F" stroke="#2E368F" stroke-width="0.75" stroke-miterlimit="10" d="M196.6-99.9l-4.2-4.2c2.7-3,2.6-7.7-0.3-10.6
	c-3-3-7.9-3-11,0c-3,3-3,7.9,0,11c1.5,1.5,3.5,2.3,5.5,2.3c1.8,0,3.7-0.7,5.1-2l4.2,4.2c0.1,0.1,0.2,0.1,0.3,0.1
	c0.1,0,0.2,0,0.3-0.1C196.7-99.4,196.7-99.7,196.6-99.9z M181.7-104.4c-2.7-2.7-2.7-7,0-9.7c1.3-1.3,3.1-2,4.8-2s3.5,0.7,4.8,2
	c2.7,2.7,2.7,7,0,9.7C188.7-101.8,184.4-101.8,181.7-104.4z"/>
<path fill="#2E368F" stroke="#2E368F" stroke-width="0.75" stroke-miterlimit="10" d="M272.5,20l-2.1-2.1c1.4-1.5,1.3-3.9-0.2-5.4
	c-1.5-1.5-4-1.5-5.5,0c-1.5,1.5-1.5,4,0,5.5c0.8,0.8,1.8,1.1,2.8,1.1c0.9,0,1.9-0.3,2.6-1l2.1,2.1c0,0,0.1,0.1,0.2,0.1
	c0.1,0,0.1,0,0.2-0.1C272.6,20.2,272.6,20.1,272.5,20z M265.1,17.7c-1.3-1.3-1.3-3.5,0-4.9c0.7-0.7,1.6-1,2.4-1c0.9,0,1.8,0.3,2.4,1
	c1.3,1.3,1.3,3.5,0,4.9C268.6,19.1,266.4,19.1,265.1,17.7z"/>
<path fill="#2E368F" stroke="#2E368F" stroke-width="0.75" stroke-miterlimit="10" d="M67.7-117.3c-5,0-9.1,4.1-9.1,9.1
	c0,5,4.1,9.1,9.1,9.1s9.1-4.1,9.1-9.1C76.8-113.2,72.7-117.3,67.7-117.3z M67.7-99.8c-4.6,0-8.3-3.7-8.3-8.3c0-4.6,3.7-8.3,8.3-8.3
	c4.6,0,8.3,3.7,8.3,8.3C76-103.5,72.3-99.8,67.7-99.8z"/>
<path fill="#2E368F" stroke="#2E368F" stroke-miterlimit="10" d="M277-116.8v5c0,0.2-0.1,0.3-0.3,0.3s-0.3-0.1-0.3-0.3v-4.4
	l-8.6,8.6c-0.1,0.1-0.1,0.1-0.2,0.1c-0.1,0-0.1,0-0.2-0.1c-0.1-0.1-0.1-0.3,0-0.4l8.6-8.6h-4.4c-0.2,0-0.3-0.1-0.3-0.3
	s0.1-0.3,0.3-0.3h5C276.9-117.1,277-117,277-116.8z"/>
<path fill="#2E368F" stroke="#2E368F" stroke-width="0.75" stroke-miterlimit="10" d="M276.3-107.8c-0.2,0-0.3,0.1-0.3,0.3v5.1
	c0,1.7-1.3,3-3,3h-10.9c-1.7,0-3-1.3-3-3v-8.6v-2.2c0-1.7,1.3-3,3-3h5.1c0.2,0,0.3-0.1,0.3-0.3s-0.1-0.3-0.3-0.3h-5.1
	c-2,0-3.6,1.6-3.6,3.6v2.2v8.6c0,2,1.6,3.6,3.6,3.6H273c2,0,3.6-1.6,3.6-3.6v-5.1C276.5-107.7,276.4-107.8,276.3-107.8z"/>
<path fill="#2E368F" stroke="#2E368F" stroke-width="0.5" stroke-miterlimit="10" d="M117.1-104.3v-7.9c0-0.2,0.1-1.8-0.5-2.5
	c-0.4-0.5-1.2-0.6-2-0.6h-0.4c-0.1,0-0.3,0-0.6,0v-0.7c0-0.2-0.2-0.4-0.4-0.4s-0.4,0.2-0.4,0.4v0.8c-2.5,0-8,0-10.5,0v-0.8
	c0-0.2-0.2-0.4-0.4-0.4s-0.2,0.2-0.2,0.4v0.8c-0.3,0-0.5,0-0.6,0h-0.3c-0.9,0-1.7,0-2,0.6c-0.6,0.6-0.5,2.2-0.5,2.4v11.6
	c0,0.2,0.2,0.4,0.4,0.4h14.5c0.1,0,0.2,0,0.3-0.1l0,0l3.6-3.7l0,0l0,0l0,0c0,0,0,0,0-0.1S117.1-104.2,117.1-104.3z M99.3-114.2
	c0.2-0.3,0.9-0.3,1.6-0.3h0.4c0.1,0,0.3,0,0.6,0v0.5c0,0.2,0.2,0.4,0.4,0.4c0.2,0,0.3-0.2,0.3-0.4v-0.5c2.5,0,8,0,10.5,0v0.5
	c0,0.2,0.2,0.4,0.4,0.4c0.2,0,0.4-0.2,0.4-0.4v-0.5c0.3,0,0.5,0,0.6,0h0.4c0.7,0,1.3,0,1.6,0.3c0.1,0.3,0.1,1.1,0.1,1.7H99
	C99-113.2,99.1-113.9,99.3-114.2z M99-111.8h17.4v7.2h-3.3c-0.2,0-0.4,0.2-0.4,0.4v3.4H99V-111.8z M115.9-103.9l-2.4,2.5v-2.5H115.9
	z"/>
<g>
	<rect x="102.7" y="-109.9" fill="#2E368F" width="1.9" height="1.4"/>
	<rect x="105.4" y="-109.9" fill="#2E368F" width="1.9" height="1.4"/>
	<rect x="108.1" y="-109.9" fill="#2E368F" width="1.9" height="1.4"/>
	<rect x="110.7" y="-109.9" fill="#2E368F" width="1.9" height="1.4"/>
	<rect x="102.7" y="-107.7" fill="#2E368F" width="1.9" height="1.4"/>
	<rect x="105.4" y="-107.7" fill="#2E368F" width="1.9" height="1.4"/>
	<rect x="108.1" y="-107.7" fill="#2E368F" width="1.9" height="1.4"/>
	<rect x="110.7" y="-107.7" fill="#2E368F" width="1.9" height="1.4"/>
	<rect x="102.7" y="-105.5" fill="#2E368F" width="1.9" height="1.4"/>
	<rect x="105.4" y="-105.5" fill="#2E368F" width="1.9" height="1.4"/>
	<rect x="108.1" y="-105.5" fill="#2E368F" width="1.9" height="1.4"/>
	<rect x="110.7" y="-105.5" fill="#2E368F" width="1.9" height="1.4"/>
</g>
<g>
	<g>
		<path fill="#2E368F" d="M148.2-117c-0.1-0.2-0.3-0.3-0.5-0.3c-0.2,0-0.4,0.1-0.5,0.3l-9.2,16c-0.1,0.2-0.1,0.4,0,0.6
			s0.3,0.3,0.5,0.3h18.5l0,0c0.3,0,0.6-0.3,0.6-0.6c0-0.1,0-0.3-0.1-0.4L148.2-117z M139.5-101.3l8.1-14.1l8.1,14.1H139.5z"/>
		<path fill="#2E368F" d="M147-111v4.9c0,0.3,0.3,0.6,0.6,0.6c0.3,0,0.6-0.3,0.6-0.6v-4.9c0-0.3-0.3-0.6-0.6-0.6
			C147.3-111.7,147-111.4,147-111z"/>
		<path fill="#2E368F" d="M147.7-104.7c-0.3,0-0.6,0.3-0.6,0.6v0.4c0,0.3,0.3,0.6,0.6,0.6c0.3,0,0.6-0.3,0.6-0.6v-0.4
			C148.3-104.4,148-104.7,147.7-104.7z"/>
	</g>
</g>
<polygon fill="#2E368F" points="62.8,-108.4 65.2,-108.4 65.2,-104.8 70,-104.8 70,-108.4 72.4,-108.4 67.6,-113.2 "/>
<path fill="#2E368F" stroke="#2E368F" stroke-width="0.75" stroke-miterlimit="10" d="M347.5,2.8c-5.1,0-9.2,4.1-9.2,9.2
	c0,5.1,4.1,9.2,9.2,9.2c5.1,0,9.2-4.1,9.2-9.2C356.7,6.9,352.6,2.8,347.5,2.8z M347.5,20.3c-4.6,0-8.4-3.8-8.4-8.4
	c0-4.6,3.8-8.4,8.4-8.4c4.6,0,8.4,3.8,8.4,8.4C355.9,16.6,352.1,20.3,347.5,20.3z"/>
<path fill="#2E368F" stroke="#2E368F" stroke-width="0.75" stroke-miterlimit="10" d="M427.7,2.8c-5.1,0-9.2,4.1-9.2,9.2
	c0,5.1,4.1,9.2,9.2,9.2s9.2-4.1,9.2-9.2C436.9,6.9,432.7,2.8,427.7,2.8z M427.7,20.3c-4.6,0-8.4-3.8-8.4-8.4c0-4.6,3.8-8.4,8.4-8.4
	s8.4,3.8,8.4,8.4C436,16.6,432.3,20.3,427.7,20.3z"/>
<path fill="#2E368F" stroke="#2E368F" stroke-width="0.75" stroke-miterlimit="10" d="M68.4-24l1.9-1.9c0,0,0-0.1,0-0.2
	c0,0-0.1,0-0.2,0l-1.9,1.9l-1.9-1.9c0,0-0.1,0-0.2,0c0,0,0,0.1,0,0.2l1.9,1.9l-1.9,1.9c0,0,0,0.1,0,0.2c0,0,0.1,0,0.1,0s0.1,0,0.1,0
	l1.9-1.9l1.9,1.9c0,0,0.1,0,0.1,0s0.1,0,0.1,0c0,0,0-0.1,0-0.2L68.4-24z"/>
<path fill="#2E368F" stroke="#2E368F" stroke-width="0.75" stroke-miterlimit="10" d="M68.3-28.9c-2.7,0-4.8,2.2-4.8,4.8
	c0,2.7,2.2,4.8,4.8,4.8c2.7,0,4.8-2.2,4.8-4.8C73.1-26.7,71-28.9,68.3-28.9z M68.3-19.6c-2.4,0-4.4-2-4.4-4.4c0-2.4,2-4.4,4.4-4.4
	c2.4,0,4.4,2,4.4,4.4C72.7-21.6,70.7-19.6,68.3-19.6z"/>
<rect x="107.3" y="-76.7" transform="matrix(-0.5425 -0.8401 0.8401 -0.5425 223.3145 -14.6586)" fill="#2E368F" stroke="#2E368F" stroke-width="0.75" stroke-miterlimit="10" width="0.8" height="17.2"/>
<path fill="#2E368F" stroke="#2E368F" stroke-width="0.75" stroke-miterlimit="10" d="M107.6-77.1c-4.8,0-8.8,3.9-8.8,8.8
	c0,4.8,3.9,8.8,8.8,8.8c4.8,0,8.8-3.9,8.8-8.8C116.3-73.2,112.4-77.1,107.6-77.1z M107.6-60.3c-4.4,0-8-3.6-8-8c0-4.4,3.6-8,8-8
	c4.4,0,8,3.6,8,8C115.6-63.9,112-60.3,107.6-60.3z"/>
<g>
	<path fill="#2E368F" stroke="#2E368F" stroke-width="0.75" stroke-miterlimit="10" d="M347.8-22.5c0.3,0,0.5-0.2,0.5-0.5v-7.1
		c0-0.3-0.2-0.5-0.5-0.5s-0.5,0.2-0.5,0.5v7.1C347.3-22.7,347.6-22.5,347.8-22.5z"/>
	<path fill="#2E368F" stroke="#2E368F" stroke-width="0.75" stroke-miterlimit="10" d="M347.8-32c0.3,0,0.5-0.2,0.5-0.5v-1
		c0-0.3-0.2-0.5-0.5-0.5s-0.5,0.2-0.5,0.5v1C347.3-32.2,347.5-32,347.8-32z"/>
</g>
<path fill="#2E368F" stroke="#2E368F" stroke-width="0.75" stroke-miterlimit="10" d="M347.8-37.1c-4.9,0-8.9,4-8.9,8.9
	c0,4.9,4,8.9,8.9,8.9s8.9-4,8.9-8.9C356.7-33.1,352.7-37.1,347.8-37.1z M347.8-20.1c-4.5,0-8.1-3.6-8.1-8.1c0-4.5,3.6-8.1,8.1-8.1
	s8.1,3.6,8.1,8.1C355.9-23.8,352.3-20.1,347.8-20.1z"/>
<path fill="#2E368F" stroke="#2E368F" stroke-width="0.75" stroke-miterlimit="10" d="M227.8-37.2c-5.2,0-9.4,4.2-9.4,9.4
	c0,5.2,4.2,9.4,9.4,9.4c5.2,0,9.4-4.2,9.4-9.4C237.2-33,233-37.2,227.8-37.2z M227.8-19.3c-4.7,0-8.5-3.8-8.5-8.5
	c0-4.7,3.8-8.5,8.5-8.5c4.7,0,8.5,3.8,8.5,8.5C236.4-23.1,232.5-19.3,227.8-19.3z"/>
<polygon fill="#2E368F" points="232.7,-28.2 230.2,-28.2 230.2,-31.9 225.3,-31.9 225.3,-28.2 222.9,-28.2 227.8,-23.3 "/>
<path fill="#2E368F" stroke="#2E368F" stroke-width="0.75" stroke-miterlimit="10" d="M67.6-76.9c-4.9,0-8.8,4-8.8,8.8
	c0,4.9,4,8.8,8.8,8.8s8.8-4,8.8-8.8C76.4-72.9,72.5-76.9,67.6-76.9z M67.6-60c-4.4,0-8-3.6-8-8c0-4.4,3.6-8,8-8s8,3.6,8,8
	C75.7-63.6,72.1-60,67.6-60z"/>
<polygon fill="#2E368F" points="72.2,-68.4 69.9,-68.4 69.9,-71.9 65.3,-71.9 65.3,-68.4 63,-68.4 67.6,-63.8 "/>
<path fill="#2E368F" stroke="#2E368F" stroke-width="0.75" stroke-miterlimit="10" d="M388.2-117.2c-5,0-9,4.1-9,9c0,5,4.1,9,9,9
	s9-4.1,9-9C397.2-113.2,393.2-117.2,388.2-117.2z M388.2-99.9c-4.5,0-8.2-3.7-8.2-8.2c0-4.5,3.7-8.2,8.2-8.2s8.2,3.7,8.2,8.2
	C396.5-103.6,392.8-99.9,388.2-99.9z"/>
<path fill="#2E368F" stroke="#2E368F" stroke-width="0.75" stroke-miterlimit="10" d="M192.6-71.8c-0.1-0.1-0.3-0.1-0.4,0l-6.8,6.8
	l-2.2-2.2c-0.1-0.1-0.3-0.1-0.4,0c-0.1,0.1-0.1,0.3,0,0.4l2.4,2.4c0.1,0.1,0.1,0.1,0.2,0.1s0.1,0,0.2-0.1l7-7
	C192.8-71.5,192.8-71.7,192.6-71.8z"/>
<path fill="#2E368F" stroke="#2E368F" stroke-width="0.75" stroke-miterlimit="10" d="M110.7-26.3c-0.1-0.1-0.2-0.1-0.2,0l-3.6,3.6
	l-1.2-1.2c-0.1-0.1-0.2-0.1-0.2,0c-0.1,0.1-0.1,0.2,0,0.2l1.3,1.3c0,0,0.1,0,0.1,0c0,0,0.1,0,0.1,0l3.8-3.8
	C110.8-26.1,110.8-26.2,110.7-26.3z"/>
<path fill="#2E368F" stroke="#2E368F" stroke-width="0.45" stroke-miterlimit="10" d="M187.7-77.5c-5.2,0-9.5,4.2-9.5,9.5
	c0,5.2,4.2,9.5,9.5,9.5s9.5-4.2,9.5-9.5C197.2-73.3,193-77.5,187.7-77.5z M187.7-59.4c-4.8,0-8.6-3.9-8.6-8.6c0-4.8,3.9-8.6,8.6-8.6
	s8.6,3.9,8.6,8.6C196.4-63.3,192.5-59.4,187.7-59.4z"/>
<g>
	<path fill="#2E368F" stroke="#2E368F" stroke-width="0.75" stroke-miterlimit="10" d="M391.2-31.2c0.1-0.1,0.1-0.3,0-0.4
		c-0.1-0.1-0.3-0.1-0.4,0l-4.4,4.4l0.4,0.4L391.2-31.2z"/>
	<path fill="#2E368F" stroke="#2E368F" stroke-width="0.75" stroke-miterlimit="10" d="M384-24.9l-2.1-2.1c-0.1-0.1-0.3-0.1-0.4,0
		c-0.1,0.1-0.1,0.3,0,0.4l2.3,2.3c0.1,0.1,0.1,0.1,0.2,0.1c0.1,0,0.1,0,0.2-0.1l0.2-0.2L384-24.9L384-24.9z"/>
	<path fill="#2E368F" stroke="#2E368F" stroke-width="0.75" stroke-miterlimit="10" d="M384.6-27.3c-0.1-0.1-0.3-0.1-0.4,0
		c-0.1,0.1-0.1,0.3,0,0.4l0.9,0.9l0.4-0.4L384.6-27.3z"/>
	<path fill="#2E368F" stroke="#2E368F" stroke-width="0.75" stroke-miterlimit="10" d="M393.9-31.9c-0.1-0.1-0.3-0.1-0.4,0l-6.8,6.8
		l-0.8-0.8l-0.4,0.4l1,1c0.1,0.1,0.1,0.1,0.2,0.1c0.1,0,0.1,0,0.2-0.1l7-7C394-31.6,394-31.8,393.9-31.9z"/>
	
		<rect x="385.2" y="-26.2" transform="matrix(0.7074 -0.7068 0.7068 0.7074 131.1297 264.907)" fill="#2E368F" stroke="#2E368F" stroke-width="0.75" stroke-miterlimit="10" width="0.6" height="0.6"/>
</g>
<path fill="#2E368F" stroke="#2E368F" stroke-width="0.75" stroke-miterlimit="10" d="M387.7-37.5c-5.2,0-9.4,4.2-9.4,9.4
	c0,5.2,4.2,9.4,9.4,9.4c5.2,0,9.4-4.2,9.4-9.4C397.1-33.3,392.9-37.5,387.7-37.5z M387.7-19.5c-4.7,0-8.6-3.8-8.6-8.6
	c0-4.7,3.8-8.6,8.6-8.6c4.7,0,8.6,3.8,8.6,8.6C396.3-23.3,392.4-19.5,387.7-19.5z"/>
<circle fill="#2E368F" cx="267.9" cy="-27.9" r="5.2"/>
<path fill="#2E368F" stroke="#2E368F" stroke-width="0.75" stroke-miterlimit="10" d="M267.9-36.8c-4.9,0-9,4-9,9c0,4.9,4,9,9,9
	c4.9,0,9-4,9-9C276.8-32.8,272.8-36.8,267.9-36.8z M267.9-19.7c-4.5,0-8.2-3.7-8.2-8.2c0-4.5,3.7-8.2,8.2-8.2c4.5,0,8.2,3.7,8.2,8.2
	C276-23.4,272.4-19.7,267.9-19.7z"/>
<circle fill="#2E368F" cx="347.5" cy="-108.3" r="5.2"/>
<path fill="#2E368F" stroke="#2E368F" stroke-width="0.75" stroke-miterlimit="10" d="M347.5-117.3c-5,0-9.1,4.1-9.1,9.1
	c0,5,4.1,9.1,9.1,9.1c5,0,9.1-4.1,9.1-9.1C356.6-113.3,352.5-117.3,347.5-117.3z M347.5-100c-4.6,0-8.3-3.7-8.3-8.3
	c0-4.6,3.7-8.3,8.3-8.3s8.3,3.7,8.3,8.3C355.8-103.7,352.1-100,347.5-100z"/>
<g>
	<path fill="#2E368F" d="M352.4-73.5v3.5h1v-3.9c0-0.2-0.1-0.3-0.2-0.4l-3.3-2.9c-0.1-0.1-0.3-0.1-0.4-0.1h-9.4
		c-0.3,0-0.6,0.3-0.6,0.6v17.4c0,0.3,0.3,0.6,0.6,0.6h12.7c0.3,0,0.6-0.3,0.6-0.6v-4.6h-1v4.2h-11.9v-16.7h8.8v2.9H352.4z"/>
	<g>
		<path fill="#2E368F" d="M348.2-67.7c-0.1,0-0.2,0-0.4,0h-0.2v0.7h0.3c0.2,0,0.3,0,0.4,0c0.1,0,0.1-0.1,0.2-0.1
			c0-0.1,0.1-0.1,0.1-0.2c0-0.1,0-0.2-0.1-0.2C348.3-67.7,348.3-67.7,348.2-67.7z"/>
		<path fill="#2E368F" d="M350.7-67.6c-0.1-0.1-0.1-0.1-0.2-0.1c-0.1,0-0.2,0-0.4,0h-0.2v1.6h0.4c0.1,0,0.2,0,0.3,0
			c0.1,0,0.1-0.1,0.2-0.1c0.1,0,0.1-0.1,0.1-0.2c0-0.1,0-0.3,0-0.4s0-0.3,0-0.4C350.8-67.5,350.7-67.5,350.7-67.6z"/>
		<path fill="#2E368F" d="M354.1-69.3h-7.9c-0.4,0-0.7,0.3-0.7,0.7v3.4c0,0.4,0.3,0.7,0.7,0.7h7.9c0.4,0,0.7-0.3,0.7-0.7v-3.4
			C354.8-69,354.5-69.3,354.1-69.3z M348.9-67c-0.1,0.1-0.1,0.2-0.2,0.2c-0.1,0.1-0.2,0.1-0.3,0.1c-0.1,0-0.3,0-0.5,0h-0.3v0.9h-0.5
			v-2.4h0.8c0.3,0,0.5,0,0.6,0c0.1,0,0.3,0.1,0.3,0.2c0.1,0.1,0.1,0.3,0.1,0.5C349-67.2,348.9-67.1,348.9-67z M351.3-66.4
			c-0.1,0.2-0.1,0.3-0.3,0.4c-0.1,0.1-0.2,0.1-0.3,0.2c-0.1,0-0.3,0.1-0.4,0.1h-0.9v-2.4h0.9c0.2,0,0.4,0,0.5,0
			c0.1,0,0.3,0.1,0.4,0.2c0.1,0.1,0.2,0.2,0.2,0.4c0.1,0.2,0.1,0.3,0.1,0.6C351.4-66.7,351.4-66.5,351.3-66.4z M353.3-67.7h-1.2v0.6
			h1v0.4h-1v1h-0.5v-2.4h1.7V-67.7z"/>
	</g>
</g>
<path fill="#2E368F" stroke="#2E368F" stroke-width="0.5" stroke-miterlimit="10" d="M396.7-72.9c-0.1-0.1-0.4-0.1-0.5,0l-9.1,9.1
	l-2.9-2.9c-0.1-0.1-0.4-0.1-0.5,0s-0.1,0.4,0,0.5l3.1,3.1c0.1,0.1,0.2,0.1,0.3,0.1c0.1,0,0.2,0,0.3-0.1l9.4-9.4
	C396.8-72.6,396.8-72.8,396.7-72.9z"/>
<path fill="#2E368F" d="M391-73.6v3.5h1V-74c0-0.2-0.1-0.3-0.2-0.4l-3.2-2.9c-0.1-0.1-0.3-0.1-0.4-0.1h-9.3c-0.3,0-0.6,0.3-0.6,0.6
	v17.2c0,0.3,0.3,0.6,0.6,0.6h12.5c0.3,0,0.6-0.3,0.6-0.6v-4.5h-1v4.2h-11.8v-16.5h8.7v2.9H391z"/>
<rect x="222.5" y="-69.2" fill="#2E368F" width="9.1" height="0.8"/>
<rect x="222.5" y="-66.9" fill="#2E368F" width="9.1" height="0.8"/>
<rect x="222.5" y="-71.5" fill="#2E368F" width="5.3" height="0.8"/>
<rect x="222.5" y="-64.6" fill="#2E368F" width="9.1" height="0.8"/>
<path fill="#2E368F" d="M233.1-73.9v10.3h1v-10.7c0-0.2-0.1-0.3-0.2-0.5l-3.4-3.1c-0.1-0.1-0.3-0.2-0.4-0.2h-9.8
	c-0.4,0-0.6,0.3-0.6,0.6V-59c0,0.4,0.3,0.6,0.6,0.6h13.3c0.4,0,0.6-0.3,0.6-0.6v-4.8h-1v4.4h-12.5v-17.5h9.2v3H233.1z"/>
<g>
	<path fill="#2E368F" d="M140.2-37.2V-21h1.1v-15.1h6.9v5.1h5.1v10h1.1v-10.9l-5.4-5.4H140.2z M149.3-32.2v-3.1l3.1,3.1H149.3z"/>
	<polygon fill="#2E368F" points="145.2,-21.8 145.2,-19 149.5,-19 149.5,-21.8 152.2,-21.8 147.3,-25.6 142.4,-21.8 	"/>
</g>
<g>
	<path fill="#2E368F" d="M419.5-78.1v17.9h1.3v-16.6h7.5v5.6h5.6v11h1.3v-11.9l-6-6H419.5z M429.6-72.5V-76l3.4,3.4H429.6z"/>
	<polygon fill="#2E368F" points="429.7,-62.4 429.7,-65.4 425,-65.4 425,-62.4 422,-62.4 427.4,-58.1 432.7,-62.4 	"/>
</g>
<path fill="#2E368F" d="M455.5-78.1v17.9h1.3v-16.6h7.5v5.6h5.6v11h1.3v-11.9l-6-6H455.5z M465.5-72.5V-76l3.4,3.4H465.5z"/>
<path fill="#2E368F" d="M60.6-37.4v17.5h1.2v-16.3h7.4v5.5h5.5v10.8H76v-11.7l-5.8-5.8H60.6z M70.5-31.9v-3.4l3.4,3.4H70.5z"/>
<path fill="#2E368F" stroke="#2E368F" stroke-width="0.75" stroke-miterlimit="10" d="M108.2-29c-2.6,0-4.6,2.1-4.6,4.6
	c0,2.6,2.1,4.6,4.6,4.6s4.6-2.1,4.6-4.6C112.9-26.9,110.8-29,108.2-29z M108.2-20.1c-2.3,0-4.2-1.9-4.2-4.2c0-2.3,1.9-4.2,4.2-4.2
	s4.2,1.9,4.2,4.2C112.5-22,110.6-20.1,108.2-20.1z"/>
<path fill="#2E368F" d="M100.8-37.4v17.1h1.2v-15.9h7.2v5.3h5.3v10.6h1.2v-11.4l-5.7-5.7H100.8z M110.4-32v-3.3l3.3,3.3H110.4z"/>
<path fill="#2E368F" stroke="#2E368F" stroke-width="0.75" stroke-miterlimit="10" d="M38.8-29.9c-2.6,0-4.6,2.1-4.6,4.6
	c0,2.6,2.1,4.6,4.6,4.6c2.6,0,4.6-2.1,4.6-4.6C43.5-27.8,41.4-29.9,38.8-29.9z M38.8-21c-2.3,0-4.2-1.9-4.2-4.2
	c0-2.3,1.9-4.2,4.2-4.2c2.3,0,4.2,1.9,4.2,4.2C43-22.9,41.1-21,38.8-21z"/>
<path fill="#2E368F" d="M31.4-38.2v17.1h1.2V-37h7.2v5.3h5.3v10.6h1.2v-11.4l-5.7-5.7H31.4z M41-32.9v-3.3l3.3,3.3H41z"/>
<g>
	<path fill="#2E368F" d="M219.6,2.4v17.4h1.2V3.6h7.3V9h5.4v10.7h1.2V8.2L229,2.4H219.6z M229.4,7.8V4.5l3.3,3.3H229.4z"/>
</g>
<path fill="#2E368F" d="M260.3,2.2v17.6h1.2V3.5h7.4V9h5.5v10.9h1.2V8.1l-5.9-5.9H260.3z M270.2,7.7V4.4l3.4,3.4H270.2z"/>
<path fill="#2E368F" stroke="#2E368F" stroke-width="0.75" stroke-miterlimit="10" d="M42.9,20l-2.1-2.1c1.4-1.5,1.3-3.9-0.2-5.4
	c-1.5-1.5-4-1.5-5.5,0c-1.5,1.5-1.5,4,0,5.5c0.8,0.8,1.8,1.1,2.8,1.1c0.9,0,1.9-0.3,2.6-1l2.1,2.1c0,0,0.1,0.1,0.2,0.1
	s0.1,0,0.2-0.1C43,20.2,43,20.1,42.9,20z M35.4,17.7c-1.3-1.3-1.3-3.5,0-4.9c0.7-0.7,1.6-1,2.4-1s1.8,0.3,2.4,1
	c1.3,1.3,1.3,3.5,0,4.9C39,19.1,36.8,19.1,35.4,17.7z"/>
<path fill="#2E368F" d="M30.7,2.2v17.6h1.2V3.5h7.4V9h5.5v10.9h1.2V8.1l-5.9-5.9H30.7z M40.6,7.7V4.4L44,7.7H40.6z"/>
<path fill="#2E368F" d="M299.8,2.4v17.6h1.2V3.6h7.4v5.5h5.5v10.8h1.2V8.2l-5.8-5.8H299.8z M309.7,7.8V4.5l3.4,3.4H309.7z"/>
<path fill="#2E368F" stroke="#2E368F" stroke-width="0.75" stroke-miterlimit="10" d="M307.5,13.9c-2.8,0-4.9,3.3-4.9,3.3
	s2.2,3.2,4.9,3.2c2.8,0,4.9-3.3,4.9-3.3S310.3,13.9,307.5,13.9z M307.5,19.8c-2.4,0-4.2-2.8-4.2-2.8s1.9-2.8,4.2-2.8
	s4.2,2.8,4.2,2.8S309.9,19.8,307.5,19.8z"/>
<path fill="none" stroke="#2E368F" stroke-width="0.5" stroke-miterlimit="10" d="M307.5,15.6c-0.8,0-1.6,0.6-1.6,1.6
	c0,0.8,0.6,1.6,1.6,1.6c0.8,0,1.6-0.6,1.6-1.6C309,16.4,308.3,15.6,307.5,15.6z M307.5,18.3c-0.6,0-1.1-0.5-1.1-1.1
	c0-0.5,0.5-1.2,1.1-1.2s1.1,0.5,1.1,1.1C308.6,17.6,308.1,18.3,307.5,18.3z"/>
<g>
	<g>
		<g>
			<g>
				<polygon fill="#2E368F" points="66.2,47.4 62.1,43.3 58,47.4 60.6,47.4 60.6,61.9 63.5,61.9 63.5,47.4 				"/>
				<rect x="66.5" y="43.3" fill="#2E368F" width="8.7" height="2.8"/>
				<rect x="65.7" y="48.5" fill="#2E368F" width="9.5" height="2.8"/>
				<rect x="65.7" y="53.9" fill="#2E368F" width="9.5" height="2.8"/>
				<rect x="65.6" y="59" fill="#2E368F" width="9.6" height="2.8"/>
			</g>
		</g>
	</g>
</g>
<g>
	<g>
		<g>
			<g>
				<polygon fill="#2E368F" points="98.7,56.8 102.4,60.6 106.2,56.8 103.8,56.9 103.8,43.6 101.1,43.6 101.1,56.9 				"/>
				<rect x="105.7" y="58" fill="#2E368F" width="8.9" height="2.6"/>
				<rect x="105.7" y="53.3" fill="#2E368F" width="9.7" height="2.6"/>
				<rect x="105.7" y="48.3" fill="#2E368F" width="9.7" height="2.6"/>
				<rect x="105.7" y="43.6" fill="#2E368F" width="9.8" height="2.6"/>
			</g>
		</g>
	</g>
</g>
<path fill="#2E368F" d="M379.2,11.7h12.7L389.1,9c-0.2-0.2-0.2-0.6,0-0.8s0.6-0.2,0.8,0l3.6,3.6c0.2,0.2,0.2,0.6,0,0.8l-3.6,3.6
	c-0.1,0.1-0.2,0.2-0.4,0.2s-0.3-0.1-0.4-0.2c-0.2-0.2-0.2-0.6,0-0.8l2.7-2.7h-12.7c-0.3,0-0.5-0.2-0.5-0.5
	C378.6,11.9,378.9,11.7,379.2,11.7z M393.5,2.8h-11c-2.1,0-3.9,1.7-3.9,3.9V9c0,0.3,0.2,0.5,0.5,0.5s0.5-0.2,0.5-0.5V6.7
	c0-1.5,1.3-2.8,2.8-2.8h11c1.5,0,2.8,1.3,2.8,2.8v11c0,1.5-1.3,2.8-2.8,2.8h-11c-1.5,0-2.8-1.3-2.8-2.8v-2.3c0-0.3-0.2-0.5-0.5-0.5
	s-0.5,0.2-0.5,0.5v2.3c0,2.1,1.7,3.9,3.9,3.9h11c2.1,0,3.9-1.7,3.9-3.9v-11C397.4,4.5,395.7,2.8,393.5,2.8z"/>
<path fill="#2E368F" d="M388,12.2"/>
<path fill="#2E368F" d="M388,12.2"/>
<polyline fill="none" stroke="#2E368F" stroke-width="0.95" stroke-miterlimit="10" points="182.4,52 183.9,54 186.5,50.8 "/>
<path fill="none" stroke="#2E368F" stroke-width="0.95" stroke-miterlimit="10" d="M192.6,56.3h-10.2c-2.1,0-3.8-1.7-3.8-3.8l0,0
	c0-2.1,1.7-3.8,3.8-3.8h10.2c2.1,0,3.8,1.7,3.8,3.8l0,0C196.4,54.6,194.7,56.3,192.6,56.3z"/>
<circle fill="none" stroke="#2E368F" stroke-width="0.95" stroke-miterlimit="10" cx="192.4" cy="52.5" r="2.5"/>
<path fill="none" stroke="#2E368F" stroke-width="0.95" stroke-miterlimit="10" d="M232.9,56.3h-10.2c-2.1,0-3.8-1.7-3.8-3.8l0,0
	c0-2.1,1.7-3.8,3.8-3.8h10.2c2.1,0,3.8,1.7,3.8,3.8l0,0C236.7,54.6,235,56.3,232.9,56.3z"/>
<circle fill="none" stroke="#2E368F" stroke-width="0.95" stroke-miterlimit="10" cx="223.5" cy="52.5" r="2.5"/>
<g>
	<path fill="#2E368F" d="M274,50.5c-0.3,0-0.5,0-0.8-0.1c-0.2,0-0.3-0.2-0.2-0.4c0-0.2,0.2-0.3,0.4-0.2c1.3,0.3,2.6-0.3,3.2-1.5
		c0.3-0.7,0.4-1.5,0.2-2.2c-0.2-0.7-0.8-1.3-1.4-1.7c-0.7-0.3-1.5-0.4-2.2-0.2c-0.7,0.2-1.3,0.8-1.7,1.4c-0.1,0.1-0.3,0.2-0.4,0.1
		c-0.1-0.1-0.2-0.3-0.1-0.4c0.4-0.8,1.1-1.4,2-1.7c0.9-0.3,1.8-0.2,2.7,0.2c0.8,0.4,1.4,1.1,1.7,2c0.3,0.9,0.2,1.8-0.2,2.7
		C276.5,49.7,275.3,50.5,274,50.5z M274,45.4v3.1 M272.4,47h3.1 M274.3,48.5v-1.3h1.2c0.2,0,0.3-0.1,0.3-0.3c0-0.2-0.1-0.3-0.3-0.3
		h-1.2v-1.3c0-0.2-0.1-0.3-0.3-0.3s-0.3,0.1-0.3,0.3v1.3h-1.3c-0.2,0-0.3,0.1-0.3,0.3c0,0.2,0.1,0.3,0.3,0.3h1.3v1.3
		c0,0.2,0.1,0.3,0.3,0.3S274.3,48.7,274.3,48.5z"/>
	<g>
		<path fill="#2E368F" d="M265.9,60.1c-2.5,0-4.8-1.6-6.1-4.2c-0.4,0-0.9-0.3-1.2-0.9c-0.5-0.9-0.8-2.4-0.4-3.1
			c0.2-0.3,0.4-0.4,0.7-0.4c0,0,0,0,0,0c0.1-2,0.8-3.9,2-5.3c1.3-1.5,3-2.4,4.9-2.4c1.8,0,3.6,0.8,4.9,2.4c1.2,1.4,1.9,3.3,2,5.3
			c0,0,0,0,0,0c0.2,0,0.9,0.1,0.9,1.4c0,1.3-0.7,3-1.7,3.1C270.7,58.5,268.4,60.1,265.9,60.1z M260,55.3c0.1,0,0.2,0.1,0.3,0.2
			c1.1,2.5,3.2,4,5.6,4c2.3,0,4.5-1.5,5.6-4c0.1-0.1,0.2-0.2,0.3-0.2c0,0,0,0,0.1,0l0,0c0.6,0,1.2-1.4,1.2-2.5
			c0-0.5-0.1-0.8-0.3-0.8c0,0-0.1,0-0.2,0c-0.1,0-0.2,0-0.3,0c-0.1-0.1-0.1-0.1-0.1-0.2c0-4.1-2.9-7.5-6.3-7.5
			c-3.4,0-6.3,3.3-6.3,7.5c0,0.1-0.1,0.2-0.1,0.2c-0.1,0.1-0.2,0.1-0.3,0c-0.1,0-0.1,0-0.2,0c0,0-0.1,0-0.1,0.1
			c-0.3,0.4-0.1,1.7,0.4,2.5c0.1,0.2,0.4,0.6,0.7,0.6C260,55.3,260,55.3,260,55.3C260,55.3,260,55.3,260,55.3z"/>
	</g>
	<g>
		<path fill="#2E368F" d="M272.5,51.8c-1.8-0.4-3.6-2.6-4.6-4.4c-0.9,0.8-1.8,1.6-2.8,2.2c-2.5,1.7-5.7,2.2-5.7,2.2s0.2-2.5,1.8-4.6
			c0.7-0.9,1.6-1.8,2.7-2.3c1.6-0.8,3.8-0.6,5.3,0.4c0.4,0.3,0.8,0.6,1.1,1c0.6,0.8,1.1,1.8,1.4,2.7c0.3,0.8,0.5,1.6,0.7,2.4
			C272.4,51.5,272.4,51.7,272.5,51.8z"/>
		<path fill="#2E368F" d="M272.5,52.1c-1.7-0.4-3.6-2.5-4.7-4.3c-0.7,0.7-1.6,1.3-2.6,2c-2.5,1.7-5.7,2.3-5.8,2.3
			c-0.1,0-0.3-0.2-0.2-0.3c0-0.1,0,0.1,0,0c0-0.1,0.2-2.5,1.8-4.8c0.8-1,1.8-1.9,2.8-2.4c0.7-0.3,1.5-0.5,2.4-0.5
			c1.1,0,2.2,0.3,3.1,0.9c0.4,0.2,0.8,0.6,1.2,1.1c0.6,0.8,1.1,1.8,1.5,2.8c0.3,0.7,0.5,1.5,0.7,2.5c0,0.2,0.1,0.3,0.1,0.5
			c0,0,0,0,0,0.1C272.7,52,272.6,52.1,272.5,52.1"/>
	</g>
</g>
<path fill="#2E368F" d="M194-149.1c-0.3,0-0.5,0-0.8-0.1c-0.2,0-0.3-0.2-0.2-0.4c0-0.2,0.2-0.3,0.4-0.2c1.3,0.3,2.6-0.3,3.2-1.5
	c0.3-0.7,0.4-1.5,0.2-2.2c-0.2-0.7-0.8-1.3-1.5-1.7c-0.7-0.3-1.5-0.4-2.2-0.2c-0.7,0.2-1.3,0.8-1.7,1.5c-0.1,0.1-0.3,0.2-0.4,0.1
	c-0.1-0.1-0.2-0.3-0.1-0.4c0.4-0.8,1.1-1.5,2-1.8c0.9-0.3,1.8-0.2,2.7,0.2c0.8,0.4,1.5,1.1,1.8,2c0.3,0.9,0.2,1.8-0.2,2.7
	C196.5-149.8,195.3-149.1,194-149.1z"/>
<g>
	<path fill="#2E368F" d="M185.7-139.3c-2.6,0-4.9-1.6-6.1-4.2c-0.5,0-0.9-0.3-1.2-0.9c-0.5-0.9-0.8-2.4-0.4-3.2
		c0.2-0.3,0.4-0.4,0.7-0.4c0,0,0,0,0,0c0.1-2,0.8-3.9,2.1-5.4c1.3-1.5,3.1-2.4,4.9-2.4c1.9,0,3.6,0.9,4.9,2.4c1.2,1.4,2,3.3,2.1,5.4
		c0,0,0,0,0,0c0.2,0,0.9,0.1,0.9,1.4c0,1.3-0.7,3-1.8,3.1C190.6-141,188.3-139.3,185.7-139.3z M179.8-144.2c0.1,0,0.2,0.1,0.3,0.2
		c1.1,2.5,3.3,4.1,5.7,4.1c2.4,0,4.5-1.6,5.7-4.1c0.1-0.1,0.2-0.2,0.3-0.2c0,0,0,0,0.1,0l0,0c0.6,0,1.2-1.4,1.2-2.5
		c0-0.5-0.1-0.8-0.3-0.8c0,0-0.1,0-0.2,0c-0.1,0-0.2,0-0.3,0c-0.1-0.1-0.1-0.1-0.1-0.3c0-4.2-2.9-7.5-6.4-7.5
		c-3.5,0-6.3,3.4-6.4,7.5c0,0.1-0.1,0.2-0.1,0.3c-0.1,0.1-0.2,0.1-0.3,0c-0.1,0-0.1,0-0.2,0c0,0-0.1,0-0.2,0.1
		c-0.3,0.4-0.1,1.7,0.4,2.6c0.1,0.2,0.4,0.6,0.7,0.6C179.7-144.2,179.7-144.2,179.8-144.2C179.8-144.2,179.8-144.2,179.8-144.2z"/>
</g>
<g>
	<path fill="#2E368F" d="M192.4-147.7c-1.8-0.4-3.7-2.6-4.7-4.5c-0.9,0.8-1.9,1.6-2.9,2.3c-2.5,1.7-5.7,2.2-5.7,2.2s0.2-2.5,1.8-4.7
		c0.7-0.9,1.7-1.8,2.7-2.4c1.6-0.8,3.8-0.6,5.3,0.4c0.4,0.3,0.9,0.6,1.2,1c0.6,0.8,1.1,1.8,1.4,2.7c0.3,0.8,0.5,1.6,0.7,2.5
		C192.3-148,192.4-147.9,192.4-147.7z"/>
	<path fill="#2E368F" d="M192.4-147.4c-1.8-0.4-3.7-2.5-4.7-4.4c-0.8,0.7-1.6,1.4-2.7,2.1c-2.5,1.7-5.8,2.3-5.9,2.3
		c-0.1,0-0.3-0.2-0.3-0.3c0-0.1,0,0.1,0,0c0-0.1,0.2-2.6,1.9-4.8c0.8-1.1,1.8-1.9,2.8-2.4c0.7-0.3,1.6-0.5,2.4-0.5
		c1.2,0,2.3,0.3,3.1,0.9c0.4,0.2,0.9,0.6,1.2,1.1c0.7,0.8,1.1,1.8,1.5,2.8c0.3,0.7,0.5,1.5,0.8,2.5c0,0.2,0.1,0.3,0.1,0.5
		c0,0,0,0.1,0,0.1C192.6-147.6,192.5-147.4,192.4-147.4"/>
</g>
<path fill="#2E368F" d="M434.5,52.2c-0.2,0-0.5,0-0.7-0.1c-0.2,0-0.2-0.2-0.2-0.3c0-0.2,0.2-0.2,0.3-0.2c1.2,0.3,2.4-0.3,3-1.4
	c0.3-0.6,0.4-1.4,0.1-2.1c-0.2-0.7-0.7-1.2-1.3-1.6c-0.6-0.3-1.4-0.4-2.1-0.1c-0.7,0.2-1.2,0.7-1.6,1.3c-0.1,0.1-0.2,0.2-0.4,0.1
	c-0.1-0.1-0.2-0.2-0.1-0.4c0.4-0.8,1.1-1.4,1.9-1.6c0.8-0.3,1.7-0.2,2.5,0.2c0.8,0.4,1.4,1.1,1.6,1.9c0.3,0.8,0.2,1.7-0.2,2.5
	C436.9,51.6,435.7,52.2,434.5,52.2z"/>
<g>
	<g>
		<path fill="#2E368F" d="M426.9,61.2c-2.4,0-4.5-1.5-5.6-3.9c-0.4,0-0.8-0.3-1.1-0.8c-0.5-0.8-0.7-2.3-0.3-2.9
			c0.1-0.2,0.4-0.4,0.6-0.4c0,0,0,0,0,0c0.1-1.9,0.8-3.6,1.9-5c1.2-1.4,2.8-2.2,4.6-2.2c1.7,0,3.3,0.8,4.6,2.2
			c1.1,1.3,1.8,3.1,1.9,5c0,0,0,0,0,0c0.2,0,0.8,0.1,0.8,1.3c0,1.2-0.6,2.8-1.6,2.9C431.4,59.7,429.3,61.2,426.9,61.2z M421.5,56.7
			c0.1,0,0.2,0.1,0.3,0.2c1,2.3,3,3.8,5.2,3.8c2.2,0,4.2-1.4,5.2-3.8c0.1-0.1,0.2-0.2,0.3-0.2c0,0,0,0,0.1,0l0,0
			c0.6,0,1.1-1.3,1.1-2.3c0-0.4-0.1-0.7-0.3-0.7c0,0-0.1,0-0.2,0c-0.1,0-0.2,0-0.3,0c-0.1-0.1-0.1-0.1-0.1-0.2c0-3.8-2.7-7-5.9-7
			c-3.2,0-5.9,3.1-5.9,7c0,0.1,0,0.2-0.1,0.2c-0.1,0.1-0.2,0.1-0.3,0c-0.1,0-0.1,0-0.2,0c0,0-0.1,0-0.1,0.1
			c-0.2,0.4-0.1,1.6,0.3,2.4c0.1,0.2,0.4,0.6,0.7,0.6C421.4,56.7,421.4,56.7,421.5,56.7C421.4,56.7,421.5,56.7,421.5,56.7z"/>
	</g>
</g>
<g>
	<g>
		<path fill="#2E368F" d="M433.1,53.5c-1.7-0.3-3.4-2.4-4.3-4.1c-0.8,0.8-1.7,1.4-2.6,2.1c-2.3,1.6-5.3,2-5.3,2s0.2-2.3,1.7-4.3
			c0.6-0.9,1.5-1.7,2.5-2.2c1.5-0.7,3.5-0.6,4.9,0.3c0.4,0.2,0.8,0.6,1.1,0.9c0.6,0.7,1,1.7,1.3,2.5c0.3,0.7,0.5,1.5,0.7,2.3
			C433,53.2,433,53.3,433.1,53.5z"/>
		<path fill="#2E368F" d="M433.1,53.8c-1.6-0.3-2.8-1.4-3.8-3.2c-0.7,2.1-4.8,2.9-5.7,2.4c-2.3,1.6-2.7,0.7-2.8,0.7
			c-0.1,0-0.2-0.2-0.2-0.3c0-0.1,0,0.1,0,0c0-0.1,0.2-2.4,1.7-4.4c0.7-1,1.6-1.8,2.6-2.2c0.7-0.3,1.4-0.5,2.2-0.5
			c1.1,0,2.1,0.3,2.9,0.8c0.3,0.2,0.8,0.6,1.1,1c0.6,0.8,1,1.7,1.4,2.6c0.3,0.7,0.5,1.4,0.7,2.3c0,0.2,0.1,0.3,0.1,0.4
			c0,0,0,0,0,0.1C433.3,53.6,433.2,53.8,433.1,53.8"/>
	</g>
</g>
<g>
	<g>
		<path fill="#2E368F" d="M421.6,53.6c-1.3,0-2.4-0.8-3-2.1c-0.2,0-0.4-0.2-0.6-0.4c-0.3-0.4-0.4-1.2-0.2-1.6
			c0.1-0.1,0.2-0.2,0.3-0.2c0,0,0,0,0,0c0-1,0.4-1.9,1-2.6c0.6-0.8,1.5-1.2,2.4-1.2c0.9,0,1.8,0.4,2.4,1.2c0.6,0.7,1,1.6,1,2.6
			c0,0,0,0,0,0c0.1,0,0.4,0,0.4,0.7c0,0.6-0.3,1.5-0.9,1.5C424,52.8,422.9,53.6,421.6,53.6z M418.7,51.2c0.1,0,0.1,0,0.1,0.1
			c0.5,1.2,1.6,2,2.8,2c1.2,0,2.2-0.8,2.8-2c0-0.1,0.1-0.1,0.2-0.1c0,0,0,0,0,0l0,0c0.3,0,0.6-0.7,0.6-1.2c0-0.2-0.1-0.4-0.1-0.4
			c0,0-0.1,0-0.1,0c0,0-0.1,0-0.1,0c0,0-0.1-0.1-0.1-0.1c0-2-1.4-3.7-3.1-3.7c-1.7,0-3.1,1.7-3.1,3.7c0,0,0,0.1-0.1,0.1
			c0,0-0.1,0-0.1,0c0,0-0.1,0-0.1,0c0,0,0,0-0.1,0.1c-0.1,0.2-0.1,0.8,0.2,1.3C418.4,51,418.5,51.2,418.7,51.2
			C418.7,51.2,418.7,51.2,418.7,51.2C418.7,51.2,418.7,51.2,418.7,51.2z"/>
	</g>
	<g>
		<path fill="#2E368F" d="M424.9,49.5c-0.9-0.2-1.8-1.3-2.3-2.2c-0.4,0.4-0.9,0.8-1.4,1.1c-1.2,0.8-2.8,1.1-2.8,1.1s0.1-1.2,0.9-2.3
			c0.3-0.5,0.8-0.9,1.3-1.2c0.8-0.4,1.9-0.3,2.6,0.2c0.2,0.1,0.4,0.3,0.6,0.5c0.3,0.4,0.5,0.9,0.7,1.3c0.2,0.4,0.3,0.8,0.4,1.2
			C424.9,49.3,424.9,49.4,424.9,49.5z"/>
		<path fill="#2E368F" d="M424.9,49.6c-0.9-0.2-1.5-0.8-2-1.7c-0.4,1.1-2.5,1.5-3,1.3c-1.2,0.8-1.4,0.4-1.5,0.4c0,0-0.1-0.1-0.1-0.2
			c0,0,0,0,0,0c0-0.1,0.1-1.3,0.9-2.4c0.4-0.5,0.9-1,1.4-1.2c0.4-0.2,0.8-0.3,1.2-0.3c0.6,0,1.1,0.2,1.5,0.4
			c0.2,0.1,0.4,0.3,0.6,0.5c0.3,0.4,0.5,0.9,0.7,1.4c0.1,0.4,0.3,0.7,0.4,1.2c0,0.1,0,0.2,0,0.2c0,0,0,0,0,0
			C425,49.5,425,49.6,424.9,49.6"/>
	</g>
</g>
<g>
	<g>
		<path fill="#2E368F" d="M424.9,49.1c-0.9,0-1.8-0.6-2.2-1.6c-0.2,0-0.3-0.1-0.4-0.3c-0.2-0.3-0.3-0.9-0.1-1.2
			c0.1-0.1,0.1-0.2,0.2-0.2c0,0,0,0,0,0c0-0.7,0.3-1.4,0.8-2c0.5-0.6,1.1-0.9,1.8-0.9c0.7,0,1.3,0.3,1.8,0.9c0.5,0.5,0.7,1.2,0.8,2
			c0,0,0,0,0,0c0.1,0,0.3,0,0.3,0.5c0,0.5-0.2,1.1-0.6,1.1C426.7,48.5,425.9,49.1,424.9,49.1z M422.8,47.3c0,0,0.1,0,0.1,0.1
			c0.4,0.9,1.2,1.5,2.1,1.5c0.9,0,1.7-0.6,2.1-1.5c0,0,0.1-0.1,0.1-0.1c0,0,0,0,0,0l0,0c0.2,0,0.4-0.5,0.4-0.9c0-0.2,0-0.3-0.1-0.3
			c0,0,0,0-0.1,0c0,0-0.1,0-0.1,0c0,0-0.1-0.1-0.1-0.1c0-1.5-1.1-2.8-2.3-2.8c-1.3,0-2.3,1.2-2.3,2.8c0,0,0,0.1-0.1,0.1
			c0,0-0.1,0-0.1,0c0,0,0,0-0.1,0c0,0,0,0-0.1,0c-0.1,0.2-0.1,0.6,0.1,0.9C422.5,47.2,422.6,47.3,422.8,47.3
			C422.7,47.3,422.7,47.3,422.8,47.3C422.8,47.3,422.8,47.3,422.8,47.3z"/>
	</g>
	<g>
		<path fill="#2E368F" d="M427.4,46c-0.7-0.1-1.4-1-1.7-1.6c-0.3,0.3-0.7,0.6-1.1,0.8c-0.9,0.6-2.1,0.8-2.1,0.8s0.1-0.9,0.7-1.7
			c0.3-0.3,0.6-0.7,1-0.9c0.6-0.3,1.4-0.2,2,0.1c0.1,0.1,0.3,0.2,0.4,0.4c0.2,0.3,0.4,0.7,0.5,1c0.1,0.3,0.2,0.6,0.3,0.9
			C427.4,45.9,427.4,46,427.4,46z"/>
		<path fill="#2E368F" d="M427.4,46.1c-0.6-0.1-1.1-0.6-1.5-1.3c-0.3,0.8-1.9,1.1-2.3,1c-0.9,0.6-1.1,0.3-1.1,0.3
			c0,0-0.1-0.1-0.1-0.1c0,0,0,0,0,0c0,0,0.1-0.9,0.7-1.8c0.3-0.4,0.7-0.7,1-0.9c0.3-0.1,0.6-0.2,0.9-0.2c0.4,0,0.8,0.1,1.2,0.3
			c0.1,0.1,0.3,0.2,0.4,0.4c0.2,0.3,0.4,0.7,0.5,1c0.1,0.3,0.2,0.6,0.3,0.9c0,0.1,0,0.1,0,0.2c0,0,0,0,0,0
			C427.5,46.1,427.4,46.1,427.4,46.1"/>
	</g>
</g>
<g>
	<g>
		<path fill="#2E368F" d="M313.9,50.5c-0.3,0-0.5,0-0.8-0.1c-0.2,0-0.3-0.2-0.2-0.4c0-0.2,0.2-0.3,0.4-0.2c1.3,0.3,2.6-0.3,3.2-1.5
			c0.3-0.7,0.4-1.5,0.2-2.2c-0.2-0.7-0.8-1.3-1.4-1.7c-0.7-0.3-1.5-0.4-2.2-0.2c-0.7,0.2-1.3,0.8-1.7,1.4c-0.1,0.1-0.3,0.2-0.4,0.1
			c-0.1-0.1-0.2-0.3-0.1-0.4c0.4-0.8,1.1-1.4,2-1.7c0.9-0.3,1.8-0.2,2.7,0.2c0.8,0.4,1.4,1.1,1.7,2c0.3,0.9,0.2,1.8-0.2,2.7
			C316.4,49.7,315.2,50.5,313.9,50.5z"/>
		<g>
			<path fill="#2E368F" d="M305.8,60.1c-2.5,0-4.8-1.6-6.1-4.2c-0.4,0-0.9-0.3-1.2-0.9c-0.5-0.9-0.8-2.4-0.4-3.1
				c0.2-0.3,0.4-0.4,0.7-0.4c0,0,0,0,0,0c0.1-2,0.8-3.9,2-5.3c1.3-1.5,3-2.4,4.9-2.4c1.8,0,3.6,0.8,4.9,2.4c1.2,1.4,1.9,3.3,2,5.3
				c0,0,0,0,0,0c0.2,0,0.9,0.1,0.9,1.4c0,1.3-0.7,3-1.7,3.1C310.6,58.5,308.3,60.1,305.8,60.1z M299.9,55.3c0.1,0,0.2,0.1,0.3,0.2
				c1.1,2.5,3.2,4,5.6,4c2.3,0,4.5-1.5,5.6-4c0.1-0.1,0.2-0.2,0.3-0.2c0,0,0,0,0.1,0l0,0c0.6,0,1.2-1.4,1.2-2.5
				c0-0.5-0.1-0.8-0.3-0.8c0,0-0.1,0-0.2,0c-0.1,0-0.2,0-0.3,0c-0.1-0.1-0.1-0.1-0.1-0.2c0-4.1-2.9-7.5-6.3-7.5
				c-3.4,0-6.3,3.3-6.3,7.5c0,0.1-0.1,0.2-0.1,0.2c-0.1,0.1-0.2,0.1-0.3,0c-0.1,0-0.1,0-0.2,0c0,0-0.1,0-0.1,0.1
				c-0.3,0.4-0.1,1.7,0.4,2.5c0.1,0.2,0.4,0.6,0.7,0.6C299.8,55.3,299.8,55.3,299.9,55.3C299.9,55.3,299.9,55.3,299.9,55.3z"/>
		</g>
		<g>
			<path fill="#2E368F" d="M312.3,51.8c-1.8-0.4-3.6-2.6-4.6-4.4c-0.9,0.8-1.8,1.6-2.8,2.2c-2.5,1.7-5.7,2.2-5.7,2.2
				s0.2-2.5,1.8-4.6c0.7-0.9,1.6-1.8,2.7-2.3c1.6-0.8,3.8-0.6,5.3,0.4c0.4,0.3,0.8,0.6,1.1,1c0.6,0.8,1.1,1.8,1.4,2.7
				c0.3,0.8,0.5,1.6,0.7,2.4C312.3,51.5,312.3,51.7,312.3,51.8z"/>
			<path fill="#2E368F" d="M312.3,52.1c-1.7-0.4-3.6-2.5-4.7-4.3c-0.7,0.7-1.6,1.3-2.6,2c-2.5,1.7-5.7,2.3-5.8,2.3
				c-0.1,0-0.3-0.2-0.2-0.3c0-0.1,0,0.1,0,0c0-0.1,0.2-2.5,1.8-4.8c0.8-1,1.8-1.9,2.8-2.4c0.7-0.3,1.5-0.5,2.4-0.5
				c1.1,0,2.2,0.3,3.1,0.9c0.4,0.2,0.8,0.6,1.2,1.1c0.6,0.8,1.1,1.8,1.5,2.8c0.3,0.7,0.5,1.5,0.7,2.5c0,0.2,0.1,0.3,0.1,0.5
				c0,0,0,0,0,0.1C312.6,52,312.5,52.1,312.3,52.1"/>
		</g>
	</g>
</g>
<path fill="#2E368F" stroke="#2E368F" stroke-width="0.5" stroke-miterlimit="10" d="M314.2,46.9l1.2-1.2c0,0,0-0.1,0-0.1
	c0,0-0.1,0-0.1,0L314.2,46.9l-1.3-1.3c0,0-0.1,0-0.1,0c0,0,0,0.1,0,0.1l1.2,1.2l-1.2,1.2c0,0,0,0.1,0,0.1c0,0,0,0,0,0s0,0,0,0
	L314.2,46.9l1.1,1.3c0,0,0,0,0,0s0,0,0,0c0,0,0-0.1,0-0.1L314.2,46.9z"/>
<g>
	<g>
		<path fill="#2E368F" stroke="#2E368F" stroke-width="0.15" stroke-miterlimit="10" d="M356,44.6l-1.4-1.4c-0.4-0.4-1.1-0.4-1.5,0
			l-7.8,7.7l-1.6,4.5l4.5-1.6L356,46C356.4,45.6,356.4,45,356,44.6z M345.1,53.3l0.7-1.8l1.8,1.8l-1.8,0.6L345.1,53.3z M346.5,51.6
			l6.1-6.1l0.4,0.4l-6.1,6.1L346.5,51.6z M346.3,51.4l-0.3-0.4l6.1-6.1l0.3,0.4L346.3,51.4z M347.1,52.2l6.1-6.1l0.4,0.4l-6.1,6.1
			L347.1,52.2z M352.4,44.7l0.2-0.2l2,2l-0.2,0.2L352.4,44.7z M348,53.1l-0.3-0.4l6.1-6.1l0.3,0.4L348,53.1z M355.5,45.6l-0.6,0.6
			l-2-2l0.6-0.6c0.2-0.2,0.4-0.2,0.6,0l1.4,1.4C355.7,45.2,355.7,45.4,355.5,45.6z"/>
	</g>
</g>
<circle fill="#2E368F" cx="387.7" cy="51.9" r="9.1"/>
<path fill="#FFFFFF" stroke="#FFFFFF" stroke-miterlimit="10" d="M388.4,51.8l3.9-3.9c0.1-0.1,0.1-0.2,0-0.3c-0.1-0.1-0.2-0.1-0.3,0
	l-3.9,3.9l-3.9-3.9c-0.1-0.1-0.2-0.1-0.3,0c-0.1,0.1-0.1,0.2,0,0.3l3.9,3.9l-3.9,3.9c-0.1,0.1-0.1,0.2,0,0.3c0,0,0.1,0.1,0.2,0.1
	s0.1,0,0.2-0.1l3.9-3.9l3.9,3.9c0,0,0.1,0.1,0.2,0.1s0.1,0,0.2-0.1c0.1-0.1,0.1-0.2,0-0.3L388.4,51.8z"/>
<g>
	<polygon fill="#2E368F" points="432.7,48.4 434.1,47.5 434.1,47.4 432.3,48.4 434.1,49.4 434.1,49.2 	"/>
	<path fill="#2E368F" d="M434.8,48l0-0.6l-1.7,1l1.7,1l0-0.6c1.8,0,2,1.3,2,1.3C436.8,48.4,435.3,48.1,434.8,48z"/>
</g>
<path fill="#2E368F" stroke="#2E368F" stroke-width="0.95" stroke-miterlimit="10" d="M428,6.6c-1.7,0-3.3,0.7-4.3,2V7.1
	c0-0.1-0.1-0.2-0.2-0.2s-0.2,0.1-0.2,0.2v2.1c0,0,0,0,0,0c0,0,0,0,0,0c0,0,0,0,0,0c0,0,0,0,0,0c0,0,0,0,0,0c0,0,0,0,0,0c0,0,0,0,0,0
	c0,0,0,0,0,0c0,0,0,0,0,0c0,0,0,0,0,0h2.1c0.1,0,0.2-0.1,0.2-0.2S425.7,9,425.6,9h-1.7c1-1.2,2.5-2,4.1-2c2.9,0,5.3,2.4,5.3,5.3
	s-2.4,5.3-5.3,5.3c-1.1,0-2.2-0.3-3.1-1c-0.1-0.1-0.2,0-0.3,0c-0.1,0.1,0,0.2,0,0.3c1,0.7,2.1,1,3.3,1c3.2,0,5.7-2.6,5.7-5.7
	S431.1,6.6,428,6.6z"/>
<path fill="#2E368F" d="M433.8-149.1c-0.3,0-0.5,0-0.8-0.1c-0.2,0-0.3-0.2-0.2-0.4c0-0.2,0.2-0.3,0.4-0.2c1.3,0.3,2.6-0.3,3.2-1.5
	c0.3-0.7,0.4-1.5,0.2-2.2c-0.2-0.7-0.8-1.3-1.4-1.7c-0.7-0.3-1.5-0.4-2.2-0.2c-0.7,0.2-1.3,0.8-1.7,1.4c-0.1,0.1-0.3,0.2-0.4,0.1
	c-0.1-0.1-0.2-0.3-0.1-0.4c0.4-0.8,1.1-1.4,2-1.7c0.9-0.3,1.8-0.2,2.7,0.2c0.8,0.4,1.4,1.1,1.7,2c0.3,0.9,0.2,1.8-0.2,2.7
	C436.3-149.9,435.1-149.1,433.8-149.1z"/>
<g>
	<path fill="#2E368F" d="M425.6-139.5c-2.5,0-4.8-1.6-6.1-4.2c-0.4,0-0.9-0.3-1.2-0.9c-0.5-0.9-0.8-2.4-0.4-3.1
		c0.2-0.3,0.4-0.4,0.7-0.4c0,0,0,0,0,0c0.1-2,0.8-3.9,2-5.3c1.3-1.5,3-2.4,4.9-2.4c1.8,0,3.6,0.8,4.9,2.4c1.2,1.4,1.9,3.3,2,5.3
		c0,0,0,0,0,0c0.2,0,0.9,0.1,0.9,1.4c0,1.3-0.7,3-1.7,3.1C430.5-141.1,428.2-139.5,425.6-139.5z M419.8-144.3c0.1,0,0.2,0.1,0.3,0.2
		c1.1,2.5,3.2,4,5.6,4c2.3,0,4.5-1.5,5.6-4c0.1-0.1,0.2-0.2,0.3-0.2c0,0,0,0,0.1,0l0,0c0.6,0,1.2-1.4,1.2-2.5c0-0.5-0.1-0.8-0.3-0.8
		c0,0-0.1,0-0.2,0c-0.1,0-0.2,0-0.3,0c-0.1-0.1-0.1-0.1-0.1-0.2c0-4.1-2.9-7.5-6.3-7.5c-3.4,0-6.3,3.3-6.3,7.5
		c0,0.1-0.1,0.2-0.1,0.2c-0.1,0.1-0.2,0.1-0.3,0c-0.1,0-0.1,0-0.2,0c0,0-0.1,0-0.1,0.1c-0.3,0.4-0.1,1.7,0.4,2.5
		c0.1,0.2,0.4,0.6,0.7,0.6C419.7-144.3,419.7-144.3,419.8-144.3C419.7-144.3,419.7-144.3,419.8-144.3z"/>
</g>
<g>
	<path fill="#2E368F" d="M432.2-147.8c-1.8-0.4-3.6-2.6-4.6-4.4c-0.9,0.8-1.8,1.6-2.8,2.2c-2.5,1.7-5.7,2.2-5.7,2.2s0.2-2.5,1.8-4.6
		c0.7-0.9,1.6-1.8,2.7-2.3c1.6-0.8,3.8-0.6,5.3,0.4c0.4,0.3,0.8,0.6,1.1,1c0.6,0.8,1.1,1.8,1.4,2.7c0.3,0.8,0.5,1.6,0.7,2.4
		C432.1-148.1,432.2-148,432.2-147.8z"/>
	<path fill="#2E368F" d="M432.2-147.5c-1.7-0.4-3.6-2.5-4.7-4.3c-0.7,0.7-1.6,1.3-2.6,2c-2.5,1.7-5.7,2.3-5.8,2.3
		c-0.1,0-0.3-0.2-0.2-0.3c0-0.1,0,0.1,0,0c0-0.1,0.2-2.5,1.8-4.8c0.8-1,1.8-1.9,2.8-2.4c0.7-0.3,1.5-0.5,2.4-0.5
		c1.1,0,2.2,0.3,3.1,0.9c0.4,0.2,0.8,0.6,1.2,1.1c0.6,0.8,1.1,1.8,1.5,2.8c0.3,0.7,0.5,1.5,0.7,2.5c0,0.2,0.1,0.3,0.1,0.5
		c0,0,0,0,0,0.1C432.4-147.7,432.3-147.5,432.2-147.5"/>
</g>
<rect x="433.7" y="-154.6" transform="matrix(0.5406 0.8413 -0.8413 0.5406 70.8638 -435.0677)" fill="none" stroke="#2E368F" stroke-width="0.5" stroke-miterlimit="10" width="0.2" height="3.9"/>
<path fill="none" stroke="#2E368F" stroke-width="0.5" stroke-miterlimit="10" d="M433.8-154.6c-1.1,0-2,0.9-2,2l0,0
	c0,1.1,0.9,2,2,2s2-0.9,2-2l0,0C435.8-153.7,434.9-154.6,433.8-154.6L433.8-154.6L433.8-154.6z"/>
<path fill="#2E368F" d="M347.8-155.3c-0.1,0-0.1,0-0.2,0.1l-7.2,11.5c-0.1,0.2,0,0.3,0.2,0.3H355c0.2,0,0.3-0.1,0.2-0.3l-7.2-11.5
	C348-155.3,347.9-155.3,347.8-155.3L347.8-155.3z"/>
<path fill="#2E368F" stroke="#2E368F" stroke-width="0.5" stroke-miterlimit="10" d="M298.7-155.5v14.4c0,0.9,0.6,1.6,1.4,1.6h15.5
	c0.8,0,1.4-0.7,1.4-1.6v-14.4c0-0.9-0.6-1.6-1.4-1.6h-15.5C299.3-157.1,298.7-156.4,298.7-155.5z M299.5-155.5
	c0-0.4,0.3-0.7,0.6-0.7h15.5c0.3,0,0.6,0.3,0.6,0.7v14.4c0,0.4-0.3,0.7-0.6,0.7h-15.5c-0.3,0-0.6-0.3-0.6-0.7V-155.5z"/>
<path fill="#2E368F" stroke="#2E368F" stroke-miterlimit="10" d="M307.8-152.3c-0.1-0.1-0.2-0.1-0.3,0c-0.1,0.1-0.1,0.2,0,0.3
	l3.9,3.9l-3.9,3.9c-0.1,0.1-0.1,0.2,0,0.3c0.1,0.1,0.2,0.1,0.3,0l4-4c0,0,0.1-0.1,0.1-0.2s0-0.1-0.1-0.2L307.8-152.3z"/>
<path fill="#2E368F" stroke="#2E368F" stroke-miterlimit="10" d="M304.8-152.1c-0.1-0.1-0.2-0.1-0.3,0c-0.1,0.1-0.1,0.2,0,0.3
	l3.9,3.9l-3.9,3.9c-0.1,0.1-0.1,0.2,0,0.3c0.1,0.1,0.2,0.1,0.3,0l4-4c0,0,0.1-0.1,0.1-0.2s0-0.1-0.1-0.2L304.8-152.1z"/>
<path fill="#2E368F" stroke="#2E368F" stroke-width="0.5" stroke-miterlimit="10" d="M258.6-155.5v14.4c0,0.9,0.6,1.6,1.4,1.6h15.5
	c0.8,0,1.4-0.7,1.4-1.6v-14.4c0-0.9-0.6-1.6-1.4-1.6H260C259.2-157.1,258.6-156.4,258.6-155.5z M259.3-155.5c0-0.4,0.3-0.7,0.6-0.7
	h15.5c0.3,0,0.6,0.3,0.6,0.7v14.4c0,0.4-0.3,0.7-0.6,0.7H260c-0.3,0-0.6-0.3-0.6-0.7V-155.5z"/>
<g>
	<path fill="#2E368F" stroke="#2E368F" stroke-miterlimit="10" d="M268.4-152.3c0.1-0.1,0.2-0.1,0.3,0c0.1,0.1,0.1,0.2,0,0.3
		l-3.9,3.9l3.9,3.9c0.1,0.1,0.1,0.2,0,0.3c-0.1,0.1-0.2,0.1-0.3,0l-4-4c0,0-0.1-0.1-0.1-0.2s0-0.1,0.1-0.2L268.4-152.3z"/>
	<path fill="#2E368F" stroke="#2E368F" stroke-miterlimit="10" d="M271.4-152.1c0.1-0.1,0.2-0.1,0.3,0c0.1,0.1,0.1,0.2,0,0.3
		l-3.9,3.9l3.9,3.9c0.1,0.1,0.1,0.2,0,0.3c-0.1,0.1-0.2,0.1-0.3,0l-4-4c0,0-0.1-0.1-0.1-0.2s0-0.1,0.1-0.2L271.4-152.1z"/>
</g>
<path fill="#2E368F" d="M392.6-148.6l-2.8,0.9l1.8,2.4c0.5,0.6,0.3,1.5-0.3,1.9c-0.3,0.2-0.5,0.3-0.8,0.3c-0.4,0-0.9-0.2-1.1-0.6
	l-1.8-2.4l-1.8,2.4c-0.3,0.4-0.7,0.6-1.1,0.6c-0.3,0-0.6-0.1-0.8-0.3c-0.6-0.5-0.8-1.3-0.3-1.9l1.8-2.4l-2.9-0.9
	c-0.7-0.2-1.1-1-0.9-1.8c0.2-0.7,1-1.1,1.8-0.9l2.9,0.9v-3c0-0.8,0.6-1.4,1.4-1.4c0.8,0,1.4,0.6,1.4,1.4v3l2.9-0.9
	c0.7-0.2,1.5,0.2,1.8,0.9C393.7-149.7,393.3-148.9,392.6-148.6z"/>
<path fill="#2E368F" stroke="#2E368F" stroke-width="0.5" stroke-miterlimit="10" d="M233.7-149.4c1.5-1.6,1.5-4.1-0.1-5.7
	c-0.8-0.8-1.8-1.2-2.9-1.2c-1.1,0-2.1,0.4-2.9,1.2l-3.4,3.4c-0.2,0.2-0.2,0.5,0,0.7c0.1,0.1,0.2,0.1,0.3,0.1s0.2,0,0.3-0.1l3.4-3.4
	c1.2-1.2,3.2-1.2,4.3,0c1.2,1.2,1.2,3.2,0,4.3l-8.5,8.5c-0.8,0.8-2.1,0.8-2.9,0c-0.8-0.8-0.8-2.1,0-2.9l6.9-6.9l0,0
	c0.4-0.4,1-0.4,1.4,0c0.2,0.2,0.3,0.4,0.3,0.7c0,0.3-0.1,0.5-0.3,0.7l-6,6c-0.2,0.2-0.2,0.5,0,0.7c0.1,0.1,0.2,0.1,0.3,0.1
	s0.2,0,0.3-0.1l6-6c0.4-0.4,0.6-0.9,0.6-1.4c0-0.5-0.2-1-0.6-1.4c-0.7-0.7-1.9-0.8-2.7-0.1c0,0,0,0,0,0l-7,7c-1.2,1.2-1.2,3.1,0,4.2
	c0.6,0.6,1.4,0.9,2.1,0.9c0.8,0,1.5-0.3,2.1-0.9L233.7-149.4L233.7-149.4L233.7-149.4L233.7-149.4
	C233.7-149.4,233.7-149.4,233.7-149.4z"/>
<title>interface_004-information-detail-window-application</title>
<desc>Created with Sketch.</desc>
<path fill="#2E368F" stroke="#2E368F" stroke-width="0.5" stroke-miterlimit="10" d="M117.5-138.6L117.5-138.6l0-13.6
	c-0.3,0.2-0.5,0.5-0.8,0.7l0,12.1H98.6v-13.4h11.1c0.3-0.4,0.7-0.8,1-1.2c0.3-0.4,0.8-0.2,0.9,0.2c0.1,0,0.1,0.1,0.2,0.1
	c0,0,0,0,0,0c1.4,0,2.7,0,4.1,0c0,0,0-0.1,0.1-0.1c-0.1-0.1-0.1-0.3,0-0.5c0.1-0.3,0.3-0.5,0.4-0.8c-0.3,0-0.6-0.1-0.6-0.5
	c0-0.1-0.1-0.4,0-0.5c0,0-0.1,0.4-0.1,0.4c-0.1,0-0.2-0.2-0.3-0.2c-0.1,0-0.1-0.1-0.3,0c-0.2,0.1-0.4,0.3-0.5,0.4c0,0,0,0,0,0
	c0,0-0.1,0.1-0.1,0.1c-0.2,0.1-0.4,0.1-0.5,0c-0.1,0.1-0.2,0.2-0.3,0.4c-0.5,0.5-1.2-0.2-0.7-0.7c0.3-0.3,0.6-0.7,0.9-1H97.8v18.1
	h19.2l0,0C117.2-138.6,117.4-138.6,117.5-138.6L117.5-138.6L117.5-138.6z"/>
<rect x="98.6" y="-155.9" fill="#FFFFFF" width="18.1" height="2.4"/>
<rect x="99.4" y="-155.1" fill="#2E368F" stroke="#2E368F" stroke-width="0.5" stroke-miterlimit="10" width="0.8" height="0.8"/>
<rect x="101" y="-155.1" fill="#2E368F" stroke="#2E368F" stroke-width="0.5" stroke-miterlimit="10" width="0.8" height="0.8"/>
<rect x="102.6" y="-155.1" fill="#2E368F" stroke="#2E368F" stroke-width="0.5" stroke-miterlimit="10" width="0.8" height="0.8"/>
<path fill="#2E368F" stroke="#2E368F" stroke-width="0.5" stroke-miterlimit="10" d="M157.5-138.6L157.5-138.6l0-13.6
	c-0.3,0.2-0.5,0.5-0.8,0.7l0,12.1h-18.1v-13.4h11.1c0.3-0.4,0.7-0.8,1-1.2c0.3-0.4,0.8-0.2,0.9,0.2c0.1,0,0.1,0.1,0.2,0.1
	c0,0,0,0,0,0c1.4,0,2.7,0,4.1,0c0,0,0-0.1,0.1-0.1c-0.1-0.1-0.1-0.3,0-0.5c0.1-0.3,0.3-0.5,0.4-0.8c-0.3,0-0.6-0.1-0.6-0.5
	c0-0.1-0.1-0.4,0-0.5c0,0-0.1,0.4-0.1,0.4c-0.1,0-0.2-0.2-0.3-0.2c-0.1,0-0.1-0.1-0.3,0c-0.2,0.1-0.4,0.3-0.5,0.4c0,0,0,0,0,0
	c0,0-0.1,0.1-0.1,0.1c-0.2,0.1-0.4,0.1-0.5,0c-0.1,0.1-0.2,0.2-0.3,0.4c-0.5,0.5-1.2-0.2-0.7-0.7c0.3-0.3,0.6-0.7,0.9-1h-15.8v18.1
	h19.2l0,0C157.2-138.6,157.4-138.6,157.5-138.6L157.5-138.6L157.5-138.6z"/>
<rect x="138.6" y="-155.9" fill="#FFFFFF" width="18.1" height="2.4"/>
<rect x="141" y="-155.1" fill="#2E368F" stroke="#2E368F" stroke-width="0.5" stroke-miterlimit="10" width="0.8" height="0.8"/>
<rect x="139.4" y="-155.1" fill="#2E368F" stroke="#2E368F" stroke-width="0.5" stroke-miterlimit="10" width="0.8" height="0.8"/>
<rect x="142.6" y="-155.1" fill="#2E368F" stroke="#2E368F" stroke-width="0.5" stroke-miterlimit="10" width="0.8" height="0.8"/>
<g>
	<path fill="#2E368F" d="M195.8-154.4c0.2,0.2,0.2,0.5,0,0.7l-0.2,0.2l-0.7-0.7l0.2-0.2C195.3-154.6,195.6-154.6,195.8-154.4z"/>
	<polygon fill="#2E368F" points="192.4,-151.8 192.2,-150.9 193.1,-151.1 195.3,-153.3 194.7,-154 	"/>
</g>
<rect x="111.3" y="-154.3" fill="#FFFFFF" width="5" height="1.6"/>
<g>
	<path fill="#2E368F" stroke="#2E368F" stroke-width="0.15" stroke-miterlimit="10" d="M117.2-154.8l-1.4-1.3
		c-0.4-0.4-1.1-0.3-1.4,0.1l-7.2,8.1l-1.4,4.5l4.3-1.8l7.2-8.1C117.6-153.8,117.6-154.4,117.2-154.8z M107-145.6l0.5-1.8l1.9,1.7
		l-1.7,0.7L107-145.6z M108.2-147.3l5.7-6.4l0.4,0.4l-5.7,6.4L108.2-147.3z M108.1-147.4l-0.4-0.3l5.7-6.4l0.4,0.3L108.1-147.4z
		 M108.8-146.7l5.7-6.4l0.4,0.4l-5.7,6.4L108.8-146.7z M113.7-154.4l0.2-0.2l2.1,1.9l-0.2,0.2L113.7-154.4z M109.8-145.9l-0.4-0.3
		l5.7-6.4l0.4,0.3L109.8-145.9z M116.8-153.7l-0.6,0.6l-2.1-1.9l0.6-0.6c0.1-0.2,0.4-0.2,0.6,0l1.4,1.3
		C116.9-154.2,117-153.9,116.8-153.7z"/>
</g>
<path fill="#FFFFFF" d="M155-156.6c0,0-0.8,0.9-0.9,1c-0.1,0-2.5,1.2-2.5,1.2s-0.7-0.1-0.7,0.1c0,0.2,0.3,3.6,0.3,3.6l1.3,2.2
	c0,0,2.1-2.1,2.2-2.2c0.1-0.1,2.8-2.2,2.8-2.2l-1.7-2.6L155-156.6z"/>
<g>
	<path fill="#2E368F" stroke="#2E368F" stroke-width="0.15" stroke-miterlimit="10" d="M157-155.7c0.6,0.6,0.6,1.5,0,2.1l-0.7,0.7
		l-2.1-2.1l0.7-0.7C155.5-156.3,156.4-156.3,157-155.7z"/>
	<polygon fill="#2E368F" stroke="#2E368F" stroke-width="0.15" stroke-miterlimit="10" points="146.6,-147.4 145.9,-144.6 
		148.7,-145.3 155.6,-152.3 153.6,-154.3 	"/>
</g>
<path fill="#2E368F" stroke="#2E368F" stroke-width="0.75" stroke-miterlimit="10" d="M40.5-25.4h-1.6V-27c0-0.1-0.1-0.2-0.2-0.2
	c-0.1,0-0.2,0.1-0.2,0.2v1.6H37c-0.1,0-0.2,0.1-0.2,0.2c0,0.1,0.1,0.2,0.2,0.2h1.6v1.6c0,0.1,0.1,0.2,0.2,0.2c0.1,0,0.2-0.1,0.2-0.2
	V-25h1.6c0.1,0,0.2-0.1,0.2-0.2C40.7-25.3,40.6-25.4,40.5-25.4z"/>
<path fill="#2E368F" stroke="#2E368F" stroke-width="0.75" stroke-miterlimit="10" d="M8.7,5C6.1,5,4.1,7.1,4.1,9.6
	c0,2.6,2.1,4.6,4.6,4.6s4.6-2.1,4.6-4.6C13.3,7.1,11.2,5,8.7,5z M8.7,13.9c-2.3,0-4.2-1.9-4.2-4.2c0-2.3,1.9-4.2,4.2-4.2
	s4.2,1.9,4.2,4.2C12.9,12,11,13.9,8.7,13.9z"/>
<path fill="#2E368F" stroke="#2E368F" stroke-width="0.75" stroke-miterlimit="10" d="M10.4,9.5H8.8V7.9c0-0.1-0.1-0.2-0.2-0.2
	S8.4,7.8,8.4,7.9v1.6H6.9c-0.1,0-0.2,0.1-0.2,0.2s0.1,0.2,0.2,0.2h1.6v1.6c0,0.1,0.1,0.2,0.2,0.2s0.2-0.1,0.2-0.2V9.8h1.6
	c0.1,0,0.2-0.1,0.2-0.2S10.5,9.5,10.4,9.5z"/>
<rect x="462.3" y="-66.2" fill="#2E368F" width="6" height="8.1"/>
<polygon fill="#2E368F" points="466.2,-68.1 460.3,-68.1 460.3,-60 461.6,-60 461.6,-66.8 466.2,-66.8 "/>
<polygon fill="#2E368F" points="464.3,-70.2 458.3,-70.2 458.3,-62.1 459.6,-62.1 459.6,-68.9 464.3,-68.9 "/>
<g>
</g>
<g>
</g>
<g>
</g>
<g>
</g>
<g>
</g>
<g>
</g>
<g>
</g>
<g>
</g>
<g>
</g>
<g>
</g>
<g>
</g>
<g>
</g>
<g>
</g>
<g>
</g>
<g>
</g>
<g>
</g>
<g>
</g>
<g>
</g>
<g>
</g>
<g>
</g>
<g>
</g>
<g>
</g>
<g>
</g>
<g>
</g>
<g>
</g>
<g>
</g>
<g>
</g>
<g>
</g>
<g>
</g>
<g>
</g>
<g>
	<g>
		<path fill="#2E368F" d="M9.9-38.6c-5.2,0-9.3,4.2-9.3,9.3s4.2,9.3,9.3,9.3h9.3v-9.3C19.3-34.4,15.1-38.6,9.9-38.6z M9.9-21.6
			c-4.2,0-7.6-3.4-7.6-7.6s3.4-7.6,7.6-7.6s7.6,3.4,7.6,7.6S14.2-21.6,9.9-21.6z"/>
	</g>
	<path fill="#2E368F" d="M13.7-29.9h-3.1V-33c0-0.4-0.3-0.7-0.7-0.7c-0.4,0-0.7,0.3-0.7,0.7v3.1H6.2c-0.4,0-0.7,0.3-0.7,0.7
		s0.3,0.7,0.7,0.7h3.1v3.1c0,0.4,0.3,0.7,0.7,0.7c0.4,0,0.7-0.3,0.7-0.7v-3.1h3.1c0.4,0,0.7-0.3,0.7-0.7
		C14.4-29.6,14.1-29.9,13.7-29.9z"/>
</g>
<path fill="#2E368F" d="M17.1,4.3V1.4h-2.9V0h-1.6v1.4H4.5V0H2.9v1.4H0v15.7h2.9V20H20V4.3H17.1z M1.4,15.8v-13h1.5v1.5h1.6V2.8h8.2
	v1.5h1.6V2.8h1.5v13H1.4z M18.7,18.8H4.6v-1.6h12.6V5.6h1.6V18.8z"/>
</svg>
