<?xml version="1.0" encoding="utf-8"?>
<!-- Generator: Adobe Illustrator 18.1.1, SVG Export Plug-In . SVG Version: 6.00 Build 0)  -->
<svg version="1.1" id="Layer_1" xmlns="http://www.w3.org/2000/svg" xmlns:xlink="http://www.w3.org/1999/xlink" x="0px" y="0px"
	 viewBox="0 0 20 20" enable-background="new 0 0 20 20" xml:space="preserve">
<path fill="#2E398E" stroke="#2E398E" stroke-miterlimit="10" d="M18.9-117.9v3.7c0,0.1-0.1,0.2-0.2,0.2c-0.1,0-0.2-0.1-0.2-0.2
	v-3.3l-6.4,6.4c0,0-0.1,0.1-0.2,0.1s-0.1,0-0.2-0.1c-0.1-0.1-0.1-0.2,0-0.3l6.4-6.4h-3.3c-0.1,0-0.2-0.1-0.2-0.2s0.1-0.2,0.2-0.2
	h3.7C18.8-118.1,18.9-118,18.9-117.9z"/>
<path fill="#2E398E" stroke="#2E398E" stroke-width="0.75" stroke-miterlimit="10" d="M16.5-109.2c-0.1,0-0.2,0.1-0.2,0.2v3.8
	c0,1.2-1,2.3-2.3,2.3H5.9c-1.2,0-2.3-1-2.3-2.3v-6.5v-1.6c0-1.2,1-2.3,2.3-2.3h3.8c0.1,0,0.2-0.1,0.2-0.2S9.9-116,9.8-116H5.9
	c-1.5,0-2.7,1.2-2.7,2.7v1.6v6.5c0,1.5,1.2,2.7,2.7,2.7h8.2c1.5,0,2.7-1.2,2.7-2.7v-3.8C16.8-109.2,16.7-109.2,16.5-109.2z"/>
<title>interface_004-information-detail-window-application</title>
<desc>Created with Sketch.</desc>
<g>
</g>
<g>
</g>
<g>
</g>
<g>
</g>
<g>
</g>
<g>
</g>
<g>
</g>
<g>
</g>
<g>
</g>
<g>
</g>
<g>
</g>
<g>
</g>
<g>
</g>
<g>
</g>
<g>
</g>
<g>
</g>
<g>
</g>
<g>
</g>
<g>
</g>
<g>
</g>
<g>
</g>
<g>
</g>
<g>
</g>
<g>
</g>
<g>
</g>
<g>
</g>
<g>
</g>
<g>
</g>
<g>
</g>
<g>
</g>
<path fill="#2E398E" d="M43.6-117.7c-0.6,0-0.6,0-0.6,0.6v14.1c0,0.6,0,0.6,0.6,0.6c0.6,0,0.6,0,0.6-0.6v-14.1
	C44.2-117.7,44.2-117.7,43.6-117.7z"/>
<g>
	<path fill="#2E398E" d="M58.4-117.3c-5.1-1.3-9,1.3-12.9,0v8.7c3.9,1.3,7.7-1.3,12.9,0l-2.6-4.5L58.4-117.3z M56.5-109.6
		c-3.9-1-6.9,1-9.8,0v-6.6c3,1,5.9-1,9.8,0l-2,3.2L56.5-109.6z"/>
	<path fill="#FFFFFF" d="M56.5-116.2c-3.9-1-6.9,1-9.8,0v6.6c3,1,5.9-1,9.8,0l-2-3.4L56.5-116.2z"/>
</g>
<g>
	<path fill="#2E398E" stroke="#2E398E" stroke-miterlimit="10" d="M86.8-102.9h-2.6c-0.8,0-1.5-0.6-1.5-1.5v-7
		c0-0.8,0.6-1.5,1.5-1.5h2.6V-102.9z M84.2-112.3c-0.5,0-1,0.4-1,1v7c0,0.5,0.4,1,1,1h2.2v-8.9L84.2-112.3L84.2-112.3z"/>
	<path fill="#2E398E" stroke="#2E398E" stroke-miterlimit="10" d="M94.7-102.9h-8.2v-9.7l3.3-4.8c0.3-0.4,0.9-0.7,1.5-0.7h0.1
		c0.6,0,1.1,0.3,1.5,0.7s0.4,1,0.3,1.6l-0.9,3h4.4c0.6,0,1.3,0.3,1.6,0.9c0.5,0.7,0.6,1.6,0.3,2.6l-1.5,4.4
		C96.6-104.1,95.6-102.9,94.7-102.9z M86.8-103.3h7.8c0.6,0,1.6-1,1.7-1.7l1.5-4.4c0.3-0.8,0.3-1.6-0.2-2.2
		c-0.3-0.4-0.8-0.7-1.3-0.7h-4.9l1-3.6c0.1-0.4,0-0.9-0.2-1.2c-0.3-0.3-0.6-0.5-1-0.5h-0.1c-0.4,0-0.8,0.2-1,0.5l-3.3,4.7V-103.3z"
		/>
</g>
<path fill="#2E398E" d="M-34.7-109.9c0-0.3,0.2-0.4,0.4-0.4h10.9l-2.3-2.3c-0.2-0.2-0.2-0.5,0-0.7c0.1-0.1,0.2-0.2,0.3-0.2
	s0.3,0.1,0.3,0.2l3.1,3.1c0.2,0.2,0.2,0.5,0,0.7l-3.2,3.1c-0.2,0.2-0.5,0.2-0.7,0c-0.2-0.2-0.2-0.5,0-0.7l2.3-2.3h-10.8
	C-34.5-109.4-34.8-109.6-34.7-109.9z"/>
<path fill="#2E398E" d="M-34.6-101.8h9.5c1.8,0,3.4-1.5,3.4-3.4v-2c0-0.3-0.2-0.4-0.4-0.4c-0.3,0-0.4,0.2-0.4,0.4v2
	c0,1.3-1.1,2.4-2.4,2.4h-9.5c-1.3,0-2.4-1.1-2.4-2.4v-9.5c0-1.3,1.1-2.4,2.4-2.4h9.5c1.3,0,2.4,1.1,2.4,2.4v1.9
	c0,0.3,0.2,0.4,0.4,0.4c0.3,0,0.4-0.2,0.4-0.4v-1.9c0-1.8-1.5-3.4-3.4-3.4h-9.5c-1.8,0-3.4,1.5-3.4,3.4v9.5
	C-37.9-103.2-36.4-101.8-34.6-101.8z"/>
<path fill="#2E398E" d="M-29.8-109.8"/>
<path fill="#2E398E" d="M-29.8-109.8"/>
<g>
	<path fill="#2E398E" stroke="#2E398E" stroke-width="0.25" stroke-miterlimit="10" d="M-69.9-118.4c2.7,0,4.9,2.2,4.9,4.9
		c0,0.9-0.3,1.9-0.8,2.7l0,0l0,0l-2.1,4.2h-3.9l-2.3-4.2l0,0l0,0c-0.5-0.8-0.8-1.8-0.8-2.7C-74.9-116.2-72.6-118.4-69.9-118.4
		 M-69.9-119.1c-3.1,0-5.6,2.5-5.6,5.6c0,1.1,0.3,2.2,0.9,3l0,0l2.5,4.6h4.7l2.3-4.6l0,0c0.5-0.8,0.9-1.9,0.9-3
		C-64.2-116.6-66.7-119.1-69.9-119.1L-69.9-119.1z"/>
	<path fill="#2E398E" stroke="#2E398E" stroke-width="0.25" stroke-miterlimit="10" d="M-72.7-113.9h-0.6c0-1.7,1.4-3,3-3v0.7
		C-71.6-116.2-72.7-115.2-72.7-113.9z"/>
	
		<rect x="-72.2" y="-105.4" fill="#2E398E" stroke="#2E398E" stroke-width="0.25" stroke-miterlimit="10" width="4.7" height="0.8"/>
	
		<rect x="-72.2" y="-104.2" fill="#2E398E" stroke="#2E398E" stroke-width="0.25" stroke-miterlimit="10" width="4.7" height="0.8"/>
	
		<rect x="-72.2" y="-102.9" fill="#2E398E" stroke="#2E398E" stroke-width="0.25" stroke-miterlimit="10" width="4.7" height="0.8"/>
	
		<rect x="-71.2" y="-101.6" fill="#2E398E" stroke="#2E398E" stroke-width="0.25" stroke-miterlimit="10" width="2.8" height="0.8"/>
</g>
<path fill="#2E368F" stroke="#2E368F" stroke-miterlimit="10" d="M-69.9-61c0-0.2-0.1-0.3-0.3-0.3h-5.2c-1.7,0-3-1.4-3-3v-10.9
	c0-1.7,1.4-3,3-3h8.7h2.3c1.7,0,3,1.4,3,3v5.1c0,0.2,0.1,0.3,0.3,0.3c0.2,0,0.3-0.1,0.3-0.3v-5.1c0-2-1.6-3.6-3.6-3.6h-2.3h-8.7
	c-2,0-3.6,1.6-3.6,3.6v10.9c0,2,1.6,3.6,3.6,3.6h5.2C-70-60.8-69.9-60.9-69.9-61z"/>
<path fill="#2E368F" stroke="#2E368F" stroke-width="0.75" stroke-miterlimit="10" d="M-62.2-62.9l-3.1-3.1c2-2.2,1.9-5.6-0.2-7.7
	c-2.2-2.2-5.8-2.2-8-0.1c-2.2,2.2-2.2,5.8-0.1,8c1.1,1.1,2.5,1.7,4,1.7c1.3,0,2.7-0.5,3.7-1.4l3.1,3.1c0.1,0.1,0.1,0.1,0.2,0.1
	c0.1,0,0.2,0,0.2-0.1C-62.1-62.5-62.1-62.8-62.2-62.9z M-73-66.2c-1.9-2-1.9-5.1,0-7c1-1,2.3-1.4,3.5-1.4s2.5,0.5,3.5,1.5
	c1.9,2,1.9,5.1,0,7C-67.9-64.3-71.1-64.3-73-66.2z"/>
<path fill="none" d="M-26.9-73.2c-0.9-0.9-2-1.3-3.1-1.3c-1.1,0-2.3,0.4-3.1,1.3c-1.7,1.7-1.7,4.5,0,6.3c1.7,1.7,4.5,1.7,6.3,0
	C-25.2-68.7-25.2-71.5-26.9-73.2z"/>
<path fill="#2E368F" stroke="#2E368F" stroke-width="0.5" stroke-miterlimit="10" d="M-30-62.2c-4.4,0-8-3.6-8-8c0-4.4,3.6-8,8-8
	s8,3.6,8,8c0,2.1-0.8,4.1-2.2,5.5l0.5,0.5c1.5-1.6,2.4-3.7,2.4-6c0-4.8-3.9-8.8-8.8-8.8s-8.8,3.9-8.8,8.8c0,4.8,3.9,8.8,8.8,8.8
	c2.3,0,4.4-0.9,5.9-2.3l-0.5-0.5C-26.1-63-27.9-62.2-30-62.2z"/>
<path fill="#FFFFFF" stroke="#FFFFFF" stroke-miterlimit="10" d="M-26.4-63.7c0,0,1.2-0.4,2.7-2.8l2.1,1.5l0.3,1.6l-3.2,2.2
	l-0.8-0.9L-26.4-63.7z"/>
<g>
	<path fill="#2E368F" stroke="#2E368F" stroke-width="0.75" stroke-miterlimit="10" d="M-23.3-64.1l-2.8-2.8c1.8-2,1.7-5.1-0.2-7
		c-2-2-5.2-2-7.2,0c-1.9,1.9-2,4.8-0.4,6.8c0,0,0.1-0.1,0.1-0.1c0.1-0.1,0.2-0.1,0.3-0.1c0,0,0.1-0.1,0.1-0.1
		c-1.4-1.8-1.3-4.4,0.3-6c0.9-0.9,2-1.3,3.2-1.3c1.2,0,2.3,0.4,3.2,1.3c1.8,1.8,1.8,4.6,0,6.4c-1.1,1.1-2.7,1.5-4.2,1.2
		c-0.1,0.2-0.2,0.4-0.4,0.5c0.5,0.1,0.9,0.2,1.4,0.2c1.2,0,2.4-0.4,3.4-1.3l2.8,2.8c0.1,0.1,0.1,0.1,0.2,0.1c0.1,0,0.2,0,0.2-0.1
		C-23.2-63.8-23.2-64-23.3-64.1z"/>
	<path fill="#2E368F" stroke="#2E368F" stroke-width="0.95" stroke-miterlimit="10" d="M-34.9-70.9c-0.2,1.5,0.2,3,1.2,4.1l-1.4-0.2
		c-0.1,0-0.2,0.1-0.2,0.1c0,0.1,0.1,0.2,0.1,0.2l1.9,0.3c0,0,0,0,0,0c0,0,0,0,0,0c0,0,0,0,0,0c0,0,0,0,0,0c0,0,0,0,0,0c0,0,0,0,0,0
		c0,0,0,0,0,0c0,0,0,0,0,0c0,0,0,0,0,0c0,0,0,0,0,0l0.3-1.9c0-0.1-0.1-0.2-0.1-0.2c-0.1,0-0.2,0.1-0.2,0.1l-0.2,1.5
		c-1-1.1-1.4-2.5-1.2-3.9c0.4-2.6,2.8-4.4,5.4-4s4.4,2.8,4,5.4c-0.1,1-0.6,1.9-1.3,2.6c-0.1,0.1-0.1,0.2,0,0.2
		c0.1,0.1,0.2,0.1,0.2,0c0.7-0.8,1.2-1.7,1.4-2.8c0.4-2.8-1.5-5.4-4.3-5.8C-31.9-75.6-34.5-73.7-34.9-70.9z"/>
</g>
<path fill="none" d="M51.5-72.8h-3.1c-0.4,0-0.7-0.3-0.7-0.7V-77c-3.1,1-5.4,3.9-5.4,7.4c0,4.3,3.5,7.7,7.7,7.7s7.7-3.5,7.7-7.7
	c0-3.5-2.3-6.4-5.4-7.4v3.4C52.2-73.2,51.9-72.8,51.5-72.8z"/>
<path fill="#12A049" stroke="#12A049" stroke-width="0.45" stroke-miterlimit="10" d="M52.2-77.8v0.8c3.1,1,5.4,3.9,5.4,7.4
	c0,4.3-3.5,7.7-7.7,7.7s-7.7-3.5-7.7-7.7c0-3.5,2.3-6.4,5.4-7.4v-0.8c-3.6,1-6.2,4.3-6.2,8.1c0,4.7,3.8,8.5,8.5,8.5
	c4.7,0,8.5-3.8,8.5-8.5C58.4-73.5,55.8-76.8,52.2-77.8z"/>
<path fill="#12A049" d="M51.7-73.8c0,0.3-0.3,0.6-0.6,0.6h-2.4c-0.3,0-0.6-0.3-0.6-0.6v-5c0-0.3,0.3-0.6,0.6-0.6h2.4
	c0.3,0,0.6,0.3,0.6,0.6V-73.8z"/>
<path fill="none" d="M11.5-72.8H8.4c-0.4,0-0.7-0.3-0.7-0.7V-77c-3.1,1-5.4,3.9-5.4,7.4c0,4.3,3.5,7.7,7.7,7.7s7.7-3.5,7.7-7.7
	c0-3.5-2.3-6.4-5.4-7.4v3.4C12.2-73.2,11.9-72.8,11.5-72.8z"/>
<path fill="#EF3C24" stroke="#EF3C24" stroke-width="0.45" stroke-miterlimit="10" d="M12.2-77.8v0.8c3.1,1,5.4,3.9,5.4,7.4
	c0,4.3-3.5,7.7-7.7,7.7s-7.7-3.5-7.7-7.7c0-3.5,2.3-6.4,5.4-7.4v-0.8c-3.6,1-6.2,4.3-6.2,8.1c0,4.7,3.8,8.5,8.5,8.5
	c4.7,0,8.5-3.8,8.5-8.5C18.4-73.5,15.8-76.8,12.2-77.8z"/>
<path fill="#EF3C24" d="M11.7-73.8c0,0.3-0.3,0.6-0.6,0.6H8.7c-0.3,0-0.6-0.3-0.6-0.6v-5c0-0.3,0.3-0.6,0.6-0.6h2.4
	c0.3,0,0.6,0.3,0.6,0.6V-73.8z"/>
<rect x="93.1" y="-112.4" fill="#2E368F" width="5.3" height="0.8"/>
<polygon fill="none" points="-63.1,-24.1 -63.1,-35.3 -66.8,-35.3 -66.8,-38.6 -77,-38.6 -77,-21.1 -63.1,-21.1 -63.1,-23.8 "/>
<path fill="#2E368F" d="M-77-38.6h10.3v3.4h3.6v11.1v0.3v2.7h1.1v-3h0v-11.6c0-0.2-0.1-0.4-0.2-0.5l-3.8-3.4
	c-0.1-0.1-0.3-0.2-0.5-0.2h-10.9c-0.4,0-0.7,0.3-0.7,0.7v18h1.1V-38.6z"/>
<rect x="-80" y="-24.6" fill="#FFFFFF" width="19" height="4.6"/>
<path fill="#2E368F" stroke="#2E368F" stroke-width="0.75" stroke-miterlimit="10" d="M-70.1-30.6c-2.6,0-4.6,2.1-4.6,4.6
	c0,2.6,2.1,4.6,4.6,4.6s4.6-2.1,4.6-4.6C-65.4-28.5-67.5-30.6-70.1-30.6z M-70.1-21.7c-2.3,0-4.2-1.9-4.2-4.2c0-2.3,1.9-4.2,4.2-4.2
	c2.3,0,4.2,1.9,4.2,4.2C-65.9-23.6-67.8-21.7-70.1-21.7z"/>
<g>
	<path fill="#2E368F" stroke="#2E368F" stroke-width="0.5" stroke-miterlimit="10" d="M-68.6-27.5c0.1-0.1,0.1-0.1,0-0.2
		c-0.1-0.1-0.1-0.1-0.2,0l-2,2l0.2,0.2L-68.6-27.5z"/>
	<path fill="#2E368F" stroke="#2E368F" stroke-width="0.5" stroke-miterlimit="10" d="M-71.8-24.4l-1-1c-0.1-0.1-0.1-0.1-0.2,0
		c-0.1,0.1-0.1,0.1,0,0.2l1.1,1.1c0,0,0.1,0,0.1,0c0,0,0.1,0,0.1,0l0.1-0.1L-71.8-24.4L-71.8-24.4z"/>
	<path fill="#2E368F" stroke="#2E368F" stroke-width="0.5" stroke-miterlimit="10" d="M-71.6-25.5c-0.1-0.1-0.1-0.1-0.2,0
		c-0.1,0.1-0.1,0.1,0,0.2l0.4,0.4l0.2-0.2L-71.6-25.5z"/>
	<path fill="#2E368F" stroke="#2E368F" stroke-width="0.5" stroke-miterlimit="10" d="M-67.3-27.6c-0.1-0.1-0.1-0.1-0.2,0l-3.1,3.1
		l-0.4-0.4l-0.2,0.2l0.5,0.5c0,0,0.1,0,0.1,0c0,0,0.1,0,0.1,0l3.2-3.2C-67.3-27.5-67.3-27.5-67.3-27.6z"/>
	
		<rect x="-71.3" y="-25" transform="matrix(0.7074 -0.7068 0.7068 0.7074 -3.2424 -57.5703)" fill="#2E368F" stroke="#2E368F" stroke-width="0.5" stroke-miterlimit="10" width="0.3" height="0.3"/>
</g>
<polygon fill="none" points="-23.1,-24.1 -23.1,-35.3 -26.8,-35.3 -26.8,-38.6 -37,-38.6 -37,-21.1 -23.1,-21.1 -23.1,-23.8 "/>
<path fill="#2E368F" d="M-37-38.6h10.3v3.4h3.6v11.1v0.3v2.7h1.1v-3h0v-11.6c0-0.2-0.1-0.4-0.2-0.5l-3.8-3.4
	c-0.1-0.1-0.3-0.2-0.5-0.2h-10.9c-0.4,0-0.7,0.3-0.7,0.7v18h1.1V-38.6z"/>
<rect x="-40" y="-24.6" fill="#FFFFFF" width="19" height="4.6"/>
<path fill="#2E368F" stroke="#2E368F" stroke-width="0.75" stroke-miterlimit="10" d="M-30.1-30.6c-2.6,0-4.6,2.1-4.6,4.6
	c0,2.6,2.1,4.6,4.6,4.6s4.6-2.1,4.6-4.6C-25.4-28.5-27.5-30.6-30.1-30.6z M-30.1-21.7c-2.3,0-4.2-1.9-4.2-4.2c0-2.3,1.9-4.2,4.2-4.2
	s4.2,1.9,4.2,4.2C-25.9-23.6-27.8-21.7-30.1-21.7z"/>
<path fill="#2E368F" d="M84.8-74.7l0.7-0.6l0.8,0.6l0-4h-1.5C84.8-78.8,84.8-74.6,84.8-74.7z"/>
<polygon fill="none" points="97.8,-64.1 97.8,-75.3 94.2,-75.3 94.2,-78.6 84,-78.6 84,-61.1 97.8,-61.1 97.8,-63.8 "/>
<path fill="#2E368F" d="M84-78.6h10.3v3.4h3.6v11.1v0.3v2.7H99v-3h0v-11.6c0-0.2-0.1-0.4-0.2-0.5l-3.8-3.4c-0.1-0.1-0.3-0.2-0.5-0.2
	H83.5c-0.4,0-0.7,0.3-0.7,0.7v18H84V-78.6z"/>
<rect x="81" y="-64.6" fill="#FFFFFF" width="19" height="4.6"/>
<g>
	<path fill="#2E368F" stroke="#2E368F" stroke-width="0.75" stroke-miterlimit="10" d="M90.9-68.8c-3.1,0-5.4,3.7-5.4,3.7
		s2.5,3.5,5.4,3.5c3.1,0,5.4-3.7,5.4-3.7S94-68.8,90.9-68.8z M90.9-62.2c-2.6,0-4.7-3.1-4.7-3.1s2.1-3.1,4.7-3.1s4.7,3.1,4.7,3.1
		S93.5-62.2,90.9-62.2z"/>
	<path fill="none" stroke="#2E368F" stroke-width="0.5" stroke-miterlimit="10" d="M90.9-66.8c-0.9,0-1.7,0.7-1.7,1.7
		c0,0.9,0.7,1.7,1.7,1.7c0.9,0,1.7-0.7,1.7-1.7C92.6-66,91.8-66.8,90.9-66.8z M90.9-63.9c-0.7,0-1.2-0.6-1.2-1.2s0.5-1.3,1.2-1.3
		s1.2,0.6,1.2,1.2S91.6-63.9,90.9-63.9z"/>
</g>
<path fill="#2E368F" d="M-77.1,5.5l0.8-0.7l0.8,0.6l0-4.3h-1.6C-77.1,1.2-77.1,5.5-77.1,5.5z"/>
<polygon fill="none" points="-63.2,16.7 -63.2,4.9 -67.1,4.9 -67.1,1.3 -77.9,1.3 -77.9,19.9 -63.2,19.9 -63.2,17 "/>
<path fill="#2E368F" d="M-77.9,1.3h10.9v3.6h3.8v11.8V17v1.2h1.2v-1.5h0V4.4c0-0.2-0.1-0.4-0.2-0.5l-4-3.6c-0.2-0.1-0.3-0.2-0.5-0.2
	h-11.6c-0.4,0-0.8,0.3-0.8,0.8v18.1h1.2V1.3z"/>
<rect x="-76.2" y="8" fill="#2E368F" width="8.9" height="0.8"/>
<rect x="-76.2" y="9.5" fill="#2E368F" width="8.9" height="0.8"/>
<rect x="-76.2" y="11" fill="#2E368F" width="8.9" height="0.8"/>
<rect x="-76.2" y="12.5" fill="#2E368F" width="8.9" height="0.8"/>
<rect x="-76.2" y="14" fill="#2E368F" width="8.9" height="0.8"/>
<rect x="-76.2" y="15.5" fill="#2E368F" width="8.9" height="0.8"/>
<circle fill="#FFFFFF" cx="-65.9" cy="14" r="4.5"/>
<circle fill="#FFFFFF" cx="-66.1" cy="13.9" r="6.1"/>
<g>
	<g>
		<path fill="#2E368F" d="M-27.4-28.4c0.3,0.3,0.3,0.7,0,1l-0.3,0.3l-1-1l0.3-0.3C-28.1-28.7-27.7-28.7-27.4-28.4z"/>
		<polygon fill="#2E368F" points="-32.3,-24.6 -32.6,-23.3 -31.3,-23.6 -28.1,-26.8 -29.1,-27.8 		"/>
	</g>
</g>
<path fill="#2E368F" stroke="#2E368F" stroke-width="0.75" stroke-miterlimit="10" d="M-66,9c-2.7,0-4.9,2.2-4.9,4.9
	c0,2.7,2.2,4.9,4.9,4.9c2.7,0,4.9-2.2,4.9-4.9C-61.1,11.2-63.3,9-66,9z M-66,18.4c-2.5,0-4.5-2-4.5-4.5c0-2.5,2-4.5,4.5-4.5
	c2.5,0,4.5,2,4.5,4.5C-61.5,16.4-63.6,18.4-66,18.4z"/>
<path fill="#2E368F" d="M42.1-34.6l0.8-0.7l0.8,0.6l0-4.3h-1.6C42.1-38.9,42.1-34.6,42.1-34.6z"/>
<polygon fill="none" points="55.9,-23.4 55.9,-35.2 52.1,-35.2 52.1,-38.8 41.2,-38.8 41.2,-20.2 55.9,-20.2 55.9,-23.1 "/>
<path fill="#2E368F" d="M41.2-38.8h10.9v3.6h3.8v11.8v0.3v1.2h1.2v-1.5h0v-12.3c0-0.2-0.1-0.4-0.2-0.5l-4-3.6
	c-0.2-0.1-0.3-0.2-0.5-0.2H40.8c-0.4,0-0.8,0.3-0.8,0.8v19.1h1.2V-38.8z"/>
<rect x="43" y="-32.1" fill="#2E368F" width="8.9" height="0.8"/>
<rect x="43" y="-30.6" fill="#2E368F" width="8.9" height="0.8"/>
<rect x="43" y="-29.1" fill="#2E368F" width="8.9" height="0.8"/>
<rect x="43" y="-27.6" fill="#2E368F" width="8.9" height="0.8"/>
<rect x="43" y="-26.1" fill="#2E368F" width="8.9" height="0.8"/>
<rect x="43" y="-24.6" fill="#2E368F" width="8.9" height="0.8"/>
<circle fill="#FFFFFF" cx="53.2" cy="-26.1" r="4.5"/>
<circle fill="#FFFFFF" cx="53.1" cy="-26.2" r="6.1"/>
<path fill="#2E368F" stroke="#2E368F" stroke-width="0.75" stroke-miterlimit="10" d="M53.1-31.1c-2.7,0-4.9,2.2-4.9,4.9
	c0,2.7,2.2,4.9,4.9,4.9c2.7,0,4.9-2.2,4.9-4.9C58-28.9,55.8-31.1,53.1-31.1z M53.1-21.7c-2.5,0-4.5-2-4.5-4.5c0-2.5,2-4.5,4.5-4.5
	c2.5,0,4.5,2,4.5,4.5C57.6-23.7,55.6-21.7,53.1-21.7z"/>
<path fill="none" stroke="#2E368F" stroke-width="0.75" stroke-miterlimit="10" d="M55.6-25.4l0-2.9c0-0.2-0.1-0.3-0.3-0.3l-2.9,0
	c-0.1,0-0.1,0-0.2,0c0,0-0.1,0.1-0.1,0.2c0,0,0,0.1,0,0.1c0,0.1,0.2,0.2,0.2,0.3l-0.1-0.1l1.1,1.1l-2,2l-0.5-0.5l0,0c0,0,0,0-0.1,0
	c-0.1,0-0.1,0.1-0.1,0.2l0,1.5c0,0.1,0.1,0.2,0.2,0.2h1.5c0,0,0.1,0,0.1,0c0,0,0,0,0,0c0,0,0.1,0,0.1-0.1c0,0-0.2-0.2-0.2-0.2
	l0.1,0.1l-0.4-0.4l2-2l1.2,1.3l0,0c0,0,0.1,0,0.1,0C55.5-25.1,55.6-25.2,55.6-25.4z"/>
<g>
	<path fill="#2E368F" stroke="#2E368F" stroke-width="0.75" stroke-miterlimit="10" d="M9.5,10.4c-2.5,0-4.6,2-4.6,4.6
		c0,2.5,2,4.6,4.6,4.6s4.6-2,4.6-4.6C14,12.4,12,10.4,9.5,10.4z M9.5,19.1c-2.3,0-4.2-1.9-4.2-4.2c0-2.3,1.9-4.2,4.2-4.2
		s4.2,1.9,4.2,4.2C13.6,17.2,11.8,19.1,9.5,19.1z"/>
	<path fill="#2E368F" d="M11.8,14.5H9.9v-1.9c0-0.2-0.2-0.4-0.4-0.4c-0.2,0-0.4,0.2-0.4,0.4v1.9H7.1c-0.2,0-0.4,0.2-0.4,0.4
		c0,0.2,0.2,0.4,0.4,0.4H9v1.9c0,0.2,0.2,0.4,0.4,0.4c0.2,0,0.4-0.2,0.4-0.4v-1.9h1.9c0.2,0,0.4-0.2,0.4-0.4
		C12.2,14.7,12,14.5,11.8,14.5z"/>
</g>
<g>
	<path fill="#2E368F" d="M91.4-32.8c-0.1,0-0.2,0-0.3,0h-0.2v0.6h0.2c0.2,0,0.3,0,0.4,0c0.1,0,0.1-0.1,0.1-0.1c0,0,0.1-0.1,0.1-0.2
		c0-0.1,0-0.1-0.1-0.2C91.6-32.8,91.5-32.8,91.4-32.8z"/>
	<path fill="#2E368F" d="M93.8-32.7c-0.1-0.1-0.1-0.1-0.2-0.1c-0.1,0-0.2,0-0.4,0H93v1.5h0.3c0.1,0,0.2,0,0.3,0c0.1,0,0.1,0,0.2-0.1
		c0,0,0.1-0.1,0.1-0.2c0-0.1,0-0.2,0-0.4c0-0.2,0-0.3,0-0.4C93.9-32.6,93.8-32.6,93.8-32.7z"/>
	<path fill="#2E368F" d="M96.9-34.3h-7.3c-0.4,0-0.6,0.3-0.6,0.6v3.1c0,0.4,0.3,0.6,0.6,0.6h7.3c0.4,0,0.6-0.3,0.6-0.6v-3.1
		C97.6-34,97.3-34.3,96.9-34.3z M92.1-32.2c0,0.1-0.1,0.2-0.2,0.2c-0.1,0.1-0.2,0.1-0.2,0.1c-0.1,0-0.3,0-0.5,0h-0.3v0.8h-0.5v-2.2
		h0.7c0.3,0,0.5,0,0.5,0c0.1,0,0.2,0.1,0.3,0.2c0.1,0.1,0.1,0.3,0.1,0.4C92.2-32.4,92.1-32.3,92.1-32.2z M94.3-31.6
		c-0.1,0.2-0.1,0.3-0.2,0.4c-0.1,0.1-0.2,0.1-0.3,0.2c-0.1,0-0.2,0-0.4,0h-0.8v-2.2h0.8c0.2,0,0.3,0,0.4,0c0.1,0,0.2,0.1,0.3,0.2
		c0.1,0.1,0.2,0.2,0.2,0.4c0,0.1,0.1,0.3,0.1,0.5C94.4-31.9,94.4-31.7,94.3-31.6z M96.2-32.8h-1.1v0.5H96v0.4h-0.9v0.9h-0.5v-2.2
		h1.5V-32.8z"/>
</g>
<path fill="#2E368F" stroke="#2E368F" stroke-width="0.75" stroke-miterlimit="10" d="M89.8-29.3c-2.4,0-4.3,1.9-4.3,4.3
	c0,2.4,1.9,4.3,4.3,4.3s4.3-1.9,4.3-4.3C94.1-27.4,92.2-29.3,89.8-29.3z M89.8-21.1c-2.2,0-3.9-1.8-3.9-3.9c0-2.2,1.8-3.9,3.9-3.9
	s3.9,1.8,3.9,3.9C93.8-22.8,92-21.1,89.8-21.1z"/>
<path fill="#2E368F" stroke="#2E368F" stroke-width="0.5" stroke-miterlimit="10" d="M84.3-38.5h8.2v2.5h2.9v1h0.9v-1.3
	c0-0.2-0.1-0.3-0.2-0.4l-3-2.5c-0.1-0.1-0.3-0.1-0.4-0.1h-8.7c-0.3,0-0.6,0.2-0.6,0.5v17.6h0.9V-38.5z"/>
<rect x="95" y="-29.3" fill="#2E368F" width="1.4" height="8.1"/>
<g>
	<path fill="#2E368F" stroke="#2E368F" stroke-width="0.15" stroke-miterlimit="10" d="M18.9-30c0,0.7-0.7,1.3-1.6,1.3H2.4
		c-0.9,0-1.6-0.6-1.6-1.3s0.7-1.3,1.6-1.3h14.9C18.2-31.3,18.9-30.7,18.9-30z"/>
	<path fill="#2E368F" stroke="#2E368F" stroke-width="0.15" stroke-miterlimit="10" d="M18.9-30c0,0.7-0.7,1.3-1.6,1.3H2.4
		c-0.9,0-1.6-0.6-1.6-1.3s0.7-1.3,1.6-1.3h14.9C18.2-31.3,18.9-30.7,18.9-30z"/>
</g>
<g>
	<path fill="#2E368F" d="M-64.1,13.7l-2.5-2.5c-0.1-0.1-0.4,0-0.4,0.2v5.1c0,0.2,0.3,0.3,0.4,0.2l2.5-2.5C-64,14-64,13.8-64.1,13.7z
		"/>
</g>
<path fill="#2E368F" d="M-37.7,43.8l0.8-0.7l0.8,0.6l0-4.3h-1.6C-37.7,39.5-37.7,43.9-37.7,43.8z"/>
<polygon fill="none" points="-23.9,55 -23.9,43.2 -27.7,43.2 -27.7,39.6 -38.6,39.6 -38.6,58.3 -23.9,58.3 -23.9,55.4 "/>
<path fill="#2E368F" d="M-38.6,39.6h10.9v3.6h3.8V55v0.3v1.7h1.2l0-1.6V55l0-12.2c0-0.2-0.1-0.4-0.2-0.5l-4-3.6
	c-0.2-0.1-0.3-0.2-0.5-0.2h-11.6c-0.4,0-0.8,0.3-0.8,0.8V57h1.2V39.6z"/>
<rect x="-35.7" y="46.3" fill="#2E368F" width="8.9" height="0.8"/>
<rect x="-35.7" y="47.8" fill="#2E368F" width="8.9" height="0.8"/>
<rect x="-35.7" y="49.4" fill="#2E368F" width="8.9" height="0.8"/>
<rect x="-35.7" y="50.8" fill="#2E368F" width="8.9" height="0.8"/>
<rect x="-35.7" y="52.4" fill="#2E368F" width="8.9" height="0.8"/>
<rect x="-35.7" y="53.9" fill="#2E368F" width="8.9" height="0.8"/>
<g>
	<path fill="#2E368F" d="M-23.7,4.6v3.6h1v-4c0-0.2-0.1-0.3-0.2-0.5l-3.4-3c-0.1-0.1-0.3-0.2-0.4-0.2h-9.8c-0.4,0-0.6,0.3-0.6,0.6
		v18.1c0,0.4,0.3,0.6,0.6,0.6h13.2c0.4,0,0.6-0.3,0.6-0.6v-4.8h-1V19h-12.4V1.6h9.2v3H-23.7z"/>
	<g>
		<path fill="#2E368F" d="M-28.1,10.6c-0.1,0-0.2,0-0.4,0h-0.2v0.7h0.3c0.2,0,0.3,0,0.4,0c0.1,0,0.1-0.1,0.2-0.1
			c0-0.1,0.1-0.1,0.1-0.2c0-0.1,0-0.2-0.1-0.2C-27.9,10.7-28,10.7-28.1,10.6z"/>
		<path fill="#2E368F" d="M-25.4,10.8c-0.1-0.1-0.1-0.1-0.2-0.1c-0.1,0-0.2,0-0.4,0h-0.2v1.7h0.4c0.1,0,0.2,0,0.3,0
			c0.1,0,0.2-0.1,0.2-0.1c0.1,0,0.1-0.1,0.1-0.2c0-0.1,0.1-0.3,0.1-0.5s0-0.3-0.1-0.4C-25.3,10.9-25.4,10.8-25.4,10.8z"/>
		<path fill="#2E368F" d="M-21.9,9h-8.2c-0.4,0-0.7,0.3-0.7,0.7v3.5c0,0.4,0.3,0.7,0.7,0.7h8.2c0.4,0,0.7-0.3,0.7-0.7V9.7
			C-21.2,9.3-21.5,9-21.9,9z M-27.3,11.4c-0.1,0.1-0.1,0.2-0.2,0.2c-0.1,0.1-0.2,0.1-0.3,0.1c-0.1,0-0.3,0-0.5,0h-0.3v0.9h-0.5v-2.5
			h0.8c0.3,0,0.5,0,0.6,0c0.1,0,0.3,0.1,0.4,0.2c0.1,0.1,0.1,0.3,0.1,0.5C-27.2,11.1-27.3,11.3-27.3,11.4z M-24.8,12
			c-0.1,0.2-0.2,0.3-0.3,0.4c-0.1,0.1-0.2,0.2-0.4,0.2c-0.1,0-0.3,0.1-0.4,0.1h-1v-2.5h0.9c0.2,0,0.4,0,0.5,0c0.1,0,0.3,0.1,0.4,0.2
			c0.1,0.1,0.2,0.2,0.2,0.4c0.1,0.2,0.1,0.4,0.1,0.6C-24.7,11.7-24.7,11.9-24.8,12z M-22.7,10.6h-1.2v0.6h1v0.4h-1v1.1h-0.5v-2.5
			h1.7V10.6z"/>
	</g>
</g>
<path fill="#2E368F" d="M-23.9,56.2v0.9h-14.7v-0.9c-0.4,0-0.8-0.1-1.2-0.1v1.4c0,0.4,0.3,0.8,0.8,0.8h15.6c0.4,0,0.8-0.3,0.8-0.8
	v-1.5C-23.1,56.1-23.5,56.2-23.9,56.2z"/>
<g>
	<path fill="#2E368F" d="M11.3,6.4c-0.1,0-0.2,0-0.4,0h-0.2v0.7H11c0.2,0,0.3,0,0.4,0c0.1,0,0.1-0.1,0.2-0.1c0-0.1,0.1-0.1,0.1-0.2
		c0-0.1,0-0.2-0.1-0.2C11.4,6.5,11.4,6.4,11.3,6.4z"/>
	<path fill="#2E368F" d="M13.9,6.5c-0.1-0.1-0.1-0.1-0.2-0.1c-0.1,0-0.2,0-0.4,0H13V8h0.4c0.1,0,0.2,0,0.3,0c0.1,0,0.1-0.1,0.2-0.1
		c0.1,0,0.1-0.1,0.1-0.2C14,7.6,14,7.4,14,7.2C14,7,14,6.9,14,6.8C14,6.7,13.9,6.6,13.9,6.5z"/>
	<path fill="#2E368F" d="M17.3,4.8H9.2c-0.4,0-0.7,0.3-0.7,0.7v3.5c0,0.4,0.3,0.7,0.7,0.7h8.1c0.4,0,0.7-0.3,0.7-0.7V5.5
		C18.1,5.1,17.7,4.8,17.3,4.8z M12,7.1c-0.1,0.1-0.1,0.2-0.2,0.2c-0.1,0.1-0.2,0.1-0.3,0.1c-0.1,0-0.3,0-0.5,0h-0.3v0.9h-0.5V6H11
		c0.3,0,0.5,0,0.6,0c0.1,0,0.3,0.1,0.4,0.2c0.1,0.1,0.1,0.3,0.1,0.5C12.1,6.9,12.1,7,12,7.1z M14.5,7.8c-0.1,0.2-0.2,0.3-0.3,0.4
		c-0.1,0.1-0.2,0.2-0.4,0.2c-0.1,0-0.3,0.1-0.4,0.1h-0.9V6h0.9c0.2,0,0.4,0,0.5,0c0.1,0,0.3,0.1,0.4,0.2c0.1,0.1,0.2,0.2,0.2,0.4
		c0.1,0.2,0.1,0.4,0.1,0.6C14.6,7.4,14.5,7.6,14.5,7.8z M16.5,6.4h-1.2V7h1v0.4h-1v1h-0.5V6h1.7V6.4z"/>
</g>
<g>
	<path fill="#2E368F" d="M3.4,1h9v3h3.2v0.6h1v-1c0-0.2-0.1-0.3-0.2-0.5l-3.3-3C12.9,0.1,12.7,0,12.6,0H3C2.6,0,2.4,0.3,2.4,0.6
		v16.7h1V1z"/>
	<rect x="15.5" y="10" fill="#2E368F" width="1" height="7.3"/>
</g>
<g>
	<path fill="#2E368F" d="M47,4.7l0.6-0.5l0.6,0.5l0-3.3H47C47,1.4,47,4.8,47,4.7z"/>
	<polygon fill="none" points="57.7,13.4 57.7,4.3 54.7,4.3 54.7,1.5 46.3,1.5 46.3,15.9 57.7,15.9 57.7,13.6 	"/>
	<path fill="#2E368F" d="M46.3,1.5h8.4v2.8h3v9.1v0.2v2.3h0.9v-2.5h0V3.9c0-0.2-0.1-0.3-0.2-0.4l-3.1-2.8c-0.1-0.1-0.3-0.1-0.4-0.1
		H46c-0.3,0-0.6,0.3-0.6,0.6v14.7h0.9V1.5z"/>
	<rect x="48.6" y="6.7" fill="#2E368F" width="6.9" height="0.6"/>
	<rect x="48.6" y="7.9" fill="#2E368F" width="6.9" height="0.6"/>
	<rect x="48.6" y="9" fill="#2E368F" width="6.9" height="0.6"/>
	<rect x="48.6" y="10.2" fill="#2E368F" width="6.9" height="0.6"/>
	<rect x="48.6" y="11.3" fill="#2E368F" width="6.9" height="0.6"/>
	<rect x="48.6" y="12.5" fill="#2E368F" width="6.9" height="0.6"/>
</g>
<path fill="#F9F9FA" stroke="#2E368F" stroke-miterlimit="10" d="M58,9.8h-7.4l-0.8-1c-0.5-0.7-1-1.1-1.8-1.1h-5.7
	c-0.8,0-1.4,0.5-1.4,1.1v2.1v0.5v6.6c0,0.6,0.6,1.1,1.4,1.1H58c0.8,0,1.4-0.5,1.4-1.1v-7.2C59.4,10.3,58.8,9.8,58,9.8z"/>
<g>
	<path fill="#2E368F" d="M-61,41c-0.3-0.3-0.7-0.5-1.1-0.5h-16.3c-0.4,0-0.8,0.2-1.1,0.5c-0.3,0.3-0.5,0.7-0.5,1.1v11.5
		c0,0.4,0.2,0.8,0.5,1.1c0.3,0.3,0.7,0.5,1.1,0.5h16.3c0.4,0,0.8-0.2,1.1-0.5c0.3-0.3,0.5-0.7,0.5-1.1V42.1
		C-60.6,41.7-60.8,41.3-61,41z M-61.9,52.8l-5.2-4.8l5.2-4.8V52.8z M-78.5,41.9h16.3c0.1,0,0.1,0,0.2,0.1c0,0,0,0,0,0l-7.3,6.7
		c-0.2,0.2-0.5,0.3-0.9,0.3c-0.3,0-0.6-0.1-0.8-0.3l-7.7-6.7c0,0,0,0,0,0C-78.6,41.9-78.5,41.9-78.5,41.9z M-78.7,52.8v-9.7l5.5,4.9
		L-78.7,52.8z M-78.4,53.8l6-5.3l0.9,0.8c0.4,0.4,0.9,0.5,1.4,0.5c0.5,0,1.1-0.2,1.5-0.6l0.8-0.8l5.7,5.2c0,0,0,0,0,0H-78.4z"/>
</g>
<ellipse fill="#F9FAFD" cx="-64.5" cy="53.1" rx="4.2" ry="4.3"/>
<path fill="#F9FAFD" stroke="#2E368F" stroke-width="0.75" stroke-miterlimit="10" d="M-64.9,48.5c-2.5,0-4.5,2-4.5,4.5
	c0,2.5,2,4.5,4.5,4.5c2.5,0,4.5-2,4.5-4.5C-60.4,50.5-62.4,48.5-64.9,48.5z M-64.9,57c-2.2,0-4.1-1.8-4.1-4.1c0-2.2,1.8-4.1,4.1-4.1
	c2.2,0,4.1,1.8,4.1,4.1C-60.8,55.2-62.6,57-64.9,57z"/>
<path fill="#2E368F" d="M-65.2,51.8l0-1l-2.6,1.5l2.6,1.5l0-0.9c2.8,0,3,2,3,2C-62.2,52.4-64.5,51.9-65.2,51.8z"/>
<g>
	<path fill="#2E368F" stroke="#2E368F" stroke-width="0.15" stroke-miterlimit="10" d="M97.7,19.2H82.8c-1.1,0-2-0.9-2-2.1v-6.5
		c0-0.5,0.2-1,0.5-1.4c0.4-0.4,0.9-0.6,1.4-0.6h14.9c1.1,0,2,0.9,2,2.1v6.5C99.7,18.3,98.8,19.2,97.7,19.2z M82.8,9.6
		c-0.2,0-0.5,0.1-0.7,0.3c-0.2,0.2-0.3,0.4-0.3,0.7v6.5c0,0.6,0.4,1,0.9,1h14.9c0.5,0,0.9-0.5,0.9-1v-6.5c0-0.6-0.4-1-0.9-1H82.8z"
		/>
</g>
<g>
	<path fill="#2E368F" stroke="#2E368F" stroke-width="0.15" stroke-miterlimit="10" d="M98.9,9.4h-1.1V1.8c0-0.4-0.4-0.8-0.8-0.8
		H83.5c-0.2,0-0.4,0.1-0.6,0.2c-0.1,0.1-0.2,0.3-0.2,0.5v7.6h-1.1V1.8c0-0.5,0.2-0.9,0.5-1.3C82.6,0.2,83,0,83.5,0h13.5
		c1,0,1.8,0.8,1.8,1.8V9.4z"/>
</g>
<g>
	<path fill="#2E368F" stroke="#2E368F" stroke-width="0.15" stroke-miterlimit="10" d="M96.3,9.5c-0.3,0-0.5-0.2-0.5-0.5V7.6H84.7V9
		c0,0.3-0.2,0.5-0.5,0.5c-0.3,0-0.5-0.2-0.5-0.5V7c0-0.3,0.2-0.5,0.5-0.5h12.1c0.3,0,0.5,0.2,0.5,0.5V9C96.8,9.2,96.6,9.5,96.3,9.5z
		"/>
</g>
<g>
	<path fill="#2E368F" stroke="#2E368F" stroke-width="0.15" stroke-miterlimit="10" d="M95.3,7.3c-0.3,0-0.5-0.2-0.5-0.5V5.7h-9.1
		v1.1c0,0.3-0.2,0.5-0.5,0.5c-0.3,0-0.5-0.2-0.5-0.5V5.1c0-0.3,0.2-0.5,0.5-0.5h10.2c0.3,0,0.5,0.2,0.5,0.5v1.6
		C95.9,7,95.6,7.3,95.3,7.3z"/>
</g>
<g>
	<path fill="#2E368F" stroke="#2E368F" stroke-width="0.15" stroke-miterlimit="10" d="M94.4,5.3c-0.3,0-0.5-0.2-0.5-0.5v-1h-7.2v1
		c0,0.3-0.2,0.5-0.5,0.5c-0.3,0-0.5-0.2-0.5-0.5V3.2c0-0.3,0.2-0.5,0.5-0.5h8.2c0.3,0,0.5,0.2,0.5,0.5v1.5C95,5,94.7,5.3,94.4,5.3z"
		/>
</g>
<g>
	<path fill="#2E368F" stroke="#2E368F" stroke-width="0.15" stroke-miterlimit="10" d="M93,15.3h-5.4c-0.3,0-0.5-0.2-0.5-0.5v-1.3
		c0-0.3,0.2-0.5,0.5-0.5c0.3,0,0.5,0.2,0.5,0.5v0.8h4.4v-0.8c0-0.3,0.2-0.5,0.5-0.5s0.5,0.2,0.5,0.5v1.3
		C93.6,15.1,93.3,15.3,93,15.3z"/>
</g>
</svg>
