<?xml version="1.0" encoding="utf-8"?>
<!-- Generator: Adobe Illustrator 18.1.1, SVG Export Plug-In . SVG Version: 6.00 Build 0)  -->
<svg version="1.1" id="Layer_1" xmlns="http://www.w3.org/2000/svg" xmlns:xlink="http://www.w3.org/1999/xlink" x="0px" y="0px"
	 viewBox="0 0 20 20" enable-background="new 0 0 20 20" xml:space="preserve">
<g>
	<path fill="#2E3192" d="M11.8,17H6c0,0,0.8-1.8,1-1.9c0.1-0.2,0.5-0.5,1.9-0.5c1.4,0,1.8,0.3,1.9,0.5C10.9,15.2,11.8,17,11.8,17z"
		/>
	<path fill="#2E3192" d="M10.6,15.6H7.1c0,0,0.3-0.5,0.4-1.2c0-0.5,0-0.8,0-0.8h2.7c0,0-0.1,0.2,0,0.8C10.3,15,10.6,15.6,10.6,15.6z
		"/>
	<g>
		<path fill="#2E3192" d="M8.9,19.4c2,0,4.5-0.9,5.7-2.3c-1.2-0.9-3.6-1.5-5.7-1.5s-4.4,0.9-5.6,1.8C4.5,18.8,6.8,19.4,8.9,19.4z"/>
	</g>
	<path fill="#2E3192" d="M11.8,10.2c0-2.4-1.3-3.4-2.9-3.4S6,7.8,6,10.2s1.3,4.3,2.9,4.3S11.8,12.6,11.8,10.2z"/>
</g>
<path fill="none" stroke="#2E3192" stroke-width="0.55" stroke-miterlimit="10" d="M15.9,3.1c-2,0-3.6,1.6-3.6,3.6v0
	c0,2,1.6,3.6,3.6,3.6c2,0,3.6-1.6,3.6-3.6v0C19.6,4.7,17.9,3.1,15.9,3.1L15.9,3.1L15.9,3.1z"/>
<path fill="#2E3192" stroke="#2E3192" stroke-width="0.5" stroke-miterlimit="10" d="M17.3,6.5h-1.2V5.3c0-0.1-0.1-0.2-0.2-0.2
	s-0.2,0.1-0.2,0.2v1.2h-1.2c-0.1,0-0.2,0.1-0.2,0.2s0.1,0.2,0.2,0.2h1.2v1.2c0,0.1,0.1,0.2,0.2,0.2s0.2-0.1,0.2-0.2V6.9h1.2
	c0.1,0,0.2-0.1,0.2-0.2S17.5,6.5,17.3,6.5z"/>
<path fill="none" d="M0.9,11.2c0,4.4,3.6,8,8,8s8-3.6,8-8c0-0.4,0-0.7-0.1-1.1c-0.3,0.1-0.6,0.2-1,0.2c-2,0-3.6-1.6-3.6-3.6
	c0-0.9,0.3-1.7,0.8-2.3c-1.2-0.7-2.6-1.2-4.2-1.2C4.5,3.2,0.9,6.8,0.9,11.2z"/>
<path fill="#2E3192" d="M17,11.2c0,4.4-3.6,8-8,8s-8-3.6-8-8c0-4.4,3.6-8,8-8c1.5,0,3,0.4,4.2,1.2c0.1-0.2,0.3-0.3,0.4-0.5
	c-1.3-0.8-2.9-1.3-4.6-1.3c-4.8,0-8.7,3.9-8.7,8.7s3.9,8.7,8.7,8.7s8.7-3.9,8.7-8.7c0-0.4,0-0.9-0.1-1.3c-0.2,0.1-0.4,0.2-0.6,0.2
	C16.9,10.5,17,10.9,17,11.2z"/>
</svg>
