<?xml version="1.0" encoding="utf-8"?>
<!-- Generator: Adobe Illustrator 18.1.1, SVG Export Plug-In . SVG Version: 6.00 Build 0)  -->
<svg version="1.1" id="Layer_1" xmlns="http://www.w3.org/2000/svg" xmlns:xlink="http://www.w3.org/1999/xlink" x="0px" y="0px"
	 viewBox="0 0 20 20" enable-background="new 0 0 20 20" xml:space="preserve">
<path fill="#2E3192" d="M10,0.3c-5.4,0-9.7,4.4-9.7,9.7c0,5.4,4.4,9.7,9.7,9.7s9.7-4.4,9.7-9.7C19.7,4.6,15.4,0.3,10,0.3z M10,18.8
	c-4.9,0-8.9-4-8.9-8.9c0-4.9,4-8.9,8.9-8.9s8.9,4,8.9,8.9C18.9,14.9,14.9,18.8,10,18.8z"/>
<path fill="#2E3192" stroke="#2E3192" stroke-width="0.5" stroke-miterlimit="10" d="M15.1,6.1C15,6,14.8,6,14.7,6.1l-7.1,7.1
	L5.4,11c-0.1-0.1-0.3-0.1-0.4,0s-0.1,0.3,0,0.4l2.4,2.4c0.1,0.1,0.1,0.1,0.2,0.1s0.2,0,0.2-0.1l7.3-7.3C15.2,6.4,15.2,6.2,15.1,6.1z
	"/>
</svg>
