<?xml version="1.0" encoding="utf-8"?>
<!-- Generator: Adobe Illustrator 18.1.1, SVG Export Plug-In . SVG Version: 6.00 Build 0)  -->
<svg version="1.1" id="Layer_1" xmlns="http://www.w3.org/2000/svg" xmlns:xlink="http://www.w3.org/1999/xlink" x="0px" y="0px"
	 viewBox="0 0 20 20" enable-background="new 0 0 20 20" xml:space="preserve">
<path fill="#2E3192" d="M18.1,8.4c1.8-1.9,1.8-4.9-0.1-6.8c-0.9-0.9-2.1-1.4-3.4-1.4c-1.3,0-2.5,0.5-3.4,1.4L7,5.7
	C6.8,6,6.8,6.3,7,6.6c0.1,0.1,0.3,0.2,0.4,0.2c0.2,0,0.3-0.1,0.4-0.2L12,2.4c1.4-1.4,3.8-1.4,5.2,0c1.4,1.4,1.4,3.8,0,5.2L7,17.9
	c-1,0.9-2.5,1-3.4,0c-1-1-1-2.5,0-3.4l8.3-8.3l0,0c0.5-0.5,1.2-0.5,1.7,0c0.2,0.2,0.3,0.5,0.3,0.8s-0.1,0.6-0.3,0.8l-7.2,7.2
	c-0.2,0.2-0.2,0.6,0,0.8c0.1,0.1,0.3,0.2,0.4,0.2c0.2,0,0.3-0.1,0.4-0.2l7.2-7.2c0.4-0.4,0.7-1,0.7-1.7c0-0.6-0.2-1.2-0.7-1.7
	c-0.9-0.9-2.3-0.9-3.2-0.1c0,0,0,0,0,0l-8.4,8.4c-1.4,1.4-1.4,3.7,0,5.1c0.7,0.7,1.6,1.1,2.6,1.1c0.9,0,1.8-0.4,2.6-1.1L18.1,8.4
	L18.1,8.4L18.1,8.4L18.1,8.4C18.1,8.4,18.1,8.4,18.1,8.4z"/>
</svg>
