<?xml version="1.0" encoding="utf-8"?>
<!-- Generator: Adobe Illustrator 18.1.1, SVG Export Plug-In . SVG Version: 6.00 Build 0)  -->
<svg version="1.1" id="Layer_1" xmlns="http://www.w3.org/2000/svg" xmlns:xlink="http://www.w3.org/1999/xlink" x="0px" y="0px"
	 viewBox="0 0 18.7 18.7" enable-background="new 0 0 18.7 18.7" xml:space="preserve">
<path fill="#009966" stroke="#009966" stroke-width="0.75" stroke-miterlimit="10" d="M348.3,135.9l4-4c0.1-0.1,0.1-0.2,0-0.3
	s-0.2-0.1-0.3,0l-4,4l-4-4c-0.1-0.1-0.2-0.1-0.3,0s-0.1,0.2,0,0.3l4,4l-4,4c-0.1,0.1-0.1,0.2,0,0.3c0,0,0.1,0.1,0.2,0.1
	s0.1,0,0.2-0.1l4-4l4,4c0,0,0.1,0.1,0.2,0.1s0.1,0,0.2-0.1c0.1-0.1,0.1-0.2,0-0.3L348.3,135.9z"/>
<path fill="#009966" stroke="#009966" stroke-width="0.75" stroke-miterlimit="10" d="M431,91.9c0.1-0.1,0.1-0.2,0-0.3
	s-0.2-0.1-0.3,0l-1.8,1.8l0.3,0.3L431,91.9z"/>
<path fill="#009966" stroke="#009966" stroke-width="0.75" stroke-miterlimit="10" d="M430.7,99.9c0,0,0.1,0.1,0.2,0.1
	s0.1,0,0.2-0.1c0.1-0.1,0.1-0.2,0-0.3l-2.2-2.2l-0.3,0.3L430.7,99.9z"/>
<path fill="#009966" stroke="#009966" stroke-width="0.75" stroke-miterlimit="10" d="M427.2,95.8l0.3-0.3l-0.3-0.3l-0.3,0.3
	l-3.8-3.8c-0.1-0.1-0.2-0.1-0.3,0c-0.1,0.1-0.1,0.2,0,0.3l3.8,3.8l-3.8,3.8c-0.1,0.1-0.1,0.2,0,0.3c0,0,0.1,0.1,0.2,0.1
	c0.1,0,0.1,0,0.2-0.1l3.8-3.8l1.3,1.3l0.3-0.3L427.2,95.8z"/>
<path fill="#009966" stroke="#009966" stroke-width="0.75" stroke-miterlimit="10" d="M425.6,99.9c-0.1,0.1-0.1,0.2,0,0.3
	c0,0,0.1,0.1,0.2,0.1c0.1,0,0.1,0,0.2-0.1l1.9-1.9l-0.3-0.3L425.6,99.9z"/>
<path fill="#009966" stroke="#009966" stroke-width="0.75" stroke-miterlimit="10" d="M426,91.9c-0.1-0.1-0.2-0.1-0.3,0
	c-0.1,0.1-0.1,0.2,0,0.3l2.2,2.2l0.3-0.3L426,91.9z"/>
<path fill="#009966" stroke="#009966" stroke-width="0.75" stroke-miterlimit="10" d="M430.1,96.1l3.8-3.8c0.1-0.1,0.1-0.2,0-0.3
	c-0.1-0.1-0.2-0.1-0.3,0l-3.8,3.8l-1.3-1.3l-0.3,0.3l1.3,1.3l-0.4,0.4l0.3,0.3l0.4-0.4l3.8,3.8c0,0,0.1,0.1,0.2,0.1
	c0.1,0,0.1,0,0.2-0.1c0.1-0.1,0.1-0.2,0-0.3L430.1,96.1z"/>
<rect x="428.2" y="97.1" transform="matrix(-0.7072 -0.707 0.707 -0.7072 662.6672 469.1616)" fill="#009966" stroke="#009966" stroke-width="0.75" stroke-miterlimit="10" width="0.5" height="0.5"/>
<rect x="427.9" y="94.2" transform="matrix(0.7067 0.7075 -0.7075 0.7067 192.4172 -275.243)" fill="#009966" stroke="#009966" stroke-width="0.75" stroke-miterlimit="10" width="0.5" height="0.5"/>
<g>
	<path fill="#009966" stroke="#009966" stroke-width="0.45" stroke-miterlimit="10" d="M274.4,52.6H272c0.1-0.2,0.2-0.5,0.2-0.8v-2
		c0-1.8-1.5-3.3-3.3-3.3h-2.5c-1.8,0-3.3,1.5-3.3,3.3v2c0,0.3,0.1,0.6,0.2,0.8h-2.4c-1,0-1.8,0.8-1.8,1.8v8.3c0,1,0.8,1.8,1.8,1.8
		h13.5c1,0,1.8-0.8,1.8-1.8v-8.3C276.2,53.4,275.4,52.6,274.4,52.6z M264.1,51.8v-2c0-1.3,1.1-2.3,2.3-2.3h2.5
		c1.3,0,2.3,1.1,2.3,2.3v2c0,0.4-0.4,0.8-0.8,0.8h-5.6C264.4,52.6,264.1,52.2,264.1,51.8z M275.2,62.6c0,0.4-0.4,0.8-0.8,0.8h-13.5
		c-0.4,0-0.8-0.4-0.8-0.8v-8.3c0-0.4,0.4-0.8,0.8-0.8h4h5.6h4c0.4,0,0.8,0.4,0.8,0.8V62.6z"/>
	<path fill="#009966" stroke="#009966" stroke-width="0.45" stroke-miterlimit="10" d="M267.7,55.9c-1,0-1.9,0.8-1.9,1.9
		c0,0.9,0.6,1.6,1.4,1.8v1.6c0,0.3,0.2,0.5,0.5,0.5s0.5-0.2,0.5-0.5v-1.6c0.8-0.2,1.4-0.9,1.4-1.8C269.6,56.8,268.7,55.9,267.7,55.9
		z M267.7,58.7c-0.5,0-0.9-0.4-0.9-0.9s0.4-0.9,0.9-0.9c0.5,0,0.9,0.4,0.9,0.9S268.2,58.7,267.7,58.7z"/>
</g>
<g>
	<path fill="#009966" stroke="#009966" stroke-width="0.45" stroke-miterlimit="10" d="M315.5,53.5h-2.4c0.1-0.2,0.2-0.5,0.2-0.8v-2
		c0-1.8-1.5-3.3-3.3-3.3h-2.5c-1.8,0-3.3,1.5-3.3,3.3c0,0.3,0.2,0.5,0.5,0.5s0.5-0.2,0.5-0.5c0-1.3,1.1-2.3,2.3-2.3h2.5
		c1.3,0,2.3,1.1,2.3,2.3v2c0,0.4-0.4,0.8-0.8,0.8h-5.6h-4c-1,0-1.8,0.8-1.8,1.8v8.3c0,1,0.8,1.8,1.8,1.8h13.5c1,0,1.8-0.8,1.8-1.8
		v-8.3C317.3,54.3,316.5,53.5,315.5,53.5z M316.3,63.6c0,0.4-0.4,0.8-0.8,0.8H302c-0.4,0-0.8-0.4-0.8-0.8v-8.3
		c0-0.4,0.4-0.8,0.8-0.8h4h5.6h4c0.4,0,0.8,0.4,0.8,0.8V63.6z"/>
	<path fill="#009966" stroke="#009966" stroke-width="0.45" stroke-miterlimit="10" d="M308.7,56.9c-1,0-1.9,0.8-1.9,1.9
		c0,0.9,0.6,1.6,1.4,1.8v1.6c0,0.3,0.2,0.5,0.5,0.5s0.5-0.2,0.5-0.5v-1.6c0.8-0.2,1.4-0.9,1.4-1.8C310.6,57.7,309.8,56.9,308.7,56.9
		z M308.7,59.7c-0.5,0-0.9-0.4-0.9-0.9s0.4-0.9,0.9-0.9c0.5,0,0.9,0.4,0.9,0.9S309.2,59.7,308.7,59.7z"/>
</g>
<path fill="#009966" d="M155.4,46.8H141c-1,0-1.8,0.8-1.8,1.8V63c0,1,0.8,1.8,1.8,1.8h14.4c1,0,1.8-0.8,1.8-1.8V48.6
	C157.2,47.6,156.4,46.8,155.4,46.8z M153,53.5c0,0-5.8,5.8-5.8,5.8c-0.3,0.3-0.5,0.2-0.8,0l-2.8-2.8c-0.3-0.3-0.3-0.5,0-0.8
	c0.3-0.3,0.5-0.3,0.8,0l2.4,2.4l5.3-5.4c0.3-0.3,0.5-0.3,0.8,0C153.3,52.9,153.3,53.2,153,53.5z"/>
<path fill="#009966" stroke="#009966" stroke-width="0.5" stroke-miterlimit="10" d="M115.3,127.8c0.4,0,0.8,0.4,0.8,0.8v14.3
	c0,0.4-0.4,0.8-0.8,0.8H101c-0.4,0-0.8-0.4-0.8-0.8v-14.3c0-0.4,0.4-0.8,0.8-0.8L115.3,127.8 M115.3,126.7H101c-1,0-1.9,0.8-1.9,1.9
	v14.3c0,1,0.8,1.9,1.9,1.9h14.3c1,0,1.9-0.8,1.9-1.9v-14.3C117.2,127.6,116.3,126.7,115.3,126.7L115.3,126.7z"/>
<path fill="#009966" stroke="#009966" stroke-miterlimit="10" d="M434.3,16.1c0.1-0.1,0.1-0.2,0.1-0.3s0-0.2-0.1-0.3l-8.2-8.2
	c-0.2-0.2-0.5-0.2-0.6,0s-0.2,0.5,0,0.6l7.8,7.8l-7.8,7.8c-0.2,0.2-0.2,0.5,0,0.6c0.2,0.2,0.5,0.2,0.6,0L434.3,16.1z"/>
<path fill="#009966" stroke="#009966" stroke-miterlimit="10" d="M148.8,131.8c-0.1-0.1-0.2-0.1-0.3-0.1s-0.2,0-0.3,0.1L140,140
	c-0.2,0.2-0.2,0.5,0,0.6s0.5,0.2,0.6,0l7.8-7.8l7.8,7.8c0.2,0.2,0.5,0.2,0.6,0s0.2-0.5,0-0.6L148.8,131.8z"/>
<path fill="#009966" stroke="#009966" stroke-miterlimit="10" d="M307.8,100.7c0.1,0.1,0.2,0.1,0.3,0.1c0.1,0,0.2,0,0.3-0.1l8.2-8.2
	c0.2-0.2,0.2-0.5,0-0.6c-0.2-0.2-0.5-0.2-0.6,0l-7.8,7.8l-7.8-7.8c-0.2-0.2-0.5-0.2-0.6,0s-0.2,0.5,0,0.6L307.8,100.7z"/>
<g transform="matrix( 1, 0, 0, 1, 0,0) ">
	<g>
		<g id="a_3_">
			<path fill="#009966" stroke="#009966" stroke-width="0.5" stroke-miterlimit="10" d="M178.6,91.2v7.2c0,0.9,0.3,1.7,1,2.4
				s1.5,1,2.4,1v2.6c0,0.1,0,0.2,0.1,0.3c0,0.1,0.1,0.1,0.2,0.2c0.1,0,0.1,0,0.2,0c0.1,0,0.2,0,0.3-0.1l3-2.9h8.3c1,0,1.8-0.3,2.5-1
				c0.7-0.7,1-1.5,1-2.4v-7.2c0-1-0.3-1.8-1-2.4c-0.7-0.7-1.5-1-2.5-1h-12.1c-1,0-1.8,0.3-2.5,1C179,89.5,178.6,90.3,178.6,91.2
				 M182.2,88.7h12.1c0.7,0,1.3,0.2,1.8,0.7c0.5,0.5,0.8,1.1,0.8,1.8v7.2c0,0.7-0.3,1.3-0.8,1.8c-0.5,0.5-1.1,0.8-1.8,0.8h-8.5
				c-0.1,0-0.2,0-0.3,0.1l-2.3,2.3v-2c0-0.1,0-0.2-0.1-0.3c-0.1-0.1-0.2-0.1-0.3-0.1h-0.4c-0.7,0-1.3-0.3-1.8-0.8
				c-0.5-0.5-0.8-1.1-0.8-1.8v-7.2c0-0.7,0.3-1.3,0.8-1.8C180.8,88.9,181.4,88.7,182.2,88.7z"/>
			<path fill="#009966" stroke="#009966" stroke-width="0.5" stroke-miterlimit="10" d="M193.4,95.7c0.2-0.2,0.4-0.5,0.4-0.8
				c0-0.3-0.1-0.6-0.4-0.8c-0.2-0.2-0.5-0.4-0.9-0.4s-0.6,0.1-0.9,0.4c-0.2,0.2-0.4,0.5-0.4,0.8c0,0.3,0.1,0.6,0.4,0.8
				c0.2,0.2,0.5,0.3,0.9,0.3S193.1,95.9,193.4,95.7 M185.1,94.8c0-0.3-0.1-0.6-0.4-0.8c-0.2-0.2-0.5-0.4-0.9-0.4
				c-0.3,0-0.6,0.1-0.9,0.4c-0.2,0.2-0.4,0.5-0.4,0.8c0,0.3,0.1,0.6,0.4,0.8c0.2,0.2,0.5,0.3,0.9,0.3c0.3,0,0.6-0.1,0.9-0.3
				C185,95.4,185.1,95.1,185.1,94.8 M187.3,94c-0.2,0.2-0.4,0.5-0.4,0.8c0,0.3,0.1,0.6,0.4,0.8c0.2,0.2,0.5,0.3,0.9,0.3
				c0.3,0,0.6-0.1,0.9-0.3c0.2-0.2,0.4-0.5,0.4-0.8c0-0.3-0.1-0.6-0.4-0.8c-0.2-0.2-0.5-0.4-0.9-0.4C187.9,93.6,187.6,93.7,187.3,94
				z"/>
		</g>
	</g>
</g>
<path fill="#009966" stroke="#009966" stroke-width="0.45" stroke-miterlimit="10" d="M71.8,143.3h-2v2H58.6v-15.2h2v-2h2v-2h11.1
	v15.2h-2L71.8,143.3L71.8,143.3z M69.2,130.6H59.1v14.2h10.1V130.6z M60.6,132.7v-0.5h7.1v0.5H60.6z M60.6,134.7v-0.5h7.1v0.5H60.6z
	 M60.6,136.7v-0.5h7.1v0.5H60.6z M60.6,138.7v-0.5h7.1v0.5H60.6z M60.6,140.8v-0.5h7.1v0.5H60.6z M60.6,142.8v-0.5h7.1v0.5H60.6z
	 M61.1,128.6v1.5h8.6v12.6h1.5v-14.2H61.1z M63.2,126.6v1.5h8.6v12.6h1.5v-14.2H63.2z"/>
<path fill="#009966" d="M147.6,166c0,0-0.1,0-0.1,0.1l-5.2,8.4c-0.1,0.1,0,0.2,0.1,0.2h10.4c0.1,0,0.2-0.1,0.1-0.2l-5.2-8.4
	C147.7,166,147.6,166,147.6,166L147.6,166z M142.4,176.4c-0.1,0-0.2,0.1-0.1,0.2l5.2,8.4c0.1,0.1,0.2,0.1,0.2,0l5.2-8.4
	c0.1-0.1,0-0.2-0.1-0.2H142.4L142.4,176.4z"/>
<path fill="#009966" stroke="#009966" stroke-width="0.75" stroke-miterlimit="10" d="M427.9,86.4c-5.3,0-9.6,4.3-9.6,9.6
	s4.3,9.6,9.6,9.6s9.6-4.3,9.6-9.6S433.2,86.4,427.9,86.4z M427.9,104.7c-4.8,0-8.7-3.9-8.7-8.7s3.9-8.7,8.7-8.7s8.7,3.9,8.7,8.7
	S432.8,104.7,427.9,104.7z"/>
<g>
	<path fill="#009966" stroke="#009966" stroke-width="0.75" stroke-miterlimit="10" d="M227.7,136c-1.9,0-3.5,1.2-4.1,2.9h0.4
		c0.6-1.6,1.9-2.5,3.7-2.5c2.1,0,3.9,1.8,3.9,3.9s-1.8,3.9-3.9,3.9c-1.6,0-2.9-1-3.5-2.3h-0.4c0.6,1.6,2.1,2.7,3.9,2.7
		c2.3,0,4.3-1.9,4.3-4.3S230,136,227.7,136z"/>
	<path fill="#009966" stroke="#009966" stroke-width="0.75" stroke-miterlimit="10" d="M227.7,137.6v3.3h2.5v0.4h-2.9
		c0-1.2,0-2.7,0-3.7H227.7z"/>
</g>
<path fill="#009966" stroke="#009966" stroke-miterlimit="10" d="M196.6,135.9c-0.2,0-0.3,0.1-0.3,0.3v5c0,1.6-1.3,2.9-2.9,2.9
	h-10.6c-1.6,0-2.9-1.3-2.9-2.9v-8.4v-2.2c0-1.6,1.3-2.9,2.9-2.9h4.9c0.2,0,0.3-0.1,0.3-0.3s-0.1-0.3-0.3-0.3h-4.9
	c-1.9,0-3.5,1.6-3.5,3.5v2.2v8.4c0,1.9,1.6,3.5,3.5,3.5h10.6c1.9,0,3.5-1.6,3.5-3.5v-5C196.8,136,196.7,135.9,196.6,135.9z"/>
<g>
	<g>
		<path fill="#009966" d="M197.2,127c0.6,0.6,0.6,1.5,0,2.1l-0.7,0.7l-2.1-2.1l0.7-0.7C195.7,126.4,196.6,126.4,197.2,127z"/>
		<polygon fill="#009966" points="186.9,135.2 186.2,137.9 189,137.2 195.8,130.4 193.7,128.3 		"/>
	</g>
</g>
<path fill="#009966" stroke="#009966" stroke-width="0.75" stroke-miterlimit="10" d="M356.6,176.2c-0.2,0-0.3,0.1-0.3,0.3v5
	c0,1.6-1.3,2.9-2.9,2.9h-10.5c-1.6,0-2.9-1.3-2.9-2.9V173v-2.2c0-1.6,1.3-2.9,2.9-2.9h4.9c0.2,0,0.3-0.1,0.3-0.3
	c0-0.2-0.1-0.3-0.3-0.3h-4.9c-1.9,0-3.5,1.5-3.5,3.5v2.2v8.4c0,1.9,1.5,3.5,3.5,3.5h10.5c1.9,0,3.5-1.5,3.5-3.5v-5
	C356.8,176.3,356.7,176.2,356.6,176.2z"/>
<path fill="#009966" stroke="#009966" stroke-width="0.75" stroke-miterlimit="10" d="M317.1,15.8c-0.2,0-0.3,0.1-0.3,0.3v5.3
	c0,1.7-1.4,3.1-3.1,3.1h-11.3c-1.7,0-3.1-1.4-3.1-3.1v-9v-2.3c0-1.7,1.4-3.1,3.1-3.1h5.3c0.2,0,0.3-0.1,0.3-0.3s-0.1-0.3-0.3-0.3
	h-5.3c-2,0-3.7,1.7-3.7,3.7v2.3v9c0,2,1.7,3.7,3.7,3.7h11.3c2,0,3.7-1.7,3.7-3.7v-5.3C317.3,15.9,317.2,15.8,317.1,15.8z"/>
<g>
	<path fill="#009966" d="M317.7,6.2c0.6,0.6,0.6,1.6,0,2.2L317,9.1l-2.2-2.2l0.7-0.7C316.1,5.6,317.1,5.6,317.7,6.2z"/>
	<polygon fill="#009966" points="306.7,15 306,17.9 308.9,17.2 316.2,9.9 314,7.7 	"/>
</g>
<path fill="#009966" stroke="#009966" stroke-width="0.75" stroke-miterlimit="10" d="M236.1,14.9H229V7.7c0-0.5-0.4-0.8-0.8-0.8
	c-0.5,0-0.8,0.4-0.8,0.8v7.1h-7.1c-0.5,0-0.8,0.4-0.8,0.8s0.4,0.8,0.8,0.8h7.1v7.1c0,0.5,0.4,0.8,0.8,0.8c0.5,0,0.8-0.4,0.8-0.8
	v-7.1h7.1c0.5,0,0.8-0.4,0.8-0.8S236.6,14.9,236.1,14.9z"/>
<path fill="#009966" stroke="#009966" stroke-width="0.75" stroke-miterlimit="10" d="M197,24l-4.2-4.2c2.7-3,2.6-7.7-0.3-10.6
	c-3-3-7.9-3-11,0c-3,3-3,7.9,0,11c1.5,1.5,3.5,2.3,5.5,2.3c1.8,0,3.7-0.7,5.1-2l4.2,4.2c0.1,0.1,0.2,0.1,0.3,0.1
	c0.1,0,0.2,0,0.3-0.1C197.2,24.4,197.2,24.1,197,24z M182.2,19.4c-2.7-2.7-2.7-7,0-9.7c1.3-1.3,3.1-2,4.8-2s3.5,0.7,4.8,2
	c2.7,2.7,2.7,7,0,9.7C189.2,22.1,184.8,22.1,182.2,19.4z"/>
<path fill="#009966" stroke="#009966" stroke-width="0.75" stroke-miterlimit="10" d="M273,143.9l-2.1-2.1c1.4-1.5,1.3-3.9-0.2-5.4
	c-1.5-1.5-4-1.5-5.5,0c-1.5,1.5-1.5,4,0,5.5c0.8,0.8,1.8,1.1,2.8,1.1c0.9,0,1.9-0.3,2.6-1l2.1,2.1c0,0,0.1,0.1,0.2,0.1
	s0.1,0,0.2-0.1C273.1,144.1,273.1,144,273,143.9z M265.5,141.6c-1.3-1.3-1.3-3.5,0-4.9c0.7-0.7,1.6-1,2.4-1s1.8,0.3,2.4,1
	c1.3,1.3,1.3,3.5,0,4.9C269,142.9,266.9,142.9,265.5,141.6z"/>
<path fill="#009966" stroke="#009966" stroke-width="0.75" stroke-miterlimit="10" d="M68.1,6.6c-5,0-9.1,4.1-9.1,9.1
	c0,5,4.1,9.1,9.1,9.1s9.1-4.1,9.1-9.1C77.3,10.7,73.2,6.6,68.1,6.6z M68.1,24.1c-4.6,0-8.3-3.7-8.3-8.3c0-4.6,3.7-8.3,8.3-8.3
	c4.6,0,8.3,3.7,8.3,8.3C76.5,20.3,72.7,24.1,68.1,24.1z"/>
<path fill="#009966" stroke="#009966" stroke-miterlimit="10" d="M276.6,7.8v4.6c0,0.1-0.1,0.2-0.2,0.2s-0.2-0.1-0.2-0.2v-4
	l-7.8,7.8c0,0-0.1,0.1-0.2,0.1c0,0-0.1,0-0.2-0.1c-0.1-0.1-0.1-0.2,0-0.3l7.8-7.8h-4c-0.1,0-0.2-0.1-0.2-0.2s0.1-0.2,0.2-0.2h4.6
	C276.5,7.6,276.6,7.7,276.6,7.8z"/>
<path fill="#009966" stroke="#009966" stroke-width="0.75" stroke-miterlimit="10" d="M275.9,16c-0.1,0-0.2,0.1-0.2,0.2v4.6
	c0,1.5-1.2,2.7-2.7,2.7h-9.8c-1.5,0-2.7-1.2-2.7-2.7v-7.8v-2c0-1.5,1.2-2.7,2.7-2.7h4.6c0.1,0,0.2-0.1,0.2-0.2s-0.1-0.2-0.2-0.2
	h-4.6c-1.8,0-3.2,1.4-3.2,3.2v2v7.8c0,1.8,1.4,3.2,3.2,3.2h9.8c1.8,0,3.2-1.4,3.2-3.2v-4.6C276.2,16.1,276.1,16,275.9,16z"/>
<path fill="#009966" stroke="#009966" stroke-miterlimit="10" d="M18.3,59.3v4.3c0,0.1-0.1,0.2-0.2,0.2c-0.1,0-0.2-0.1-0.2-0.2v-3.8
	l-7.4,7.4c0,0-0.1,0.1-0.2,0.1s-0.1,0-0.2-0.1c-0.1-0.1-0.1-0.2,0-0.3l7.4-7.4h-3.8c-0.1,0-0.2-0.1-0.2-0.2s0.1-0.2,0.2-0.2H18
	C18.2,59.1,18.3,59.2,18.3,59.3z"/>
<path fill="#009966" stroke="#009966" stroke-width="0.75" stroke-miterlimit="10" d="M15.6,69.3c-0.1,0-0.2,0.1-0.2,0.2v4.4
	c0,1.4-1.2,2.6-2.6,2.6H3.4c-1.4,0-2.6-1.2-2.6-2.6v-7.5v-1.9c0-1.4,1.2-2.6,2.6-2.6h4.4c0.1,0,0.2-0.1,0.2-0.2s-0.1-0.2-0.2-0.2
	H3.4c-1.7,0-3.1,1.4-3.1,3.1v1.9v7.5c0,1.7,1.4,3.1,3.1,3.1h9.4c1.7,0,3.1-1.4,3.1-3.1v-4.4C15.9,69.4,15.8,69.3,15.6,69.3z"/>
<path fill="#009966" stroke="#009966" stroke-width="0.5" stroke-miterlimit="10" d="M117.5,19.6v-7.9c0-0.2,0.1-1.8-0.5-2.5
	c-0.4-0.5-1.2-0.6-2-0.6h-0.4c-0.1,0-0.3,0-0.6,0V7.9c0-0.2-0.2-0.4-0.4-0.4s-0.4,0.2-0.4,0.4v0.8c-2.5,0-8,0-10.5,0V7.9
	c0-0.2-0.2-0.4-0.4-0.4s-0.2,0.2-0.2,0.4v0.8c-0.3,0-0.5,0-0.6,0h-0.3c-0.9,0-1.7,0-2,0.6c-0.6,0.6-0.5,2.2-0.5,2.4v11.6
	c0,0.2,0.2,0.4,0.4,0.4h14.5c0.1,0,0.2,0,0.3-0.1l0,0l3.6-3.7l0,0l0,0l0,0c0,0,0,0,0-0.1C117.5,19.7,117.5,19.7,117.5,19.6z
	 M99.7,9.6c0.2-0.3,0.9-0.3,1.6-0.3h0.4c0.1,0,0.3,0,0.6,0v0.5c0,0.2,0.2,0.4,0.4,0.4s0.3-0.2,0.3-0.4V9.3c2.5,0,8,0,10.5,0v0.5
	c0,0.2,0.2,0.4,0.4,0.4s0.4-0.2,0.4-0.4V9.3c0.3,0,0.5,0,0.6,0h0.4c0.7,0,1.3,0,1.6,0.3c0.1,0.3,0.1,1.1,0.1,1.7H99.4
	C99.4,10.7,99.5,9.9,99.7,9.6z M99.4,12.1h17.4v7.2h-3.3c-0.2,0-0.4,0.2-0.4,0.4v3.4H99.4V12.1z M116.4,19.9l-2.4,2.5v-2.5H116.4z"
	/>
<g>
	<rect x="103.1" y="14" fill="#009966" width="1.9" height="1.4"/>
	<rect x="105.9" y="14" fill="#009966" width="1.9" height="1.4"/>
	<rect x="108.6" y="14" fill="#009966" width="1.9" height="1.4"/>
	<rect x="111.2" y="14" fill="#009966" width="1.9" height="1.4"/>
	<rect x="103.1" y="16.2" fill="#009966" width="1.9" height="1.4"/>
	<rect x="105.9" y="16.2" fill="#009966" width="1.9" height="1.4"/>
	<rect x="108.6" y="16.2" fill="#009966" width="1.9" height="1.4"/>
	<rect x="111.2" y="16.2" fill="#009966" width="1.9" height="1.4"/>
	<rect x="103.1" y="18.4" fill="#009966" width="1.9" height="1.4"/>
	<rect x="105.9" y="18.4" fill="#009966" width="1.9" height="1.4"/>
	<rect x="108.6" y="18.4" fill="#009966" width="1.9" height="1.4"/>
	<rect x="111.2" y="18.4" fill="#009966" width="1.9" height="1.4"/>
</g>
<g>
	<g>
		<path fill="#EF3C24" d="M148.7,6.9c-0.1-0.2-0.3-0.3-0.5-0.3c-0.2,0-0.4,0.1-0.5,0.3l-9.2,16c-0.1,0.2-0.1,0.4,0,0.6
			c0.1,0.2,0.3,0.3,0.5,0.3h18.5l0,0c0.3,0,0.6-0.3,0.6-0.6c0-0.1,0-0.3-0.1-0.4L148.7,6.9z M140,22.6l8.1-14.1l8.1,14.1H140z"/>
		<path fill="#EF3C24" d="M147.5,12.8v4.9c0,0.3,0.3,0.6,0.6,0.6c0.3,0,0.6-0.3,0.6-0.6v-4.9c0-0.3-0.3-0.6-0.6-0.6
			C147.8,12.2,147.5,12.5,147.5,12.8z"/>
		<path fill="#EF3C24" d="M148.1,19.2c-0.3,0-0.6,0.3-0.6,0.6v0.4c0,0.3,0.3,0.6,0.6,0.6c0.3,0,0.6-0.3,0.6-0.6v-0.4
			C148.8,19.5,148.5,19.2,148.1,19.2z"/>
	</g>
</g>
<g>
	<g>
		<path fill="#F26722" d="M68.3-33c-0.1-0.2-0.3-0.3-0.5-0.3c-0.2,0-0.4,0.1-0.5,0.3l-9.2,16c-0.1,0.2-0.1,0.4,0,0.6
			c0.1,0.2,0.3,0.3,0.5,0.3H77l0,0c0.3,0,0.6-0.3,0.6-0.6c0-0.1,0-0.3-0.1-0.4L68.3-33z M59.6-17.4l8.1-14.1l8.1,14.1H59.6z"/>
		<path fill="#F26722" d="M67.1-27.1v4.9c0,0.3,0.3,0.6,0.6,0.6c0.3,0,0.6-0.3,0.6-0.6v-4.9c0-0.3-0.3-0.6-0.6-0.6
			S67.1-27.4,67.1-27.1z"/>
		<path fill="#F26722" d="M67.7-20.7c-0.3,0-0.6,0.3-0.6,0.6v0.4c0,0.3,0.3,0.6,0.6,0.6c0.3,0,0.6-0.3,0.6-0.6v-0.4
			C68.4-20.5,68.1-20.7,67.7-20.7z"/>
	</g>
</g>
<polygon fill="#009966" points="63.3,15.4 65.7,15.4 65.7,19 70.5,19 70.5,15.4 72.9,15.4 68.1,10.7 "/>
<path fill="#009966" stroke="#009966" stroke-width="0.75" stroke-miterlimit="10" d="M348,126.6c-5.1,0-9.2,4.1-9.2,9.2
	c0,5.1,4.1,9.2,9.2,9.2s9.2-4.1,9.2-9.2C357.2,130.8,353,126.6,348,126.6z M348,144.2c-4.6,0-8.4-3.8-8.4-8.4c0-4.6,3.8-8.4,8.4-8.4
	s8.4,3.8,8.4,8.4C356.4,140.4,352.6,144.2,348,144.2z"/>
<path fill="#009966" stroke="#009966" stroke-width="0.75" stroke-miterlimit="10" d="M428.1,126.6c-5.1,0-9.2,4.1-9.2,9.2
	c0,5.1,4.1,9.2,9.2,9.2c5.1,0,9.2-4.1,9.2-9.2C437.3,130.8,433.2,126.6,428.1,126.6z M428.1,144.2c-4.6,0-8.4-3.8-8.4-8.4
	c0-4.6,3.8-8.4,8.4-8.4c4.6,0,8.4,3.8,8.4,8.4C436.5,140.4,432.8,144.2,428.1,144.2z"/>
<path fill="#009966" stroke="#009966" stroke-width="0.75" stroke-miterlimit="10" d="M68.9,99.8l1.9-1.9c0,0,0-0.1,0-0.2
	c0,0-0.1,0-0.2,0l-1.9,1.9l-1.9-1.9c0,0-0.1,0-0.2,0c0,0,0,0.1,0,0.2l1.9,1.9l-1.9,1.9c0,0,0,0.1,0,0.2c0,0,0.1,0,0.1,0s0.1,0,0.1,0
	l1.9-1.9l1.9,1.9c0,0,0.1,0,0.1,0s0.1,0,0.1,0c0,0,0-0.1,0-0.2L68.9,99.8z"/>
<path fill="#009966" stroke="#009966" stroke-width="0.75" stroke-miterlimit="10" d="M68.8,95c-2.7,0-4.8,2.2-4.8,4.8
	c0,2.7,2.2,4.8,4.8,4.8c2.7,0,4.8-2.2,4.8-4.8C73.6,97.1,71.4,95,68.8,95z M68.8,104.2c-2.4,0-4.4-2-4.4-4.4c0-2.4,2-4.4,4.4-4.4
	c2.4,0,4.4,2,4.4,4.4C73.2,102.2,71.2,104.2,68.8,104.2z"/>
<rect x="107.7" y="47.1" transform="matrix(-0.5425 -0.8401 0.8401 -0.5425 119.9679 176.7993)" fill="#009966" stroke="#009966" stroke-width="0.75" stroke-miterlimit="10" width="0.8" height="17.2"/>
<path fill="#009966" stroke="#009966" stroke-width="0.75" stroke-miterlimit="10" d="M108,46.8c-4.8,0-8.8,3.9-8.8,8.8
	c0,4.8,3.9,8.8,8.8,8.8s8.8-3.9,8.8-8.8C116.8,50.7,112.9,46.8,108,46.8z M108,63.5c-4.4,0-8-3.6-8-8c0-4.4,3.6-8,8-8
	c4.4,0,8,3.6,8,8C116,60,112.5,63.5,108,63.5z"/>
<g>
	<path fill="#009966" stroke="#009966" stroke-width="0.75" stroke-miterlimit="10" d="M348.3,101.4c0.3,0,0.5-0.2,0.5-0.5v-7.1
		c0-0.3-0.2-0.5-0.5-0.5s-0.5,0.2-0.5,0.5v7.1C347.8,101.1,348,101.4,348.3,101.4z"/>
	<path fill="#009966" stroke="#009966" stroke-width="0.75" stroke-miterlimit="10" d="M348.2,91.9c0.3,0,0.5-0.2,0.5-0.5v-1
		c0-0.3-0.2-0.5-0.5-0.5s-0.5,0.2-0.5,0.5v1C347.7,91.7,347.9,91.9,348.2,91.9z"/>
</g>
<path fill="#009966" stroke="#009966" stroke-width="0.75" stroke-miterlimit="10" d="M348.3,86.8c-4.9,0-8.9,4-8.9,8.9
	c0,4.9,4,8.9,8.9,8.9c4.9,0,8.9-4,8.9-8.9C357.2,90.7,353.2,86.8,348.3,86.8z M348.3,103.8c-4.5,0-8.1-3.6-8.1-8.1
	c0-4.5,3.6-8.1,8.1-8.1c4.5,0,8.1,3.6,8.1,8.1C356.4,100.1,352.7,103.8,348.3,103.8z"/>
<path fill="#009966" stroke="#009966" stroke-width="0.75" stroke-miterlimit="10" d="M228.3,86.7c-5.2,0-9.4,4.2-9.4,9.4
	c0,5.2,4.2,9.4,9.4,9.4c5.2,0,9.4-4.2,9.4-9.4C237.6,90.9,233.4,86.7,228.3,86.7z M228.3,104.6c-4.7,0-8.5-3.8-8.5-8.5
	c0-4.7,3.8-8.5,8.5-8.5c4.7,0,8.5,3.8,8.5,8.5C236.8,100.7,233,104.6,228.3,104.6z"/>
<polygon fill="#009966" points="233.1,95.6 230.7,95.6 230.7,91.9 225.8,91.9 225.8,95.6 223.3,95.6 228.2,100.5 "/>
<path fill="#009966" stroke="#009966" stroke-width="0.75" stroke-miterlimit="10" d="M68.1,47c-4.9,0-8.8,4-8.8,8.8
	c0,4.9,4,8.8,8.8,8.8s8.8-4,8.8-8.8C76.9,51,72.9,47,68.1,47z M68.1,63.9c-4.4,0-8-3.6-8-8c0-4.4,3.6-8,8-8s8,3.6,8,8
	C76.1,60.3,72.5,63.9,68.1,63.9z"/>
<polygon fill="#009966" points="72.7,55.4 70.4,55.4 70.4,52 65.7,52 65.7,55.4 63.4,55.4 68,60 "/>
<path fill="#009966" stroke="#009966" stroke-width="0.75" stroke-miterlimit="10" d="M388.7,6.7c-5,0-9,4.1-9,9c0,5,4.1,9,9,9
	c5,0,9-4.1,9-9C397.7,10.7,393.7,6.7,388.7,6.7z M388.7,23.9c-4.5,0-8.2-3.7-8.2-8.2c0-4.5,3.7-8.2,8.2-8.2c4.5,0,8.2,3.7,8.2,8.2
	C396.9,20.2,393.2,23.9,388.7,23.9z"/>
<path fill="#009966" stroke="#009966" stroke-width="0.75" stroke-miterlimit="10" d="M193.1,52.1c-0.1-0.1-0.3-0.1-0.4,0l-6.8,6.8
	l-2.2-2.2c-0.1-0.1-0.3-0.1-0.4,0c-0.1,0.1-0.1,0.3,0,0.4l2.4,2.4c0.1,0.1,0.1,0.1,0.2,0.1s0.1,0,0.2-0.1l7-7
	C193.2,52.4,193.2,52.2,193.1,52.1z"/>
<path fill="#009966" stroke="#009966" stroke-width="0.75" stroke-miterlimit="10" d="M111.2,97.6c-0.1-0.1-0.2-0.1-0.2,0l-3.6,3.6
	l-1.2-1.2c-0.1-0.1-0.2-0.1-0.2,0c-0.1,0.1-0.1,0.2,0,0.2l1.3,1.3c0,0,0.1,0,0.1,0c0,0,0.1,0,0.1,0l3.8-3.8
	C111.3,97.8,111.3,97.7,111.2,97.6z"/>
<path fill="#009966" stroke="#009966" stroke-width="0.45" stroke-miterlimit="10" d="M188.2,46.4c-5.2,0-9.5,4.2-9.5,9.5
	c0,5.2,4.2,9.5,9.5,9.5c5.2,0,9.5-4.2,9.5-9.5C197.7,50.6,193.4,46.4,188.2,46.4z M188.2,64.5c-4.8,0-8.6-3.9-8.6-8.6
	c0-4.8,3.9-8.6,8.6-8.6s8.6,3.9,8.6,8.6C196.8,60.6,193,64.5,188.2,64.5z"/>
<g>
	<path fill="#009966" stroke="#009966" stroke-width="0.75" stroke-miterlimit="10" d="M391.7,92.6c0.1-0.1,0.1-0.3,0-0.4
		c-0.1-0.1-0.3-0.1-0.4,0l-4.4,4.4l0.4,0.4L391.7,92.6z"/>
	<path fill="#009966" stroke="#009966" stroke-width="0.75" stroke-miterlimit="10" d="M384.5,99l-2.1-2.1c-0.1-0.1-0.3-0.1-0.4,0
		c-0.1,0.1-0.1,0.3,0,0.4l2.3,2.3c0.1,0.1,0.1,0.1,0.2,0.1c0.1,0,0.1,0,0.2-0.1l0.2-0.2L384.5,99L384.5,99z"/>
	<path fill="#009966" stroke="#009966" stroke-width="0.75" stroke-miterlimit="10" d="M385,96.6c-0.1-0.1-0.3-0.1-0.4,0
		c-0.1,0.1-0.1,0.3,0,0.4l0.9,0.9l0.4-0.4L385,96.6z"/>
	<path fill="#009966" stroke="#009966" stroke-width="0.75" stroke-miterlimit="10" d="M394.4,92c-0.1-0.1-0.3-0.1-0.4,0l-6.8,6.8
		l-0.8-0.8l-0.4,0.4l1,1c0.1,0.1,0.1,0.1,0.2,0.1c0.1,0,0.1,0,0.2-0.1l7-7C394.5,92.3,394.5,92.1,394.4,92z"/>
	
		<rect x="385.7" y="97.7" transform="matrix(0.7074 -0.7068 0.7068 0.7074 43.7084 301.4827)" fill="#009966" stroke="#009966" stroke-width="0.75" stroke-miterlimit="10" width="0.6" height="0.6"/>
</g>
<path fill="#009966" stroke="#009966" stroke-width="0.75" stroke-miterlimit="10" d="M388.2,86.4c-5.2,0-9.4,4.2-9.4,9.4
	c0,5.2,4.2,9.4,9.4,9.4c5.2,0,9.4-4.2,9.4-9.4C397.6,90.6,393.4,86.4,388.2,86.4z M388.2,104.4c-4.7,0-8.6-3.8-8.6-8.6
	c0-4.7,3.8-8.6,8.6-8.6c4.7,0,8.6,3.8,8.6,8.6C396.7,100.5,392.9,104.4,388.2,104.4z"/>
<circle fill="#009966" cx="268.3" cy="96" r="5.2"/>
<path fill="#009966" stroke="#009966" stroke-width="0.75" stroke-miterlimit="10" d="M268.3,87c-4.9,0-9,4-9,9c0,4.9,4,9,9,9
	s9-4,9-9C277.3,91.1,273.3,87,268.3,87z M268.3,104.2c-4.5,0-8.2-3.7-8.2-8.2c0-4.5,3.7-8.2,8.2-8.2s8.2,3.7,8.2,8.2
	C276.5,100.5,272.8,104.2,268.3,104.2z"/>
<circle fill="#009966" cx="348" cy="15.6" r="5.2"/>
<path fill="#009966" stroke="#009966" stroke-width="0.75" stroke-miterlimit="10" d="M348,6.5c-5,0-9.1,4.1-9.1,9.1
	c0,5,4.1,9.1,9.1,9.1s9.1-4.1,9.1-9.1C357,10.6,353,6.5,348,6.5z M348,23.9c-4.6,0-8.3-3.7-8.3-8.3c0-4.6,3.7-8.3,8.3-8.3
	s8.3,3.7,8.3,8.3C356.3,20.2,352.5,23.9,348,23.9z"/>
<g>
	<path fill="#009966" d="M352.8,50.4v3.5h1V50c0-0.2-0.1-0.3-0.2-0.4l-3.3-2.9c-0.1-0.1-0.3-0.1-0.4-0.1h-9.4
		c-0.3,0-0.6,0.3-0.6,0.6v17.4c0,0.3,0.3,0.6,0.6,0.6h12.7c0.3,0,0.6-0.3,0.6-0.6V60h-1v4.2h-11.9V47.5h8.8v2.9H352.8z"/>
	<g>
		<path fill="#009966" d="M348.6,56.2c-0.1,0-0.2,0-0.4,0h-0.2v0.7h0.3c0.2,0,0.3,0,0.4,0c0.1,0,0.1-0.1,0.2-0.1
			c0-0.1,0.1-0.1,0.1-0.2c0-0.1,0-0.2-0.1-0.2C348.8,56.2,348.7,56.2,348.6,56.2z"/>
		<path fill="#009966" d="M351.2,56.3c-0.1-0.1-0.1-0.1-0.2-0.1c-0.1,0-0.2,0-0.4,0h-0.2v1.6h0.4c0.1,0,0.2,0,0.3,0
			c0.1,0,0.1-0.1,0.2-0.1c0.1,0,0.1-0.1,0.1-0.2c0-0.1,0-0.3,0-0.4s0-0.3,0-0.4C351.3,56.4,351.2,56.3,351.2,56.3z"/>
		<path fill="#009966" d="M354.6,54.6h-7.9c-0.4,0-0.7,0.3-0.7,0.7v3.4c0,0.4,0.3,0.7,0.7,0.7h7.9c0.4,0,0.7-0.3,0.7-0.7v-3.4
			C355.3,54.9,355,54.6,354.6,54.6z M349.3,56.9c-0.1,0.1-0.1,0.2-0.2,0.2c-0.1,0.1-0.2,0.1-0.3,0.1c-0.1,0-0.3,0-0.5,0h-0.3v0.9
			h-0.5v-2.4h0.8c0.3,0,0.5,0,0.6,0c0.1,0,0.3,0.1,0.3,0.2c0.1,0.1,0.1,0.3,0.1,0.5C349.4,56.6,349.4,56.8,349.3,56.9z M351.8,57.5
			c-0.1,0.2-0.1,0.3-0.3,0.4c-0.1,0.1-0.2,0.1-0.3,0.2c-0.1,0-0.3,0.1-0.4,0.1h-0.9v-2.4h0.9c0.2,0,0.4,0,0.5,0
			c0.1,0,0.3,0.1,0.4,0.2c0.1,0.1,0.2,0.2,0.2,0.4c0.1,0.2,0.1,0.3,0.1,0.6C351.8,57.2,351.8,57.3,351.8,57.5z M353.8,56.1h-1.2v0.6
			h1v0.4h-1v1h-0.5v-2.4h1.7V56.1z"/>
	</g>
</g>
<path fill="#009966" stroke="#009966" stroke-width="0.5" stroke-miterlimit="10" d="M397.1,50.9c-0.1-0.1-0.4-0.1-0.5,0l-9.1,9.1
	l-2.9-2.9c-0.1-0.1-0.4-0.1-0.5,0c-0.1,0.1-0.1,0.4,0,0.5l3.1,3.1c0.1,0.1,0.2,0.1,0.3,0.1c0.1,0,0.2,0,0.3-0.1l9.4-9.4
	C397.3,51.3,397.3,51.1,397.1,50.9z"/>
<path fill="#009966" d="M391.4,50.3v3.5h1v-3.8c0-0.2-0.1-0.3-0.2-0.4l-3.2-2.9c-0.1-0.1-0.3-0.1-0.4-0.1h-9.3
	c-0.3,0-0.6,0.3-0.6,0.6v17.2c0,0.3,0.3,0.6,0.6,0.6h12.5c0.3,0,0.6-0.3,0.6-0.6v-4.5h-1v4.2h-11.8V47.4h8.7v2.9H391.4z"/>
<rect x="223" y="54.7" fill="#009966" width="9.1" height="0.8"/>
<rect x="223" y="57" fill="#009966" width="9.1" height="0.8"/>
<rect x="223" y="52.4" fill="#009966" width="5.3" height="0.8"/>
<rect x="223" y="59.2" fill="#009966" width="9.1" height="0.8"/>
<path fill="#009966" d="M233.6,50v10.3h1V49.6c0-0.2-0.1-0.3-0.2-0.5l-3.4-3.1c-0.1-0.1-0.3-0.2-0.4-0.2h-9.8
	c-0.4,0-0.6,0.3-0.6,0.6v18.3c0,0.4,0.3,0.6,0.6,0.6H234c0.4,0,0.6-0.3,0.6-0.6v-4.8h-1v4.4h-12.5V47h9.2v3H233.6z"/>
<g>
	<path fill="#009966" d="M140.7,86.6v16.3h1.1V87.8h6.9v5.1h5.1v10h1.1V92l-5.4-5.4H140.7z M149.8,91.7v-3.1l3.1,3.1H149.8z"/>
	<polygon fill="#009966" points="145.6,102.1 145.6,104.8 149.9,104.8 149.9,102.1 152.6,102.1 147.8,98.2 142.9,102.1 	"/>
</g>
<g>
	<path fill="#009966" d="M420,45.7v17.9h1.3V47h7.5v5.6h5.6v11h1.3V51.7l-6-6H420z M430,51.3v-3.4l3.4,3.4H430z"/>
	<polygon fill="#009966" points="430.2,61.5 430.2,58.5 425.5,58.5 425.5,61.5 422.5,61.5 427.8,65.8 433.2,61.5 	"/>
</g>
<path fill="#009966" d="M455.9,45.7v17.9h1.3V47h7.5v5.6h5.6v11h1.3V51.7l-6-6H455.9z M466,51.3v-3.4l3.4,3.4H466z"/>
<path fill="#009966" d="M61.1,86.5V104h1.2V87.7h7.4v5.5h5.5V104h1.2V92.3l-5.8-5.8H61.1z M71,92v-3.4l3.4,3.4H71z"/>
<path fill="#009966" stroke="#009966" stroke-width="0.75" stroke-miterlimit="10" d="M108.7,94.9c-2.6,0-4.6,2.1-4.6,4.6
	c0,2.6,2.1,4.6,4.6,4.6s4.6-2.1,4.6-4.6C113.3,97,111.3,94.9,108.7,94.9z M108.7,103.8c-2.3,0-4.2-1.9-4.2-4.2
	c0-2.3,1.9-4.2,4.2-4.2s4.2,1.9,4.2,4.2C112.9,101.9,111,103.8,108.7,103.8z"/>
<path fill="#009966" d="M101.3,86.5v17.1h1.2V87.7h7.2V93h5.3v10.6h1.2V92.2l-5.7-5.7H101.3z M110.9,91.8v-3.3l3.3,3.3H110.9z"/>
<path fill="#009966" stroke="#009966" stroke-width="0.75" stroke-miterlimit="10" d="M39.3,94c-2.6,0-4.6,2.1-4.6,4.6
	c0,2.6,2.1,4.6,4.6,4.6c2.6,0,4.6-2.1,4.6-4.6C43.9,96.1,41.8,94,39.3,94z M39.3,102.9c-2.3,0-4.2-1.9-4.2-4.2
	c0-2.3,1.9-4.2,4.2-4.2c2.3,0,4.2,1.9,4.2,4.2C43.5,101,41.6,102.9,39.3,102.9z"/>
<path fill="#009966" d="M31.9,85.6v17.1h1.2V86.8h7.2v5.3h5.3v10.6h1.2V91.3l-5.7-5.7H31.9z M41.5,91v-3.3l3.3,3.3H41.5z"/>
<g>
	<path fill="#009966" d="M220.1,126.3v17.4h1.2v-16.1h7.3v5.4h5.4v10.7h1.2v-11.6l-5.8-5.8H220.1z M229.8,131.7v-3.3l3.3,3.3H229.8z
		"/>
</g>
<path fill="#009966" d="M260.8,126.1v17.6h1.2v-16.4h7.4v5.5h5.5v10.9h1.2V132l-5.9-5.9H260.8z M270.7,131.6v-3.4l3.4,3.4H270.7z"/>
<path fill="#009966" stroke="#009966" stroke-width="0.75" stroke-miterlimit="10" d="M43.4,143.9l-2.1-2.1c1.4-1.5,1.3-3.9-0.2-5.4
	c-1.5-1.5-4-1.5-5.5,0c-1.5,1.5-1.5,4,0,5.5c0.8,0.8,1.8,1.1,2.8,1.1c0.9,0,1.9-0.3,2.6-1l2.1,2.1c0,0,0.1,0.1,0.2,0.1
	s0.1,0,0.2-0.1C43.5,144.1,43.5,144,43.4,143.9z M35.9,141.6c-1.3-1.3-1.3-3.5,0-4.9c0.7-0.7,1.6-1,2.4-1s1.8,0.3,2.4,1
	c1.3,1.3,1.3,3.5,0,4.9C39.4,142.9,37.2,142.9,35.9,141.6z"/>
<path fill="#009966" d="M31.1,126.1v17.6h1.2v-16.4h7.4v5.5h5.5v10.9h1.2V132l-5.9-5.9H31.1z M41,131.6v-3.4l3.4,3.4H41z"/>
<path fill="#009966" stroke="#009966" stroke-width="0.75" stroke-miterlimit="10" d="M-13.2,143.9l-2.1-2.1
	c1.4-1.5,1.3-3.9-0.2-5.4c-1.5-1.5-4-1.5-5.5,0c-1.5,1.5-1.5,4,0,5.5c0.8,0.8,1.8,1.1,2.8,1.1c0.9,0,1.9-0.3,2.6-1l2.1,2.1
	c0,0,0.1,0.1,0.2,0.1c0.1,0,0.1,0,0.2-0.1C-13.2,144.1-13.2,144-13.2,143.9z M-20.7,141.6c-1.3-1.3-1.3-3.5,0-4.9
	c0.7-0.7,1.6-1,2.4-1s1.8,0.3,2.4,1c1.3,1.3,1.3,3.5,0,4.9C-17.2,142.9-19.4,142.9-20.7,141.6z"/>
<path fill="#009966" d="M-25.5,126.1v17.6h1.2v-16.4h7.4v5.5h5.5v10.9h1.2V132l-5.9-5.9H-25.5z M-15.6,131.6v-3.4l3.4,3.4H-15.6z"/>
<path fill="#009966" d="M300.3,126.2v17.6h1.2v-16.3h7.4v5.5h5.5v10.8h1.2v-11.7l-5.8-5.8H300.3z M310.1,131.7v-3.4l3.4,3.4H310.1z"
	/>
<path fill="#009966" stroke="#009966" stroke-width="0.75" stroke-miterlimit="10" d="M308,137.7c-2.8,0-4.9,3.3-4.9,3.3
	s2.2,3.2,4.9,3.2c2.8,0,4.9-3.3,4.9-3.3S310.7,137.7,308,137.7z M308,143.7c-2.4,0-4.2-2.8-4.2-2.8s1.9-2.8,4.2-2.8s4.2,2.8,4.2,2.8
	S310.3,143.7,308,143.7z"/>
<path fill="none" stroke="#009966" stroke-width="0.5" stroke-miterlimit="10" d="M308,139.5c-0.8,0-1.6,0.6-1.6,1.6
	c0,0.8,0.6,1.6,1.6,1.6c0.8,0,1.6-0.6,1.6-1.6C309.5,140.2,308.8,139.5,308,139.5z M308,142.1c-0.6,0-1.1-0.5-1.1-1.1
	c0-0.5,0.5-1.2,1.1-1.2s1.1,0.5,1.1,1.1C309,141.5,308.6,142.1,308,142.1z"/>
<g>
	<g>
		<g>
			<g>
				<polygon fill="#009966" points="66.6,171.3 62.5,167.2 58.5,171.3 61.1,171.3 61.1,185.7 64,185.7 64,171.3 				"/>
				<rect x="67" y="167.2" fill="#009966" width="8.7" height="2.8"/>
				<rect x="66.1" y="172.3" fill="#009966" width="9.5" height="2.8"/>
				<rect x="66.1" y="177.8" fill="#009966" width="9.5" height="2.8"/>
				<rect x="66.1" y="182.9" fill="#009966" width="9.6" height="2.8"/>
			</g>
		</g>
	</g>
</g>
<g>
	<g>
		<g>
			<g>
				<polygon fill="#009966" points="99.1,180.7 102.9,184.5 106.6,180.7 104.2,180.7 104.2,167.5 101.5,167.5 101.5,180.7 				"/>
				<rect x="106.1" y="181.9" fill="#009966" width="8.9" height="2.6"/>
				<rect x="106.1" y="177.1" fill="#009966" width="9.7" height="2.6"/>
				<rect x="106.1" y="172.2" fill="#009966" width="9.7" height="2.6"/>
				<rect x="106.1" y="167.5" fill="#009966" width="9.8" height="2.6"/>
			</g>
		</g>
	</g>
</g>
<path fill="#009966" d="M379.6,135.6h12.7l-2.7-2.7c-0.2-0.2-0.2-0.6,0-0.8c0.2-0.2,0.6-0.2,0.8,0l3.6,3.6c0.2,0.2,0.2,0.6,0,0.8
	l-3.6,3.6c-0.1,0.1-0.2,0.2-0.4,0.2s-0.3-0.1-0.4-0.2c-0.2-0.2-0.2-0.6,0-0.8l2.7-2.7h-12.7c-0.3,0-0.5-0.2-0.5-0.5
	C379.1,135.8,379.3,135.6,379.6,135.6z M394,126.7h-11c-2.1,0-3.9,1.7-3.9,3.9v2.3c0,0.3,0.2,0.5,0.5,0.5s0.5-0.2,0.5-0.5v-2.3
	c0-1.5,1.3-2.8,2.8-2.8h11c1.5,0,2.8,1.3,2.8,2.8v11c0,1.5-1.3,2.8-2.8,2.8h-11c-1.5,0-2.8-1.3-2.8-2.8v-2.3c0-0.3-0.2-0.5-0.5-0.5
	s-0.5,0.2-0.5,0.5v2.3c0,2.1,1.7,3.9,3.9,3.9h11c2.1,0,3.9-1.7,3.9-3.9v-11C397.9,128.4,396.2,126.7,394,126.7z"/>
<path fill="#009966" d="M388.5,136.1"/>
<path fill="#009966" d="M388.5,136.1"/>
<polyline fill="none" stroke="#009966" stroke-width="0.95" stroke-miterlimit="10" points="182.9,175.9 184.4,177.9 186.9,174.6 
	"/>
<path fill="none" stroke="#009966" stroke-width="0.95" stroke-miterlimit="10" d="M193.1,180.1h-10.2c-2.1,0-3.8-1.7-3.8-3.8l0,0
	c0-2.1,1.7-3.8,3.8-3.8H193c2.1,0,3.8,1.7,3.8,3.8l0,0C196.9,178.4,195.2,180.1,193.1,180.1z"/>
<circle fill="none" stroke="#009966" stroke-width="0.95" stroke-miterlimit="10" cx="192.9" cy="176.4" r="2.5"/>
<path fill="none" stroke="#009966" stroke-width="0.95" stroke-miterlimit="10" d="M233.3,180.1h-10.2c-2.1,0-3.8-1.7-3.8-3.8l0,0
	c0-2.1,1.7-3.8,3.8-3.8h10.2c2.1,0,3.8,1.7,3.8,3.8l0,0C237.1,178.4,235.4,180.1,233.3,180.1z"/>
<circle fill="none" stroke="#009966" stroke-width="0.95" stroke-miterlimit="10" cx="223.9" cy="176.4" r="2.5"/>
<g>
	<path fill="#009966" d="M274.5,174.3c-0.3,0-0.5,0-0.8-0.1c-0.2,0-0.3-0.2-0.2-0.4c0-0.2,0.2-0.3,0.4-0.2c1.3,0.3,2.6-0.3,3.2-1.5
		c0.3-0.7,0.4-1.5,0.2-2.2c-0.2-0.7-0.8-1.3-1.4-1.7c-0.7-0.3-1.5-0.4-2.2-0.2c-0.7,0.2-1.3,0.8-1.7,1.4c-0.1,0.1-0.3,0.2-0.4,0.1
		c-0.1-0.1-0.2-0.3-0.1-0.4c0.4-0.8,1.1-1.4,2-1.7c0.9-0.3,1.8-0.2,2.7,0.2c0.8,0.4,1.4,1.1,1.7,2c0.3,0.9,0.2,1.8-0.2,2.7
		C277,173.6,275.8,174.3,274.5,174.3z M274.5,169.3v3.1 M272.9,170.8h3.1 M274.8,172.4v-1.3h1.2c0.2,0,0.3-0.1,0.3-0.3
		c0-0.2-0.1-0.3-0.3-0.3h-1.2v-1.3c0-0.2-0.1-0.3-0.3-0.3s-0.3,0.1-0.3,0.3v1.3h-1.3c-0.2,0-0.3,0.1-0.3,0.3c0,0.2,0.1,0.3,0.3,0.3
		h1.3v1.3c0,0.2,0.1,0.3,0.3,0.3S274.8,172.6,274.8,172.4z"/>
	<g>
		<path fill="#009966" d="M266.4,184c-2.5,0-4.8-1.6-6.1-4.2c-0.4,0-0.9-0.3-1.2-0.9c-0.5-0.9-0.8-2.4-0.4-3.1
			c0.2-0.3,0.4-0.4,0.7-0.4c0,0,0,0,0,0c0.1-2,0.8-3.9,2-5.3c1.3-1.5,3-2.4,4.9-2.4c1.8,0,3.6,0.8,4.9,2.4c1.2,1.4,1.9,3.3,2,5.3
			c0,0,0,0,0,0c0.2,0,0.9,0.1,0.9,1.4c0,1.3-0.7,3-1.7,3.1C271.2,182.4,268.9,184,266.4,184z M260.5,179.2c0.1,0,0.2,0.1,0.3,0.2
			c1.1,2.5,3.2,4,5.6,4c2.3,0,4.5-1.5,5.6-4c0.1-0.1,0.2-0.2,0.3-0.2c0,0,0,0,0.1,0l0,0c0.6,0,1.2-1.4,1.2-2.5
			c0-0.5-0.1-0.8-0.3-0.8c0,0-0.1,0-0.2,0c-0.1,0-0.2,0-0.3,0c-0.1-0.1-0.1-0.1-0.1-0.2c0-4.1-2.9-7.5-6.3-7.5
			c-3.4,0-6.3,3.3-6.3,7.5c0,0.1-0.1,0.2-0.1,0.2c-0.1,0.1-0.2,0.1-0.3,0c-0.1,0-0.1,0-0.2,0c0,0-0.1,0-0.1,0.1
			c-0.3,0.4-0.1,1.7,0.4,2.5c0.1,0.2,0.4,0.6,0.7,0.6C260.4,179.2,260.4,179.2,260.5,179.2C260.5,179.2,260.5,179.2,260.5,179.2z"/>
	</g>
	<g>
		<path fill="#009966" d="M272.9,175.7c-1.8-0.4-3.6-2.6-4.6-4.4c-0.9,0.8-1.8,1.6-2.8,2.2c-2.5,1.7-5.7,2.2-5.7,2.2
			s0.2-2.5,1.8-4.6c0.7-0.9,1.6-1.8,2.7-2.3c1.6-0.8,3.8-0.6,5.3,0.4c0.4,0.3,0.8,0.6,1.1,1c0.6,0.8,1.1,1.8,1.4,2.7
			c0.3,0.8,0.5,1.6,0.7,2.4C272.9,175.4,272.9,175.5,272.9,175.7z"/>
		<path fill="#009966" d="M272.9,176c-1.7-0.4-3.6-2.5-4.7-4.3c-0.7,0.7-1.6,1.3-2.6,2c-2.5,1.7-5.7,2.3-5.8,2.3
			c-0.1,0-0.3-0.2-0.2-0.3c0-0.1,0,0.1,0,0c0-0.1,0.2-2.5,1.8-4.8c0.8-1,1.8-1.9,2.8-2.4c0.7-0.3,1.5-0.5,2.4-0.5
			c1.1,0,2.2,0.3,3.1,0.9c0.4,0.2,0.8,0.6,1.2,1.1c0.6,0.8,1.1,1.8,1.5,2.8c0.3,0.7,0.5,1.5,0.7,2.5c0,0.2,0.1,0.3,0.1,0.5
			c0,0,0,0,0,0.1C273.2,175.8,273.1,176,272.9,176"/>
	</g>
</g>
<path fill="#009966" d="M194.4-25.2c-0.3,0-0.5,0-0.8-0.1c-0.2,0-0.3-0.2-0.2-0.4c0-0.2,0.2-0.3,0.4-0.2c1.3,0.3,2.6-0.3,3.2-1.5
	c0.3-0.7,0.4-1.5,0.2-2.2c-0.2-0.7-0.8-1.3-1.5-1.7c-0.7-0.3-1.5-0.4-2.2-0.2c-0.7,0.2-1.3,0.8-1.7,1.5c-0.1,0.1-0.3,0.2-0.4,0.1
	c-0.1-0.1-0.2-0.3-0.1-0.4c0.4-0.8,1.1-1.5,2-1.8c0.9-0.3,1.8-0.2,2.7,0.2c0.8,0.4,1.5,1.1,1.8,2c0.3,0.9,0.2,1.8-0.2,2.7
	C197-25.9,195.7-25.2,194.4-25.2z"/>
<g>
	<path fill="#009966" d="M186.2-15.5c-2.6,0-4.9-1.6-6.1-4.2c-0.5,0-0.9-0.3-1.2-0.9c-0.5-0.9-0.8-2.4-0.4-3.2
		c0.2-0.3,0.4-0.4,0.7-0.4c0,0,0,0,0,0c0.1-2,0.8-3.9,2.1-5.4c1.3-1.5,3.1-2.4,4.9-2.4c1.9,0,3.6,0.9,4.9,2.4c1.2,1.4,2,3.3,2.1,5.4
		c0,0,0,0,0,0c0.2,0,0.9,0.1,0.9,1.4c0,1.3-0.7,3-1.8,3.1C191.1-17.1,188.8-15.5,186.2-15.5z M180.3-20.3c0.1,0,0.2,0.1,0.3,0.2
		c1.1,2.5,3.3,4.1,5.7,4.1c2.4,0,4.5-1.6,5.7-4.1c0.1-0.1,0.2-0.2,0.3-0.2c0,0,0,0,0.1,0l0,0c0.6,0,1.2-1.4,1.2-2.5
		c0-0.5-0.1-0.8-0.3-0.8c0,0-0.1,0-0.2,0c-0.1,0-0.2,0-0.3,0c-0.1-0.1-0.1-0.1-0.1-0.3c0-4.2-2.9-7.5-6.4-7.5
		c-3.5,0-6.3,3.4-6.4,7.5c0,0.1-0.1,0.2-0.1,0.3c-0.1,0.1-0.2,0.1-0.3,0c-0.1,0-0.1,0-0.2,0c0,0-0.1,0-0.2,0.1
		c-0.3,0.4-0.1,1.7,0.4,2.6c0.1,0.2,0.4,0.6,0.7,0.6C180.2-20.3,180.2-20.3,180.3-20.3C180.2-20.3,180.3-20.3,180.3-20.3z"/>
</g>
<g>
	<path fill="#009966" d="M192.9-23.8c-1.8-0.4-3.7-2.6-4.7-4.5c-0.9,0.8-1.9,1.6-2.9,2.3c-2.5,1.7-5.7,2.2-5.7,2.2s0.2-2.5,1.8-4.7
		c0.7-0.9,1.7-1.8,2.7-2.4c1.6-0.8,3.8-0.6,5.3,0.4c0.4,0.3,0.9,0.6,1.2,1c0.6,0.8,1.1,1.8,1.4,2.7c0.3,0.8,0.5,1.6,0.7,2.5
		C192.8-24.1,192.8-24,192.9-23.8z"/>
	<path fill="#009966" d="M192.9-23.5c-1.8-0.4-3.7-2.5-4.7-4.4c-0.8,0.7-1.6,1.4-2.7,2.1c-2.5,1.7-5.8,2.3-5.9,2.3
		c-0.1,0-0.3-0.2-0.3-0.3c0-0.1,0,0.1,0,0c0-0.1,0.2-2.6,1.9-4.8c0.8-1.1,1.8-1.9,2.8-2.4c0.7-0.3,1.6-0.5,2.4-0.5
		c1.2,0,2.3,0.3,3.1,0.9c0.4,0.2,0.9,0.6,1.2,1.1c0.7,0.8,1.1,1.8,1.5,2.8c0.3,0.7,0.5,1.5,0.8,2.5c0,0.2,0.1,0.3,0.1,0.5
		c0,0,0,0.1,0,0.1C193.1-23.7,193-23.5,192.9-23.5"/>
</g>
<path fill="#009966" d="M435,176.1c-0.2,0-0.5,0-0.7-0.1c-0.2,0-0.2-0.2-0.2-0.3c0-0.2,0.2-0.2,0.3-0.2c1.2,0.3,2.4-0.3,3-1.4
	c0.3-0.6,0.4-1.4,0.1-2.1c-0.2-0.7-0.7-1.2-1.3-1.6c-0.6-0.3-1.4-0.4-2.1-0.1c-0.7,0.2-1.2,0.7-1.6,1.3c-0.1,0.1-0.2,0.2-0.4,0.1
	c-0.1-0.1-0.2-0.2-0.1-0.4c0.4-0.8,1.1-1.4,1.9-1.6c0.8-0.3,1.7-0.2,2.5,0.2c0.8,0.4,1.4,1.1,1.6,1.9c0.3,0.8,0.2,1.7-0.2,2.5
	C437.3,175.4,436.2,176.1,435,176.1z"/>
<g>
	<g>
		<path fill="#009966" d="M427.4,185.1c-2.4,0-4.5-1.5-5.6-3.9c-0.4,0-0.8-0.3-1.1-0.8c-0.5-0.8-0.7-2.3-0.3-2.9
			c0.1-0.2,0.4-0.4,0.6-0.4c0,0,0,0,0,0c0.1-1.9,0.8-3.6,1.9-5c1.2-1.4,2.8-2.2,4.6-2.2c1.7,0,3.3,0.8,4.6,2.2
			c1.1,1.3,1.8,3.1,1.9,5c0,0,0,0,0,0c0.2,0,0.8,0.1,0.8,1.3c0,1.2-0.6,2.8-1.6,2.9C431.9,183.6,429.8,185.1,427.4,185.1z
			 M421.9,180.6c0.1,0,0.2,0.1,0.3,0.2c1,2.3,3,3.8,5.2,3.8c2.2,0,4.2-1.4,5.2-3.8c0.1-0.1,0.2-0.2,0.3-0.2c0,0,0,0,0.1,0l0,0
			c0.6,0,1.1-1.3,1.1-2.3c0-0.4-0.1-0.7-0.3-0.7c0,0-0.1,0-0.2,0c-0.1,0-0.2,0-0.3,0s-0.1-0.1-0.1-0.2c0-3.8-2.7-7-5.9-7
			c-3.2,0-5.9,3.1-5.9,7c0,0.1,0,0.2-0.1,0.2s-0.2,0.1-0.3,0c-0.1,0-0.1,0-0.2,0c0,0-0.1,0-0.1,0.1c-0.2,0.4-0.1,1.6,0.3,2.4
			c0.1,0.2,0.4,0.6,0.7,0.6C421.8,180.6,421.9,180.6,421.9,180.6C421.9,180.6,421.9,180.6,421.9,180.6z"/>
	</g>
</g>
<g>
	<g>
		<path fill="#009966" d="M433.5,177.4c-1.7-0.3-3.4-2.4-4.3-4.1c-0.8,0.8-1.7,1.4-2.6,2.1c-2.3,1.6-5.3,2-5.3,2s0.2-2.3,1.7-4.3
			c0.6-0.9,1.5-1.7,2.5-2.2c1.5-0.7,3.5-0.6,4.9,0.3c0.4,0.2,0.8,0.6,1.1,0.9c0.6,0.7,1,1.7,1.3,2.5c0.3,0.7,0.5,1.5,0.7,2.3
			C433.5,177.1,433.5,177.2,433.5,177.4z"/>
		<path fill="#009966" d="M433.5,177.6c-1.6-0.3-2.8-1.4-3.8-3.2c-0.7,2.1-4.8,2.9-5.7,2.4c-2.3,1.6-2.7,0.7-2.8,0.7
			c-0.1,0-0.2-0.2-0.2-0.3c0-0.1,0,0.1,0,0c0-0.1,0.2-2.4,1.7-4.4c0.7-1,1.6-1.8,2.6-2.2c0.7-0.3,1.4-0.5,2.2-0.5
			c1.1,0,2.1,0.3,2.9,0.8c0.3,0.2,0.8,0.6,1.1,1c0.6,0.8,1,1.7,1.4,2.6c0.3,0.7,0.5,1.4,0.7,2.3c0,0.2,0.1,0.3,0.1,0.4
			c0,0,0,0,0,0.1C433.8,177.5,433.7,177.6,433.5,177.6"/>
	</g>
</g>
<g>
	<g>
		<path fill="#009966" d="M422.1,177.4c-1.3,0-2.4-0.8-3-2.1c-0.2,0-0.4-0.2-0.6-0.4c-0.3-0.4-0.4-1.2-0.2-1.6
			c0.1-0.1,0.2-0.2,0.3-0.2c0,0,0,0,0,0c0-1,0.4-1.9,1-2.6c0.6-0.8,1.5-1.2,2.4-1.2c0.9,0,1.8,0.4,2.4,1.2c0.6,0.7,1,1.6,1,2.6
			c0,0,0,0,0,0c0.1,0,0.4,0,0.4,0.7c0,0.6-0.3,1.5-0.9,1.5C424.5,176.7,423.4,177.4,422.1,177.4z M419.2,175.1c0.1,0,0.1,0,0.1,0.1
			c0.5,1.2,1.6,2,2.8,2c1.2,0,2.2-0.8,2.8-2c0-0.1,0.1-0.1,0.2-0.1c0,0,0,0,0,0l0,0c0.3,0,0.6-0.7,0.6-1.2c0-0.2-0.1-0.4-0.1-0.4
			c0,0-0.1,0-0.1,0c0,0-0.1,0-0.1,0c0,0-0.1-0.1-0.1-0.1c0-2-1.4-3.7-3.1-3.7c-1.7,0-3.1,1.7-3.1,3.7c0,0,0,0.1-0.1,0.1
			c0,0-0.1,0-0.1,0c0,0-0.1,0-0.1,0c0,0,0,0-0.1,0.1c-0.1,0.2-0.1,0.8,0.2,1.3C418.8,174.9,419,175.1,419.2,175.1
			C419.1,175.1,419.2,175.1,419.2,175.1C419.2,175.1,419.2,175.1,419.2,175.1z"/>
	</g>
	<g>
		<path fill="#009966" d="M425.4,173.3c-0.9-0.2-1.8-1.3-2.3-2.2c-0.4,0.4-0.9,0.8-1.4,1.1c-1.2,0.8-2.8,1.1-2.8,1.1
			s0.1-1.2,0.9-2.3c0.3-0.5,0.8-0.9,1.3-1.2c0.8-0.4,1.9-0.3,2.6,0.2c0.2,0.1,0.4,0.3,0.6,0.5c0.3,0.4,0.5,0.9,0.7,1.3
			c0.2,0.4,0.3,0.8,0.4,1.2C425.3,173.2,425.4,173.3,425.4,173.3z"/>
		<path fill="#009966" d="M425.4,173.5c-0.9-0.2-1.5-0.8-2-1.7c-0.4,1.1-2.5,1.5-3,1.3c-1.2,0.8-1.4,0.4-1.5,0.4
			c0,0-0.1-0.1-0.1-0.2c0,0,0,0,0,0c0-0.1,0.1-1.3,0.9-2.4c0.4-0.5,0.9-1,1.4-1.2c0.4-0.2,0.8-0.3,1.2-0.3c0.6,0,1.1,0.2,1.5,0.4
			c0.2,0.1,0.4,0.3,0.6,0.5c0.3,0.4,0.5,0.9,0.7,1.4c0.1,0.4,0.3,0.7,0.4,1.2c0,0.1,0,0.2,0,0.2c0,0,0,0,0,0
			C425.5,173.4,425.4,173.5,425.4,173.5"/>
	</g>
</g>
<g>
	<g>
		<path fill="#009966" d="M425.4,173c-0.9,0-1.8-0.6-2.2-1.6c-0.2,0-0.3-0.1-0.4-0.3c-0.2-0.3-0.3-0.9-0.1-1.2
			c0.1-0.1,0.1-0.2,0.2-0.2c0,0,0,0,0,0c0-0.7,0.3-1.4,0.8-2c0.5-0.6,1.1-0.9,1.8-0.9c0.7,0,1.3,0.3,1.8,0.9c0.5,0.5,0.7,1.2,0.8,2
			c0,0,0,0,0,0c0.1,0,0.3,0,0.3,0.5c0,0.5-0.2,1.1-0.6,1.1C427.2,172.4,426.3,173,425.4,173z M423.2,171.2c0,0,0.1,0,0.1,0.1
			c0.4,0.9,1.2,1.5,2.1,1.5c0.9,0,1.7-0.6,2.1-1.5c0,0,0.1-0.1,0.1-0.1c0,0,0,0,0,0l0,0c0.2,0,0.4-0.5,0.4-0.9c0-0.2,0-0.3-0.1-0.3
			c0,0,0,0-0.1,0c0,0-0.1,0-0.1,0s-0.1-0.1-0.1-0.1c0-1.5-1.1-2.8-2.3-2.8c-1.3,0-2.3,1.2-2.3,2.8c0,0,0,0.1-0.1,0.1
			c0,0-0.1,0-0.1,0c0,0,0,0-0.1,0c0,0,0,0-0.1,0c-0.1,0.2-0.1,0.6,0.1,0.9C423,171,423.1,171.2,423.2,171.2
			C423.2,171.2,423.2,171.2,423.2,171.2C423.2,171.2,423.2,171.2,423.2,171.2z"/>
	</g>
	<g>
		<path fill="#009966" d="M427.8,169.9c-0.7-0.1-1.4-1-1.7-1.6c-0.3,0.3-0.7,0.6-1.1,0.8c-0.9,0.6-2.1,0.8-2.1,0.8s0.1-0.9,0.7-1.7
			c0.3-0.3,0.6-0.7,1-0.9c0.6-0.3,1.4-0.2,2,0.1c0.1,0.1,0.3,0.2,0.4,0.4c0.2,0.3,0.4,0.7,0.5,1c0.1,0.3,0.2,0.6,0.3,0.9
			C427.8,169.8,427.8,169.8,427.8,169.9z"/>
		<path fill="#009966" d="M427.8,170c-0.6-0.1-1.1-0.6-1.5-1.3c-0.3,0.8-1.9,1.1-2.3,1c-0.9,0.6-1.1,0.3-1.1,0.3
			c0,0-0.1-0.1-0.1-0.1c0,0,0,0,0,0c0,0,0.1-0.9,0.7-1.8c0.3-0.4,0.7-0.7,1-0.9c0.3-0.1,0.6-0.2,0.9-0.2c0.4,0,0.8,0.1,1.2,0.3
			c0.1,0.1,0.3,0.2,0.4,0.4c0.2,0.3,0.4,0.7,0.5,1c0.1,0.3,0.2,0.6,0.3,0.9c0,0.1,0,0.1,0,0.2c0,0,0,0,0,0
			C427.9,169.9,427.9,170,427.8,170"/>
	</g>
</g>
<g>
	<g>
		<path fill="#009966" d="M314.4,174.3c-0.3,0-0.5,0-0.8-0.1c-0.2,0-0.3-0.2-0.2-0.4c0-0.2,0.2-0.3,0.4-0.2c1.3,0.3,2.6-0.3,3.2-1.5
			c0.3-0.7,0.4-1.5,0.2-2.2c-0.2-0.7-0.8-1.3-1.4-1.7c-0.7-0.3-1.5-0.4-2.2-0.2c-0.7,0.2-1.3,0.8-1.7,1.4c-0.1,0.1-0.3,0.2-0.4,0.1
			c-0.1-0.1-0.2-0.3-0.1-0.4c0.4-0.8,1.1-1.4,2-1.7c0.9-0.3,1.8-0.2,2.7,0.2c0.8,0.4,1.4,1.1,1.7,2c0.3,0.9,0.2,1.8-0.2,2.7
			C316.9,173.6,315.6,174.3,314.4,174.3z"/>
		<g>
			<path fill="#009966" d="M306.2,184c-2.5,0-4.8-1.6-6.1-4.2c-0.4,0-0.9-0.3-1.2-0.9c-0.5-0.9-0.8-2.4-0.4-3.1
				c0.2-0.3,0.4-0.4,0.7-0.4c0,0,0,0,0,0c0.1-2,0.8-3.9,2-5.3c1.3-1.5,3-2.4,4.9-2.4c1.8,0,3.6,0.8,4.9,2.4c1.2,1.4,1.9,3.3,2,5.3
				c0,0,0,0,0,0c0.2,0,0.9,0.1,0.9,1.4c0,1.3-0.7,3-1.7,3.1C311,182.4,308.7,184,306.2,184z M300.4,179.2c0.1,0,0.2,0.1,0.3,0.2
				c1.1,2.5,3.2,4,5.6,4c2.3,0,4.5-1.5,5.6-4c0.1-0.1,0.2-0.2,0.3-0.2c0,0,0,0,0.1,0l0,0c0.6,0,1.2-1.4,1.2-2.5
				c0-0.5-0.1-0.8-0.3-0.8c0,0-0.1,0-0.2,0c-0.1,0-0.2,0-0.3,0c-0.1-0.1-0.1-0.1-0.1-0.2c0-4.1-2.9-7.5-6.3-7.5
				c-3.4,0-6.3,3.3-6.3,7.5c0,0.1-0.1,0.2-0.1,0.2c-0.1,0.1-0.2,0.1-0.3,0c-0.1,0-0.1,0-0.2,0c0,0-0.1,0-0.1,0.1
				c-0.3,0.4-0.1,1.7,0.4,2.5c0.1,0.2,0.4,0.6,0.7,0.6C300.3,179.2,300.3,179.2,300.4,179.2C300.3,179.2,300.3,179.2,300.4,179.2z"
				/>
		</g>
		<g>
			<path fill="#009966" d="M312.8,175.7c-1.8-0.4-3.6-2.6-4.6-4.4c-0.9,0.8-1.8,1.6-2.8,2.2c-2.5,1.7-5.7,2.2-5.7,2.2
				s0.2-2.5,1.8-4.6c0.7-0.9,1.6-1.8,2.7-2.3c1.6-0.8,3.8-0.6,5.3,0.4c0.4,0.3,0.8,0.6,1.1,1c0.6,0.8,1.1,1.8,1.4,2.7
				c0.3,0.8,0.5,1.6,0.7,2.4C312.7,175.4,312.8,175.5,312.8,175.7z"/>
			<path fill="#009966" d="M312.8,176c-1.7-0.4-3.6-2.5-4.7-4.3c-0.7,0.7-1.6,1.3-2.6,2c-2.5,1.7-5.7,2.3-5.8,2.3
				c-0.1,0-0.3-0.2-0.2-0.3c0-0.1,0,0.1,0,0c0-0.1,0.2-2.5,1.8-4.8c0.8-1,1.8-1.9,2.8-2.4c0.7-0.3,1.5-0.5,2.4-0.5
				c1.1,0,2.2,0.3,3.1,0.9c0.4,0.2,0.8,0.6,1.2,1.1c0.6,0.8,1.1,1.8,1.5,2.8c0.3,0.7,0.5,1.5,0.7,2.5c0,0.2,0.1,0.3,0.1,0.5
				c0,0,0,0,0,0.1C313,175.8,312.9,176,312.8,176"/>
		</g>
	</g>
</g>
<path fill="#009966" stroke="#009966" stroke-width="0.5" stroke-miterlimit="10" d="M314.6,170.8l1.2-1.2c0,0,0-0.1,0-0.1
	c0,0-0.1,0-0.1,0L314.6,170.8l-1.3-1.3c0,0-0.1,0-0.1,0c0,0,0,0.1,0,0.1l1.2,1.2l-1.2,1.2c0,0,0,0.1,0,0.1c0,0,0,0,0,0s0,0,0,0
	L314.6,170.8l1.1,1.3c0,0,0,0,0,0s0,0,0,0c0,0,0-0.1,0-0.1L314.6,170.8z"/>
<g>
	<g>
		<path fill="#009966" stroke="#009966" stroke-width="0.15" stroke-miterlimit="10" d="M356.4,168.4l-1.4-1.4
			c-0.4-0.4-1.1-0.4-1.5,0l-7.8,7.7l-1.6,4.5l4.5-1.6l7.8-7.7C356.8,169.5,356.8,168.9,356.4,168.4z M345.6,177.1l0.7-1.8l1.8,1.8
			l-1.8,0.6L345.6,177.1z M347,175.5l6.1-6.1l0.4,0.4l-6.1,6.1L347,175.5z M346.8,175.3l-0.3-0.4l6.1-6.1l0.3,0.4L346.8,175.3z
			 M347.5,176l6.1-6.1l0.4,0.4l-6.1,6.1L347.5,176z M352.9,168.6l0.2-0.2l2,2l-0.2,0.2L352.9,168.6z M348.4,177l-0.3-0.4l6.1-6.1
			l0.3,0.4L348.4,177z M356,169.5l-0.6,0.6l-2-2l0.6-0.6c0.2-0.2,0.4-0.2,0.6,0l1.4,1.4C356.2,169,356.2,169.3,356,169.5z"/>
	</g>
</g>
<circle fill="#009966" cx="388.1" cy="175.7" r="9.1"/>
<path fill="#FFFFFF" stroke="#FFFFFF" stroke-miterlimit="10" d="M388.8,175.7l3.9-3.9c0.1-0.1,0.1-0.2,0-0.3
	c-0.1-0.1-0.2-0.1-0.3,0l-3.9,3.9l-3.9-3.9c-0.1-0.1-0.2-0.1-0.3,0c-0.1,0.1-0.1,0.2,0,0.3l3.9,3.9l-3.9,3.9c-0.1,0.1-0.1,0.2,0,0.3
	c0,0,0.1,0.1,0.2,0.1c0.1,0,0.1,0,0.2-0.1l3.9-3.9l3.9,3.9c0,0,0.1,0.1,0.2,0.1c0.1,0,0.1,0,0.2-0.1c0.1-0.1,0.1-0.2,0-0.3
	L388.8,175.7z"/>
<g>
	<polygon fill="#009966" points="433.2,172.2 434.6,171.4 434.6,171.2 432.7,172.2 434.6,173.2 434.6,173.1 	"/>
	<path fill="#009966" d="M435.3,171.9l0-0.6l-1.7,1l1.7,1l0-0.6c1.8,0,2,1.3,2,1.3C437.3,172.3,435.8,171.9,435.3,171.9z"/>
</g>
<path fill="#009966" stroke="#009966" stroke-width="0.95" stroke-miterlimit="10" d="M428.4,130.5c-1.7,0-3.3,0.7-4.3,2v-1.6
	c0-0.1-0.1-0.2-0.2-0.2s-0.2,0.1-0.2,0.2v2.1c0,0,0,0,0,0c0,0,0,0,0,0c0,0,0,0,0,0c0,0,0,0,0,0c0,0,0,0,0,0c0,0,0,0,0,0c0,0,0,0,0,0
	c0,0,0,0,0,0c0,0,0,0,0,0c0,0,0,0,0,0h2.1c0.1,0,0.2-0.1,0.2-0.2s-0.1-0.2-0.2-0.2h-1.7c1-1.2,2.5-2,4.1-2c2.9,0,5.3,2.4,5.3,5.3
	c0,2.9-2.4,5.3-5.3,5.3c-1.1,0-2.2-0.3-3.1-1c-0.1-0.1-0.2,0-0.3,0c-0.1,0.1,0,0.2,0,0.3c1,0.7,2.1,1,3.3,1c3.2,0,5.7-2.6,5.7-5.7
	C434.1,133.1,431.6,130.5,428.4,130.5z"/>
<path fill="#009966" d="M434.2-25.3c-0.3,0-0.5,0-0.8-0.1c-0.2,0-0.3-0.2-0.2-0.4c0-0.2,0.2-0.3,0.4-0.2c1.3,0.3,2.6-0.3,3.2-1.5
	c0.3-0.7,0.4-1.5,0.2-2.2c-0.2-0.7-0.8-1.3-1.4-1.7c-0.7-0.3-1.5-0.4-2.2-0.2c-0.7,0.2-1.3,0.8-1.7,1.4c-0.1,0.1-0.3,0.2-0.4,0.1
	c-0.1-0.1-0.2-0.3-0.1-0.4c0.4-0.8,1.1-1.4,2-1.7c0.9-0.3,1.8-0.2,2.7,0.2c0.8,0.4,1.4,1.1,1.7,2c0.3,0.9,0.2,1.8-0.2,2.7
	C436.7-26,435.5-25.3,434.2-25.3z"/>
<g>
	<path fill="#009966" d="M426.1-15.7c-2.5,0-4.8-1.6-6.1-4.2c-0.4,0-0.9-0.3-1.2-0.9c-0.5-0.9-0.8-2.4-0.4-3.1
		c0.2-0.3,0.4-0.4,0.7-0.4c0,0,0,0,0,0c0.1-2,0.8-3.9,2-5.3c1.3-1.5,3-2.4,4.9-2.4c1.8,0,3.6,0.8,4.9,2.4c1.2,1.4,1.9,3.3,2,5.3
		c0,0,0,0,0,0c0.2,0,0.9,0.1,0.9,1.4c0,1.3-0.7,3-1.7,3.1C430.9-17.3,428.6-15.7,426.1-15.7z M420.2-20.5c0.1,0,0.2,0.1,0.3,0.2
		c1.1,2.5,3.2,4,5.6,4c2.3,0,4.5-1.5,5.6-4c0.1-0.1,0.2-0.2,0.3-0.2c0,0,0,0,0.1,0l0,0c0.6,0,1.2-1.4,1.2-2.5c0-0.5-0.1-0.8-0.3-0.8
		c0,0-0.1,0-0.2,0c-0.1,0-0.2,0-0.3,0c-0.1-0.1-0.1-0.1-0.1-0.2c0-4.1-2.9-7.5-6.3-7.5c-3.4,0-6.3,3.3-6.3,7.5
		c0,0.1-0.1,0.2-0.1,0.2c-0.1,0.1-0.2,0.1-0.3,0c-0.1,0-0.1,0-0.2,0c0,0-0.1,0-0.1,0.1c-0.3,0.4-0.1,1.7,0.4,2.5
		c0.1,0.2,0.4,0.6,0.7,0.6C420.1-20.4,420.2-20.4,420.2-20.5C420.2-20.5,420.2-20.5,420.2-20.5z"/>
</g>
<g>
	<path fill="#009966" d="M432.7-23.9c-1.8-0.4-3.6-2.6-4.6-4.4c-0.9,0.8-1.8,1.6-2.8,2.2c-2.5,1.7-5.7,2.2-5.7,2.2s0.2-2.5,1.8-4.6
		c0.7-0.9,1.6-1.8,2.7-2.3c1.6-0.8,3.8-0.6,5.3,0.4c0.4,0.3,0.8,0.6,1.1,1c0.6,0.8,1.1,1.8,1.4,2.7c0.3,0.8,0.5,1.6,0.7,2.4
		C432.6-24.2,432.6-24.1,432.7-23.9z"/>
	<path fill="#009966" d="M432.7-23.6c-1.7-0.4-3.6-2.5-4.7-4.3c-0.7,0.7-1.6,1.3-2.6,2c-2.5,1.7-5.7,2.3-5.8,2.3
		c-0.1,0-0.3-0.2-0.2-0.3c0-0.1,0,0.1,0,0c0-0.1,0.2-2.5,1.8-4.8c0.8-1,1.8-1.9,2.8-2.4c0.7-0.3,1.5-0.5,2.4-0.5
		c1.1,0,2.2,0.3,3.1,0.9c0.4,0.2,0.8,0.6,1.2,1.1c0.6,0.8,1.1,1.8,1.5,2.8c0.3,0.7,0.5,1.5,0.7,2.5c0,0.2,0.1,0.3,0.1,0.5
		c0,0,0,0,0,0.1C432.9-23.8,432.8-23.6,432.7-23.6"/>
</g>
<rect x="434.2" y="-30.7" transform="matrix(0.5406 0.8413 -0.8413 0.5406 175.2915 -378.5458)" fill="none" stroke="#009966" stroke-width="0.5" stroke-miterlimit="10" width="0.2" height="3.9"/>
<path fill="none" stroke="#009966" stroke-width="0.5" stroke-miterlimit="10" d="M434.2-30.8c-1.1,0-2,0.9-2,2l0,0c0,1.1,0.9,2,2,2
	s2-0.9,2-2l0,0C436.3-29.9,435.4-30.8,434.2-30.8L434.2-30.8L434.2-30.8z"/>
<path fill="#009966" d="M348.3-31.4c-0.1,0-0.1,0-0.2,0.1l-7.2,11.5c-0.1,0.2,0,0.3,0.2,0.3h14.4c0.2,0,0.3-0.1,0.2-0.3l-7.2-11.5
	C348.5-31.4,348.4-31.4,348.3-31.4L348.3-31.4z"/>
<path fill="#009966" stroke="#009966" stroke-width="0.5" stroke-miterlimit="10" d="M299.2-31.7v14.4c0,0.9,0.6,1.6,1.4,1.6h15.5
	c0.8,0,1.4-0.7,1.4-1.6v-14.4c0-0.9-0.6-1.6-1.4-1.6h-15.5C299.8-33.2,299.2-32.5,299.2-31.7z M299.9-31.7c0-0.4,0.3-0.7,0.6-0.7
	h15.5c0.3,0,0.6,0.3,0.6,0.7v14.4c0,0.4-0.3,0.7-0.6,0.7h-15.5c-0.3,0-0.6-0.3-0.6-0.7V-31.7z"/>
<path fill="#009966" stroke="#009966" stroke-miterlimit="10" d="M308.2-28.4c-0.1-0.1-0.2-0.1-0.3,0c-0.1,0.1-0.1,0.2,0,0.3
	l3.9,3.9l-3.9,3.9c-0.1,0.1-0.1,0.2,0,0.3c0.1,0.1,0.2,0.1,0.3,0l4-4c0,0,0.1-0.1,0.1-0.2s0-0.1-0.1-0.2L308.2-28.4z"/>
<path fill="#009966" stroke="#009966" stroke-miterlimit="10" d="M305.2-28.2c-0.1-0.1-0.2-0.1-0.3,0c-0.1,0.1-0.1,0.2,0,0.3
	l3.9,3.9l-3.9,3.9c-0.1,0.1-0.1,0.2,0,0.3c0.1,0.1,0.2,0.1,0.3,0l4-4c0,0,0.1-0.1,0.1-0.2s0-0.1-0.1-0.2L305.2-28.2z"/>
<path fill="#009966" stroke="#009966" stroke-width="0.5" stroke-miterlimit="10" d="M259.1-31.7v14.4c0,0.9,0.6,1.6,1.4,1.6h15.5
	c0.8,0,1.4-0.7,1.4-1.6v-14.4c0-0.9-0.6-1.6-1.4-1.6h-15.5C259.7-33.2,259.1-32.5,259.1-31.7z M259.8-31.7c0-0.4,0.3-0.7,0.6-0.7
	h15.5c0.3,0,0.6,0.3,0.6,0.7v14.4c0,0.4-0.3,0.7-0.6,0.7h-15.5c-0.3,0-0.6-0.3-0.6-0.7V-31.7z"/>
<g>
	<path fill="#009966" stroke="#009966" stroke-miterlimit="10" d="M268.8-28.4c0.1-0.1,0.2-0.1,0.3,0s0.1,0.2,0,0.3l-3.9,3.9
		l3.9,3.9c0.1,0.1,0.1,0.2,0,0.3c-0.1,0.1-0.2,0.1-0.3,0l-4-4c0,0-0.1-0.1-0.1-0.2s0-0.1,0.1-0.2L268.8-28.4z"/>
	<path fill="#009966" stroke="#009966" stroke-miterlimit="10" d="M271.8-28.2c0.1-0.1,0.2-0.1,0.3,0s0.1,0.2,0,0.3l-3.9,3.9
		l3.9,3.9c0.1,0.1,0.1,0.2,0,0.3c-0.1,0.1-0.2,0.1-0.3,0l-4-4c0,0-0.1-0.1-0.1-0.2s0-0.1,0.1-0.2L271.8-28.2z"/>
</g>
<path fill="#009966" d="M393-24.8l-2.8,0.9l1.8,2.4c0.5,0.6,0.3,1.5-0.3,1.9c-0.3,0.2-0.5,0.3-0.8,0.3c-0.4,0-0.9-0.2-1.1-0.6
	l-1.8-2.4l-1.8,2.4c-0.3,0.4-0.7,0.6-1.1,0.6c-0.3,0-0.6-0.1-0.8-0.3c-0.6-0.5-0.8-1.3-0.3-1.9l1.8-2.4l-2.9-0.9
	c-0.7-0.2-1.1-1-0.9-1.8c0.2-0.7,1-1.1,1.8-0.9l2.9,0.9v-3c0-0.8,0.6-1.4,1.4-1.4c0.8,0,1.4,0.6,1.4,1.4v3l2.9-0.9
	c0.7-0.2,1.5,0.2,1.8,0.9C394.2-25.8,393.8-25,393-24.8z"/>
<path fill="#009966" stroke="#009966" stroke-width="0.5" stroke-miterlimit="10" d="M234.2-25.5c1.5-1.6,1.5-4.1-0.1-5.7
	c-0.8-0.8-1.8-1.2-2.9-1.2c-1.1,0-2.1,0.4-2.9,1.2l-3.4,3.4c-0.2,0.2-0.2,0.5,0,0.7c0.1,0.1,0.2,0.1,0.3,0.1s0.2,0,0.3-0.1l3.4-3.4
	c1.2-1.2,3.2-1.2,4.3,0c1.2,1.2,1.2,3.2,0,4.3l-8.5,8.5c-0.8,0.8-2.1,0.8-2.9,0c-0.8-0.8-0.8-2.1,0-2.9l6.9-6.9l0,0
	c0.4-0.4,1-0.4,1.4,0c0.2,0.2,0.3,0.4,0.3,0.7c0,0.3-0.1,0.5-0.3,0.7l-6,6c-0.2,0.2-0.2,0.5,0,0.7c0.1,0.1,0.2,0.1,0.3,0.1
	s0.2,0,0.3-0.1l6-6c0.4-0.4,0.6-0.9,0.6-1.4c0-0.5-0.2-1-0.6-1.4c-0.7-0.7-1.9-0.8-2.7-0.1c0,0,0,0,0,0l-7,7c-1.2,1.2-1.2,3.1,0,4.2
	c0.6,0.6,1.4,0.9,2.1,0.9c0.8,0,1.5-0.3,2.1-0.9L234.2-25.5L234.2-25.5L234.2-25.5L234.2-25.5C234.1-25.5,234.2-25.5,234.2-25.5z"/>
<title>interface_004-information-detail-window-application</title>
<desc>Created with Sketch.</desc>
<path fill="#009966" stroke="#009966" stroke-width="0.5" stroke-miterlimit="10" d="M118-14.7L118-14.7l0-13.6
	c-0.3,0.2-0.5,0.5-0.8,0.7l0,12.1H99.1v-13.4h11.1c0.3-0.4,0.7-0.8,1-1.2c0.3-0.4,0.8-0.2,0.9,0.2c0.1,0,0.1,0.1,0.2,0.1
	c0,0,0,0,0,0c1.4,0,2.7,0,4.1,0c0,0,0-0.1,0.1-0.1c-0.1-0.1-0.1-0.3,0-0.5c0.1-0.3,0.3-0.5,0.4-0.8c-0.3,0-0.6-0.1-0.6-0.5
	c0-0.1-0.1-0.4,0-0.5c0,0-0.1,0.4-0.1,0.4c-0.1,0-0.2-0.2-0.3-0.2c-0.1,0-0.1-0.1-0.3,0c-0.2,0.1-0.4,0.3-0.5,0.4c0,0,0,0,0,0
	c0,0-0.1,0.1-0.1,0.1c-0.2,0.1-0.4,0.1-0.5,0c-0.1,0.1-0.2,0.2-0.3,0.4c-0.5,0.5-1.2-0.2-0.7-0.7c0.3-0.3,0.6-0.7,0.9-1H98.3v18.1
	h19.2l0,0C117.7-14.7,117.8-14.7,118-14.7L118-14.7L118-14.7z"/>
<rect x="99.1" y="-32" fill="#FFFFFF" width="18.1" height="2.4"/>
<rect x="99.9" y="-31.2" fill="#009966" stroke="#009966" stroke-width="0.5" stroke-miterlimit="10" width="0.8" height="0.8"/>
<rect x="101.5" y="-31.2" fill="#009966" stroke="#009966" stroke-width="0.5" stroke-miterlimit="10" width="0.8" height="0.8"/>
<rect x="103" y="-31.2" fill="#009966" stroke="#009966" stroke-width="0.5" stroke-miterlimit="10" width="0.8" height="0.8"/>
<path fill="#009966" stroke="#009966" stroke-width="0.5" stroke-miterlimit="10" d="M158-14.7L158-14.7l0-13.6
	c-0.3,0.2-0.5,0.5-0.8,0.7l0,12.1h-18.1v-13.4h11.1c0.3-0.4,0.7-0.8,1-1.2c0.3-0.4,0.8-0.2,0.9,0.2c0.1,0,0.1,0.1,0.2,0.1
	c0,0,0,0,0,0c1.4,0,2.7,0,4.1,0c0,0,0-0.1,0.1-0.1c-0.1-0.1-0.1-0.3,0-0.5c0.1-0.3,0.3-0.5,0.4-0.8c-0.3,0-0.6-0.1-0.6-0.5
	c0-0.1-0.1-0.4,0-0.5c0,0-0.1,0.4-0.1,0.4c-0.1,0-0.2-0.2-0.3-0.2c-0.1,0-0.1-0.1-0.3,0c-0.2,0.1-0.4,0.3-0.5,0.4c0,0,0,0,0,0
	c0,0-0.1,0.1-0.1,0.1c-0.2,0.1-0.4,0.1-0.5,0c-0.1,0.1-0.2,0.2-0.3,0.4c-0.5,0.5-1.2-0.2-0.7-0.7c0.3-0.3,0.6-0.7,0.9-1h-15.8v18.1
	h19.2l0,0C157.7-14.7,157.8-14.7,158-14.7L158-14.7L158-14.7z"/>
<rect x="139.1" y="-32" fill="#FFFFFF" width="18.1" height="2.4"/>
<rect x="141.5" y="-31.2" fill="#009966" stroke="#009966" stroke-width="0.5" stroke-miterlimit="10" width="0.8" height="0.8"/>
<rect x="139.8" y="-31.2" fill="#009966" stroke="#009966" stroke-width="0.5" stroke-miterlimit="10" width="0.8" height="0.8"/>
<rect x="143" y="-31.2" fill="#009966" stroke="#009966" stroke-width="0.5" stroke-miterlimit="10" width="0.8" height="0.8"/>
<g>
	<path fill="#009966" d="M196.2-30.6c0.2,0.2,0.2,0.5,0,0.7l-0.2,0.2l-0.7-0.7l0.2-0.2C195.8-30.8,196.1-30.8,196.2-30.6z"/>
	<polygon fill="#009966" points="192.9,-27.9 192.7,-27 193.6,-27.2 195.8,-29.5 195.1,-30.1 	"/>
</g>
<rect x="111.7" y="-30.4" fill="#FFFFFF" width="5" height="1.6"/>
<g>
	<path fill="#009966" stroke="#009966" stroke-width="0.15" stroke-miterlimit="10" d="M117.6-30.9l-1.4-1.3
		c-0.4-0.4-1.1-0.3-1.4,0.1l-7.2,8.1l-1.4,4.5l4.3-1.8l7.2-8.1C118.1-29.9,118.1-30.5,117.6-30.9z M107.4-21.7l0.5-1.8l1.9,1.7
		l-1.7,0.7L107.4-21.7z M108.7-23.4l5.7-6.4l0.4,0.4l-5.7,6.4L108.7-23.4z M108.5-23.6l-0.4-0.3l5.7-6.4l0.4,0.3L108.5-23.6z
		 M109.3-22.9l5.7-6.4l0.4,0.4l-5.7,6.4L109.3-22.9z M114.2-30.6l0.2-0.2l2.1,1.9l-0.2,0.2L114.2-30.6z M110.2-22l-0.4-0.3l5.7-6.4
		l0.4,0.3L110.2-22z M117.3-29.9l-0.6,0.6l-2.1-1.9l0.6-0.6c0.1-0.2,0.4-0.2,0.6,0l1.4,1.3C117.4-30.3,117.4-30,117.3-29.9z"/>
</g>
<path fill="#FFFFFF" d="M155.5-32.8c0,0-0.8,0.9-0.9,1c-0.1,0-2.5,1.2-2.5,1.2s-0.7-0.1-0.7,0.1c0,0.2,0.3,3.6,0.3,3.6l1.3,2.2
	c0,0,2.1-2.1,2.2-2.2c0.1-0.1,2.8-2.2,2.8-2.2l-1.7-2.6L155.5-32.8z"/>
<g>
	<path fill="#009966" stroke="#009966" stroke-width="0.15" stroke-miterlimit="10" d="M157.5-31.8c0.6,0.6,0.6,1.5,0,2.1l-0.7,0.7
		l-2.1-2.1l0.7-0.7C156-32.4,156.9-32.4,157.5-31.8z"/>
	<polygon fill="#009966" stroke="#009966" stroke-width="0.15" stroke-miterlimit="10" points="147.1,-23.5 146.4,-20.8 
		149.2,-21.4 156.1,-28.4 154,-30.5 	"/>
</g>
<path fill="#009966" stroke="#009966" stroke-width="0.75" stroke-miterlimit="10" d="M41,98.5h-1.6v-1.6c0-0.1-0.1-0.2-0.2-0.2
	c-0.1,0-0.2,0.1-0.2,0.2v1.6h-1.6c-0.1,0-0.2,0.1-0.2,0.2s0.1,0.2,0.2,0.2H39v1.6c0,0.1,0.1,0.2,0.2,0.2c0.1,0,0.2-0.1,0.2-0.2v-1.6
	H41c0.1,0,0.2-0.1,0.2-0.2S41.1,98.5,41,98.5z"/>
<path fill="#009966" stroke="#009966" stroke-width="0.75" stroke-miterlimit="10" d="M9.2,128.9c-2.6,0-4.6,2.1-4.6,4.6
	c0,2.6,2.1,4.6,4.6,4.6s4.6-2.1,4.6-4.6C13.8,131,11.7,128.9,9.2,128.9z M9.2,137.7c-2.3,0-4.2-1.9-4.2-4.2c0-2.3,1.9-4.2,4.2-4.2
	s4.2,1.9,4.2,4.2C13.4,135.9,11.5,137.7,9.2,137.7z"/>
<path fill="#009966" stroke="#009966" stroke-width="0.75" stroke-miterlimit="10" d="M10.8,133.3H9.3v-1.6c0-0.1-0.1-0.2-0.2-0.2
	s-0.2,0.1-0.2,0.2v1.6H7.3c-0.1,0-0.2,0.1-0.2,0.2s0.1,0.2,0.2,0.2h1.6v1.6c0,0.1,0.1,0.2,0.2,0.2s0.2-0.1,0.2-0.2v-1.6h1.6
	c0.1,0,0.2-0.1,0.2-0.2S10.9,133.3,10.8,133.3z"/>
<rect x="462.8" y="57.6" fill="#009966" width="6" height="8.1"/>
<polygon fill="#009966" points="466.7,55.7 460.7,55.7 460.7,63.8 462.1,63.8 462.1,57 466.7,57 "/>
<polygon fill="#009966" points="464.7,53.7 458.8,53.7 458.8,61.8 460.1,61.8 460.1,55 464.7,55 "/>
<g>
</g>
<g>
</g>
<g>
</g>
<g>
</g>
<g>
</g>
<g>
</g>
<g>
</g>
<g>
</g>
<g>
</g>
<g>
</g>
<g>
</g>
<g>
</g>
<g>
</g>
<g>
</g>
<g>
</g>
<g>
</g>
<g>
</g>
<g>
</g>
<g>
</g>
<g>
</g>
<g>
</g>
<g>
</g>
<g>
</g>
<g>
</g>
<g>
</g>
<g>
</g>
<g>
</g>
<g>
</g>
<g>
</g>
<g>
</g>
<g>
	<g>
		<path fill="#009966" d="M10.4,85.3c-5.2,0-9.3,4.2-9.3,9.3s4.2,9.3,9.3,9.3h9.3v-9.3C19.7,89.5,15.6,85.3,10.4,85.3z M10.4,102.3
			c-4.2,0-7.6-3.4-7.6-7.6S6.2,87,10.4,87s7.6,3.4,7.6,7.6S14.6,102.3,10.4,102.3z"/>
	</g>
	<path fill="#009966" d="M14.2,93.9h-3.1v-3.1c0-0.4-0.3-0.7-0.7-0.7c-0.4,0-0.7,0.3-0.7,0.7v3.1H6.6c-0.4,0-0.7,0.3-0.7,0.7
		s0.3,0.7,0.7,0.7h3.1v3.1c0,0.4,0.3,0.7,0.7,0.7c0.4,0,0.7-0.3,0.7-0.7v-3.1h3.1c0.4,0,0.7-0.3,0.7-0.7
		C14.9,94.2,14.6,93.9,14.2,93.9z"/>
</g>
<path fill="#009966" d="M17.6,128.2v-2.9h-2.9v-1.4h-1.6v1.4H5v-1.4H3.3v1.4H0.5V141h2.9v2.9h17.1v-15.7H17.6z M1.8,139.7v-13h1.5
	v1.5H5v-1.5h8.2v1.5h1.6v-1.5h1.5v13H1.8z M19.2,142.6H5V141h12.6v-11.5h1.6V142.6z"/>
<path fill="#009966" d="M17.1,159h-4.3c0-1.4-1.1-2.5-2.5-2.5c-1.4,0-2.5,1.1-2.5,2.5H3.5v3h13.6V159z M10.3,160.2
	c-0.7,0-1.2-0.6-1.2-1.2c0-0.7,0.6-1.2,1.2-1.2c0.7,0,1.2,0.6,1.2,1.2C11.6,159.7,11,160.2,10.3,160.2z"/>
<g>
	<path fill="#009966" d="M17.9,159v3.7H2.7V159H1.6v17.4H19V159H17.9z M18.1,175.5H2.6v-11.7h15.5V175.5z"/>
	<rect x="2.6" y="163.8" fill="#FFFFFF" width="15.5" height="11.7"/>
</g>
<path fill="#009966" stroke="#009966" stroke-width="0.75" stroke-miterlimit="10" d="M12.7,167.7c-0.1-0.1-0.2-0.1-0.2,0l-3.6,3.6
	l-1.2-1.2c-0.1-0.1-0.2-0.1-0.2,0c-0.1,0.1-0.1,0.2,0,0.2l1.3,1.3c0,0,0.1,0,0.1,0s0.1,0,0.1,0l3.8-3.8
	C12.7,167.8,12.7,167.7,12.7,167.7z"/>
<path fill="#009966" stroke="#009966" stroke-width="0.75" stroke-miterlimit="10" d="M10.2,165c-2.6,0-4.6,2.1-4.6,4.6
	c0,2.6,2.1,4.6,4.6,4.6s4.6-2.1,4.6-4.6C14.8,167,12.8,165,10.2,165z M10.2,173.8c-2.3,0-4.2-1.9-4.2-4.2c0-2.3,1.9-4.2,4.2-4.2
	s4.2,1.9,4.2,4.2C14.4,171.9,12.5,173.8,10.2,173.8z"/>
<path fill="#009966" d="M-26.4,157.5c-0.7,0-0.7,0-0.7,0.7v16.3c0,0.7,0,0.7,0.7,0.7c0.7,0,0.7,0,0.7-0.7v-16.3
	C-25.7,157.5-25.7,157.5-26.4,157.5z"/>
<g>
	<path fill="#009966" d="M-9.3,157.9c-5.9-1.5-10.4,1.5-14.9,0v10c4.5,1.5,8.9-1.5,14.9,0l-3-5.2L-9.3,157.9z M-11.5,166.8
		c-4.5-1.1-7.9,1.1-11.3,0v-7.6c3.4,1.1,6.8-1.1,11.3,0l-2.3,3.7L-11.5,166.8z"/>
	<path fill="#FFFFFF" d="M-11.5,159.2c-4.5-1.1-7.9,1.1-11.3,0v7.6c3.4,1.1,6.8-1.1,11.3,0l-2.3-3.9L-11.5,159.2z"/>
</g>
<g>
	<path fill="#009966" stroke="#009966" stroke-miterlimit="10" d="M-50.9,175.1h-3c-0.9,0-1.7-0.7-1.7-1.7v-8.1
		c0-0.9,0.7-1.7,1.7-1.7h3V175.1z M-53.9,164.3c-0.6,0-1.1,0.5-1.1,1.1v8.1c0,0.6,0.5,1.1,1.1,1.1h2.5v-10.3H-53.9z"/>
	<path fill="#009966" stroke="#009966" stroke-miterlimit="10" d="M-41.8,175.1h-9.5v-11.2l3.8-5.5c0.4-0.5,1-0.8,1.7-0.8h0.1
		c0.7,0,1.3,0.3,1.7,0.8c0.4,0.5,0.5,1.2,0.3,1.8l-1,3.5h5.1c0.7,0,1.5,0.4,1.9,1c0.6,0.8,0.7,1.8,0.3,3l-1.7,5.1
		C-39.6,173.7-40.8,175.1-41.8,175.1z M-50.9,174.6h9c0.7,0,1.8-1.2,2-2l1.7-5.1c0.3-0.9,0.3-1.8-0.2-2.5c-0.3-0.5-0.9-0.8-1.5-0.8
		h-5.7l1.2-4.2c0.1-0.5,0-1-0.2-1.4c-0.3-0.4-0.7-0.6-1.2-0.6h-0.1c-0.5,0-0.9,0.2-1.2,0.6l-3.8,5.4V174.6z"/>
</g>
<path fill="#009966" d="M-23.6,130.9l0.7-0.6l0.7,0.5l0-3.6h-1.3C-23.6,127.3-23.6,131-23.6,130.9z"/>
<path fill="#009966" d="M3.8,38c0-0.3,0.2-0.5,0.5-0.5h12.6l-2.7-2.7c-0.2-0.2-0.2-0.6,0-0.8c0.1-0.1,0.2-0.2,0.4-0.2
	s0.3,0.1,0.4,0.2l3.6,3.6c0.2,0.2,0.2,0.6,0,0.8L14.9,42c-0.2,0.2-0.6,0.2-0.8,0s-0.2-0.6,0-0.8l2.7-2.7H4.3C4,38.6,3.7,38.4,3.8,38
	z"/>
<path fill="#009966" d="M3.9,47.4h10.9c2.1,0,3.9-1.7,3.9-3.9v-2.3c0-0.3-0.2-0.5-0.5-0.5s-0.5,0.2-0.5,0.5v2.3
	c0,1.5-1.3,2.8-2.8,2.8H4c-1.5,0-2.8-1.3-2.8-2.8V32.6c0-1.5,1.3-2.8,2.8-2.8h10.9c1.5,0,2.8,1.3,2.8,2.8v2.2c0,0.3,0.2,0.5,0.5,0.5
	s0.5-0.2,0.5-0.5v-2.2c0-2.1-1.7-3.9-3.9-3.9H3.9c-2.1,0-3.9,1.7-3.9,3.9v10.9C0.1,45.7,1.8,47.4,3.9,47.4z"/>
<path fill="#009966" d="M9.4,38.1"/>
<path fill="#009966" d="M9.4,38.1"/>
<g>
	<path fill="#009966" stroke="#009966" stroke-width="0.25" stroke-miterlimit="10" d="M8.8,1.3c2.6,0,4.7,2.1,4.7,4.7
		c0,0.9-0.3,1.8-0.8,2.6l0,0l0,0l-2,4H7l-2.2-4l0,0l0,0C4.3,7.8,4,6.9,4,6C4,3.4,6.2,1.3,8.8,1.3 M8.8,0.6C5.8,0.6,3.4,3,3.4,6
		c0,1.1,0.3,2.1,0.9,2.9l0,0l2.4,4.4h4.5l2.2-4.4l0,0c0.5-0.8,0.9-1.8,0.9-2.9C14.2,3,11.8,0.6,8.8,0.6L8.8,0.6z"/>
	<path fill="#009966" stroke="#009966" stroke-width="0.25" stroke-miterlimit="10" d="M6.1,5.6H5.5c0-1.6,1.3-2.9,2.9-2.9v0.7
		C7.2,3.4,6.1,4.4,6.1,5.6z"/>
	<rect x="6.6" y="13.7" fill="#009966" stroke="#009966" stroke-width="0.25" stroke-miterlimit="10" width="4.5" height="0.8"/>
	<rect x="6.6" y="14.9" fill="#009966" stroke="#009966" stroke-width="0.25" stroke-miterlimit="10" width="4.5" height="0.8"/>
	<rect x="6.6" y="16.1" fill="#009966" stroke="#009966" stroke-width="0.25" stroke-miterlimit="10" width="4.5" height="0.8"/>
	<rect x="7.5" y="17.4" fill="#009966" stroke="#009966" stroke-width="0.25" stroke-miterlimit="10" width="2.7" height="0.8"/>
</g>
</svg>
