<?xml version="1.0" encoding="utf-8"?>
<!-- Generator: Adobe Illustrator 18.1.1, SVG Export Plug-In . SVG Version: 6.00 Build 0)  -->
<svg version="1.1" id="Layer_1" xmlns="http://www.w3.org/2000/svg" xmlns:xlink="http://www.w3.org/1999/xlink" x="0px" y="0px"
	 viewBox="459.3 447.4 20 20" enable-background="new 459.3 447.4 20 20" xml:space="preserve">
<path fill="#FFFFFF" d="M474.8,465.3h-2.1v2.1h-11.6v-15.7h2.1v-2.1h2.1v-2.1h11.6v15.7h-2.1V465.3L474.8,465.3z M472.1,452.1h-10.5
	v14.7h10.5V452.1z M463.2,454.2v-0.5h7.4v0.5H463.2z M463.2,456.3v-0.5h7.4v0.5H463.2z M463.2,458.5V458h7.4v0.5H463.2z
	 M463.2,460.6v-0.5h7.4v0.5H463.2z M463.2,462.7v-0.5h7.4v0.5H463.2z M463.2,464.8v-0.5h7.4v0.5H463.2z M463.7,450v1.6h8.9v13.1h1.6
	V450H463.7z M465.8,447.9v1.6h8.9v13.1h1.6v-14.7H465.8z"/>
</svg>
