<?xml version="1.0" encoding="utf-8"?>
<!-- Generator: Adobe Illustrator 18.1.1, SVG Export Plug-In . SVG Version: 6.00 Build 0)  -->
<svg version="1.1" id="Layer_1" xmlns="http://www.w3.org/2000/svg" xmlns:xlink="http://www.w3.org/1999/xlink" x="0px" y="0px"
	 viewBox="0 0 20 20" enable-background="new 0 0 20 20" xml:space="preserve">
<path fill="#2E368F" stroke="#2E368F" stroke-width="0.5" stroke-miterlimit="10" d="M19.4,13.8V5.9c0-0.2,0.1-1.8-0.5-2.5
	c-0.4-0.5-1.2-0.6-2-0.6h-0.4c-0.1,0-0.3,0-0.6,0V2.1c0-0.2-0.2-0.4-0.4-0.4s-0.4,0.2-0.4,0.4v0.8c-2.5,0-8,0-10.5,0V2.1
	c0-0.2-0.2-0.4-0.4-0.4C4,1.7,4,1.9,4,2.1v0.8c-0.3,0-0.5,0-0.6,0H3.1c-0.9,0-1.7,0-2,0.6C0.5,4.1,0.6,5.7,0.6,5.9v11.6
	c0,0.2,0.2,0.4,0.4,0.4h14.5c0.1,0,0.2,0,0.3-0.1l0,0l3.6-3.7l0,0l0,0l0,0c0,0,0,0,0-0.1C19.4,13.9,19.4,13.9,19.4,13.8z M1.6,3.9
	c0.2-0.3,0.9-0.3,1.6-0.3h0.4c0.1,0,0.3,0,0.6,0v0.5c0,0.2,0.2,0.4,0.4,0.4c0.2,0,0.3-0.2,0.3-0.4V3.6c2.5,0,8,0,10.5,0v0.5
	c0,0.2,0.2,0.4,0.4,0.4c0.2,0,0.4-0.2,0.4-0.4V3.6c0.3,0,0.5,0,0.6,0h0.4c0.7,0,1.3,0,1.6,0.3c0.1,0.3,0.1,1.1,0.1,1.7H1.3
	C1.3,4.9,1.4,4.2,1.6,3.9z M1.3,6.3h17.4v7.2h-3.3c-0.2,0-0.4,0.2-0.4,0.4v3.4H1.3V6.3z M18.2,14.2l-2.4,2.5v-2.5H18.2z"/>
<g>
	<rect x="5" y="8.3" fill="#2E368F" width="1.9" height="1.4"/>
	<rect x="7.7" y="8.3" fill="#2E368F" width="1.9" height="1.4"/>
	<rect x="10.4" y="8.3" fill="#2E368F" width="1.9" height="1.4"/>
	<rect x="13.1" y="8.3" fill="#2E368F" width="1.9" height="1.4"/>
	<rect x="5" y="10.4" fill="#2E368F" width="1.9" height="1.4"/>
	<rect x="7.7" y="10.4" fill="#2E368F" width="1.9" height="1.4"/>
	<rect x="10.4" y="10.4" fill="#2E368F" width="1.9" height="1.4"/>
	<rect x="13.1" y="10.4" fill="#2E368F" width="1.9" height="1.4"/>
	<rect x="5" y="12.6" fill="#2E368F" width="1.9" height="1.4"/>
	<rect x="7.7" y="12.6" fill="#2E368F" width="1.9" height="1.4"/>
	<rect x="10.4" y="12.6" fill="#2E368F" width="1.9" height="1.4"/>
	<rect x="13.1" y="12.6" fill="#2E368F" width="1.9" height="1.4"/>
</g>
</svg>
