<?xml version="1.0" encoding="utf-8"?>
<!-- Generator: Adobe Illustrator 18.1.1, SVG Export Plug-In . SVG Version: 6.00 Build 0)  -->
<svg version="1.1" id="Layer_1" xmlns="http://www.w3.org/2000/svg" xmlns:xlink="http://www.w3.org/1999/xlink" x="0px" y="0px"
	 viewBox="0 0 20 20" enable-background="new 0 0 20 20" xml:space="preserve">
<g>
	<g>
		<rect x="6.2" y="9.2" stroke="#231F20" stroke-width="0.25" stroke-miterlimit="10" width="0.4" height="7.2"/>
	</g>
	<g>
		<rect x="3.6" y="9.2" stroke="#231F20" stroke-width="0.25" stroke-miterlimit="10" width="0.4" height="7.2"/>
	</g>
	<g>
		<path stroke="#231F20" stroke-width="0.25" stroke-miterlimit="10" d="M16.5,14.8c0.1,0,0.2-0.1,0.2-0.1V9.2h-0.4v5.6
			C16.3,14.8,16.4,14.8,16.5,14.8z"/>
	</g>
	<g>
		<rect x="8.7" y="9.2" stroke="#231F20" stroke-width="0.25" stroke-miterlimit="10" width="0.4" height="7.2"/>
	</g>
	<g>
		<rect x="11.2" y="9.2" stroke="#231F20" stroke-width="0.25" stroke-miterlimit="10" width="0.4" height="7.2"/>
	</g>
	<g>
		<rect x="13.8" y="9.2" stroke="#231F20" stroke-width="0.25" stroke-miterlimit="10" width="0.4" height="7.2"/>
	</g>
	<g>
		<rect x="4" y="11.3" stroke="#231F20" stroke-width="0.25" stroke-miterlimit="10" width="12.2" height="0.4"/>
	</g>
	<g>
		<rect x="3.6" y="8.8" stroke="#231F20" stroke-width="0.25" stroke-miterlimit="10" width="13.1" height="0.4"/>
	</g>
	<g>
		<path stroke="#231F20" stroke-width="0.25" stroke-miterlimit="10" d="M15.4,16.4H3.6v0.4h11.8C15.4,16.7,15.3,16.5,15.4,16.4z"/>
	</g>
	<g>
		<rect x="4" y="13.9" stroke="#231F20" stroke-width="0.25" stroke-miterlimit="10" width="12.2" height="0.4"/>
	</g>
</g>
<path d="M19.7,15l0-8.1c0-0.2,0.1-1.9-0.5-2.6c-0.4-0.5-1.2-0.6-2.1-0.6l-0.4,0c-0.1,0-0.3,0-0.6,0V3c0-0.2-0.2-0.4-0.4-0.4
	S15.5,2.8,15.5,3v0.8c-2.6,0-8.2,0-10.8,0V3c0-0.2-0.2-0.4-0.4-0.4S3.9,2.8,3.9,3v0.8c-0.3,0-0.5,0-0.6,0L3,3.8
	c-0.9,0-1.7,0-2.1,0.6C0.3,5,0.4,6.7,0.4,6.9v11.9c0,0.2,0.2,0.4,0.4,0.4h14.9c0.1,0,0.2,0,0.3-0.1c0,0,0,0,0,0l3.7-3.8c0,0,0,0,0,0
	l0,0c0,0,0,0,0,0c0,0,0,0,0-0.1C19.7,15.1,19.7,15.1,19.7,15z M1.4,4.8C1.6,4.5,2.3,4.5,3,4.5l0.4,0c0.1,0,0.3,0,0.6,0V5
	c0,0.2,0.2,0.4,0.4,0.4S4.7,5.2,4.7,5V4.5c2.6,0,8.2,0,10.8,0V5c0,0.2,0.2,0.4,0.4,0.4s0.4-0.2,0.4-0.4V4.5c0.3,0,0.5,0,0.6,0l0.4,0
	c0.7,0,1.3,0,1.6,0.3C19,5.1,19,5.9,19,6.5H1.1C1.1,5.9,1.2,5.1,1.4,4.8z M1.1,7.3H19v7.4h-3.4c-0.2,0-0.4,0.2-0.4,0.4v3.5H1.1
	L1.1,7.3z M18.5,15.4L16,18v-2.6H18.5z"/>
</svg>
