<?xml version="1.0" encoding="utf-8"?>
<!-- Generator: Adobe Illustrator 18.1.1, SVG Export Plug-In . SVG Version: 6.00 Build 0)  -->
<svg version="1.1" id="Layer_1" xmlns="http://www.w3.org/2000/svg" xmlns:xlink="http://www.w3.org/1999/xlink" x="0px" y="0px"
	 viewBox="609.5 447.4 20 20" enable-background="new 609.5 447.4 20 20" xml:space="preserve">
<path fill="#666666" d="M629.5,462.5v-8.4c0-0.2,0.1-1.9-0.5-2.7c-0.4-0.6-1.2-0.6-2.2-0.6h-0.4c0,0-0.3,0-0.6,0v-0.8
	c0-0.2-0.2-0.4-0.4-0.4c-0.2,0-0.4,0.2-0.4,0.4v0.8c-2.7,0-8.5,0-11.2,0v-0.8c0-0.2-0.2-0.4-0.4-0.4c-0.2,0-0.4,0.2-0.4,0.4v0.8
	c-0.3,0-0.5,0-0.6,0h-0.4c-0.9,0-1.8,0-2.2,0.6c-0.6,0.7-0.5,2.5-0.5,2.7v12.3c0,0.2,0.2,0.4,0.4,0.4h15.4c0.1,0,0.2,0,0.3-0.1l0,0
	l3.8-3.9l0,0l0,0c0,0,0,0,0,0l0,0C629.5,462.6,629.5,462.6,629.5,462.5z M610.6,452c0.2-0.3,0.9-0.3,1.6-0.3h0.4c0,0,0.3,0,0.6,0
	v0.5c0,0.2,0.2,0.4,0.4,0.4c0.2,0,0.4-0.2,0.4-0.4v-0.5c2.7,0,8.5,0,11.2,0v0.5c0,0.2,0.2,0.4,0.4,0.4s0.4-0.2,0.4-0.4v-0.5
	c0.3,0,0.5,0,0.6,0h0.4c0.7,0,1.4,0,1.6,0.3c0.2,0.3,0.3,1.1,0.3,1.8h-18.5C610.3,453.2,610.4,452.3,610.6,452z M610.3,454.6h18.5
	v7.6h-3.5c-0.2,0-0.4,0.2-0.4,0.4v3.6h-14.6V454.6z M628.2,462.9l-2.6,2.7v-2.7H628.2z"/>
</svg>
