<?xml version="1.0" encoding="utf-8"?>
<!-- Generator: Adobe Illustrator 18.1.1, SVG Export Plug-In . SVG Version: 6.00 Build 0)  -->
<svg version="1.1" id="Layer_1" xmlns="http://www.w3.org/2000/svg" xmlns:xlink="http://www.w3.org/1999/xlink" x="0px" y="0px"
	 viewBox="0 0 20 20" enable-background="new 0 0 20 20" xml:space="preserve">
<g transform="matrix( 1, 0, 0, 1, 0,0) ">
	<g>
		<g id="a">
			<path fill="#2E3192" d="M0.2,4.6V12c0,1,0.3,1.8,1,2.5s1.5,1,2.5,1.1v2.7c0,0.1,0,0.2,0.1,0.3C3.9,18.5,4,18.6,4,18.6
				c0.1,0,0.1,0,0.2,0c0.1,0,0.2,0,0.3-0.1l3.1-3h8.6c1,0,1.9-0.3,2.6-1c0.7-0.7,1.1-1.5,1.1-2.5V4.6c0-1-0.4-1.8-1.1-2.5
				c-0.7-0.7-1.6-1-2.6-1H3.8c-1,0-1.9,0.3-2.6,1C0.6,2.8,0.2,3.6,0.2,4.6 M3.8,2h12.4c0.7,0,1.4,0.3,1.9,0.8
				c0.5,0.5,0.8,1.1,0.8,1.8V12c0,0.7-0.3,1.3-0.8,1.8c-0.5,0.5-1.1,0.8-1.9,0.8H7.5c-0.1,0-0.3,0-0.3,0.1l-2.4,2.4v-2
				c0-0.1-0.1-0.2-0.2-0.3c-0.1-0.1-0.2-0.1-0.3-0.1H3.8c-0.7,0-1.4-0.3-1.9-0.8c-0.5-0.5-0.8-1.1-0.8-1.8V4.6
				c0-0.7,0.3-1.3,0.8-1.8C2.5,2.3,3.1,2,3.8,2z"/>
			<path fill="#2E3192" d="M15.4,9.2c0.2-0.2,0.4-0.5,0.4-0.9c0-0.3-0.1-0.6-0.4-0.8c-0.2-0.2-0.5-0.4-0.9-0.4
				c-0.3,0-0.6,0.1-0.9,0.4c-0.2,0.2-0.4,0.5-0.4,0.8c0,0.3,0.1,0.6,0.4,0.9c0.2,0.2,0.5,0.4,0.9,0.4C14.8,9.5,15.1,9.4,15.4,9.2
				 M6.8,8.3c0-0.3-0.1-0.6-0.4-0.8C6.2,7.2,5.9,7.1,5.6,7.1C5.3,7.1,5,7.2,4.7,7.5C4.5,7.7,4.4,8,4.4,8.3c0,0.3,0.1,0.6,0.4,0.9
				C5,9.4,5.3,9.5,5.6,9.5c0.3,0,0.6-0.1,0.9-0.4C6.7,8.9,6.8,8.6,6.8,8.3 M9.2,7.5C8.9,7.7,8.8,8,8.8,8.3c0,0.3,0.1,0.6,0.4,0.9
				C9.4,9.4,9.7,9.5,10,9.5c0.3,0,0.6-0.1,0.9-0.4c0.2-0.2,0.4-0.5,0.4-0.9c0-0.3-0.1-0.6-0.4-0.8c-0.2-0.2-0.5-0.4-0.9-0.4
				C9.7,7.1,9.4,7.2,9.2,7.5z"/>
		</g>
	</g>
</g>
</svg>
