<?xml version="1.0" encoding="utf-8"?>
<!-- Generator: Adobe Illustrator 18.1.1, SVG Export Plug-In . SVG Version: 6.00 Build 0)  -->
<svg version="1.1" id="Layer_1" xmlns="http://www.w3.org/2000/svg" xmlns:xlink="http://www.w3.org/1999/xlink" x="0px" y="0px"
	 viewBox="0 0 20 20" enable-background="new 0 0 20 20" xml:space="preserve">
<g>
	<path fill="#2E3192" d="M19.4,18.5H0.7c-0.2,0-0.3-0.2-0.3-0.3V5c0-0.2,0.2-0.3,0.3-0.3h18.7c0.2,0,0.3,0.2,0.3,0.3v13.2
		C19.7,18.4,19.6,18.5,19.4,18.5z M1,17.8h18V5.4H1V17.8z"/>
	<path fill="#2E3192" d="M18,17.1H5.5c-0.2,0-0.3-0.2-0.3-0.3V6.4c0-0.2,0.2-0.3,0.3-0.3H18c0.2,0,0.3,0.2,0.3,0.3v10.4
		C18.3,17,18.2,17.1,18,17.1z M5.9,16.5h11.8V6.8H5.9V16.5z"/>
	<path fill="#2E3192" d="M3.1,13c-0.8,0-1.4-0.6-1.4-1.4c0-0.8,0.6-1.4,1.4-1.4s1.4,0.6,1.4,1.4C4.5,12.4,3.9,13,3.1,13z M3.1,10.9
		c-0.4,0-0.7,0.3-0.7,0.7s0.3,0.7,0.7,0.7s0.7-0.3,0.7-0.7S3.5,10.9,3.1,10.9z"/>
	<path fill="#2E3192" d="M4.1,9.5H2.1c-0.2,0-0.3-0.2-0.3-0.3V6.4c0-0.2,0.2-0.3,0.3-0.3h2.1c0.2,0,0.3,0.2,0.3,0.3v2.8
		C4.5,9.4,4.3,9.5,4.1,9.5z M2.4,8.8h1.4V6.8H2.4V8.8z"/>
	<path fill="#2E3192" d="M4.1,17.1H2.1c-0.2,0-0.3-0.2-0.3-0.3V14c0-0.2,0.2-0.3,0.3-0.3h2.1c0.2,0,0.3,0.2,0.3,0.3v2.8
		C4.5,17,4.3,17.1,4.1,17.1z M2.4,16.5h1.4v-2.1H2.4V16.5z"/>
	<path fill="#2E3192" d="M11.1,14.4H9.7c-0.2,0-0.3-0.2-0.3-0.3v-1.3c0-0.1,0-0.2,0.1-0.3l4.9-4.6c0.1-0.1,0.3-0.1,0.5,0L16,9
		c0.1,0.1,0.1,0.2,0.1,0.2c0,0.1,0,0.2-0.1,0.3l-4.7,4.8C11.3,14.3,11.2,14.4,11.1,14.4z M10,13.7h0.9l4.3-4.4l-0.7-0.6L10,12.9
		V13.7L10,13.7z"/>
</g>
</svg>
