<?xml version="1.0" encoding="utf-8"?>
<!-- Generator: Adobe Illustrator 18.1.1, SVG Export Plug-In . SVG Version: 6.00 Build 0)  -->
<svg version="1.1" id="Layer_1" xmlns="http://www.w3.org/2000/svg" xmlns:xlink="http://www.w3.org/1999/xlink" x="0px" y="0px"
	 viewBox="0 0 20 20" enable-background="new 0 0 20 20" xml:space="preserve">
<path fill="#2E368F" stroke="#2E368F" stroke-width="0.75" stroke-miterlimit="10" d="M18.4,10.4c-0.2,0-0.3,0.1-0.3,0.3v5
	c0,1.6-1.3,2.9-2.9,2.9H4.7c-1.6,0-2.9-1.3-2.9-2.9V7.2V5.1c0-1.6,1.3-2.9,2.9-2.9h4.9c0.2,0,0.3-0.1,0.3-0.3S9.8,1.6,9.6,1.6H4.7
	c-1.9,0-3.5,1.5-3.5,3.5v2.2v8.4c0,1.9,1.5,3.5,3.5,3.5h10.5c1.9,0,3.5-1.5,3.5-3.5v-5C18.7,10.5,18.6,10.4,18.4,10.4z"/>
<g>
	<g>
		<path fill="#2E368F" stroke="#2E368F" stroke-width="0.15" stroke-miterlimit="10" d="M18.3,2.7l-1.4-1.4c-0.4-0.4-1.1-0.4-1.5,0
			L7.7,9l-1.6,4.5l4.5-1.6l7.8-7.7C18.7,3.8,18.7,3.1,18.3,2.7z M7.5,11.4l0.7-1.8l1.8,1.8L8.1,12L7.5,11.4z M8.8,9.7L15,3.6
			l0.4,0.4l-6.1,6.1L8.8,9.7z M8.7,9.6L8.3,9.2l6.1-6.1l0.3,0.4L8.7,9.6z M9.4,10.3l6.1-6.1l0.4,0.4l-6.1,6.1L9.4,10.3z M14.8,2.8
			L15,2.6l2,2l-0.2,0.2L14.8,2.8z M10.3,11.2l-0.3-0.4l6.1-6.1l0.3,0.4L10.3,11.2z M17.9,3.7l-0.6,0.6l-2-2l0.6-0.6
			c0.2-0.2,0.4-0.2,0.6,0l1.4,1.4C18,3.3,18,3.6,17.9,3.7z"/>
	</g>
</g>
</svg>
