<?xml version="1.0" encoding="utf-8"?>
<!-- Generator: Adobe Illustrator 18.1.1, SVG Export Plug-In . SVG Version: 6.00 Build 0)  -->
<svg version="1.1" id="Layer_1" xmlns="http://www.w3.org/2000/svg" xmlns:xlink="http://www.w3.org/1999/xlink" x="0px" y="0px"
	 viewBox="0 0 20 20" enable-background="new 0 0 20 20" xml:space="preserve">
<g>
	<g>
		<g>
			<g>
			</g>
		</g>
		<g>
		</g>
	</g>
</g>
<g>
	<g>
		<g>
			<g>
			</g>
		</g>
		<g>
		</g>
	</g>
</g>
<g>
	<g>
		<g>
			<g>
			</g>
		</g>
		<g>
		</g>
	</g>
</g>
<g>
	<g>
		<g>
			<g>
			</g>
		</g>
		<g>
		</g>
	</g>
</g>
<g>
	<g>
		<g>
			<g>
			</g>
		</g>
		<g>
		</g>
	</g>
</g>
<g>
	<g>
		<g>
			<g>
			</g>
		</g>
		<g>
		</g>
	</g>
</g>
<g>
	<g>
		<g>
			<g>
			</g>
		</g>
		<g>
		</g>
	</g>
</g>
<g>
	<g>
		<g>
			<g>
			</g>
		</g>
		<g>
		</g>
	</g>
</g>
<g>
	<g>
		<g>
			<g>
			</g>
		</g>
		<g>
		</g>
	</g>
</g>
<g>
	<g>
		<g>
			<g>
			</g>
		</g>
		<g>
		</g>
	</g>
</g>
<g>
	<g>
		<g>
			<g>
			</g>
		</g>
		<g>
		</g>
	</g>
</g>
<path fill="#2E3192" d="M19.6-113.7c-0.2-0.2-0.4-0.2-0.6,0l-9.8,9.8L6.2-107c-0.2-0.2-0.4-0.2-0.6,0s-0.2,0.4,0,0.6l3.4,3.4
	c0.1,0.1,0.2,0.1,0.3,0.1c0.1,0,0.2,0,0.3-0.1l10-10C19.8-113.3,19.8-113.5,19.6-113.7z"/>
<path fill="#2E3192" d="M-221.9,8.4c1.8-1.9,1.8-4.9-0.1-6.8c-0.9-0.9-2.1-1.4-3.4-1.4c-1.3,0-2.5,0.5-3.4,1.4l-4.1,4.1
	c-0.2,0.2-0.2,0.6,0,0.8c0.1,0.1,0.3,0.2,0.4,0.2c0.2,0,0.3-0.1,0.4-0.2l4.1-4.1c1.4-1.4,3.8-1.4,5.2,0c1.4,1.4,1.4,3.8,0,5.2
	L-233,17.9c-1,0.9-2.5,1-3.4,0c-1-1-1-2.5,0-3.4l8.3-8.3l0,0c0.5-0.5,1.2-0.5,1.7,0c0.2,0.2,0.3,0.5,0.3,0.8s-0.1,0.6-0.3,0.8
	l-7.2,7.2c-0.2,0.2-0.2,0.6,0,0.8c0.1,0.1,0.3,0.2,0.4,0.2c0.2,0,0.3-0.1,0.4-0.2l7.2-7.2c0.4-0.4,0.7-1,0.7-1.7
	c0-0.6-0.2-1.2-0.7-1.7c-0.9-0.9-2.3-0.9-3.2-0.1c0,0,0,0,0,0l-8.4,8.4c-1.4,1.4-1.4,3.7,0,5.1c0.7,0.7,1.6,1.1,2.6,1.1
	c0.9,0,1.8-0.4,2.6-1.1L-221.9,8.4L-221.9,8.4L-221.9,8.4L-221.9,8.4C-221.9,8.4-221.9,8.4-221.9,8.4z"/>
<path fill="#2E3192" d="M259-231h-8v-8c0-0.5-0.4-1-1-1c-0.5,0-1,0.4-1,1v8h-8c-0.5,0-1,0.4-1,1c0,0.5,0.4,1,1,1h8v8
	c0,0.5,0.4,1,1,1c0.5,0,1-0.4,1-1v-8h8c0.5,0,1-0.4,1-1C260-230.6,259.6-231,259-231z"/>
<path fill="#2E3192" stroke="#2E3192" stroke-width="0.5" stroke-miterlimit="10" d="M10.7,10.3l4.1-4.1c0.1-0.1,0.1-0.3,0-0.4
	s-0.3-0.1-0.4,0l-4.1,4.1L6.2,5.8C6.1,5.7,6,5.7,5.9,5.8c-0.1,0.1-0.1,0.3,0,0.4l4.1,4.1l-4.1,4.1c-0.1,0.1-0.1,0.3,0,0.4
	c0,0,0.1,0.1,0.2,0.1c0.1,0,0.1,0,0.2-0.1l4.1-4.1l4.1,4.1c0,0,0.1,0.1,0.2,0.1s0.1,0,0.2-0.1c0.1-0.1,0.1-0.3,0-0.4L10.7,10.3z"/>
<path fill="#2E3192" d="M850.5,129.8l8.5-8.5c0.2-0.2,0.2-0.5,0-0.7c-0.2-0.2-0.5-0.2-0.7,0l-8.5,8.5l-8.5-8.5
	c-0.2-0.2-0.5-0.2-0.7,0c-0.2,0.2-0.2,0.5,0,0.7l8.5,8.5l-8.5,8.5c-0.2,0.2-0.2,0.5,0,0.7c0.1,0.1,0.2,0.2,0.4,0.2s0.3-0.1,0.4-0.2
	l8.5-8.5l8.5,8.5c0.1,0.1,0.2,0.2,0.4,0.2c0.1,0,0.3-0.1,0.4-0.2c0.2-0.2,0.2-0.5,0-0.7L850.5,129.8z"/>
<path fill="#2E3192" d="M129.9-240c-5.5,0-10,4.5-10,10c0,5.5,4.5,10,10,10c5.5,0,10-4.5,10-10C139.9-235.5,135.4-240,129.9-240z
	 M129.9-220.7c-5.1,0-9.3-4.2-9.3-9.3s4.2-9.3,9.3-9.3c5.1,0,9.3,4.2,9.3,9.3S135-220.7,129.9-220.7z"/>
<path fill="#2E3192" d="M-101.5-239.4h-16.9c-0.8,0-1.5,0.8-1.5,1.7v15.7c0,1,0.7,1.7,1.5,1.7h16.9c0.8,0,1.5-0.8,1.5-1.7v-15.7
	C-100-238.6-100.7-239.4-101.5-239.4z M-100.8-221.9c0,0.4-0.3,0.8-0.7,0.8h-16.9c-0.4,0-0.7-0.4-0.7-0.8v-15.7
	c0-0.4,0.3-0.8,0.7-0.8h16.9c0.4,0,0.7,0.4,0.7,0.8V-221.9z"/>
<g>
	<path fill="#2E3192" d="M619.8,18.9l-4.6-4.6c3-3.3,2.9-8.4-0.3-11.6c-3.3-3.3-8.7-3.3-12,0c-3.3,3.3-3.3,8.7,0,12
		c1.7,1.7,3.8,2.5,6,2.5c2,0,4-0.7,5.6-2.1l4.6,4.6c0.1,0.1,0.2,0.1,0.4,0.1s0.3,0,0.4-0.1C620,19.4,620,19.1,619.8,18.9z
		 M603.5,13.9c-2.9-2.9-2.9-7.7,0-10.6c1.5-1.5,3.4-2.2,5.3-2.2c1.9,0,3.8,0.7,5.3,2.2c2.9,2.9,2.9,7.7,0,10.6
		C611.2,16.9,606.5,16.9,603.5,13.9z"/>
	<path fill="#2E3192" d="M611.9,8.2h-2.5V5.6c0-0.3-0.2-0.5-0.5-0.5c-0.3,0-0.5,0.2-0.5,0.5v2.5h-2.5c-0.3,0-0.5,0.2-0.5,0.5
		c0,0.3,0.2,0.5,0.5,0.5h2.5v2.5c0,0.3,0.2,0.5,0.5,0.5c0.3,0,0.5-0.2,0.5-0.5V9.1h2.5c0.3,0,0.5-0.2,0.5-0.5
		C612.3,8.4,612.1,8.2,611.9,8.2z"/>
</g>
<path fill="#2E3192" d="M139.6,138.9l-4.6-4.6c2.9-3.3,2.8-8.3-0.3-11.5c-3.3-3.3-8.6-3.3-11.9,0c-3.3,3.3-3.3,8.6,0,11.9
	c1.6,1.6,3.8,2.5,5.9,2.5c2,0,4-0.7,5.6-2.1l4.6,4.6c0.1,0.1,0.2,0.1,0.3,0.1s0.3,0,0.3-0.1C139.8,139.4,139.8,139.1,139.6,138.9z
	 M123.5,134c-2.9-2.9-2.9-7.6,0-10.5c1.4-1.4,3.3-2.2,5.2-2.2c1.9,0,3.8,0.7,5.2,2.2c2.9,2.9,2.9,7.6,0,10.5
	C131.1,136.9,126.4,136.9,123.5,134z"/>
<g>
	<path fill="#2E3192" d="M739.6,18.9l-4.6-4.6c2.9-3.3,2.8-8.4-0.3-11.6c-3.3-3.3-8.6-3.3-11.9,0c-3.3,3.3-3.3,8.6,0,11.9
		c1.6,1.6,3.8,2.5,6,2.5c2,0,4-0.7,5.6-2.1l4.6,4.6c0.1,0.1,0.2,0.1,0.3,0.1s0.3,0,0.3-0.1C739.8,19.4,739.8,19.1,739.6,18.9z
		 M723.5,14c-2.9-2.9-2.9-7.6,0-10.5c1.5-1.5,3.4-2.2,5.3-2.2s3.8,0.7,5.3,2.2c2.9,2.9,2.9,7.6,0,10.5
		C731.1,16.9,726.4,16.9,723.5,14z"/>
	<path fill="#2E3192" d="M731.8,8.2h-6c-0.3,0-0.5,0.2-0.5,0.5c0,0.3,0.2,0.5,0.5,0.5h6c0.3,0,0.5-0.2,0.5-0.5
		C732.2,8.4,732,8.2,731.8,8.2z"/>
</g>
<g>
	<path fill="#2E3192" d="M617.4-111.1h-2.6c0.1-0.3,0.2-0.6,0.2-0.9v-2.2c0-2-1.6-3.6-3.6-3.6h-2.7c-2,0-3.6,1.6-3.6,3.6v2.2
		c0,0.3,0.1,0.6,0.2,0.9h-2.6c-1.1,0-2,0.9-2,2v9c0,1.1,0.9,2,2,2h14.8c1.1,0,2-0.9,2-2v-9C619.4-110.3,618.5-111.1,617.4-111.1z
		 M606.1-112v-2.2c0-1.4,1.1-2.6,2.6-2.6h2.7c1.4,0,2.6,1.1,2.6,2.6v2.2c0,0.5-0.4,0.9-0.9,0.9H607
		C606.5-111.1,606.1-111.5,606.1-112z M618.3-100.1c0,0.5-0.4,0.9-0.9,0.9h-14.8c-0.5,0-0.9-0.4-0.9-0.9v-9c0-0.5,0.4-0.9,0.9-0.9
		h4.3h6.1h4.3c0.5,0,0.9,0.4,0.9,0.9V-100.1z"/>
	<path fill="#2E3192" d="M610.1-107.5c-1.1,0-2.1,0.9-2.1,2.1c0,1,0.7,1.8,1.5,2v1.8c0,0.3,0.2,0.5,0.5,0.5s0.5-0.2,0.5-0.5v-1.8
		c0.9-0.2,1.5-1,1.5-2C612.1-106.5,611.2-107.5,610.1-107.5z M610.1-104.4c-0.6,0-1-0.5-1-1s0.5-1,1-1c0.6,0,1,0.4,1,1
		S610.6-104.4,610.1-104.4z"/>
</g>
<g>
	<path fill="#2E3192" d="M737.5-113.2h-2.6c0.1-0.3,0.2-0.6,0.2-0.9v-2.2c0-2-1.6-3.6-3.6-3.6h-2.7c-2,0-3.6,1.6-3.6,3.6
		c0,0.3,0.2,0.5,0.5,0.5c0.3,0,0.5-0.2,0.5-0.5c0-1.4,1.2-2.6,2.6-2.6h2.7c1.4,0,2.6,1.2,2.6,2.6v2.2c0,0.5-0.4,0.9-0.9,0.9H727
		h-4.4c-1.1,0-2,0.9-2,2v9.1c0,1.1,0.9,2,2,2h14.8c1.1,0,2-0.9,2-2v-9.1C739.5-112.3,738.6-113.2,737.5-113.2z M738.4-102.1
		c0,0.5-0.4,0.9-0.9,0.9h-14.8c-0.5,0-0.9-0.4-0.9-0.9v-9.1c0-0.5,0.4-0.9,0.9-0.9h4.4h6.1h4.4c0.5,0,0.9,0.4,0.9,0.9V-102.1z"/>
	<path fill="#2E3192" d="M730.1-109.5c-1.1,0-2.1,0.9-2.1,2.1c0,1,0.7,1.8,1.5,2v1.8c0,0.3,0.2,0.5,0.5,0.5c0.3,0,0.5-0.2,0.5-0.5
		v-1.8c0.9-0.2,1.5-1,1.5-2C732.2-108.5,731.2-109.5,730.1-109.5z M730.1-106.4c-0.6,0-1-0.5-1-1s0.5-1,1-1c0.6,0,1,0.5,1,1
		S730.7-106.4,730.1-106.4z"/>
</g>
<path fill="#2E3192" d="M490-119.9c-5.4,0-9.9,4.4-9.9,9.9c0,5.4,4.4,9.9,9.9,9.9s9.9-4.4,9.9-9.9
	C499.9-115.5,495.5-119.9,490-119.9z M490-101c-5,0-9-4-9-9c0-5,4-9,9-9s9,4,9,9C499-105.1,495-101,490-101z"/>
<path fill="#2E3192" d="M10,0.6c-5.3,0-9.6,4.3-9.6,9.6c0,5.3,4.3,9.6,9.6,9.6s9.6-4.3,9.6-9.6C19.5,4.9,15.2,0.6,10,0.6z M10,18.9
	c-4.8,0-8.7-3.9-8.7-8.7c0-4.8,3.9-8.7,8.7-8.7s8.7,3.9,8.7,8.7C18.7,14.9,14.8,18.9,10,18.9z"/>
<path fill="#2E3192" d="M-17.5-422.2c-5.4,0-9.7,4.4-9.7,9.7c0,5.4,4.4,9.7,9.7,9.7s9.7-4.4,9.7-9.7
	C-7.8-417.9-12.1-422.2-17.5-422.2z M-17.5-403.7c-4.9,0-8.9-4-8.9-8.9c0-4.9,4-8.9,8.9-8.9s8.9,4,8.9,8.9
	C-8.6-407.6-12.6-403.7-17.5-403.7z"/>
<path fill="#2E3192" d="M379.6,5.4l-1.8-1.8c-0.2-0.2-0.5-0.2-0.6,0L367,13.7L363,9.6c-0.1-0.1-0.2-0.1-0.3-0.1
	c-0.1,0-0.2,0.1-0.3,0.2l-1.7,1.9c-0.2,0.2-0.2,0.4,0,0.6l6.1,6.1c0.1,0.1,0.2,0.1,0.3,0.1c0,0,0,0,0,0c0.1,0,0.2,0,0.3-0.1L379.6,6
	c0.1-0.1,0.1-0.2,0.1-0.3C379.8,5.6,379.7,5.5,379.6,5.4z M367,17.3l-5.5-5.5l1.1-1.2l4.1,4.1c0.2,0.2,0.5,0.2,0.6,0l10.1-10.1
	l1.2,1.2L367,17.3z"/>
<g>
	<path fill="#2E3192" d="M10,135.1c0.3,0,0.5-0.2,0.5-0.5v-6.7c0-0.3-0.2-0.5-0.5-0.5c-0.3,0-0.5,0.2-0.5,0.5v6.7
		C9.6,134.9,9.8,135.1,10,135.1z"/>
	<path fill="#2E3192" d="M10,126.8c0.3,0,0.5-0.2,0.5-0.5v-0.9c0-0.3-0.2-0.5-0.5-0.5c-0.3,0-0.5,0.2-0.5,0.5v0.9
		C9.6,126.6,9.8,126.8,10,126.8z"/>
	<path fill="#2E3192" d="M10,139.7c5.3,0,9.7-4.4,9.7-9.7c0-5.3-4.4-9.7-9.7-9.7s-9.7,4.4-9.7,9.7C0.3,135.3,4.7,139.7,10,139.7z
		 M10,121.2c4.8,0,8.8,3.9,8.8,8.8c0,4.8-3.9,8.8-8.8,8.8s-8.8-3.9-8.8-8.8C1.3,125.2,5.2,121.2,10,121.2z"/>
</g>
<path fill="#2E3192" d="M259.4,129.9l-9-9c-0.1-0.1-0.3-0.2-0.4-0.1c-0.1,0-0.3,0-0.4,0.1l-9,9c-0.2,0.2-0.2,0.5,0,0.7
	c0.1,0.1,0.2,0.1,0.4,0.1c0.1,0,0.3,0,0.4-0.1l2.2-2.2v9.2c0,0.3,0.2,0.5,0.5,0.5h3.4c0.3,0,0.5-0.2,0.5-0.5v-5.5h4.1v5.5
	c0,0.3,0.2,0.5,0.5,0.5h3.5c0.3,0,0.5-0.2,0.5-0.5v-9.3l2.3,2.3c0.1,0.1,0.2,0.1,0.4,0.1s0.3,0,0.4-0.1
	C259.6,130.4,259.6,130.1,259.4,129.9z M255.4,137.1h-2.5v-5.5c0-0.3-0.2-0.5-0.5-0.5h-5.1c-0.3,0-0.5,0.2-0.5,0.5v5.5h-2.4v-9.7
	l5.6-5.6l5.4,5.4V137.1z"/>
<g>
	<path fill="#2E3192" d="M499.4,138.5h-18.7c-0.2,0-0.3-0.2-0.3-0.3V125c0-0.2,0.2-0.3,0.3-0.3h18.7c0.2,0,0.3,0.2,0.3,0.3v13.2
		C499.7,138.4,499.6,138.5,499.4,138.5z M481,137.8h18v-12.5h-18V137.8z"/>
	<path fill="#2E3192" d="M498,137.1h-12.5c-0.2,0-0.3-0.2-0.3-0.3v-10.4c0-0.2,0.2-0.3,0.3-0.3H498c0.2,0,0.3,0.2,0.3,0.3v10.4
		C498.3,137,498.2,137.1,498,137.1z M485.9,136.5h11.8v-9.7h-11.8V136.5z"/>
	<path fill="#2E3192" d="M483.1,133c-0.8,0-1.4-0.6-1.4-1.4s0.6-1.4,1.4-1.4c0.8,0,1.4,0.6,1.4,1.4S483.9,133,483.1,133z
		 M483.1,130.9c-0.4,0-0.7,0.3-0.7,0.7c0,0.4,0.3,0.7,0.7,0.7c0.4,0,0.7-0.3,0.7-0.7C483.8,131.2,483.5,130.9,483.1,130.9z"/>
	<path fill="#2E3192" d="M484.1,129.5h-2.1c-0.2,0-0.3-0.2-0.3-0.3v-2.8c0-0.2,0.2-0.3,0.3-0.3h2.1c0.2,0,0.3,0.2,0.3,0.3v2.8
		C484.5,129.4,484.3,129.5,484.1,129.5z M482.4,128.8h1.4v-2.1h-1.4V128.8z"/>
	<path fill="#2E3192" d="M484.1,137.1h-2.1c-0.2,0-0.3-0.2-0.3-0.3V134c0-0.2,0.2-0.3,0.3-0.3h2.1c0.2,0,0.3,0.2,0.3,0.3v2.8
		C484.5,137,484.3,137.1,484.1,137.1z M482.4,136.5h1.4v-2.1h-1.4V136.5z"/>
	<path fill="#2E3192" d="M491.1,134.4h-1.4c-0.2,0-0.3-0.2-0.3-0.3v-1.3c0-0.1,0-0.2,0.1-0.3l4.9-4.6c0.1-0.1,0.3-0.1,0.5,0l1.2,1.1
		c0.1,0.1,0.1,0.2,0.1,0.2c0,0.1,0,0.2-0.1,0.3l-4.7,4.8C491.3,134.3,491.2,134.4,491.1,134.4z M490,133.7h0.9l4.3-4.4l-0.7-0.6
		l-4.5,4.3V133.7L490,133.7z"/>
</g>
<path fill="#2E3192" d="M127.2,14.1l0.4-2.9l2.4,2.1L127.2,14.1z M140,4.3c0-0.2-0.1-0.4-0.2-0.5c-0.1-0.1-0.3-0.4-0.5-0.4
	c-0.3,0-8.3,9.4-8.3,9.4l-1.1-1c0,0,0,0,0,0l5-5.5c0.2-0.2,0.2-0.6,0-0.8c-0.2-0.2-0.6-0.2-0.8,0l-5,5.5c0,0,0,0,0,0l-1.2-1
	c0,0,8.5-9,8.5-9.2c0-0.1-0.1-0.4-0.3-0.5c-0.2-0.1-0.5-0.1-0.5-0.1h-13.1c-1.1,0-2,0.9-2,2v15.3c0,1.1,0.9,2,2,2h15.6
	c1.1,0,2-0.9,2-2L140,4.3C140,4.3,140,4.3,140,4.3z M139,17.6c0,0.5-0.4,1-1,1h-15.6c-0.5,0-1-0.4-1-1V2.3c0-0.5,0.4-1,1-1h12
	l-7.7,8.5c-0.1,0.1-0.1,0.2-0.1,0.3l-0.7,4.6c0,0.2,0,0.3,0.2,0.5c0.1,0.1,0.2,0.1,0.4,0.1c0,0,0.1,0,0.1,0l4.6-1.2
	c0.1,0,0.2-0.1,0.3-0.2l7.5-8.4V17.6L139,17.6z"/>
<path fill="#2E3192" d="M486.8-225.9l0.4-2.9l2.5,2.2L486.8-225.9z M488.9-229C488.9-228.9,488.9-228.9,488.9-229l-1.2-1
	c0,0,8.6-9.1,8.7-9.4c0-0.2-0.1-0.4-0.3-0.5c-0.2-0.1-0.5-0.1-0.5-0.1H482c-1.1,0-2,0.9-2,2v15.6c0,1.1,0.9,2,2,2h15.9
	c1.1,0,2-0.9,2-2v-13.5c0,0,0,0,0,0c0-0.2-0.1-0.4-0.2-0.5c-0.1-0.1-0.3-0.4-0.5-0.4c-0.3,0-8.4,9.6-8.4,9.6l-1.1-1c0,0,0,0,0,0
	 M498.9-222.4c0,0.6-0.5,1-1,1H482c-0.6,0-1-0.5-1-1V-238c0-0.6,0.5-1,1-1h12.2l-7.8,8.7c-0.1,0.1-0.1,0.2-0.1,0.3l-0.7,4.7
	c0,0.2,0,0.4,0.2,0.5c0.1,0.1,0.3,0.1,0.4,0.1c0,0,0.1,0,0.1,0l4.7-1.3c0.1,0,0.2-0.1,0.3-0.2l7.7-8.5V-222.4L498.9-222.4z"/>
<g>
	<path fill="#2E3192" d="M379.5,126.7c-0.2,0.1-0.3,0.2-0.5,0.4v10.1h-17.9v-12.4h15.4c0,0,0-0.1,0-0.1c0.1-0.2,0.2-0.4,0.3-0.6h-16
		c-0.2,0-0.3,0.2-0.3,0.3v13.1c0,0.2,0.2,0.3,0.3,0.3h18.5c0.2,0,0.3-0.2,0.3-0.3v-10.6C379.6,126.8,379.6,126.8,379.5,126.7z"/>
	<path fill="#2E3192" d="M377.6,128.6C377.6,128.6,377.6,128.6,377.6,128.6l0,7.2h-11.7v-9.6h9.1c0,0,0.1-0.1,0.1-0.1
		c0.2-0.2,0.4-0.4,0.6-0.6h-10.2c-0.2,0-0.3,0.2-0.3,0.3v10.3c0,0.2,0.2,0.3,0.3,0.3h12.4c0.2,0,0.3-0.2,0.3-0.3v-8.4
		C378,127.9,377.7,128.2,377.6,128.6z"/>
	<path fill="#2E3192" d="M363.1,132.3c-0.8,0-1.4-0.6-1.4-1.4c0-0.8,0.6-1.4,1.4-1.4c0.8,0,1.4,0.6,1.4,1.4
		C364.5,131.7,363.9,132.3,363.1,132.3z M363.1,130.3c-0.4,0-0.7,0.3-0.7,0.7c0,0.4,0.3,0.7,0.7,0.7c0.4,0,0.7-0.3,0.7-0.7
		C363.8,130.6,363.5,130.3,363.1,130.3z"/>
	<path fill="#2E3192" d="M364.2,128.9h-2.1c-0.2,0-0.3-0.2-0.3-0.3v-2.7c0-0.2,0.2-0.3,0.3-0.3h2.1c0.2,0,0.3,0.2,0.3,0.3v2.7
		C364.5,128.7,364.4,128.9,364.2,128.9z M362.5,128.2h1.4v-2.1h-1.4V128.2z"/>
	<path fill="#2E3192" d="M364.2,136.4h-2.1c-0.2,0-0.3-0.2-0.3-0.3v-2.7c0-0.2,0.2-0.3,0.3-0.3h2.1c0.2,0,0.3,0.2,0.3,0.3v2.7
		C364.5,136.3,364.4,136.4,364.2,136.4z M362.5,135.7h1.4v-2.1h-1.4V135.7z"/>
	<path fill="#2E3192" d="M379.7,127c0-0.1-0.1-0.3-0.1-0.4c0-0.1,0-0.2-0.2-0.2c-0.2,0-6,6.5-6,6.5l-0.8-0.7c0,0,0,0,0,0l3.5-3.9
		c0.1-0.2,0.1-0.4,0-0.5c-0.2-0.1-0.4-0.1-0.5,0l-3.5,3.9c0,0,0,0,0,0l-0.8-0.7c0,0,5.9-6.4,5.9-6.6c0-0.1,0-0.2-0.2-0.3
		c-0.1-0.1-0.3-0.1-0.4-0.1h-0.2c-0.2,0.2-0.4,0.5-0.7,0.7h0.1l-5.4,6c0,0.1-0.1,0.1-0.1,0.2l-0.5,3.3c0,0.1,0,0.2,0.1,0.3
		c0.1,0.1,0.2,0.1,0.3,0.1c0,0,0.1,0,0.1,0l3.2-0.9c0.1,0,0.1-0.1,0.2-0.1l4.6-5.1C378.7,128,379.2,127.5,379.7,127z M370.6,133.8
		l0.3-2l1.7,1.5L370.6,133.8z"/>
</g>
<g>
	<path fill="#2E3192" d="M-109.9,0.7c-5.1,0-9.2,4.1-9.2,9.2c0,5.1,4.1,9.2,9.2,9.2c5.1,0,9.2-4.1,9.2-9.2
		C-100.7,4.8-104.8,0.7-109.9,0.7z M-109.9,18.3c-4.6,0-8.4-3.8-8.4-8.4c0-4.6,3.8-8.4,8.4-8.4c4.6,0,8.4,3.8,8.4,8.4
		C-101.5,14.6-105.3,18.3-109.9,18.3z"/>
	
		<rect x="-110.3" y="0.9" transform="matrix(-0.5425 -0.8401 0.8401 -0.5425 -177.6616 -77.1857)" fill="#2E3192" width="0.9" height="17.7"/>
</g>
<path fill="#2E3192" stroke="#2E3192" stroke-width="0.5" stroke-miterlimit="10" d="M259.4,0.9V6c0,0.2-0.1,0.3-0.3,0.3
	c-0.2,0-0.3-0.1-0.3-0.3V1.5l-8.8,8.8c-0.1,0.1-0.1,0.1-0.2,0.1s-0.1,0-0.2-0.1c-0.1-0.1-0.1-0.3,0-0.4l8.8-8.8h-4.5
	c-0.2,0-0.3-0.1-0.3-0.3s0.1-0.3,0.3-0.3h5.2C259.3,0.6,259.4,0.7,259.4,0.9z M259.1,9.9c-0.2,0-0.3,0.1-0.3,0.3v5.3
	c0,1.7-1.4,3.1-3.1,3.1h-11.2c-1.7,0-3.1-1.4-3.1-3.1V6.5V4.2c0-1.7,1.4-3.1,3.1-3.1h5.2c0.2,0,0.3-0.1,0.3-0.3s-0.1-0.3-0.3-0.3
	h-5.2c-2,0-3.7,1.6-3.7,3.7v2.3v8.9c0,2,1.6,3.7,3.7,3.7h11.2c2,0,3.7-1.6,3.7-3.7v-5.3C259.4,10,259.3,9.9,259.1,9.9z"/>
<g>
	<path fill="#2E3192" d="M617.9,120.1h-15.8c-1.1,0-2,0.9-2,2v15.8c0,1.1,0.9,2,2,2h15.8c1.1,0,2-0.9,2-2v-15.8
		C619.9,120.9,619,120.1,617.9,120.1z M615.3,127.4c0,0-6.3,6.4-6.3,6.4c-0.3,0.3-0.6,0.3-0.9,0l-3.1-3.1c-0.3-0.3-0.3-0.6,0-0.9
		c0.3-0.3,0.6-0.3,0.9,0l2.7,2.6l5.9-5.9c0.3-0.3,0.6-0.3,0.9,0C615.5,126.8,615.5,127.1,615.3,127.4z"/>
</g>
<path fill="#2E3192" d="M737.9,121.5c0.5,0,0.9,0.4,0.9,0.9v15.5c0,0.5-0.4,0.9-0.9,0.9h-15.6c-0.5,0-0.9-0.4-0.9-0.9v-15.5
	c0-0.5,0.4-0.9,0.9-0.9L737.9,121.5 M737.9,120.3h-15.6c-1.1,0-2,0.9-2,2v15.5c0,1.1,0.9,2,2,2h15.6c1.1,0,2-0.9,2-2v-15.5
	C740,121.2,739.1,120.3,737.9,120.3L737.9,120.3z"/>
<circle fill="#2E3192" cx="490" cy="-110" r="5.7"/>
<path fill="#2E3192" d="M368-119.9c-5.4,0-9.9,4.4-9.9,9.9c0,5.4,4.4,9.9,9.9,9.9s9.9-4.4,9.9-9.9
	C377.9-115.5,373.5-119.9,368-119.9z M368-101c-5,0-9-4-9-9c0-5,4-9,9-9s9,4,9,9C377-105.1,373-101,368-101z"/>
<path fill="#2E3192" d="M104.5-425.2c-0.1-0.2-0.3-0.2-0.5-0.1l-1.4,1.1c0.2-0.6,0.3-1.3,0.3-2c0-4.5-3.7-8.2-8.2-8.2
	c-3.2,0-5.9,1.8-7.3,4.4c0.2,0.1,0.5,0.1,0.7,0.2c1.3-2.3,3.7-3.9,6.6-3.9c4.1,0,7.5,3.3,7.5,7.5c0,0.7-0.1,1.3-0.3,1.9c0,0,0,0,0,0
	l0,0l0,0c0,0,0,0,0-0.1l-1-1.3c-0.1-0.2-0.3-0.2-0.5-0.1c-0.2,0.1-0.2,0.3-0.1,0.5l1.6,2.1c0,0,0.1,0.1,0.1,0.1c0,0,0.1,0,0.1,0
	c0,0,0,0,0,0l0,0c0,0,0.1,0,0.1,0c0,0,0,0,0,0c0,0,0.1,0,0.1,0l2.1-1.6C104.6-424.8,104.6-425,104.5-425.2z"/>
<path fill="#2E3192" d="M84.9-427.1c0.1,0.2,0.3,0.2,0.5,0.1l1.4-1.1c-0.2,0.6-0.3,1.3-0.3,2c0,4.5,3.7,8.2,8.2,8.2
	c3.2,0,5.9-1.8,7.3-4.4c-0.2-0.1-0.5-0.1-0.7-0.2c-1.3,2.3-3.7,3.9-6.6,3.9c-4.1,0-7.5-3.3-7.5-7.5c0-0.7,0.1-1.3,0.3-1.9
	c0,0,0,0,0,0l0,0l0,0c0,0,0,0,0,0.1l1,1.3c0.1,0.2,0.3,0.2,0.5,0.1c0.2-0.1,0.2-0.3,0.1-0.5l-1.6-2.1c0,0-0.1-0.1-0.1-0.1
	c0,0-0.1,0-0.1,0c0,0,0,0,0,0l0,0c0,0-0.1,0-0.1,0c0,0,0,0,0,0c0,0-0.1,0-0.1,0l-2.1,1.6C84.8-427.5,84.8-427.3,84.9-427.1z"/>
<circle fill="#2E3192" cx="94.6" cy="-426.1" r="4.7"/>
<path fill="#2E3192" d="M-8.6-446.4c-0.1-0.2-0.4-0.2-0.5-0.1l-1.4,1.1c0.2-0.6,0.3-1.3,0.3-2c0-4.6-3.7-8.3-8.3-8.3
	c-3.2,0-6,1.8-7.4,4.5c0.2,0.1,0.5,0.2,0.7,0.2c1.3-2.4,3.8-4,6.7-4c4.2,0,7.6,3.4,7.6,7.6c0,0.7-0.1,1.3-0.3,1.9c0,0,0,0,0,0l0,0
	l0,0c0,0,0,0,0-0.1l-1-1.4c-0.1-0.2-0.4-0.2-0.5-0.1c-0.2,0.1-0.2,0.4-0.1,0.5l1.7,2.2c0,0,0.1,0.1,0.1,0.1c0,0,0.1,0,0.1,0
	c0,0,0,0,0,0l0,0c0,0,0.1,0,0.1,0c0,0,0,0,0.1,0c0,0,0.1,0,0.1,0l2.2-1.7C-8.5-446-8.5-446.2-8.6-446.4z"/>
<path fill="#2E3192" d="M-28.4-448.3c0.1,0.2,0.4,0.2,0.5,0.1l1.4-1.1c-0.2,0.6-0.3,1.3-0.3,2c0,4.6,3.7,8.3,8.3,8.3
	c3.2,0,6-1.8,7.4-4.5c-0.2-0.1-0.5-0.2-0.7-0.2c-1.3,2.4-3.8,4-6.7,4c-4.2,0-7.6-3.4-7.6-7.6c0-0.7,0.1-1.3,0.3-1.9c0,0,0,0,0,0l0,0
	l0,0c0,0,0,0,0,0.1l1,1.4c0.1,0.2,0.4,0.2,0.5,0.1c0.2-0.1,0.2-0.4,0.1-0.5l-1.7-2.2c0,0-0.1-0.1-0.1-0.1c0,0-0.1,0-0.1,0
	c0,0,0,0,0,0l0,0c0,0-0.1,0-0.1,0c0,0,0,0-0.1,0c0,0-0.1,0-0.1,0l-2.2,1.7C-28.5-448.7-28.5-448.5-28.4-448.3z"/>
<circle fill="#2E3192" cx="-18.5" cy="-447.3" r="4.8"/>
<path fill="#2E3192" d="M130.4-116c-0.1-0.1-0.2-0.2-0.4-0.2s-0.3,0.1-0.4,0.2l-9.4,9.4c-0.2,0.2-0.2,0.5,0,0.7
	c0.2,0.2,0.5,0.2,0.7,0l9.1-9.1l9.1,9.1c0.2,0.2,0.5,0.2,0.7,0c0.2-0.2,0.2-0.5,0-0.7L130.4-116z"/>
<path fill="#2E3192" d="M-224.2-109.6c0.1-0.1,0.2-0.2,0.2-0.4c0-0.1-0.1-0.3-0.2-0.4l-9.3-9.3c-0.2-0.2-0.5-0.2-0.7,0
	c-0.2,0.2-0.2,0.5,0,0.7l8.9,8.9l-8.9,8.9c-0.2,0.2-0.2,0.5,0,0.7c0.2,0.2,0.5,0.2,0.7,0L-224.2-109.6z"/>
<path fill="#2E3192" d="M-237.4-230.3c-0.1,0.1-0.2,0.2-0.2,0.4c0,0.1,0.1,0.3,0.2,0.4l9.5,9.5c0.2,0.2,0.5,0.2,0.7,0
	c0.2-0.2,0.2-0.5,0-0.7l-9.2-9.2l9.2-9.2c0.2-0.2,0.2-0.5,0-0.7c-0.2-0.2-0.5-0.2-0.7,0L-237.4-230.3z"/>
<path fill="#2E3192" stroke="#2E3192" stroke-width="0.5" stroke-miterlimit="10" d="M-114.3-229.8c0,0-0.1,0.1-0.1,0.2
	c0,0.1,0,0.1,0.1,0.2l4.4,4.4c0.1,0.1,0.2,0.1,0.3,0c0.1-0.1,0.1-0.2,0-0.3l-4.2-4.2l4.2-4.2c0.1-0.1,0.1-0.2,0-0.3
	c-0.1-0.1-0.2-0.1-0.3,0L-114.3-229.8z"/>
<path fill="#2E3192" stroke="#2E3192" stroke-width="0.5" stroke-miterlimit="10" d="M-111-229.6c0,0-0.1,0.1-0.1,0.2
	c0,0.1,0,0.1,0.1,0.2l4.4,4.4c0.1,0.1,0.2,0.1,0.3,0c0.1-0.1,0.1-0.2,0-0.3l-4.2-4.2l4.2-4.2c0.1-0.1,0.1-0.2,0-0.3
	c-0.1-0.1-0.2-0.1-0.3,0L-111-229.6z"/>
<path fill="#2E3192" d="M-1.3-237.7v15.7c0,1,0.7,1.7,1.5,1.7h16.9c0.8,0,1.5-0.8,1.5-1.7v-15.7c0-1-0.7-1.7-1.5-1.7H0.2
	C-0.6-239.4-1.3-238.6-1.3-237.7z M-0.4-237.7c0-0.4,0.3-0.8,0.7-0.8h16.9c0.4,0,0.7,0.4,0.7,0.8v15.7c0,0.4-0.3,0.8-0.7,0.8H0.2
	c-0.4,0-0.7-0.4-0.7-0.8V-237.7z"/>
<path fill="#2E3192" stroke="#2E3192" stroke-width="0.5" stroke-miterlimit="10" d="M13-229.8c0,0,0.1,0.1,0.1,0.2
	c0,0.1,0,0.1-0.1,0.2l-4.4,4.4c-0.1,0.1-0.2,0.1-0.3,0c-0.1-0.1-0.1-0.2,0-0.3l4.2-4.2l-4.2-4.2c-0.1-0.1-0.1-0.2,0-0.3
	c0.1-0.1,0.2-0.1,0.3,0L13-229.8z"/>
<path fill="#2E3192" stroke="#2E3192" stroke-width="0.5" stroke-miterlimit="10" d="M9.7-229.6c0,0,0.1,0.1,0.1,0.2
	c0,0.1,0,0.1-0.1,0.2l-4.4,4.4c-0.1,0.1-0.2,0.1-0.3,0c-0.1-0.1-0.1-0.2,0-0.3l4.2-4.2L5-233.6c-0.1-0.1-0.1-0.2,0-0.3
	c0.1-0.1,0.2-0.1,0.3,0L9.7-229.6z"/>
<path fill="#2E3192" d="M249.7-105.8c0.1,0.1,0.2,0.2,0.4,0.2s0.3-0.1,0.4-0.2l9.3-9.3c0.2-0.2,0.2-0.5,0-0.7
	c-0.2-0.2-0.5-0.2-0.7,0l-9,9l-9-9c-0.2-0.2-0.5-0.2-0.7,0c-0.2,0.2-0.2,0.5,0,0.7L249.7-105.8z"/>
<g transform="matrix( 1, 0, 0, 1, 0,0) ">
	<g>
		<g id="a">
			<path fill="#2E3192" d="M-239.8,124.6v7.4c0,1,0.3,1.8,1,2.5c0.7,0.7,1.5,1,2.5,1.1v2.7c0,0.1,0,0.2,0.1,0.3
				c0.1,0.1,0.1,0.1,0.2,0.2c0.1,0,0.1,0,0.2,0c0.1,0,0.2,0,0.3-0.1l3.1-3h8.6c1,0,1.9-0.3,2.6-1c0.7-0.7,1.1-1.5,1.1-2.5v-7.4
				c0-1-0.4-1.8-1.1-2.5c-0.7-0.7-1.6-1-2.6-1h-12.4c-1,0-1.9,0.3-2.6,1C-239.4,122.8-239.8,123.6-239.8,124.6 M-236.2,122h12.4
				c0.7,0,1.4,0.3,1.9,0.8c0.5,0.5,0.8,1.1,0.8,1.8v7.4c0,0.7-0.3,1.3-0.8,1.8c-0.5,0.5-1.1,0.8-1.9,0.8h-8.7c-0.1,0-0.3,0-0.3,0.1
				l-2.4,2.4v-2c0-0.1-0.1-0.2-0.2-0.3c-0.1-0.1-0.2-0.1-0.3-0.1h-0.4c-0.7,0-1.4-0.3-1.9-0.8c-0.5-0.5-0.8-1.1-0.8-1.8v-7.4
				c0-0.7,0.3-1.3,0.8-1.8C-237.5,122.3-236.9,122-236.2,122z"/>
			<path fill="#2E3192" d="M-224.6,129.2c0.2-0.2,0.4-0.5,0.4-0.9c0-0.3-0.1-0.6-0.4-0.8c-0.2-0.2-0.5-0.4-0.9-0.4s-0.6,0.1-0.9,0.4
				c-0.2,0.2-0.4,0.5-0.4,0.8c0,0.3,0.1,0.6,0.4,0.9c0.2,0.2,0.5,0.4,0.9,0.4S-224.9,129.4-224.6,129.2 M-233.2,128.3
				c0-0.3-0.1-0.6-0.4-0.8c-0.2-0.2-0.5-0.4-0.9-0.4c-0.3,0-0.6,0.1-0.9,0.4c-0.2,0.2-0.4,0.5-0.4,0.8c0,0.3,0.1,0.6,0.4,0.9
				c0.2,0.2,0.5,0.4,0.9,0.4c0.3,0,0.6-0.1,0.9-0.4C-233.3,128.9-233.2,128.6-233.2,128.3 M-230.8,127.5c-0.3,0.2-0.4,0.5-0.4,0.8
				c0,0.3,0.1,0.6,0.4,0.9c0.2,0.2,0.5,0.4,0.9,0.4c0.3,0,0.6-0.1,0.9-0.4c0.2-0.2,0.4-0.5,0.4-0.9c0-0.3-0.1-0.6-0.4-0.8
				c-0.2-0.2-0.5-0.4-0.9-0.4C-230.3,127.1-230.6,127.2-230.8,127.5z"/>
		</g>
	</g>
</g>
<path fill="#2E3192" d="M-100.2,133.4l0-8.2c0-0.2,0.1-1.9-0.5-2.6c-0.4-0.5-1.2-0.6-2.1-0.6l-0.4,0c-0.1,0-0.3,0-0.6,0v-0.8
	c0-0.2-0.2-0.4-0.4-0.4s-0.4,0.2-0.4,0.4v0.8c-2.6,0-8.3,0-10.9,0v-0.8c0-0.2-0.2-0.4-0.4-0.4s-0.4,0.2-0.4,0.4v0.8
	c-0.3,0-0.5,0-0.6,0l-0.4,0c-0.9,0-1.7,0-2.1,0.6c-0.6,0.7-0.5,2.4-0.5,2.6v12.1c0,0.2,0.2,0.4,0.4,0.4h15c0.1,0,0.2,0,0.3-0.1
	c0,0,0,0,0,0l3.7-3.9c0,0,0,0,0,0l0,0c0,0,0,0,0-0.1c0,0,0,0,0-0.1C-100.2,133.5-100.2,133.5-100.2,133.4z M-118.7,123.1
	c0.2-0.3,0.9-0.3,1.6-0.3l0.4,0c0.1,0,0.3,0,0.6,0v0.5c0,0.2,0.2,0.4,0.4,0.4s0.4-0.2,0.4-0.4v-0.5c2.6,0,8.3,0,10.9,0v0.5
	c0,0.2,0.2,0.4,0.4,0.4s0.4-0.2,0.4-0.4v-0.5c0.3,0,0.5,0,0.6,0l0.4,0c0.7,0,1.3,0,1.6,0.3c0.2,0.3,0.3,1.1,0.3,1.8H-119
	C-119,124.2-119,123.4-118.7,123.1z M-119,125.6h18.1v7.5h-3.4c-0.2,0-0.4,0.2-0.4,0.4v3.5H-119L-119,125.6z M-101.4,133.8l-2.5,2.6
	v-2.6H-101.4z"/>
<path fill="#2E3192" d="M855.7-102.4h-2v2.1h-11.3v-15.4h2v-2.1h2.1v-2h11.3v15.4h-2L855.7-102.4L855.7-102.4z M853.1-115.2h-10.3
	v14.3h10.3V-115.2z M844.4-113.2v-0.5h7.2v0.5H844.4z M844.4-111.1v-0.5h7.2v0.5H844.4z M844.4-109.1v-0.5h7.2v0.5H844.4z
	 M844.4-107v-0.5h7.2v0.5H844.4z M844.4-105v-0.5h7.2v0.5H844.4z M844.4-102.9v-0.5h7.2v0.5H844.4z M844.9-117.3v1.5h8.7v12.8h1.5
	v-14.3H844.9z M846.9-119.3v1.5h8.7v12.8h1.5v-14.3H846.9z"/>
<path fill="#2E3192" d="M853.9,0.2h-10.5V20h15.3V5L853.9,0.2z M854.1,1.5l3.3,3.3h-3.3V1.5z M844.2,19.2V0.9h9.2v4.6h4.6v13.7
	H844.2z"/>
<rect x="846.5" y="9.3" fill="#2E3192" width="9.2" height="0.8"/>
<rect x="846.5" y="11.6" fill="#2E3192" width="9.2" height="0.8"/>
<rect x="846.5" y="7" fill="#2E3192" width="5.3" height="0.8"/>
<rect x="846.5" y="13.9" fill="#2E3192" width="9.2" height="0.8"/>
<path fill="#2E3192" d="M15-100.7H1.2v-18.5h9.2v4.6H15v3.7h0.8v-4.2L11-120H0.4v20h15.4v-7.6H15V-100.7z M11.2-118.7l3.3,3.3h-3.3
	V-118.7z"/>
<path fill="none" stroke="#2E3192" stroke-width="0.5" stroke-miterlimit="10" d="M856.6-233.4c0,0-0.1,0-0.1,0l-2.4,2.4l-0.8-0.8
	c0,0-0.1,0-0.1,0c0,0,0,0.1,0,0.1l0.8,0.8c0,0,0,0,0.1,0c0,0,0.1,0,0.1,0l2.5-2.5C856.7-233.3,856.7-233.3,856.6-233.4z"/>
<path fill="#2E3192" d="M-109.7-119.4c0,0-0.1,0-0.1,0.1l-5.2,8.3c-0.1,0.1,0,0.2,0.1,0.2h10.4c0.1,0,0.2-0.1,0.1-0.2l-5.2-8.3
	C-109.6-119.3-109.7-119.4-109.7-119.4L-109.7-119.4z M-114.9-109c-0.1,0-0.2,0.1-0.1,0.2l5.2,8.3c0.1,0.1,0.2,0.1,0.2,0l5.2-8.3
	c0.1-0.1,0-0.2-0.1-0.2H-114.9L-114.9-109z"/>
<path fill="#2E3192" d="M-27.2-490.4c-0.2,0-0.3,0.1-0.2,0.2l9.7,10.2c0.1,0.1,0.3,0.1,0.5,0l9.7-10.2c0.1-0.1,0-0.2-0.2-0.2H-27.2
	L-27.2-490.4z"/>
<g>
	<path fill="#2E3192" d="M133.2-223.4h-6.7c0,0,1-2,1.1-2.2c0.2-0.2,0.6-0.6,2.2-0.6c1.6,0,2.1,0.4,2.2,0.6S133.2-223.4,133.2-223.4
		z"/>
	<path fill="#2E3192" d="M131.9-225.1h-4c0,0,0.4-0.5,0.4-1.3c0-0.6,0-0.9,0-0.9h3.1c0,0-0.1,0.3,0,0.9
		C131.5-225.7,131.9-225.1,131.9-225.1z"/>
	<g>
		<path fill="#2E3192" d="M129.9-220.6c2.4,0,5.1-1,6.6-2.7c-1.4-1.1-4.2-1.7-6.6-1.7c-2.4,0-5,1-6.5,2.1
			C124.8-221.3,127.5-220.6,129.9-220.6z"/>
	</g>
	<path fill="#2E3192" d="M133.2-231.2c0-2.8-1.5-3.9-3.3-3.9s-3.3,1.1-3.3,3.9s1.5,5,3.3,5S133.2-228.4,133.2-231.2z"/>
</g>
<path fill="#2E3192" d="M377.5-229.5l-4.4,1.4l2.7,3.7c0.7,1,0.5,2.3-0.5,3c-0.4,0.3-0.8,0.4-1.3,0.4c-0.7,0-1.3-0.3-1.7-0.9
	l-2.7-3.7l-2.7,3.7c-0.4,0.6-1.1,0.9-1.7,0.9c-0.4,0-0.9-0.1-1.3-0.4c-1-0.7-1.2-2-0.5-3l2.7-3.7l-4.4-1.4c-1.1-0.4-1.7-1.6-1.4-2.7
	c0.4-1.1,1.6-1.8,2.7-1.4l4.4,1.4v-4.6c0-1.2,1-2.1,2.1-2.1c1.2,0,2.1,1,2.1,2.1v4.6l4.4-1.4c1.1-0.4,2.3,0.3,2.7,1.4
	C379.2-231.1,378.6-229.9,377.5-229.5z"/>
<path fill="#2E3192" d="M602.8-239.7c0,6,0,12,0,17.9h8.9c-0.1-0.1-0.2-0.3-0.3-0.4h-8.2v-17.1h12.7v10.9c0.1,0,0.3,0.1,0.4,0.1
	v-11.4L602.8-239.7z"/>
<path fill="#2E3192" d="M606.1-229.2c0,0.1,0,0.3,0,0.4h6.9v-0.4H606.1z"/>
<path fill="#2E3192" d="M606.1-227.5c0,0.1,0,0.3,0,0.4h6c0.1-0.2,0.3-0.3,0.5-0.4H606.1z"/>
<path fill="#2E3192" d="M608.2-233.3L608.2-233.3v1.4h2.6v-1.4h-0.4v0.9h-1.8v-0.9H608.2z"/>
<path fill="#2E3192" d="M609.5-234.7c-0.4,0-0.8,0.3-0.8,0.8c0,0.4,0.3,0.8,0.8,0.8s0.8-0.3,0.8-0.8
	C610.3-234.3,610-234.7,609.5-234.7z M609.5-234.2c0.2,0,0.3,0.1,0.3,0.3s-0.1,0.3-0.3,0.3c-0.2,0-0.3-0.1-0.3-0.3
	S609.4-234.2,609.5-234.2z"/>
<path fill="#2E3192" d="M609.5-236.1c-1.5,0-2.8,1.2-2.8,2.8c0,1.5,1.2,2.8,2.8,2.8c1.5,0,2.8-1.2,2.8-2.8
	C612.3-234.8,611.1-236.1,609.5-236.1z M609.5-235.6c1.3,0,2.3,1,2.3,2.3s-1,2.3-2.3,2.3s-2.3-1-2.3-2.3S608.2-235.6,609.5-235.6z"
	/>
<path fill="#2E3192" d="M606.1-225.8c0,0.1,0,0.3,0,0.4h5c0-0.1,0.1-0.3,0.2-0.4H606.1z"/>
<path fill="#2E3192" d="M609.5-236c-1.5,0-2.7,1.2-2.7,2.7c0,1.5,1.2,2.7,2.7,2.7c1.5,0,2.7-1.2,2.7-2.7
	C612.3-234.8,611.1-236,609.5-236z M609.5-235.7c1.3,0,2.4,1.1,2.4,2.4s-1.1,2.4-2.4,2.4s-2.4-1.1-2.4-2.4S608.2-235.7,609.5-235.7z
	"/>
<path fill="none" stroke="#2E3192" stroke-width="0.5" stroke-miterlimit="10" d="M615.1-227.9c-2,0-3.7,1.6-3.7,3.7v0
	c0,2,1.6,3.7,3.7,3.7c2,0,3.7-1.6,3.7-3.7v0C618.8-226.2,617.2-227.9,615.1-227.9C615.1-227.9,615.1-227.9,615.1-227.9L615.1-227.9z
	"/>
<polygon fill="#2E3192" points="614.1,-225.5 615.1,-224.5 616.1,-225.5 616.4,-225.2 615.4,-224.2 616.4,-223.2 616.1,-222.9 
	615.1,-223.9 614.1,-222.9 613.8,-223.2 614.8,-224.2 613.8,-225.2 614.1,-225.5 "/>
<path fill="#2E3192" d="M722.8-239.6c0,6,0,11.9,0,17.9h8.9c-0.1-0.1-0.2-0.3-0.3-0.4h-8.2v-17h12.7v10.9c0.1,0,0.3,0.1,0.4,0.1
	v-11.4L722.8-239.6z"/>
<path fill="#2E3192" d="M726.1-229.2c0,0.1,0,0.3,0,0.4h6.9v-0.4H726.1z"/>
<path fill="#2E3192" d="M726.1-227.5c0,0.1,0,0.3,0,0.4h5.9c0.1-0.2,0.3-0.3,0.5-0.4H726.1z"/>
<path fill="#2E3192" d="M728.3-233.2L728.3-233.2v1.4h2.6v-1.4h-0.4v0.9h-1.8v-0.9H728.3z"/>
<path fill="#2E3192" d="M729.6-234.6c-0.4,0-0.8,0.3-0.8,0.8c0,0.4,0.3,0.8,0.8,0.8s0.8-0.3,0.8-0.8
	C730.3-234.3,730-234.6,729.6-234.6z M729.6-234.2c0.2,0,0.3,0.1,0.3,0.3s-0.1,0.3-0.3,0.3c-0.2,0-0.3-0.1-0.3-0.3
	S729.4-234.2,729.6-234.2z"/>
<path fill="#2E3192" d="M729.6-236c-1.5,0-2.8,1.2-2.8,2.8s1.2,2.8,2.8,2.8c1.5,0,2.8-1.2,2.8-2.8S731.1-236,729.6-236z
	 M729.6-235.6c1.3,0,2.3,1,2.3,2.3c0,1.3-1,2.3-2.3,2.3c-1.3,0-2.3-1-2.3-2.3C727.2-234.5,728.3-235.6,729.6-235.6z"/>
<path fill="#2E3192" d="M726.1-225.8c0,0.1,0,0.3,0,0.4h5c0-0.1,0.1-0.3,0.2-0.4H726.1z"/>
<path fill="#2E3192" d="M729.6-236c-1.5,0-2.7,1.2-2.7,2.7c0,1.5,1.2,2.7,2.7,2.7s2.7-1.2,2.7-2.7S731.1-236,729.6-236z
	 M729.6-235.6c1.3,0,2.4,1.1,2.4,2.4c0,1.3-1.1,2.4-2.4,2.4c-1.3,0-2.4-1.1-2.4-2.4C727.2-234.6,728.2-235.6,729.6-235.6z"/>
<path fill="none" stroke="#2E3192" stroke-width="0.5" stroke-miterlimit="10" d="M735.1-227.8c-2,0-3.7,1.6-3.7,3.7v0
	c0,2,1.6,3.7,3.7,3.7c2,0,3.7-1.6,3.7-3.7v0C738.8-226.2,737.2-227.8,735.1-227.8C735.1-227.8,735.1-227.8,735.1-227.8L735.1-227.8z
	"/>
<path fill="#2E3192" d="M735.3-225.9l-1.7,1.7l0.3,0.3l1.1-1.1v2.5h0.5v-2.5l1.1,1.1l0.3-0.3L735.3-225.9L735.3-225.9z"/>
<path fill="#2E3192" d="M842.6-247.6c0,6,0,11.9,0,17.9h8.9c-0.1-0.1-0.2-0.3-0.3-0.4H843v-17h12.6v10.9c0.1,0,0.3,0.1,0.4,0.1
	v-11.4L842.6-247.6z"/>
<path fill="#2E3192" d="M845.9-237.2c0,0.1,0,0.3,0,0.4h6.9v-0.4H845.9z"/>
<path fill="#2E3192" d="M845.9-235.5c0,0.1,0,0.3,0,0.4h5.9c0.1-0.2,0.3-0.3,0.5-0.4H845.9z"/>
<path fill="#2E3192" d="M848-241.2L848-241.2v1.4h2.6v-1.4h-0.4v0.9h-1.8v-0.9H848z"/>
<path fill="#2E3192" d="M849.3-242.6c-0.4,0-0.8,0.3-0.8,0.8s0.3,0.8,0.8,0.8s0.8-0.3,0.8-0.8S849.7-242.6,849.3-242.6z
	 M849.3-242.2c0.2,0,0.3,0.1,0.3,0.3s-0.1,0.3-0.3,0.3s-0.3-0.1-0.3-0.3S849.1-242.2,849.3-242.2z"/>
<path fill="#2E3192" d="M849.3-244c-1.5,0-2.8,1.2-2.8,2.8c0,1.5,1.2,2.8,2.8,2.8s2.8-1.2,2.8-2.8C852.1-242.8,850.8-244,849.3-244z
	 M849.3-243.6c1.3,0,2.3,1,2.3,2.3c0,1.3-1,2.3-2.3,2.3c-1.3,0-2.3-1-2.3-2.3C847-242.5,848-243.6,849.3-243.6z"/>
<path fill="#2E3192" d="M845.9-233.8c0,0.1,0,0.3,0,0.4h5c0-0.1,0.1-0.3,0.2-0.4H845.9z"/>
<path fill="#2E3192" d="M849.3-244c-1.5,0-2.7,1.2-2.7,2.7c0,1.5,1.2,2.7,2.7,2.7s2.7-1.2,2.7-2.7S850.8-244,849.3-244z
	 M849.3-243.6c1.3,0,2.4,1.1,2.4,2.4c0,1.3-1.1,2.4-2.4,2.4s-2.4-1.1-2.4-2.4C846.9-242.6,848-243.6,849.3-243.6z"/>
<path fill="none" stroke="#2E3192" stroke-width="0.5" stroke-miterlimit="10" d="M854.9-235.8c-2,0-3.7,1.6-3.7,3.7v0
	c0,2,1.6,3.7,3.7,3.7c2,0,3.7-1.6,3.7-3.7v0C858.5-234.2,856.9-235.8,854.9-235.8C854.9-235.8,854.9-235.8,854.9-235.8L854.9-235.8z
	"/>
<polyline fill="none" stroke="#2E3192" stroke-width="0.75" stroke-miterlimit="10" points="484.4,11.5 486,13.6 488.7,10.2 "/>
<path fill="none" stroke="#2E3192" stroke-width="0.75" stroke-miterlimit="10" d="M495.4,16h-10.9c-2.2,0-4.1-1.8-4.1-4.1l0,0
	c0-2.2,1.8-4.1,4.1-4.1h10.9c2.3,0,4.1,1.8,4.1,4.1l0,0C499.5,14.2,497.7,16,495.4,16z"/>
<circle fill="none" stroke="#2E3192" stroke-width="0.75" stroke-miterlimit="10" cx="495.2" cy="12.1" r="2.7"/>
<path fill="#2E3192" stroke="#2E3192" stroke-width="0.5" stroke-miterlimit="10" d="M-12.4-416.4c-0.1-0.1-0.3-0.1-0.4,0l-7.1,7.1
	l-2.2-2.2c-0.1-0.1-0.3-0.1-0.4,0c-0.1,0.1-0.1,0.3,0,0.4l2.4,2.4c0.1,0.1,0.1,0.1,0.2,0.1c0.1,0,0.2,0,0.2-0.1l7.3-7.3
	C-12.3-416.1-12.3-416.3-12.4-416.4z"/>
<path fill="#2E3192" d="M255.8-347.7c-2.1,0-3.8,1.7-3.8,3.8v0c0,2.1,1.7,3.8,3.8,3.8c2.1,0,3.8-1.7,3.8-3.8
	C259.6-346,257.9-347.7,255.8-347.7L255.8-347.7z M255.8-345.1c0.2,0,0.4,0.1,0.6,0.2c0.2,0.1,0.5,0.2,0.7,0.3
	c0.4,0.2,0.8,0.5,0.8,0.5l0.3,0.2l-0.3,0.2c0,0-0.4,0.2-0.8,0.5c-0.2,0.1-0.5,0.2-0.7,0.3c-0.2,0.1-0.4,0.2-0.6,0.2
	c-0.2,0-0.4-0.1-0.6-0.1c-0.2-0.1-0.5-0.2-0.7-0.3c-0.4-0.2-0.8-0.4-0.8-0.4l-0.3-0.2l0.3-0.2c0,0,0.4-0.3,0.8-0.5
	c0.2-0.1,0.4-0.3,0.7-0.4C255.4-345,255.6-345.1,255.8-345.1L255.8-345.1z M255.8-344.6c-0.1,0-0.2,0-0.4,0.1
	c-0.2,0.1-0.4,0.2-0.6,0.3c-0.3,0.2-0.3,0.2-0.5,0.3c0.1,0.1,0.2,0.1,0.4,0.2c0.2,0.1,0.4,0.2,0.6,0.3c0.2,0.1,0.4,0.1,0.5,0.1
	c0.1,0,0.3,0,0.4-0.1c0.2-0.1,0.4-0.2,0.6-0.3c0.2-0.1,0.3-0.2,0.5-0.3c-0.1-0.1-0.2-0.1-0.5-0.3c-0.2-0.1-0.4-0.2-0.6-0.3
	S255.8-344.6,255.8-344.6L255.8-344.6z M255.8-344.5c0.3,0,0.6,0.3,0.6,0.6c0,0.3-0.3,0.6-0.6,0.6s-0.6-0.3-0.6-0.6
	C255.2-344.2,255.5-344.5,255.8-344.5z M255.8-344c-0.1,0-0.1,0.1-0.1,0.1c0,0.1,0.1,0.1,0.1,0.1c0.1,0,0.1-0.1,0.1-0.1
	S255.9-344,255.8-344z"/>
<path fill="#2E3192" d="M246.5-349.1c0,0.1,0,0.3,0,0.4h7.1v-0.4H246.5z"/>
<path fill="#2E3192" d="M246.5-347.3c0,0.1,0,0.3,0,0.4h6.1c0.2-0.2,0.3-0.3,0.5-0.4H246.5z"/>
<path fill="#2E3192" d="M243.1-359.8c0,6.1,0,12.3,0,18.4h9.1c-0.1-0.1-0.2-0.3-0.3-0.4h-8.4v-17.5h13v11.2c0.2,0,0.3,0.1,0.4,0.1
	v-11.7H243.1z"/>
<path fill="#2E3192" d="M246.5-345.5c0,0.1,0,0.3,0,0.4h5.1c0-0.2,0.1-0.3,0.2-0.4H246.5z"/>
<path fill="#2E3192" d="M250.1-356.1l-2.5,1.3v0.1v3l2.5,1.3l2.5-1.3v-3.2L250.1-356.1z M250.1-355.6l2.1,1v2.6l-2.1,1l-2.1-1v-2.6
	L250.1-355.6z M250.1-354.9l-0.8,0.4v0.9l0.8,0.4l0.1-0.1l0.7-0.4v-0.9L250.1-354.9z M250.1-354.4l0.4,0.2v0.3l-0.4,0.2l-0.4-0.2
	v-0.3L250.1-354.4z M248.7-353.2v1l1.4,0.7l1.4-0.7v-1H251v0.7l-0.9,0.5l-0.9-0.5v-0.7H248.7z"/>
<path fill="#2E3192" d="M120.7-401.2h13.4l-2.9-2.9c-0.2-0.2-0.2-0.6,0-0.8c0.2-0.2,0.6-0.2,0.8,0l3.9,3.9c0.2,0.2,0.2,0.6,0,0.8
	l-3.9,3.9c-0.1,0.1-0.3,0.2-0.4,0.2s-0.3-0.1-0.4-0.2c-0.2-0.2-0.2-0.6,0-0.8l2.9-2.9h-13.4c-0.3,0-0.6-0.3-0.6-0.6
	C120.1-401,120.3-401.2,120.7-401.2z M135.9-410.6h-11.7c-2.3,0-4.1,1.8-4.1,4.1v2.4c0,0.3,0.3,0.6,0.6,0.6c0.3,0,0.6-0.3,0.6-0.6
	v-2.4c0-1.6,1.3-3,3-3h11.7c1.6,0,3,1.3,3,3v11.7c0,1.6-1.3,3-3,3h-11.7c-1.6,0-3-1.3-3-3v-2.4c0-0.3-0.3-0.6-0.6-0.6
	c-0.3,0-0.6,0.3-0.6,0.6v2.4c0,2.3,1.8,4.1,4.1,4.1h11.7c2.3,0,4.1-1.8,4.1-4.1v-11.7C140-408.8,138.2-410.6,135.9-410.6z"/>
<path fill="#2E3192" d="M130-400.6"/>
<path fill="#2E3192" d="M130-400.6"/>
<path fill="#2E3192" stroke="#2E3192" stroke-width="0.25" stroke-miterlimit="10" d="M134.5-355.7c-0.1,0-0.2,0.1-0.1,0.2v0.8
	c0,0.1,0.1,0.2,0.2,0.2h0.8c0.1,0,0.2-0.1,0.2-0.2s-0.1-0.2-0.2-0.2h-0.4c0.3-0.3,0.7-0.5,1.1-0.5c0.8,0,1.5,0.7,1.5,1.5
	s-0.7,1.5-1.5,1.5c-0.5,0-1-0.3-1.3-0.7c0-0.1-0.1-0.1-0.2-0.1c-0.1,0-0.1,0.1-0.1,0.2c0.3,0.5,0.9,0.9,1.6,0.9c1,0,1.8-0.8,1.8-1.8
	c0-1-0.8-1.8-1.8-1.8c-0.5,0-1,0.2-1.4,0.6v-0.4C134.6-355.7,134.5-355.7,134.5-355.7L134.5-355.7z"/>
<g>
	<path fill="#2E3192" d="M131.8-367.6H126c0,0,0.8-1.8,1-1.9s0.5-0.5,1.9-0.5c1.4,0,1.8,0.3,1.9,0.5S131.8-367.6,131.8-367.6z"/>
	<path fill="#2E3192" d="M130.6-369h-3.5c0,0,0.3-0.5,0.4-1.2c0-0.5,0-0.8,0-0.8h2.7c0,0-0.1,0.2,0,0.8
		C130.3-369.6,130.6-369,130.6-369z"/>
	<g>
		<path fill="#2E3192" d="M128.9-365.2c2,0,4.5-0.9,5.7-2.3c-1.2-0.9-3.6-1.5-5.7-1.5c-2,0-4.4,0.9-5.6,1.8
			C124.5-365.8,126.8-365.2,128.9-365.2z"/>
	</g>
	<path fill="#2E3192" d="M131.8-374.4c0-2.4-1.3-3.4-2.9-3.4c-1.6,0-2.9,1-2.9,3.4c0,2.4,1.3,4.3,2.9,4.3
		C130.5-370,131.8-372,131.8-374.4z"/>
</g>
<path fill="none" stroke="#2E3192" stroke-width="0.55" stroke-miterlimit="10" d="M135.9-381.5c-2,0-3.6,1.6-3.6,3.6v0
	c0,2,1.6,3.6,3.6,3.6c2,0,3.6-1.6,3.6-3.6v0C139.6-379.9,137.9-381.5,135.9-381.5L135.9-381.5L135.9-381.5z"/>
<path fill="#2E3192" stroke="#2E3192" stroke-width="0.5" stroke-miterlimit="10" d="M137.3-378.1h-1.2v-1.2c0-0.1-0.1-0.2-0.2-0.2
	c-0.1,0-0.2,0.1-0.2,0.2v1.2h-1.2c-0.1,0-0.2,0.1-0.2,0.2c0,0.1,0.1,0.2,0.2,0.2h1.2v1.2c0,0.1,0.1,0.2,0.2,0.2
	c0.1,0,0.2-0.1,0.2-0.2v-1.2h1.2c0.1,0,0.2-0.1,0.2-0.2C137.6-378,137.5-378.1,137.3-378.1z"/>
<path fill="none" d="M120.9-373.4c0,4.4,3.6,8,8,8c4.4,0,8-3.6,8-8c0-0.4,0-0.7-0.1-1.1c-0.3,0.1-0.6,0.2-1,0.2
	c-2,0-3.6-1.6-3.6-3.6c0-0.9,0.3-1.7,0.8-2.3c-1.2-0.7-2.6-1.2-4.2-1.2C124.5-381.4,120.9-377.8,120.9-373.4z"/>
<path fill="#2E3192" d="M137-373.4c0,4.4-3.6,8-8,8c-4.4,0-8-3.6-8-8c0-4.4,3.6-8,8-8c1.5,0,3,0.4,4.2,1.2c0.1-0.2,0.3-0.3,0.4-0.5
	c-1.3-0.8-2.9-1.3-4.6-1.3c-4.8,0-8.7,3.9-8.7,8.7s3.9,8.7,8.7,8.7c4.8,0,8.7-3.9,8.7-8.7c0-0.4,0-0.9-0.1-1.3
	c-0.2,0.1-0.4,0.2-0.6,0.2C136.9-374.1,137-373.7,137-373.4z"/>
<g>
	<path fill="#2E3192" d="M131.6-343.7h-5.8c0,0,0.8-1.8,1-1.9c0.1-0.2,0.5-0.5,1.9-0.5c1.4,0,1.8,0.3,1.9,0.5
		C130.8-345.4,131.6-343.7,131.6-343.7z"/>
	<path fill="#2E3192" d="M130.5-345.1H127c0,0,0.3-0.5,0.4-1.2c0-0.5,0-0.8,0-0.8h2.7c0,0-0.1,0.2,0,0.8
		C130.1-345.6,130.5-345.1,130.5-345.1z"/>
	<g>
		<path fill="#2E3192" d="M128.7-341.2c2,0,4.5-0.9,5.7-2.3c-1.2-0.9-3.6-1.5-5.7-1.5s-4.4,0.9-5.6,1.8
			C124.4-341.8,126.7-341.2,128.7-341.2z"/>
	</g>
	<path fill="#2E3192" d="M131.6-350.4c0-2.4-1.3-3.4-2.9-3.4c-1.6,0-2.9,1-2.9,3.4c0,2.4,1.3,4.3,2.9,4.3
		C130.3-346.1,131.6-348,131.6-350.4z"/>
</g>
<path fill="none" stroke="#2E3192" stroke-width="0.55" stroke-miterlimit="10" d="M135.8-357.6c-2,0-3.6,1.6-3.6,3.6v0
	c0,2,1.6,3.6,3.6,3.6c2,0,3.6-1.6,3.6-3.6v0C139.4-356,137.8-357.6,135.8-357.6L135.8-357.6L135.8-357.6z"/>
<path fill="none" d="M120.7-349.4c0,4.4,3.6,8,8,8c4.4,0,8-3.6,8-8c0-0.4,0-0.7-0.1-1.1c-0.3,0.1-0.6,0.2-1,0.2
	c-2,0-3.6-1.6-3.6-3.6c0-0.9,0.3-1.7,0.8-2.3c-1.2-0.7-2.6-1.2-4.2-1.2C124.3-357.5,120.7-353.9,120.7-349.4z"/>
<path fill="#2E3192" d="M136.8-349.4c0,4.4-3.6,8-8,8c-4.4,0-8-3.6-8-8c0-4.4,3.6-8,8-8c1.5,0,3,0.4,4.2,1.2
	c0.1-0.2,0.3-0.3,0.4-0.5c-1.3-0.8-2.9-1.3-4.6-1.3c-4.8,0-8.7,3.9-8.7,8.7c0,4.8,3.9,8.7,8.7,8.7c4.8,0,8.7-3.9,8.7-8.7
	c0-0.4,0-0.9-0.1-1.3c-0.2,0.1-0.4,0.2-0.6,0.2C136.8-350.2,136.8-349.8,136.8-349.4z"/>
</svg>
