<?xml version="1.0" encoding="utf-8"?>
<!-- Generator: Adobe Illustrator 18.1.1, SVG Export Plug-In . SVG Version: 6.00 Build 0)  -->
<svg version="1.1" id="Layer_1" xmlns="http://www.w3.org/2000/svg" xmlns:xlink="http://www.w3.org/1999/xlink" x="0px" y="0px"
	 viewBox="0 0 20 20" enable-background="new 0 0 20 20" xml:space="preserve">
<path fill="#2E3192" d="M6.8,14.1l0.4-2.9l2.5,2.2L6.8,14.1z M8.9,11C8.9,11.1,8.9,11.1,8.9,11l-1.2-1c0,0,8.6-9.1,8.7-9.4
	c0-0.2-0.1-0.4-0.3-0.5C15.8,0,15.4,0,15.4,0H2C0.9,0,0,0.9,0,2v15.6c0,1.1,0.9,2,2,2h15.9c1.1,0,2-0.9,2-2V4.1c0,0,0,0,0,0
	c0-0.2-0.1-0.4-0.2-0.5c-0.1-0.1-0.3-0.4-0.5-0.4c-0.3,0-8.4,9.6-8.4,9.6l-1.1-1c0,0,0,0,0,0 M18.9,17.6c0,0.6-0.5,1-1,1H2
	c-0.6,0-1-0.5-1-1V2c0-0.6,0.5-1,1-1h12.2L6.5,9.7C6.4,9.8,6.3,9.9,6.3,10l-0.7,4.7c0,0.2,0,0.4,0.2,0.5c0.1,0.1,0.3,0.1,0.4,0.1
	c0,0,0.1,0,0.1,0L11,14c0.1,0,0.2-0.1,0.3-0.2l7.7-8.5L18.9,17.6L18.9,17.6z"/>
</svg>
