<?xml version="1.0" encoding="utf-8"?>
<!-- Generator: Adobe Illustrator 18.1.1, SVG Export Plug-In . SVG Version: 6.00 Build 0)  -->
<svg version="1.1" id="Layer_1" xmlns="http://www.w3.org/2000/svg" xmlns:xlink="http://www.w3.org/1999/xlink" x="0px" y="0px"
	 viewBox="0 0 20 20" enable-background="new 0 0 20 20" xml:space="preserve">
<path fill="#2E368F" stroke="#2E368F" stroke-width="0.75" stroke-miterlimit="10" d="M319.6,78.5l4-4c0.1-0.1,0.1-0.2,0-0.3
	s-0.2-0.1-0.3,0l-4,4l-4-4c-0.1-0.1-0.2-0.1-0.3,0s-0.1,0.2,0,0.3l4,4l-4,4c-0.1,0.1-0.1,0.2,0,0.3c0,0,0.1,0.1,0.2,0.1
	s0.1,0,0.2-0.1l4-4l4,4c0,0,0.1,0.1,0.2,0.1s0.1,0,0.2-0.1c0.1-0.1,0.1-0.2,0-0.3L319.6,78.5z"/>
<path fill="#2E368F" stroke="#2E368F" stroke-width="0.75" stroke-miterlimit="10" d="M402.3,34.6c0.1-0.1,0.1-0.2,0-0.3
	s-0.2-0.1-0.3,0l-1.8,1.8l0.3,0.3L402.3,34.6z"/>
<path fill="#2E368F" stroke="#2E368F" stroke-width="0.75" stroke-miterlimit="10" d="M402,42.5c0,0,0.1,0.1,0.2,0.1
	c0.1,0,0.1,0,0.2-0.1c0.1-0.1,0.1-0.2,0-0.3l-2.2-2.2l-0.3,0.3L402,42.5z"/>
<path fill="#2E368F" stroke="#2E368F" stroke-width="0.75" stroke-miterlimit="10" d="M398.5,38.4l0.3-0.3l-0.3-0.3l-0.3,0.3
	l-3.8-3.8c-0.1-0.1-0.2-0.1-0.3,0c-0.1,0.1-0.1,0.2,0,0.3l3.8,3.8l-3.8,3.8c-0.1,0.1-0.1,0.2,0,0.3c0,0,0.1,0.1,0.2,0.1
	c0.1,0,0.1,0,0.2-0.1l3.8-3.8l1.3,1.3l0.3-0.3L398.5,38.4z"/>
<path fill="#2E368F" stroke="#2E368F" stroke-width="0.75" stroke-miterlimit="10" d="M396.9,42.5c-0.1,0.1-0.1,0.2,0,0.3
	c0,0,0.1,0.1,0.2,0.1c0.1,0,0.1,0,0.2-0.1l1.9-1.9l-0.3-0.3L396.9,42.5z"/>
<path fill="#2E368F" stroke="#2E368F" stroke-width="0.75" stroke-miterlimit="10" d="M397.2,34.5c-0.1-0.1-0.2-0.1-0.3,0
	c-0.1,0.1-0.1,0.2,0,0.3l2.2,2.2l0.3-0.3L397.2,34.5z"/>
<path fill="#2E368F" stroke="#2E368F" stroke-width="0.75" stroke-miterlimit="10" d="M401.4,38.7l3.8-3.8c0.1-0.1,0.1-0.2,0-0.3
	c-0.1-0.1-0.2-0.1-0.3,0l-3.8,3.8l-1.3-1.3l-0.3,0.3l1.3,1.3l-0.4,0.4l0.3,0.3l0.4-0.4l3.8,3.8c0,0,0.1,0.1,0.2,0.1
	c0.1,0,0.1,0,0.2-0.1c0.1-0.1,0.1-0.2,0-0.3L401.4,38.7z"/>
<rect x="399.5" y="39.8" transform="matrix(-0.7072 -0.707 0.707 -0.7072 654.2082 350.9144)" fill="#2E368F" stroke="#2E368F" stroke-width="0.75" stroke-miterlimit="10" width="0.5" height="0.5"/>
<rect x="399.2" y="36.8" transform="matrix(0.7067 0.7075 -0.7075 0.7067 143.4021 -271.7553)" fill="#2E368F" stroke="#2E368F" stroke-width="0.75" stroke-miterlimit="10" width="0.5" height="0.5"/>
<g>
	<path fill="#2E368F" stroke="#2E368F" stroke-width="0.45" stroke-miterlimit="10" d="M245.7-4.8h-2.4c0.1-0.2,0.2-0.5,0.2-0.8v-2
		c0-1.8-1.5-3.3-3.3-3.3h-2.5c-1.8,0-3.3,1.5-3.3,3.3v2c0,0.3,0.1,0.6,0.2,0.8h-2.4c-1,0-1.8,0.8-1.8,1.8v8.3c0,1,0.8,1.8,1.8,1.8
		h13.5c1,0,1.8-0.8,1.8-1.8V-3C247.5-4,246.7-4.8,245.7-4.8z M235.3-5.6v-2c0-1.3,1.1-2.3,2.3-2.3h2.5c1.3,0,2.3,1.1,2.3,2.3v2
		c0,0.4-0.4,0.8-0.8,0.8h-5.6C235.7-4.8,235.3-5.2,235.3-5.6z M246.5,5.3c0,0.4-0.4,0.8-0.8,0.8h-13.5c-0.4,0-0.8-0.4-0.8-0.8V-3
		c0-0.4,0.4-0.8,0.8-0.8h4h5.6h4c0.4,0,0.8,0.4,0.8,0.8V5.3z"/>
	<path fill="#2E368F" stroke="#2E368F" stroke-width="0.45" stroke-miterlimit="10" d="M238.9-1.4c-1,0-1.9,0.8-1.9,1.9
		c0,0.9,0.6,1.6,1.4,1.8v1.6c0,0.3,0.2,0.5,0.5,0.5c0.3,0,0.5-0.2,0.5-0.5V2.3c0.8-0.2,1.4-0.9,1.4-1.8C240.8-0.6,240-1.4,238.9-1.4
		z M238.9,1.4c-0.5,0-0.9-0.4-0.9-0.9s0.4-0.9,0.9-0.9s0.9,0.4,0.9,0.9S239.4,1.4,238.9,1.4z"/>
</g>
<g>
	<path fill="#2E368F" stroke="#2E368F" stroke-width="0.45" stroke-miterlimit="10" d="M286.8-3.9h-2.4c0.1-0.2,0.2-0.5,0.2-0.8v-2
		c0-1.8-1.5-3.3-3.3-3.3h-2.5c-1.8,0-3.3,1.5-3.3,3.3c0,0.3,0.2,0.5,0.5,0.5s0.5-0.2,0.5-0.5c0-1.3,1.1-2.3,2.3-2.3h2.5
		c1.3,0,2.3,1.1,2.3,2.3v2c0,0.4-0.4,0.8-0.8,0.8h-5.6h-4c-1,0-1.8,0.8-1.8,1.8v8.3c0,1,0.8,1.8,1.8,1.8h13.5c1,0,1.8-0.8,1.8-1.8
		v-8.3C288.6-3.1,287.8-3.9,286.8-3.9z M287.6,6.2c0,0.4-0.4,0.8-0.8,0.8h-13.5c-0.4,0-0.8-0.4-0.8-0.8v-8.3c0-0.4,0.4-0.8,0.8-0.8
		h4h5.6h4c0.4,0,0.8,0.4,0.8,0.8V6.2z"/>
	<path fill="#2E368F" stroke="#2E368F" stroke-width="0.45" stroke-miterlimit="10" d="M280-0.5c-1,0-1.9,0.8-1.9,1.9
		c0,0.9,0.6,1.6,1.4,1.8v1.6c0,0.3,0.2,0.5,0.5,0.5s0.5-0.2,0.5-0.5V3.2c0.8-0.2,1.4-0.9,1.4-1.8C281.9,0.3,281.1-0.5,280-0.5z
		 M280,2.3c-0.5,0-0.9-0.4-0.9-0.9s0.4-0.9,0.9-0.9c0.5,0,0.9,0.4,0.9,0.9S280.5,2.3,280,2.3z"/>
</g>
<path fill="#2E368F" d="M126.7-10.6h-14.4c-1,0-1.8,0.8-1.8,1.8V5.7c0,1,0.8,1.8,1.8,1.8h14.4c1,0,1.8-0.8,1.8-1.8V-8.7
	C128.5-9.7,127.7-10.6,126.7-10.6z M124.3-3.9c0,0-5.8,5.8-5.8,5.8c-0.3,0.3-0.5,0.2-0.8,0L115-1c-0.3-0.3-0.3-0.5,0-0.8
	c0.3-0.3,0.5-0.3,0.8,0l2.4,2.4l5.3-5.4c0.3-0.3,0.5-0.3,0.8,0C124.6-4.4,124.6-4.2,124.3-3.9z"/>
<path fill="#2E368F" stroke="#2E368F" stroke-width="0.5" stroke-miterlimit="10" d="M86.6,70.5c0.4,0,0.8,0.4,0.8,0.8v14.3
	c0,0.4-0.4,0.8-0.8,0.8H72.3c-0.4,0-0.8-0.4-0.8-0.8V71.3c0-0.4,0.4-0.8,0.8-0.8L86.6,70.5 M86.6,69.4H72.3c-1,0-1.9,0.8-1.9,1.9
	v14.3c0,1,0.8,1.9,1.9,1.9h14.3c1,0,1.9-0.8,1.9-1.9V71.3C88.5,70.2,87.6,69.4,86.6,69.4L86.6,69.4z"/>
<path fill="#2E368F" stroke="#2E368F" stroke-miterlimit="10" d="M405.6-41.3c0.1-0.1,0.1-0.2,0.1-0.3c0-0.1,0-0.2-0.1-0.3l-8.2-8.2
	c-0.2-0.2-0.5-0.2-0.6,0s-0.2,0.5,0,0.6l7.8,7.8l-7.8,7.8c-0.2,0.2-0.2,0.5,0,0.6c0.2,0.2,0.5,0.2,0.6,0L405.6-41.3z"/>
<path fill="#2E368F" stroke="#2E368F" stroke-miterlimit="10" d="M120.1,74.4c-0.1-0.1-0.2-0.1-0.3-0.1c-0.1,0-0.2,0-0.3,0.1
	l-8.2,8.2c-0.2,0.2-0.2,0.5,0,0.6c0.2,0.2,0.5,0.2,0.6,0l7.8-7.8l7.8,7.8c0.2,0.2,0.5,0.2,0.6,0c0.2-0.2,0.2-0.5,0-0.6L120.1,74.4z"
	/>
<path fill="#2E368F" stroke="#2E368F" stroke-miterlimit="10" d="M279.1,43.3c0.1,0.1,0.2,0.1,0.3,0.1c0.1,0,0.2,0,0.3-0.1l8.2-8.2
	c0.2-0.2,0.2-0.5,0-0.6c-0.2-0.2-0.5-0.2-0.6,0l-7.8,7.8l-7.8-7.8c-0.2-0.2-0.5-0.2-0.6,0c-0.2,0.2-0.2,0.5,0,0.6L279.1,43.3z"/>
<g transform="matrix( 1, 0, 0, 1, 0,0) ">
	<g>
		<g id="a_3_">
			<path fill="#2E368F" stroke="#2E368F" stroke-width="0.5" stroke-miterlimit="10" d="M149.9,33.9V41c0,0.9,0.3,1.7,1,2.4
				c0.7,0.7,1.5,1,2.4,1v2.6c0,0.1,0,0.2,0.1,0.3c0,0.1,0.1,0.1,0.2,0.2c0.1,0,0.1,0,0.2,0c0.1,0,0.2,0,0.3-0.1l3-2.9h8.3
				c1,0,1.8-0.3,2.5-1c0.7-0.7,1-1.5,1-2.4v-7.2c0-1-0.3-1.8-1-2.4c-0.7-0.7-1.5-1-2.5-1h-12.1c-1,0-1.8,0.3-2.5,1
				C150.3,32.1,149.9,32.9,149.9,33.9 M153.4,31.3h12.1c0.7,0,1.3,0.2,1.8,0.7c0.5,0.5,0.8,1.1,0.8,1.8V41c0,0.7-0.3,1.3-0.8,1.8
				c-0.5,0.5-1.1,0.8-1.8,0.8H157c-0.1,0-0.2,0-0.3,0.1l-2.3,2.3v-2c0-0.1,0-0.2-0.1-0.3c-0.1-0.1-0.2-0.1-0.3-0.1h-0.4
				c-0.7,0-1.3-0.3-1.8-0.8c-0.5-0.5-0.8-1.1-0.8-1.8v-7.2c0-0.7,0.3-1.3,0.8-1.8C152.1,31.6,152.7,31.3,153.4,31.3z"/>
			<path fill="#2E368F" stroke="#2E368F" stroke-width="0.5" stroke-miterlimit="10" d="M164.7,38.3c0.2-0.2,0.4-0.5,0.4-0.8
				c0-0.3-0.1-0.6-0.4-0.8c-0.2-0.2-0.5-0.4-0.9-0.4s-0.6,0.1-0.9,0.4c-0.2,0.2-0.4,0.5-0.4,0.8c0,0.3,0.1,0.6,0.4,0.8
				c0.2,0.2,0.5,0.3,0.9,0.3S164.4,38.5,164.7,38.3 M156.4,37.4c0-0.3-0.1-0.6-0.4-0.8c-0.2-0.2-0.5-0.4-0.9-0.4
				c-0.3,0-0.6,0.1-0.9,0.4c-0.2,0.2-0.4,0.5-0.4,0.8c0,0.3,0.1,0.6,0.4,0.8c0.2,0.2,0.5,0.3,0.9,0.3c0.3,0,0.6-0.1,0.9-0.3
				C156.2,38,156.4,37.8,156.4,37.4 M158.6,36.6c-0.2,0.2-0.4,0.5-0.4,0.8c0,0.3,0.1,0.6,0.4,0.8c0.2,0.2,0.5,0.3,0.9,0.3
				c0.3,0,0.6-0.1,0.9-0.3c0.2-0.2,0.4-0.5,0.4-0.8c0-0.3-0.1-0.6-0.4-0.8c-0.2-0.2-0.5-0.4-0.9-0.4
				C159.1,36.3,158.9,36.4,158.6,36.6z"/>
		</g>
	</g>
</g>
<path fill="#2E368F" stroke="#2E368F" stroke-width="0.45" stroke-miterlimit="10" d="M43.1,85.9h-2v2H29.9V72.8h2v-2h2v-2h11.1
	v15.2h-2L43.1,85.9L43.1,85.9z M40.5,73.3H30.4v14.2h10.1V73.3z M31.9,75.3v-0.5H39v0.5H31.9z M31.9,77.3v-0.5H39v0.5H31.9z
	 M31.9,79.3v-0.5H39v0.5H31.9z M31.9,81.4v-0.5H39v0.5H31.9z M31.9,83.4v-0.5H39v0.5H31.9z M31.9,85.4v-0.5H39v0.5H31.9z M32.4,71.2
	v1.5H41v12.6h1.5V71.2H32.4z M34.5,69.2v1.5h8.6v12.6h1.5V69.2H34.5z"/>
<path fill="#2E368F" d="M118.9,108.6c0,0-0.1,0-0.1,0.1l-5.2,8.4c-0.1,0.1,0,0.2,0.1,0.2h10.4c0.1,0,0.2-0.1,0.1-0.2l-5.2-8.4
	C119,108.6,118.9,108.6,118.9,108.6L118.9,108.6z M113.7,119c-0.1,0-0.2,0.1-0.1,0.2l5.2,8.4c0.1,0.1,0.2,0.1,0.2,0l5.2-8.4
	c0.1-0.1,0-0.2-0.1-0.2H113.7L113.7,119z"/>
<path fill="#2E368F" stroke="#2E368F" stroke-width="0.75" stroke-miterlimit="10" d="M399.2,29c-5.3,0-9.6,4.3-9.6,9.6
	s4.3,9.6,9.6,9.6c5.3,0,9.6-4.3,9.6-9.6S404.5,29,399.2,29z M399.2,47.3c-4.8,0-8.7-3.9-8.7-8.7s3.9-8.7,8.7-8.7
	c4.8,0,8.7,3.9,8.7,8.7S404,47.3,399.2,47.3z"/>
<g>
	<path fill="#2E368F" stroke="#2E368F" stroke-width="0.75" stroke-miterlimit="10" d="M199,78.7c-1.9,0-3.5,1.2-4.1,2.9h0.4
		c0.6-1.6,1.9-2.5,3.7-2.5c2.1,0,3.9,1.8,3.9,3.9s-1.8,3.9-3.9,3.9c-1.6,0-2.9-1-3.5-2.3h-0.4c0.6,1.6,2.1,2.7,3.9,2.7
		c2.3,0,4.3-1.9,4.3-4.3C203.3,80.6,201.3,78.7,199,78.7z"/>
	<path fill="#2E368F" stroke="#2E368F" stroke-width="0.75" stroke-miterlimit="10" d="M199,80.2v3.3h2.5v0.4h-2.9
		c0-1.2,0-2.7,0-3.7L199,80.2z"/>
</g>
<path fill="#2E368F" stroke="#2E368F" stroke-miterlimit="10" d="M167.9,78.6c-0.2,0-0.3,0.1-0.3,0.3v5c0,1.6-1.3,2.9-2.9,2.9h-10.6
	c-1.6,0-2.9-1.3-2.9-2.9v-8.4v-2.2c0-1.6,1.3-2.9,2.9-2.9h4.9c0.2,0,0.3-0.1,0.3-0.3s-0.1-0.3-0.3-0.3h-4.9c-1.9,0-3.5,1.6-3.5,3.5
	v2.2v8.4c0,1.9,1.6,3.5,3.5,3.5h10.6c1.9,0,3.5-1.6,3.5-3.5v-5C168.1,78.7,168,78.6,167.9,78.6z"/>
<g>
	<g>
		<path fill="#2E368F" d="M168.4,69.6c0.6,0.6,0.6,1.5,0,2.1l-0.7,0.7l-2.1-2.1l0.7-0.7C167,69,167.9,69,168.4,69.6z"/>
		<polygon fill="#2E368F" points="158.2,77.8 157.5,80.5 160.2,79.9 167.1,73 165,71 		"/>
	</g>
</g>
<g>
	<g>
		<path fill="#2E368F" d="M13.1,11.6c0.3,0.3,0.3,0.7,0,0.9l-0.3,0.3l-0.9-0.9l0.3-0.3C12.4,11.3,12.8,11.3,13.1,11.6z"/>
		<polygon fill="#2E368F" points="8.5,15.2 8.2,16.4 9.5,16.1 12.5,13.1 11.6,12.2 		"/>
	</g>
</g>
<path fill="#2E368F" stroke="#2E368F" stroke-miterlimit="10" d="M-76,87.2c0-0.2-0.1-0.3-0.3-0.3h-5.2c-1.7,0-3-1.4-3-3V72.9
	c0-1.7,1.4-3,3-3h8.7h2.3c1.7,0,3,1.4,3,3V78c0,0.2,0.1,0.3,0.3,0.3c0.2,0,0.3-0.1,0.3-0.3v-5.1c0-2-1.6-3.6-3.6-3.6h-2.3h-8.7
	c-2,0-3.6,1.6-3.6,3.6v10.9c0,2,1.6,3.6,3.6,3.6h5.2C-76.1,87.4-76,87.3-76,87.2z"/>
<path fill="#2E368F" stroke="#2E368F" stroke-width="0.75" stroke-miterlimit="10" d="M327.8,118.8c-0.2,0-0.3,0.1-0.3,0.3v5
	c0,1.6-1.3,2.9-2.9,2.9h-10.5c-1.6,0-2.9-1.3-2.9-2.9v-8.4v-2.2c0-1.6,1.3-2.9,2.9-2.9h4.9c0.2,0,0.3-0.1,0.3-0.3
	c0-0.2-0.1-0.3-0.3-0.3h-4.9c-1.9,0-3.5,1.5-3.5,3.5v2.2v8.4c0,1.9,1.5,3.5,3.5,3.5h10.5c1.9,0,3.5-1.5,3.5-3.5v-5
	C328.1,118.9,328,118.8,327.8,118.8z"/>
<path fill="#2E368F" stroke="#2E368F" stroke-width="0.75" stroke-miterlimit="10" d="M288.4-41.6c-0.2,0-0.3,0.1-0.3,0.3v5.3
	c0,1.7-1.4,3.1-3.1,3.1h-11.3c-1.7,0-3.1-1.4-3.1-3.1v-9v-2.3c0-1.7,1.4-3.1,3.1-3.1h5.3c0.2,0,0.3-0.1,0.3-0.3
	c0-0.2-0.1-0.3-0.3-0.3h-5.3c-2,0-3.7,1.7-3.7,3.7v2.3v9c0,2,1.7,3.7,3.7,3.7h11.3c2,0,3.7-1.7,3.7-3.7v-5.3
	C288.6-41.5,288.5-41.6,288.4-41.6z"/>
<g>
	<path fill="#2E368F" d="M289-51.2c0.6,0.6,0.6,1.6,0,2.2l-0.7,0.7l-2.2-2.2l0.7-0.7C287.4-51.8,288.4-51.8,289-51.2z"/>
	<polygon fill="#2E368F" points="278,-42.4 277.3,-39.5 280.2,-40.2 287.5,-47.5 285.3,-49.7 	"/>
</g>
<path fill="#2E368F" stroke="#2E368F" stroke-width="0.75" stroke-miterlimit="10" d="M207.4-42.5h-7.1v-7.1c0-0.5-0.4-0.8-0.8-0.8
	c-0.5,0-0.8,0.4-0.8,0.8v7.1h-7.1c-0.5,0-0.8,0.4-0.8,0.8c0,0.5,0.4,0.8,0.8,0.8h7.1v7.1c0,0.5,0.4,0.8,0.8,0.8
	c0.5,0,0.8-0.4,0.8-0.8v-7.1h7.1c0.5,0,0.8-0.4,0.8-0.8C208.3-42.1,207.9-42.5,207.4-42.5z"/>
<path fill="#2E368F" stroke="#2E368F" stroke-width="0.75" stroke-miterlimit="10" d="M168.3-33.4l-4.2-4.2c2.7-3,2.6-7.7-0.3-10.6
	c-3-3-7.9-3-11,0c-3,3-3,7.9,0,11c1.5,1.5,3.5,2.3,5.5,2.3c1.8,0,3.7-0.7,5.1-2l4.2,4.2c0.1,0.1,0.2,0.1,0.3,0.1
	c0.1,0,0.2,0,0.3-0.1C168.5-32.9,168.5-33.2,168.3-33.4z M153.4-37.9c-2.7-2.7-2.7-7,0-9.7c1.3-1.3,3.1-2,4.8-2s3.5,0.7,4.8,2
	c2.7,2.7,2.7,7,0,9.7C160.5-35.3,156.1-35.3,153.4-37.9z"/>
<path fill="#2E368F" stroke="#2E368F" stroke-width="0.75" stroke-miterlimit="10" d="M244.3,86.5l-2.1-2.1c1.4-1.5,1.3-3.9-0.2-5.4
	c-1.5-1.5-4-1.5-5.5,0c-1.5,1.5-1.5,4,0,5.5c0.8,0.8,1.8,1.1,2.8,1.1c0.9,0,1.9-0.3,2.6-1l2.1,2.1c0,0,0.1,0.1,0.2,0.1
	s0.1,0,0.2-0.1C244.4,86.7,244.4,86.6,244.3,86.5z M236.8,84.2c-1.3-1.3-1.3-3.5,0-4.9c0.7-0.7,1.6-1,2.4-1c0.9,0,1.8,0.3,2.4,1
	c1.3,1.3,1.3,3.5,0,4.9C240.3,85.6,238.1,85.6,236.8,84.2z"/>
<path fill="#2E368F" stroke="#2E368F" stroke-width="0.75" stroke-miterlimit="10" d="M39.4-50.8c-5,0-9.1,4.1-9.1,9.1
	c0,5,4.1,9.1,9.1,9.1s9.1-4.1,9.1-9.1C48.6-46.7,44.5-50.8,39.4-50.8z M39.4-33.3c-4.6,0-8.3-3.7-8.3-8.3c0-4.6,3.7-8.3,8.3-8.3
	s8.3,3.7,8.3,8.3C47.8-37,44-33.3,39.4-33.3z"/>
<path fill="#2E368F" stroke="#2E368F" stroke-miterlimit="10" d="M247.9-49.5v4.6c0,0.1-0.1,0.2-0.2,0.2s-0.2-0.1-0.2-0.2v-4
	l-7.8,7.8c0,0-0.1,0.1-0.2,0.1c0,0-0.1,0-0.2-0.1c-0.1-0.1-0.1-0.2,0-0.3l7.8-7.8h-4c-0.1,0-0.2-0.1-0.2-0.2s0.1-0.2,0.2-0.2h4.6
	C247.8-49.8,247.9-49.7,247.9-49.5z"/>
<path fill="#2E368F" stroke="#2E368F" stroke-width="0.75" stroke-miterlimit="10" d="M247.2-41.3c-0.1,0-0.2,0.1-0.2,0.2v4.6
	c0,1.5-1.2,2.7-2.7,2.7h-9.8c-1.5,0-2.7-1.2-2.7-2.7v-7.8v-2c0-1.5,1.2-2.7,2.7-2.7h4.6c0.1,0,0.2-0.1,0.2-0.2s-0.1-0.2-0.2-0.2
	h-4.6c-1.8,0-3.2,1.4-3.2,3.2v2v7.8c0,1.8,1.4,3.2,3.2,3.2h9.8c1.8,0,3.2-1.4,3.2-3.2v-4.6C247.5-41.2,247.4-41.3,247.2-41.3z"/>
<path fill="#2E368F" stroke="#2E368F" stroke-miterlimit="10" d="M-10.4,1.9v4.3c0,0.1-0.1,0.2-0.2,0.2s-0.2-0.1-0.2-0.2V2.5
	l-7.4,7.4c0,0-0.1,0.1-0.2,0.1c0,0-0.1,0-0.2-0.1c-0.1-0.1-0.1-0.2,0-0.3l7.4-7.4H-15c-0.1,0-0.2-0.1-0.2-0.2s0.1-0.2,0.2-0.2h4.3
	C-10.5,1.7-10.4,1.8-10.4,1.9z"/>
<path fill="#2E368F" stroke="#2E368F" stroke-width="0.75" stroke-miterlimit="10" d="M-13.1,11.9c-0.1,0-0.2,0.1-0.2,0.2v4.4
	c0,1.4-1.2,2.6-2.6,2.6h-9.4c-1.4,0-2.6-1.2-2.6-2.6V9.1V7.2c0-1.4,1.2-2.6,2.6-2.6h4.4c0.1,0,0.2-0.1,0.2-0.2s-0.1-0.2-0.2-0.2
	h-4.4c-1.7,0-3.1,1.4-3.1,3.1v1.9v7.5c0,1.7,1.4,3.1,3.1,3.1h9.4c1.7,0,3.1-1.4,3.1-3.1v-4.4C-12.9,12-12.9,11.9-13.1,11.9z"/>
<path fill="#2E368F" stroke="#2E368F" stroke-width="0.5" stroke-miterlimit="10" d="M88.8-37.8v-7.9c0-0.2,0.1-1.8-0.5-2.5
	c-0.4-0.5-1.2-0.6-2-0.6h-0.4c-0.1,0-0.3,0-0.6,0v-0.7c0-0.2-0.2-0.4-0.4-0.4s-0.4,0.2-0.4,0.4v0.8c-2.5,0-8,0-10.5,0v-0.8
	c0-0.2-0.2-0.4-0.4-0.4s-0.2,0.2-0.2,0.4v0.8c-0.3,0-0.5,0-0.6,0h-0.3c-0.9,0-1.7,0-2,0.6c-0.6,0.6-0.5,2.2-0.5,2.4v11.6
	c0,0.2,0.2,0.4,0.4,0.4h14.5c0.1,0,0.2,0,0.3-0.1l0,0l3.6-3.7l0,0l0,0l0,0c0,0,0,0,0-0.1C88.8-37.7,88.8-37.7,88.8-37.8z M71-47.7
	c0.2-0.3,0.9-0.3,1.6-0.3H73c0.1,0,0.3,0,0.6,0v0.5c0,0.2,0.2,0.4,0.4,0.4c0.2,0,0.3-0.2,0.3-0.4V-48c2.5,0,8,0,10.5,0v0.5
	c0,0.2,0.2,0.4,0.4,0.4c0.2,0,0.4-0.2,0.4-0.4V-48c0.3,0,0.5,0,0.6,0h0.4c0.7,0,1.3,0,1.6,0.3c0.1,0.3,0.1,1.1,0.1,1.7H70.7
	C70.7-46.7,70.8-47.4,71-47.7z M70.7-45.3h17.4v7.2h-3.3c-0.2,0-0.4,0.2-0.4,0.4v3.4H70.7V-45.3z M87.6-37.4l-2.4,2.5v-2.5H87.6z"/>
<g>
	<rect x="74.4" y="-43.4" fill="#2E368F" width="1.9" height="1.4"/>
	<rect x="77.1" y="-43.4" fill="#2E368F" width="1.9" height="1.4"/>
	<rect x="79.9" y="-43.4" fill="#2E368F" width="1.9" height="1.4"/>
	<rect x="82.5" y="-43.4" fill="#2E368F" width="1.9" height="1.4"/>
	<rect x="74.4" y="-41.2" fill="#2E368F" width="1.9" height="1.4"/>
	<rect x="77.1" y="-41.2" fill="#2E368F" width="1.9" height="1.4"/>
	<rect x="79.9" y="-41.2" fill="#2E368F" width="1.9" height="1.4"/>
	<rect x="82.5" y="-41.2" fill="#2E368F" width="1.9" height="1.4"/>
	<rect x="74.4" y="-39" fill="#2E368F" width="1.9" height="1.4"/>
	<rect x="77.1" y="-39" fill="#2E368F" width="1.9" height="1.4"/>
	<rect x="79.9" y="-39" fill="#2E368F" width="1.9" height="1.4"/>
	<rect x="82.5" y="-39" fill="#2E368F" width="1.9" height="1.4"/>
</g>
<g>
	<g>
		<path fill="#EF3C24" d="M120-50.5c-0.1-0.2-0.3-0.3-0.5-0.3c-0.2,0-0.4,0.1-0.5,0.3l-9.2,16c-0.1,0.2-0.1,0.4,0,0.6
			c0.1,0.2,0.3,0.3,0.5,0.3h18.5l0,0c0.3,0,0.6-0.3,0.6-0.6c0-0.1,0-0.3-0.1-0.4L120-50.5z M111.3-34.8l8.1-14.1l8.1,14.1H111.3z"/>
		<path fill="#EF3C24" d="M118.8-44.5v4.9c0,0.3,0.3,0.6,0.6,0.6s0.6-0.3,0.6-0.6v-4.9c0-0.3-0.3-0.6-0.6-0.6S118.8-44.9,118.8-44.5
			z"/>
		<path fill="#EF3C24" d="M119.4-38.2c-0.3,0-0.6,0.3-0.6,0.6v0.4c0,0.3,0.3,0.6,0.6,0.6s0.6-0.3,0.6-0.6v-0.4
			C120.1-37.9,119.8-38.2,119.4-38.2z"/>
	</g>
</g>
<g>
	<g>
		<path fill="#F26722" d="M39.6-90.4c-0.1-0.2-0.3-0.3-0.5-0.3c-0.2,0-0.4,0.1-0.5,0.3l-9.2,16c-0.1,0.2-0.1,0.4,0,0.6
			c0.1,0.2,0.3,0.3,0.5,0.3h18.5l0,0c0.3,0,0.6-0.3,0.6-0.6c0-0.1,0-0.3-0.1-0.4L39.6-90.4z M30.9-74.7L39-88.8l8.1,14.1H30.9z"/>
		<path fill="#F26722" d="M38.4-84.5v4.9c0,0.3,0.3,0.6,0.6,0.6c0.3,0,0.6-0.3,0.6-0.6v-4.9c0-0.3-0.3-0.6-0.6-0.6
			C38.7-85.1,38.4-84.8,38.4-84.5z"/>
		<path fill="#F26722" d="M39-78.1c-0.3,0-0.6,0.3-0.6,0.6v0.4c0,0.3,0.3,0.6,0.6,0.6s0.6-0.3,0.6-0.6v-0.4
			C39.6-77.8,39.4-78.1,39-78.1z"/>
	</g>
</g>
<polygon fill="#2E368F" points="34.6,-41.9 37,-41.9 37,-38.3 41.8,-38.3 41.8,-41.9 44.2,-41.9 39.4,-46.7 "/>
<path fill="#2E368F" stroke="#2E368F" stroke-width="0.75" stroke-miterlimit="10" d="M319.3,69.3c-5.1,0-9.2,4.1-9.2,9.2
	c0,5.1,4.1,9.2,9.2,9.2c5.1,0,9.2-4.1,9.2-9.2C328.4,73.4,324.3,69.3,319.3,69.3z M319.3,86.8c-4.6,0-8.4-3.8-8.4-8.4
	c0-4.6,3.8-8.4,8.4-8.4c4.6,0,8.4,3.8,8.4,8.4C327.6,83.1,323.9,86.8,319.3,86.8z"/>
<path fill="#2E368F" stroke="#2E368F" stroke-width="0.75" stroke-miterlimit="10" d="M399.4,69.3c-5.1,0-9.2,4.1-9.2,9.2
	c0,5.1,4.1,9.2,9.2,9.2s9.2-4.1,9.2-9.2C408.6,73.4,404.5,69.3,399.4,69.3z M399.4,86.8c-4.6,0-8.4-3.8-8.4-8.4
	c0-4.6,3.8-8.4,8.4-8.4s8.4,3.8,8.4,8.4C407.8,83.1,404,86.8,399.4,86.8z"/>
<path fill="#2E368F" stroke="#2E368F" stroke-width="0.75" stroke-miterlimit="10" d="M40.2,42.5l1.9-1.9c0,0,0-0.1,0-0.2
	c0,0-0.1,0-0.2,0L40,42.3l-1.9-1.9c0,0-0.1,0-0.2,0c0,0,0,0.1,0,0.2l1.9,1.9L38,44.3c0,0,0,0.1,0,0.2c0,0,0.1,0,0.1,0
	c0,0,0.1,0,0.1,0l1.9-1.9l1.9,1.9c0,0,0.1,0,0.1,0c0,0,0.1,0,0.1,0c0,0,0-0.1,0-0.2L40.2,42.5z"/>
<path fill="#2E368F" stroke="#2E368F" stroke-width="0.75" stroke-miterlimit="10" d="M40.1,37.6c-2.7,0-4.8,2.2-4.8,4.8
	c0,2.7,2.2,4.8,4.8,4.8s4.8-2.2,4.8-4.8C44.9,39.8,42.7,37.6,40.1,37.6z M40.1,46.9c-2.4,0-4.4-2-4.4-4.4c0-2.4,2-4.4,4.4-4.4
	s4.4,2,4.4,4.4C44.5,44.9,42.5,46.9,40.1,46.9z"/>
<rect x="79" y="-10.2" transform="matrix(-0.5425 -0.8401 0.8401 -0.5425 123.8746 64.183)" fill="#2E368F" stroke="#2E368F" stroke-width="0.75" stroke-miterlimit="10" width="0.8" height="17.2"/>
<path fill="#2E368F" stroke="#2E368F" stroke-width="0.75" stroke-miterlimit="10" d="M79.3-10.6c-4.8,0-8.8,3.9-8.8,8.8
	c0,4.8,3.9,8.8,8.8,8.8c4.8,0,8.8-3.9,8.8-8.8C88.1-6.7,84.2-10.6,79.3-10.6z M79.3,6.2c-4.4,0-8-3.6-8-8c0-4.4,3.6-8,8-8
	c4.4,0,8,3.6,8,8C87.3,2.6,83.7,6.2,79.3,6.2z"/>
<g>
	<path fill="#2E368F" stroke="#2E368F" stroke-width="0.75" stroke-miterlimit="10" d="M319.6,44c0.3,0,0.5-0.2,0.5-0.5v-7.1
		c0-0.3-0.2-0.5-0.5-0.5s-0.5,0.2-0.5,0.5v7.1C319.1,43.8,319.3,44,319.6,44z"/>
	<path fill="#2E368F" stroke="#2E368F" stroke-width="0.75" stroke-miterlimit="10" d="M319.5,34.5c0.3,0,0.5-0.2,0.5-0.5v-1
		c0-0.3-0.2-0.5-0.5-0.5S319,32.8,319,33v1C319,34.3,319.2,34.5,319.5,34.5z"/>
</g>
<path fill="#2E368F" stroke="#2E368F" stroke-width="0.75" stroke-miterlimit="10" d="M319.5,29.4c-4.9,0-8.9,4-8.9,8.9
	c0,4.9,4,8.9,8.9,8.9s8.9-4,8.9-8.9C328.4,33.4,324.5,29.4,319.5,29.4z M319.5,46.4c-4.5,0-8.1-3.6-8.1-8.1c0-4.5,3.6-8.1,8.1-8.1
	s8.1,3.6,8.1,8.1C327.7,42.7,324,46.4,319.5,46.4z"/>
<path fill="#2E368F" stroke="#2E368F" stroke-width="0.75" stroke-miterlimit="10" d="M199.6,29.3c-5.2,0-9.4,4.2-9.4,9.4
	c0,5.2,4.2,9.4,9.4,9.4c5.2,0,9.4-4.2,9.4-9.4C208.9,33.5,204.7,29.3,199.6,29.3z M199.6,47.2c-4.7,0-8.5-3.8-8.5-8.5
	c0-4.7,3.8-8.5,8.5-8.5c4.7,0,8.5,3.8,8.5,8.5C208.1,43.4,204.3,47.2,199.6,47.2z"/>
<polygon fill="#2E368F" points="204.4,38.3 202,38.3 202,34.6 197.1,34.6 197.1,38.3 194.6,38.3 199.5,43.2 "/>
<path fill="#2E368F" stroke="#2E368F" stroke-width="0.75" stroke-miterlimit="10" d="M39.4-10.4c-4.9,0-8.8,4-8.8,8.8
	c0,4.9,4,8.8,8.8,8.8s8.8-4,8.8-8.8C48.2-6.4,44.2-10.4,39.4-10.4z M39.4,6.5c-4.4,0-8-3.6-8-8c0-4.4,3.6-8,8-8s8,3.6,8,8
	C47.4,2.9,43.8,6.5,39.4,6.5z"/>
<polygon fill="#2E368F" points="44,-1.9 41.6,-1.9 41.6,-5.4 37,-5.4 37,-1.9 34.7,-1.9 39.3,2.7 "/>
<path fill="#2E368F" stroke="#2E368F" stroke-width="0.75" stroke-miterlimit="10" d="M360-50.7c-5,0-9,4.1-9,9c0,5,4.1,9,9,9
	s9-4.1,9-9C369-46.7,364.9-50.7,360-50.7z M360-33.4c-4.5,0-8.2-3.7-8.2-8.2c0-4.5,3.7-8.2,8.2-8.2s8.2,3.7,8.2,8.2
	C368.2-37.1,364.5-33.4,360-33.4z"/>
<path fill="#2E368F" stroke="#2E368F" stroke-width="0.75" stroke-miterlimit="10" d="M164.4-5.3c-0.1-0.1-0.3-0.1-0.4,0l-6.8,6.8
	L155-0.6c-0.1-0.1-0.3-0.1-0.4,0s-0.1,0.3,0,0.4l2.4,2.4c0.1,0.1,0.1,0.1,0.2,0.1s0.1,0,0.2-0.1l7-7C164.5-5,164.5-5.2,164.4-5.3z"
	/>
<path fill="#2E368F" stroke="#2E368F" stroke-width="0.75" stroke-miterlimit="10" d="M82.5,40.2c-0.1-0.1-0.2-0.1-0.2,0l-3.6,3.6
	l-1.2-1.2c-0.1-0.1-0.2-0.1-0.2,0c-0.1,0.1-0.1,0.2,0,0.2l1.3,1.3c0,0,0.1,0,0.1,0c0,0,0.1,0,0.1,0l3.8-3.8
	C82.5,40.4,82.5,40.3,82.5,40.2z"/>
<path fill="#2E368F" stroke="#2E368F" stroke-width="0.45" stroke-miterlimit="10" d="M159.5-11c-5.2,0-9.5,4.2-9.5,9.5
	c0,5.2,4.2,9.5,9.5,9.5s9.5-4.2,9.5-9.5C169-6.8,164.7-11,159.5-11z M159.5,7.1c-4.8,0-8.6-3.9-8.6-8.6c0-4.8,3.9-8.6,8.6-8.6
	s8.6,3.9,8.6,8.6C168.1,3.2,164.3,7.1,159.5,7.1z"/>
<g>
	<path fill="#2E368F" stroke="#2E368F" stroke-width="0.75" stroke-miterlimit="10" d="M363,35.3c0.1-0.1,0.1-0.3,0-0.4
		c-0.1-0.1-0.3-0.1-0.4,0l-4.4,4.4l0.4,0.4L363,35.3z"/>
	<path fill="#2E368F" stroke="#2E368F" stroke-width="0.75" stroke-miterlimit="10" d="M355.8,41.6l-2.1-2.1c-0.1-0.1-0.3-0.1-0.4,0
		c-0.1,0.1-0.1,0.3,0,0.4l2.3,2.3c0.1,0.1,0.1,0.1,0.2,0.1c0.1,0,0.1,0,0.2-0.1l0.2-0.2L355.8,41.6L355.8,41.6z"/>
	<path fill="#2E368F" stroke="#2E368F" stroke-width="0.75" stroke-miterlimit="10" d="M356.3,39.2c-0.1-0.1-0.3-0.1-0.4,0
		c-0.1,0.1-0.1,0.3,0,0.4l0.9,0.9l0.4-0.4L356.3,39.2z"/>
	<path fill="#2E368F" stroke="#2E368F" stroke-width="0.75" stroke-miterlimit="10" d="M365.7,34.6c-0.1-0.1-0.3-0.1-0.4,0l-6.8,6.8
		l-0.8-0.8l-0.4,0.4l1,1c0.1,0.1,0.1,0.1,0.2,0.1c0.1,0,0.1,0,0.2-0.1l7-7C365.8,34.9,365.8,34.7,365.7,34.6z"/>
	
		<rect x="357" y="40.3" transform="matrix(0.7074 -0.7068 0.7068 0.7074 75.8586 264.3983)" fill="#2E368F" stroke="#2E368F" stroke-width="0.75" stroke-miterlimit="10" width="0.6" height="0.6"/>
</g>
<path fill="#2E368F" stroke="#2E368F" stroke-width="0.75" stroke-miterlimit="10" d="M359.5,29c-5.2,0-9.4,4.2-9.4,9.4
	c0,5.2,4.2,9.4,9.4,9.4c5.2,0,9.4-4.2,9.4-9.4C368.9,33.2,364.6,29,359.5,29z M359.5,47c-4.7,0-8.6-3.8-8.6-8.6
	c0-4.7,3.8-8.6,8.6-8.6c4.7,0,8.6,3.8,8.6,8.6C368,43.2,364.2,47,359.5,47z"/>
<circle fill="#2E368F" cx="239.6" cy="38.6" r="5.2"/>
<path fill="#2E368F" stroke="#2E368F" stroke-width="0.75" stroke-miterlimit="10" d="M239.6,29.7c-4.9,0-9,4-9,9c0,4.9,4,9,9,9
	s9-4,9-9C248.6,33.7,244.5,29.7,239.6,29.7z M239.6,46.8c-4.5,0-8.2-3.7-8.2-8.2c0-4.5,3.7-8.2,8.2-8.2s8.2,3.7,8.2,8.2
	C247.8,43.1,244.1,46.8,239.6,46.8z"/>
<circle fill="#2E368F" cx="319.3" cy="-41.8" r="5.2"/>
<path fill="#2E368F" stroke="#2E368F" stroke-width="0.75" stroke-miterlimit="10" d="M319.3-50.8c-5,0-9.1,4.1-9.1,9.1
	c0,5,4.1,9.1,9.1,9.1c5,0,9.1-4.1,9.1-9.1C328.3-46.8,324.3-50.8,319.3-50.8z M319.3-33.5c-4.6,0-8.3-3.7-8.3-8.3
	c0-4.6,3.7-8.3,8.3-8.3s8.3,3.7,8.3,8.3C327.5-37.2,323.8-33.5,319.3-33.5z"/>
<g>
	<path fill="#2E368F" d="M324.1-7v3.5h1v-3.9c0-0.2-0.1-0.3-0.2-0.4l-3.3-2.9c-0.1-0.1-0.3-0.1-0.4-0.1h-9.4c-0.3,0-0.6,0.3-0.6,0.6
		V7.2c0,0.3,0.3,0.6,0.6,0.6h12.7c0.3,0,0.6-0.3,0.6-0.6V2.6h-1v4.2h-11.9V-9.9h8.8V-7H324.1z"/>
	<g>
		<path fill="#2E368F" d="M319.9-1.2c-0.1,0-0.2,0-0.4,0h-0.2v0.7h0.3c0.2,0,0.3,0,0.4,0c0.1,0,0.1-0.1,0.2-0.1
			c0-0.1,0.1-0.1,0.1-0.2c0-0.1,0-0.2-0.1-0.2C320.1-1.2,320-1.2,319.9-1.2z"/>
		<path fill="#2E368F" d="M322.4-1.1c-0.1-0.1-0.1-0.1-0.2-0.1c-0.1,0-0.2,0-0.4,0h-0.2v1.6h0.4c0.1,0,0.2,0,0.3,0
			c0.1,0,0.1-0.1,0.2-0.1c0.1,0,0.1-0.1,0.1-0.2c0-0.1,0-0.3,0-0.4s0-0.3,0-0.4C322.5-1,322.5-1,322.4-1.1z"/>
		<path fill="#2E368F" d="M325.9-2.8h-7.9c-0.4,0-0.7,0.3-0.7,0.7v3.4c0,0.4,0.3,0.7,0.7,0.7h7.9c0.4,0,0.7-0.3,0.7-0.7v-3.4
			C326.6-2.5,326.2-2.8,325.9-2.8z M320.6-0.5c-0.1,0.1-0.1,0.2-0.2,0.2c-0.1,0.1-0.2,0.1-0.3,0.1c-0.1,0-0.3,0-0.5,0h-0.3v0.9h-0.5
			v-2.4h0.8c0.3,0,0.5,0,0.6,0c0.1,0,0.3,0.1,0.3,0.2c0.1,0.1,0.1,0.3,0.1,0.5C320.7-0.7,320.7-0.6,320.6-0.5z M323.1,0.1
			c-0.1,0.2-0.1,0.3-0.3,0.4c-0.1,0.1-0.2,0.1-0.3,0.2c-0.1,0-0.3,0.1-0.4,0.1h-0.9v-2.4h0.9c0.2,0,0.4,0,0.5,0
			c0.1,0,0.3,0.1,0.4,0.2c0.1,0.1,0.2,0.2,0.2,0.4c0.1,0.2,0.1,0.3,0.1,0.6C323.1-0.2,323.1,0,323.1,0.1z M325.1-1.2h-1.2v0.6h1v0.4
			h-1v1h-0.5v-2.4h1.7V-1.2z"/>
	</g>
</g>
<path fill="#2E368F" stroke="#2E368F" stroke-width="0.5" stroke-miterlimit="10" d="M368.4-6.4c-0.1-0.1-0.4-0.1-0.5,0l-9.1,9.1
	l-2.9-2.9c-0.1-0.1-0.4-0.1-0.5,0s-0.1,0.4,0,0.5l3.1,3.1c0.1,0.1,0.2,0.1,0.3,0.1c0.1,0,0.2,0,0.3-0.1l9.4-9.4
	C368.6-6.1,368.6-6.3,368.4-6.4z"/>
<path fill="#2E368F" d="M362.7-7.1v3.5h1v-3.8c0-0.2-0.1-0.3-0.2-0.4l-3.2-2.9c-0.1-0.1-0.3-0.1-0.4-0.1h-9.3
	c-0.3,0-0.6,0.3-0.6,0.6V6.9c0,0.3,0.3,0.6,0.6,0.6h12.5c0.3,0,0.6-0.3,0.6-0.6V2.4h-1v4.2h-11.8V-10h8.7v2.9H362.7z"/>
<rect x="194.3" y="-2.7" fill="#2E368F" width="9.1" height="0.8"/>
<rect x="194.3" y="-0.4" fill="#2E368F" width="9.1" height="0.8"/>
<rect x="194.3" y="-5" fill="#2E368F" width="5.3" height="0.8"/>
<rect x="194.3" y="1.9" fill="#2E368F" width="9.1" height="0.8"/>
<path fill="#2E368F" d="M204.9-7.4V3h1V-7.7c0-0.2-0.1-0.3-0.2-0.5l-3.4-3.1c-0.1-0.1-0.3-0.2-0.4-0.2H192c-0.4,0-0.6,0.3-0.6,0.6
	V7.5c0,0.4,0.3,0.6,0.6,0.6h13.3c0.4,0,0.6-0.3,0.6-0.6V2.7h-1v4.4h-12.5v-17.5h9.2v3H204.9z"/>
<g>
	<path fill="#2E368F" d="M111.9,29.3v16.3h1.1V30.4h6.9v5.1h5.1v10h1.1V34.7l-5.4-5.4H111.9z M121.1,34.3v-3.1l3.1,3.1H121.1z"/>
	<polygon fill="#2E368F" points="116.9,44.7 116.9,47.5 121.2,47.5 121.2,44.7 123.9,44.7 119.1,40.9 114.2,44.7 	"/>
</g>
<g>
	<path fill="#2E368F" d="M391.3-11.6V6.2h1.3v-16.6h7.5v5.6h5.6v11h1.3V-5.7l-6-6H391.3z M401.3-6v-3.4l3.4,3.4H401.3z"/>
	<polygon fill="#2E368F" points="401.5,4.1 401.5,1.1 396.7,1.1 396.7,4.1 393.8,4.1 399.1,8.4 404.4,4.1 	"/>
</g>
<path fill="#2E368F" d="M427.2-11.6V6.2h1.3v-16.6h7.5v5.6h5.6v11h1.3V-5.7l-6-6H427.2z M437.3-6v-3.4l3.4,3.4H437.3z"/>
<path fill="#2E368F" d="M32.4,29.1v17.5h1.2V30.4H41v5.5h5.5v10.8h1.2V35l-5.8-5.8H32.4z M42.3,34.6v-3.4l3.4,3.4H42.3z"/>
<path fill="#2E368F" stroke="#2E368F" stroke-width="0.75" stroke-miterlimit="10" d="M80,37.5c-2.6,0-4.6,2.1-4.6,4.6
	c0,2.6,2.1,4.6,4.6,4.6s4.6-2.1,4.6-4.6C84.6,39.6,82.5,37.5,80,37.5z M80,46.4c-2.3,0-4.2-1.9-4.2-4.2c0-2.3,1.9-4.2,4.2-4.2
	s4.2,1.9,4.2,4.2C84.2,44.5,82.3,46.4,80,46.4z"/>
<path fill="#2E368F" d="M72.6,29.1v17.1h1.2V30.3H81v5.3h5.3v10.6h1.2V34.8l-5.7-5.7H72.6z M82.2,34.5v-3.3l3.3,3.3H82.2z"/>
<path fill="#2E368F" stroke="#2E368F" stroke-width="0.75" stroke-miterlimit="10" d="M10.6,36.6c-2.6,0-4.6,2.1-4.6,4.6
	c0,2.6,2.1,4.6,4.6,4.6s4.6-2.1,4.6-4.6C15.2,38.7,13.1,36.6,10.6,36.6z M10.6,45.5c-2.3,0-4.2-1.9-4.2-4.2c0-2.3,1.9-4.2,4.2-4.2
	s4.2,1.9,4.2,4.2C14.8,43.6,12.9,45.5,10.6,45.5z"/>
<path fill="#2E368F" d="M3.2,28.3v17.1h1.2V29.5h7.2v5.3h5.3v10.6h1.2V33.9l-5.7-5.7H3.2z M12.8,33.6v-3.3l3.3,3.3H12.8z"/>
<g>
	<path fill="#2E368F" d="M191.4,68.9v17.4h1.2V70.1h7.3v5.4h5.4v10.7h1.2V74.7l-5.8-5.8H191.4z M201.1,74.3V71l3.3,3.3H201.1z"/>
</g>
<path fill="#2E368F" d="M232,68.7v17.6h1.2V70h7.4v5.5h5.5v10.9h1.2V74.6l-5.9-5.9H232z M241.9,74.2v-3.4l3.4,3.4H241.9z"/>
<path fill="#2E368F" stroke="#2E368F" stroke-width="0.75" stroke-miterlimit="10" d="M14.7,86.5l-2.1-2.1c1.4-1.5,1.3-3.9-0.2-5.4
	c-1.5-1.5-4-1.5-5.5,0c-1.5,1.5-1.5,4,0,5.5c0.8,0.8,1.8,1.1,2.8,1.1c0.9,0,1.9-0.3,2.6-1l2.1,2.1c0,0,0.1,0.1,0.2,0.1
	s0.1,0,0.2-0.1C14.8,86.7,14.8,86.6,14.7,86.5z M7.2,84.2c-1.3-1.3-1.3-3.5,0-4.9c0.7-0.7,1.6-1,2.4-1c0.9,0,1.8,0.3,2.4,1
	c1.3,1.3,1.3,3.5,0,4.9C10.7,85.6,8.5,85.6,7.2,84.2z"/>
<path fill="#2E368F" d="M2.4,68.7v17.6h1.2V70h7.4v5.5h5.5v10.9h1.2V74.6L12,68.7H2.4z M12.3,74.2v-3.4l3.4,3.4H12.3z"/>
<path fill="#2E368F" d="M-54.2,68.7v17.6h1.2V70h7.4v5.5h5.5v10.9h1.2V74.6l-5.9-5.9H-54.2z M-44.3,74.2v-3.4l3.4,3.4H-44.3z"/>
<path fill="#2E368F" d="M271.5,68.9v17.6h1.2V70.1h7.4v5.5h5.5v10.8h1.2V74.7l-5.8-5.8H271.5z M281.4,74.3V71l3.4,3.4H281.4z"/>
<path fill="#2E368F" stroke="#2E368F" stroke-width="0.75" stroke-miterlimit="10" d="M279.2,80.4c-2.8,0-4.9,3.3-4.9,3.3
	s2.2,3.2,4.9,3.2c2.8,0,4.9-3.3,4.9-3.3S282,80.4,279.2,80.4z M279.2,86.3c-2.4,0-4.2-2.8-4.2-2.8s1.9-2.8,4.2-2.8s4.2,2.8,4.2,2.8
	S281.6,86.3,279.2,86.3z"/>
<path fill="none" stroke="#2E368F" stroke-width="0.5" stroke-miterlimit="10" d="M279.2,82.1c-0.8,0-1.6,0.6-1.6,1.6
	c0,0.8,0.6,1.6,1.6,1.6c0.8,0,1.6-0.6,1.6-1.6C280.8,82.9,280.1,82.1,279.2,82.1z M279.2,84.8c-0.6,0-1.1-0.5-1.1-1.1
	s0.5-1.2,1.1-1.2s1.1,0.5,1.1,1.1S279.9,84.8,279.2,84.8z"/>
<path fill="#2E368F" stroke="#2E368F" stroke-width="0.75" stroke-miterlimit="10" d="M-46.4,78.9c-2.8,0-4.9,3.3-4.9,3.3
	s2.2,3.2,4.9,3.2c2.8,0,4.9-3.3,4.9-3.3S-43.7,78.9-46.4,78.9z M-46.4,84.8c-2.4,0-4.2-2.8-4.2-2.8s1.9-2.8,4.2-2.8s4.2,2.8,4.2,2.8
	S-44.1,84.8-46.4,84.8z"/>
<path fill="none" stroke="#2E368F" stroke-width="0.5" stroke-miterlimit="10" d="M-46.4,80.6c-0.8,0-1.6,0.6-1.6,1.6
	c0,0.8,0.6,1.6,1.6,1.6c0.8,0,1.6-0.6,1.6-1.6C-44.9,81.4-45.6,80.6-46.4,80.6z M-46.4,83.3c-0.6,0-1.1-0.5-1.1-1.1s0.5-1.2,1.1-1.2
	c0.6,0,1.1,0.5,1.1,1.1S-45.8,83.3-46.4,83.3z"/>
<g>
	<g>
		<g>
			<g>
				<polygon fill="#2E368F" points="37.9,113.9 33.8,109.8 29.7,113.9 32.4,113.9 32.4,128.4 35.3,128.4 35.3,113.9 				"/>
				<rect x="38.2" y="109.8" fill="#2E368F" width="8.7" height="2.8"/>
				<rect x="37.4" y="115" fill="#2E368F" width="9.5" height="2.8"/>
				<rect x="37.4" y="120.4" fill="#2E368F" width="9.5" height="2.8"/>
				<rect x="37.4" y="125.5" fill="#2E368F" width="9.6" height="2.8"/>
			</g>
		</g>
	</g>
</g>
<g>
	<g>
		<g>
			<g>
				<polygon fill="#2E368F" points="70.4,123.3 74.2,127.1 77.9,123.3 75.5,123.4 75.5,110.1 72.8,110.1 72.8,123.4 				"/>
				<rect x="77.4" y="124.5" fill="#2E368F" width="8.9" height="2.6"/>
				<rect x="77.4" y="119.8" fill="#2E368F" width="9.7" height="2.6"/>
				<rect x="77.4" y="114.8" fill="#2E368F" width="9.7" height="2.6"/>
				<rect x="77.4" y="110.1" fill="#2E368F" width="9.8" height="2.6"/>
			</g>
		</g>
	</g>
</g>
<path fill="#2E368F" d="M350.9,78.2h12.7l-2.7-2.7c-0.2-0.2-0.2-0.6,0-0.8s0.6-0.2,0.8,0l3.6,3.6c0.2,0.2,0.2,0.6,0,0.8l-3.6,3.6
	c-0.1,0.1-0.2,0.2-0.4,0.2s-0.3-0.1-0.4-0.2c-0.2-0.2-0.2-0.6,0-0.8l2.7-2.7h-12.7c-0.3,0-0.5-0.2-0.5-0.5
	C350.4,78.4,350.6,78.2,350.9,78.2z M365.3,69.3h-11c-2.1,0-3.9,1.7-3.9,3.9v2.3c0,0.3,0.2,0.5,0.5,0.5s0.5-0.2,0.5-0.5v-2.3
	c0-1.5,1.3-2.8,2.8-2.8h11c1.5,0,2.8,1.3,2.8,2.8v11c0,1.5-1.3,2.8-2.8,2.8h-11c-1.5,0-2.8-1.3-2.8-2.8V82c0-0.3-0.2-0.5-0.5-0.5
	s-0.5,0.2-0.5,0.5v2.3c0,2.1,1.7,3.9,3.9,3.9h11c2.1,0,3.9-1.7,3.9-3.9v-11C369.2,71,367.4,69.3,365.3,69.3z"/>
<path fill="#2E368F" d="M359.8,78.7"/>
<path fill="#2E368F" d="M359.8,78.7"/>
<polyline fill="none" stroke="#2E368F" stroke-width="0.95" stroke-miterlimit="10" points="154.1,118.5 155.7,120.5 158.2,117.3 
	"/>
<path fill="none" stroke="#2E368F" stroke-width="0.95" stroke-miterlimit="10" d="M164.4,122.8h-10.2c-2.1,0-3.8-1.7-3.8-3.8l0,0
	c0-2.1,1.7-3.8,3.8-3.8h10.2c2.1,0,3.8,1.7,3.8,3.8l0,0C168.2,121.1,166.5,122.8,164.4,122.8z"/>
<circle fill="none" stroke="#2E368F" stroke-width="0.95" stroke-miterlimit="10" cx="164.2" cy="119" r="2.5"/>
<path fill="none" stroke="#2E368F" stroke-width="0.95" stroke-miterlimit="10" d="M204.6,122.8h-10.2c-2.1,0-3.8-1.7-3.8-3.8l0,0
	c0-2.1,1.7-3.8,3.8-3.8h10.2c2.1,0,3.8,1.7,3.8,3.8l0,0C208.4,121.1,206.7,122.8,204.6,122.8z"/>
<circle fill="none" stroke="#2E368F" stroke-width="0.95" stroke-miterlimit="10" cx="195.2" cy="119" r="2.5"/>
<g>
	<path fill="#2E368F" d="M245.8,117c-0.3,0-0.5,0-0.8-0.1c-0.2,0-0.3-0.2-0.2-0.4c0-0.2,0.2-0.3,0.4-0.2c1.3,0.3,2.6-0.3,3.2-1.5
		c0.3-0.7,0.4-1.5,0.2-2.2c-0.2-0.7-0.8-1.3-1.4-1.7c-0.7-0.3-1.5-0.4-2.2-0.2c-0.7,0.2-1.3,0.8-1.7,1.4c-0.1,0.1-0.3,0.2-0.4,0.1
		c-0.1-0.1-0.2-0.3-0.1-0.4c0.4-0.8,1.1-1.4,2-1.7c0.9-0.3,1.8-0.2,2.7,0.2c0.8,0.4,1.4,1.1,1.7,2c0.3,0.9,0.2,1.8-0.2,2.7
		C248.3,116.2,247.1,117,245.8,117z M245.8,111.9v3.1 M244.2,113.5h3.1 M246.1,115v-1.3h1.2c0.2,0,0.3-0.1,0.3-0.3
		c0-0.2-0.1-0.3-0.3-0.3h-1.2v-1.3c0-0.2-0.1-0.3-0.3-0.3s-0.3,0.1-0.3,0.3v1.3h-1.3c-0.2,0-0.3,0.1-0.3,0.3c0,0.2,0.1,0.3,0.3,0.3
		h1.3v1.3c0,0.2,0.1,0.3,0.3,0.3S246.1,115.2,246.1,115z"/>
	<g>
		<path fill="#2E368F" d="M237.7,126.6c-2.5,0-4.8-1.6-6.1-4.2c-0.4,0-0.9-0.3-1.2-0.9c-0.5-0.9-0.8-2.4-0.4-3.1
			c0.2-0.3,0.4-0.4,0.7-0.4c0,0,0,0,0,0c0.1-2,0.8-3.9,2-5.3c1.3-1.5,3-2.4,4.9-2.4c1.8,0,3.6,0.8,4.9,2.4c1.2,1.4,1.9,3.3,2,5.3
			c0,0,0,0,0,0c0.2,0,0.9,0.1,0.9,1.4c0,1.3-0.7,3-1.7,3.1C242.5,125,240.2,126.6,237.7,126.6z M231.8,121.8c0.1,0,0.2,0.1,0.3,0.2
			c1.1,2.5,3.2,4,5.6,4c2.3,0,4.5-1.5,5.6-4c0.1-0.1,0.2-0.2,0.3-0.2c0,0,0,0,0.1,0l0,0c0.6,0,1.2-1.4,1.2-2.5
			c0-0.5-0.1-0.8-0.3-0.8c0,0-0.1,0-0.2,0c-0.1,0-0.2,0-0.3,0s-0.1-0.1-0.1-0.2c0-4.1-2.9-7.5-6.3-7.5c-3.4,0-6.3,3.3-6.3,7.5
			c0,0.1-0.1,0.2-0.1,0.2s-0.2,0.1-0.3,0c-0.1,0-0.1,0-0.2,0c0,0-0.1,0-0.1,0.1c-0.3,0.4-0.1,1.7,0.4,2.5c0.1,0.2,0.4,0.6,0.7,0.6
			C231.7,121.8,231.7,121.8,231.8,121.8C231.8,121.8,231.8,121.8,231.8,121.8z"/>
	</g>
	<g>
		<path fill="#2E368F" d="M244.2,118.3c-1.8-0.4-3.6-2.6-4.6-4.4c-0.9,0.8-1.8,1.6-2.8,2.2c-2.5,1.7-5.7,2.2-5.7,2.2
			s0.2-2.5,1.8-4.6c0.7-0.9,1.6-1.8,2.7-2.3c1.6-0.8,3.8-0.6,5.3,0.4c0.4,0.3,0.8,0.6,1.1,1c0.6,0.8,1.1,1.8,1.4,2.7
			c0.3,0.8,0.5,1.6,0.7,2.4C244.2,118,244.2,118.2,244.2,118.3z"/>
		<path fill="#2E368F" d="M244.2,118.6c-1.7-0.4-3.6-2.5-4.7-4.3c-0.7,0.7-1.6,1.3-2.6,2c-2.5,1.7-5.7,2.3-5.8,2.3
			c-0.1,0-0.3-0.2-0.2-0.3c0-0.1,0,0.1,0,0c0-0.1,0.2-2.5,1.8-4.8c0.8-1,1.8-1.9,2.8-2.4c0.7-0.3,1.5-0.5,2.4-0.5
			c1.1,0,2.2,0.3,3.1,0.9c0.4,0.2,0.8,0.6,1.2,1.1c0.6,0.8,1.1,1.8,1.5,2.8c0.3,0.7,0.5,1.5,0.7,2.5c0,0.2,0.1,0.3,0.1,0.5
			c0,0,0,0,0,0.1C244.5,118.5,244.4,118.6,244.2,118.6"/>
	</g>
</g>
<path fill="#2E368F" d="M165.7-82.6c-0.3,0-0.5,0-0.8-0.1c-0.2,0-0.3-0.2-0.2-0.4c0-0.2,0.2-0.3,0.4-0.2c1.3,0.3,2.6-0.3,3.2-1.5
	c0.3-0.7,0.4-1.5,0.2-2.2c-0.2-0.7-0.8-1.3-1.5-1.7c-0.7-0.3-1.5-0.4-2.2-0.2c-0.7,0.2-1.3,0.8-1.7,1.5c-0.1,0.1-0.3,0.2-0.4,0.1
	c-0.1-0.1-0.2-0.3-0.1-0.4c0.4-0.8,1.1-1.5,2-1.8c0.9-0.3,1.8-0.2,2.7,0.2c0.8,0.4,1.5,1.1,1.8,2c0.3,0.9,0.2,1.8-0.2,2.7
	C168.2-83.3,167-82.6,165.7-82.6z"/>
<g>
	<path fill="#2E368F" d="M157.5-72.8c-2.6,0-4.9-1.6-6.1-4.2c-0.5,0-0.9-0.3-1.2-0.9c-0.5-0.9-0.8-2.4-0.4-3.2
		c0.2-0.3,0.4-0.4,0.7-0.4c0,0,0,0,0,0c0.1-2,0.8-3.9,2.1-5.4c1.3-1.5,3.1-2.4,4.9-2.4c1.9,0,3.6,0.9,4.9,2.4c1.2,1.4,2,3.3,2.1,5.4
		c0,0,0,0,0,0c0.2,0,0.9,0.1,0.9,1.4c0,1.3-0.7,3-1.8,3.1C162.4-74.5,160-72.8,157.5-72.8z M151.6-77.7c0.1,0,0.2,0.1,0.3,0.2
		c1.1,2.5,3.3,4.1,5.7,4.1c2.4,0,4.5-1.6,5.7-4.1c0.1-0.1,0.2-0.2,0.3-0.2c0,0,0,0,0.1,0l0,0c0.6,0,1.2-1.4,1.2-2.5
		c0-0.5-0.1-0.8-0.3-0.8c0,0-0.1,0-0.2,0c-0.1,0-0.2,0-0.3,0c-0.1-0.1-0.1-0.1-0.1-0.3c0-4.2-2.9-7.5-6.4-7.5
		c-3.5,0-6.3,3.4-6.4,7.5c0,0.1-0.1,0.2-0.1,0.3c-0.1,0.1-0.2,0.1-0.3,0c-0.1,0-0.1,0-0.2,0c0,0-0.1,0-0.2,0.1
		c-0.3,0.4-0.1,1.7,0.4,2.6c0.1,0.2,0.4,0.6,0.7,0.6C151.5-77.7,151.5-77.7,151.6-77.7C151.5-77.7,151.5-77.7,151.6-77.7z"/>
</g>
<g>
	<path fill="#2E368F" d="M164.1-81.2c-1.8-0.4-3.7-2.6-4.7-4.5c-0.9,0.8-1.9,1.6-2.9,2.3c-2.5,1.7-5.7,2.2-5.7,2.2s0.2-2.5,1.8-4.7
		c0.7-0.9,1.7-1.8,2.7-2.4c1.6-0.8,3.8-0.6,5.3,0.4c0.4,0.3,0.9,0.6,1.2,1c0.6,0.8,1.1,1.8,1.4,2.7c0.3,0.8,0.5,1.6,0.7,2.5
		C164.1-81.5,164.1-81.4,164.1-81.2z"/>
	<path fill="#2E368F" d="M164.1-80.9c-1.8-0.4-3.7-2.5-4.7-4.4c-0.8,0.7-1.6,1.4-2.7,2.1c-2.5,1.7-5.8,2.3-5.9,2.3
		c-0.1,0-0.3-0.2-0.3-0.3c0-0.1,0,0.1,0,0c0-0.1,0.2-2.6,1.9-4.8c0.8-1.1,1.8-1.9,2.8-2.4c0.7-0.3,1.6-0.5,2.4-0.5
		c1.2,0,2.3,0.3,3.1,0.9c0.4,0.2,0.9,0.6,1.2,1.1c0.7,0.8,1.1,1.8,1.5,2.8c0.3,0.7,0.5,1.5,0.8,2.5c0,0.2,0.1,0.3,0.1,0.5
		c0,0,0,0.1,0,0.1C164.4-81.1,164.3-80.9,164.1-80.9"/>
</g>
<path fill="#2E368F" d="M406.3,118.7c-0.2,0-0.5,0-0.7-0.1c-0.2,0-0.2-0.2-0.2-0.3c0-0.2,0.2-0.2,0.3-0.2c1.2,0.3,2.4-0.3,3-1.4
	c0.3-0.6,0.4-1.4,0.1-2.1c-0.2-0.7-0.7-1.2-1.3-1.6c-0.6-0.3-1.4-0.4-2.1-0.1c-0.7,0.2-1.2,0.7-1.6,1.3c-0.1,0.1-0.2,0.2-0.4,0.1
	c-0.1-0.1-0.2-0.2-0.1-0.4c0.4-0.8,1.1-1.4,1.9-1.6c0.8-0.3,1.7-0.2,2.5,0.2c0.8,0.4,1.4,1.1,1.6,1.9c0.3,0.8,0.2,1.7-0.2,2.5
	C408.6,118.1,407.5,118.7,406.3,118.7z"/>
<g>
	<g>
		<path fill="#2E368F" d="M398.7,127.7c-2.4,0-4.5-1.5-5.6-3.9c-0.4,0-0.8-0.3-1.1-0.8c-0.5-0.8-0.7-2.3-0.3-2.9
			c0.1-0.2,0.4-0.4,0.6-0.4c0,0,0,0,0,0c0.1-1.9,0.8-3.6,1.9-5c1.2-1.4,2.8-2.2,4.6-2.2c1.7,0,3.3,0.8,4.6,2.2
			c1.1,1.3,1.8,3.1,1.9,5c0,0,0,0,0,0c0.2,0,0.8,0.1,0.8,1.3c0,1.2-0.6,2.8-1.6,2.9C403.2,126.2,401,127.7,398.7,127.7z
			 M393.2,123.2c0.1,0,0.2,0.1,0.3,0.2c1,2.3,3,3.8,5.2,3.8c2.2,0,4.2-1.4,5.2-3.8c0.1-0.1,0.2-0.2,0.3-0.2c0,0,0,0,0.1,0l0,0
			c0.6,0,1.1-1.3,1.1-2.3c0-0.4-0.1-0.7-0.3-0.7c0,0-0.1,0-0.2,0c-0.1,0-0.2,0-0.3,0c-0.1-0.1-0.1-0.1-0.1-0.2c0-3.8-2.7-7-5.9-7
			c-3.2,0-5.9,3.1-5.9,7c0,0.1,0,0.2-0.1,0.2c-0.1,0.1-0.2,0.1-0.3,0c-0.1,0-0.1,0-0.2,0c0,0-0.1,0-0.1,0.1
			c-0.2,0.4-0.1,1.6,0.3,2.4c0.1,0.2,0.4,0.6,0.7,0.6C393.1,123.2,393.2,123.2,393.2,123.2C393.2,123.2,393.2,123.2,393.2,123.2z"/>
	</g>
</g>
<g>
	<g>
		<path fill="#2E368F" d="M404.8,120c-1.7-0.3-3.4-2.4-4.3-4.1c-0.8,0.8-1.7,1.4-2.6,2.1c-2.3,1.6-5.3,2-5.3,2s0.2-2.3,1.7-4.3
			c0.6-0.9,1.5-1.7,2.5-2.2c1.5-0.7,3.5-0.6,4.9,0.3c0.4,0.2,0.8,0.6,1.1,0.9c0.6,0.7,1,1.7,1.3,2.5c0.3,0.7,0.5,1.5,0.7,2.3
			C404.8,119.7,404.8,119.8,404.8,120z"/>
		<path fill="#2E368F" d="M404.8,120.3c-1.6-0.3-2.8-1.4-3.8-3.2c-0.7,2.1-4.8,2.9-5.7,2.4c-2.3,1.6-2.7,0.7-2.8,0.7
			c-0.1,0-0.2-0.2-0.2-0.3c0-0.1,0,0.1,0,0c0-0.1,0.2-2.4,1.7-4.4c0.7-1,1.6-1.8,2.6-2.2c0.7-0.3,1.4-0.5,2.2-0.5
			c1.1,0,2.1,0.3,2.9,0.8c0.3,0.2,0.8,0.6,1.1,1c0.6,0.8,1,1.7,1.4,2.6c0.3,0.7,0.5,1.4,0.7,2.3c0,0.2,0.1,0.3,0.1,0.4
			c0,0,0,0,0,0.1C405.1,120.1,404.9,120.3,404.8,120.3"/>
	</g>
</g>
<g>
	<g>
		<path fill="#2E368F" d="M393.4,120.1c-1.3,0-2.4-0.8-3-2.1c-0.2,0-0.4-0.2-0.6-0.4c-0.3-0.4-0.4-1.2-0.2-1.6
			c0.1-0.1,0.2-0.2,0.3-0.2c0,0,0,0,0,0c0-1,0.4-1.9,1-2.6c0.6-0.8,1.5-1.2,2.4-1.2c0.9,0,1.8,0.4,2.4,1.2c0.6,0.7,1,1.6,1,2.6
			c0,0,0,0,0,0c0.1,0,0.4,0,0.4,0.7c0,0.6-0.3,1.5-0.9,1.5C395.8,119.3,394.6,120.1,393.4,120.1z M390.5,117.7c0.1,0,0.1,0,0.1,0.1
			c0.5,1.2,1.6,2,2.8,2c1.2,0,2.2-0.8,2.8-2c0-0.1,0.1-0.1,0.2-0.1c0,0,0,0,0,0l0,0c0.3,0,0.6-0.7,0.6-1.2c0-0.2-0.1-0.4-0.1-0.4
			c0,0-0.1,0-0.1,0c0,0-0.1,0-0.1,0c0,0-0.1-0.1-0.1-0.1c0-2-1.4-3.7-3.1-3.7c-1.7,0-3.1,1.7-3.1,3.7c0,0,0,0.1-0.1,0.1
			c0,0-0.1,0-0.1,0c0,0-0.1,0-0.1,0c0,0,0,0-0.1,0.1c-0.1,0.2-0.1,0.8,0.2,1.3C390.1,117.5,390.3,117.7,390.5,117.7
			C390.4,117.7,390.4,117.7,390.5,117.7C390.5,117.7,390.5,117.7,390.5,117.7z"/>
	</g>
	<g>
		<path fill="#2E368F" d="M396.7,116c-0.9-0.2-1.8-1.3-2.3-2.2c-0.4,0.4-0.9,0.8-1.4,1.1c-1.2,0.8-2.8,1.1-2.8,1.1s0.1-1.2,0.9-2.3
			c0.3-0.5,0.8-0.9,1.3-1.2c0.8-0.4,1.9-0.3,2.6,0.2c0.2,0.1,0.4,0.3,0.6,0.5c0.3,0.4,0.5,0.9,0.7,1.3c0.2,0.4,0.3,0.8,0.4,1.2
			C396.6,115.8,396.6,115.9,396.7,116z"/>
		<path fill="#2E368F" d="M396.7,116.1c-0.9-0.2-1.5-0.8-2-1.7c-0.4,1.1-2.5,1.5-3,1.3c-1.2,0.8-1.4,0.4-1.5,0.4
			c0,0-0.1-0.1-0.1-0.2c0,0,0,0,0,0c0-0.1,0.1-1.3,0.9-2.4c0.4-0.5,0.9-1,1.4-1.2c0.4-0.2,0.8-0.3,1.2-0.3c0.6,0,1.1,0.2,1.5,0.4
			c0.2,0.1,0.4,0.3,0.6,0.5c0.3,0.4,0.5,0.9,0.7,1.4c0.1,0.4,0.3,0.7,0.4,1.2c0,0.1,0,0.2,0,0.2c0,0,0,0,0,0
			C396.8,116,396.7,116.1,396.7,116.1"/>
	</g>
</g>
<g>
	<g>
		<path fill="#2E368F" d="M396.7,115.6c-0.9,0-1.8-0.6-2.2-1.6c-0.2,0-0.3-0.1-0.4-0.3c-0.2-0.3-0.3-0.9-0.1-1.2
			c0.1-0.1,0.1-0.2,0.2-0.2c0,0,0,0,0,0c0-0.7,0.3-1.4,0.8-2c0.5-0.6,1.1-0.9,1.8-0.9c0.7,0,1.3,0.3,1.8,0.9c0.5,0.5,0.7,1.2,0.8,2
			c0,0,0,0,0,0c0.1,0,0.3,0,0.3,0.5c0,0.5-0.2,1.1-0.6,1.1C398.5,115,397.6,115.6,396.7,115.6z M394.5,113.8c0,0,0.1,0,0.1,0.1
			c0.4,0.9,1.2,1.5,2.1,1.5c0.9,0,1.7-0.6,2.1-1.5c0,0,0.1-0.1,0.1-0.1c0,0,0,0,0,0l0,0c0.2,0,0.4-0.5,0.4-0.9c0-0.2,0-0.3-0.1-0.3
			c0,0,0,0-0.1,0c0,0-0.1,0-0.1,0c0,0-0.1-0.1-0.1-0.1c0-1.5-1.1-2.8-2.3-2.8c-1.3,0-2.3,1.2-2.3,2.8c0,0,0,0.1-0.1,0.1
			c0,0-0.1,0-0.1,0c0,0,0,0-0.1,0c0,0,0,0-0.1,0c-0.1,0.2-0.1,0.6,0.1,0.9C394.2,113.7,394.3,113.8,394.5,113.8
			C394.5,113.8,394.5,113.8,394.5,113.8C394.5,113.8,394.5,113.8,394.5,113.8z"/>
	</g>
	<g>
		<path fill="#2E368F" d="M399.1,112.5c-0.7-0.1-1.4-1-1.7-1.6c-0.3,0.3-0.7,0.6-1.1,0.8c-0.9,0.6-2.1,0.8-2.1,0.8s0.1-0.9,0.7-1.7
			c0.3-0.3,0.6-0.7,1-0.9c0.6-0.3,1.4-0.2,2,0.1c0.1,0.1,0.3,0.2,0.4,0.4c0.2,0.3,0.4,0.7,0.5,1c0.1,0.3,0.2,0.6,0.3,0.9
			C399.1,112.4,399.1,112.5,399.1,112.5z"/>
		<path fill="#2E368F" d="M399.1,112.6c-0.6-0.1-1.1-0.6-1.5-1.3c-0.3,0.8-1.9,1.1-2.3,1c-0.9,0.6-1.1,0.3-1.1,0.3
			c0,0-0.1-0.1-0.1-0.1c0,0,0,0,0,0c0,0,0.1-0.9,0.7-1.8c0.3-0.4,0.7-0.7,1-0.9c0.3-0.1,0.6-0.2,0.9-0.2c0.4,0,0.8,0.1,1.2,0.3
			c0.1,0.1,0.3,0.2,0.4,0.4c0.2,0.3,0.4,0.7,0.5,1c0.1,0.3,0.2,0.6,0.3,0.9c0,0.1,0,0.1,0,0.2c0,0,0,0,0,0
			C399.2,112.6,399.2,112.6,399.1,112.6"/>
	</g>
</g>
<g>
	<g>
		<path fill="#2E368F" d="M285.6,117c-0.3,0-0.5,0-0.8-0.1c-0.2,0-0.3-0.2-0.2-0.4c0-0.2,0.2-0.3,0.4-0.2c1.3,0.3,2.6-0.3,3.2-1.5
			c0.3-0.7,0.4-1.5,0.2-2.2c-0.2-0.7-0.8-1.3-1.4-1.7c-0.7-0.3-1.5-0.4-2.2-0.2c-0.7,0.2-1.3,0.8-1.7,1.4c-0.1,0.1-0.3,0.2-0.4,0.1
			c-0.1-0.1-0.2-0.3-0.1-0.4c0.4-0.8,1.1-1.4,2-1.7c0.9-0.3,1.8-0.2,2.7,0.2c0.8,0.4,1.4,1.1,1.7,2c0.3,0.9,0.2,1.8-0.2,2.7
			C288.1,116.2,286.9,117,285.6,117z"/>
		<g>
			<path fill="#2E368F" d="M277.5,126.6c-2.5,0-4.8-1.6-6.1-4.2c-0.4,0-0.9-0.3-1.2-0.9c-0.5-0.9-0.8-2.4-0.4-3.1
				c0.2-0.3,0.4-0.4,0.7-0.4c0,0,0,0,0,0c0.1-2,0.8-3.9,2-5.3c1.3-1.5,3-2.4,4.9-2.4c1.8,0,3.6,0.8,4.9,2.4c1.2,1.4,1.9,3.3,2,5.3
				c0,0,0,0,0,0c0.2,0,0.9,0.1,0.9,1.4c0,1.3-0.7,3-1.7,3.1C282.3,125,280,126.6,277.5,126.6z M271.6,121.8c0.1,0,0.2,0.1,0.3,0.2
				c1.1,2.5,3.2,4,5.6,4c2.3,0,4.5-1.5,5.6-4c0.1-0.1,0.2-0.2,0.3-0.2c0,0,0,0,0.1,0l0,0c0.6,0,1.2-1.4,1.2-2.5
				c0-0.5-0.1-0.8-0.3-0.8c0,0-0.1,0-0.2,0c-0.1,0-0.2,0-0.3,0c-0.1-0.1-0.1-0.1-0.1-0.2c0-4.1-2.9-7.5-6.3-7.5
				c-3.4,0-6.3,3.3-6.3,7.5c0,0.1-0.1,0.2-0.1,0.2c-0.1,0.1-0.2,0.1-0.3,0c-0.1,0-0.1,0-0.2,0c0,0-0.1,0-0.1,0.1
				c-0.3,0.4-0.1,1.7,0.4,2.5c0.1,0.2,0.4,0.6,0.7,0.6C271.5,121.8,271.6,121.8,271.6,121.8C271.6,121.8,271.6,121.8,271.6,121.8z"
				/>
		</g>
		<g>
			<path fill="#2E368F" d="M284.1,118.3c-1.8-0.4-3.6-2.6-4.6-4.4c-0.9,0.8-1.8,1.6-2.8,2.2c-2.5,1.7-5.7,2.2-5.7,2.2
				s0.2-2.5,1.8-4.6c0.7-0.9,1.6-1.8,2.7-2.3c1.6-0.8,3.8-0.6,5.3,0.4c0.4,0.3,0.8,0.6,1.1,1c0.6,0.8,1.1,1.8,1.4,2.7
				c0.3,0.8,0.5,1.6,0.7,2.4C284,118,284,118.2,284.1,118.3z"/>
			<path fill="#2E368F" d="M284.1,118.6c-1.7-0.4-3.6-2.5-4.7-4.3c-0.7,0.7-1.6,1.3-2.6,2c-2.5,1.7-5.7,2.3-5.8,2.3
				c-0.1,0-0.3-0.2-0.2-0.3c0-0.1,0,0.1,0,0c0-0.1,0.2-2.5,1.8-4.8c0.8-1,1.8-1.9,2.8-2.4c0.7-0.3,1.5-0.5,2.4-0.5
				c1.1,0,2.2,0.3,3.1,0.9c0.4,0.2,0.8,0.6,1.2,1.1c0.6,0.8,1.1,1.8,1.5,2.8c0.3,0.7,0.5,1.5,0.7,2.5c0,0.2,0.1,0.3,0.1,0.5
				c0,0,0,0,0,0.1C284.3,118.5,284.2,118.6,284.1,118.6"/>
		</g>
	</g>
</g>
<path fill="#2E368F" stroke="#2E368F" stroke-width="0.5" stroke-miterlimit="10" d="M285.9,113.4l1.2-1.2c0,0,0-0.1,0-0.1
	c0,0-0.1,0-0.1,0L285.9,113.4l-1.3-1.3c0,0-0.1,0-0.1,0c0,0,0,0.1,0,0.1l1.2,1.2l-1.2,1.2c0,0,0,0.1,0,0.1c0,0,0,0,0,0s0,0,0,0
	L285.9,113.4l1.1,1.3c0,0,0,0,0,0s0,0,0,0c0,0,0-0.1,0-0.1L285.9,113.4z"/>
<g>
	<g>
		<path fill="#2E368F" stroke="#2E368F" stroke-width="0.15" stroke-miterlimit="10" d="M327.7,111.1l-1.4-1.4
			c-0.4-0.4-1.1-0.4-1.5,0l-7.8,7.7l-1.6,4.5l4.5-1.6l7.8-7.7C328.1,112.1,328.1,111.5,327.7,111.1z M316.9,119.8l0.7-1.8l1.8,1.8
			l-1.8,0.6L316.9,119.8z M318.2,118.1l6.1-6.1l0.4,0.4l-6.1,6.1L318.2,118.1z M318.1,117.9l-0.3-0.4l6.1-6.1l0.3,0.4L318.1,117.9z
			 M318.8,118.7l6.1-6.1l0.4,0.4l-6.1,6.1L318.8,118.7z M324.2,111.2l0.2-0.2l2,2l-0.2,0.2L324.2,111.2z M319.7,119.6l-0.3-0.4
			l6.1-6.1l0.3,0.4L319.7,119.6z M327.3,112.1l-0.6,0.6l-2-2l0.6-0.6c0.2-0.2,0.4-0.2,0.6,0l1.4,1.4
			C327.4,111.7,327.4,111.9,327.3,112.1z"/>
	</g>
</g>
<circle fill="#2E368F" cx="359.4" cy="118.4" r="9.1"/>
<path fill="#FFFFFF" stroke="#FFFFFF" stroke-miterlimit="10" d="M360.1,118.3l3.9-3.9c0.1-0.1,0.1-0.2,0-0.3
	c-0.1-0.1-0.2-0.1-0.3,0l-3.9,3.9l-3.9-3.9c-0.1-0.1-0.2-0.1-0.3,0c-0.1,0.1-0.1,0.2,0,0.3l3.9,3.9l-3.9,3.9c-0.1,0.1-0.1,0.2,0,0.3
	c0,0,0.1,0.1,0.2,0.1s0.1,0,0.2-0.1l3.9-3.9l3.9,3.9c0,0,0.1,0.1,0.2,0.1s0.1,0,0.2-0.1c0.1-0.1,0.1-0.2,0-0.3L360.1,118.3z"/>
<g>
	<polygon fill="#2E368F" points="404.4,114.9 405.9,114 405.9,113.9 404,114.9 405.9,115.9 405.9,115.7 	"/>
	<path fill="#2E368F" d="M406.6,114.5l0-0.6l-1.7,1l1.7,1l0-0.6c1.8,0,2,1.3,2,1.3C408.6,114.9,407.1,114.6,406.6,114.5z"/>
</g>
<path fill="#2E368F" stroke="#2E368F" stroke-width="0.95" stroke-miterlimit="10" d="M399.7,73.1c-1.7,0-3.3,0.7-4.3,2v-1.6
	c0-0.1-0.1-0.2-0.2-0.2s-0.2,0.1-0.2,0.2v2.1c0,0,0,0,0,0c0,0,0,0,0,0c0,0,0,0,0,0c0,0,0,0,0,0c0,0,0,0,0,0c0,0,0,0,0,0c0,0,0,0,0,0
	c0,0,0,0,0,0c0,0,0,0,0,0c0,0,0,0,0,0h2.1c0.1,0,0.2-0.1,0.2-0.2s-0.1-0.2-0.2-0.2h-1.7c1-1.2,2.5-2,4.1-2c2.9,0,5.3,2.4,5.3,5.3
	c0,2.9-2.4,5.3-5.3,5.3c-1.1,0-2.2-0.3-3.1-1c-0.1-0.1-0.2,0-0.3,0c-0.1,0.1,0,0.2,0,0.3c1,0.7,2.1,1,3.3,1c3.2,0,5.7-2.6,5.7-5.7
	S402.9,73.1,399.7,73.1z"/>
<path fill="#2E368F" d="M405.5-82.6c-0.3,0-0.5,0-0.8-0.1c-0.2,0-0.3-0.2-0.2-0.4c0-0.2,0.2-0.3,0.4-0.2c1.3,0.3,2.6-0.3,3.2-1.5
	c0.3-0.7,0.4-1.5,0.2-2.2c-0.2-0.7-0.8-1.3-1.4-1.7c-0.7-0.3-1.5-0.4-2.2-0.2c-0.7,0.2-1.3,0.8-1.7,1.4c-0.1,0.1-0.3,0.2-0.4,0.1
	c-0.1-0.1-0.2-0.3-0.1-0.4c0.4-0.8,1.1-1.4,2-1.7c0.9-0.3,1.8-0.2,2.7,0.2c0.8,0.4,1.4,1.1,1.7,2c0.3,0.9,0.2,1.8-0.2,2.7
	C408-83.4,406.8-82.6,405.5-82.6z"/>
<g>
	<path fill="#2E368F" d="M397.4-73c-2.5,0-4.8-1.6-6.1-4.2c-0.4,0-0.9-0.3-1.2-0.9c-0.5-0.9-0.8-2.4-0.4-3.1
		c0.2-0.3,0.4-0.4,0.7-0.4c0,0,0,0,0,0c0.1-2,0.8-3.9,2-5.3c1.3-1.5,3-2.4,4.9-2.4c1.8,0,3.6,0.8,4.9,2.4c1.2,1.4,1.9,3.3,2,5.3
		c0,0,0,0,0,0c0.2,0,0.9,0.1,0.9,1.4c0,1.3-0.7,3-1.7,3.1C402.2-74.6,399.9-73,397.4-73z M391.5-77.8c0.1,0,0.2,0.1,0.3,0.2
		c1.1,2.5,3.2,4,5.6,4c2.3,0,4.5-1.5,5.6-4c0.1-0.1,0.2-0.2,0.3-0.2c0,0,0,0,0.1,0l0,0c0.6,0,1.2-1.4,1.2-2.5c0-0.5-0.1-0.8-0.3-0.8
		c0,0-0.1,0-0.2,0c-0.1,0-0.2,0-0.3,0c-0.1-0.1-0.1-0.1-0.1-0.2c0-4.1-2.9-7.5-6.3-7.5c-3.4,0-6.3,3.3-6.3,7.5
		c0,0.1-0.1,0.2-0.1,0.2c-0.1,0.1-0.2,0.1-0.3,0c-0.1,0-0.1,0-0.2,0c0,0-0.1,0-0.1,0.1c-0.3,0.4-0.1,1.7,0.4,2.5
		c0.1,0.2,0.4,0.6,0.7,0.6C391.4-77.8,391.4-77.8,391.5-77.8C391.5-77.8,391.5-77.8,391.5-77.8z"/>
</g>
<g>
	<path fill="#2E368F" d="M403.9-81.3c-1.8-0.4-3.6-2.6-4.6-4.4c-0.9,0.8-1.8,1.6-2.8,2.2c-2.5,1.7-5.7,2.2-5.7,2.2s0.2-2.5,1.8-4.6
		c0.7-0.9,1.6-1.8,2.7-2.3c1.6-0.8,3.8-0.6,5.3,0.4c0.4,0.3,0.8,0.6,1.1,1c0.6,0.8,1.1,1.8,1.4,2.7c0.3,0.8,0.5,1.6,0.7,2.4
		C403.9-81.6,403.9-81.5,403.9-81.3z"/>
	<path fill="#2E368F" d="M403.9-81c-1.7-0.4-3.6-2.5-4.7-4.3c-0.7,0.7-1.6,1.3-2.6,2c-2.5,1.7-5.7,2.3-5.8,2.3
		c-0.1,0-0.3-0.2-0.2-0.3c0-0.1,0,0.1,0,0c0-0.1,0.2-2.5,1.8-4.8c0.8-1,1.8-1.9,2.8-2.4c0.7-0.3,1.5-0.5,2.4-0.5
		c1.1,0,2.2,0.3,3.1,0.9c0.4,0.2,0.8,0.6,1.2,1.1c0.6,0.8,1.1,1.8,1.5,2.8c0.3,0.7,0.5,1.5,0.7,2.5c0,0.2,0.1,0.3,0.1,0.5
		c0,0,0,0,0,0.1C404.2-81.2,404.1-81,403.9-81"/>
</g>
<rect x="405.4" y="-88.1" transform="matrix(0.5406 0.8413 -0.8413 0.5406 113.8315 -380.7477)" fill="none" stroke="#2E368F" stroke-width="0.5" stroke-miterlimit="10" width="0.2" height="3.9"/>
<path fill="none" stroke="#2E368F" stroke-width="0.5" stroke-miterlimit="10" d="M405.5-88.1c-1.1,0-2,0.9-2,2l0,0c0,1.1,0.9,2,2,2
	s2-0.9,2-2l0,0C407.5-87.2,406.7-88.1,405.5-88.1L405.5-88.1L405.5-88.1z"/>
<path fill="#2E368F" d="M319.6-88.8c-0.1,0-0.1,0-0.2,0.1l-7.2,11.5c-0.1,0.2,0,0.3,0.2,0.3h14.4c0.2,0,0.3-0.1,0.2-0.3l-7.2-11.5
	C319.8-88.8,319.7-88.8,319.6-88.8L319.6-88.8z"/>
<path fill="#2E368F" stroke="#2E368F" stroke-width="0.5" stroke-miterlimit="10" d="M270.5-89v14.4c0,0.9,0.6,1.6,1.4,1.6h15.5
	c0.8,0,1.4-0.7,1.4-1.6V-89c0-0.9-0.6-1.6-1.4-1.6h-15.5C271.1-90.6,270.5-89.9,270.5-89z M271.2-89c0-0.4,0.3-0.7,0.6-0.7h15.5
	c0.3,0,0.6,0.3,0.6,0.7v14.4c0,0.4-0.3,0.7-0.6,0.7h-15.5c-0.3,0-0.6-0.3-0.6-0.7V-89z"/>
<path fill="#2E368F" stroke="#2E368F" stroke-miterlimit="10" d="M279.5-85.8c-0.1-0.1-0.2-0.1-0.3,0s-0.1,0.2,0,0.3l3.9,3.9
	l-3.9,3.9c-0.1,0.1-0.1,0.2,0,0.3s0.2,0.1,0.3,0l4-4c0,0,0.1-0.1,0.1-0.2s0-0.1-0.1-0.2L279.5-85.8z"/>
<path fill="#2E368F" stroke="#2E368F" stroke-miterlimit="10" d="M276.5-85.6c-0.1-0.1-0.2-0.1-0.3,0s-0.1,0.2,0,0.3l3.9,3.9
	l-3.9,3.9c-0.1,0.1-0.1,0.2,0,0.3s0.2,0.1,0.3,0l4-4c0,0,0.1-0.1,0.1-0.2s0-0.1-0.1-0.2L276.5-85.6z"/>
<path fill="#2E368F" stroke="#2E368F" stroke-width="0.5" stroke-miterlimit="10" d="M230.3-89v14.4c0,0.9,0.6,1.6,1.4,1.6h15.5
	c0.8,0,1.4-0.7,1.4-1.6V-89c0-0.9-0.6-1.6-1.4-1.6h-15.5C231-90.6,230.3-89.9,230.3-89z M231.1-89c0-0.4,0.3-0.7,0.6-0.7h15.5
	c0.3,0,0.6,0.3,0.6,0.7v14.4c0,0.4-0.3,0.7-0.6,0.7h-15.5c-0.3,0-0.6-0.3-0.6-0.7V-89z"/>
<g>
	<path fill="#2E368F" stroke="#2E368F" stroke-miterlimit="10" d="M240.1-85.8c0.1-0.1,0.2-0.1,0.3,0s0.1,0.2,0,0.3l-3.9,3.9
		l3.9,3.9c0.1,0.1,0.1,0.2,0,0.3c-0.1,0.1-0.2,0.1-0.3,0l-4-4c0,0-0.1-0.1-0.1-0.2s0-0.1,0.1-0.2L240.1-85.8z"/>
	<path fill="#2E368F" stroke="#2E368F" stroke-miterlimit="10" d="M243.1-85.6c0.1-0.1,0.2-0.1,0.3,0c0.1,0.1,0.1,0.2,0,0.3
		l-3.9,3.9l3.9,3.9c0.1,0.1,0.1,0.2,0,0.3c-0.1,0.1-0.2,0.1-0.3,0l-4-4c0,0-0.1-0.1-0.1-0.2s0-0.1,0.1-0.2L243.1-85.6z"/>
</g>
<path fill="#2E368F" d="M364.3-82.1l-2.8,0.9l1.8,2.4c0.5,0.6,0.3,1.5-0.3,1.9c-0.3,0.2-0.5,0.3-0.8,0.3c-0.4,0-0.9-0.2-1.1-0.6
	l-1.8-2.4l-1.8,2.4c-0.3,0.4-0.7,0.6-1.1,0.6c-0.3,0-0.6-0.1-0.8-0.3c-0.6-0.5-0.8-1.3-0.3-1.9l1.8-2.4l-2.9-0.9
	c-0.7-0.2-1.1-1-0.9-1.8c0.2-0.7,1-1.1,1.8-0.9l2.9,0.9v-3c0-0.8,0.6-1.4,1.4-1.4c0.8,0,1.4,0.6,1.4,1.4v3l2.9-0.9
	c0.7-0.2,1.5,0.2,1.8,0.9C365.4-83.2,365-82.4,364.3-82.1z"/>
<path fill="#2E368F" stroke="#2E368F" stroke-width="0.5" stroke-miterlimit="10" d="M205.4-82.9c1.5-1.6,1.5-4.1-0.1-5.7
	c-0.8-0.8-1.8-1.2-2.9-1.2c-1.1,0-2.1,0.4-2.9,1.2l-3.4,3.4c-0.2,0.2-0.2,0.5,0,0.7c0.1,0.1,0.2,0.1,0.3,0.1s0.2,0,0.3-0.1l3.4-3.4
	c1.2-1.2,3.2-1.2,4.3,0c1.2,1.2,1.2,3.2,0,4.3l-8.5,8.5c-0.8,0.8-2.1,0.8-2.9,0c-0.8-0.8-0.8-2.1,0-2.9l6.9-6.9l0,0
	c0.4-0.4,1-0.4,1.4,0c0.2,0.2,0.3,0.4,0.3,0.7c0,0.3-0.1,0.5-0.3,0.7l-6,6c-0.2,0.2-0.2,0.5,0,0.7c0.1,0.1,0.2,0.1,0.3,0.1
	s0.2,0,0.3-0.1l6-6c0.4-0.4,0.6-0.9,0.6-1.4c0-0.5-0.2-1-0.6-1.4c-0.7-0.7-1.9-0.8-2.7-0.1c0,0,0,0,0,0l-7,7c-1.2,1.2-1.2,3.1,0,4.2
	c0.6,0.6,1.4,0.9,2.1,0.9c0.8,0,1.5-0.3,2.1-0.9L205.4-82.9L205.4-82.9L205.4-82.9L205.4-82.9C205.4-82.9,205.4-82.9,205.4-82.9z"/>
<title>interface_004-information-detail-window-application</title>
<desc>Created with Sketch.</desc>
<path fill="#2E368F" stroke="#2E368F" stroke-width="0.5" stroke-miterlimit="10" d="M89.3-72.1L89.3-72.1l0-13.6
	c-0.3,0.2-0.5,0.5-0.8,0.7l0,12.1H70.4v-13.4h11.1c0.3-0.4,0.7-0.8,1-1.2c0.3-0.4,0.8-0.2,0.9,0.2c0.1,0,0.1,0.1,0.2,0.1
	c0,0,0,0,0,0c1.4,0,2.7,0,4.1,0c0,0,0-0.1,0.1-0.1c-0.1-0.1-0.1-0.3,0-0.5c0.1-0.3,0.3-0.5,0.4-0.8c-0.3,0-0.6-0.1-0.6-0.5
	c0-0.1-0.1-0.4,0-0.5c0,0-0.1,0.4-0.1,0.4c-0.1,0-0.2-0.2-0.3-0.2c-0.1,0-0.1-0.1-0.3,0c-0.2,0.1-0.4,0.3-0.5,0.4c0,0,0,0,0,0
	c0,0-0.1,0.1-0.1,0.1c-0.2,0.1-0.4,0.1-0.5,0c-0.1,0.1-0.2,0.2-0.3,0.4c-0.5,0.5-1.2-0.2-0.7-0.7c0.3-0.3,0.6-0.7,0.9-1H69.6v18.1
	h19.2l0,0C89-72.1,89.1-72.1,89.3-72.1L89.3-72.1L89.3-72.1z"/>
<rect x="70.4" y="-89.4" fill="#FFFFFF" width="18.1" height="2.4"/>
<rect x="71.2" y="-88.6" fill="#2E368F" stroke="#2E368F" stroke-width="0.5" stroke-miterlimit="10" width="0.8" height="0.8"/>
<rect x="72.7" y="-88.6" fill="#2E368F" stroke="#2E368F" stroke-width="0.5" stroke-miterlimit="10" width="0.8" height="0.8"/>
<rect x="74.3" y="-88.6" fill="#2E368F" stroke="#2E368F" stroke-width="0.5" stroke-miterlimit="10" width="0.8" height="0.8"/>
<path fill="#2E368F" stroke="#2E368F" stroke-width="0.5" stroke-miterlimit="10" d="M129.3-72.1L129.3-72.1l0-13.6
	c-0.3,0.2-0.5,0.5-0.8,0.7l0,12.1h-18.1v-13.4h11.1c0.3-0.4,0.7-0.8,1-1.2c0.3-0.4,0.8-0.2,0.9,0.2c0.1,0,0.1,0.1,0.2,0.1
	c0,0,0,0,0,0c1.4,0,2.7,0,4.1,0c0,0,0-0.1,0.1-0.1c-0.1-0.1-0.1-0.3,0-0.5c0.1-0.3,0.3-0.5,0.4-0.8c-0.3,0-0.6-0.1-0.6-0.5
	c0-0.1-0.1-0.4,0-0.5c0,0-0.1,0.4-0.1,0.4c-0.1,0-0.2-0.2-0.3-0.2c-0.1,0-0.1-0.1-0.3,0c-0.2,0.1-0.4,0.3-0.5,0.4c0,0,0,0,0,0
	c0,0-0.1,0.1-0.1,0.1c-0.2,0.1-0.4,0.1-0.5,0c-0.1,0.1-0.2,0.2-0.3,0.4c-0.5,0.5-1.2-0.2-0.7-0.7c0.3-0.3,0.6-0.7,0.9-1h-15.8v18.1
	h19.2l0,0C129-72.1,129.1-72.1,129.3-72.1L129.3-72.1L129.3-72.1z"/>
<rect x="110.4" y="-89.4" fill="#FFFFFF" width="18.1" height="2.4"/>
<rect x="112.7" y="-88.6" fill="#2E368F" stroke="#2E368F" stroke-width="0.5" stroke-miterlimit="10" width="0.8" height="0.8"/>
<rect x="111.1" y="-88.6" fill="#2E368F" stroke="#2E368F" stroke-width="0.5" stroke-miterlimit="10" width="0.8" height="0.8"/>
<rect x="114.3" y="-88.6" fill="#2E368F" stroke="#2E368F" stroke-width="0.5" stroke-miterlimit="10" width="0.8" height="0.8"/>
<g>
	<path fill="#2E368F" d="M167.5-87.9c0.2,0.2,0.2,0.5,0,0.7l-0.2,0.2l-0.7-0.7l0.2-0.2C167-88.1,167.3-88.1,167.5-87.9z"/>
	<polygon fill="#2E368F" points="164.2,-85.3 164,-84.4 164.9,-84.6 167.1,-86.8 166.4,-87.5 	"/>
</g>
<rect x="83" y="-87.8" fill="#FFFFFF" width="5" height="1.6"/>
<g>
	<path fill="#2E368F" stroke="#2E368F" stroke-width="0.15" stroke-miterlimit="10" d="M88.9-88.3l-1.4-1.3
		c-0.4-0.4-1.1-0.3-1.4,0.1l-7.2,8.1l-1.4,4.5l4.3-1.8l7.2-8.1C89.4-87.3,89.4-87.9,88.9-88.3z M78.7-79.1l0.5-1.8l1.9,1.7l-1.7,0.7
		L78.7-79.1z M80-80.8l5.7-6.4l0.4,0.4l-5.7,6.4L80-80.8z M79.8-80.9l-0.4-0.3l5.7-6.4l0.4,0.3L79.8-80.9z M80.5-80.2l5.7-6.4
		l0.4,0.4L81-79.8L80.5-80.2z M85.4-87.9l0.2-0.2l2.1,1.9l-0.2,0.2L85.4-87.9z M81.5-79.4l-0.4-0.3l5.7-6.4l0.4,0.3L81.5-79.4z
		 M88.6-87.2L88-86.6l-2.1-1.9l0.6-0.6c0.1-0.2,0.4-0.2,0.6,0l1.4,1.3C88.7-87.7,88.7-87.4,88.6-87.2z"/>
</g>
<path fill="#FFFFFF" d="M126.8-90.1c0,0-0.8,0.9-0.9,1c-0.1,0-2.5,1.2-2.5,1.2s-0.7-0.1-0.7,0.1s0.3,3.6,0.3,3.6l1.3,2.2
	c0,0,2.1-2.1,2.2-2.2s2.8-2.2,2.8-2.2l-1.7-2.6L126.8-90.1z"/>
<g>
	<path fill="#2E368F" stroke="#2E368F" stroke-width="0.15" stroke-miterlimit="10" d="M128.8-89.2c0.6,0.6,0.6,1.5,0,2.1l-0.7,0.7
		l-2.1-2.1l0.7-0.7C127.3-89.8,128.2-89.8,128.8-89.2z"/>
	<polygon fill="#2E368F" stroke="#2E368F" stroke-width="0.15" stroke-miterlimit="10" points="118.4,-80.9 117.7,-78.1 
		120.5,-78.8 127.4,-85.8 125.3,-87.8 	"/>
</g>
<path fill="#2E368F" stroke="#2E368F" stroke-width="0.75" stroke-miterlimit="10" d="M12.3,41.1h-1.6v-1.6c0-0.1-0.1-0.2-0.2-0.2
	s-0.2,0.1-0.2,0.2v1.6H8.7c-0.1,0-0.2,0.1-0.2,0.2s0.1,0.2,0.2,0.2h1.6V43c0,0.1,0.1,0.2,0.2,0.2s0.2-0.1,0.2-0.2v-1.6h1.6
	c0.1,0,0.2-0.1,0.2-0.2S12.4,41.1,12.3,41.1z"/>
<path fill="#2E368F" stroke="#2E368F" stroke-width="0.75" stroke-miterlimit="10" d="M10.6,9.1c-2.6,0-4.6,2.1-4.6,4.6
	c0,2.6,2.1,4.6,4.6,4.6s4.6-2.1,4.6-4.6C15.2,11.2,13.1,9.1,10.6,9.1z M10.6,18c-2.3,0-4.2-1.9-4.2-4.2c0-2.3,1.9-4.2,4.2-4.2
	s4.2,1.9,4.2,4.2C14.8,16.1,12.9,18,10.6,18z"/>
<path fill="#2E368F" d="M3.2,0.8v17.1h1.2V2h7.2v5.3h5.3v10.6h1.2V6.4l-5.7-5.7H3.2z M12.8,6.1V2.8L16,6.1H12.8z"/>
<g>
	<g>
		<path fill="#2E368F" d="M15-18.5c0.4,0.4,0.4,1,0,1.5l-0.5,0.5L13-18l0.5-0.5C13.9-18.9,14.6-18.9,15-18.5z"/>
		<polygon fill="#2E368F" points="7.7,-12.7 7.2,-10.8 9.2,-11.2 14,-16.1 12.6,-17.5 		"/>
	</g>
</g>
<path fill="#2E368F" d="M3.2-27.6v17.1h1.2v-15.9h7.2v5.3h5.3v10.6h1.2v-11.4l-5.7-5.7H3.2z M12.8-22.2v-3.3l3.3,3.3H12.8z"/>
<path fill="#2E368F" stroke="#2E368F" stroke-width="0.75" stroke-miterlimit="10" d="M-19.6,71.5c-2.6,0-4.6,2.1-4.6,4.6
	c0,2.6,2.1,4.6,4.6,4.6s4.6-2.1,4.6-4.6C-14.9,73.6-17,71.5-19.6,71.5z M-19.6,80.4c-2.3,0-4.2-1.9-4.2-4.2c0-2.3,1.9-4.2,4.2-4.2
	s4.2,1.9,4.2,4.2C-15.3,78.5-17.2,80.4-19.6,80.4z"/>
<path fill="#2E368F" stroke="#2E368F" stroke-width="0.75" stroke-miterlimit="10" d="M-17.9,76h-1.6v-1.6c0-0.1-0.1-0.2-0.2-0.2
	c-0.1,0-0.2,0.1-0.2,0.2V76h-1.6c-0.1,0-0.2,0.1-0.2,0.2c0,0.1,0.1,0.2,0.2,0.2h1.6v1.6c0,0.1,0.1,0.2,0.2,0.2
	c0.1,0,0.2-0.1,0.2-0.2v-1.6h1.6c0.1,0,0.2-0.1,0.2-0.2C-17.7,76.1-17.8,76-17.9,76z"/>
<rect x="434.1" y="0.3" fill="#2E368F" width="6" height="8.1"/>
<polygon fill="#2E368F" points="438,-1.6 432,-1.6 432,6.5 433.4,6.5 433.4,-0.3 438,-0.3 "/>
<polygon fill="#2E368F" points="436,-3.7 430.1,-3.7 430.1,4.4 431.4,4.4 431.4,-2.4 436,-2.4 "/>
<g>
</g>
<g>
</g>
<g>
</g>
<g>
</g>
<g>
</g>
<g>
</g>
<g>
</g>
<g>
</g>
<g>
</g>
<g>
</g>
<g>
</g>
<g>
</g>
<g>
</g>
<g>
</g>
<g>
</g>
<g>
</g>
<g>
</g>
<g>
</g>
<g>
</g>
<g>
</g>
<g>
</g>
<g>
</g>
<g>
</g>
<g>
</g>
<g>
</g>
<g>
</g>
<g>
</g>
<g>
</g>
<g>
</g>
<g>
</g>
<g>
	<g>
		<path fill="#2E368F" d="M-18.3,27.9c-5.2,0-9.3,4.2-9.3,9.3s4.2,9.3,9.3,9.3H-9v-9.3C-9,32.1-13.2,27.9-18.3,27.9z M-18.3,44.9
			c-4.2,0-7.6-3.4-7.6-7.6s3.4-7.6,7.6-7.6s7.6,3.4,7.6,7.6S-14.1,44.9-18.3,44.9z"/>
	</g>
	<path fill="#2E368F" d="M-14.5,36.6h-3.1v-3.1c0-0.4-0.3-0.7-0.7-0.7c-0.4,0-0.7,0.3-0.7,0.7v3.1h-3.1c-0.4,0-0.7,0.3-0.7,0.7
		s0.3,0.7,0.7,0.7h3.1V41c0,0.4,0.3,0.7,0.7,0.7c0.4,0,0.7-0.3,0.7-0.7V38h3.1c0.4,0,0.7-0.3,0.7-0.7
		C-13.8,36.9-14.1,36.6-14.5,36.6z"/>
</g>
<path fill="#2E368F" d="M-11.1,70.8v-2.9H-14v-1.4h-1.6v1.4h-8.2v-1.4h-1.6v1.4h-2.9v15.7h2.9v2.9h17.1V70.8H-11.1z M-26.9,82.3v-13
	h1.5v1.5h1.6v-1.5h8.2v1.5h1.6v-1.5h1.5v13H-26.9z M-9.5,85.3h-14.2v-1.6h12.6V72.1h1.6V85.3z"/>
<path fill="#2E368F" d="M-11.6,101.6h-4.3c0-1.4-1.1-2.5-2.5-2.5c-1.4,0-2.5,1.1-2.5,2.5h-4.4v3h13.6V101.6z M-18.4,102.9
	c-0.7,0-1.2-0.6-1.2-1.2c0-0.7,0.6-1.2,1.2-1.2c0.7,0,1.2,0.6,1.2,1.2C-17.1,102.3-17.7,102.9-18.4,102.9z"/>
<g>
	<path fill="#2E368F" d="M-10.8,101.6v3.7h-15.3v-3.7h-1.1v17.4h17.4v-17.4H-10.8z M-10.7,118.1h-15.5v-11.7h15.5V118.1z"/>
	<rect x="-26.1" y="106.4" fill="#FFFFFF" width="15.5" height="11.7"/>
</g>
<path fill="#2E368F" stroke="#2E368F" stroke-width="0.75" stroke-miterlimit="10" d="M-16,110.3c-0.1-0.1-0.2-0.1-0.2,0l-3.6,3.6
	l-1.2-1.2c-0.1-0.1-0.2-0.1-0.2,0c-0.1,0.1-0.1,0.2,0,0.2l1.3,1.3c0,0,0.1,0,0.1,0s0.1,0,0.1,0l3.8-3.8C-16,110.4-16,110.3-16,110.3
	z"/>
<path fill="#2E368F" stroke="#2E368F" stroke-width="0.75" stroke-miterlimit="10" d="M-18.5,107.6c-2.6,0-4.6,2.1-4.6,4.6
	c0,2.6,2.1,4.6,4.6,4.6c2.6,0,4.6-2.1,4.6-4.6C-13.9,109.7-16,107.6-18.5,107.6z M-18.5,116.5c-2.3,0-4.2-1.9-4.2-4.2
	c0-2.3,1.9-4.2,4.2-4.2s4.2,1.9,4.2,4.2C-14.3,114.6-16.2,116.5-18.5,116.5z"/>
<path fill="#2E368F" d="M-55.1,100.1c-0.7,0-0.7,0-0.7,0.7v16.3c0,0.7,0,0.7,0.7,0.7s0.7,0,0.7-0.7v-16.3
	C-54.4,100.1-54.4,100.1-55.1,100.1z"/>
<g>
	<path fill="#2E368F" d="M-38,100.5c-5.9-1.5-10.4,1.5-14.9,0v10c4.5,1.5,8.9-1.5,14.9,0l-3-5.2L-38,100.5z M-40.2,109.4
		c-4.5-1.1-7.9,1.1-11.3,0v-7.6c3.4,1.1,6.8-1.1,11.3,0l-2.3,3.7L-40.2,109.4z"/>
	<path fill="#FFFFFF" d="M-40.2,101.8c-4.5-1.1-7.9,1.1-11.3,0v7.6c3.4,1.1,6.8-1.1,11.3,0l-2.3-3.9L-40.2,101.8z"/>
</g>
<g>
	<path fill="#2E368F" stroke="#2E368F" stroke-miterlimit="10" d="M-79.6,117.8h-3c-0.9,0-1.7-0.7-1.7-1.7V108
		c0-0.9,0.7-1.7,1.7-1.7h3V117.8z M-82.6,106.9c-0.6,0-1.1,0.5-1.1,1.1v8.1c0,0.6,0.5,1.1,1.1,1.1h2.5v-10.3H-82.6z"/>
	<path fill="#2E368F" stroke="#2E368F" stroke-miterlimit="10" d="M-70.6,117.8h-9.5v-11.2l3.8-5.5c0.4-0.5,1-0.8,1.7-0.8h0.1
		c0.7,0,1.3,0.3,1.7,0.8c0.4,0.5,0.5,1.2,0.3,1.8l-1,3.5h5.1c0.7,0,1.5,0.4,1.9,1c0.6,0.8,0.7,1.8,0.3,3l-1.7,5.1
		C-68.3,116.3-69.5,117.8-70.6,117.8z M-79.6,117.2h9c0.7,0,1.8-1.2,2-2l1.7-5.1c0.3-0.9,0.3-1.8-0.2-2.5c-0.3-0.5-0.9-0.8-1.5-0.8
		h-5.7l1.2-4.2c0.1-0.5,0-1-0.2-1.4c-0.3-0.4-0.7-0.6-1.2-0.6h-0.1c-0.5,0-0.9,0.2-1.2,0.6l-3.8,5.4V117.2z"/>
</g>
<path fill="#2E368F" d="M-52.3,73.5l0.7-0.6l0.7,0.5l0-3.6h-1.3C-52.3,69.9-52.3,73.6-52.3,73.5z"/>
<path fill="none" d="M-72.2,50.4c-0.9-0.9-2-1.3-3.1-1.3c-1.1,0-2.3,0.4-3.1,1.3c-1.7,1.7-1.7,4.5,0,6.3c1.7,1.7,4.5,1.7,6.3,0
	C-70.5,54.9-70.5,52.1-72.2,50.4z"/>
<path fill="#2E368F" d="M-24.9-19.3c0-0.3,0.2-0.5,0.5-0.5h12.6l-2.7-2.7c-0.2-0.2-0.2-0.6,0-0.8c0.1-0.1,0.2-0.2,0.4-0.2
	s0.3,0.1,0.4,0.2l3.6,3.6c0.2,0.2,0.2,0.6,0,0.8l-3.6,3.6c-0.2,0.2-0.6,0.2-0.8,0c-0.2-0.2-0.2-0.6,0-0.8l2.7-2.7h-12.6
	C-24.7-18.8-25-19-24.9-19.3z"/>
<path fill="#2E368F" d="M-24.8-10h10.9c2.1,0,3.9-1.7,3.9-3.9v-2.3c0-0.3-0.2-0.5-0.5-0.5c-0.3,0-0.5,0.2-0.5,0.5v2.3
	c0,1.5-1.3,2.8-2.8,2.8h-10.9c-1.5,0-2.8-1.3-2.8-2.8v-10.9c0-1.5,1.3-2.8,2.8-2.8h10.9c1.5,0,2.8,1.3,2.8,2.8v2.2
	c0,0.3,0.2,0.5,0.5,0.5c0.3,0,0.5-0.2,0.5-0.5v-2.2c0-2.1-1.7-3.9-3.9-3.9h-10.9c-2.1,0-3.9,1.7-3.9,3.9v10.9
	C-28.6-11.7-26.9-10-24.8-10z"/>
<path fill="#2E368F" d="M-19.3-19.3"/>
<path fill="#2E368F" d="M-19.3-19.3"/>
<g>
	<path fill="#2E368F" stroke="#2E368F" stroke-width="0.25" stroke-miterlimit="10" d="M-19.9-56.1c2.6,0,4.7,2.1,4.7,4.7
		c0,0.9-0.3,1.8-0.8,2.6l0,0l0,0l-2,4h-3.7l-2.2-4l0,0l0,0c-0.5-0.8-0.8-1.6-0.8-2.6C-24.7-54-22.6-56.1-19.9-56.1 M-19.9-56.7
		c-3,0-5.4,2.4-5.4,5.4c0,1.1,0.3,2.1,0.9,2.9l0,0l2.4,4.4h4.5l2.2-4.4l0,0c0.5-0.8,0.9-1.8,0.9-2.9C-14.5-54.3-17-56.7-19.9-56.7
		L-19.9-56.7z"/>
	<path fill="#2E368F" stroke="#2E368F" stroke-width="0.25" stroke-miterlimit="10" d="M-22.6-51.7h-0.7c0-1.6,1.3-2.9,2.9-2.9v0.7
		C-21.6-54-22.6-53-22.6-51.7z"/>
	<rect x="-22.1" y="-43.7" fill="#2E368F" stroke="#2E368F" stroke-width="0.25" stroke-miterlimit="10" width="4.5" height="0.8"/>
	<rect x="-22.1" y="-42.4" fill="#2E368F" stroke="#2E368F" stroke-width="0.25" stroke-miterlimit="10" width="4.5" height="0.8"/>
	<rect x="-22.1" y="-41.2" fill="#2E368F" stroke="#2E368F" stroke-width="0.25" stroke-miterlimit="10" width="4.5" height="0.8"/>
	<rect x="-21.2" y="-40" fill="#2E368F" stroke="#2E368F" stroke-width="0.25" stroke-miterlimit="10" width="2.7" height="0.8"/>
</g>
<path fill="none" d="M-46.1-21.4h-3.1c-0.4,0-0.7-0.3-0.7-0.7v-3.4c-3.1,1-5.4,3.9-5.4,7.4c0,4.3,3.5,7.7,7.7,7.7s7.7-3.5,7.7-7.7
	c0-3.5-2.3-6.4-5.4-7.4v3.4C-45.3-21.8-45.7-21.4-46.1-21.4z"/>
<path fill="#12A049" stroke="#12A049" stroke-width="0.45" stroke-miterlimit="10" d="M-45.3-26.4v0.8c3.1,1,5.4,3.9,5.4,7.4
	c0,4.3-3.5,7.7-7.7,7.7s-7.7-3.5-7.7-7.7c0-3.5,2.3-6.4,5.4-7.4v-0.8c-3.6,1-6.2,4.3-6.2,8.1c0,4.7,3.8,8.5,8.5,8.5
	c4.7,0,8.5-3.8,8.5-8.5C-39.2-22.1-41.8-25.4-45.3-26.4z"/>
<path fill="#12A049" d="M-45.9-22.5c0,0.3-0.3,0.6-0.6,0.6h-2.4c-0.3,0-0.6-0.3-0.6-0.6v-5c0-0.3,0.3-0.6,0.6-0.6h2.4
	c0.3,0,0.6,0.3,0.6,0.6V-22.5z"/>
<path fill="none" d="M-67.8-21.4h-3.1c-0.4,0-0.7-0.3-0.7-0.7v-3.4c-3.1,1-5.4,3.9-5.4,7.4c0,4.3,3.5,7.7,7.7,7.7s7.7-3.5,7.7-7.7
	c0-3.5-2.3-6.4-5.4-7.4v3.4C-67.1-21.8-67.4-21.4-67.8-21.4z"/>
<path fill="#EF3C24" stroke="#EF3C24" stroke-width="0.45" stroke-miterlimit="10" d="M-67.1-26.4v0.8c3.1,1,5.4,3.9,5.4,7.4
	c0,4.3-3.5,7.7-7.7,7.7s-7.7-3.5-7.7-7.7c0-3.5,2.3-6.4,5.4-7.4v-0.8c-3.6,1-6.2,4.3-6.2,8.1c0,4.7,3.8,8.5,8.5,8.5
	c4.7,0,8.5-3.8,8.5-8.5C-60.9-22.1-63.5-25.4-67.1-26.4z"/>
<path fill="#EF3C24" d="M-67.6-22.5c0,0.3-0.3,0.6-0.6,0.6h-2.4c-0.3,0-0.6-0.3-0.6-0.6v-5c0-0.3,0.3-0.6,0.6-0.6h2.4
	c0.3,0,0.6,0.3,0.6,0.6V-22.5z"/>
<path fill="#2E368F" stroke="#2E368F" stroke-width="0.5" stroke-miterlimit="10" d="M-75.3,61.4c-4.4,0-8-3.6-8-8c0-4.4,3.6-8,8-8
	s8,3.6,8,8c0,2.1-0.8,4.1-2.2,5.5l0.5,0.5c1.5-1.6,2.4-3.7,2.4-6c0-4.8-3.9-8.8-8.8-8.8s-8.8,3.9-8.8,8.8c0,4.8,3.9,8.8,8.8,8.8
	c2.3,0,4.4-0.9,5.9-2.3l-0.5-0.5C-71.4,60.6-73.2,61.4-75.3,61.4z"/>
<path fill="#FFFFFF" stroke="#FFFFFF" stroke-miterlimit="10" d="M-71.7,59.9c0,0,1.2-0.4,2.7-2.8l2.1,1.5l0.3,1.6l-3.2,2.2
	l-0.8-0.9L-71.7,59.9z"/>
<path fill="#2E368F" stroke="#2E368F" stroke-width="0.75" stroke-miterlimit="10" d="M-68.3,85.3l-3.1-3.1c2-2.2,1.9-5.6-0.2-7.7
	c-2.2-2.2-5.8-2.2-8-0.1c-2.2,2.2-2.2,5.8-0.1,8c1.1,1.1,2.5,1.7,4,1.7c1.3,0,2.7-0.5,3.7-1.4l3.1,3.1c0.1,0.1,0.1,0.1,0.2,0.1
	c0.1,0,0.2,0,0.2-0.1C-68.2,85.7-68.2,85.5-68.3,85.3z M-79.1,82c-1.9-2-1.9-5.1,0-7c1-1,2.3-1.4,3.5-1.4c1.3,0,2.5,0.5,3.5,1.5
	c1.9,2,1.9,5.1,0,7C-74,83.9-77.2,83.9-79.1,82z"/>
<g>
	<path fill="#2E368F" stroke="#2E368F" stroke-width="0.75" stroke-miterlimit="10" d="M-68.6,59.5l-2.8-2.8c1.8-2,1.7-5.1-0.2-7
		c-2-2-5.2-2-7.2,0c-1.9,1.9-2,4.8-0.4,6.8c0,0,0.1-0.1,0.1-0.1c0.1-0.1,0.2-0.1,0.3-0.1c0,0,0.1-0.1,0.1-0.1
		c-1.4-1.8-1.3-4.4,0.3-6c0.9-0.9,2-1.3,3.2-1.3c1.2,0,2.3,0.4,3.2,1.3c1.8,1.8,1.8,4.6,0,6.4c-1.1,1.1-2.7,1.5-4.2,1.2
		c-0.1,0.2-0.2,0.4-0.4,0.5c0.5,0.1,0.9,0.2,1.4,0.2c1.2,0,2.4-0.4,3.4-1.3l2.8,2.8C-69,60-68.9,60-68.8,60c0.1,0,0.2,0,0.2-0.1
		C-68.5,59.8-68.5,59.6-68.6,59.5z"/>
	<path fill="#2E368F" stroke="#2E368F" stroke-width="0.95" stroke-miterlimit="10" d="M-80.2,52.7c-0.2,1.5,0.2,3,1.2,4.1l-1.4-0.2
		c-0.1,0-0.2,0.1-0.2,0.1c0,0.1,0.1,0.2,0.1,0.2l1.9,0.3c0,0,0,0,0,0c0,0,0,0,0,0c0,0,0,0,0,0c0,0,0,0,0,0c0,0,0,0,0,0c0,0,0,0,0,0
		c0,0,0,0,0,0c0,0,0,0,0,0c0,0,0,0,0,0c0,0,0,0,0,0l0.3-1.9c0-0.1-0.1-0.2-0.1-0.2c-0.1,0-0.2,0.1-0.2,0.1l-0.2,1.5
		c-1-1.1-1.4-2.5-1.2-3.9c0.4-2.6,2.8-4.4,5.4-4s4.4,2.8,4,5.4c-0.1,1-0.6,1.9-1.3,2.6c-0.1,0.1-0.1,0.2,0,0.2
		c0.1,0.1,0.2,0.1,0.2,0c0.7-0.8,1.2-1.7,1.4-2.8c0.4-2.8-1.5-5.4-4.3-5.8C-77.2,48-79.8,49.9-80.2,52.7z"/>
</g>
<path fill="none" stroke="#B2B1B2" stroke-width="0.25" stroke-miterlimit="10" d="M-283.1,15.5v92.3h103.7
	C-179.4,107.8-283.1,13.2-283.1,15.5z"/>
</svg>
