<?xml version="1.0" encoding="utf-8"?>
<!-- Generator: Adobe Illustrator 18.1.1, SVG Export Plug-In . SVG Version: 6.00 Build 0)  -->
<svg version="1.1" id="Layer_1" xmlns="http://www.w3.org/2000/svg" xmlns:xlink="http://www.w3.org/1999/xlink" x="0px" y="0px"
	 viewBox="0 0 20 20" enable-background="new 0 0 20 20" xml:space="preserve">
<path fill="#2E368F" stroke="#2E368F" stroke-width="0.75" stroke-miterlimit="10" d="M251.9,208.6l4-4c0.1-0.1,0.1-0.2,0-0.3
	c-0.1-0.1-0.2-0.1-0.3,0l-4,4l-4-4c-0.1-0.1-0.2-0.1-0.3,0c-0.1,0.1-0.1,0.2,0,0.3l4,4l-4,4c-0.1,0.1-0.1,0.2,0,0.3
	c0,0,0.1,0.1,0.2,0.1s0.1,0,0.2-0.1l4-4l4,4c0,0,0.1,0.1,0.2,0.1s0.1,0,0.2-0.1c0.1-0.1,0.1-0.2,0-0.3L251.9,208.6z"/>
<path fill="#2E368F" stroke="#2E368F" stroke-width="0.75" stroke-miterlimit="10" d="M334.7,164.7c0.1-0.1,0.1-0.2,0-0.3
	c-0.1-0.1-0.2-0.1-0.3,0l-1.8,1.8l0.3,0.3L334.7,164.7z"/>
<path fill="#2E368F" stroke="#2E368F" stroke-width="0.75" stroke-miterlimit="10" d="M334.3,172.6c0,0,0.1,0.1,0.2,0.1
	c0.1,0,0.1,0,0.2-0.1c0.1-0.1,0.1-0.2,0-0.3l-2.2-2.2l-0.3,0.3L334.3,172.6z"/>
<path fill="#2E368F" stroke="#2E368F" stroke-width="0.75" stroke-miterlimit="10" d="M330.8,168.5l0.3-0.3l-0.3-0.3l-0.3,0.3
	l-3.8-3.8c-0.1-0.1-0.2-0.1-0.3,0c-0.1,0.1-0.1,0.2,0,0.3l3.8,3.8l-3.8,3.8c-0.1,0.1-0.1,0.2,0,0.3c0,0,0.1,0.1,0.2,0.1
	c0.1,0,0.1,0,0.2-0.1l3.8-3.8l1.3,1.3l0.3-0.3L330.8,168.5z"/>
<path fill="#2E368F" stroke="#2E368F" stroke-width="0.75" stroke-miterlimit="10" d="M329.3,172.6c-0.1,0.1-0.1,0.2,0,0.3
	c0,0,0.1,0.1,0.2,0.1c0.1,0,0.1,0,0.2-0.1l1.9-1.9l-0.3-0.3L329.3,172.6z"/>
<path fill="#2E368F" stroke="#2E368F" stroke-width="0.75" stroke-miterlimit="10" d="M329.6,164.6c-0.1-0.1-0.2-0.1-0.3,0
	c-0.1,0.1-0.1,0.2,0,0.3l2.2,2.2l0.3-0.3L329.6,164.6z"/>
<path fill="#2E368F" stroke="#2E368F" stroke-width="0.75" stroke-miterlimit="10" d="M333.7,168.8l3.8-3.8c0.1-0.1,0.1-0.2,0-0.3
	c-0.1-0.1-0.2-0.1-0.3,0l-3.8,3.8l-1.3-1.3l-0.3,0.3l1.3,1.3l-0.4,0.4l0.3,0.3l0.4-0.4l3.8,3.8c0,0,0.1,0.1,0.2,0.1
	c0.1,0,0.1,0,0.2-0.1c0.1-0.1,0.1-0.2,0-0.3L333.7,168.8z"/>
<rect x="331.9" y="169.9" transform="matrix(-0.7072 -0.707 0.707 -0.7072 446.7246 525.2114)" fill="#2E368F" stroke="#2E368F" stroke-width="0.75" stroke-miterlimit="10" width="0.5" height="0.5"/>
<rect x="331.6" y="167" transform="matrix(0.7067 0.7075 -0.7075 0.7067 215.6162 -185.7253)" fill="#2E368F" stroke="#2E368F" stroke-width="0.75" stroke-miterlimit="10" width="0.5" height="0.5"/>
<g>
	<path fill="#2E368F" stroke="#2E368F" stroke-width="0.45" stroke-miterlimit="10" d="M178,125.3h-2.4c0.1-0.2,0.2-0.5,0.2-0.8v-2
		c0-1.8-1.5-3.3-3.3-3.3H170c-1.8,0-3.3,1.5-3.3,3.3v2c0,0.3,0.1,0.6,0.2,0.8h-2.4c-1,0-1.8,0.8-1.8,1.8v8.3c0,1,0.8,1.8,1.8,1.8
		H178c1,0,1.8-0.8,1.8-1.8v-8.3C179.8,126.1,179,125.3,178,125.3z M167.7,124.5v-2c0-1.3,1.1-2.3,2.3-2.3h2.5c1.3,0,2.3,1.1,2.3,2.3
		v2c0,0.4-0.4,0.8-0.8,0.8h-5.6C168.1,125.3,167.7,124.9,167.7,124.5z M178.9,135.4c0,0.4-0.4,0.8-0.8,0.8h-13.5
		c-0.4,0-0.8-0.4-0.8-0.8v-8.3c0-0.4,0.4-0.8,0.8-0.8h4h5.6h4c0.4,0,0.8,0.4,0.8,0.8V135.4z"/>
	<path fill="#2E368F" stroke="#2E368F" stroke-width="0.45" stroke-miterlimit="10" d="M171.3,128.7c-1,0-1.9,0.8-1.9,1.9
		c0,0.9,0.6,1.6,1.4,1.8v1.6c0,0.3,0.2,0.5,0.5,0.5s0.5-0.2,0.5-0.5v-1.6c0.8-0.2,1.4-0.9,1.4-1.8
		C173.2,129.5,172.3,128.7,171.3,128.7z M171.3,131.5c-0.5,0-0.9-0.4-0.9-0.9s0.4-0.9,0.9-0.9s0.9,0.4,0.9,0.9
		S171.8,131.5,171.3,131.5z"/>
</g>
<g>
	<path fill="#2E368F" stroke="#2E368F" stroke-width="0.45" stroke-miterlimit="10" d="M219.1,126.2h-2.4c0.1-0.2,0.2-0.5,0.2-0.8
		v-2c0-1.8-1.5-3.3-3.3-3.3h-2.5c-1.8,0-3.3,1.5-3.3,3.3c0,0.3,0.2,0.5,0.5,0.5s0.5-0.2,0.5-0.5c0-1.3,1.1-2.3,2.3-2.3h2.5
		c1.3,0,2.3,1.1,2.3,2.3v2c0,0.4-0.4,0.8-0.8,0.8h-5.6h-4c-1,0-1.8,0.8-1.8,1.8v8.3c0,1,0.8,1.8,1.8,1.8h13.5c1,0,1.8-0.8,1.8-1.8
		V128C220.9,127,220.1,126.2,219.1,126.2z M219.9,136.3c0,0.4-0.4,0.8-0.8,0.8h-13.5c-0.4,0-0.8-0.4-0.8-0.8V128
		c0-0.4,0.4-0.8,0.8-0.8h4h5.6h4c0.4,0,0.8,0.4,0.8,0.8V136.3z"/>
	<path fill="#2E368F" stroke="#2E368F" stroke-width="0.45" stroke-miterlimit="10" d="M212.4,129.6c-1,0-1.9,0.8-1.9,1.9
		c0,0.9,0.6,1.6,1.4,1.8v1.6c0,0.3,0.2,0.5,0.5,0.5c0.3,0,0.5-0.2,0.5-0.5v-1.6c0.8-0.2,1.4-0.9,1.4-1.8
		C214.3,130.4,213.4,129.6,212.4,129.6z M212.4,132.4c-0.5,0-0.9-0.4-0.9-0.9c0-0.5,0.4-0.9,0.9-0.9s0.9,0.4,0.9,0.9
		C213.3,132,212.9,132.4,212.4,132.4z"/>
</g>
<path fill="#2E368F" d="M59,119.6H44.7c-1,0-1.8,0.8-1.8,1.8v14.4c0,1,0.8,1.8,1.8,1.8H59c1,0,1.8-0.8,1.8-1.8v-14.4
	C60.9,120.4,60,119.6,59,119.6z M56.7,126.2c0,0-5.8,5.8-5.8,5.8c-0.3,0.3-0.5,0.2-0.8,0l-2.8-2.8c-0.3-0.3-0.3-0.5,0-0.8
	c0.3-0.3,0.5-0.3,0.8,0l2.4,2.4l5.3-5.4c0.3-0.3,0.5-0.3,0.8,0C56.9,125.7,56.9,125.9,56.7,126.2z"/>
<path fill="#2E368F" stroke="#2E368F" stroke-width="0.5" stroke-miterlimit="10" d="M18.9,200.6c0.4,0,0.8,0.4,0.8,0.8v14.3
	c0,0.4-0.4,0.8-0.8,0.8H4.6c-0.4,0-0.8-0.4-0.8-0.8v-14.3c0-0.4,0.4-0.8,0.8-0.8L18.9,200.6 M18.9,199.5H4.6c-1,0-1.9,0.8-1.9,1.9
	v14.3c0,1,0.8,1.9,1.9,1.9h14.3c1,0,1.9-0.8,1.9-1.9v-14.3C20.8,200.3,20,199.5,18.9,199.5L18.9,199.5z"/>
<path fill="#2E368F" stroke="#2E368F" stroke-miterlimit="10" d="M338,88.8c0.1-0.1,0.1-0.2,0.1-0.3c0-0.1,0-0.2-0.1-0.3l-8.2-8.2
	c-0.2-0.2-0.5-0.2-0.6,0c-0.2,0.2-0.2,0.5,0,0.6l7.8,7.8l-7.8,7.8c-0.2,0.2-0.2,0.5,0,0.6c0.2,0.2,0.5,0.2,0.6,0L338,88.8z"/>
<path fill="#2E368F" stroke="#2E368F" stroke-miterlimit="10" d="M52.4,204.5c-0.1-0.1-0.2-0.1-0.3-0.1c-0.1,0-0.2,0-0.3,0.1
	l-8.2,8.2c-0.2,0.2-0.2,0.5,0,0.6c0.2,0.2,0.5,0.2,0.6,0l7.8-7.8l7.8,7.8c0.2,0.2,0.5,0.2,0.6,0c0.2-0.2,0.2-0.5,0-0.6L52.4,204.5z"
	/>
<path fill="#2E368F" stroke="#2E368F" stroke-miterlimit="10" d="M211.5,173.5c0.1,0.1,0.2,0.1,0.3,0.1s0.2,0,0.3-0.1l8.2-8.2
	c0.2-0.2,0.2-0.5,0-0.6c-0.2-0.2-0.5-0.2-0.6,0l-7.8,7.8l-7.8-7.8c-0.2-0.2-0.5-0.2-0.6,0c-0.2,0.2-0.2,0.5,0,0.6L211.5,173.5z"/>
<g transform="matrix( 1, 0, 0, 1, 0,0) ">
	<g>
		<g id="a_3_">
			<path fill="#2E368F" stroke="#2E368F" stroke-width="0.5" stroke-miterlimit="10" d="M82.3,164v7.2c0,0.9,0.3,1.7,1,2.4
				c0.7,0.7,1.5,1,2.4,1v2.6c0,0.1,0,0.2,0.1,0.3c0,0.1,0.1,0.1,0.2,0.2c0.1,0,0.1,0,0.2,0c0.1,0,0.2,0,0.3-0.1l3-2.9h8.3
				c1,0,1.8-0.3,2.5-1c0.7-0.7,1-1.5,1-2.4V164c0-1-0.3-1.8-1-2.4c-0.7-0.7-1.5-1-2.5-1H85.8c-1,0-1.8,0.3-2.5,1
				C82.6,162.2,82.3,163,82.3,164 M85.8,161.4h12.1c0.7,0,1.3,0.2,1.8,0.7c0.5,0.5,0.8,1.1,0.8,1.8v7.2c0,0.7-0.3,1.3-0.8,1.8
				c-0.5,0.5-1.1,0.8-1.8,0.8h-8.5c-0.1,0-0.2,0-0.3,0.1l-2.3,2.3v-2c0-0.1,0-0.2-0.1-0.3c-0.1-0.1-0.2-0.1-0.3-0.1h-0.4
				c-0.7,0-1.3-0.3-1.8-0.8c-0.5-0.5-0.8-1.1-0.8-1.8V164c0-0.7,0.3-1.3,0.8-1.8C84.5,161.7,85.1,161.4,85.8,161.4z"/>
			<path fill="#2E368F" stroke="#2E368F" stroke-width="0.5" stroke-miterlimit="10" d="M97,168.4c0.2-0.2,0.4-0.5,0.4-0.8
				c0-0.3-0.1-0.6-0.4-0.8c-0.2-0.2-0.5-0.4-0.9-0.4c-0.3,0-0.6,0.1-0.9,0.4c-0.2,0.2-0.4,0.5-0.4,0.8c0,0.3,0.1,0.6,0.4,0.8
				c0.2,0.2,0.5,0.3,0.9,0.3C96.5,168.7,96.8,168.6,97,168.4 M88.7,167.5c0-0.3-0.1-0.6-0.4-0.8c-0.2-0.2-0.5-0.4-0.9-0.4
				c-0.3,0-0.6,0.1-0.9,0.4c-0.2,0.2-0.4,0.5-0.4,0.8c0,0.3,0.1,0.6,0.4,0.8c0.2,0.2,0.5,0.3,0.9,0.3c0.3,0,0.6-0.1,0.9-0.3
				C88.6,168.2,88.7,167.9,88.7,167.5 M91,166.7c-0.2,0.2-0.4,0.5-0.4,0.8c0,0.3,0.1,0.6,0.4,0.8c0.2,0.2,0.5,0.3,0.9,0.3
				c0.3,0,0.6-0.1,0.9-0.3c0.2-0.2,0.4-0.5,0.4-0.8c0-0.3-0.1-0.6-0.4-0.8c-0.2-0.2-0.5-0.4-0.9-0.4C91.5,166.4,91.2,166.5,91,166.7
				z"/>
		</g>
	</g>
</g>
<path fill="#2E368F" stroke="#2E368F" stroke-width="0.45" stroke-miterlimit="10" d="M-24.6,216h-2v2h-11.1v-15.2h2v-2h2v-2h11.1
	V214h-2L-24.6,216L-24.6,216z M-27.1,203.4h-10.1v14.2h10.1V203.4z M-35.7,205.4v-0.5h7.1v0.5H-35.7z M-35.7,207.4v-0.5h7.1v0.5
	H-35.7z M-35.7,209.5v-0.5h7.1v0.5H-35.7z M-35.7,211.5V211h7.1v0.5H-35.7z M-35.7,213.5V213h7.1v0.5H-35.7z M-35.7,215.5V215h7.1
	v0.5H-35.7z M-35.2,201.4v1.5h8.6v12.6h1.5v-14.2H-35.2z M-33.2,199.3v1.5h8.6v12.6h1.5v-14.2H-33.2z"/>
<path fill="#2E368F" d="M51.2,238.7c0,0-0.1,0-0.1,0.1l-5.2,8.4c-0.1,0.1,0,0.2,0.1,0.2h10.4c0.1,0,0.2-0.1,0.1-0.2l-5.2-8.4
	C51.3,238.8,51.3,238.7,51.2,238.7L51.2,238.7z M46,249.2c-0.1,0-0.2,0.1-0.1,0.2l5.2,8.4c0.1,0.1,0.2,0.1,0.2,0l5.2-8.4
	c0.1-0.1,0-0.2-0.1-0.2H46L46,249.2z"/>
<path fill="#2E368F" stroke="#2E368F" stroke-width="0.75" stroke-miterlimit="10" d="M331.6,159.1c-5.3,0-9.6,4.3-9.6,9.6
	s4.3,9.6,9.6,9.6c5.3,0,9.6-4.3,9.6-9.6S336.8,159.1,331.6,159.1z M331.6,177.4c-4.8,0-8.7-3.9-8.7-8.7c0-4.8,3.9-8.7,8.7-8.7
	c4.8,0,8.7,3.9,8.7,8.7C340.3,173.5,336.4,177.4,331.6,177.4z"/>
<g>
	<path fill="#2E368F" stroke="#2E368F" stroke-width="0.75" stroke-miterlimit="10" d="M131.3,208.8c-1.9,0-3.5,1.2-4.1,2.9h0.4
		c0.6-1.6,1.9-2.5,3.7-2.5c2.1,0,3.9,1.8,3.9,3.9c0,2.1-1.8,3.9-3.9,3.9c-1.6,0-2.9-1-3.5-2.3h-0.4c0.6,1.6,2.1,2.7,3.9,2.7
		c2.3,0,4.3-1.9,4.3-4.3C135.6,210.7,133.7,208.8,131.3,208.8z"/>
	<path fill="#2E368F" stroke="#2E368F" stroke-width="0.75" stroke-miterlimit="10" d="M131.3,210.3v3.3h2.5v0.4h-2.9
		c0-1.2,0-2.7,0-3.7L131.3,210.3z"/>
</g>
<path fill="#2E368F" stroke="#2E368F" stroke-miterlimit="10" d="M100.2,208.7c-0.2,0-0.3,0.1-0.3,0.3v5c0,1.6-1.3,2.9-2.9,2.9H86.4
	c-1.6,0-2.9-1.3-2.9-2.9v-8.4v-2.2c0-1.6,1.3-2.9,2.9-2.9h4.9c0.2,0,0.3-0.1,0.3-0.3s-0.1-0.3-0.3-0.3h-4.9c-1.9,0-3.5,1.6-3.5,3.5
	v2.2v8.4c0,1.9,1.6,3.5,3.5,3.5H97c1.9,0,3.5-1.6,3.5-3.5v-5C100.5,208.8,100.4,208.7,100.2,208.7z"/>
<g>
	<g>
		<path fill="#2E368F" d="M100.8,199.7c0.6,0.6,0.6,1.5,0,2.1l-0.7,0.7l-2.1-2.1l0.7-0.7C99.3,199.1,100.2,199.1,100.8,199.7z"/>
		<polygon fill="#2E368F" points="90.5,207.9 89.9,210.6 92.6,210 99.4,203.1 97.4,201.1 		"/>
	</g>
</g>
<g>
	<g>
		<path fill="#2E368F" d="M-54.6,141.7c0.3,0.3,0.3,0.7,0,0.9l-0.3,0.3l-0.9-0.9l0.3-0.3C-55.2,141.4-54.8,141.4-54.6,141.7z"/>
		<polygon fill="#2E368F" points="-59.1,145.3 -59.4,146.5 -58.2,146.2 -55.2,143.2 -56.1,142.3 		"/>
	</g>
</g>
<path fill="#2E368F" stroke="#2E368F" stroke-miterlimit="10" d="M-143.7,217.3c0-0.2-0.1-0.3-0.3-0.3h-5.2c-1.7,0-3-1.4-3-3V203
	c0-1.7,1.4-3,3-3h8.7h2.3c1.7,0,3,1.4,3,3v5.1c0,0.2,0.1,0.3,0.3,0.3c0.2,0,0.3-0.1,0.3-0.3V203c0-2-1.6-3.6-3.6-3.6h-2.3h-8.7
	c-2,0-3.6,1.6-3.6,3.6V214c0,2,1.6,3.6,3.6,3.6h5.2C-143.8,217.6-143.7,217.4-143.7,217.3z"/>
<path fill="#2E368F" stroke="#2E368F" stroke-width="0.75" stroke-miterlimit="10" d="M260.2,248.9c-0.2,0-0.3,0.1-0.3,0.3v5
	c0,1.6-1.3,2.9-2.9,2.9h-10.5c-1.6,0-2.9-1.3-2.9-2.9v-8.4v-2.2c0-1.6,1.3-2.9,2.9-2.9h4.9c0.2,0,0.3-0.1,0.3-0.3
	c0-0.2-0.1-0.3-0.3-0.3h-4.9c-1.9,0-3.5,1.5-3.5,3.5v2.2v8.4c0,1.9,1.5,3.5,3.5,3.5H257c1.9,0,3.5-1.5,3.5-3.5v-5
	C260.4,249,260.3,248.9,260.2,248.9z"/>
<path fill="#2E368F" stroke="#2E368F" stroke-width="0.75" stroke-miterlimit="10" d="M220.7,88.5c-0.2,0-0.3,0.1-0.3,0.3v5.3
	c0,1.7-1.4,3.1-3.1,3.1H206c-1.7,0-3.1-1.4-3.1-3.1v-9v-2.3c0-1.7,1.4-3.1,3.1-3.1h5.3c0.2,0,0.3-0.1,0.3-0.3c0-0.2-0.1-0.3-0.3-0.3
	H206c-2,0-3.7,1.7-3.7,3.7v2.3v9c0,2,1.7,3.7,3.7,3.7h11.3c2,0,3.7-1.7,3.7-3.7v-5.3C221,88.6,220.9,88.5,220.7,88.5z"/>
<g>
	<path fill="#2E368F" d="M221.3,78.9c0.6,0.6,0.6,1.6,0,2.2l-0.7,0.7l-2.2-2.2l0.7-0.7C219.7,78.3,220.7,78.3,221.3,78.9z"/>
	<polygon fill="#2E368F" points="210.4,87.7 209.6,90.6 212.6,89.9 219.9,82.6 217.7,80.4 	"/>
</g>
<path fill="#2E368F" stroke="#2E368F" stroke-width="0.75" stroke-miterlimit="10" d="M139.8,87.6h-7.1v-7.1c0-0.5-0.4-0.8-0.8-0.8
	c-0.5,0-0.8,0.4-0.8,0.8v7.1h-7.1c-0.5,0-0.8,0.4-0.8,0.8s0.4,0.8,0.8,0.8h7.1v7.1c0,0.5,0.4,0.8,0.8,0.8c0.5,0,0.8-0.4,0.8-0.8
	v-7.1h7.1c0.5,0,0.8-0.4,0.8-0.8S140.2,87.6,139.8,87.6z"/>
<path fill="#2E368F" stroke="#2E368F" stroke-width="0.75" stroke-miterlimit="10" d="M100.7,96.7l-4.2-4.2c2.7-3,2.6-7.7-0.3-10.6
	c-3-3-7.9-3-11,0c-3,3-3,7.9,0,11c1.5,1.5,3.5,2.3,5.5,2.3c1.8,0,3.7-0.7,5.1-2l4.2,4.2c0.1,0.1,0.2,0.1,0.3,0.1s0.2,0,0.3-0.1
	C100.8,97.2,100.8,96.9,100.7,96.7z M85.8,92.2c-2.7-2.7-2.7-7,0-9.7c1.3-1.3,3.1-2,4.8-2s3.5,0.7,4.8,2c2.7,2.7,2.7,7,0,9.7
	C92.8,94.8,88.5,94.8,85.8,92.2z"/>
<path fill="#2E368F" stroke="#2E368F" stroke-width="0.75" stroke-miterlimit="10" d="M176.6,216.6l-2.1-2.1
	c1.4-1.5,1.3-3.9-0.2-5.4c-1.5-1.5-4-1.5-5.5,0c-1.5,1.5-1.5,4,0,5.5c0.8,0.8,1.8,1.1,2.8,1.1c0.9,0,1.9-0.3,2.6-1l2.1,2.1
	c0,0,0.1,0.1,0.2,0.1s0.1,0,0.2-0.1C176.7,216.8,176.7,216.7,176.6,216.6z M169.1,214.3c-1.3-1.3-1.3-3.5,0-4.9c0.7-0.7,1.6-1,2.4-1
	c0.9,0,1.8,0.3,2.4,1c1.3,1.3,1.3,3.5,0,4.9C172.7,215.7,170.5,215.7,169.1,214.3z"/>
<path fill="#2E368F" stroke="#2E368F" stroke-width="0.75" stroke-miterlimit="10" d="M-28.2,79.3c-5,0-9.1,4.1-9.1,9.1
	c0,5,4.1,9.1,9.1,9.1s9.1-4.1,9.1-9.1C-19.1,83.4-23.2,79.3-28.2,79.3z M-28.2,96.8c-4.6,0-8.3-3.7-8.3-8.3c0-4.6,3.7-8.3,8.3-8.3
	s8.3,3.7,8.3,8.3C-19.9,93.1-23.6,96.8-28.2,96.8z"/>
<path fill="#2E368F" stroke="#2E368F" stroke-miterlimit="10" d="M180.3,80.6v4.6c0,0.1-0.1,0.2-0.2,0.2s-0.2-0.1-0.2-0.2v-4
	l-7.8,7.8c0,0-0.1,0.1-0.2,0.1c0,0-0.1,0-0.2-0.1c-0.1-0.1-0.1-0.2,0-0.3l7.8-7.8h-4c-0.1,0-0.2-0.1-0.2-0.2s0.1-0.2,0.2-0.2h4.6
	C180.2,80.3,180.3,80.4,180.3,80.6z"/>
<path fill="#2E368F" stroke="#2E368F" stroke-width="0.75" stroke-miterlimit="10" d="M179.6,88.8c-0.1,0-0.2,0.1-0.2,0.2v4.6
	c0,1.5-1.2,2.7-2.7,2.7h-9.8c-1.5,0-2.7-1.2-2.7-2.7v-7.8v-2c0-1.5,1.2-2.7,2.7-2.7h4.6c0.1,0,0.2-0.1,0.2-0.2s-0.1-0.2-0.2-0.2
	h-4.6c-1.8,0-3.2,1.4-3.2,3.2v2v7.8c0,1.8,1.4,3.2,3.2,3.2h9.8c1.8,0,3.2-1.4,3.2-3.2V89C179.8,88.9,179.7,88.8,179.6,88.8z"/>
<path fill="#2E368F" stroke="#2E368F" stroke-miterlimit="10" d="M-78.1,132.1v4.3c0,0.1-0.1,0.2-0.2,0.2c-0.1,0-0.2-0.1-0.2-0.2
	v-3.8l-7.4,7.4c0,0-0.1,0.1-0.2,0.1s-0.1,0-0.2-0.1c-0.1-0.1-0.1-0.2,0-0.3l7.4-7.4h-3.8c-0.1,0-0.2-0.1-0.2-0.2
	c0-0.1,0.1-0.2,0.2-0.2h4.3C-78.2,131.8-78.1,131.9-78.1,132.1z"/>
<path fill="#2E368F" stroke="#2E368F" stroke-width="0.75" stroke-miterlimit="10" d="M-80.7,142c-0.1,0-0.2,0.1-0.2,0.2v4.4
	c0,1.4-1.2,2.6-2.6,2.6h-9.4c-1.4,0-2.6-1.2-2.6-2.6v-7.5v-1.9c0-1.4,1.2-2.6,2.6-2.6h4.4c0.1,0,0.2-0.1,0.2-0.2
	c0-0.1-0.1-0.2-0.2-0.2h-4.4c-1.7,0-3.1,1.4-3.1,3.1v1.9v7.5c0,1.7,1.4,3.1,3.1,3.1h9.4c1.7,0,3.1-1.4,3.1-3.1v-4.4
	C-80.5,142.1-80.6,142-80.7,142z"/>
<path fill="#2E368F" stroke="#2E368F" stroke-width="0.5" stroke-miterlimit="10" d="M21.2,92.3v-7.9c0-0.2,0.1-1.8-0.5-2.5
	c-0.4-0.5-1.2-0.6-2-0.6h-0.4c-0.1,0-0.3,0-0.6,0v-0.7c0-0.2-0.2-0.4-0.4-0.4c-0.2,0-0.4,0.2-0.4,0.4v0.8c-2.5,0-8,0-10.5,0v-0.8
	c0-0.2-0.2-0.4-0.4-0.4c-0.2,0-0.2,0.2-0.2,0.4v0.8c-0.3,0-0.5,0-0.6,0H4.9c-0.9,0-1.7,0-2,0.6c-0.6,0.6-0.5,2.2-0.5,2.4V96
	c0,0.2,0.2,0.4,0.4,0.4h14.5c0.1,0,0.2,0,0.3-0.1l0,0l3.6-3.7l0,0l0,0l0,0c0,0,0,0,0-0.1S21.2,92.4,21.2,92.3z M3.4,82.4
	c0.2-0.3,0.9-0.3,1.6-0.3h0.4c0.1,0,0.3,0,0.6,0v0.5c0,0.2,0.2,0.4,0.4,0.4c0.2,0,0.3-0.2,0.3-0.4v-0.5c2.5,0,8,0,10.5,0v0.5
	c0,0.2,0.2,0.4,0.4,0.4s0.4-0.2,0.4-0.4v-0.5c0.3,0,0.5,0,0.6,0h0.4c0.7,0,1.3,0,1.6,0.3c0.1,0.3,0.1,1.1,0.1,1.7H3.1
	C3.1,83.4,3.2,82.7,3.4,82.4z M3.1,84.8h17.4V92h-3.3c-0.2,0-0.4,0.2-0.4,0.4v3.4H3.1V84.8z M20,92.7l-2.4,2.5v-2.5H20z"/>
<g>
	<rect x="6.8" y="86.7" fill="#2E368F" width="1.9" height="1.4"/>
	<rect x="9.5" y="86.7" fill="#2E368F" width="1.9" height="1.4"/>
	<rect x="12.2" y="86.7" fill="#2E368F" width="1.9" height="1.4"/>
	<rect x="14.8" y="86.7" fill="#2E368F" width="1.9" height="1.4"/>
	<rect x="6.8" y="88.9" fill="#2E368F" width="1.9" height="1.4"/>
	<rect x="9.5" y="88.9" fill="#2E368F" width="1.9" height="1.4"/>
	<rect x="12.2" y="88.9" fill="#2E368F" width="1.9" height="1.4"/>
	<rect x="14.8" y="88.9" fill="#2E368F" width="1.9" height="1.4"/>
	<rect x="6.8" y="91.1" fill="#2E368F" width="1.9" height="1.4"/>
	<rect x="9.5" y="91.1" fill="#2E368F" width="1.9" height="1.4"/>
	<rect x="12.2" y="91.1" fill="#2E368F" width="1.9" height="1.4"/>
	<rect x="14.8" y="91.1" fill="#2E368F" width="1.9" height="1.4"/>
</g>
<g>
	<g>
		<path fill="#EF3C24" d="M52.3,79.6c-0.1-0.2-0.3-0.3-0.5-0.3c-0.2,0-0.4,0.1-0.5,0.3l-9.2,16c-0.1,0.2-0.1,0.4,0,0.6
			c0.1,0.2,0.3,0.3,0.5,0.3H61l0,0c0.3,0,0.6-0.3,0.6-0.6c0-0.1,0-0.3-0.1-0.4L52.3,79.6z M43.6,95.3l8.1-14.1l8.1,14.1H43.6z"/>
		<path fill="#EF3C24" d="M51.1,85.6v4.9c0,0.3,0.3,0.6,0.6,0.6c0.3,0,0.6-0.3,0.6-0.6v-4.9c0-0.3-0.3-0.6-0.6-0.6
			C51.4,84.9,51.1,85.2,51.1,85.6z"/>
		<path fill="#EF3C24" d="M51.8,91.9c-0.3,0-0.6,0.3-0.6,0.6V93c0,0.3,0.3,0.6,0.6,0.6s0.6-0.3,0.6-0.6v-0.4
			C52.4,92.2,52.1,91.9,51.8,91.9z"/>
	</g>
</g>
<g>
	<g>
		<path fill="#F26722" d="M-28.1,39.7c-0.1-0.2-0.3-0.3-0.5-0.3c-0.2,0-0.4,0.1-0.5,0.3l-9.2,16c-0.1,0.2-0.1,0.4,0,0.6
			c0.1,0.2,0.3,0.3,0.5,0.3h18.5l0,0c0.3,0,0.6-0.3,0.6-0.6c0-0.1,0-0.3-0.1-0.4L-28.1,39.7z M-36.8,55.4l8.1-14.1l8.1,14.1H-36.8z"
			/>
		<path fill="#F26722" d="M-29.3,45.7v4.9c0,0.3,0.3,0.6,0.6,0.6s0.6-0.3,0.6-0.6v-4.9c0-0.3-0.3-0.6-0.6-0.6
			C-29,45-29.3,45.3-29.3,45.7z"/>
		<path fill="#F26722" d="M-28.6,52c-0.3,0-0.6,0.3-0.6,0.6v0.4c0,0.3,0.3,0.6,0.6,0.6c0.3,0,0.6-0.3,0.6-0.6v-0.4
			C-28,52.3-28.3,52-28.6,52z"/>
	</g>
</g>
<polygon fill="#2E368F" points="-33.1,88.2 -30.7,88.2 -30.7,91.8 -25.9,91.8 -25.9,88.2 -23.5,88.2 -28.3,83.4 "/>
<path fill="#2E368F" stroke="#2E368F" stroke-width="0.75" stroke-miterlimit="10" d="M251.6,199.4c-5.1,0-9.2,4.1-9.2,9.2
	c0,5.1,4.1,9.2,9.2,9.2c5.1,0,9.2-4.1,9.2-9.2C260.8,203.5,256.7,199.4,251.6,199.4z M251.6,216.9c-4.6,0-8.4-3.8-8.4-8.4
	c0-4.6,3.8-8.4,8.4-8.4c4.6,0,8.4,3.8,8.4,8.4C260,213.2,256.2,216.9,251.6,216.9z"/>
<path fill="#2E368F" stroke="#2E368F" stroke-width="0.75" stroke-miterlimit="10" d="M331.8,199.4c-5.1,0-9.2,4.1-9.2,9.2
	c0,5.1,4.1,9.2,9.2,9.2s9.2-4.1,9.2-9.2C341,203.5,336.8,199.4,331.8,199.4z M331.8,216.9c-4.6,0-8.4-3.8-8.4-8.4
	c0-4.6,3.8-8.4,8.4-8.4s8.4,3.8,8.4,8.4C340.1,213.2,336.4,216.9,331.8,216.9z"/>
<path fill="#2E368F" stroke="#2E368F" stroke-width="0.75" stroke-miterlimit="10" d="M-27.5,172.6l1.9-1.9c0,0,0-0.1,0-0.2
	c0,0-0.1,0-0.2,0l-1.9,1.9l-1.9-1.9c0,0-0.1,0-0.2,0c0,0,0,0.1,0,0.2l1.9,1.9l-1.9,1.9c0,0,0,0.1,0,0.2c0,0,0.1,0,0.1,0s0.1,0,0.1,0
	l1.9-1.9l1.9,1.9c0,0,0.1,0,0.1,0c0,0,0.1,0,0.1,0c0,0,0-0.1,0-0.2L-27.5,172.6z"/>
<path fill="#2E368F" stroke="#2E368F" stroke-width="0.75" stroke-miterlimit="10" d="M-27.6,167.7c-2.7,0-4.8,2.2-4.8,4.8
	c0,2.7,2.2,4.8,4.8,4.8s4.8-2.2,4.8-4.8C-22.8,169.9-24.9,167.7-27.6,167.7z M-27.6,177c-2.4,0-4.4-2-4.4-4.4c0-2.4,2-4.4,4.4-4.4
	s4.4,2,4.4,4.4C-23.2,175-25.2,177-27.6,177z"/>
<rect x="11.4" y="119.9" transform="matrix(-0.5425 -0.8401 0.8401 -0.5425 -89.7785 208.041)" fill="#2E368F" stroke="#2E368F" stroke-width="0.75" stroke-miterlimit="10" width="0.8" height="17.2"/>
<path fill="#2E368F" stroke="#2E368F" stroke-width="0.75" stroke-miterlimit="10" d="M11.7,119.5c-4.8,0-8.8,3.9-8.8,8.8
	c0,4.8,3.9,8.8,8.8,8.8s8.8-3.9,8.8-8.8C20.4,123.5,16.5,119.5,11.7,119.5z M11.7,136.3c-4.4,0-8-3.6-8-8c0-4.4,3.6-8,8-8s8,3.6,8,8
	C19.7,132.7,16.1,136.3,11.7,136.3z"/>
<g>
	<path fill="#2E368F" stroke="#2E368F" stroke-width="0.75" stroke-miterlimit="10" d="M251.9,174.1c0.3,0,0.5-0.2,0.5-0.5v-7.1
		c0-0.3-0.2-0.5-0.5-0.5c-0.3,0-0.5,0.2-0.5,0.5v7.1C251.4,173.9,251.7,174.1,251.9,174.1z"/>
	<path fill="#2E368F" stroke="#2E368F" stroke-width="0.75" stroke-miterlimit="10" d="M251.9,164.7c0.3,0,0.5-0.2,0.5-0.5v-1
		c0-0.3-0.2-0.5-0.5-0.5c-0.3,0-0.5,0.2-0.5,0.5v1C251.4,164.4,251.6,164.7,251.9,164.7z"/>
</g>
<path fill="#2E368F" stroke="#2E368F" stroke-width="0.75" stroke-miterlimit="10" d="M251.9,159.5c-4.9,0-8.9,4-8.9,8.9
	c0,4.9,4,8.9,8.9,8.9s8.9-4,8.9-8.9C260.8,163.5,256.8,159.5,251.9,159.5z M251.9,176.5c-4.5,0-8.1-3.6-8.1-8.1
	c0-4.5,3.6-8.1,8.1-8.1s8.1,3.6,8.1,8.1C260,172.9,256.4,176.5,251.9,176.5z"/>
<path fill="#2E368F" stroke="#2E368F" stroke-width="0.75" stroke-miterlimit="10" d="M131.9,159.4c-5.2,0-9.4,4.2-9.4,9.4
	c0,5.2,4.2,9.4,9.4,9.4c5.2,0,9.4-4.2,9.4-9.4C141.3,163.6,137.1,159.4,131.9,159.4z M131.9,177.3c-4.7,0-8.5-3.8-8.5-8.5
	c0-4.7,3.8-8.5,8.5-8.5c4.7,0,8.5,3.8,8.5,8.5C140.5,173.5,136.6,177.3,131.9,177.3z"/>
<polygon fill="#2E368F" points="136.8,168.4 134.3,168.4 134.3,164.7 129.4,164.7 129.4,168.4 127,168.4 131.9,173.3 "/>
<path fill="#2E368F" stroke="#2E368F" stroke-width="0.75" stroke-miterlimit="10" d="M-28.3,119.7c-4.9,0-8.8,4-8.8,8.8
	c0,4.9,4,8.8,8.8,8.8s8.8-4,8.8-8.8C-19.5,123.7-23.4,119.7-28.3,119.7z M-28.3,136.6c-4.4,0-8-3.6-8-8c0-4.4,3.6-8,8-8s8,3.6,8,8
	C-20.2,133-23.8,136.6-28.3,136.6z"/>
<polygon fill="#2E368F" points="-23.7,128.2 -26,128.2 -26,124.7 -30.6,124.7 -30.6,128.2 -32.9,128.2 -28.3,132.8 "/>
<path fill="#2E368F" stroke="#2E368F" stroke-width="0.75" stroke-miterlimit="10" d="M292.3,79.4c-5,0-9,4.1-9,9c0,5,4.1,9,9,9
	s9-4.1,9-9C301.3,83.5,297.3,79.4,292.3,79.4z M292.3,96.7c-4.5,0-8.2-3.7-8.2-8.2c0-4.5,3.7-8.2,8.2-8.2s8.2,3.7,8.2,8.2
	C300.6,93,296.9,96.7,292.3,96.7z"/>
<path fill="#2E368F" stroke="#2E368F" stroke-width="0.75" stroke-miterlimit="10" d="M96.7,124.8c-0.1-0.1-0.3-0.1-0.4,0l-6.8,6.8
	l-2.2-2.2c-0.1-0.1-0.3-0.1-0.4,0c-0.1,0.1-0.1,0.3,0,0.4l2.4,2.4c0.1,0.1,0.1,0.1,0.2,0.1c0.1,0,0.1,0,0.2-0.1l7-7
	C96.9,125.1,96.9,125,96.7,124.8z"/>
<path fill="#2E368F" stroke="#2E368F" stroke-width="0.45" stroke-miterlimit="10" d="M91.8,119.1c-5.2,0-9.5,4.2-9.5,9.5
	c0,5.2,4.2,9.5,9.5,9.5s9.5-4.2,9.5-9.5C101.3,123.3,97.1,119.1,91.8,119.1z M91.8,137.2c-4.8,0-8.6-3.9-8.6-8.6
	c0-4.8,3.9-8.6,8.6-8.6s8.6,3.9,8.6,8.6C100.5,133.3,96.6,137.2,91.8,137.2z"/>
<path fill="#2E368F" stroke="#2E368F" stroke-width="0.45" stroke-miterlimit="10" d="M-34.8,0.6c-5.2,0-9.5,4.2-9.5,9.5
	c0,5.2,4.2,9.5,9.5,9.5s9.5-4.2,9.5-9.5C-25.3,4.8-29.6,0.6-34.8,0.6z M-34.8,18.7c-4.8,0-8.6-3.9-8.6-8.6c0-4.8,3.9-8.6,8.6-8.6
	s8.6,3.9,8.6,8.6C-26.2,14.8-30,18.7-34.8,18.7z"/>
<g>
	<path fill="#2E368F" stroke="#2E368F" stroke-width="0.75" stroke-miterlimit="10" d="M295.3,165.4c0.1-0.1,0.1-0.3,0-0.4
		c-0.1-0.1-0.3-0.1-0.4,0l-4.4,4.4l0.4,0.4L295.3,165.4z"/>
	<path fill="#2E368F" stroke="#2E368F" stroke-width="0.75" stroke-miterlimit="10" d="M288.1,171.8l-2.1-2.1
		c-0.1-0.1-0.3-0.1-0.4,0c-0.1,0.1-0.1,0.3,0,0.4l2.3,2.3c0.1,0.1,0.1,0.1,0.2,0.1c0.1,0,0.1,0,0.2-0.1l0.2-0.2L288.1,171.8
		L288.1,171.8z"/>
	<path fill="#2E368F" stroke="#2E368F" stroke-width="0.75" stroke-miterlimit="10" d="M288.7,169.4c-0.1-0.1-0.3-0.1-0.4,0
		c-0.1,0.1-0.1,0.3,0,0.4l0.9,0.9l0.4-0.4L288.7,169.4z"/>
	<path fill="#2E368F" stroke="#2E368F" stroke-width="0.75" stroke-miterlimit="10" d="M298,164.7c-0.1-0.1-0.3-0.1-0.4,0l-6.8,6.8
		l-0.8-0.8l-0.4,0.4l1,1c0.1,0.1,0.1,0.1,0.2,0.1c0.1,0,0.1,0,0.2-0.1l7-7C298.1,165,298.1,164.8,298,164.7z"/>
	
		<rect x="289.3" y="170.4" transform="matrix(0.7074 -0.7068 0.7068 0.7074 -35.9044 254.653)" fill="#2E368F" stroke="#2E368F" stroke-width="0.75" stroke-miterlimit="10" width="0.6" height="0.6"/>
</g>
<path fill="#2E368F" stroke="#2E368F" stroke-width="0.75" stroke-miterlimit="10" d="M291.8,159.1c-5.2,0-9.4,4.2-9.4,9.4
	c0,5.2,4.2,9.4,9.4,9.4s9.4-4.2,9.4-9.4C301.2,163.4,297,159.1,291.8,159.1z M291.8,177.1c-4.7,0-8.6-3.8-8.6-8.6
	c0-4.7,3.8-8.6,8.6-8.6c4.7,0,8.6,3.8,8.6,8.6C300.4,173.3,296.5,177.1,291.8,177.1z"/>
<circle fill="#2E368F" cx="172" cy="168.7" r="5.2"/>
<path fill="#2E368F" stroke="#2E368F" stroke-width="0.75" stroke-miterlimit="10" d="M172,159.8c-4.9,0-9,4-9,9c0,4.9,4,9,9,9
	c4.9,0,9-4,9-9C180.9,163.8,176.9,159.8,172,159.8z M172,176.9c-4.5,0-8.2-3.7-8.2-8.2c0-4.5,3.7-8.2,8.2-8.2s8.2,3.7,8.2,8.2
	C180.1,173.2,176.5,176.9,172,176.9z"/>
<circle fill="#2E368F" cx="251.6" cy="88.3" r="5.2"/>
<path fill="#2E368F" stroke="#2E368F" stroke-width="0.75" stroke-miterlimit="10" d="M251.6,79.3c-5,0-9.1,4.1-9.1,9.1
	c0,5,4.1,9.1,9.1,9.1s9.1-4.1,9.1-9.1C260.7,83.3,256.6,79.3,251.6,79.3z M251.6,96.6c-4.6,0-8.3-3.7-8.3-8.3c0-4.6,3.7-8.3,8.3-8.3
	c4.6,0,8.3,3.7,8.3,8.3C259.9,92.9,256.2,96.6,251.6,96.6z"/>
<g>
	<path fill="#2E368F" d="M256.5,123.1v3.5h1v-3.9c0-0.2-0.1-0.3-0.2-0.4l-3.3-2.9c-0.1-0.1-0.3-0.1-0.4-0.1h-9.4
		c-0.3,0-0.6,0.3-0.6,0.6v17.4c0,0.3,0.3,0.6,0.6,0.6h12.7c0.3,0,0.6-0.3,0.6-0.6v-4.6h-1v4.2h-11.9v-16.7h8.8v2.9H256.5z"/>
	<g>
		<path fill="#2E368F" d="M252.3,128.9c-0.1,0-0.2,0-0.4,0h-0.2v0.7h0.3c0.2,0,0.3,0,0.4,0c0.1,0,0.1-0.1,0.2-0.1s0.1-0.1,0.1-0.2
			c0-0.1,0-0.2-0.1-0.2C252.4,129,252.4,128.9,252.3,128.9z"/>
		<path fill="#2E368F" d="M254.8,129c-0.1-0.1-0.1-0.1-0.2-0.1c-0.1,0-0.2,0-0.4,0h-0.2v1.6h0.4c0.1,0,0.2,0,0.3,0
			c0.1,0,0.1-0.1,0.2-0.1c0.1,0,0.1-0.1,0.1-0.2c0-0.1,0-0.3,0-0.4c0-0.2,0-0.3,0-0.4C254.9,129.2,254.8,129.1,254.8,129z"/>
		<path fill="#2E368F" d="M258.2,127.3h-7.9c-0.4,0-0.7,0.3-0.7,0.7v3.4c0,0.4,0.3,0.7,0.7,0.7h7.9c0.4,0,0.7-0.3,0.7-0.7V128
			C258.9,127.6,258.6,127.3,258.2,127.3z M253,129.6c-0.1,0.1-0.1,0.2-0.2,0.2c-0.1,0.1-0.2,0.1-0.3,0.1c-0.1,0-0.3,0-0.5,0h-0.3
			v0.9h-0.5v-2.4h0.8c0.3,0,0.5,0,0.6,0c0.1,0,0.3,0.1,0.3,0.2c0.1,0.1,0.1,0.3,0.1,0.5C253.1,129.4,253,129.5,253,129.6z
			 M255.4,130.2c-0.1,0.2-0.1,0.3-0.3,0.4c-0.1,0.1-0.2,0.1-0.3,0.2c-0.1,0-0.3,0.1-0.4,0.1h-0.9v-2.4h0.9c0.2,0,0.4,0,0.5,0
			c0.1,0,0.3,0.1,0.4,0.2c0.1,0.1,0.2,0.2,0.2,0.4c0.1,0.2,0.1,0.3,0.1,0.6C255.5,129.9,255.5,130.1,255.4,130.2z M257.4,128.9h-1.2
			v0.6h1v0.4h-1v1h-0.5v-2.4h1.7V128.9z"/>
	</g>
</g>
<path fill="#2E368F" stroke="#2E368F" stroke-width="0.5" stroke-miterlimit="10" d="M300.8,123.7c-0.1-0.1-0.4-0.1-0.5,0l-9.1,9.1
	l-2.9-2.9c-0.1-0.1-0.4-0.1-0.5,0s-0.1,0.4,0,0.5l3.1,3.1c0.1,0.1,0.2,0.1,0.3,0.1c0.1,0,0.2,0,0.3-0.1l9.4-9.4
	C300.9,124.1,300.9,123.8,300.8,123.7z"/>
<path fill="#2E368F" d="M295.1,123v3.5h1v-3.8c0-0.2-0.1-0.3-0.2-0.4l-3.2-2.9c-0.1-0.1-0.3-0.1-0.4-0.1h-9.3
	c-0.3,0-0.6,0.3-0.6,0.6V137c0,0.3,0.3,0.6,0.6,0.6h12.5c0.3,0,0.6-0.3,0.6-0.6v-4.5h-1v4.2h-11.8v-16.5h8.7v2.9H295.1z"/>
<rect x="126.6" y="127.4" fill="#2E368F" width="9.1" height="0.8"/>
<rect x="126.6" y="129.7" fill="#2E368F" width="9.1" height="0.8"/>
<rect x="126.6" y="125.1" fill="#2E368F" width="5.3" height="0.8"/>
<rect x="126.6" y="132" fill="#2E368F" width="9.1" height="0.8"/>
<path fill="#2E368F" d="M137.2,122.8v10.3h1v-10.7c0-0.2-0.1-0.3-0.2-0.5l-3.4-3.1c-0.1-0.1-0.3-0.2-0.4-0.2h-9.8
	c-0.4,0-0.6,0.3-0.6,0.6v18.3c0,0.4,0.3,0.6,0.6,0.6h13.3c0.4,0,0.6-0.3,0.6-0.6v-4.8h-1v4.4h-12.5v-17.5h9.2v3H137.2z"/>
<g>
	<path fill="#2E368F" d="M44.3,159.4v16.3h1.1v-15.1h6.9v5.1h5.1v10h1.1v-10.9l-5.4-5.4H44.3z M53.4,164.5v-3.1l3.1,3.1H53.4z"/>
	<polygon fill="#2E368F" points="49.3,174.9 49.3,177.6 53.5,177.6 53.5,174.9 56.3,174.9 51.4,171 46.5,174.9 	"/>
</g>
<g>
	<path fill="#2E368F" d="M323.6,118.5v17.9h1.3v-16.6h7.5v5.6h5.6v11h1.3v-11.9l-6-6H323.6z M333.7,124.1v-3.4l3.4,3.4H333.7z"/>
	<polygon fill="#2E368F" points="333.8,134.2 333.8,131.2 329.1,131.2 329.1,134.2 326.1,134.2 331.4,138.5 336.8,134.2 	"/>
</g>
<path fill="#2E368F" d="M359.6,118.5v17.9h1.3v-16.6h7.5v5.6h5.6v11h1.3v-11.9l-6-6H359.6z M369.6,124.1v-3.4l3.4,3.4H369.6z"/>
<path fill="#2E368F" d="M-35.3,159.2v17.5h1.2v-16.3h7.4v5.5h5.5v10.8h1.2v-11.7l-5.8-5.8H-35.3z M-25.4,164.7v-3.4l3.4,3.4H-25.4z"
	/>
<path fill="#2E368F" stroke="#2E368F" stroke-width="0.75" stroke-miterlimit="10" d="M12.3,167.6c-2.6,0-4.6,2.1-4.6,4.6
	c0,2.6,2.1,4.6,4.6,4.6s4.6-2.1,4.6-4.6C17,169.7,14.9,167.6,12.3,167.6z M12.3,176.5c-2.3,0-4.2-1.9-4.2-4.2c0-2.3,1.9-4.2,4.2-4.2
	s4.2,1.9,4.2,4.2C16.6,174.6,14.7,176.5,12.3,176.5z"/>
<path fill="#2E368F" d="M4.9,159.2v17.1h1.2v-15.9h7.2v5.3h5.3v10.6h1.2v-11.4l-5.7-5.7H4.9z M14.5,164.6v-3.3l3.3,3.3H14.5z"/>
<path fill="#2E368F" stroke="#2E368F" stroke-width="0.75" stroke-miterlimit="10" d="M-57.1,166.8c-2.6,0-4.6,2.1-4.6,4.6
	c0,2.6,2.1,4.6,4.6,4.6c2.6,0,4.6-2.1,4.6-4.6C-52.4,168.8-54.5,166.8-57.1,166.8z M-57.1,175.6c-2.3,0-4.2-1.9-4.2-4.2
	c0-2.3,1.9-4.2,4.2-4.2c2.3,0,4.2,1.9,4.2,4.2C-52.9,173.7-54.8,175.6-57.1,175.6z"/>
<path fill="#2E368F" d="M-64.5,158.4v17.1h1.2v-15.9h7.2v5.3h5.3v10.6h1.2v-11.4l-5.7-5.7H-64.5z M-54.9,163.7v-3.3l3.3,3.3H-54.9z"
	/>
<g>
	<path fill="#2E368F" d="M123.7,199v17.4h1.2v-16.1h7.3v5.4h5.4v10.7h1.2v-11.6l-5.8-5.8H123.7z M133.5,204.4v-3.3l3.3,3.3H133.5z"
		/>
</g>
<path fill="#2E368F" d="M164.4,198.9v17.6h1.2v-16.4h7.4v5.5h5.5v10.9h1.2v-11.7l-5.9-5.9H164.4z M174.3,204.3V201l3.4,3.4H174.3z"
	/>
<path fill="#2E368F" stroke="#2E368F" stroke-width="0.75" stroke-miterlimit="10" d="M-53,216.6l-2.1-2.1c1.4-1.5,1.3-3.9-0.2-5.4
	c-1.5-1.5-4-1.5-5.5,0c-1.5,1.5-1.5,4,0,5.5c0.8,0.8,1.8,1.1,2.8,1.1c0.9,0,1.9-0.3,2.6-1l2.1,2.1c0,0,0.1,0.1,0.2,0.1
	s0.1,0,0.2-0.1C-52.9,216.8-52.9,216.7-53,216.6z M-60.5,214.3c-1.3-1.3-1.3-3.5,0-4.9c0.7-0.7,1.6-1,2.4-1s1.8,0.3,2.4,1
	c1.3,1.3,1.3,3.5,0,4.9C-56.9,215.7-59.1,215.7-60.5,214.3z"/>
<path fill="#2E368F" d="M-65.2,198.9v17.6h1.2v-16.4h7.4v5.5h5.5v10.9h1.2v-11.7l-5.9-5.9H-65.2z M-55.3,204.3V201l3.4,3.4H-55.3z"
	/>
<path fill="#2E368F" d="M-121.9,198.9v17.6h1.2v-16.4h7.4v5.5h5.5v10.9h1.2v-11.7l-5.9-5.9H-121.9z M-112,204.3V201l3.4,3.4H-112z"
	/>
<path fill="#2E368F" d="M203.9,199v17.6h1.2v-16.3h7.4v5.5h5.5v10.8h1.2v-11.7l-5.8-5.8H203.9z M213.8,204.5v-3.4l3.4,3.4H213.8z"/>
<path fill="#2E368F" stroke="#2E368F" stroke-width="0.75" stroke-miterlimit="10" d="M211.6,210.5c-2.8,0-4.9,3.3-4.9,3.3
	s2.2,3.2,4.9,3.2c2.8,0,4.9-3.3,4.9-3.3S214.4,210.5,211.6,210.5z M211.6,216.4c-2.4,0-4.2-2.8-4.2-2.8s1.9-2.8,4.2-2.8
	s4.2,2.8,4.2,2.8S214,216.4,211.6,216.4z"/>
<path fill="none" stroke="#2E368F" stroke-width="0.5" stroke-miterlimit="10" d="M211.6,212.2c-0.8,0-1.6,0.6-1.6,1.6
	c0,0.8,0.6,1.6,1.6,1.6c0.8,0,1.6-0.6,1.6-1.6C213.1,213,212.4,212.2,211.6,212.2z M211.6,214.9c-0.6,0-1.1-0.5-1.1-1.1
	c0-0.5,0.5-1.2,1.1-1.2s1.1,0.5,1.1,1.1C212.7,214.2,212.2,214.9,211.6,214.9z"/>
<path fill="#2E368F" stroke="#2E368F" stroke-width="0.75" stroke-miterlimit="10" d="M-114.1,209c-2.8,0-4.9,3.3-4.9,3.3
	s2.2,3.2,4.9,3.2c2.8,0,4.9-3.3,4.9-3.3S-111.3,209-114.1,209z M-114.1,215c-2.4,0-4.2-2.8-4.2-2.8s1.9-2.8,4.2-2.8
	c2.4,0,4.2,2.8,4.2,2.8S-111.7,215-114.1,215z"/>
<path fill="none" stroke="#2E368F" stroke-width="0.5" stroke-miterlimit="10" d="M-114.1,210.8c-0.8,0-1.6,0.6-1.6,1.6
	c0,0.8,0.6,1.6,1.6,1.6c0.8,0,1.6-0.6,1.6-1.6C-112.5,211.5-113.3,210.8-114.1,210.8z M-114.1,213.4c-0.6,0-1.1-0.5-1.1-1.1
	c0-0.5,0.5-1.2,1.1-1.2c0.6,0,1.1,0.5,1.1,1.1C-113,212.8-113.5,213.4-114.1,213.4z"/>
<g>
	<g>
		<g>
			<g>
				<polygon fill="#2E368F" points="-29.7,244 -33.8,239.9 -37.9,244 -35.3,244 -35.3,258.5 -32.4,258.5 -32.4,244 				"/>
				<rect x="-29.4" y="239.9" fill="#2E368F" width="8.7" height="2.8"/>
				<rect x="-30.2" y="245.1" fill="#2E368F" width="9.5" height="2.8"/>
				<rect x="-30.2" y="250.5" fill="#2E368F" width="9.5" height="2.8"/>
				<rect x="-30.3" y="255.6" fill="#2E368F" width="9.6" height="2.8"/>
			</g>
		</g>
	</g>
</g>
<g>
	<g>
		<g>
			<g>
				<polygon fill="#2E368F" points="2.8,253.5 6.5,257.2 10.3,253.5 7.9,253.5 7.9,240.2 5.2,240.2 5.2,253.5 				"/>
				<rect x="9.8" y="254.6" fill="#2E368F" width="8.9" height="2.6"/>
				<rect x="9.8" y="249.9" fill="#2E368F" width="9.7" height="2.6"/>
				<rect x="9.8" y="244.9" fill="#2E368F" width="9.7" height="2.6"/>
				<rect x="9.8" y="240.2" fill="#2E368F" width="9.8" height="2.6"/>
			</g>
		</g>
	</g>
</g>
<path fill="#2E368F" d="M283.3,208.3h12.7l-2.7-2.7c-0.2-0.2-0.2-0.6,0-0.8c0.2-0.2,0.6-0.2,0.8,0l3.6,3.6c0.2,0.2,0.2,0.6,0,0.8
	l-3.6,3.6c-0.1,0.1-0.2,0.2-0.4,0.2s-0.3-0.1-0.4-0.2c-0.2-0.2-0.2-0.6,0-0.8l2.7-2.7h-12.7c-0.3,0-0.5-0.2-0.5-0.5
	C282.7,208.5,282.9,208.3,283.3,208.3z M297.6,199.4h-11c-2.1,0-3.9,1.7-3.9,3.9v2.3c0,0.3,0.2,0.5,0.5,0.5s0.5-0.2,0.5-0.5v-2.3
	c0-1.5,1.3-2.8,2.8-2.8h11c1.5,0,2.8,1.3,2.8,2.8v11c0,1.5-1.3,2.8-2.8,2.8h-11c-1.5,0-2.8-1.3-2.8-2.8v-2.3c0-0.3-0.2-0.5-0.5-0.5
	s-0.5,0.2-0.5,0.5v2.3c0,2.1,1.7,3.9,3.9,3.9h11c2.1,0,3.9-1.7,3.9-3.9v-11C301.5,201.1,299.8,199.4,297.6,199.4z"/>
<path fill="#2E368F" d="M292.1,208.8"/>
<path fill="#2E368F" d="M292.1,208.8"/>
<polyline fill="none" stroke="#2E368F" stroke-width="0.95" stroke-miterlimit="10" points="86.5,248.6 88,250.6 90.6,247.4 "/>
<path fill="none" stroke="#2E368F" stroke-width="0.95" stroke-miterlimit="10" d="M96.7,252.9H86.5c-2.1,0-3.8-1.7-3.8-3.8l0,0
	c0-2.1,1.7-3.8,3.8-3.8h10.2c2.1,0,3.8,1.7,3.8,3.8l0,0C100.5,251.2,98.8,252.9,96.7,252.9z"/>
<circle fill="none" stroke="#2E368F" stroke-width="0.95" stroke-miterlimit="10" cx="96.5" cy="249.2" r="2.5"/>
<path fill="none" stroke="#2E368F" stroke-width="0.95" stroke-miterlimit="10" d="M137,252.9h-10.2c-2.1,0-3.8-1.7-3.8-3.8l0,0
	c0-2.1,1.7-3.8,3.8-3.8h10.2c2.1,0,3.8,1.7,3.8,3.8l0,0C140.8,251.2,139.1,252.9,137,252.9z"/>
<circle fill="none" stroke="#2E368F" stroke-width="0.95" stroke-miterlimit="10" cx="127.6" cy="249.2" r="2.5"/>
<g>
	<path fill="#2E368F" d="M178.1,247.1c-0.3,0-0.5,0-0.8-0.1c-0.2,0-0.3-0.2-0.2-0.4c0-0.2,0.2-0.3,0.4-0.2c1.3,0.3,2.6-0.3,3.2-1.5
		c0.3-0.7,0.4-1.5,0.2-2.2c-0.2-0.7-0.8-1.3-1.4-1.7c-0.7-0.3-1.5-0.4-2.2-0.2c-0.7,0.2-1.3,0.8-1.7,1.4c-0.1,0.1-0.3,0.2-0.4,0.1
		c-0.1-0.1-0.2-0.3-0.1-0.4c0.4-0.8,1.1-1.4,2-1.7c0.9-0.3,1.8-0.2,2.7,0.2c0.8,0.4,1.4,1.1,1.7,2c0.3,0.9,0.2,1.8-0.2,2.7
		C180.6,246.4,179.4,247.1,178.1,247.1z M178.1,242v3.1 M176.5,243.6h3.1 M178.4,245.1v-1.3h1.2c0.2,0,0.3-0.1,0.3-0.3
		c0-0.2-0.1-0.3-0.3-0.3h-1.2V242c0-0.2-0.1-0.3-0.3-0.3c-0.2,0-0.3,0.1-0.3,0.3v1.3h-1.3c-0.2,0-0.3,0.1-0.3,0.3
		c0,0.2,0.1,0.3,0.3,0.3h1.3v1.3c0,0.2,0.1,0.3,0.3,0.3C178.3,245.4,178.4,245.3,178.4,245.1z"/>
	<g>
		<path fill="#2E368F" d="M170,256.7c-2.5,0-4.8-1.6-6.1-4.2c-0.4,0-0.9-0.3-1.2-0.9c-0.5-0.9-0.8-2.4-0.4-3.1
			c0.2-0.3,0.4-0.4,0.7-0.4c0,0,0,0,0,0c0.1-2,0.8-3.9,2-5.3c1.3-1.5,3-2.4,4.9-2.4c1.8,0,3.6,0.8,4.9,2.4c1.2,1.4,1.9,3.3,2,5.3
			c0,0,0,0,0,0c0.2,0,0.9,0.1,0.9,1.4c0,1.3-0.7,3-1.7,3.1C174.8,255.1,172.5,256.7,170,256.7z M164.1,251.9c0.1,0,0.2,0.1,0.3,0.2
			c1.1,2.5,3.2,4,5.6,4c2.3,0,4.5-1.5,5.6-4c0.1-0.1,0.2-0.2,0.3-0.2c0,0,0,0,0.1,0l0,0c0.6,0,1.2-1.4,1.2-2.5
			c0-0.5-0.1-0.8-0.3-0.8c0,0-0.1,0-0.2,0c-0.1,0-0.2,0-0.3,0c-0.1-0.1-0.1-0.1-0.1-0.2c0-4.1-2.9-7.5-6.3-7.5
			c-3.4,0-6.3,3.3-6.3,7.5c0,0.1-0.1,0.2-0.1,0.2c-0.1,0.1-0.2,0.1-0.3,0c-0.1,0-0.1,0-0.2,0c0,0-0.1,0-0.1,0.1
			c-0.3,0.4-0.1,1.7,0.4,2.5c0.1,0.2,0.4,0.6,0.7,0.6C164,251.9,164.1,251.9,164.1,251.9C164.1,251.9,164.1,251.9,164.1,251.9z"/>
	</g>
	<g>
		<path fill="#2E368F" d="M176.6,248.4c-1.8-0.4-3.6-2.6-4.6-4.4c-0.9,0.8-1.8,1.6-2.8,2.2c-2.5,1.7-5.7,2.2-5.7,2.2
			s0.2-2.5,1.8-4.6c0.7-0.9,1.6-1.8,2.7-2.3c1.6-0.8,3.8-0.6,5.3,0.4c0.4,0.3,0.8,0.6,1.1,1c0.6,0.8,1.1,1.8,1.4,2.7
			c0.3,0.8,0.5,1.6,0.7,2.4C176.5,248.1,176.5,248.3,176.6,248.4z"/>
		<path fill="#2E368F" d="M176.6,248.7c-1.7-0.4-3.6-2.5-4.7-4.3c-0.7,0.7-1.6,1.3-2.6,2c-2.5,1.7-5.7,2.3-5.8,2.3
			c-0.1,0-0.3-0.2-0.2-0.3c0-0.1,0,0.1,0,0c0-0.1,0.2-2.5,1.8-4.8c0.8-1,1.8-1.9,2.8-2.4c0.7-0.3,1.5-0.5,2.4-0.5
			c1.1,0,2.2,0.3,3.1,0.9c0.4,0.2,0.8,0.6,1.2,1.1c0.6,0.8,1.1,1.8,1.5,2.8c0.3,0.7,0.5,1.5,0.7,2.5c0,0.2,0.1,0.3,0.1,0.5
			c0,0,0,0,0,0.1C176.8,248.6,176.7,248.7,176.6,248.7"/>
	</g>
</g>
<path fill="#2E368F" d="M98.1,47.6c-0.3,0-0.5,0-0.8-0.1c-0.2,0-0.3-0.2-0.2-0.4c0-0.2,0.2-0.3,0.4-0.2c1.3,0.3,2.6-0.3,3.2-1.5
	c0.3-0.7,0.4-1.5,0.2-2.2c-0.2-0.7-0.8-1.3-1.5-1.7c-0.7-0.3-1.5-0.4-2.2-0.2c-0.7,0.2-1.3,0.8-1.7,1.5c-0.1,0.1-0.3,0.2-0.4,0.1
	c-0.1-0.1-0.2-0.3-0.1-0.4c0.4-0.8,1.1-1.5,2-1.8c0.9-0.3,1.8-0.2,2.7,0.2c0.8,0.4,1.5,1.1,1.8,2c0.3,0.9,0.2,1.8-0.2,2.7
	C100.6,46.8,99.4,47.6,98.1,47.6z"/>
<g>
	<path fill="#2E368F" d="M89.8,57.3c-2.6,0-4.9-1.6-6.1-4.2c-0.5,0-0.9-0.3-1.2-0.9c-0.5-0.9-0.8-2.4-0.4-3.2
		c0.2-0.3,0.4-0.4,0.7-0.4c0,0,0,0,0,0c0.1-2,0.8-3.9,2.1-5.4c1.3-1.5,3.1-2.4,4.9-2.4c1.9,0,3.6,0.9,4.9,2.4c1.2,1.4,2,3.3,2.1,5.4
		c0,0,0,0,0,0c0.2,0,0.9,0.1,0.9,1.4c0,1.3-0.7,3-1.8,3.1C94.7,55.7,92.4,57.3,89.8,57.3z M83.9,52.4c0.1,0,0.2,0.1,0.3,0.2
		c1.1,2.5,3.3,4.1,5.7,4.1c2.4,0,4.5-1.6,5.7-4.1c0.1-0.1,0.2-0.2,0.3-0.2c0,0,0,0,0.1,0l0,0c0.6,0,1.2-1.4,1.2-2.5
		c0-0.5-0.1-0.8-0.3-0.8c0,0-0.1,0-0.2,0c-0.1,0-0.2,0-0.3,0s-0.1-0.1-0.1-0.3c0-4.2-2.9-7.5-6.4-7.5c-3.5,0-6.3,3.4-6.4,7.5
		c0,0.1-0.1,0.2-0.1,0.3s-0.2,0.1-0.3,0c-0.1,0-0.1,0-0.2,0c0,0-0.1,0-0.2,0.1c-0.3,0.4-0.1,1.7,0.4,2.6c0.1,0.2,0.4,0.6,0.7,0.6
		C83.8,52.4,83.8,52.4,83.9,52.4C83.9,52.4,83.9,52.4,83.9,52.4z"/>
</g>
<g>
	<path fill="#2E368F" d="M96.5,48.9c-1.8-0.4-3.7-2.6-4.7-4.5c-0.9,0.8-1.9,1.6-2.9,2.3c-2.5,1.7-5.7,2.2-5.7,2.2s0.2-2.5,1.8-4.7
		c0.7-0.9,1.7-1.8,2.7-2.4c1.6-0.8,3.8-0.6,5.3,0.4c0.4,0.3,0.9,0.6,1.2,1c0.6,0.8,1.1,1.8,1.4,2.7c0.3,0.8,0.5,1.6,0.7,2.5
		C96.4,48.6,96.5,48.8,96.5,48.9z"/>
	<path fill="#2E368F" d="M96.5,49.2c-1.8-0.4-3.7-2.5-4.7-4.4c-0.8,0.7-1.6,1.4-2.7,2.1c-2.5,1.7-5.8,2.3-5.9,2.3
		c-0.1,0-0.3-0.2-0.3-0.3c0-0.1,0,0.1,0,0c0-0.1,0.2-2.6,1.9-4.8c0.8-1.1,1.8-1.9,2.8-2.4c0.7-0.3,1.6-0.5,2.4-0.5
		c1.2,0,2.3,0.3,3.1,0.9c0.4,0.2,0.9,0.6,1.2,1.1c0.7,0.8,1.1,1.8,1.5,2.8c0.3,0.7,0.5,1.5,0.8,2.5c0,0.2,0.1,0.3,0.1,0.5
		c0,0,0,0.1,0,0.1C96.7,49.1,96.6,49.2,96.5,49.2"/>
</g>
<path fill="#2E368F" d="M338.6,248.8c-0.2,0-0.5,0-0.7-0.1c-0.2,0-0.2-0.2-0.2-0.3c0-0.2,0.2-0.2,0.3-0.2c1.2,0.3,2.4-0.3,3-1.4
	c0.3-0.6,0.4-1.4,0.1-2.1c-0.2-0.7-0.7-1.2-1.3-1.6c-0.6-0.3-1.4-0.4-2.1-0.1c-0.7,0.2-1.2,0.7-1.6,1.3c-0.1,0.1-0.2,0.2-0.4,0.1
	c-0.1-0.1-0.2-0.2-0.1-0.4c0.4-0.8,1.1-1.4,1.9-1.6c0.8-0.3,1.7-0.2,2.5,0.2c0.8,0.4,1.4,1.1,1.6,1.9c0.3,0.8,0.2,1.7-0.2,2.5
	C341,248.2,339.8,248.8,338.6,248.8z"/>
<g>
	<g>
		<path fill="#2E368F" d="M331,257.8c-2.4,0-4.5-1.5-5.6-3.9c-0.4,0-0.8-0.3-1.1-0.8c-0.5-0.8-0.7-2.3-0.3-2.9
			c0.1-0.2,0.4-0.4,0.6-0.4c0,0,0,0,0,0c0.1-1.9,0.8-3.6,1.9-5c1.2-1.4,2.8-2.2,4.6-2.2c1.7,0,3.3,0.8,4.6,2.2
			c1.1,1.3,1.8,3.1,1.9,5c0,0,0,0,0,0c0.2,0,0.8,0.1,0.8,1.3c0,1.2-0.6,2.8-1.6,2.9C335.5,256.3,333.4,257.8,331,257.8z
			 M325.6,253.3c0.1,0,0.2,0.1,0.3,0.2c1,2.3,3,3.8,5.2,3.8c2.2,0,4.2-1.4,5.2-3.8c0.1-0.1,0.2-0.2,0.3-0.2c0,0,0,0,0.1,0l0,0
			c0.6,0,1.1-1.3,1.1-2.3c0-0.4-0.1-0.7-0.3-0.7c0,0-0.1,0-0.2,0c-0.1,0-0.2,0-0.3,0s-0.1-0.1-0.1-0.2c0-3.8-2.7-7-5.9-7
			c-3.2,0-5.9,3.1-5.9,7c0,0.1,0,0.2-0.1,0.2s-0.2,0.1-0.3,0c-0.1,0-0.1,0-0.2,0c0,0-0.1,0-0.1,0.1c-0.2,0.4-0.1,1.6,0.3,2.4
			c0.1,0.2,0.4,0.6,0.7,0.6C325.5,253.3,325.5,253.3,325.6,253.3C325.5,253.3,325.6,253.3,325.6,253.3z"/>
	</g>
</g>
<g>
	<g>
		<path fill="#2E368F" d="M337.2,250.1c-1.7-0.3-3.4-2.4-4.3-4.1c-0.8,0.8-1.7,1.4-2.6,2.1c-2.3,1.6-5.3,2-5.3,2s0.2-2.3,1.7-4.3
			c0.6-0.9,1.5-1.7,2.5-2.2c1.5-0.7,3.5-0.6,4.9,0.3c0.4,0.2,0.8,0.6,1.1,0.9c0.6,0.7,1,1.7,1.3,2.5c0.3,0.7,0.5,1.5,0.7,2.3
			C337.1,249.8,337.1,249.9,337.2,250.1z"/>
		<path fill="#2E368F" d="M337.2,250.4c-1.6-0.3-2.8-1.4-3.8-3.2c-0.7,2.1-4.8,2.9-5.7,2.4c-2.3,1.6-2.7,0.7-2.8,0.7
			c-0.1,0-0.2-0.2-0.2-0.3c0-0.1,0,0.1,0,0c0-0.1,0.2-2.4,1.7-4.4c0.7-1,1.6-1.8,2.6-2.2c0.7-0.3,1.4-0.5,2.2-0.5
			c1.1,0,2.1,0.3,2.9,0.8c0.3,0.2,0.8,0.6,1.1,1c0.6,0.8,1,1.7,1.4,2.6c0.3,0.7,0.5,1.4,0.7,2.3c0,0.2,0.1,0.3,0.1,0.4
			c0,0,0,0,0,0.1C337.4,250.2,337.3,250.4,337.2,250.4"/>
	</g>
</g>
<g>
	<g>
		<path fill="#2E368F" d="M325.7,250.2c-1.3,0-2.4-0.8-3-2.1c-0.2,0-0.4-0.2-0.6-0.4c-0.3-0.4-0.4-1.2-0.2-1.6
			c0.1-0.1,0.2-0.2,0.3-0.2c0,0,0,0,0,0c0-1,0.4-1.9,1-2.6c0.6-0.8,1.5-1.2,2.4-1.2c0.9,0,1.8,0.4,2.4,1.2c0.6,0.7,1,1.6,1,2.6
			c0,0,0,0,0,0c0.1,0,0.4,0,0.4,0.7c0,0.6-0.3,1.5-0.9,1.5C328.1,249.4,327,250.2,325.7,250.2z M322.8,247.8c0.1,0,0.1,0,0.1,0.1
			c0.5,1.2,1.6,2,2.8,2c1.2,0,2.2-0.8,2.8-2c0-0.1,0.1-0.1,0.2-0.1c0,0,0,0,0,0l0,0c0.3,0,0.6-0.7,0.6-1.2c0-0.2-0.1-0.4-0.1-0.4
			c0,0-0.1,0-0.1,0c0,0-0.1,0-0.1,0c0,0-0.1-0.1-0.1-0.1c0-2-1.4-3.7-3.1-3.7c-1.7,0-3.1,1.7-3.1,3.7c0,0,0,0.1-0.1,0.1
			c0,0-0.1,0-0.1,0c0,0-0.1,0-0.1,0c0,0,0,0-0.1,0.1c-0.1,0.2-0.1,0.8,0.2,1.3C322.5,247.6,322.6,247.8,322.8,247.8
			C322.8,247.8,322.8,247.8,322.8,247.8C322.8,247.8,322.8,247.8,322.8,247.8z"/>
	</g>
	<g>
		<path fill="#2E368F" d="M329,246.1c-0.9-0.2-1.8-1.3-2.3-2.2c-0.4,0.4-0.9,0.8-1.4,1.1c-1.2,0.8-2.8,1.1-2.8,1.1s0.1-1.2,0.9-2.3
			c0.3-0.5,0.8-0.9,1.3-1.2c0.8-0.4,1.9-0.3,2.6,0.2c0.2,0.1,0.4,0.3,0.6,0.5c0.3,0.4,0.5,0.9,0.7,1.3c0.2,0.4,0.3,0.8,0.4,1.2
			C329,245.9,329,246,329,246.1z"/>
		<path fill="#2E368F" d="M329,246.2c-0.9-0.2-1.5-0.8-2-1.7c-0.4,1.1-2.5,1.5-3,1.3c-1.2,0.8-1.4,0.4-1.5,0.4c0,0-0.1-0.1-0.1-0.2
			c0,0,0,0,0,0c0-0.1,0.1-1.3,0.9-2.4c0.4-0.5,0.9-1,1.4-1.2c0.4-0.2,0.8-0.3,1.2-0.3c0.6,0,1.1,0.2,1.5,0.4
			c0.2,0.1,0.4,0.3,0.6,0.5c0.3,0.4,0.5,0.9,0.7,1.4c0.1,0.4,0.3,0.7,0.4,1.2c0,0.1,0,0.2,0,0.2c0,0,0,0,0,0
			C329.1,246.2,329.1,246.2,329,246.2"/>
	</g>
</g>
<g>
	<g>
		<path fill="#2E368F" d="M329,245.7c-0.9,0-1.8-0.6-2.2-1.6c-0.2,0-0.3-0.1-0.4-0.3c-0.2-0.3-0.3-0.9-0.1-1.2
			c0.1-0.1,0.1-0.2,0.2-0.2c0,0,0,0,0,0c0-0.7,0.3-1.4,0.8-2c0.5-0.6,1.1-0.9,1.8-0.9c0.7,0,1.3,0.3,1.8,0.9c0.5,0.5,0.7,1.2,0.8,2
			c0,0,0,0,0,0c0.1,0,0.3,0,0.3,0.5c0,0.5-0.2,1.1-0.6,1.1C330.8,245.1,330,245.7,329,245.7z M326.9,243.9c0,0,0.1,0,0.1,0.1
			c0.4,0.9,1.2,1.5,2.1,1.5c0.9,0,1.7-0.6,2.1-1.5c0,0,0.1-0.1,0.1-0.1c0,0,0,0,0,0l0,0c0.2,0,0.4-0.5,0.4-0.9c0-0.2,0-0.3-0.1-0.3
			c0,0,0,0-0.1,0c0,0-0.1,0-0.1,0c0,0-0.1-0.1-0.1-0.1c0-1.5-1.1-2.8-2.3-2.8c-1.3,0-2.3,1.2-2.3,2.8c0,0,0,0.1-0.1,0.1
			c0,0-0.1,0-0.1,0c0,0,0,0-0.1,0c0,0,0,0-0.1,0c-0.1,0.2-0.1,0.6,0.1,0.9C326.6,243.8,326.7,243.9,326.9,243.9
			C326.8,243.9,326.8,243.9,326.9,243.9C326.8,243.9,326.9,243.9,326.9,243.9z"/>
	</g>
	<g>
		<path fill="#2E368F" d="M331.5,242.6c-0.7-0.1-1.4-1-1.7-1.6c-0.3,0.3-0.7,0.6-1.1,0.8c-0.9,0.6-2.1,0.8-2.1,0.8s0.1-0.9,0.7-1.7
			c0.3-0.3,0.6-0.7,1-0.9c0.6-0.3,1.4-0.2,2,0.1c0.1,0.1,0.3,0.2,0.4,0.4c0.2,0.3,0.4,0.7,0.5,1c0.1,0.3,0.2,0.6,0.3,0.9
			C331.5,242.5,331.5,242.6,331.5,242.6z"/>
		<path fill="#2E368F" d="M331.5,242.7c-0.6-0.1-1.1-0.6-1.5-1.3c-0.3,0.8-1.9,1.1-2.3,1c-0.9,0.6-1.1,0.3-1.1,0.3
			c0,0-0.1-0.1-0.1-0.1c0,0,0,0,0,0c0,0,0.1-0.9,0.7-1.8c0.3-0.4,0.7-0.7,1-0.9c0.3-0.1,0.6-0.2,0.9-0.2c0.4,0,0.8,0.1,1.2,0.3
			c0.1,0.1,0.3,0.2,0.4,0.4c0.2,0.3,0.4,0.7,0.5,1c0.1,0.3,0.2,0.6,0.3,0.9c0,0.1,0,0.1,0,0.2c0,0,0,0,0,0
			C331.6,242.7,331.5,242.7,331.5,242.7"/>
	</g>
</g>
<g>
	<g>
		<path fill="#2E368F" d="M218,247.1c-0.3,0-0.5,0-0.8-0.1c-0.2,0-0.3-0.2-0.2-0.4c0-0.2,0.2-0.3,0.4-0.2c1.3,0.3,2.6-0.3,3.2-1.5
			c0.3-0.7,0.4-1.5,0.2-2.2c-0.2-0.7-0.8-1.3-1.4-1.7c-0.7-0.3-1.5-0.4-2.2-0.2c-0.7,0.2-1.3,0.8-1.7,1.4c-0.1,0.1-0.3,0.2-0.4,0.1
			c-0.1-0.1-0.2-0.3-0.1-0.4c0.4-0.8,1.1-1.4,2-1.7c0.9-0.3,1.8-0.2,2.7,0.2c0.8,0.4,1.4,1.1,1.7,2c0.3,0.9,0.2,1.8-0.2,2.7
			C220.5,246.4,219.3,247.1,218,247.1z"/>
		<g>
			<path fill="#2E368F" d="M209.9,256.7c-2.5,0-4.8-1.6-6.1-4.2c-0.4,0-0.9-0.3-1.2-0.9c-0.5-0.9-0.8-2.4-0.4-3.1
				c0.2-0.3,0.4-0.4,0.7-0.4c0,0,0,0,0,0c0.1-2,0.8-3.9,2-5.3c1.3-1.5,3-2.4,4.9-2.4c1.8,0,3.6,0.8,4.9,2.4c1.2,1.4,1.9,3.3,2,5.3
				c0,0,0,0,0,0c0.2,0,0.9,0.1,0.9,1.4c0,1.3-0.7,3-1.7,3.1C214.7,255.1,212.4,256.7,209.9,256.7z M204,251.9c0.1,0,0.2,0.1,0.3,0.2
				c1.1,2.5,3.2,4,5.6,4c2.3,0,4.5-1.5,5.6-4c0.1-0.1,0.2-0.2,0.3-0.2c0,0,0,0,0.1,0l0,0c0.6,0,1.2-1.4,1.2-2.5
				c0-0.5-0.1-0.8-0.3-0.8c0,0-0.1,0-0.2,0c-0.1,0-0.2,0-0.3,0c-0.1-0.1-0.1-0.1-0.1-0.2c0-4.1-2.9-7.5-6.3-7.5
				c-3.4,0-6.3,3.3-6.3,7.5c0,0.1-0.1,0.2-0.1,0.2c-0.1,0.1-0.2,0.1-0.3,0c-0.1,0-0.1,0-0.2,0c0,0-0.1,0-0.1,0.1
				c-0.3,0.4-0.1,1.7,0.4,2.5c0.1,0.2,0.4,0.6,0.7,0.6C203.9,251.9,203.9,251.9,204,251.9C204,251.9,204,251.9,204,251.9z"/>
		</g>
		<g>
			<path fill="#2E368F" d="M216.4,248.4c-1.8-0.4-3.6-2.6-4.6-4.4c-0.9,0.8-1.8,1.6-2.8,2.2c-2.5,1.7-5.7,2.2-5.7,2.2
				s0.2-2.5,1.8-4.6c0.7-0.9,1.6-1.8,2.7-2.3c1.6-0.8,3.8-0.6,5.3,0.4c0.4,0.3,0.8,0.6,1.1,1c0.6,0.8,1.1,1.8,1.4,2.7
				c0.3,0.8,0.5,1.6,0.7,2.4C216.4,248.1,216.4,248.3,216.4,248.4z"/>
			<path fill="#2E368F" d="M216.4,248.7c-1.7-0.4-3.6-2.5-4.7-4.3c-0.7,0.7-1.6,1.3-2.6,2c-2.5,1.7-5.7,2.3-5.8,2.3
				c-0.1,0-0.3-0.2-0.2-0.3c0-0.1,0,0.1,0,0c0-0.1,0.2-2.5,1.8-4.8c0.8-1,1.8-1.9,2.8-2.4c0.7-0.3,1.5-0.5,2.4-0.5
				c1.1,0,2.2,0.3,3.1,0.9c0.4,0.2,0.8,0.6,1.2,1.1c0.6,0.8,1.1,1.8,1.5,2.8c0.3,0.7,0.5,1.5,0.7,2.5c0,0.2,0.1,0.3,0.1,0.5
				c0,0,0,0,0,0.1C216.7,248.6,216.6,248.7,216.4,248.7"/>
		</g>
	</g>
</g>
<path fill="#2E368F" stroke="#2E368F" stroke-width="0.5" stroke-miterlimit="10" d="M218.3,243.5l1.2-1.2c0,0,0-0.1,0-0.1
	c0,0-0.1,0-0.1,0L218.3,243.5l-1.3-1.3c0,0-0.1,0-0.1,0c0,0,0,0.1,0,0.1l1.2,1.2l-1.2,1.2c0,0,0,0.1,0,0.1c0,0,0,0,0,0c0,0,0,0,0,0
	L218.3,243.5l1.1,1.3c0,0,0,0,0,0c0,0,0,0,0,0c0,0,0-0.1,0-0.1L218.3,243.5z"/>
<g>
	<g>
		<path fill="#2E368F" stroke="#2E368F" stroke-width="0.15" stroke-miterlimit="10" d="M260.1,241.2l-1.4-1.4
			c-0.4-0.4-1.1-0.4-1.5,0l-7.8,7.7l-1.6,4.5l4.5-1.6l7.8-7.7C260.5,242.3,260.5,241.6,260.1,241.2z M249.2,249.9l0.7-1.8l1.8,1.8
			l-1.8,0.6L249.2,249.9z M250.6,248.2l6.1-6.1l0.4,0.4l-6.1,6.1L250.6,248.2z M250.4,248.1l-0.3-0.4l6.1-6.1l0.3,0.4L250.4,248.1z
			 M251.2,248.8l6.1-6.1l0.4,0.4l-6.1,6.1L251.2,248.8z M256.5,241.3l0.2-0.2l2,2l-0.2,0.2L256.5,241.3z M252.1,249.7l-0.3-0.4
			l6.1-6.1l0.3,0.4L252.1,249.7z M259.6,242.2l-0.6,0.6l-2-2l0.6-0.6c0.2-0.2,0.4-0.2,0.6,0l1.4,1.4
			C259.8,241.8,259.8,242.1,259.6,242.2z"/>
	</g>
</g>
<circle fill="#2E368F" cx="291.8" cy="248.5" r="9.1"/>
<path fill="#FFFFFF" stroke="#FFFFFF" stroke-miterlimit="10" d="M292.5,248.4l3.9-3.9c0.1-0.1,0.1-0.2,0-0.3
	c-0.1-0.1-0.2-0.1-0.3,0l-3.9,3.9l-3.9-3.9c-0.1-0.1-0.2-0.1-0.3,0c-0.1,0.1-0.1,0.2,0,0.3l3.9,3.9l-3.9,3.9c-0.1,0.1-0.1,0.2,0,0.3
	c0,0,0.1,0.1,0.2,0.1c0.1,0,0.1,0,0.2-0.1l3.9-3.9l3.9,3.9c0,0,0.1,0.1,0.2,0.1s0.1,0,0.2-0.1c0.1-0.1,0.1-0.2,0-0.3L292.5,248.4z"
	/>
<polygon fill="#2E368F" points="336.8,245 338.2,244.1 338.2,244 336.4,245 338.2,246 338.2,245.8 "/>
<path fill="#2E368F" d="M338.9,244.6l0-0.6l-1.7,1l1.7,1l0-0.6c1.8,0,2,1.3,2,1.3C340.9,245.1,339.4,244.7,338.9,244.6z"/>
<path fill="#2E368F" stroke="#2E368F" stroke-width="0.95" stroke-miterlimit="10" d="M332.1,203.3c-1.7,0-3.3,0.7-4.3,2v-1.6
	c0-0.1-0.1-0.2-0.2-0.2s-0.2,0.1-0.2,0.2v2.1c0,0,0,0,0,0c0,0,0,0,0,0c0,0,0,0,0,0c0,0,0,0,0,0c0,0,0,0,0,0c0,0,0,0,0,0c0,0,0,0,0,0
	c0,0,0,0,0,0c0,0,0,0,0,0c0,0,0,0,0,0h2.1c0.1,0,0.2-0.1,0.2-0.2s-0.1-0.2-0.2-0.2h-1.7c1-1.2,2.5-2,4.1-2c2.9,0,5.3,2.4,5.3,5.3
	s-2.4,5.3-5.3,5.3c-1.1,0-2.2-0.3-3.1-1c-0.1-0.1-0.2,0-0.3,0c-0.1,0.1,0,0.2,0,0.3c1,0.7,2.1,1,3.3,1c3.2,0,5.7-2.6,5.7-5.7
	C337.8,205.8,335.2,203.3,332.1,203.3z"/>
<path fill="#2E368F" d="M337.9,47.5c-0.3,0-0.5,0-0.8-0.1c-0.2,0-0.3-0.2-0.2-0.4c0-0.2,0.2-0.3,0.4-0.2c1.3,0.3,2.6-0.3,3.2-1.5
	c0.3-0.7,0.4-1.5,0.2-2.2c-0.2-0.7-0.8-1.3-1.4-1.7c-0.7-0.3-1.5-0.4-2.2-0.2c-0.7,0.2-1.3,0.8-1.7,1.4c-0.1,0.1-0.3,0.2-0.4,0.1
	c-0.1-0.1-0.2-0.3-0.1-0.4c0.4-0.8,1.1-1.4,2-1.7c0.9-0.3,1.8-0.2,2.7,0.2c0.8,0.4,1.4,1.1,1.7,2c0.3,0.9,0.2,1.8-0.2,2.7
	C340.4,46.7,339.2,47.5,337.9,47.5z"/>
<g>
	<path fill="#2E368F" d="M329.7,57.1c-2.5,0-4.8-1.6-6.1-4.2c-0.4,0-0.9-0.3-1.2-0.9c-0.5-0.9-0.8-2.4-0.4-3.1
		c0.2-0.3,0.4-0.4,0.7-0.4c0,0,0,0,0,0c0.1-2,0.8-3.9,2-5.3c1.3-1.5,3-2.4,4.9-2.4c1.8,0,3.6,0.8,4.9,2.4c1.2,1.4,1.9,3.3,2,5.3
		c0,0,0,0,0,0c0.2,0,0.9,0.1,0.9,1.4c0,1.3-0.7,3-1.7,3.1C334.6,55.5,332.3,57.1,329.7,57.1z M323.9,52.3c0.1,0,0.2,0.1,0.3,0.2
		c1.1,2.5,3.2,4,5.6,4c2.3,0,4.5-1.5,5.6-4c0.1-0.1,0.2-0.2,0.3-0.2c0,0,0,0,0.1,0l0,0c0.6,0,1.2-1.4,1.2-2.5c0-0.5-0.1-0.8-0.3-0.8
		c0,0-0.1,0-0.2,0c-0.1,0-0.2,0-0.3,0c-0.1-0.1-0.1-0.1-0.1-0.2c0-4.1-2.9-7.5-6.3-7.5c-3.4,0-6.3,3.3-6.3,7.5
		c0,0.1-0.1,0.2-0.1,0.2c-0.1,0.1-0.2,0.1-0.3,0c-0.1,0-0.1,0-0.2,0c0,0-0.1,0-0.1,0.1c-0.3,0.4-0.1,1.7,0.4,2.5
		c0.1,0.2,0.4,0.6,0.7,0.6C323.8,52.3,323.8,52.3,323.9,52.3C323.8,52.3,323.8,52.3,323.9,52.3z"/>
</g>
<g>
	<path fill="#2E368F" d="M336.3,48.8c-1.8-0.4-3.6-2.6-4.6-4.4c-0.9,0.8-1.8,1.6-2.8,2.2c-2.5,1.7-5.7,2.2-5.7,2.2s0.2-2.5,1.8-4.6
		c0.7-0.9,1.6-1.8,2.7-2.3c1.6-0.8,3.8-0.6,5.3,0.4c0.4,0.3,0.8,0.6,1.1,1c0.6,0.8,1.1,1.8,1.4,2.7c0.3,0.8,0.5,1.6,0.7,2.4
		C336.2,48.5,336.3,48.7,336.3,48.8z"/>
	<path fill="#2E368F" d="M336.3,49.1c-1.7-0.4-3.6-2.5-4.7-4.3c-0.7,0.7-1.6,1.3-2.6,2c-2.5,1.7-5.7,2.3-5.8,2.3
		c-0.1,0-0.3-0.2-0.2-0.3c0-0.1,0,0.1,0,0c0-0.1,0.2-2.5,1.8-4.8c0.8-1,1.8-1.9,2.8-2.4c0.7-0.3,1.5-0.5,2.4-0.5
		c1.1,0,2.2,0.3,3.1,0.9c0.4,0.2,0.8,0.6,1.2,1.1c0.6,0.8,1.1,1.8,1.5,2.8c0.3,0.7,0.5,1.5,0.7,2.5c0,0.2,0.1,0.3,0.1,0.5
		c0,0,0,0,0,0.1C336.5,49,336.4,49.1,336.3,49.1"/>
</g>
<rect x="337.8" y="42" transform="matrix(0.5406 0.8413 -0.8413 0.5406 192.2125 -264.0535)" fill="none" stroke="#2E368F" stroke-width="0.5" stroke-miterlimit="10" width="0.2" height="3.9"/>
<path fill="none" stroke="#2E368F" stroke-width="0.5" stroke-miterlimit="10" d="M337.9,42c-1.1,0-2,0.9-2,2l0,0c0,1.1,0.9,2,2,2
	c1.1,0,2-0.9,2-2l0,0C339.9,42.9,339,42,337.9,42L337.9,42L337.9,42z"/>
<path fill="#2E368F" d="M251.9,41.4c-0.1,0-0.1,0-0.2,0.1L244.6,53c-0.1,0.2,0,0.3,0.2,0.3h14.4c0.2,0,0.3-0.1,0.2-0.3l-7.2-11.5
	C252.1,41.4,252,41.4,251.9,41.4L251.9,41.4z"/>
<path fill="#2E368F" stroke="#2E368F" stroke-width="0.5" stroke-miterlimit="10" d="M202.8,41.1v14.4c0,0.9,0.6,1.6,1.4,1.6h15.5
	c0.8,0,1.4-0.7,1.4-1.6V41.1c0-0.9-0.6-1.6-1.4-1.6h-15.5C203.4,39.5,202.8,40.2,202.8,41.1z M203.6,41.1c0-0.4,0.3-0.7,0.6-0.7
	h15.5c0.3,0,0.6,0.3,0.6,0.7v14.4c0,0.4-0.3,0.7-0.6,0.7h-15.5c-0.3,0-0.6-0.3-0.6-0.7V41.1z"/>
<path fill="#2E368F" stroke="#2E368F" stroke-miterlimit="10" d="M211.9,44.3c-0.1-0.1-0.2-0.1-0.3,0c-0.1,0.1-0.1,0.2,0,0.3
	l3.9,3.9l-3.9,3.9c-0.1,0.1-0.1,0.2,0,0.3c0.1,0.1,0.2,0.1,0.3,0l4-4c0,0,0.1-0.1,0.1-0.2s0-0.1-0.1-0.2L211.9,44.3z"/>
<path fill="#2E368F" stroke="#2E368F" stroke-miterlimit="10" d="M208.9,44.5c-0.1-0.1-0.2-0.1-0.3,0c-0.1,0.1-0.1,0.2,0,0.3
	l3.9,3.9l-3.9,3.9c-0.1,0.1-0.1,0.2,0,0.3c0.1,0.1,0.2,0.1,0.3,0l4-4c0,0,0.1-0.1,0.1-0.2s0-0.1-0.1-0.2L208.9,44.5z"/>
<path fill="#2E368F" stroke="#2E368F" stroke-width="0.5" stroke-miterlimit="10" d="M162.7,41.1v14.4c0,0.9,0.6,1.6,1.4,1.6h15.5
	c0.8,0,1.4-0.7,1.4-1.6V41.1c0-0.9-0.6-1.6-1.4-1.6h-15.5C163.3,39.5,162.7,40.2,162.7,41.1z M163.4,41.1c0-0.4,0.3-0.7,0.6-0.7
	h15.5c0.3,0,0.6,0.3,0.6,0.7v14.4c0,0.4-0.3,0.7-0.6,0.7h-15.5c-0.3,0-0.6-0.3-0.6-0.7V41.1z"/>
<g>
	<path fill="#2E368F" stroke="#2E368F" stroke-miterlimit="10" d="M172.5,44.3c0.1-0.1,0.2-0.1,0.3,0c0.1,0.1,0.1,0.2,0,0.3
		l-3.9,3.9l3.9,3.9c0.1,0.1,0.1,0.2,0,0.3c-0.1,0.1-0.2,0.1-0.3,0l-4-4c0,0-0.1-0.1-0.1-0.2s0-0.1,0.1-0.2L172.5,44.3z"/>
	<path fill="#2E368F" stroke="#2E368F" stroke-miterlimit="10" d="M175.5,44.5c0.1-0.1,0.2-0.1,0.3,0c0.1,0.1,0.1,0.2,0,0.3
		l-3.9,3.9l3.9,3.9c0.1,0.1,0.1,0.2,0,0.3c-0.1,0.1-0.2,0.1-0.3,0l-4-4c0,0-0.1-0.1-0.1-0.2s0-0.1,0.1-0.2L175.5,44.5z"/>
</g>
<path fill="#2E368F" d="M296.7,48l-2.8,0.9l1.8,2.4c0.5,0.6,0.3,1.5-0.3,1.9c-0.3,0.2-0.5,0.3-0.8,0.3c-0.4,0-0.9-0.2-1.1-0.6
	l-1.8-2.4l-1.8,2.4c-0.3,0.4-0.7,0.6-1.1,0.6c-0.3,0-0.6-0.1-0.8-0.3c-0.6-0.5-0.8-1.3-0.3-1.9l1.8-2.4l-2.9-0.9
	c-0.7-0.2-1.1-1-0.9-1.8c0.2-0.7,1-1.1,1.8-0.9l2.9,0.9v-3c0-0.8,0.6-1.4,1.4-1.4c0.8,0,1.4,0.6,1.4,1.4v3l2.9-0.9
	c0.7-0.2,1.5,0.2,1.8,0.9C297.8,47,297.4,47.7,296.7,48z"/>
<path fill="#2E368F" stroke="#2E368F" stroke-width="0.5" stroke-miterlimit="10" d="M137.8,47.2c1.5-1.6,1.5-4.1-0.1-5.7
	c-0.8-0.8-1.8-1.2-2.9-1.2c-1.1,0-2.1,0.4-2.9,1.2l-3.4,3.4c-0.2,0.2-0.2,0.5,0,0.7c0.1,0.1,0.2,0.1,0.3,0.1s0.2,0,0.3-0.1l3.4-3.4
	c1.2-1.2,3.2-1.2,4.3,0c1.2,1.2,1.2,3.2,0,4.3l-8.5,8.5c-0.8,0.8-2.1,0.8-2.9,0c-0.8-0.8-0.8-2.1,0-2.9l6.9-6.9l0,0
	c0.4-0.4,1-0.4,1.4,0c0.2,0.2,0.3,0.4,0.3,0.7s-0.1,0.5-0.3,0.7l-6,6c-0.2,0.2-0.2,0.5,0,0.7c0.1,0.1,0.2,0.1,0.3,0.1
	c0.1,0,0.2,0,0.3-0.1l6-6c0.4-0.4,0.6-0.9,0.6-1.4c0-0.5-0.2-1-0.6-1.4c-0.7-0.7-1.9-0.8-2.7-0.1c0,0,0,0,0,0l-7,7
	c-1.2,1.2-1.2,3.1,0,4.2c0.6,0.6,1.4,0.9,2.1,0.9c0.8,0,1.5-0.3,2.1-0.9L137.8,47.2L137.8,47.2L137.8,47.2L137.8,47.2
	C137.8,47.2,137.8,47.2,137.8,47.2z"/>
<title>interface_004-information-detail-window-application</title>
<desc>Created with Sketch.</desc>
<path fill="#2E368F" stroke="#2E368F" stroke-width="0.5" stroke-miterlimit="10" d="M21.6,58L21.6,58l0-13.6
	c-0.3,0.2-0.5,0.5-0.8,0.7l0,12.1H2.7V43.9h11.1c0.3-0.4,0.7-0.8,1-1.2c0.3-0.4,0.8-0.2,0.9,0.2c0.1,0,0.1,0.1,0.2,0.1c0,0,0,0,0,0
	c1.4,0,2.7,0,4.1,0c0,0,0-0.1,0.1-0.1c-0.1-0.1-0.1-0.3,0-0.5c0.1-0.3,0.3-0.5,0.4-0.8c-0.3,0-0.6-0.1-0.6-0.5c0-0.1-0.1-0.4,0-0.5
	c0,0-0.1,0.4-0.1,0.4c-0.1,0-0.2-0.2-0.3-0.2c-0.1,0-0.1-0.1-0.3,0c-0.2,0.1-0.4,0.3-0.5,0.4c0,0,0,0,0,0c0,0-0.1,0.1-0.1,0.1
	c-0.2,0.1-0.4,0.1-0.5,0c-0.1,0.1-0.2,0.2-0.3,0.4c-0.5,0.5-1.2-0.2-0.7-0.7c0.3-0.3,0.6-0.7,0.9-1H1.9V58h19.2l0,0
	C21.3,58,21.5,58,21.6,58L21.6,58L21.6,58z"/>
<rect x="2.7" y="40.7" fill="#FFFFFF" width="18.1" height="2.4"/>
<rect x="3.5" y="41.5" fill="#2E368F" stroke="#2E368F" stroke-width="0.5" stroke-miterlimit="10" width="0.8" height="0.8"/>
<rect x="5.1" y="41.5" fill="#2E368F" stroke="#2E368F" stroke-width="0.5" stroke-miterlimit="10" width="0.8" height="0.8"/>
<rect x="6.7" y="41.5" fill="#2E368F" stroke="#2E368F" stroke-width="0.5" stroke-miterlimit="10" width="0.8" height="0.8"/>
<path fill="#2E368F" stroke="#2E368F" stroke-width="0.5" stroke-miterlimit="10" d="M61.6,58L61.6,58l0-13.6
	c-0.3,0.2-0.5,0.5-0.8,0.7l0,12.1H42.7V43.9h11.1c0.3-0.4,0.7-0.8,1-1.2c0.3-0.4,0.8-0.2,0.9,0.2c0.1,0,0.1,0.1,0.2,0.1c0,0,0,0,0,0
	c1.4,0,2.7,0,4.1,0c0,0,0-0.1,0.1-0.1c-0.1-0.1-0.1-0.3,0-0.5c0.1-0.3,0.3-0.5,0.4-0.8c-0.3,0-0.6-0.1-0.6-0.5c0-0.1-0.1-0.4,0-0.5
	c0,0-0.1,0.4-0.1,0.4c-0.1,0-0.2-0.2-0.3-0.2c-0.1,0-0.1-0.1-0.3,0c-0.2,0.1-0.4,0.3-0.5,0.4c0,0,0,0,0,0c0,0-0.1,0.1-0.1,0.1
	c-0.2,0.1-0.4,0.1-0.5,0c-0.1,0.1-0.2,0.2-0.3,0.4c-0.5,0.5-1.2-0.2-0.7-0.7c0.3-0.3,0.6-0.7,0.9-1H41.9V58h19.2l0,0
	C61.3,58,61.5,58,61.6,58L61.6,58L61.6,58z"/>
<rect x="42.7" y="40.7" fill="#FFFFFF" width="18.1" height="2.4"/>
<rect x="45.1" y="41.5" fill="#2E368F" stroke="#2E368F" stroke-width="0.5" stroke-miterlimit="10" width="0.8" height="0.8"/>
<rect x="43.5" y="41.5" fill="#2E368F" stroke="#2E368F" stroke-width="0.5" stroke-miterlimit="10" width="0.8" height="0.8"/>
<rect x="46.7" y="41.5" fill="#2E368F" stroke="#2E368F" stroke-width="0.5" stroke-miterlimit="10" width="0.8" height="0.8"/>
<g>
	<path fill="#2E368F" d="M99.9,42.2c0.2,0.2,0.2,0.5,0,0.7l-0.2,0.2L99,42.4l0.2-0.2C99.4,42,99.7,42,99.9,42.2z"/>
	<polygon fill="#2E368F" points="96.5,44.8 96.3,45.7 97.2,45.5 99.4,43.3 98.8,42.6 	"/>
</g>
<rect x="15.4" y="42.3" fill="#FFFFFF" width="5" height="1.6"/>
<g>
	<path fill="#2E368F" stroke="#2E368F" stroke-width="0.15" stroke-miterlimit="10" d="M21.3,41.8l-1.4-1.3
		c-0.4-0.4-1.1-0.3-1.4,0.1l-7.2,8.1l-1.4,4.5l4.3-1.8l7.2-8.1C21.7,42.9,21.7,42.2,21.3,41.8z M11.1,51.1l0.5-1.8l1.9,1.7l-1.7,0.7
		L11.1,51.1z M12.3,49.3l5.7-6.4l0.4,0.4l-5.7,6.4L12.3,49.3z M12.2,49.2l-0.4-0.3l5.7-6.4l0.4,0.3L12.2,49.2z M12.9,49.9l5.7-6.4
		l0.4,0.4l-5.7,6.4L12.9,49.9z M17.8,42.2l0.2-0.2l2.1,1.9L19.8,44L17.8,42.2z M13.9,50.7l-0.4-0.3l5.7-6.4l0.4,0.3L13.9,50.7z
		 M20.9,42.9l-0.6,0.6l-2.1-1.9l0.6-0.6c0.1-0.2,0.4-0.2,0.6,0l1.4,1.3C21,42.4,21.1,42.7,20.9,42.9z"/>
</g>
<path fill="#FFFFFF" d="M59.1,40c0,0-0.8,0.9-0.9,1c-0.1,0-2.5,1.2-2.5,1.2s-0.7-0.1-0.7,0.1s0.3,3.6,0.3,3.6l1.3,2.2
	c0,0,2.1-2.1,2.2-2.2c0.1-0.1,2.8-2.2,2.8-2.2L60,41L59.1,40z"/>
<g>
	<path fill="#2E368F" stroke="#2E368F" stroke-width="0.15" stroke-miterlimit="10" d="M61.1,40.9c0.6,0.6,0.6,1.5,0,2.1l-0.7,0.7
		l-2.1-2.1l0.7-0.7C59.6,40.3,60.5,40.3,61.1,40.9z"/>
	<polygon fill="#2E368F" stroke="#2E368F" stroke-width="0.15" stroke-miterlimit="10" points="50.7,49.2 50,52 52.8,51.3 
		59.7,44.4 57.7,42.3 	"/>
</g>
<path fill="#2E368F" stroke="#2E368F" stroke-width="0.75" stroke-miterlimit="10" d="M-55.4,171.2H-57v-1.6c0-0.1-0.1-0.2-0.2-0.2
	c-0.1,0-0.2,0.1-0.2,0.2v1.6h-1.6c-0.1,0-0.2,0.1-0.2,0.2c0,0.1,0.1,0.2,0.2,0.2h1.6v1.6c0,0.1,0.1,0.2,0.2,0.2
	c0.1,0,0.2-0.1,0.2-0.2v-1.6h1.6c0.1,0,0.2-0.1,0.2-0.2C-55.2,171.3-55.3,171.2-55.4,171.2z"/>
<path fill="#2E368F" stroke="#2E368F" stroke-width="0.75" stroke-miterlimit="10" d="M-57.1,139.3c-2.6,0-4.6,2.1-4.6,4.6
	c0,2.6,2.1,4.6,4.6,4.6c2.6,0,4.6-2.1,4.6-4.6C-52.4,141.3-54.5,139.3-57.1,139.3z M-57.1,148.1c-2.3,0-4.2-1.9-4.2-4.2
	c0-2.3,1.9-4.2,4.2-4.2c2.3,0,4.2,1.9,4.2,4.2C-52.9,146.2-54.8,148.1-57.1,148.1z"/>
<path fill="#2E368F" d="M-64.5,130.9V148h1.2v-15.9h7.2v5.3h5.3V148h1.2v-11.4l-5.7-5.7H-64.5z M-54.9,136.2v-3.3l3.3,3.3H-54.9z"/>
<path fill="#2E368F" stroke="#2E368F" stroke-width="0.75" stroke-miterlimit="10" d="M-57.1,9.2c-2.6,0-4.6,2.1-4.6,4.6
	c0,2.6,2.1,4.6,4.6,4.6c2.6,0,4.6-2.1,4.6-4.6C-52.5,11.3-54.6,9.2-57.1,9.2z M-57.1,18.1c-2.3,0-4.2-1.9-4.2-4.2
	c0-2.3,1.9-4.2,4.2-4.2c2.3,0,4.2,1.9,4.2,4.2C-52.9,16.2-54.8,18.1-57.1,18.1z"/>
<path fill="#2E368F" d="M-64.5,0.8v17.1h1.2V2h7.2v5.3h5.3v10.6h1.2V6.5l-5.7-5.7H-64.5z M-54.9,6.1V2.9l3.3,3.3H-54.9z"/>
<g>
	<g>
		<path fill="#2E368F" d="M-52.7,111.6c0.4,0.4,0.4,1,0,1.5l-0.5,0.5l-1.5-1.5l0.5-0.5C-53.7,111.2-53.1,111.2-52.7,111.6z"/>
		<polygon fill="#2E368F" points="-59.9,117.4 -60.4,119.4 -58.5,118.9 -53.6,114 -55.1,112.6 		"/>
	</g>
</g>
<path fill="#2E368F" d="M-64.5,102.5v17.1h1.2v-15.9h7.2v5.3h5.3v10.6h1.2v-11.4l-5.7-5.7H-64.5z M-54.9,107.9v-3.3l3.3,3.3H-54.9z"
	/>
<path fill="#2E368F" stroke="#2E368F" stroke-width="0.75" stroke-miterlimit="10" d="M-87.2,201.6c-2.6,0-4.6,2.1-4.6,4.6
	c0,2.6,2.1,4.6,4.6,4.6s4.6-2.1,4.6-4.6C-82.6,203.7-84.7,201.6-87.2,201.6z M-87.2,210.5c-2.3,0-4.2-1.9-4.2-4.2
	c0-2.3,1.9-4.2,4.2-4.2s4.2,1.9,4.2,4.2C-83,208.6-84.9,210.5-87.2,210.5z"/>
<path fill="#2E368F" stroke="#2E368F" stroke-width="0.75" stroke-miterlimit="10" d="M-85.5,206.1h-1.6v-1.6c0-0.1-0.1-0.2-0.2-0.2
	c-0.1,0-0.2,0.1-0.2,0.2v1.6H-89c-0.1,0-0.2,0.1-0.2,0.2s0.1,0.2,0.2,0.2h1.6v1.6c0,0.1,0.1,0.2,0.2,0.2c0.1,0,0.2-0.1,0.2-0.2v-1.6
	h1.6c0.1,0,0.2-0.1,0.2-0.2S-85.4,206.1-85.5,206.1z"/>
<rect x="366.4" y="130.4" fill="#2E368F" width="6" height="8.1"/>
<polygon fill="#2E368F" points="370.3,128.5 364.4,128.5 364.4,136.6 365.7,136.6 365.7,129.8 370.3,129.8 "/>
<polygon fill="#2E368F" points="368.4,126.4 362.4,126.4 362.4,134.6 363.7,134.6 363.7,127.7 368.4,127.7 "/>
<g>
</g>
<g>
</g>
<g>
</g>
<g>
</g>
<g>
</g>
<g>
</g>
<g>
</g>
<g>
</g>
<g>
</g>
<g>
</g>
<g>
</g>
<g>
</g>
<g>
</g>
<g>
</g>
<g>
</g>
<g>
</g>
<g>
</g>
<g>
</g>
<g>
</g>
<g>
</g>
<g>
</g>
<g>
</g>
<g>
</g>
<g>
</g>
<g>
</g>
<g>
</g>
<g>
</g>
<g>
</g>
<g>
</g>
<g>
</g>
<g>
	<g>
		<path fill="#2E368F" d="M-86,158c-5.2,0-9.3,4.2-9.3,9.3c0,5.2,4.2,9.3,9.3,9.3h9.3v-9.3C-76.6,162.2-80.8,158-86,158z M-86,175
			c-4.2,0-7.6-3.4-7.6-7.6s3.4-7.6,7.6-7.6s7.6,3.4,7.6,7.6S-81.8,175-86,175z"/>
	</g>
	<path fill="#2E368F" d="M-82.2,166.7h-3.1v-3.1c0-0.4-0.3-0.7-0.7-0.7c-0.4,0-0.7,0.3-0.7,0.7v3.1h-3.1c-0.4,0-0.7,0.3-0.7,0.7
		s0.3,0.7,0.7,0.7h3.1v3.1c0,0.4,0.3,0.7,0.7,0.7c0.4,0,0.7-0.3,0.7-0.7v-3.1h3.1c0.4,0,0.7-0.3,0.7-0.7
		C-81.5,167-81.8,166.7-82.2,166.7z"/>
</g>
<path fill="#2E368F" d="M-78.8,200.9V198h-2.9v-1.4h-1.6v1.4h-8.2v-1.4H-93v1.4h-2.9v15.7h2.9v2.9h17.1v-15.7H-78.8z M-94.5,212.4
	v-13h1.5v1.5h1.6v-1.5h8.2v1.5h1.6v-1.5h1.5v13H-94.5z M-77.2,215.4h-14.2v-1.6h12.6v-11.5h1.6V215.4z"/>
<path fill="#2E368F" d="M-79.3,231.7h-4.3c0-1.4-1.1-2.5-2.5-2.5c-1.4,0-2.5,1.1-2.5,2.5h-4.4v3h13.6V231.7z M-86,233
	c-0.7,0-1.2-0.6-1.2-1.2c0-0.7,0.6-1.2,1.2-1.2c0.7,0,1.2,0.6,1.2,1.2C-84.8,232.4-85.4,233-86,233z"/>
<g>
	<path fill="#2E368F" d="M-78.4,231.7v3.7h-15.3v-3.7h-1.1v17.4h17.4v-17.4H-78.4z M-78.3,248.2h-15.5v-11.7h15.5V248.2z"/>
	<rect x="-93.8" y="236.5" fill="#FFFFFF" width="15.5" height="11.7"/>
</g>
<path fill="#2E368F" stroke="#2E368F" stroke-width="0.75" stroke-miterlimit="10" d="M-83.7,240.4c-0.1-0.1-0.2-0.1-0.2,0l-3.6,3.6
	l-1.2-1.2c-0.1-0.1-0.2-0.1-0.2,0c-0.1,0.1-0.1,0.2,0,0.2l1.3,1.3c0,0,0.1,0,0.1,0c0,0,0.1,0,0.1,0l3.8-3.8
	C-83.6,240.6-83.6,240.5-83.7,240.4z"/>
<path fill="#2E368F" stroke="#2E368F" stroke-width="0.75" stroke-miterlimit="10" d="M-86.2,237.7c-2.6,0-4.6,2.1-4.6,4.6
	c0,2.6,2.1,4.6,4.6,4.6s4.6-2.1,4.6-4.6C-81.5,239.8-83.6,237.7-86.2,237.7z M-86.2,246.6c-2.3,0-4.2-1.9-4.2-4.2
	c0-2.3,1.9-4.2,4.2-4.2s4.2,1.9,4.2,4.2C-81.9,244.7-83.8,246.6-86.2,246.6z"/>
<path fill="#2E368F" d="M-122.8,230.3c-0.7,0-0.7,0-0.7,0.7v16.3c0,0.7,0,0.7,0.7,0.7s0.7,0,0.7-0.7V231
	C-122,230.3-122,230.3-122.8,230.3z"/>
<g>
	<path fill="#2E368F" d="M-105.7,230.6c-5.9-1.5-10.4,1.5-14.9,0v10c4.5,1.5,8.9-1.5,14.9,0l-3-5.2L-105.7,230.6z M-107.9,239.5
		c-4.5-1.1-7.9,1.1-11.3,0v-7.6c3.4,1.1,6.8-1.1,11.3,0l-2.3,3.7L-107.9,239.5z"/>
	<path fill="#FFFFFF" d="M-107.9,231.9c-4.5-1.1-7.9,1.1-11.3,0v7.6c3.4,1.1,6.8-1.1,11.3,0l-2.3-3.9L-107.9,231.9z"/>
</g>
<g>
	<path fill="#2E368F" stroke="#2E368F" stroke-miterlimit="10" d="M-147.2,247.9h-3c-0.9,0-1.7-0.7-1.7-1.7v-8.1
		c0-0.9,0.7-1.7,1.7-1.7h3V247.9z M-150.2,237c-0.6,0-1.1,0.5-1.1,1.1v8.1c0,0.6,0.5,1.1,1.1,1.1h2.5V237H-150.2z"/>
	<path fill="#2E368F" stroke="#2E368F" stroke-miterlimit="10" d="M-138.2,247.9h-9.5v-11.2l3.8-5.5c0.4-0.5,1-0.8,1.7-0.8h0.1
		c0.7,0,1.3,0.3,1.7,0.8c0.4,0.5,0.5,1.2,0.3,1.8l-1,3.5h5.1c0.7,0,1.5,0.4,1.9,1c0.6,0.8,0.7,1.8,0.3,3l-1.7,5.1
		C-135.9,246.4-137.1,247.9-138.2,247.9z M-147.2,247.3h9c0.7,0,1.8-1.2,2-2l1.7-5.1c0.3-0.9,0.3-1.8-0.2-2.5
		c-0.3-0.5-0.9-0.8-1.5-0.8h-5.7l1.2-4.2c0.1-0.5,0-1-0.2-1.4c-0.3-0.4-0.7-0.6-1.2-0.6h-0.1c-0.5,0-0.9,0.2-1.2,0.6l-3.8,5.4V247.3
		z"/>
</g>
<path fill="#2E368F" d="M-119.9,203.6l0.7-0.6l0.7,0.5l0-3.6h-1.3C-119.9,200-119.9,203.7-119.9,203.6z"/>
<path fill="#2E368F" d="M-18.7,7.5l1-0.9l1.1,0.8l0-5.7h-2.1C-18.7,1.8-18.7,7.6-18.7,7.5z"/>
<path fill="none" d="M-139.8,180.5c-0.9-0.9-2-1.3-3.1-1.3c-1.1,0-2.3,0.4-3.1,1.3c-1.7,1.7-1.7,4.5,0,6.3c1.7,1.7,4.5,1.7,6.3,0
	C-138.1,185-138.1,182.2-139.8,180.5z"/>
<path fill="#2E368F" d="M-92.6,110.8c0-0.3,0.2-0.5,0.5-0.5h12.6l-2.7-2.7c-0.2-0.2-0.2-0.6,0-0.8c0.1-0.1,0.2-0.2,0.4-0.2
	c0.1,0,0.3,0.1,0.4,0.2l3.6,3.6c0.2,0.2,0.2,0.6,0,0.8l-3.6,3.6c-0.2,0.2-0.6,0.2-0.8,0c-0.2-0.2-0.2-0.6,0-0.8l2.7-2.7h-12.6
	C-92.4,111.3-92.6,111.1-92.6,110.8z"/>
<path fill="#2E368F" d="M-92.4,120.1h10.9c2.1,0,3.9-1.7,3.9-3.9V114c0-0.3-0.2-0.5-0.5-0.5s-0.5,0.2-0.5,0.5v2.3
	c0,1.5-1.3,2.8-2.8,2.8h-10.9c-1.5,0-2.8-1.3-2.8-2.8v-10.9c0-1.5,1.3-2.8,2.8-2.8h10.9c1.5,0,2.8,1.3,2.8,2.8v2.2
	c0,0.3,0.2,0.5,0.5,0.5s0.5-0.2,0.5-0.5v-2.2c0-2.1-1.7-3.9-3.9-3.9h-10.9c-2.1,0-3.9,1.7-3.9,3.9v10.9
	C-96.3,118.4-94.6,120.1-92.4,120.1z"/>
<path fill="#2E368F" d="M-86.9,110.8"/>
<path fill="#2E368F" d="M-86.9,110.8"/>
<g>
	<path fill="#2E368F" stroke="#2E368F" stroke-width="0.25" stroke-miterlimit="10" d="M-87.6,74c2.6,0,4.7,2.1,4.7,4.7
		c0,0.9-0.3,1.8-0.8,2.6l0,0l0,0l-2,4h-3.7l-2.2-4l0,0l0,0c-0.5-0.8-0.8-1.6-0.8-2.6C-92.3,76.2-90.2,74-87.6,74 M-87.6,73.4
		c-3,0-5.4,2.4-5.4,5.4c0,1.1,0.3,2.1,0.9,2.9l0,0l2.4,4.4h4.5l2.2-4.4l0,0c0.5-0.8,0.9-1.8,0.9-2.9C-82.2,75.8-84.6,73.4-87.6,73.4
		L-87.6,73.4z"/>
	<path fill="#2E368F" stroke="#2E368F" stroke-width="0.25" stroke-miterlimit="10" d="M-90.2,78.4h-0.7c0-1.6,1.3-2.9,2.9-2.9v0.7
		C-89.2,76.1-90.2,77.1-90.2,78.4z"/>
	<rect x="-89.8" y="86.4" fill="#2E368F" stroke="#2E368F" stroke-width="0.25" stroke-miterlimit="10" width="4.5" height="0.8"/>
	<rect x="-89.8" y="87.7" fill="#2E368F" stroke="#2E368F" stroke-width="0.25" stroke-miterlimit="10" width="4.5" height="0.8"/>
	<rect x="-89.8" y="88.9" fill="#2E368F" stroke="#2E368F" stroke-width="0.25" stroke-miterlimit="10" width="4.5" height="0.8"/>
	<rect x="-88.8" y="90.1" fill="#2E368F" stroke="#2E368F" stroke-width="0.25" stroke-miterlimit="10" width="2.7" height="0.8"/>
</g>
<path fill="none" d="M-113.7,108.7h-3.1c-0.4,0-0.7-0.3-0.7-0.7v-3.4c-3.1,1-5.4,3.9-5.4,7.4c0,4.3,3.5,7.7,7.7,7.7s7.7-3.5,7.7-7.7
	c0-3.5-2.3-6.4-5.4-7.4v3.4C-113,108.3-113.3,108.7-113.7,108.7z"/>
<path fill="#12A049" stroke="#12A049" stroke-width="0.45" stroke-miterlimit="10" d="M-113,103.7v0.8c3.1,1,5.4,3.9,5.4,7.4
	c0,4.3-3.5,7.7-7.7,7.7s-7.7-3.5-7.7-7.7c0-3.5,2.3-6.4,5.4-7.4v-0.8c-3.6,1-6.2,4.3-6.2,8.1c0,4.7,3.8,8.5,8.5,8.5
	c4.7,0,8.5-3.8,8.5-8.5C-106.8,108-109.4,104.7-113,103.7z"/>
<path fill="#12A049" d="M-113.5,107.7c0,0.3-0.3,0.6-0.6,0.6h-2.4c-0.3,0-0.6-0.3-0.6-0.6v-5c0-0.3,0.3-0.6,0.6-0.6h2.4
	c0.3,0,0.6,0.3,0.6,0.6V107.7z"/>
<path fill="none" d="M-135.5,108.7h-3.1c-0.4,0-0.7-0.3-0.7-0.7v-3.4c-3.1,1-5.4,3.9-5.4,7.4c0,4.3,3.5,7.7,7.7,7.7
	c4.3,0,7.7-3.5,7.7-7.7c0-3.5-2.3-6.4-5.4-7.4v3.4C-134.7,108.3-135.1,108.7-135.5,108.7z"/>
<path fill="#EF3C24" stroke="#EF3C24" stroke-width="0.45" stroke-miterlimit="10" d="M-134.7,103.7v0.8c3.1,1,5.4,3.9,5.4,7.4
	c0,4.3-3.5,7.7-7.7,7.7c-4.3,0-7.7-3.5-7.7-7.7c0-3.5,2.3-6.4,5.4-7.4v-0.8c-3.6,1-6.2,4.3-6.2,8.1c0,4.7,3.8,8.5,8.5,8.5
	c4.7,0,8.5-3.8,8.5-8.5C-128.6,108-131.2,104.7-134.7,103.7z"/>
<path fill="#EF3C24" d="M-135.3,107.7c0,0.3-0.3,0.6-0.6,0.6h-2.4c-0.3,0-0.6-0.3-0.6-0.6v-5c0-0.3,0.3-0.6,0.6-0.6h2.4
	c0.3,0,0.6,0.3,0.6,0.6V107.7z"/>
<path fill="#2E368F" stroke="#2E368F" stroke-width="0.5" stroke-miterlimit="10" d="M-143,191.5c-4.4,0-8-3.6-8-8c0-4.4,3.6-8,8-8
	s8,3.6,8,8c0,2.1-0.8,4.1-2.2,5.5l0.5,0.5c1.5-1.6,2.4-3.7,2.4-6c0-4.8-3.9-8.8-8.8-8.8s-8.8,3.9-8.8,8.8c0,4.8,3.9,8.8,8.8,8.8
	c2.3,0,4.4-0.9,5.9-2.3l-0.5-0.5C-139,190.7-140.9,191.5-143,191.5z"/>
<path fill="#FFFFFF" stroke="#FFFFFF" stroke-miterlimit="10" d="M-139.4,190c0,0,1.2-0.4,2.7-2.8l2.1,1.5l0.3,1.6l-3.2,2.2
	l-0.8-0.9L-139.4,190z"/>
<path fill="#2E368F" stroke="#2E368F" stroke-width="0.75" stroke-miterlimit="10" d="M-136,215.4l-3.1-3.1c2-2.2,1.9-5.6-0.2-7.7
	c-2.2-2.2-5.8-2.2-8-0.1c-2.2,2.2-2.2,5.8-0.1,8c1.1,1.1,2.5,1.7,4,1.7c1.3,0,2.7-0.5,3.7-1.4l3.1,3.1c0.1,0.1,0.1,0.1,0.2,0.1
	s0.2,0,0.2-0.1C-135.9,215.8-135.9,215.6-136,215.4z M-146.8,212.1c-1.9-2-1.9-5.1,0-7c1-1,2.3-1.4,3.5-1.4s2.5,0.5,3.5,1.5
	c1.9,2,1.9,5.1,0,7C-141.7,214.1-144.8,214-146.8,212.1z"/>
<g>
	<path fill="#2E368F" stroke="#2E368F" stroke-width="0.75" stroke-miterlimit="10" d="M-136.3,189.6l-2.8-2.8c1.8-2,1.7-5.1-0.2-7
		c-2-2-5.2-2-7.2,0c-1.9,1.9-2,4.8-0.4,6.8c0,0,0.1-0.1,0.1-0.1c0.1-0.1,0.2-0.1,0.3-0.1c0,0,0.1-0.1,0.1-0.1
		c-1.4-1.8-1.3-4.4,0.3-6c0.9-0.9,2-1.3,3.2-1.3c1.2,0,2.3,0.4,3.2,1.3c1.8,1.8,1.8,4.6,0,6.4c-1.1,1.1-2.7,1.5-4.2,1.2
		c-0.1,0.2-0.2,0.4-0.4,0.5c0.5,0.1,0.9,0.2,1.4,0.2c1.2,0,2.4-0.4,3.4-1.3l2.8,2.8c0.1,0.1,0.1,0.1,0.2,0.1s0.2,0,0.2-0.1
		C-136.2,189.9-136.2,189.7-136.3,189.6z"/>
	<path fill="#2E368F" stroke="#2E368F" stroke-width="0.95" stroke-miterlimit="10" d="M-147.8,182.8c-0.2,1.5,0.2,3,1.2,4.1
		l-1.4-0.2c-0.1,0-0.2,0.1-0.2,0.1c0,0.1,0.1,0.2,0.1,0.2l1.9,0.3c0,0,0,0,0,0c0,0,0,0,0,0c0,0,0,0,0,0c0,0,0,0,0,0c0,0,0,0,0,0
		c0,0,0,0,0,0c0,0,0,0,0,0c0,0,0,0,0,0c0,0,0,0,0,0c0,0,0,0,0,0l0.3-1.9c0-0.1-0.1-0.2-0.1-0.2c-0.1,0-0.2,0.1-0.2,0.1l-0.2,1.5
		c-1-1.1-1.4-2.5-1.2-3.9c0.4-2.6,2.8-4.4,5.4-4c2.6,0.4,4.4,2.8,4,5.4c-0.1,1-0.6,1.9-1.3,2.6c-0.1,0.1-0.1,0.2,0,0.2
		c0.1,0.1,0.2,0.1,0.2,0c0.7-0.8,1.2-1.7,1.4-2.8c0.4-2.8-1.5-5.4-4.3-5.8C-144.8,178.1-147.4,180-147.8,182.8z"/>
</g>
<path fill="none" stroke="#B2B1B2" stroke-width="0.25" stroke-miterlimit="10" d="M-350.7,145.6v92.3h103.7
	C-247.1,237.9-350.7,143.4-350.7,145.6z"/>
<g>
	<path fill="#2E368F" stroke="#2E368F" stroke-width="0.5" stroke-miterlimit="10" d="M13.8,170.8c0.1-0.1,0.1-0.1,0-0.2
		c-0.1-0.1-0.1-0.1-0.2,0l-2,2l0.2,0.2L13.8,170.8z"/>
	<path fill="#2E368F" stroke="#2E368F" stroke-width="0.5" stroke-miterlimit="10" d="M10.6,173.8l-1-1c-0.1-0.1-0.1-0.1-0.2,0
		c-0.1,0.1-0.1,0.1,0,0.2l1.1,1.1c0,0,0.1,0,0.1,0c0,0,0.1,0,0.1,0l0.1-0.1L10.6,173.8L10.6,173.8z"/>
	<path fill="#2E368F" stroke="#2E368F" stroke-width="0.5" stroke-miterlimit="10" d="M10.9,172.8c-0.1-0.1-0.1-0.1-0.2,0
		c-0.1,0.1-0.1,0.1,0,0.2l0.4,0.4l0.2-0.2L10.9,172.8z"/>
	<path fill="#2E368F" stroke="#2E368F" stroke-width="0.5" stroke-miterlimit="10" d="M15.1,170.6c-0.1-0.1-0.1-0.1-0.2,0l-3.1,3.1
		l-0.4-0.4l-0.2,0.2l0.5,0.5c0,0,0.1,0,0.1,0c0,0,0.1,0,0.1,0l3.2-3.2C15.1,170.8,15.1,170.7,15.1,170.6z"/>
	
		<rect x="11.1" y="173.2" transform="matrix(0.7074 -0.7068 0.7068 0.7074 -119.2432 58.6995)" fill="#2E368F" stroke="#2E368F" stroke-width="0.5" stroke-miterlimit="10" width="0.3" height="0.3"/>
</g>
<g>
	<path fill="#2E368F" stroke="#2E368F" stroke-width="0.15" stroke-miterlimit="10" d="M141.4,16.4c0,0.7-0.8,1.3-1.7,1.3H124
		c-0.9,0-1.7-0.6-1.7-1.3c0-0.7,0.8-1.3,1.7-1.3h15.7C140.7,15.2,141.4,15.7,141.4,16.4z"/>
	<path fill="#2E368F" stroke="#2E368F" stroke-width="0.15" stroke-miterlimit="10" d="M141.4,16.4c0,0.7-0.8,1.3-1.7,1.3H124
		c-0.9,0-1.7-0.6-1.7-1.3c0-0.7,0.8-1.3,1.7-1.3h15.7C140.7,15.2,141.4,15.7,141.4,16.4z"/>
</g>
<g>
	<path fill="#2E398E" stroke="#2E398E" stroke-width="0.45" stroke-miterlimit="10" d="M-57.1,16.7c0.2,0,0.3-0.1,0.3-0.3v-3.6
		c0-0.2-0.1-0.3-0.3-0.3s-0.3,0.2-0.3,0.3v3.6C-57.3,16.6-57.2,16.7-57.1,16.7z"/>
	<path fill="#2E398E" stroke="#2E398E" stroke-width="0.45" stroke-miterlimit="10" d="M-57.1,12c0.2,0,0.3-0.1,0.3-0.3v-0.5
		c0-0.2-0.1-0.3-0.3-0.3c-0.2,0-0.3,0.1-0.3,0.3v0.5C-57.4,11.8-57.3,12-57.1,12z"/>
</g>
<path fill="#2E368F" d="M-20.7,0.8v17.1h1.2V2h7.2v5.3h5.3v10.6h1.2V6.5l-5.7-5.7H-20.7z M-11.1,6.1V2.9l3.3,3.3H-11.1z"/>
<path fill="none" stroke="#2E368F" stroke-miterlimit="10" d="M-29.6,12.4l0-5.9c0-0.4-0.3-0.6-0.6-0.6l-5.9,0c-0.2,0-0.3,0-0.4,0.1
	c-0.1,0.1-0.2,0.3-0.2,0.4c0,0,0,0.3,0,0.3c0,0.2,0.3,0.4,0.5,0.5l-0.3-0.3l2.3,2.3l-4,4l-0.9-0.9l-0.1,0c0,0-0.1-0.1-0.2,0
	c-0.2,0.1-0.2,0.2-0.2,0.3l0,3c0,0.2,0.1,0.3,0.3,0.3h3c0.1,0,0.2,0,0.2-0.1c0,0,0.1,0,0.1-0.1c0,0,0.2-0.1,0.2-0.1
	c0-0.1-0.4-0.4-0.4-0.5l0.2,0.2l-0.8-0.8l4-4l2.5,2.5l0,0c0.1,0,0.2,0,0.3,0C-29.9,13-29.6,12.8-29.6,12.4z"/>
<rect x="-17.4" y="8.7" fill="#2E368F" width="8.4" height="0.7"/>
<rect x="-17.4" y="10.1" fill="#2E368F" width="8.4" height="0.7"/>
<rect x="-17.4" y="11.5" fill="#2E368F" width="8.4" height="0.7"/>
<rect x="-17.4" y="12.9" fill="#2E368F" width="8.4" height="0.7"/>
<rect x="-17.4" y="14.4" fill="#2E368F" width="8.4" height="0.7"/>
<rect x="-17.4" y="15.8" fill="#2E368F" width="8.4" height="0.7"/>
<g>
	<path fill="#2E368F" d="M53,5.4l0.8-0.7l0.8,0.6l0-4.2H53C53,1.1,53,5.4,53,5.4z"/>
	<path fill="#2E368F" d="M51.6,0.4V13h0.9V1.3h5.3v3.9h3.9V13h0.9V4.6l-4.2-4.2H51.6z M58.6,4.4V1.9L61,4.4H58.6z"/>
	<rect x="54" y="6.2" fill="#2E368F" width="6.1" height="0.5"/>
	<rect x="54" y="7.2" fill="#2E368F" width="6.1" height="0.5"/>
	<rect x="54" y="8.3" fill="#2E368F" width="6.1" height="0.5"/>
	<rect x="54" y="9.3" fill="#2E368F" width="6.1" height="0.5"/>
	<rect x="54" y="10.4" fill="#2E368F" width="6.1" height="0.5"/>
	<rect x="54" y="11.4" fill="#2E368F" width="6.1" height="0.5"/>
</g>
<rect x="4.7" y="8.7" fill="#2E368F" width="8.4" height="0.7"/>
<rect x="4.7" y="10.1" fill="#2E368F" width="8.4" height="0.7"/>
<rect x="4.7" y="11.6" fill="#2E368F" width="8.4" height="0.7"/>
<rect x="4.7" y="13" fill="#2E368F" width="8.4" height="0.7"/>
<rect x="4.7" y="14.4" fill="#2E368F" width="8.4" height="0.7"/>
<rect x="4.7" y="15.8" fill="#2E368F" width="8.4" height="0.7"/>
<path fill="#2E368F" d="M3.4,7.6l1-0.9l1.1,0.8l0-5.7H3.4C3.4,1.8,3.4,7.7,3.4,7.6z"/>
<path fill="#2E368F" d="M1.5,0.8v17.1h1.2V2h7.2v5.4h5.4v10.6h1.2V6.5l-5.7-5.7H1.5z M11.1,6.2V2.9l3.3,3.3H11.1z"/>
<rect x="-53.3" y="-98" fill="none" width="100.5" height="89.7"/>
<text transform="matrix(1 0 0 1 -53.2619 -80.7415)"><tspan x="0" y="0" font-family="'HelveticaNeue'" font-size="9">2) Resume IDS</tspan><tspan x="0" y="10.8" font-family="'HelveticaNeue'" font-size="9">3) </tspan><tspan x="0" y="21.6" font-family="'HelveticaNeue'" font-size="9">4) Email Response</tspan><tspan x="0" y="32.4" font-family="'HelveticaNeue'" font-size="9">5) File IDS</tspan><tspan x="0" y="43.2" font-family="'HelveticaNeue'" font-size="9">6) </tspan><tspan x="0" y="54" font-family="'HelveticaNeue'" font-size="9">7) Filling Package</tspan></text>
<circle fill="#FFFFFF" cx="14.4" cy="14.4" r="4.3"/>
<circle fill="#FFFFFF" cx="14.3" cy="14.3" r="5.7"/>
<g>
	<g>
		<path fill="#2E368F" d="M16.9,12.1c0.3,0.3,0.3,0.7,0,0.9l-0.3,0.3l-0.9-0.9l0.3-0.3C16.2,11.8,16.6,11.8,16.9,12.1z"/>
		<polygon fill="#2E368F" points="12.3,15.7 12,16.9 13.2,16.6 16.3,13.6 15.3,12.7 		"/>
	</g>
</g>
<path fill="#2E368F" stroke="#2E368F" stroke-width="0.75" stroke-miterlimit="10" d="M14.3,9.6c-2.6,0-4.6,2.1-4.6,4.6
	c0,2.6,2.1,4.6,4.6,4.6s4.6-2.1,4.6-4.6C19,11.7,16.9,9.6,14.3,9.6z M14.3,18.5c-2.3,0-4.2-1.9-4.2-4.2c0-2.3,1.9-4.2,4.2-4.2
	s4.2,1.9,4.2,4.2C18.6,16.6,16.7,18.5,14.3,18.5z"/>
<rect x="4.7" y="-13.6" fill="#2E368F" width="8.4" height="0.7"/>
<rect x="4.7" y="-12.2" fill="#2E368F" width="8.4" height="0.7"/>
<rect x="4.7" y="-10.8" fill="#2E368F" width="8.4" height="0.7"/>
<rect x="4.7" y="-9.4" fill="#2E368F" width="8.4" height="0.7"/>
<rect x="4.7" y="-7.9" fill="#2E368F" width="8.4" height="0.7"/>
<rect x="4.7" y="-6.5" fill="#2E368F" width="8.4" height="0.7"/>
<path fill="#2E368F" d="M3.4-14.8l1-0.9l1.1,0.8l0-5.7H3.4C3.4-20.6,3.4-14.7,3.4-14.8z"/>
<path fill="#2E368F" d="M1.5-21.5v17.1h1.2v-15.9h7.2v5.4h5.4v10.6h1.2v-11.4l-5.7-5.7H1.5z M11.1-16.2v-3.3l3.3,3.3H11.1z"/>
<circle fill="#FFFFFF" cx="14.4" cy="-8" r="4.3"/>
<circle fill="#FFFFFF" cx="14.3" cy="-8" r="5.7"/>
<path fill="#2E368F" stroke="#2E368F" stroke-width="0.75" stroke-miterlimit="10" d="M14.3-12.7c-2.6,0-4.6,2.1-4.6,4.6
	c0,2.6,2.1,4.6,4.6,4.6S19-5.5,19-8C19-10.6,16.9-12.7,14.3-12.7z M14.3-3.8c-2.3,0-4.2-1.9-4.2-4.2c0-2.3,1.9-4.2,4.2-4.2
	s4.2,1.9,4.2,4.2C18.6-5.7,16.7-3.8,14.3-3.8z"/>
<rect x="27" y="8.7" fill="#2E368F" width="8.4" height="0.7"/>
<rect x="27" y="10.1" fill="#2E368F" width="8.4" height="0.7"/>
<rect x="27" y="11.6" fill="#2E368F" width="8.4" height="0.7"/>
<rect x="27" y="13" fill="#2E368F" width="8.4" height="0.7"/>
<rect x="27" y="14.4" fill="#2E368F" width="8.4" height="0.7"/>
<rect x="27" y="15.8" fill="#2E368F" width="8.4" height="0.7"/>
<path fill="#2E368F" d="M25.7,7.6l1-0.9l1.1,0.8l0-5.7h-2.1C25.7,1.8,25.7,7.7,25.7,7.6z"/>
<path fill="#2E368F" d="M23.7,0.8v17.1h1.2V2h7.2v5.4h5.4v10.6h1.2V6.5L33,0.8H23.7z M33.3,6.2V2.9l3.3,3.3H33.3z"/>
<circle fill="#FFFFFF" cx="36.7" cy="14.4" r="4.3"/>
<circle fill="#FFFFFF" cx="36.5" cy="14.3" r="5.7"/>
<path fill="#2E368F" stroke="#2E368F" stroke-width="0.75" stroke-miterlimit="10" d="M36.6,9.6c-2.6,0-4.6,2.1-4.6,4.6
	c0,2.6,2.1,4.6,4.6,4.6c2.6,0,4.6-2.1,4.6-4.6C41.2,11.7,39.1,9.6,36.6,9.6z M36.6,18.5c-2.3,0-4.2-1.9-4.2-4.2
	c0-2.3,1.9-4.2,4.2-4.2s4.2,1.9,4.2,4.2C40.8,16.6,38.9,18.5,36.6,18.5z"/>
<path fill="none" stroke="#2E368F" stroke-width="0.55" stroke-miterlimit="10" d="M38.8,15l0-2.6c0-0.2-0.1-0.3-0.3-0.3l-2.6,0
	c-0.1,0-0.1,0-0.2,0c0,0-0.1,0.1-0.1,0.2c0,0,0,0.1,0,0.1c0,0.1,0.2,0.2,0.2,0.2l-0.1-0.1l1,1L35,15.4L34.6,15l0,0c0,0,0,0-0.1,0
	c-0.1,0-0.1,0.1-0.1,0.2l0,1.3c0,0.1,0.1,0.1,0.1,0.1h1.3c0,0,0.1,0,0.1,0c0,0,0,0,0,0c0,0,0.1,0,0.1,0c0,0-0.2-0.2-0.2-0.2l0.1,0.1
	l-0.4-0.4l1.7-1.7l1.1,1.1l0,0c0,0,0.1,0,0.1,0C38.7,15.3,38.8,15.2,38.8,15z"/>
<rect x="139.7" y="-38.5" fill="none" width="0" height="2.7"/>
<rect x="139.7" y="-46.8" fill="none" width="0" height="2.7"/>
<rect x="139.7" y="-42.6" fill="none" width="0" height="2.7"/>
<rect x="139.7" y="-34.4" fill="none" width="0" height="2.7"/>
<rect x="139.7" y="-30.3" fill="none" width="0" height="2.7"/>
<rect x="139.7" y="-26.2" fill="none" width="0" height="2.7"/>
<rect x="139.7" y="-22.1" fill="none" width="0" height="5.6"/>
<path fill="none" d="M139.7-49.6v1.4h0v-2.7h-0.2C139.7-50.5,139.7-50,139.7-49.6z"/>
<title>folder_2</title>
<description>Created with Sketch (http://www.bohemiancoding.com/sketch)</description>
<polygon fill="#2E368F" points="51.3,6.5 50.3,6.5 50.3,5.5 44.8,5.5 45.3,18.9 46.2,18.9 46.2,7.6 51.3,7.6 "/>
<polygon fill="#F9F9FA" stroke="#2E368F" stroke-miterlimit="10" points="62.8,8.6 62.8,8.6 51.4,8.6 51.4,8.6 47.6,8.6 46.6,18.9 
	61.4,18.9 63.8,8.6 "/>
<g>
	<path fill="#2E368F" stroke="#2E368F" stroke-width="0.5" stroke-miterlimit="10" d="M84.8,5.7H67.7h-0.4v11.4h17.7V5.7H84.8z
		 M73.5,11.3l2.8,2.3l2.6-2.2l5.1,5.1H68.3L73.5,11.3z M68,15.8V6.7l5,4.2L68,15.8z M79.4,11l5.1-4.2V16L79.4,11z M84,6.3l-7.7,6.4
		l-7.7-6.4H84z"/>
</g>
<circle fill="#FFFFFF" cx="81.4" cy="14.1" r="4.2"/>
<circle fill="#FFFFFF" cx="81.3" cy="14.1" r="5.6"/>
<path fill="#2E368F" stroke="#2E368F" stroke-width="0.75" stroke-miterlimit="10" d="M81.3,9.5c-2.5,0-4.5,2-4.5,4.5
	c0,2.5,2,4.5,4.5,4.5s4.5-2,4.5-4.5C85.9,11.5,83.8,9.5,81.3,9.5z M81.3,18.2c-2.3,0-4.1-1.9-4.1-4.1c0-2.3,1.9-4.1,4.1-4.1
	s4.1,1.9,4.1,4.1C85.5,16.3,83.6,18.2,81.3,18.2z"/>
<path fill="#2E368F" d="M81,12.8l0-1l-2.6,1.5l2.6,1.5l0-0.9c2.8,0,3,2,3,2C84,13.5,81.8,12.9,81,12.8z"/>
<g>
	<path fill="#2E368F" d="M16.1-8.2l-2-2c-0.1-0.1-0.3,0-0.3,0.1v4c0,0.2,0.2,0.3,0.3,0.1l2-2C16.2-8,16.2-8.2,16.1-8.2z"/>
</g>
</svg>
