<?xml version="1.0" encoding="utf-8"?>
<!-- Generator: Adobe Illustrator 18.1.1, SVG Export Plug-In . SVG Version: 6.00 Build 0)  -->
<svg version="1.1" id="Layer_1" xmlns="http://www.w3.org/2000/svg" xmlns:xlink="http://www.w3.org/1999/xlink" x="0px" y="0px"
	 viewBox="0 0 20 20" enable-background="new 0 0 20 20" xml:space="preserve">
<path fill="#2E368F" stroke="#2E368F" stroke-width="0.75" stroke-miterlimit="10" d="M18.9,10c-0.2,0-0.3,0.1-0.3,0.3v5.3
	c0,1.7-1.4,3.1-3.1,3.1H4.2c-1.7,0-3.1-1.4-3.1-3.1v-9V4.3c0-1.7,1.4-3.1,3.1-3.1h5.3c0.2,0,0.3-0.1,0.3-0.3S9.6,0.6,9.5,0.6H4.2
	c-2,0-3.7,1.7-3.7,3.7v2.3v9c0,2,1.7,3.7,3.7,3.7h11.3c2,0,3.7-1.7,3.7-3.7v-5.3C19.2,10.1,19.1,10,18.9,10z"/>
<g>
	<path fill="#2E368F" d="M19.5,0.5c0.6,0.6,0.6,1.6,0,2.2l-0.7,0.7l-2.2-2.2l0.7-0.7C18-0.2,18.9-0.2,19.5,0.5z"/>
	<polygon fill="#2E368F" points="8.6,9.2 7.9,12.1 10.8,11.4 18.1,4.1 15.9,1.9 	"/>
</g>
</svg>
