<?xml version="1.0" encoding="utf-8"?>
<!-- Generator: Adobe Illustrator 18.1.1, SVG Export Plug-In . SVG Version: 6.00 Build 0)  -->
<svg version="1.1" id="Layer_1" xmlns="http://www.w3.org/2000/svg" xmlns:xlink="http://www.w3.org/1999/xlink" x="0px" y="0px"
	 viewBox="0 0 20 20" enable-background="new 0 0 20 20" xml:space="preserve">
<path fill="#2E368F" stroke="#2E368F" stroke-width="0.75" stroke-miterlimit="10" d="M185,208.6l4-4c0.1-0.1,0.1-0.2,0-0.3
	c-0.1-0.1-0.2-0.1-0.3,0l-4,4l-4-4c-0.1-0.1-0.2-0.1-0.3,0c-0.1,0.1-0.1,0.2,0,0.3l4,4l-4,4c-0.1,0.1-0.1,0.2,0,0.3
	c0,0,0.1,0.1,0.2,0.1s0.1,0,0.2-0.1l4-4l4,4c0,0,0.1,0.1,0.2,0.1s0.1,0,0.2-0.1c0.1-0.1,0.1-0.2,0-0.3L185,208.6z"/>
<path fill="#2E368F" stroke="#2E368F" stroke-width="0.75" stroke-miterlimit="10" d="M267.7,164.7c0.1-0.1,0.1-0.2,0-0.3
	c-0.1-0.1-0.2-0.1-0.3,0l-1.8,1.8l0.3,0.3L267.7,164.7z"/>
<path fill="#2E368F" stroke="#2E368F" stroke-width="0.75" stroke-miterlimit="10" d="M267.4,172.6c0,0,0.1,0.1,0.2,0.1
	c0.1,0,0.1,0,0.2-0.1c0.1-0.1,0.1-0.2,0-0.3l-2.2-2.2l-0.3,0.3L267.4,172.6z"/>
<path fill="#2E368F" stroke="#2E368F" stroke-width="0.75" stroke-miterlimit="10" d="M263.9,168.5l0.3-0.3l-0.3-0.3l-0.3,0.3
	l-3.8-3.8c-0.1-0.1-0.2-0.1-0.3,0c-0.1,0.1-0.1,0.2,0,0.3l3.8,3.8l-3.8,3.8c-0.1,0.1-0.1,0.2,0,0.3c0,0,0.1,0.1,0.2,0.1
	c0.1,0,0.1,0,0.2-0.1l3.8-3.8l1.3,1.3l0.3-0.3L263.9,168.5z"/>
<path fill="#2E368F" stroke="#2E368F" stroke-width="0.75" stroke-miterlimit="10" d="M262.4,172.6c-0.1,0.1-0.1,0.2,0,0.3
	c0,0,0.1,0.1,0.2,0.1c0.1,0,0.1,0,0.2-0.1l1.9-1.9l-0.3-0.3L262.4,172.6z"/>
<path fill="#2E368F" stroke="#2E368F" stroke-width="0.75" stroke-miterlimit="10" d="M262.7,164.6c-0.1-0.1-0.2-0.1-0.3,0
	c-0.1,0.1-0.1,0.2,0,0.3l2.2,2.2l0.3-0.3L262.7,164.6z"/>
<path fill="#2E368F" stroke="#2E368F" stroke-width="0.75" stroke-miterlimit="10" d="M266.8,168.8l3.8-3.8c0.1-0.1,0.1-0.2,0-0.3
	c-0.1-0.1-0.2-0.1-0.3,0l-3.8,3.8l-1.3-1.3l-0.3,0.3l1.3,1.3l-0.4,0.4l0.3,0.3l0.4-0.4l3.8,3.8c0,0,0.1,0.1,0.2,0.1s0.1,0,0.2-0.1
	c0.1-0.1,0.1-0.2,0-0.3L266.8,168.8z"/>
<rect x="265" y="169.9" transform="matrix(-0.7072 -0.707 0.707 -0.7072 332.498 477.9073)" fill="#2E368F" stroke="#2E368F" stroke-width="0.75" stroke-miterlimit="10" width="0.5" height="0.5"/>
<rect x="264.7" y="167" transform="matrix(0.7067 0.7075 -0.7075 0.7067 195.9906 -138.3854)" fill="#2E368F" stroke="#2E368F" stroke-width="0.75" stroke-miterlimit="10" width="0.5" height="0.5"/>
<g>
	<path fill="#2E368F" stroke="#2E368F" stroke-width="0.45" stroke-miterlimit="10" d="M111.1,125.3h-2.4c0.1-0.2,0.2-0.5,0.2-0.8
		v-2c0-1.8-1.5-3.3-3.3-3.3h-2.5c-1.8,0-3.3,1.5-3.3,3.3v2c0,0.3,0.1,0.6,0.2,0.8h-2.4c-1,0-1.8,0.8-1.8,1.8v8.3
		c0,1,0.8,1.8,1.8,1.8h13.5c1,0,1.8-0.8,1.8-1.8v-8.3C112.9,126.1,112.1,125.3,111.1,125.3z M100.8,124.5v-2c0-1.3,1.1-2.3,2.3-2.3
		h2.5c1.3,0,2.3,1.1,2.3,2.3v2c0,0.4-0.4,0.8-0.8,0.8h-5.6C101.1,125.3,100.8,124.9,100.8,124.5z M112,135.4c0,0.4-0.4,0.8-0.8,0.8
		H97.6c-0.4,0-0.8-0.4-0.8-0.8v-8.3c0-0.4,0.4-0.8,0.8-0.8h4h5.6h4c0.4,0,0.8,0.4,0.8,0.8V135.4z"/>
	<path fill="#2E368F" stroke="#2E368F" stroke-width="0.45" stroke-miterlimit="10" d="M104.4,128.7c-1,0-1.9,0.8-1.9,1.9
		c0,0.9,0.6,1.6,1.4,1.8v1.6c0,0.3,0.2,0.5,0.5,0.5c0.3,0,0.5-0.2,0.5-0.5v-1.6c0.8-0.2,1.4-0.9,1.4-1.8
		C106.3,129.5,105.4,128.7,104.4,128.7z M104.4,131.5c-0.5,0-0.9-0.4-0.9-0.9s0.4-0.9,0.9-0.9s0.9,0.4,0.9,0.9
		S104.9,131.5,104.4,131.5z"/>
</g>
<g>
	<path fill="#2E368F" stroke="#2E368F" stroke-width="0.45" stroke-miterlimit="10" d="M152.2,126.2h-2.4c0.1-0.2,0.2-0.5,0.2-0.8
		v-2c0-1.8-1.5-3.3-3.3-3.3h-2.5c-1.8,0-3.3,1.5-3.3,3.3c0,0.3,0.2,0.5,0.5,0.5s0.5-0.2,0.5-0.5c0-1.3,1.1-2.3,2.3-2.3h2.5
		c1.3,0,2.3,1.1,2.3,2.3v2c0,0.4-0.4,0.8-0.8,0.8h-5.6h-4c-1,0-1.8,0.8-1.8,1.8v8.3c0,1,0.8,1.8,1.8,1.8h13.5c1,0,1.8-0.8,1.8-1.8
		V128C154,127,153.2,126.2,152.2,126.2z M153,136.3c0,0.4-0.4,0.8-0.8,0.8h-13.5c-0.4,0-0.8-0.4-0.8-0.8V128c0-0.4,0.4-0.8,0.8-0.8
		h4h5.6h4c0.4,0,0.8,0.4,0.8,0.8V136.3z"/>
	<path fill="#2E368F" stroke="#2E368F" stroke-width="0.45" stroke-miterlimit="10" d="M145.5,129.6c-1,0-1.9,0.8-1.9,1.9
		c0,0.9,0.6,1.6,1.4,1.8v1.6c0,0.3,0.2,0.5,0.5,0.5s0.5-0.2,0.5-0.5v-1.6c0.8-0.2,1.4-0.9,1.4-1.8
		C147.3,130.4,146.5,129.6,145.5,129.6z M145.5,132.4c-0.5,0-0.9-0.4-0.9-0.9c0-0.5,0.4-0.9,0.9-0.9s0.9,0.4,0.9,0.9
		C146.4,132,146,132.4,145.5,132.4z"/>
</g>
<path fill="#2E368F" d="M-7.9,119.6h-14.4c-1,0-1.8,0.8-1.8,1.8v14.4c0,1,0.8,1.8,1.8,1.8h14.4c1,0,1.8-0.8,1.8-1.8v-14.4
	C-6,120.4-6.9,119.6-7.9,119.6z M-10.2,126.2c0,0-5.8,5.8-5.8,5.8c-0.3,0.3-0.5,0.2-0.8,0l-2.8-2.8c-0.3-0.3-0.3-0.5,0-0.8
	c0.3-0.3,0.5-0.3,0.8,0l2.4,2.4l5.3-5.4c0.3-0.3,0.5-0.3,0.8,0C-10,125.7-10,125.9-10.2,126.2z"/>
<path fill="#2E368F" stroke="#2E368F" stroke-width="0.5" stroke-miterlimit="10" d="M-48,200.6c0.4,0,0.8,0.4,0.8,0.8v14.3
	c0,0.4-0.4,0.8-0.8,0.8h-14.3c-0.4,0-0.8-0.4-0.8-0.8v-14.3c0-0.4,0.4-0.8,0.8-0.8L-48,200.6 M-48,199.5h-14.3c-1,0-1.9,0.8-1.9,1.9
	v14.3c0,1,0.8,1.9,1.9,1.9H-48c1,0,1.9-0.8,1.9-1.9v-14.3C-46.1,200.3-46.9,199.5-48,199.5L-48,199.5z"/>
<path fill="#2E368F" stroke="#2E368F" stroke-miterlimit="10" d="M271.1,88.8c0.1-0.1,0.1-0.2,0.1-0.3c0-0.1,0-0.2-0.1-0.3l-8.2-8.2
	c-0.2-0.2-0.5-0.2-0.6,0c-0.2,0.2-0.2,0.5,0,0.6l7.8,7.8l-7.8,7.8c-0.2,0.2-0.2,0.5,0,0.6c0.2,0.2,0.5,0.2,0.6,0L271.1,88.8z"/>
<path fill="#2E368F" stroke="#2E368F" stroke-miterlimit="10" d="M-14.5,204.5c-0.1-0.1-0.2-0.1-0.3-0.1s-0.2,0-0.3,0.1l-8.2,8.2
	c-0.2,0.2-0.2,0.5,0,0.6c0.2,0.2,0.5,0.2,0.6,0l7.8-7.8l7.8,7.8c0.2,0.2,0.5,0.2,0.6,0c0.2-0.2,0.2-0.5,0-0.6L-14.5,204.5z"/>
<path fill="#2E368F" stroke="#2E368F" stroke-miterlimit="10" d="M144.6,173.5c0.1,0.1,0.2,0.1,0.3,0.1s0.2,0,0.3-0.1l8.2-8.2
	c0.2-0.2,0.2-0.5,0-0.6c-0.2-0.2-0.5-0.2-0.6,0l-7.8,7.8l-7.8-7.8c-0.2-0.2-0.5-0.2-0.6,0s-0.2,0.5,0,0.6L144.6,173.5z"/>
<g transform="matrix( 1, 0, 0, 1, 0,0) ">
	<g>
		<g id="a_3_">
			<path fill="#2E368F" stroke="#2E368F" stroke-width="0.5" stroke-miterlimit="10" d="M15.3,164v7.2c0,0.9,0.3,1.7,1,2.4
				c0.7,0.7,1.5,1,2.4,1v2.6c0,0.1,0,0.2,0.1,0.3c0,0.1,0.1,0.1,0.2,0.2c0.1,0,0.1,0,0.2,0c0.1,0,0.2,0,0.3-0.1l3-2.9h8.3
				c1,0,1.8-0.3,2.5-1c0.7-0.7,1-1.5,1-2.4V164c0-1-0.3-1.8-1-2.4c-0.7-0.7-1.5-1-2.5-1H18.9c-1,0-1.8,0.3-2.5,1
				C15.7,162.2,15.3,163,15.3,164 M18.9,161.4h12.1c0.7,0,1.3,0.2,1.8,0.7c0.5,0.5,0.8,1.1,0.8,1.8v7.2c0,0.7-0.3,1.3-0.8,1.8
				c-0.5,0.5-1.1,0.8-1.8,0.8h-8.5c-0.1,0-0.2,0-0.3,0.1l-2.3,2.3v-2c0-0.1,0-0.2-0.1-0.3c-0.1-0.1-0.2-0.1-0.3-0.1h-0.4
				c-0.7,0-1.3-0.3-1.8-0.8c-0.5-0.5-0.8-1.1-0.8-1.8V164c0-0.7,0.3-1.3,0.8-1.8C17.5,161.7,18.2,161.4,18.9,161.4z"/>
			<path fill="#2E368F" stroke="#2E368F" stroke-width="0.5" stroke-miterlimit="10" d="M30.1,168.4c0.2-0.2,0.4-0.5,0.4-0.8
				c0-0.3-0.1-0.6-0.4-0.8c-0.2-0.2-0.5-0.4-0.9-0.4c-0.3,0-0.6,0.1-0.9,0.4c-0.2,0.2-0.4,0.5-0.4,0.8c0,0.3,0.1,0.6,0.4,0.8
				c0.2,0.2,0.5,0.3,0.9,0.3C29.6,168.7,29.9,168.6,30.1,168.4 M21.8,167.5c0-0.3-0.1-0.6-0.4-0.8c-0.2-0.2-0.5-0.4-0.9-0.4
				c-0.3,0-0.6,0.1-0.9,0.4c-0.2,0.2-0.4,0.5-0.4,0.8c0,0.3,0.1,0.6,0.4,0.8c0.2,0.2,0.5,0.3,0.9,0.3c0.3,0,0.6-0.1,0.9-0.3
				C21.7,168.2,21.8,167.9,21.8,167.5 M24.1,166.7c-0.2,0.2-0.4,0.5-0.4,0.8c0,0.3,0.1,0.6,0.4,0.8c0.2,0.2,0.5,0.3,0.9,0.3
				s0.6-0.1,0.9-0.3c0.2-0.2,0.4-0.5,0.4-0.8c0-0.3-0.1-0.6-0.4-0.8c-0.2-0.2-0.5-0.4-0.9-0.4S24.3,166.5,24.1,166.7z"/>
		</g>
	</g>
</g>
<path fill="#2E368F" stroke="#2E368F" stroke-width="0.45" stroke-miterlimit="10" d="M-91.5,216h-2v2h-11.1v-15.2h2v-2h2v-2h11.1
	V214h-2L-91.5,216L-91.5,216z M-94,203.4h-10.1v14.2H-94V203.4z M-102.6,205.4v-0.5h7.1v0.5H-102.6z M-102.6,207.4v-0.5h7.1v0.5
	H-102.6z M-102.6,209.5v-0.5h7.1v0.5H-102.6z M-102.6,211.5V211h7.1v0.5H-102.6z M-102.6,213.5V213h7.1v0.5H-102.6z M-102.6,215.5
	V215h7.1v0.5H-102.6z M-102.1,201.4v1.5h8.6v12.6h1.5v-14.2H-102.1z M-100.1,199.3v1.5h8.6v12.6h1.5v-14.2H-100.1z"/>
<path fill="#2E368F" d="M-15.7,238.7c0,0-0.1,0-0.1,0.1l-5.2,8.4c-0.1,0.1,0,0.2,0.1,0.2h10.4c0.1,0,0.2-0.1,0.1-0.2l-5.2-8.4
	C-15.6,238.8-15.7,238.7-15.7,238.7L-15.7,238.7z M-20.9,249.2c-0.1,0-0.2,0.1-0.1,0.2l5.2,8.4c0.1,0.1,0.2,0.1,0.2,0l5.2-8.4
	c0.1-0.1,0-0.2-0.1-0.2H-20.9L-20.9,249.2z"/>
<path fill="#2E368F" stroke="#2E368F" stroke-width="0.75" stroke-miterlimit="10" d="M264.7,159.1c-5.3,0-9.6,4.3-9.6,9.6
	s4.3,9.6,9.6,9.6s9.6-4.3,9.6-9.6S269.9,159.1,264.7,159.1z M264.7,177.4c-4.8,0-8.7-3.9-8.7-8.7c0-4.8,3.9-8.7,8.7-8.7
	s8.7,3.9,8.7,8.7C273.4,173.5,269.5,177.4,264.7,177.4z"/>
<g>
	<path fill="#2E368F" stroke="#2E368F" stroke-width="0.75" stroke-miterlimit="10" d="M64.4,208.8c-1.9,0-3.5,1.2-4.1,2.9h0.4
		c0.6-1.6,1.9-2.5,3.7-2.5c2.1,0,3.9,1.8,3.9,3.9c0,2.1-1.8,3.9-3.9,3.9c-1.6,0-2.9-1-3.5-2.3h-0.4c0.6,1.6,2.1,2.7,3.9,2.7
		c2.3,0,4.3-1.9,4.3-4.3C68.7,210.7,66.8,208.8,64.4,208.8z"/>
	<path fill="#2E368F" stroke="#2E368F" stroke-width="0.75" stroke-miterlimit="10" d="M64.4,210.3v3.3H67v0.4H64c0-1.2,0-2.7,0-3.7
		L64.4,210.3z"/>
</g>
<path fill="#2E368F" stroke="#2E368F" stroke-miterlimit="10" d="M33.3,208.7c-0.2,0-0.3,0.1-0.3,0.3v5c0,1.6-1.3,2.9-2.9,2.9H19.5
	c-1.6,0-2.9-1.3-2.9-2.9v-8.4v-2.2c0-1.6,1.3-2.9,2.9-2.9h4.9c0.2,0,0.3-0.1,0.3-0.3s-0.1-0.3-0.3-0.3h-4.9c-1.9,0-3.5,1.6-3.5,3.5
	v2.2v8.4c0,1.9,1.6,3.5,3.5,3.5h10.6c1.9,0,3.5-1.6,3.5-3.5v-5C33.6,208.8,33.5,208.7,33.3,208.7z"/>
<g>
	<g>
		<path fill="#2E368F" d="M33.9,199.7c0.6,0.6,0.6,1.5,0,2.1l-0.7,0.7l-2.1-2.1l0.7-0.7C32.4,199.1,33.3,199.1,33.9,199.7z"/>
		<polygon fill="#2E368F" points="23.6,207.9 22.9,210.6 25.7,210 32.5,203.1 30.5,201.1 		"/>
	</g>
</g>
<g>
	<g>
		<path fill="#2E368F" d="M-121.5,141.7c0.3,0.3,0.3,0.7,0,0.9l-0.3,0.3l-0.9-0.9l0.3-0.3C-122.1,141.4-121.7,141.4-121.5,141.7z"/>
		<polygon fill="#2E368F" points="-126,145.3 -126.3,146.5 -125.1,146.2 -122.1,143.2 -123,142.3 		"/>
	</g>
</g>
<path fill="#2E368F" stroke="#2E368F" stroke-miterlimit="10" d="M-210.6,217.3c0-0.2-0.1-0.3-0.3-0.3h-5.2c-1.7,0-3-1.4-3-3V203
	c0-1.7,1.4-3,3-3h8.7h2.3c1.7,0,3,1.4,3,3v5.1c0,0.2,0.1,0.3,0.3,0.3s0.3-0.1,0.3-0.3V203c0-2-1.6-3.6-3.6-3.6h-2.3h-8.7
	c-2,0-3.6,1.6-3.6,3.6V214c0,2,1.6,3.6,3.6,3.6h5.2C-210.7,217.6-210.6,217.4-210.6,217.3z"/>
<path fill="#2E368F" stroke="#2E368F" stroke-width="0.75" stroke-miterlimit="10" d="M193.3,248.9c-0.2,0-0.3,0.1-0.3,0.3v5
	c0,1.6-1.3,2.9-2.9,2.9h-10.5c-1.6,0-2.9-1.3-2.9-2.9v-8.4v-2.2c0-1.6,1.3-2.9,2.9-2.9h4.9c0.2,0,0.3-0.1,0.3-0.3
	c0-0.2-0.1-0.3-0.3-0.3h-4.9c-1.9,0-3.5,1.5-3.5,3.5v2.2v8.4c0,1.9,1.5,3.5,3.5,3.5h10.5c1.9,0,3.5-1.5,3.5-3.5v-5
	C193.5,249,193.4,248.9,193.3,248.9z"/>
<path fill="#2E368F" stroke="#2E368F" stroke-width="0.75" stroke-miterlimit="10" d="M153.8,88.5c-0.2,0-0.3,0.1-0.3,0.3v5.3
	c0,1.7-1.4,3.1-3.1,3.1h-11.3c-1.7,0-3.1-1.4-3.1-3.1v-9v-2.3c0-1.7,1.4-3.1,3.1-3.1h5.3c0.2,0,0.3-0.1,0.3-0.3
	c0-0.2-0.1-0.3-0.3-0.3h-5.3c-2,0-3.7,1.7-3.7,3.7v2.3v9c0,2,1.7,3.7,3.7,3.7h11.3c2,0,3.7-1.7,3.7-3.7v-5.3
	C154.1,88.6,154,88.5,153.8,88.5z"/>
<g>
	<path fill="#2E368F" d="M154.4,78.9c0.6,0.6,0.6,1.6,0,2.2l-0.7,0.7l-2.2-2.2l0.7-0.7C152.8,78.3,153.8,78.3,154.4,78.9z"/>
	<polygon fill="#2E368F" points="143.5,87.7 142.7,90.6 145.7,89.9 153,82.6 150.8,80.4 	"/>
</g>
<path fill="#2E368F" stroke="#2E368F" stroke-width="0.75" stroke-miterlimit="10" d="M72.8,87.6h-7.1v-7.1c0-0.5-0.4-0.8-0.8-0.8
	S64,80,64,80.4v7.1h-7.1c-0.5,0-0.8,0.4-0.8,0.8s0.4,0.8,0.8,0.8H64v7.1c0,0.5,0.4,0.8,0.8,0.8s0.8-0.4,0.8-0.8v-7.1h7.1
	c0.5,0,0.8-0.4,0.8-0.8S73.3,87.6,72.8,87.6z"/>
<path fill="#2E368F" stroke="#2E368F" stroke-width="0.75" stroke-miterlimit="10" d="M33.7,96.7l-4.2-4.2c2.7-3,2.6-7.7-0.3-10.6
	c-3-3-7.9-3-11,0c-3,3-3,7.9,0,11c1.5,1.5,3.5,2.3,5.5,2.3c1.8,0,3.7-0.7,5.1-2l4.2,4.2c0.1,0.1,0.2,0.1,0.3,0.1
	c0.1,0,0.2,0,0.3-0.1C33.9,97.2,33.9,96.9,33.7,96.7z M18.9,92.2c-2.7-2.7-2.7-7,0-9.7c1.3-1.3,3.1-2,4.8-2s3.5,0.7,4.8,2
	c2.7,2.7,2.7,7,0,9.7C25.9,94.8,21.6,94.8,18.9,92.2z"/>
<path fill="#2E368F" stroke="#2E368F" stroke-width="0.75" stroke-miterlimit="10" d="M109.7,216.6l-2.1-2.1
	c1.4-1.5,1.3-3.9-0.2-5.4c-1.5-1.5-4-1.5-5.5,0c-1.5,1.5-1.5,4,0,5.5c0.8,0.8,1.8,1.1,2.8,1.1c0.9,0,1.9-0.3,2.6-1l2.1,2.1
	c0,0,0.1,0.1,0.2,0.1c0.1,0,0.1,0,0.2-0.1C109.8,216.8,109.8,216.7,109.7,216.6z M102.2,214.3c-1.3-1.3-1.3-3.5,0-4.9
	c0.7-0.7,1.6-1,2.4-1s1.8,0.3,2.4,1c1.3,1.3,1.3,3.5,0,4.9C105.8,215.7,103.6,215.7,102.2,214.3z"/>
<path fill="#2E368F" stroke="#2E368F" stroke-width="0.75" stroke-miterlimit="10" d="M-95.1,79.3c-5,0-9.1,4.1-9.1,9.1
	c0,5,4.1,9.1,9.1,9.1c5,0,9.1-4.1,9.1-9.1C-86,83.4-90.1,79.3-95.1,79.3z M-95.1,96.8c-4.6,0-8.3-3.7-8.3-8.3c0-4.6,3.7-8.3,8.3-8.3
	c4.6,0,8.3,3.7,8.3,8.3C-86.8,93.1-90.5,96.8-95.1,96.8z"/>
<path fill="#2E368F" stroke="#2E368F" stroke-miterlimit="10" d="M113.4,80.6v4.6c0,0.1-0.1,0.2-0.2,0.2s-0.2-0.1-0.2-0.2v-4
	l-7.8,7.8c0,0-0.1,0.1-0.2,0.1s-0.1,0-0.2-0.1c-0.1-0.1-0.1-0.2,0-0.3l7.8-7.8h-4c-0.1,0-0.2-0.1-0.2-0.2s0.1-0.2,0.2-0.2h4.6
	C113.3,80.3,113.4,80.4,113.4,80.6z"/>
<path fill="#2E368F" stroke="#2E368F" stroke-width="0.75" stroke-miterlimit="10" d="M112.7,88.8c-0.1,0-0.2,0.1-0.2,0.2v4.6
	c0,1.5-1.2,2.7-2.7,2.7h-9.8c-1.5,0-2.7-1.2-2.7-2.7v-7.8v-2c0-1.5,1.2-2.7,2.7-2.7h4.6c0.1,0,0.2-0.1,0.2-0.2s-0.1-0.2-0.2-0.2
	h-4.6c-1.8,0-3.2,1.4-3.2,3.2v2v7.8c0,1.8,1.4,3.2,3.2,3.2h9.8c1.8,0,3.2-1.4,3.2-3.2V89C112.9,88.9,112.8,88.8,112.7,88.8z"/>
<path fill="#2E368F" stroke="#2E368F" stroke-miterlimit="10" d="M-145,132.1v4.3c0,0.1-0.1,0.2-0.2,0.2c-0.1,0-0.2-0.1-0.2-0.2
	v-3.8l-7.4,7.4c0,0-0.1,0.1-0.2,0.1s-0.1,0-0.2-0.1c-0.1-0.1-0.1-0.2,0-0.3l7.4-7.4h-3.8c-0.1,0-0.2-0.1-0.2-0.2
	c0-0.1,0.1-0.2,0.2-0.2h4.3C-145.1,131.8-145,131.9-145,132.1z"/>
<path fill="#2E368F" stroke="#2E368F" stroke-width="0.75" stroke-miterlimit="10" d="M-147.6,142c-0.1,0-0.2,0.1-0.2,0.2v4.4
	c0,1.4-1.2,2.6-2.6,2.6h-9.4c-1.4,0-2.6-1.2-2.6-2.6v-7.5v-1.9c0-1.4,1.2-2.6,2.6-2.6h4.4c0.1,0,0.2-0.1,0.2-0.2
	c0-0.1-0.1-0.2-0.2-0.2h-4.4c-1.7,0-3.1,1.4-3.1,3.1v1.9v7.5c0,1.7,1.4,3.1,3.1,3.1h9.4c1.7,0,3.1-1.4,3.1-3.1v-4.4
	C-147.4,142.1-147.5,142-147.6,142z"/>
<path fill="#2E368F" stroke="#2E368F" stroke-width="0.5" stroke-miterlimit="10" d="M-45.7,92.3v-7.9c0-0.2,0.1-1.8-0.5-2.5
	c-0.4-0.5-1.2-0.6-2-0.6h-0.4c-0.1,0-0.3,0-0.6,0v-0.7c0-0.2-0.2-0.4-0.4-0.4c-0.2,0-0.4,0.2-0.4,0.4v0.8c-2.5,0-8,0-10.5,0v-0.8
	c0-0.2-0.2-0.4-0.4-0.4s-0.2,0.2-0.2,0.4v0.8c-0.3,0-0.5,0-0.6,0H-62c-0.9,0-1.7,0-2,0.6c-0.6,0.6-0.5,2.2-0.5,2.4V96
	c0,0.2,0.2,0.4,0.4,0.4h14.5c0.1,0,0.2,0,0.3-0.1l0,0l3.6-3.7l0,0l0,0l0,0c0,0,0,0,0-0.1S-45.7,92.4-45.7,92.3z M-63.6,82.4
	c0.2-0.3,0.9-0.3,1.6-0.3h0.4c0.1,0,0.3,0,0.6,0v0.5c0,0.2,0.2,0.4,0.4,0.4s0.3-0.2,0.3-0.4v-0.5c2.5,0,8,0,10.5,0v0.5
	c0,0.2,0.2,0.4,0.4,0.4s0.4-0.2,0.4-0.4v-0.5c0.3,0,0.5,0,0.6,0h0.4c0.7,0,1.3,0,1.6,0.3c0.1,0.3,0.1,1.1,0.1,1.7h-17.4
	C-63.8,83.4-63.7,82.7-63.6,82.4z M-63.8,84.8h17.4V92h-3.3c-0.2,0-0.4,0.2-0.4,0.4v3.4h-13.7V84.8z M-46.9,92.7l-2.4,2.5v-2.5
	H-46.9z"/>
<g>
	<rect x="-60.1" y="86.7" fill="#2E368F" width="1.9" height="1.4"/>
	<rect x="-57.4" y="86.7" fill="#2E368F" width="1.9" height="1.4"/>
	<rect x="-54.7" y="86.7" fill="#2E368F" width="1.9" height="1.4"/>
	<rect x="-52.1" y="86.7" fill="#2E368F" width="1.9" height="1.4"/>
	<rect x="-60.1" y="88.9" fill="#2E368F" width="1.9" height="1.4"/>
	<rect x="-57.4" y="88.9" fill="#2E368F" width="1.9" height="1.4"/>
	<rect x="-54.7" y="88.9" fill="#2E368F" width="1.9" height="1.4"/>
	<rect x="-52.1" y="88.9" fill="#2E368F" width="1.9" height="1.4"/>
	<rect x="-60.1" y="91.1" fill="#2E368F" width="1.9" height="1.4"/>
	<rect x="-57.4" y="91.1" fill="#2E368F" width="1.9" height="1.4"/>
	<rect x="-54.7" y="91.1" fill="#2E368F" width="1.9" height="1.4"/>
	<rect x="-52.1" y="91.1" fill="#2E368F" width="1.9" height="1.4"/>
</g>
<g>
	<g>
		<path fill="#EF3C24" d="M-14.6,79.6c-0.1-0.2-0.3-0.3-0.5-0.3c-0.2,0-0.4,0.1-0.5,0.3l-9.2,16c-0.1,0.2-0.1,0.4,0,0.6
			c0.1,0.2,0.3,0.3,0.5,0.3h18.5l0,0c0.3,0,0.6-0.3,0.6-0.6c0-0.1,0-0.3-0.1-0.4L-14.6,79.6z M-23.3,95.3l8.1-14.1L-7,95.3H-23.3z"
			/>
		<path fill="#EF3C24" d="M-15.8,85.6v4.9c0,0.3,0.3,0.6,0.6,0.6s0.6-0.3,0.6-0.6v-4.9c0-0.3-0.3-0.6-0.6-0.6
			C-15.5,84.9-15.8,85.2-15.8,85.6z"/>
		<path fill="#EF3C24" d="M-15.1,91.9c-0.3,0-0.6,0.3-0.6,0.6V93c0,0.3,0.3,0.6,0.6,0.6s0.6-0.3,0.6-0.6v-0.4
			C-14.5,92.2-14.8,91.9-15.1,91.9z"/>
	</g>
</g>
<g>
	<g>
		<path fill="#F26722" d="M-95,39.7c-0.1-0.2-0.3-0.3-0.5-0.3c-0.2,0-0.4,0.1-0.5,0.3l-9.2,16c-0.1,0.2-0.1,0.4,0,0.6
			c0.1,0.2,0.3,0.3,0.5,0.3h18.5l0,0c0.3,0,0.6-0.3,0.6-0.6c0-0.1,0-0.3-0.1-0.4L-95,39.7z M-103.7,55.4l8.1-14.1l8.1,14.1H-103.7z"
			/>
		<path fill="#F26722" d="M-96.2,45.7v4.9c0,0.3,0.3,0.6,0.6,0.6c0.3,0,0.6-0.3,0.6-0.6v-4.9c0-0.3-0.3-0.6-0.6-0.6
			S-96.2,45.3-96.2,45.7z"/>
		<path fill="#F26722" d="M-95.6,52c-0.3,0-0.6,0.3-0.6,0.6v0.4c0,0.3,0.3,0.6,0.6,0.6c0.3,0,0.6-0.3,0.6-0.6v-0.4
			C-94.9,52.3-95.2,52-95.6,52z"/>
	</g>
</g>
<polygon fill="#2E368F" points="-100,88.2 -97.6,88.2 -97.6,91.8 -92.8,91.8 -92.8,88.2 -90.4,88.2 -95.2,83.4 "/>
<path fill="#2E368F" stroke="#2E368F" stroke-width="0.75" stroke-miterlimit="10" d="M184.7,199.4c-5.1,0-9.2,4.1-9.2,9.2
	c0,5.1,4.1,9.2,9.2,9.2c5.1,0,9.2-4.1,9.2-9.2C193.9,203.5,189.8,199.4,184.7,199.4z M184.7,216.9c-4.6,0-8.4-3.8-8.4-8.4
	c0-4.6,3.8-8.4,8.4-8.4c4.6,0,8.4,3.8,8.4,8.4C193.1,213.2,189.3,216.9,184.7,216.9z"/>
<path fill="#2E368F" stroke="#2E368F" stroke-width="0.75" stroke-miterlimit="10" d="M264.9,199.4c-5.1,0-9.2,4.1-9.2,9.2
	c0,5.1,4.1,9.2,9.2,9.2s9.2-4.1,9.2-9.2C274,203.5,269.9,199.4,264.9,199.4z M264.9,216.9c-4.6,0-8.4-3.8-8.4-8.4
	c0-4.6,3.8-8.4,8.4-8.4s8.4,3.8,8.4,8.4C273.2,213.2,269.5,216.9,264.9,216.9z"/>
<path fill="#2E368F" stroke="#2E368F" stroke-width="0.75" stroke-miterlimit="10" d="M-94.4,172.6l1.9-1.9c0,0,0-0.1,0-0.2
	c0,0-0.1,0-0.2,0l-1.9,1.9l-1.9-1.9c0,0-0.1,0-0.2,0c0,0,0,0.1,0,0.2l1.9,1.9l-1.9,1.9c0,0,0,0.1,0,0.2c0,0,0.1,0,0.1,0
	c0,0,0.1,0,0.1,0l1.9-1.9l1.9,1.9c0,0,0.1,0,0.1,0s0.1,0,0.1,0c0,0,0-0.1,0-0.2L-94.4,172.6z"/>
<path fill="#2E368F" stroke="#2E368F" stroke-width="0.75" stroke-miterlimit="10" d="M-94.5,167.7c-2.7,0-4.8,2.2-4.8,4.8
	c0,2.7,2.2,4.8,4.8,4.8c2.7,0,4.8-2.2,4.8-4.8C-89.7,169.9-91.8,167.7-94.5,167.7z M-94.5,177c-2.4,0-4.4-2-4.4-4.4
	c0-2.4,2-4.4,4.4-4.4c2.4,0,4.4,2,4.4,4.4C-90.1,175-92.1,177-94.5,177z"/>
<rect x="-55.6" y="119.9" transform="matrix(-0.5425 -0.8401 0.8401 -0.5425 -192.9819 151.8328)" fill="#2E368F" stroke="#2E368F" stroke-width="0.75" stroke-miterlimit="10" width="0.8" height="17.2"/>
<path fill="#2E368F" stroke="#2E368F" stroke-width="0.75" stroke-miterlimit="10" d="M-55.2,119.5c-4.8,0-8.8,3.9-8.8,8.8
	c0,4.8,3.9,8.8,8.8,8.8s8.8-3.9,8.8-8.8C-46.5,123.5-50.4,119.5-55.2,119.5z M-55.2,136.3c-4.4,0-8-3.6-8-8c0-4.4,3.6-8,8-8
	s8,3.6,8,8C-47.2,132.7-50.8,136.3-55.2,136.3z"/>
<g>
	<path fill="#2E368F" stroke="#2E368F" stroke-width="0.75" stroke-miterlimit="10" d="M185,174.1c0.3,0,0.5-0.2,0.5-0.5v-7.1
		c0-0.3-0.2-0.5-0.5-0.5s-0.5,0.2-0.5,0.5v7.1C184.5,173.9,184.8,174.1,185,174.1z"/>
	<path fill="#2E368F" stroke="#2E368F" stroke-width="0.75" stroke-miterlimit="10" d="M184.9,164.7c0.3,0,0.5-0.2,0.5-0.5v-1
		c0-0.3-0.2-0.5-0.5-0.5s-0.5,0.2-0.5,0.5v1C184.5,164.4,184.7,164.7,184.9,164.7z"/>
</g>
<path fill="#2E368F" stroke="#2E368F" stroke-width="0.75" stroke-miterlimit="10" d="M185,159.5c-4.9,0-8.9,4-8.9,8.9
	c0,4.9,4,8.9,8.9,8.9c4.9,0,8.9-4,8.9-8.9C193.9,163.5,189.9,159.5,185,159.5z M185,176.5c-4.5,0-8.1-3.6-8.1-8.1
	c0-4.5,3.6-8.1,8.1-8.1c4.5,0,8.1,3.6,8.1,8.1C193.1,172.9,189.5,176.5,185,176.5z"/>
<path fill="#2E368F" stroke="#2E368F" stroke-width="0.75" stroke-miterlimit="10" d="M65,159.4c-5.2,0-9.4,4.2-9.4,9.4
	c0,5.2,4.2,9.4,9.4,9.4s9.4-4.2,9.4-9.4C74.4,163.6,70.2,159.4,65,159.4z M65,177.3c-4.7,0-8.5-3.8-8.5-8.5c0-4.7,3.8-8.5,8.5-8.5
	s8.5,3.8,8.5,8.5C73.5,173.5,69.7,177.3,65,177.3z"/>
<polygon fill="#2E368F" points="69.9,168.4 67.4,168.4 67.4,164.7 62.5,164.7 62.5,168.4 60.1,168.4 65,173.3 "/>
<path fill="#2E368F" stroke="#2E368F" stroke-width="0.75" stroke-miterlimit="10" d="M-95.2,119.7c-4.9,0-8.8,4-8.8,8.8
	c0,4.9,4,8.8,8.8,8.8s8.8-4,8.8-8.8C-86.4,123.7-90.3,119.7-95.2,119.7z M-95.2,136.6c-4.4,0-8-3.6-8-8c0-4.4,3.6-8,8-8s8,3.6,8,8
	C-87.1,133-90.8,136.6-95.2,136.6z"/>
<polygon fill="#2E368F" points="-90.6,128.2 -92.9,128.2 -92.9,124.7 -97.5,124.7 -97.5,128.2 -99.8,128.2 -95.2,132.8 "/>
<path fill="#2E368F" stroke="#2E368F" stroke-width="0.75" stroke-miterlimit="10" d="M225.4,79.4c-5,0-9,4.1-9,9c0,5,4.1,9,9,9
	c5,0,9-4.1,9-9C234.4,83.5,230.4,79.4,225.4,79.4z M225.4,96.7c-4.5,0-8.2-3.7-8.2-8.2c0-4.5,3.7-8.2,8.2-8.2c4.5,0,8.2,3.7,8.2,8.2
	C233.6,93,229.9,96.7,225.4,96.7z"/>
<path fill="#2E368F" stroke="#2E368F" stroke-width="0.75" stroke-miterlimit="10" d="M29.8,124.8c-0.1-0.1-0.3-0.1-0.4,0l-6.8,6.8
	l-2.2-2.2c-0.1-0.1-0.3-0.1-0.4,0c-0.1,0.1-0.1,0.3,0,0.4l2.4,2.4c0.1,0.1,0.1,0.1,0.2,0.1c0.1,0,0.1,0,0.2-0.1l7-7
	C29.9,125.1,29.9,125,29.8,124.8z"/>
<path fill="#2E368F" stroke="#2E368F" stroke-width="0.45" stroke-miterlimit="10" d="M24.9,119.1c-5.2,0-9.5,4.2-9.5,9.5
	c0,5.2,4.2,9.5,9.5,9.5s9.5-4.2,9.5-9.5C34.4,123.3,30.2,119.1,24.9,119.1z M24.9,137.2c-4.8,0-8.6-3.9-8.6-8.6
	c0-4.8,3.9-8.6,8.6-8.6s8.6,3.9,8.6,8.6C33.6,133.3,29.7,137.2,24.9,137.2z"/>
<path fill="#2E368F" stroke="#2E368F" stroke-width="0.45" stroke-miterlimit="10" d="M-101.7,0.6c-5.2,0-9.5,4.2-9.5,9.5
	c0,5.2,4.2,9.5,9.5,9.5c5.2,0,9.5-4.2,9.5-9.5C-92.2,4.8-96.5,0.6-101.7,0.6z M-101.7,18.7c-4.8,0-8.6-3.9-8.6-8.6
	c0-4.8,3.9-8.6,8.6-8.6c4.8,0,8.6,3.9,8.6,8.6C-93.1,14.8-97,18.7-101.7,18.7z"/>
<g>
	<path fill="#2E368F" stroke="#2E368F" stroke-width="0.75" stroke-miterlimit="10" d="M228.4,165.4c0.1-0.1,0.1-0.3,0-0.4
		c-0.1-0.1-0.3-0.1-0.4,0l-4.4,4.4l0.4,0.4L228.4,165.4z"/>
	<path fill="#2E368F" stroke="#2E368F" stroke-width="0.75" stroke-miterlimit="10" d="M221.2,171.8l-2.1-2.1
		c-0.1-0.1-0.3-0.1-0.4,0c-0.1,0.1-0.1,0.3,0,0.4l2.3,2.3c0.1,0.1,0.1,0.1,0.2,0.1c0.1,0,0.1,0,0.2-0.1l0.2-0.2L221.2,171.8
		L221.2,171.8z"/>
	<path fill="#2E368F" stroke="#2E368F" stroke-width="0.75" stroke-miterlimit="10" d="M221.8,169.4c-0.1-0.1-0.3-0.1-0.4,0
		c-0.1,0.1-0.1,0.3,0,0.4l0.9,0.9l0.4-0.4L221.8,169.4z"/>
	<path fill="#2E368F" stroke="#2E368F" stroke-width="0.75" stroke-miterlimit="10" d="M231.1,164.7c-0.1-0.1-0.3-0.1-0.4,0
		l-6.8,6.8l-0.8-0.8l-0.4,0.4l1,1c0.1,0.1,0.1,0.1,0.2,0.1c0.1,0,0.1,0,0.2-0.1l7-7C231.2,165,231.2,164.8,231.1,164.7z"/>
	
		<rect x="222.4" y="170.4" transform="matrix(0.7074 -0.7068 0.7068 0.7074 -55.4831 207.36)" fill="#2E368F" stroke="#2E368F" stroke-width="0.75" stroke-miterlimit="10" width="0.6" height="0.6"/>
</g>
<path fill="#2E368F" stroke="#2E368F" stroke-width="0.75" stroke-miterlimit="10" d="M224.9,159.1c-5.2,0-9.4,4.2-9.4,9.4
	c0,5.2,4.2,9.4,9.4,9.4s9.4-4.2,9.4-9.4C234.3,163.4,230.1,159.1,224.9,159.1z M224.9,177.1c-4.7,0-8.6-3.8-8.6-8.6
	c0-4.7,3.8-8.6,8.6-8.6s8.6,3.8,8.6,8.6C233.5,173.3,229.6,177.1,224.9,177.1z"/>
<circle fill="#2E368F" cx="105" cy="168.7" r="5.2"/>
<path fill="#2E368F" stroke="#2E368F" stroke-width="0.75" stroke-miterlimit="10" d="M105,159.8c-4.9,0-9,4-9,9c0,4.9,4,9,9,9
	s9-4,9-9C114,163.8,110,159.8,105,159.8z M105,176.9c-4.5,0-8.2-3.7-8.2-8.2c0-4.5,3.7-8.2,8.2-8.2s8.2,3.7,8.2,8.2
	C113.2,173.2,109.5,176.9,105,176.9z"/>
<circle fill="#2E368F" cx="184.7" cy="88.3" r="5.2"/>
<path fill="#2E368F" stroke="#2E368F" stroke-width="0.75" stroke-miterlimit="10" d="M184.7,79.3c-5,0-9.1,4.1-9.1,9.1
	c0,5,4.1,9.1,9.1,9.1c5,0,9.1-4.1,9.1-9.1C193.8,83.3,189.7,79.3,184.7,79.3z M184.7,96.6c-4.6,0-8.3-3.7-8.3-8.3
	c0-4.6,3.7-8.3,8.3-8.3s8.3,3.7,8.3,8.3C193,92.9,189.3,96.6,184.7,96.6z"/>
<g>
	<path fill="#2E368F" d="M189.5,123.1v3.5h1v-3.9c0-0.2-0.1-0.3-0.2-0.4l-3.3-2.9c-0.1-0.1-0.3-0.1-0.4-0.1h-9.4
		c-0.3,0-0.6,0.3-0.6,0.6v17.4c0,0.3,0.3,0.6,0.6,0.6h12.7c0.3,0,0.6-0.3,0.6-0.6v-4.6h-1v4.2h-11.9v-16.7h8.8v2.9H189.5z"/>
	<g>
		<path fill="#2E368F" d="M185.4,128.9c-0.1,0-0.2,0-0.4,0h-0.2v0.7h0.3c0.2,0,0.3,0,0.4,0c0.1,0,0.1-0.1,0.2-0.1
			c0-0.1,0.1-0.1,0.1-0.2c0-0.1,0-0.2-0.1-0.2C185.5,129,185.5,128.9,185.4,128.9z"/>
		<path fill="#2E368F" d="M187.9,129c-0.1-0.1-0.1-0.1-0.2-0.1c-0.1,0-0.2,0-0.4,0H187v1.6h0.4c0.1,0,0.2,0,0.3,0
			c0.1,0,0.1-0.1,0.2-0.1c0.1,0,0.1-0.1,0.1-0.2c0-0.1,0-0.3,0-0.4c0-0.2,0-0.3,0-0.4C188,129.2,187.9,129.1,187.9,129z"/>
		<path fill="#2E368F" d="M191.3,127.3h-7.9c-0.4,0-0.7,0.3-0.7,0.7v3.4c0,0.4,0.3,0.7,0.7,0.7h7.9c0.4,0,0.7-0.3,0.7-0.7V128
			C192,127.6,191.7,127.3,191.3,127.3z M186.1,129.6c-0.1,0.1-0.1,0.2-0.2,0.2c-0.1,0.1-0.2,0.1-0.3,0.1c-0.1,0-0.3,0-0.5,0h-0.3
			v0.9h-0.5v-2.4h0.8c0.3,0,0.5,0,0.6,0c0.1,0,0.3,0.1,0.3,0.2c0.1,0.1,0.1,0.3,0.1,0.5C186.1,129.4,186.1,129.5,186.1,129.6z
			 M188.5,130.2c-0.1,0.2-0.1,0.3-0.3,0.4c-0.1,0.1-0.2,0.1-0.3,0.2c-0.1,0-0.3,0.1-0.4,0.1h-0.9v-2.4h0.9c0.2,0,0.4,0,0.5,0
			c0.1,0,0.3,0.1,0.4,0.2c0.1,0.1,0.2,0.2,0.2,0.4c0.1,0.2,0.1,0.3,0.1,0.6C188.6,129.9,188.5,130.1,188.5,130.2z M190.5,128.9h-1.2
			v0.6h1v0.4h-1v1h-0.5v-2.4h1.7V128.9z"/>
	</g>
</g>
<path fill="#2E368F" stroke="#2E368F" stroke-width="0.5" stroke-miterlimit="10" d="M233.9,123.7c-0.1-0.1-0.4-0.1-0.5,0l-9.1,9.1
	l-2.9-2.9c-0.1-0.1-0.4-0.1-0.5,0c-0.1,0.1-0.1,0.4,0,0.5l3.1,3.1c0.1,0.1,0.2,0.1,0.3,0.1s0.2,0,0.3-0.1l9.4-9.4
	C234,124.1,234,123.8,233.9,123.7z"/>
<path fill="#2E368F" d="M228.1,123v3.5h1v-3.8c0-0.2-0.1-0.3-0.2-0.4l-3.2-2.9c-0.1-0.1-0.3-0.1-0.4-0.1H216c-0.3,0-0.6,0.3-0.6,0.6
	V137c0,0.3,0.3,0.6,0.6,0.6h12.5c0.3,0,0.6-0.3,0.6-0.6v-4.5h-1v4.2h-11.8v-16.5h8.7v2.9H228.1z"/>
<rect x="59.7" y="127.4" fill="#2E368F" width="9.1" height="0.8"/>
<rect x="59.7" y="129.7" fill="#2E368F" width="9.1" height="0.8"/>
<rect x="59.7" y="125.1" fill="#2E368F" width="5.3" height="0.8"/>
<rect x="59.7" y="132" fill="#2E368F" width="9.1" height="0.8"/>
<path fill="#2E368F" d="M70.3,122.8v10.3h1v-10.7c0-0.2-0.1-0.3-0.2-0.5l-3.4-3.1c-0.1-0.1-0.3-0.2-0.4-0.2h-9.8
	c-0.4,0-0.6,0.3-0.6,0.6v18.3c0,0.4,0.3,0.6,0.6,0.6h13.3c0.4,0,0.6-0.3,0.6-0.6v-4.8h-1v4.4H57.8v-17.5H67v3H70.3z"/>
<g>
	<path fill="#2E368F" d="M-22.6,159.4v16.3h1.1v-15.1h6.9v5.1h5.1v10h1.1v-10.9l-5.4-5.4H-22.6z M-13.5,164.5v-3.1l3.1,3.1H-13.5z"
		/>
	<polygon fill="#2E368F" points="-17.7,174.9 -17.7,177.6 -13.4,177.6 -13.4,174.9 -10.7,174.9 -15.5,171 -20.4,174.9 	"/>
</g>
<g>
	<path fill="#2E368F" d="M256.7,118.5v17.9h1.3v-16.6h7.5v5.6h5.6v11h1.3v-11.9l-6-6H256.7z M266.8,124.1v-3.4l3.4,3.4H266.8z"/>
	<polygon fill="#2E368F" points="266.9,134.2 266.9,131.2 262.2,131.2 262.2,134.2 259.2,134.2 264.5,138.5 269.9,134.2 	"/>
</g>
<path fill="#2E368F" d="M292.7,118.5v17.9h1.3v-16.6h7.5v5.6h5.6v11h1.3v-11.9l-6-6H292.7z M302.7,124.1v-3.4l3.4,3.4H302.7z"/>
<path fill="#2E368F" d="M-102.2,159.2v17.5h1.2v-16.3h7.4v5.5h5.5v10.8h1.2v-11.7l-5.8-5.8H-102.2z M-92.3,164.7v-3.4l3.4,3.4H-92.3
	z"/>
<path fill="#2E368F" stroke="#2E368F" stroke-width="0.75" stroke-miterlimit="10" d="M-54.6,167.6c-2.6,0-4.6,2.1-4.6,4.6
	c0,2.6,2.1,4.6,4.6,4.6c2.6,0,4.6-2.1,4.6-4.6C-49.9,169.7-52,167.6-54.6,167.6z M-54.6,176.5c-2.3,0-4.2-1.9-4.2-4.2
	c0-2.3,1.9-4.2,4.2-4.2c2.3,0,4.2,1.9,4.2,4.2C-50.3,174.6-52.2,176.5-54.6,176.5z"/>
<path fill="#2E368F" d="M-62,159.2v17.1h1.2v-15.9h7.2v5.3h5.3v10.6h1.2v-11.4l-5.7-5.7H-62z M-52.4,164.6v-3.3l3.3,3.3H-52.4z"/>
<path fill="#2E368F" stroke="#2E368F" stroke-width="0.75" stroke-miterlimit="10" d="M-124,166.8c-2.6,0-4.6,2.1-4.6,4.6
	c0,2.6,2.1,4.6,4.6,4.6s4.6-2.1,4.6-4.6C-119.4,168.8-121.4,166.8-124,166.8z M-124,175.6c-2.3,0-4.2-1.9-4.2-4.2
	c0-2.3,1.9-4.2,4.2-4.2s4.2,1.9,4.2,4.2C-119.8,173.7-121.7,175.6-124,175.6z"/>
<path fill="#2E368F" d="M-131.4,158.4v17.1h1.2v-15.9h7.2v5.3h5.3v10.6h1.2v-11.4l-5.7-5.7H-131.4z M-121.8,163.7v-3.3l3.3,3.3
	H-121.8z"/>
<g>
	<path fill="#2E368F" d="M56.8,199v17.4H58v-16.1h7.3v5.4h5.4v10.7H72v-11.6l-5.8-5.8H56.8z M66.6,204.4v-3.3l3.3,3.3H66.6z"/>
</g>
<path fill="#2E368F" d="M97.5,198.9v17.6h1.2v-16.4h7.4v5.5h5.5v10.9h1.2v-11.7l-5.9-5.9H97.5z M107.4,204.3V201l3.4,3.4H107.4z"/>
<path fill="#2E368F" stroke="#2E368F" stroke-width="0.75" stroke-miterlimit="10" d="M-119.9,216.6l-2.1-2.1
	c1.4-1.5,1.3-3.9-0.2-5.4c-1.5-1.5-4-1.5-5.5,0c-1.5,1.5-1.5,4,0,5.5c0.8,0.8,1.8,1.1,2.8,1.1c0.9,0,1.9-0.3,2.6-1l2.1,2.1
	c0,0,0.1,0.1,0.2,0.1c0.1,0,0.1,0,0.2-0.1C-119.8,216.8-119.8,216.7-119.9,216.6z M-127.4,214.3c-1.3-1.3-1.3-3.5,0-4.9
	c0.7-0.7,1.6-1,2.4-1s1.8,0.3,2.4,1c1.3,1.3,1.3,3.5,0,4.9C-123.8,215.7-126,215.7-127.4,214.3z"/>
<path fill="#2E368F" d="M-132.1,198.9v17.6h1.2v-16.4h7.4v5.5h5.5v10.9h1.2v-11.7l-5.9-5.9H-132.1z M-122.2,204.3V201l3.4,3.4
	H-122.2z"/>
<path fill="#2E368F" d="M-188.8,198.9v17.6h1.2v-16.4h7.4v5.5h5.5v10.9h1.2v-11.7l-5.9-5.9H-188.8z M-178.9,204.3V201l3.4,3.4
	H-178.9z"/>
<path fill="#2E368F" d="M137,199v17.6h1.2v-16.3h7.4v5.5h5.5v10.8h1.2v-11.7l-5.8-5.8H137z M146.8,204.5v-3.4l3.4,3.4H146.8z"/>
<path fill="#2E368F" stroke="#2E368F" stroke-width="0.75" stroke-miterlimit="10" d="M144.7,210.5c-2.8,0-4.9,3.3-4.9,3.3
	s2.2,3.2,4.9,3.2c2.8,0,4.9-3.3,4.9-3.3S147.5,210.5,144.7,210.5z M144.7,216.4c-2.4,0-4.2-2.8-4.2-2.8s1.9-2.8,4.2-2.8
	s4.2,2.8,4.2,2.8S147.1,216.4,144.7,216.4z"/>
<path fill="none" stroke="#2E368F" stroke-width="0.5" stroke-miterlimit="10" d="M144.7,212.2c-0.8,0-1.6,0.6-1.6,1.6
	c0,0.8,0.6,1.6,1.6,1.6c0.8,0,1.6-0.6,1.6-1.6C146.2,213,145.5,212.2,144.7,212.2z M144.7,214.9c-0.6,0-1.1-0.5-1.1-1.1
	c0-0.5,0.5-1.2,1.1-1.2s1.1,0.5,1.1,1.1C145.8,214.2,145.3,214.9,144.7,214.9z"/>
<path fill="#2E368F" stroke="#2E368F" stroke-width="0.75" stroke-miterlimit="10" d="M-181,209c-2.8,0-4.9,3.3-4.9,3.3
	s2.2,3.2,4.9,3.2c2.8,0,4.9-3.3,4.9-3.3S-178.2,209-181,209z M-181,215c-2.4,0-4.2-2.8-4.2-2.8s1.9-2.8,4.2-2.8
	c2.4,0,4.2,2.8,4.2,2.8S-178.6,215-181,215z"/>
<path fill="none" stroke="#2E368F" stroke-width="0.5" stroke-miterlimit="10" d="M-181,210.8c-0.8,0-1.6,0.6-1.6,1.6
	c0,0.8,0.6,1.6,1.6,1.6c0.8,0,1.6-0.6,1.6-1.6C-179.4,211.5-180.2,210.8-181,210.8z M-181,213.4c-0.6,0-1.1-0.5-1.1-1.1
	c0-0.5,0.5-1.2,1.1-1.2c0.6,0,1.1,0.5,1.1,1.1C-179.9,212.8-180.4,213.4-181,213.4z"/>
<g>
	<g>
		<g>
			<g>
				<polygon fill="#2E368F" points="-96.6,244 -100.7,239.9 -104.8,244 -102.2,244 -102.2,258.5 -99.3,258.5 -99.3,244 				"/>
				<rect x="-96.3" y="239.9" fill="#2E368F" width="8.7" height="2.8"/>
				<rect x="-97.1" y="245.1" fill="#2E368F" width="9.5" height="2.8"/>
				<rect x="-97.1" y="250.5" fill="#2E368F" width="9.5" height="2.8"/>
				<rect x="-97.2" y="255.6" fill="#2E368F" width="9.6" height="2.8"/>
			</g>
		</g>
	</g>
</g>
<g>
	<g>
		<g>
			<g>
				<polygon fill="#2E368F" points="-64.1,253.5 -60.4,257.2 -56.6,253.5 -59.1,253.5 -59.1,240.2 -61.7,240.2 -61.7,253.5 				"/>
				<rect x="-57.1" y="254.6" fill="#2E368F" width="8.9" height="2.6"/>
				<rect x="-57.1" y="249.9" fill="#2E368F" width="9.7" height="2.6"/>
				<rect x="-57.1" y="244.9" fill="#2E368F" width="9.7" height="2.6"/>
				<rect x="-57.1" y="240.2" fill="#2E368F" width="9.8" height="2.6"/>
			</g>
		</g>
	</g>
</g>
<path fill="#2E368F" d="M216.3,208.3H229l-2.7-2.7c-0.2-0.2-0.2-0.6,0-0.8c0.2-0.2,0.6-0.2,0.8,0l3.6,3.6c0.2,0.2,0.2,0.6,0,0.8
	l-3.6,3.6c-0.1,0.1-0.2,0.2-0.4,0.2s-0.3-0.1-0.4-0.2c-0.2-0.2-0.2-0.6,0-0.8l2.7-2.7h-12.7c-0.3,0-0.5-0.2-0.5-0.5
	C215.8,208.5,216,208.3,216.3,208.3z M230.7,199.4h-11c-2.1,0-3.9,1.7-3.9,3.9v2.3c0,0.3,0.2,0.5,0.5,0.5s0.5-0.2,0.5-0.5v-2.3
	c0-1.5,1.3-2.8,2.8-2.8h11c1.5,0,2.8,1.3,2.8,2.8v11c0,1.5-1.3,2.8-2.8,2.8h-11c-1.5,0-2.8-1.3-2.8-2.8v-2.3c0-0.3-0.2-0.5-0.5-0.5
	s-0.5,0.2-0.5,0.5v2.3c0,2.1,1.7,3.9,3.9,3.9h11c2.1,0,3.9-1.7,3.9-3.9v-11C234.6,201.1,232.9,199.4,230.7,199.4z"/>
<path fill="#2E368F" d="M225.2,208.8"/>
<path fill="#2E368F" d="M225.2,208.8"/>
<polyline fill="none" stroke="#2E368F" stroke-width="0.95" stroke-miterlimit="10" points="19.6,248.6 21.1,250.6 23.6,247.4 "/>
<path fill="none" stroke="#2E368F" stroke-width="0.95" stroke-miterlimit="10" d="M29.8,252.9H19.6c-2.1,0-3.8-1.7-3.8-3.8l0,0
	c0-2.1,1.7-3.8,3.8-3.8h10.2c2.1,0,3.8,1.7,3.8,3.8l0,0C33.6,251.2,31.9,252.9,29.8,252.9z"/>
<circle fill="none" stroke="#2E368F" stroke-width="0.95" stroke-miterlimit="10" cx="29.6" cy="249.2" r="2.5"/>
<path fill="none" stroke="#2E368F" stroke-width="0.95" stroke-miterlimit="10" d="M70,252.9H59.8c-2.1,0-3.8-1.7-3.8-3.8l0,0
	c0-2.1,1.7-3.8,3.8-3.8H70c2.1,0,3.8,1.7,3.8,3.8l0,0C73.9,251.2,72.1,252.9,70,252.9z"/>
<circle fill="none" stroke="#2E368F" stroke-width="0.95" stroke-miterlimit="10" cx="60.6" cy="249.2" r="2.5"/>
<g>
	<path fill="#2E368F" d="M111.2,247.1c-0.3,0-0.5,0-0.8-0.1c-0.2,0-0.3-0.2-0.2-0.4c0-0.2,0.2-0.3,0.4-0.2c1.3,0.3,2.6-0.3,3.2-1.5
		c0.3-0.7,0.4-1.5,0.2-2.2c-0.2-0.7-0.8-1.3-1.4-1.7c-0.7-0.3-1.5-0.4-2.2-0.2c-0.7,0.2-1.3,0.8-1.7,1.4c-0.1,0.1-0.3,0.2-0.4,0.1
		c-0.1-0.1-0.2-0.3-0.1-0.4c0.4-0.8,1.1-1.4,2-1.7c0.9-0.3,1.8-0.2,2.7,0.2c0.8,0.4,1.4,1.1,1.7,2c0.3,0.9,0.2,1.8-0.2,2.7
		C113.7,246.4,112.5,247.1,111.2,247.1z M111.2,242v3.1 M109.6,243.6h3.1 M111.5,245.1v-1.3h1.2c0.2,0,0.3-0.1,0.3-0.3
		c0-0.2-0.1-0.3-0.3-0.3h-1.2V242c0-0.2-0.1-0.3-0.3-0.3c-0.2,0-0.3,0.1-0.3,0.3v1.3h-1.3c-0.2,0-0.3,0.1-0.3,0.3
		c0,0.2,0.1,0.3,0.3,0.3h1.3v1.3c0,0.2,0.1,0.3,0.3,0.3C111.4,245.4,111.5,245.3,111.5,245.1z"/>
	<g>
		<path fill="#2E368F" d="M103.1,256.7c-2.5,0-4.8-1.6-6.1-4.2c-0.4,0-0.9-0.3-1.2-0.9c-0.5-0.9-0.8-2.4-0.4-3.1
			c0.2-0.3,0.4-0.4,0.7-0.4c0,0,0,0,0,0c0.1-2,0.8-3.9,2-5.3c1.3-1.5,3-2.4,4.9-2.4c1.8,0,3.6,0.8,4.9,2.4c1.2,1.4,1.9,3.3,2,5.3
			c0,0,0,0,0,0c0.2,0,0.9,0.1,0.9,1.4c0,1.3-0.7,3-1.7,3.1C107.9,255.1,105.6,256.7,103.1,256.7z M97.2,251.9c0.1,0,0.2,0.1,0.3,0.2
			c1.1,2.5,3.2,4,5.6,4c2.3,0,4.5-1.5,5.6-4c0.1-0.1,0.2-0.2,0.3-0.2c0,0,0,0,0.1,0l0,0c0.6,0,1.2-1.4,1.2-2.5
			c0-0.5-0.1-0.8-0.3-0.8c0,0-0.1,0-0.2,0c-0.1,0-0.2,0-0.3,0c-0.1-0.1-0.1-0.1-0.1-0.2c0-4.1-2.9-7.5-6.3-7.5
			c-3.4,0-6.3,3.3-6.3,7.5c0,0.1-0.1,0.2-0.1,0.2c-0.1,0.1-0.2,0.1-0.3,0c-0.1,0-0.1,0-0.2,0c0,0-0.1,0-0.1,0.1
			c-0.3,0.4-0.1,1.7,0.4,2.5c0.1,0.2,0.4,0.6,0.7,0.6C97.1,251.9,97.2,251.9,97.2,251.9C97.2,251.9,97.2,251.9,97.2,251.9z"/>
	</g>
	<g>
		<path fill="#2E368F" d="M109.7,248.4c-1.8-0.4-3.6-2.6-4.6-4.4c-0.9,0.8-1.8,1.6-2.8,2.2c-2.5,1.7-5.7,2.2-5.7,2.2
			s0.2-2.5,1.8-4.6c0.7-0.9,1.6-1.8,2.7-2.3c1.6-0.8,3.8-0.6,5.3,0.4c0.4,0.3,0.8,0.6,1.1,1c0.6,0.8,1.1,1.8,1.4,2.7
			c0.3,0.8,0.5,1.6,0.7,2.4C109.6,248.1,109.6,248.3,109.7,248.4z"/>
		<path fill="#2E368F" d="M109.7,248.7c-1.7-0.4-3.6-2.5-4.7-4.3c-0.7,0.7-1.6,1.3-2.6,2c-2.5,1.7-5.7,2.3-5.8,2.3
			c-0.1,0-0.3-0.2-0.2-0.3c0-0.1,0,0.1,0,0c0-0.1,0.2-2.5,1.8-4.8c0.8-1,1.8-1.9,2.8-2.4c0.7-0.3,1.5-0.5,2.4-0.5
			c1.1,0,2.2,0.3,3.1,0.9c0.4,0.2,0.8,0.6,1.2,1.1c0.6,0.8,1.1,1.8,1.5,2.8c0.3,0.7,0.5,1.5,0.7,2.5c0,0.2,0.1,0.3,0.1,0.5
			c0,0,0,0,0,0.1C109.9,248.6,109.8,248.7,109.7,248.7"/>
	</g>
</g>
<path fill="#2E368F" d="M31.2,47.6c-0.3,0-0.5,0-0.8-0.1c-0.2,0-0.3-0.2-0.2-0.4c0-0.2,0.2-0.3,0.4-0.2c1.3,0.3,2.6-0.3,3.2-1.5
	c0.3-0.7,0.4-1.5,0.2-2.2c-0.2-0.7-0.8-1.3-1.5-1.7c-0.7-0.3-1.5-0.4-2.2-0.2c-0.7,0.2-1.3,0.8-1.7,1.5c-0.1,0.1-0.3,0.2-0.4,0.1
	c-0.1-0.1-0.2-0.3-0.1-0.4c0.4-0.8,1.1-1.5,2-1.8c0.9-0.3,1.8-0.2,2.7,0.2c0.8,0.4,1.5,1.1,1.8,2c0.3,0.9,0.2,1.8-0.2,2.7
	C33.7,46.8,32.5,47.6,31.2,47.6z"/>
<g>
	<path fill="#2E368F" d="M22.9,57.3c-2.6,0-4.9-1.6-6.1-4.2c-0.5,0-0.9-0.3-1.2-0.9c-0.5-0.9-0.8-2.4-0.4-3.2
		c0.2-0.3,0.4-0.4,0.7-0.4c0,0,0,0,0,0c0.1-2,0.8-3.9,2.1-5.4c1.3-1.5,3.1-2.4,4.9-2.4c1.9,0,3.6,0.9,4.9,2.4c1.2,1.4,2,3.3,2.1,5.4
		c0,0,0,0,0,0c0.2,0,0.9,0.1,0.9,1.4c0,1.3-0.7,3-1.8,3.1C27.8,55.7,25.5,57.3,22.9,57.3z M17,52.4c0.1,0,0.2,0.1,0.3,0.2
		c1.1,2.5,3.3,4.1,5.7,4.1c2.4,0,4.5-1.6,5.7-4.1c0.1-0.1,0.2-0.2,0.3-0.2c0,0,0,0,0.1,0l0,0c0.6,0,1.2-1.4,1.2-2.5
		c0-0.5-0.1-0.8-0.3-0.8c0,0-0.1,0-0.2,0c-0.1,0-0.2,0-0.3,0s-0.1-0.1-0.1-0.3c0-4.2-2.9-7.5-6.4-7.5c-3.5,0-6.3,3.4-6.4,7.5
		c0,0.1-0.1,0.2-0.1,0.3s-0.2,0.1-0.3,0c-0.1,0-0.1,0-0.2,0c0,0-0.1,0-0.2,0.1c-0.3,0.4-0.1,1.7,0.4,2.6c0.1,0.2,0.4,0.6,0.7,0.6
		C16.9,52.4,16.9,52.4,17,52.4C17,52.4,17,52.4,17,52.4z"/>
</g>
<g>
	<path fill="#2E368F" d="M29.6,48.9c-1.8-0.4-3.7-2.6-4.7-4.5C24,45.3,23,46,22,46.7c-2.5,1.7-5.7,2.2-5.7,2.2s0.2-2.5,1.8-4.7
		c0.7-0.9,1.7-1.8,2.7-2.4c1.6-0.8,3.8-0.6,5.3,0.4c0.4,0.3,0.9,0.6,1.2,1c0.6,0.8,1.1,1.8,1.4,2.7c0.3,0.8,0.5,1.6,0.7,2.5
		C29.5,48.6,29.5,48.8,29.6,48.9z"/>
	<path fill="#2E368F" d="M29.6,49.2c-1.8-0.4-3.7-2.5-4.7-4.4c-0.8,0.7-1.6,1.4-2.7,2.1c-2.5,1.7-5.8,2.3-5.9,2.3
		c-0.1,0-0.3-0.2-0.3-0.3c0-0.1,0,0.1,0,0c0-0.1,0.2-2.6,1.9-4.8c0.8-1.1,1.8-1.9,2.8-2.4c0.7-0.3,1.6-0.5,2.4-0.5
		c1.2,0,2.3,0.3,3.1,0.9c0.4,0.2,0.9,0.6,1.2,1.1c0.7,0.8,1.1,1.8,1.5,2.8c0.3,0.7,0.5,1.5,0.8,2.5c0,0.2,0.1,0.3,0.1,0.5
		c0,0,0,0.1,0,0.1C29.8,49.1,29.7,49.2,29.6,49.2"/>
</g>
<path fill="#2E368F" d="M271.7,248.8c-0.2,0-0.5,0-0.7-0.1c-0.2,0-0.2-0.2-0.2-0.3c0-0.2,0.2-0.2,0.3-0.2c1.2,0.3,2.4-0.3,3-1.4
	c0.3-0.6,0.4-1.4,0.1-2.1c-0.2-0.7-0.7-1.2-1.3-1.6c-0.6-0.3-1.4-0.4-2.1-0.1c-0.7,0.2-1.2,0.7-1.6,1.3c-0.1,0.1-0.2,0.2-0.4,0.1
	c-0.1-0.1-0.2-0.2-0.1-0.4c0.4-0.8,1.1-1.4,1.9-1.6c0.8-0.3,1.7-0.2,2.5,0.2c0.8,0.4,1.4,1.1,1.6,1.9c0.3,0.8,0.2,1.7-0.2,2.5
	C274.1,248.2,272.9,248.8,271.7,248.8z"/>
<g>
	<g>
		<path fill="#2E368F" d="M264.1,257.8c-2.4,0-4.5-1.5-5.6-3.9c-0.4,0-0.8-0.3-1.1-0.8c-0.5-0.8-0.7-2.3-0.3-2.9
			c0.1-0.2,0.4-0.4,0.6-0.4c0,0,0,0,0,0c0.1-1.9,0.8-3.6,1.9-5c1.2-1.4,2.8-2.2,4.6-2.2c1.7,0,3.3,0.8,4.6,2.2
			c1.1,1.3,1.8,3.1,1.9,5c0,0,0,0,0,0c0.2,0,0.8,0.1,0.8,1.3c0,1.2-0.6,2.8-1.6,2.9C268.6,256.3,266.5,257.8,264.1,257.8z
			 M258.7,253.3c0.1,0,0.2,0.1,0.3,0.2c1,2.3,3,3.8,5.2,3.8c2.2,0,4.2-1.4,5.2-3.8c0.1-0.1,0.2-0.2,0.3-0.2c0,0,0,0,0.1,0l0,0
			c0.6,0,1.1-1.3,1.1-2.3c0-0.4-0.1-0.7-0.3-0.7c0,0-0.1,0-0.2,0c-0.1,0-0.2,0-0.3,0s-0.1-0.1-0.1-0.2c0-3.8-2.7-7-5.9-7
			c-3.2,0-5.9,3.1-5.9,7c0,0.1,0,0.2-0.1,0.2s-0.2,0.1-0.3,0c-0.1,0-0.1,0-0.2,0c0,0-0.1,0-0.1,0.1c-0.2,0.4-0.1,1.6,0.3,2.4
			c0.1,0.2,0.4,0.6,0.7,0.6C258.6,253.3,258.6,253.3,258.7,253.3C258.6,253.3,258.6,253.3,258.7,253.3z"/>
	</g>
</g>
<g>
	<g>
		<path fill="#2E368F" d="M270.3,250.1c-1.7-0.3-3.4-2.4-4.3-4.1c-0.8,0.8-1.7,1.4-2.6,2.1c-2.3,1.6-5.3,2-5.3,2s0.2-2.3,1.7-4.3
			c0.6-0.9,1.5-1.7,2.5-2.2c1.5-0.7,3.5-0.6,4.9,0.3c0.4,0.2,0.8,0.6,1.1,0.9c0.6,0.7,1,1.7,1.3,2.5c0.3,0.7,0.5,1.5,0.7,2.3
			C270.2,249.8,270.2,249.9,270.3,250.1z"/>
		<path fill="#2E368F" d="M270.3,250.4c-1.6-0.3-2.8-1.4-3.8-3.2c-0.7,2.1-4.8,2.9-5.7,2.4c-2.3,1.6-2.7,0.7-2.8,0.7
			c-0.1,0-0.2-0.2-0.2-0.3c0-0.1,0,0.1,0,0c0-0.1,0.2-2.4,1.7-4.4c0.7-1,1.6-1.8,2.6-2.2c0.7-0.3,1.4-0.5,2.2-0.5
			c1.1,0,2.1,0.3,2.9,0.8c0.3,0.2,0.8,0.6,1.1,1c0.6,0.8,1,1.7,1.4,2.6c0.3,0.7,0.5,1.4,0.7,2.3c0,0.2,0.1,0.3,0.1,0.4
			c0,0,0,0,0,0.1C270.5,250.2,270.4,250.4,270.3,250.4"/>
	</g>
</g>
<g>
	<g>
		<path fill="#2E368F" d="M258.8,250.2c-1.3,0-2.4-0.8-3-2.1c-0.2,0-0.4-0.2-0.6-0.4c-0.3-0.4-0.4-1.2-0.2-1.6
			c0.1-0.1,0.2-0.2,0.3-0.2c0,0,0,0,0,0c0-1,0.4-1.9,1-2.6c0.6-0.8,1.5-1.2,2.4-1.2c0.9,0,1.8,0.4,2.4,1.2c0.6,0.7,1,1.6,1,2.6
			c0,0,0,0,0,0c0.1,0,0.4,0,0.4,0.7c0,0.6-0.3,1.5-0.9,1.5C261.2,249.4,260.1,250.2,258.8,250.2z M255.9,247.8c0.1,0,0.1,0,0.1,0.1
			c0.5,1.2,1.6,2,2.8,2c1.2,0,2.2-0.8,2.8-2c0-0.1,0.1-0.1,0.2-0.1c0,0,0,0,0,0l0,0c0.3,0,0.6-0.7,0.6-1.2c0-0.2-0.1-0.4-0.1-0.4
			c0,0-0.1,0-0.1,0c0,0-0.1,0-0.1,0c0,0-0.1-0.1-0.1-0.1c0-2-1.4-3.7-3.1-3.7c-1.7,0-3.1,1.7-3.1,3.7c0,0,0,0.1-0.1,0.1
			c0,0-0.1,0-0.1,0c0,0-0.1,0-0.1,0c0,0,0,0-0.1,0.1c-0.1,0.2-0.1,0.8,0.2,1.3C255.6,247.6,255.7,247.8,255.9,247.8
			C255.9,247.8,255.9,247.8,255.9,247.8C255.9,247.8,255.9,247.8,255.9,247.8z"/>
	</g>
	<g>
		<path fill="#2E368F" d="M262.1,246.1c-0.9-0.2-1.8-1.3-2.3-2.2c-0.4,0.4-0.9,0.8-1.4,1.1c-1.2,0.8-2.8,1.1-2.8,1.1
			s0.1-1.2,0.9-2.3c0.3-0.5,0.8-0.9,1.3-1.2c0.8-0.4,1.9-0.3,2.6,0.2c0.2,0.1,0.4,0.3,0.6,0.5c0.3,0.4,0.5,0.9,0.7,1.3
			c0.2,0.4,0.3,0.8,0.4,1.2C262.1,245.9,262.1,246,262.1,246.1z"/>
		<path fill="#2E368F" d="M262.1,246.2c-0.9-0.2-1.5-0.8-2-1.7c-0.4,1.1-2.5,1.5-3,1.3c-1.2,0.8-1.4,0.4-1.5,0.4
			c0,0-0.1-0.1-0.1-0.2c0,0,0,0,0,0c0-0.1,0.1-1.3,0.9-2.4c0.4-0.5,0.9-1,1.4-1.2c0.4-0.2,0.8-0.3,1.2-0.3c0.6,0,1.1,0.2,1.5,0.4
			c0.2,0.1,0.4,0.3,0.6,0.5c0.3,0.4,0.5,0.9,0.7,1.4c0.1,0.4,0.3,0.7,0.4,1.2c0,0.1,0,0.2,0,0.2c0,0,0,0,0,0
			C262.2,246.2,262.2,246.2,262.1,246.2"/>
	</g>
</g>
<g>
	<g>
		<path fill="#2E368F" d="M262.1,245.7c-0.9,0-1.8-0.6-2.2-1.6c-0.2,0-0.3-0.1-0.4-0.3c-0.2-0.3-0.3-0.9-0.1-1.2
			c0.1-0.1,0.1-0.2,0.2-0.2c0,0,0,0,0,0c0-0.7,0.3-1.4,0.8-2c0.5-0.6,1.1-0.9,1.8-0.9c0.7,0,1.3,0.3,1.8,0.9c0.5,0.5,0.7,1.2,0.8,2
			c0,0,0,0,0,0c0.1,0,0.3,0,0.3,0.5c0,0.5-0.2,1.1-0.6,1.1C263.9,245.1,263.1,245.7,262.1,245.7z M260,243.9c0,0,0.1,0,0.1,0.1
			c0.4,0.9,1.2,1.5,2.1,1.5c0.9,0,1.7-0.6,2.1-1.5c0,0,0.1-0.1,0.1-0.1c0,0,0,0,0,0l0,0c0.2,0,0.4-0.5,0.4-0.9c0-0.2,0-0.3-0.1-0.3
			c0,0,0,0-0.1,0c0,0-0.1,0-0.1,0c0,0-0.1-0.1-0.1-0.1c0-1.5-1.1-2.8-2.3-2.8c-1.3,0-2.3,1.2-2.3,2.8c0,0,0,0.1-0.1,0.1
			c0,0-0.1,0-0.1,0c0,0,0,0-0.1,0c0,0,0,0-0.1,0c-0.1,0.2-0.1,0.6,0.1,0.9C259.7,243.8,259.8,243.9,260,243.9
			C259.9,243.9,259.9,243.9,260,243.9C259.9,243.9,259.9,243.9,260,243.9z"/>
	</g>
	<g>
		<path fill="#2E368F" d="M264.6,242.6c-0.7-0.1-1.4-1-1.7-1.6c-0.3,0.3-0.7,0.6-1.1,0.8c-0.9,0.6-2.1,0.8-2.1,0.8s0.1-0.9,0.7-1.7
			c0.3-0.3,0.6-0.7,1-0.9c0.6-0.3,1.4-0.2,2,0.1c0.1,0.1,0.3,0.2,0.4,0.4c0.2,0.3,0.4,0.7,0.5,1c0.1,0.3,0.2,0.6,0.3,0.9
			C264.5,242.5,264.6,242.6,264.6,242.6z"/>
		<path fill="#2E368F" d="M264.6,242.7c-0.6-0.1-1.1-0.6-1.5-1.3c-0.3,0.8-1.9,1.1-2.3,1c-0.9,0.6-1.1,0.3-1.1,0.3
			c0,0-0.1-0.1-0.1-0.1c0,0,0,0,0,0c0,0,0.1-0.9,0.7-1.8c0.3-0.4,0.7-0.7,1-0.9c0.3-0.1,0.6-0.2,0.9-0.2c0.4,0,0.8,0.1,1.2,0.3
			c0.1,0.1,0.3,0.2,0.4,0.4c0.2,0.3,0.4,0.7,0.5,1c0.1,0.3,0.2,0.6,0.3,0.9c0,0.1,0,0.1,0,0.2c0,0,0,0,0,0
			C264.7,242.7,264.6,242.7,264.6,242.7"/>
	</g>
</g>
<g>
	<g>
		<path fill="#2E368F" d="M151.1,247.1c-0.3,0-0.5,0-0.8-0.1c-0.2,0-0.3-0.2-0.2-0.4c0-0.2,0.2-0.3,0.4-0.2c1.3,0.3,2.6-0.3,3.2-1.5
			c0.3-0.7,0.4-1.5,0.2-2.2c-0.2-0.7-0.8-1.3-1.4-1.7c-0.7-0.3-1.5-0.4-2.2-0.2c-0.7,0.2-1.3,0.8-1.7,1.4c-0.1,0.1-0.3,0.2-0.4,0.1
			c-0.1-0.1-0.2-0.3-0.1-0.4c0.4-0.8,1.1-1.4,2-1.7c0.9-0.3,1.8-0.2,2.7,0.2c0.8,0.4,1.4,1.1,1.7,2c0.3,0.9,0.2,1.8-0.2,2.7
			C153.6,246.4,152.4,247.1,151.1,247.1z"/>
		<g>
			<path fill="#2E368F" d="M142.9,256.7c-2.5,0-4.8-1.6-6.1-4.2c-0.4,0-0.9-0.3-1.2-0.9c-0.5-0.9-0.8-2.4-0.4-3.1
				c0.2-0.3,0.4-0.4,0.7-0.4c0,0,0,0,0,0c0.1-2,0.8-3.9,2-5.3c1.3-1.5,3-2.4,4.9-2.4c1.8,0,3.6,0.8,4.9,2.4c1.2,1.4,1.9,3.3,2,5.3
				c0,0,0,0,0,0c0.2,0,0.9,0.1,0.9,1.4c0,1.3-0.7,3-1.7,3.1C147.8,255.1,145.5,256.7,142.9,256.7z M137.1,251.9
				c0.1,0,0.2,0.1,0.3,0.2c1.1,2.5,3.2,4,5.6,4c2.3,0,4.5-1.5,5.6-4c0.1-0.1,0.2-0.2,0.3-0.2c0,0,0,0,0.1,0l0,0
				c0.6,0,1.2-1.4,1.2-2.5c0-0.5-0.1-0.8-0.3-0.8c0,0-0.1,0-0.2,0c-0.1,0-0.2,0-0.3,0c-0.1-0.1-0.1-0.1-0.1-0.2
				c0-4.1-2.9-7.5-6.3-7.5c-3.4,0-6.3,3.3-6.3,7.5c0,0.1-0.1,0.2-0.1,0.2c-0.1,0.1-0.2,0.1-0.3,0c-0.1,0-0.1,0-0.2,0
				c0,0-0.1,0-0.1,0.1c-0.3,0.4-0.1,1.7,0.4,2.5c0.1,0.2,0.4,0.6,0.7,0.6C137,251.9,137,251.9,137.1,251.9
				C137.1,251.9,137.1,251.9,137.1,251.9z"/>
		</g>
		<g>
			<path fill="#2E368F" d="M149.5,248.4c-1.8-0.4-3.6-2.6-4.6-4.4c-0.9,0.8-1.8,1.6-2.8,2.2c-2.5,1.7-5.7,2.2-5.7,2.2
				s0.2-2.5,1.8-4.6c0.7-0.9,1.6-1.8,2.7-2.3c1.6-0.8,3.8-0.6,5.3,0.4c0.4,0.3,0.8,0.6,1.1,1c0.6,0.8,1.1,1.8,1.4,2.7
				c0.3,0.8,0.5,1.6,0.7,2.4C149.5,248.1,149.5,248.3,149.5,248.4z"/>
			<path fill="#2E368F" d="M149.5,248.7c-1.7-0.4-3.6-2.5-4.7-4.3c-0.7,0.7-1.6,1.3-2.6,2c-2.5,1.7-5.7,2.3-5.8,2.3
				c-0.1,0-0.3-0.2-0.2-0.3c0-0.1,0,0.1,0,0c0-0.1,0.2-2.5,1.8-4.8c0.8-1,1.8-1.9,2.8-2.4c0.7-0.3,1.5-0.5,2.4-0.5
				c1.1,0,2.2,0.3,3.1,0.9c0.4,0.2,0.8,0.6,1.2,1.1c0.6,0.8,1.1,1.8,1.5,2.8c0.3,0.7,0.5,1.5,0.7,2.5c0,0.2,0.1,0.3,0.1,0.5
				c0,0,0,0,0,0.1C149.8,248.6,149.7,248.7,149.5,248.7"/>
		</g>
	</g>
</g>
<path fill="#2E368F" stroke="#2E368F" stroke-width="0.5" stroke-miterlimit="10" d="M151.4,243.5l1.2-1.2c0,0,0-0.1,0-0.1
	c0,0-0.1,0-0.1,0L151.4,243.5l-1.3-1.3c0,0-0.1,0-0.1,0c0,0,0,0.1,0,0.1l1.2,1.2l-1.2,1.2c0,0,0,0.1,0,0.1c0,0,0,0,0,0s0,0,0,0
	L151.4,243.5l1.1,1.3c0,0,0,0,0,0s0,0,0,0c0,0,0-0.1,0-0.1L151.4,243.5z"/>
<g>
	<g>
		<path fill="#2E368F" stroke="#2E368F" stroke-width="0.15" stroke-miterlimit="10" d="M193.2,241.2l-1.4-1.4
			c-0.4-0.4-1.1-0.4-1.5,0l-7.8,7.7l-1.6,4.5l4.5-1.6l7.8-7.7C193.6,242.3,193.6,241.6,193.2,241.2z M182.3,249.9l0.7-1.8l1.8,1.8
			l-1.8,0.6L182.3,249.9z M183.7,248.2l6.1-6.1l0.4,0.4l-6.1,6.1L183.7,248.2z M183.5,248.1l-0.3-0.4l6.1-6.1l0.3,0.4L183.5,248.1z
			 M184.2,248.8l6.1-6.1l0.4,0.4l-6.1,6.1L184.2,248.8z M189.6,241.3l0.2-0.2l2,2l-0.2,0.2L189.6,241.3z M185.2,249.7l-0.3-0.4
			l6.1-6.1l0.3,0.4L185.2,249.7z M192.7,242.2l-0.6,0.6l-2-2l0.6-0.6c0.2-0.2,0.4-0.2,0.6,0l1.4,1.4
			C192.9,241.8,192.9,242.1,192.7,242.2z"/>
	</g>
</g>
<circle fill="#2E368F" cx="224.9" cy="248.5" r="9.1"/>
<path fill="#FFFFFF" stroke="#FFFFFF" stroke-miterlimit="10" d="M225.6,248.4l3.9-3.9c0.1-0.1,0.1-0.2,0-0.3
	c-0.1-0.1-0.2-0.1-0.3,0l-3.9,3.9l-3.9-3.9c-0.1-0.1-0.2-0.1-0.3,0c-0.1,0.1-0.1,0.2,0,0.3l3.9,3.9l-3.9,3.9c-0.1,0.1-0.1,0.2,0,0.3
	c0,0,0.1,0.1,0.2,0.1c0.1,0,0.1,0,0.2-0.1l3.9-3.9l3.9,3.9c0,0,0.1,0.1,0.2,0.1c0.1,0,0.1,0,0.2-0.1c0.1-0.1,0.1-0.2,0-0.3
	L225.6,248.4z"/>
<polygon fill="#2E368F" points="269.9,245 271.3,244.1 271.3,244 269.5,245 271.3,246 271.3,245.8 "/>
<path fill="#2E368F" d="M272,244.6l0-0.6l-1.7,1l1.7,1l0-0.6c1.8,0,2,1.3,2,1.3C274,245.1,272.5,244.7,272,244.6z"/>
<path fill="#2E368F" stroke="#2E368F" stroke-width="0.95" stroke-miterlimit="10" d="M265.2,203.3c-1.7,0-3.3,0.7-4.3,2v-1.6
	c0-0.1-0.1-0.2-0.2-0.2s-0.2,0.1-0.2,0.2v2.1c0,0,0,0,0,0c0,0,0,0,0,0c0,0,0,0,0,0c0,0,0,0,0,0c0,0,0,0,0,0c0,0,0,0,0,0c0,0,0,0,0,0
	c0,0,0,0,0,0c0,0,0,0,0,0c0,0,0,0,0,0h2.1c0.1,0,0.2-0.1,0.2-0.2s-0.1-0.2-0.2-0.2H261c1-1.2,2.5-2,4.1-2c2.9,0,5.3,2.4,5.3,5.3
	s-2.4,5.3-5.3,5.3c-1.1,0-2.2-0.3-3.1-1c-0.1-0.1-0.2,0-0.3,0c-0.1,0.1,0,0.2,0,0.3c1,0.7,2.1,1,3.3,1c3.2,0,5.7-2.6,5.7-5.7
	C270.9,205.8,268.3,203.3,265.2,203.3z"/>
<path fill="#2E368F" d="M271,47.5c-0.3,0-0.5,0-0.8-0.1c-0.2,0-0.3-0.2-0.2-0.4c0-0.2,0.2-0.3,0.4-0.2c1.3,0.3,2.6-0.3,3.2-1.5
	c0.3-0.7,0.4-1.5,0.2-2.2c-0.2-0.7-0.8-1.3-1.4-1.7c-0.7-0.3-1.5-0.4-2.2-0.2c-0.7,0.2-1.3,0.8-1.7,1.4c-0.1,0.1-0.3,0.2-0.4,0.1
	c-0.1-0.1-0.2-0.3-0.1-0.4c0.4-0.8,1.1-1.4,2-1.7c0.9-0.3,1.8-0.2,2.7,0.2c0.8,0.4,1.4,1.1,1.7,2c0.3,0.9,0.2,1.8-0.2,2.7
	C273.5,46.7,272.2,47.5,271,47.5z"/>
<g>
	<path fill="#2E368F" d="M262.8,57.1c-2.5,0-4.8-1.6-6.1-4.2c-0.4,0-0.9-0.3-1.2-0.9c-0.5-0.9-0.8-2.4-0.4-3.1
		c0.2-0.3,0.4-0.4,0.7-0.4c0,0,0,0,0,0c0.1-2,0.8-3.9,2-5.3c1.3-1.5,3-2.4,4.9-2.4c1.8,0,3.6,0.8,4.9,2.4c1.2,1.4,1.9,3.3,2,5.3
		c0,0,0,0,0,0c0.2,0,0.9,0.1,0.9,1.4c0,1.3-0.7,3-1.7,3.1C267.6,55.5,265.3,57.1,262.8,57.1z M257,52.3c0.1,0,0.2,0.1,0.3,0.2
		c1.1,2.5,3.2,4,5.6,4c2.3,0,4.5-1.5,5.6-4c0.1-0.1,0.2-0.2,0.3-0.2c0,0,0,0,0.1,0l0,0c0.6,0,1.2-1.4,1.2-2.5c0-0.5-0.1-0.8-0.3-0.8
		c0,0-0.1,0-0.2,0c-0.1,0-0.2,0-0.3,0c-0.1-0.1-0.1-0.1-0.1-0.2c0-4.1-2.9-7.5-6.3-7.5c-3.4,0-6.3,3.3-6.3,7.5
		c0,0.1-0.1,0.2-0.1,0.2c-0.1,0.1-0.2,0.1-0.3,0c-0.1,0-0.1,0-0.2,0c0,0-0.1,0-0.1,0.1c-0.3,0.4-0.1,1.7,0.4,2.5
		c0.1,0.2,0.4,0.6,0.7,0.6C256.9,52.3,256.9,52.3,257,52.3C256.9,52.3,256.9,52.3,257,52.3z"/>
</g>
<g>
	<path fill="#2E368F" d="M269.4,48.8c-1.8-0.4-3.6-2.6-4.6-4.4c-0.9,0.8-1.8,1.6-2.8,2.2c-2.5,1.7-5.7,2.2-5.7,2.2s0.2-2.5,1.8-4.6
		c0.7-0.9,1.6-1.8,2.7-2.3c1.6-0.8,3.8-0.6,5.3,0.4c0.4,0.3,0.8,0.6,1.1,1c0.6,0.8,1.1,1.8,1.4,2.7c0.3,0.8,0.5,1.6,0.7,2.4
		C269.3,48.5,269.4,48.7,269.4,48.8z"/>
	<path fill="#2E368F" d="M269.4,49.1c-1.7-0.4-3.6-2.5-4.7-4.3c-0.7,0.7-1.6,1.3-2.6,2c-2.5,1.7-5.7,2.3-5.8,2.3
		c-0.1,0-0.3-0.2-0.2-0.3c0-0.1,0,0.1,0,0c0-0.1,0.2-2.5,1.8-4.8c0.8-1,1.8-1.9,2.8-2.4c0.7-0.3,1.5-0.5,2.4-0.5
		c1.1,0,2.2,0.3,3.1,0.9c0.4,0.2,0.8,0.6,1.2,1.1c0.6,0.8,1.1,1.8,1.5,2.8c0.3,0.7,0.5,1.5,0.7,2.5c0,0.2,0.1,0.3,0.1,0.5
		c0,0,0,0,0,0.1C269.6,49,269.5,49.1,269.4,49.1"/>
</g>
<rect x="270.9" y="42" transform="matrix(0.5406 0.8413 -0.8413 0.5406 161.4719 -207.7631)" fill="none" stroke="#2E368F" stroke-width="0.5" stroke-miterlimit="10" width="0.2" height="3.9"/>
<path fill="none" stroke="#2E368F" stroke-width="0.5" stroke-miterlimit="10" d="M271,42c-1.1,0-2,0.9-2,2l0,0c0,1.1,0.9,2,2,2
	s2-0.9,2-2l0,0C273,42.9,272.1,42,271,42L271,42L271,42z"/>
<path fill="#2E368F" d="M185,41.4c-0.1,0-0.1,0-0.2,0.1L177.6,53c-0.1,0.2,0,0.3,0.2,0.3h14.4c0.2,0,0.3-0.1,0.2-0.3l-7.2-11.5
	C185.2,41.4,185.1,41.4,185,41.4L185,41.4z"/>
<path fill="#2E368F" stroke="#2E368F" stroke-width="0.5" stroke-miterlimit="10" d="M135.9,41.1v14.4c0,0.9,0.6,1.6,1.4,1.6h15.5
	c0.8,0,1.4-0.7,1.4-1.6V41.1c0-0.9-0.6-1.6-1.4-1.6h-15.5C136.5,39.5,135.9,40.2,135.9,41.1z M136.7,41.1c0-0.4,0.3-0.7,0.6-0.7
	h15.5c0.3,0,0.6,0.3,0.6,0.7v14.4c0,0.4-0.3,0.7-0.6,0.7h-15.5c-0.3,0-0.6-0.3-0.6-0.7V41.1z"/>
<path fill="#2E368F" stroke="#2E368F" stroke-miterlimit="10" d="M145,44.3c-0.1-0.1-0.2-0.1-0.3,0c-0.1,0.1-0.1,0.2,0,0.3l3.9,3.9
	l-3.9,3.9c-0.1,0.1-0.1,0.2,0,0.3c0.1,0.1,0.2,0.1,0.3,0l4-4c0,0,0.1-0.1,0.1-0.2s0-0.1-0.1-0.2L145,44.3z"/>
<path fill="#2E368F" stroke="#2E368F" stroke-miterlimit="10" d="M142,44.5c-0.1-0.1-0.2-0.1-0.3,0c-0.1,0.1-0.1,0.2,0,0.3l3.9,3.9
	l-3.9,3.9c-0.1,0.1-0.1,0.2,0,0.3c0.1,0.1,0.2,0.1,0.3,0l4-4c0,0,0.1-0.1,0.1-0.2s0-0.1-0.1-0.2L142,44.5z"/>
<path fill="#2E368F" stroke="#2E368F" stroke-width="0.5" stroke-miterlimit="10" d="M95.8,41.1v14.4c0,0.9,0.6,1.6,1.4,1.6h15.5
	c0.8,0,1.4-0.7,1.4-1.6V41.1c0-0.9-0.6-1.6-1.4-1.6H97.2C96.4,39.5,95.8,40.2,95.8,41.1z M96.5,41.1c0-0.4,0.3-0.7,0.6-0.7h15.5
	c0.3,0,0.6,0.3,0.6,0.7v14.4c0,0.4-0.3,0.7-0.6,0.7H97.2c-0.3,0-0.6-0.3-0.6-0.7V41.1z"/>
<g>
	<path fill="#2E368F" stroke="#2E368F" stroke-miterlimit="10" d="M105.6,44.3c0.1-0.1,0.2-0.1,0.3,0s0.1,0.2,0,0.3l-3.9,3.9
		l3.9,3.9c0.1,0.1,0.1,0.2,0,0.3c-0.1,0.1-0.2,0.1-0.3,0l-4-4c0,0-0.1-0.1-0.1-0.2s0-0.1,0.1-0.2L105.6,44.3z"/>
	<path fill="#2E368F" stroke="#2E368F" stroke-miterlimit="10" d="M108.5,44.5c0.1-0.1,0.2-0.1,0.3,0s0.1,0.2,0,0.3l-3.9,3.9
		l3.9,3.9c0.1,0.1,0.1,0.2,0,0.3c-0.1,0.1-0.2,0.1-0.3,0l-4-4c0,0-0.1-0.1-0.1-0.2s0-0.1,0.1-0.2L108.5,44.5z"/>
</g>
<path fill="#2E368F" d="M229.8,48l-2.8,0.9l1.8,2.4c0.5,0.6,0.3,1.5-0.3,1.9c-0.3,0.2-0.5,0.3-0.8,0.3c-0.4,0-0.9-0.2-1.1-0.6
	l-1.8-2.4l-1.8,2.4c-0.3,0.4-0.7,0.6-1.1,0.6c-0.3,0-0.6-0.1-0.8-0.3c-0.6-0.5-0.8-1.3-0.3-1.9l1.8-2.4l-2.9-0.9
	c-0.7-0.2-1.1-1-0.9-1.8c0.2-0.7,1-1.1,1.8-0.9l2.9,0.9v-3c0-0.8,0.6-1.4,1.4-1.4c0.8,0,1.4,0.6,1.4,1.4v3l2.9-0.9
	c0.7-0.2,1.5,0.2,1.8,0.9C230.9,47,230.5,47.7,229.8,48z"/>
<path fill="#2E368F" stroke="#2E368F" stroke-width="0.5" stroke-miterlimit="10" d="M70.9,47.2c1.5-1.6,1.5-4.1-0.1-5.7
	c-0.8-0.8-1.8-1.2-2.9-1.2c-1.1,0-2.1,0.4-2.9,1.2L61.6,45c-0.2,0.2-0.2,0.5,0,0.7c0.1,0.1,0.2,0.1,0.3,0.1c0.1,0,0.2,0,0.3-0.1
	l3.4-3.4c1.2-1.2,3.2-1.2,4.3,0c1.2,1.2,1.2,3.2,0,4.3l-8.5,8.5c-0.8,0.8-2.1,0.8-2.9,0c-0.8-0.8-0.8-2.1,0-2.9l6.9-6.9l0,0
	c0.4-0.4,1-0.4,1.4,0c0.2,0.2,0.3,0.4,0.3,0.7s-0.1,0.5-0.3,0.7l-6,6c-0.2,0.2-0.2,0.5,0,0.7c0.1,0.1,0.2,0.1,0.3,0.1s0.2,0,0.3-0.1
	l6-6c0.4-0.4,0.6-0.9,0.6-1.4c0-0.5-0.2-1-0.6-1.4c-0.7-0.7-1.9-0.8-2.7-0.1c0,0,0,0,0,0l-7,7c-1.2,1.2-1.2,3.1,0,4.2
	c0.6,0.6,1.4,0.9,2.1,0.9c0.8,0,1.5-0.3,2.1-0.9L70.9,47.2L70.9,47.2L70.9,47.2L70.9,47.2C70.9,47.2,70.9,47.2,70.9,47.2z"/>
<title>interface_004-information-detail-window-application</title>
<desc>Created with Sketch.</desc>
<path fill="#2E368F" stroke="#2E368F" stroke-width="0.5" stroke-miterlimit="10" d="M-45.3,58L-45.3,58l0-13.6
	c-0.3,0.2-0.5,0.5-0.8,0.7l0,12.1h-18.1V43.9h11.1c0.3-0.4,0.7-0.8,1-1.2c0.3-0.4,0.8-0.2,0.9,0.2c0.1,0,0.1,0.1,0.2,0.1
	c0,0,0,0,0,0c1.4,0,2.7,0,4.1,0c0,0,0-0.1,0.1-0.1c-0.1-0.1-0.1-0.3,0-0.5c0.1-0.3,0.3-0.5,0.4-0.8c-0.3,0-0.6-0.1-0.6-0.5
	c0-0.1-0.1-0.4,0-0.5c0,0-0.1,0.4-0.1,0.4c-0.1,0-0.2-0.2-0.3-0.2c-0.1,0-0.1-0.1-0.3,0c-0.2,0.1-0.4,0.3-0.5,0.4c0,0,0,0,0,0
	c0,0-0.1,0.1-0.1,0.1c-0.2,0.1-0.4,0.1-0.5,0c-0.1,0.1-0.2,0.2-0.3,0.4c-0.5,0.5-1.2-0.2-0.7-0.7c0.3-0.3,0.6-0.7,0.9-1H-65V58h19.2
	l0,0C-45.6,58-45.4,58-45.3,58L-45.3,58L-45.3,58z"/>
<rect x="-64.2" y="40.7" fill="#FFFFFF" width="18.1" height="2.4"/>
<rect x="-63.4" y="41.5" fill="#2E368F" stroke="#2E368F" stroke-width="0.5" stroke-miterlimit="10" width="0.8" height="0.8"/>
<rect x="-61.8" y="41.5" fill="#2E368F" stroke="#2E368F" stroke-width="0.5" stroke-miterlimit="10" width="0.8" height="0.8"/>
<rect x="-60.2" y="41.5" fill="#2E368F" stroke="#2E368F" stroke-width="0.5" stroke-miterlimit="10" width="0.8" height="0.8"/>
<path fill="#2E368F" stroke="#2E368F" stroke-width="0.5" stroke-miterlimit="10" d="M-5.3,58L-5.3,58l0-13.6
	c-0.3,0.2-0.5,0.5-0.8,0.7l0,12.1h-18.1V43.9h11.1c0.3-0.4,0.7-0.8,1-1.2c0.3-0.4,0.8-0.2,0.9,0.2c0.1,0,0.1,0.1,0.2,0.1
	c0,0,0,0,0,0c1.4,0,2.7,0,4.1,0c0,0,0-0.1,0.1-0.1c-0.1-0.1-0.1-0.3,0-0.5c0.1-0.3,0.3-0.5,0.4-0.8c-0.3,0-0.6-0.1-0.6-0.5
	c0-0.1-0.1-0.4,0-0.5c0,0-0.1,0.4-0.1,0.4c-0.1,0-0.2-0.2-0.3-0.2c-0.1,0-0.1-0.1-0.3,0C-8,41-8.2,41.1-8.3,41.3c0,0,0,0,0,0
	c0,0-0.1,0.1-0.1,0.1c-0.2,0.1-0.4,0.1-0.5,0c-0.1,0.1-0.2,0.2-0.3,0.4c-0.5,0.5-1.2-0.2-0.7-0.7c0.3-0.3,0.6-0.7,0.9-1H-25V58h19.2
	l0,0C-5.6,58-5.4,58-5.3,58L-5.3,58L-5.3,58z"/>
<rect x="-24.2" y="40.7" fill="#FFFFFF" width="18.1" height="2.4"/>
<rect x="-21.8" y="41.5" fill="#2E368F" stroke="#2E368F" stroke-width="0.5" stroke-miterlimit="10" width="0.8" height="0.8"/>
<rect x="-23.4" y="41.5" fill="#2E368F" stroke="#2E368F" stroke-width="0.5" stroke-miterlimit="10" width="0.8" height="0.8"/>
<rect x="-20.2" y="41.5" fill="#2E368F" stroke="#2E368F" stroke-width="0.5" stroke-miterlimit="10" width="0.8" height="0.8"/>
<g>
	<path fill="#2E368F" d="M33,42.2c0.2,0.2,0.2,0.5,0,0.7l-0.2,0.2l-0.7-0.7l0.2-0.2C32.5,42,32.8,42,33,42.2z"/>
	<polygon fill="#2E368F" points="29.6,44.8 29.4,45.7 30.3,45.5 32.5,43.3 31.9,42.6 	"/>
</g>
<rect x="-51.5" y="42.3" fill="#FFFFFF" width="5" height="1.6"/>
<g>
	<path fill="#2E368F" stroke="#2E368F" stroke-width="0.15" stroke-miterlimit="10" d="M-45.6,41.8l-1.4-1.3
		c-0.4-0.4-1.1-0.3-1.4,0.1l-7.2,8.1l-1.4,4.5l4.3-1.8l7.2-8.1C-45.2,42.9-45.2,42.2-45.6,41.8z M-55.8,51.1l0.5-1.8l1.9,1.7
		l-1.7,0.7L-55.8,51.1z M-54.6,49.3l5.7-6.4l0.4,0.4l-5.7,6.4L-54.6,49.3z M-54.8,49.2l-0.4-0.3l5.7-6.4l0.4,0.3L-54.8,49.2z
		 M-54,49.9l5.7-6.4l0.4,0.4l-5.7,6.4L-54,49.9z M-49.1,42.2l0.2-0.2l2.1,1.9l-0.2,0.2L-49.1,42.2z M-53.1,50.7l-0.4-0.3l5.7-6.4
		l0.4,0.3L-53.1,50.7z M-46,42.9l-0.6,0.6l-2.1-1.9l0.6-0.6c0.1-0.2,0.4-0.2,0.6,0l1.4,1.3C-45.9,42.4-45.9,42.7-46,42.9z"/>
</g>
<path fill="#FFFFFF" d="M-7.8,40c0,0-0.8,0.9-0.9,1c-0.1,0-2.5,1.2-2.5,1.2s-0.7-0.1-0.7,0.1s0.3,3.6,0.3,3.6l1.3,2.2
	c0,0,2.1-2.1,2.2-2.2c0.1-0.1,2.8-2.2,2.8-2.2L-6.9,41L-7.8,40z"/>
<g>
	<path fill="#2E368F" stroke="#2E368F" stroke-width="0.15" stroke-miterlimit="10" d="M-5.8,40.9c0.6,0.6,0.6,1.5,0,2.1l-0.7,0.7
		l-2.1-2.1l0.7-0.7C-7.3,40.3-6.4,40.3-5.8,40.9z"/>
	<polygon fill="#2E368F" stroke="#2E368F" stroke-width="0.15" stroke-miterlimit="10" points="-16.2,49.2 -16.9,52 -14.1,51.3 
		-7.2,44.4 -9.3,42.3 	"/>
</g>
<path fill="#2E368F" stroke="#2E368F" stroke-width="0.75" stroke-miterlimit="10" d="M-122.3,171.2h-1.6v-1.6
	c0-0.1-0.1-0.2-0.2-0.2c-0.1,0-0.2,0.1-0.2,0.2v1.6h-1.6c-0.1,0-0.2,0.1-0.2,0.2c0,0.1,0.1,0.2,0.2,0.2h1.6v1.6
	c0,0.1,0.1,0.2,0.2,0.2c0.1,0,0.2-0.1,0.2-0.2v-1.6h1.6c0.1,0,0.2-0.1,0.2-0.2C-122.1,171.3-122.2,171.2-122.3,171.2z"/>
<path fill="#2E368F" stroke="#2E368F" stroke-width="0.75" stroke-miterlimit="10" d="M-124,139.3c-2.6,0-4.6,2.1-4.6,4.6
	c0,2.6,2.1,4.6,4.6,4.6s4.6-2.1,4.6-4.6C-119.4,141.3-121.4,139.3-124,139.3z M-124,148.1c-2.3,0-4.2-1.9-4.2-4.2
	c0-2.3,1.9-4.2,4.2-4.2s4.2,1.9,4.2,4.2C-119.8,146.2-121.7,148.1-124,148.1z"/>
<path fill="#2E368F" d="M-131.4,130.9V148h1.2v-15.9h7.2v5.3h5.3V148h1.2v-11.4l-5.7-5.7H-131.4z M-121.8,136.2v-3.3l3.3,3.3H-121.8
	z"/>
<path fill="#2E368F" stroke="#2E368F" stroke-width="0.75" stroke-miterlimit="10" d="M-124,9.2c-2.6,0-4.6,2.1-4.6,4.6
	c0,2.6,2.1,4.6,4.6,4.6s4.6-2.1,4.6-4.6C-119.4,11.3-121.5,9.2-124,9.2z M-124,18.1c-2.3,0-4.2-1.9-4.2-4.2c0-2.3,1.9-4.2,4.2-4.2
	c2.3,0,4.2,1.9,4.2,4.2C-119.8,16.2-121.7,18.1-124,18.1z"/>
<path fill="#2E368F" d="M-131.4,0.8v17.1h1.2V2h7.2v5.3h5.3v10.6h1.2V6.5l-5.7-5.7H-131.4z M-121.8,6.1V2.9l3.3,3.3H-121.8z"/>
<g>
	<g>
		<path fill="#2E368F" d="M-119.6,111.6c0.4,0.4,0.4,1,0,1.5l-0.5,0.5l-1.5-1.5l0.5-0.5C-120.6,111.2-120,111.2-119.6,111.6z"/>
		<polygon fill="#2E368F" points="-126.8,117.4 -127.3,119.4 -125.4,118.9 -120.5,114 -122,112.6 		"/>
	</g>
</g>
<path fill="#2E368F" d="M-131.4,102.5v17.1h1.2v-15.9h7.2v5.3h5.3v10.6h1.2v-11.4l-5.7-5.7H-131.4z M-121.8,107.9v-3.3l3.3,3.3
	H-121.8z"/>
<path fill="#2E368F" stroke="#2E368F" stroke-width="0.75" stroke-miterlimit="10" d="M-154.1,201.6c-2.6,0-4.6,2.1-4.6,4.6
	c0,2.6,2.1,4.6,4.6,4.6c2.6,0,4.6-2.1,4.6-4.6C-149.5,203.7-151.6,201.6-154.1,201.6z M-154.1,210.5c-2.3,0-4.2-1.9-4.2-4.2
	c0-2.3,1.9-4.2,4.2-4.2c2.3,0,4.2,1.9,4.2,4.2C-149.9,208.6-151.8,210.5-154.1,210.5z"/>
<path fill="#2E368F" stroke="#2E368F" stroke-width="0.75" stroke-miterlimit="10" d="M-152.4,206.1h-1.6v-1.6
	c0-0.1-0.1-0.2-0.2-0.2c-0.1,0-0.2,0.1-0.2,0.2v1.6h-1.6c-0.1,0-0.2,0.1-0.2,0.2s0.1,0.2,0.2,0.2h1.6v1.6c0,0.1,0.1,0.2,0.2,0.2
	c0.1,0,0.2-0.1,0.2-0.2v-1.6h1.6c0.1,0,0.2-0.1,0.2-0.2S-152.3,206.1-152.4,206.1z"/>
<rect x="299.5" y="130.4" fill="#2E368F" width="6" height="8.1"/>
<polygon fill="#2E368F" points="303.4,128.5 297.5,128.5 297.5,136.6 298.8,136.6 298.8,129.8 303.4,129.8 "/>
<polygon fill="#2E368F" points="301.5,126.4 295.5,126.4 295.5,134.6 296.8,134.6 296.8,127.7 301.5,127.7 "/>
<g>
</g>
<g>
</g>
<g>
</g>
<g>
</g>
<g>
</g>
<g>
</g>
<g>
</g>
<g>
</g>
<g>
</g>
<g>
</g>
<g>
</g>
<g>
</g>
<g>
</g>
<g>
</g>
<g>
</g>
<g>
</g>
<g>
</g>
<g>
</g>
<g>
</g>
<g>
</g>
<g>
</g>
<g>
</g>
<g>
</g>
<g>
</g>
<g>
</g>
<g>
</g>
<g>
</g>
<g>
</g>
<g>
</g>
<g>
</g>
<g>
	<g>
		<path fill="#2E368F" d="M-152.9,158c-5.2,0-9.3,4.2-9.3,9.3c0,5.2,4.2,9.3,9.3,9.3h9.3v-9.3C-143.5,162.2-147.7,158-152.9,158z
			 M-152.9,175c-4.2,0-7.6-3.4-7.6-7.6s3.4-7.6,7.6-7.6s7.6,3.4,7.6,7.6S-148.7,175-152.9,175z"/>
	</g>
	<path fill="#2E368F" d="M-149.1,166.7h-3.1v-3.1c0-0.4-0.3-0.7-0.7-0.7c-0.4,0-0.7,0.3-0.7,0.7v3.1h-3.1c-0.4,0-0.7,0.3-0.7,0.7
		s0.3,0.7,0.7,0.7h3.1v3.1c0,0.4,0.3,0.7,0.7,0.7c0.4,0,0.7-0.3,0.7-0.7v-3.1h3.1c0.4,0,0.7-0.3,0.7-0.7
		C-148.4,167-148.7,166.7-149.1,166.7z"/>
</g>
<path fill="#2E368F" d="M-145.7,200.9V198h-2.9v-1.4h-1.6v1.4h-8.2v-1.4h-1.6v1.4h-2.9v15.7h2.9v2.9h17.1v-15.7H-145.7z
	 M-161.4,212.4v-13h1.5v1.5h1.6v-1.5h8.2v1.5h1.6v-1.5h1.5v13H-161.4z M-144.1,215.4h-14.2v-1.6h12.6v-11.5h1.6V215.4z"/>
<path fill="#2E368F" d="M-146.2,231.7h-4.3c0-1.4-1.1-2.5-2.5-2.5c-1.4,0-2.5,1.1-2.5,2.5h-4.4v3h13.6V231.7z M-153,233
	c-0.7,0-1.2-0.6-1.2-1.2c0-0.7,0.6-1.2,1.2-1.2c0.7,0,1.2,0.6,1.2,1.2C-151.7,232.4-152.3,233-153,233z"/>
<g>
	<path fill="#2E368F" d="M-145.3,231.7v3.7h-15.3v-3.7h-1.1v17.4h17.4v-17.4H-145.3z M-145.2,248.2h-15.5v-11.7h15.5V248.2z"/>
	<rect x="-160.7" y="236.5" fill="#FFFFFF" width="15.5" height="11.7"/>
</g>
<path fill="#2E368F" stroke="#2E368F" stroke-width="0.75" stroke-miterlimit="10" d="M-150.6,240.4c-0.1-0.1-0.2-0.1-0.2,0
	l-3.6,3.6l-1.2-1.2c-0.1-0.1-0.2-0.1-0.2,0c-0.1,0.1-0.1,0.2,0,0.2l1.3,1.3c0,0,0.1,0,0.1,0s0.1,0,0.1,0l3.8-3.8
	C-150.5,240.6-150.5,240.5-150.6,240.4z"/>
<path fill="#2E368F" stroke="#2E368F" stroke-width="0.75" stroke-miterlimit="10" d="M-153.1,237.7c-2.6,0-4.6,2.1-4.6,4.6
	c0,2.6,2.1,4.6,4.6,4.6s4.6-2.1,4.6-4.6C-148.4,239.8-150.5,237.7-153.1,237.7z M-153.1,246.6c-2.3,0-4.2-1.9-4.2-4.2
	c0-2.3,1.9-4.2,4.2-4.2s4.2,1.9,4.2,4.2C-148.8,244.7-150.7,246.6-153.1,246.6z"/>
<path fill="#2E368F" d="M-189.7,230.3c-0.7,0-0.7,0-0.7,0.7v16.3c0,0.7,0,0.7,0.7,0.7s0.7,0,0.7-0.7V231
	C-188.9,230.3-188.9,230.3-189.7,230.3z"/>
<g>
	<path fill="#2E368F" d="M-172.6,230.6c-5.9-1.5-10.4,1.5-14.9,0v10c4.5,1.5,8.9-1.5,14.9,0l-3-5.2L-172.6,230.6z M-174.8,239.5
		c-4.5-1.1-7.9,1.1-11.3,0v-7.6c3.4,1.1,6.8-1.1,11.3,0l-2.3,3.7L-174.8,239.5z"/>
	<path fill="#FFFFFF" d="M-174.8,231.9c-4.5-1.1-7.9,1.1-11.3,0v7.6c3.4,1.1,6.8-1.1,11.3,0l-2.3-3.9L-174.8,231.9z"/>
</g>
<g>
	<path fill="#2E368F" stroke="#2E368F" stroke-miterlimit="10" d="M-214.1,247.9h-3c-0.9,0-1.7-0.7-1.7-1.7v-8.1
		c0-0.9,0.7-1.7,1.7-1.7h3V247.9z M-217.1,237c-0.6,0-1.1,0.5-1.1,1.1v8.1c0,0.6,0.5,1.1,1.1,1.1h2.5V237H-217.1z"/>
	<path fill="#2E368F" stroke="#2E368F" stroke-miterlimit="10" d="M-205.1,247.9h-9.5v-11.2l3.8-5.5c0.4-0.5,1-0.8,1.7-0.8h0.1
		c0.7,0,1.3,0.3,1.7,0.8c0.4,0.5,0.5,1.2,0.3,1.8l-1,3.5h5.1c0.7,0,1.5,0.4,1.9,1c0.6,0.8,0.7,1.8,0.3,3l-1.7,5.1
		C-202.8,246.4-204.1,247.9-205.1,247.9z M-214.1,247.3h9c0.7,0,1.8-1.2,2-2l1.7-5.1c0.3-0.9,0.3-1.8-0.2-2.5
		c-0.3-0.5-0.9-0.8-1.5-0.8h-5.7l1.2-4.2c0.1-0.5,0-1-0.2-1.4c-0.3-0.4-0.7-0.6-1.2-0.6h-0.1c-0.5,0-0.9,0.2-1.2,0.6l-3.8,5.4V247.3
		z"/>
</g>
<path fill="#2E368F" d="M-186.8,203.6l0.7-0.6l0.7,0.5l0-3.6h-1.3C-186.8,200-186.8,203.7-186.8,203.6z"/>
<path fill="#2E368F" d="M-85.7,7.5l1-0.9l1.1,0.8l0-5.7h-2.1C-85.7,1.8-85.7,7.6-85.7,7.5z"/>
<path fill="none" d="M-206.7,180.5c-0.9-0.9-2-1.3-3.1-1.3c-1.1,0-2.3,0.4-3.1,1.3c-1.7,1.7-1.7,4.5,0,6.3c1.7,1.7,4.5,1.7,6.3,0
	C-205,185-205,182.2-206.7,180.5z"/>
<path fill="#2E368F" d="M-159.5,110.8c0-0.3,0.2-0.5,0.5-0.5h12.6l-2.7-2.7c-0.2-0.2-0.2-0.6,0-0.8c0.1-0.1,0.2-0.2,0.4-0.2
	s0.3,0.1,0.4,0.2l3.6,3.6c0.2,0.2,0.2,0.6,0,0.8l-3.6,3.6c-0.2,0.2-0.6,0.2-0.8,0c-0.2-0.2-0.2-0.6,0-0.8l2.7-2.7H-159
	C-159.3,111.3-159.5,111.1-159.5,110.8z"/>
<path fill="#2E368F" d="M-159.3,120.1h10.9c2.1,0,3.9-1.7,3.9-3.9V114c0-0.3-0.2-0.5-0.5-0.5c-0.3,0-0.5,0.2-0.5,0.5v2.3
	c0,1.5-1.3,2.8-2.8,2.8h-10.9c-1.5,0-2.8-1.3-2.8-2.8v-10.9c0-1.5,1.3-2.8,2.8-2.8h10.9c1.5,0,2.8,1.3,2.8,2.8v2.2
	c0,0.3,0.2,0.5,0.5,0.5c0.3,0,0.5-0.2,0.5-0.5v-2.2c0-2.1-1.7-3.9-3.9-3.9h-10.9c-2.1,0-3.9,1.7-3.9,3.9v10.9
	C-163.2,118.4-161.5,120.1-159.3,120.1z"/>
<path fill="#2E368F" d="M-153.9,110.8"/>
<path fill="#2E368F" d="M-153.9,110.8"/>
<g>
	<path fill="#2E368F" stroke="#2E368F" stroke-width="0.25" stroke-miterlimit="10" d="M-154.5,74c2.6,0,4.7,2.1,4.7,4.7
		c0,0.9-0.3,1.8-0.8,2.6l0,0l0,0l-2,4h-3.7l-2.2-4l0,0l0,0c-0.5-0.8-0.8-1.6-0.8-2.6C-159.2,76.2-157.1,74-154.5,74 M-154.5,73.4
		c-3,0-5.4,2.4-5.4,5.4c0,1.1,0.3,2.1,0.9,2.9l0,0l2.4,4.4h4.5l2.2-4.4l0,0c0.5-0.8,0.9-1.8,0.9-2.9
		C-149.1,75.8-151.5,73.4-154.5,73.4L-154.5,73.4z"/>
	<path fill="#2E368F" stroke="#2E368F" stroke-width="0.25" stroke-miterlimit="10" d="M-157.1,78.4h-0.7c0-1.6,1.3-2.9,2.9-2.9v0.7
		C-156.1,76.1-157.1,77.1-157.1,78.4z"/>
	<rect x="-156.7" y="86.4" fill="#2E368F" stroke="#2E368F" stroke-width="0.25" stroke-miterlimit="10" width="4.5" height="0.8"/>
	<rect x="-156.7" y="87.7" fill="#2E368F" stroke="#2E368F" stroke-width="0.25" stroke-miterlimit="10" width="4.5" height="0.8"/>
	<rect x="-156.7" y="88.9" fill="#2E368F" stroke="#2E368F" stroke-width="0.25" stroke-miterlimit="10" width="4.5" height="0.8"/>
	<rect x="-155.7" y="90.1" fill="#2E368F" stroke="#2E368F" stroke-width="0.25" stroke-miterlimit="10" width="2.7" height="0.8"/>
</g>
<path fill="none" d="M-180.6,108.7h-3.1c-0.4,0-0.7-0.3-0.7-0.7v-3.4c-3.1,1-5.4,3.9-5.4,7.4c0,4.3,3.5,7.7,7.7,7.7
	c4.3,0,7.7-3.5,7.7-7.7c0-3.5-2.3-6.4-5.4-7.4v3.4C-179.9,108.3-180.2,108.7-180.6,108.7z"/>
<path fill="#12A049" stroke="#12A049" stroke-width="0.45" stroke-miterlimit="10" d="M-179.9,103.7v0.8c3.1,1,5.4,3.9,5.4,7.4
	c0,4.3-3.5,7.7-7.7,7.7c-4.3,0-7.7-3.5-7.7-7.7c0-3.5,2.3-6.4,5.4-7.4v-0.8c-3.6,1-6.2,4.3-6.2,8.1c0,4.7,3.8,8.5,8.5,8.5
	c4.7,0,8.5-3.8,8.5-8.5C-173.7,108-176.3,104.7-179.9,103.7z"/>
<path fill="#12A049" d="M-180.4,107.7c0,0.3-0.3,0.6-0.6,0.6h-2.4c-0.3,0-0.6-0.3-0.6-0.6v-5c0-0.3,0.3-0.6,0.6-0.6h2.4
	c0.3,0,0.6,0.3,0.6,0.6V107.7z"/>
<path fill="none" d="M-202.4,108.7h-3.1c-0.4,0-0.7-0.3-0.7-0.7v-3.4c-3.1,1-5.4,3.9-5.4,7.4c0,4.3,3.5,7.7,7.7,7.7
	c4.3,0,7.7-3.5,7.7-7.7c0-3.5-2.3-6.4-5.4-7.4v3.4C-201.6,108.3-202,108.7-202.4,108.7z"/>
<path fill="#EF3C24" stroke="#EF3C24" stroke-width="0.45" stroke-miterlimit="10" d="M-201.6,103.7v0.8c3.1,1,5.4,3.9,5.4,7.4
	c0,4.3-3.5,7.7-7.7,7.7c-4.3,0-7.7-3.5-7.7-7.7c0-3.5,2.3-6.4,5.4-7.4v-0.8c-3.6,1-6.2,4.3-6.2,8.1c0,4.7,3.8,8.5,8.5,8.5
	c4.7,0,8.5-3.8,8.5-8.5C-195.5,108-198.1,104.7-201.6,103.7z"/>
<path fill="#EF3C24" d="M-202.2,107.7c0,0.3-0.3,0.6-0.6,0.6h-2.4c-0.3,0-0.6-0.3-0.6-0.6v-5c0-0.3,0.3-0.6,0.6-0.6h2.4
	c0.3,0,0.6,0.3,0.6,0.6V107.7z"/>
<path fill="#2E368F" stroke="#2E368F" stroke-width="0.5" stroke-miterlimit="10" d="M-209.9,191.5c-4.4,0-8-3.6-8-8
	c0-4.4,3.6-8,8-8s8,3.6,8,8c0,2.1-0.8,4.1-2.2,5.5l0.5,0.5c1.5-1.6,2.4-3.7,2.4-6c0-4.8-3.9-8.8-8.8-8.8s-8.8,3.9-8.8,8.8
	c0,4.8,3.9,8.8,8.8,8.8c2.3,0,4.4-0.9,5.9-2.3l-0.5-0.5C-205.9,190.7-207.8,191.5-209.9,191.5z"/>
<path fill="#FFFFFF" stroke="#FFFFFF" stroke-miterlimit="10" d="M-206.3,190c0,0,1.2-0.4,2.7-2.8l2.1,1.5l0.3,1.6l-3.2,2.2
	l-0.8-0.9L-206.3,190z"/>
<path fill="#2E368F" stroke="#2E368F" stroke-width="0.75" stroke-miterlimit="10" d="M-202.9,215.4l-3.1-3.1c2-2.2,1.9-5.6-0.2-7.7
	c-2.2-2.2-5.8-2.2-8-0.1c-2.2,2.2-2.2,5.8-0.1,8c1.1,1.1,2.5,1.7,4,1.7c1.3,0,2.7-0.5,3.7-1.4l3.1,3.1c0.1,0.1,0.1,0.1,0.2,0.1
	c0.1,0,0.2,0,0.2-0.1C-202.8,215.8-202.8,215.6-202.9,215.4z M-213.7,212.1c-1.9-2-1.9-5.1,0-7c1-1,2.3-1.4,3.5-1.4
	c1.3,0,2.5,0.5,3.5,1.5c1.9,2,1.9,5.1,0,7C-208.6,214.1-211.7,214-213.7,212.1z"/>
<g>
	<path fill="#2E368F" stroke="#2E368F" stroke-width="0.75" stroke-miterlimit="10" d="M-203.2,189.6l-2.8-2.8c1.8-2,1.7-5.1-0.2-7
		c-2-2-5.2-2-7.2,0c-1.9,1.9-2,4.8-0.4,6.8c0,0,0.1-0.1,0.1-0.1c0.1-0.1,0.2-0.1,0.3-0.1c0,0,0.1-0.1,0.1-0.1
		c-1.4-1.8-1.3-4.4,0.3-6c0.9-0.9,2-1.3,3.2-1.3c1.2,0,2.3,0.4,3.2,1.3c1.8,1.8,1.8,4.6,0,6.4c-1.1,1.1-2.7,1.5-4.2,1.2
		c-0.1,0.2-0.2,0.4-0.4,0.5c0.5,0.1,0.9,0.2,1.4,0.2c1.2,0,2.4-0.4,3.4-1.3l2.8,2.8c0.1,0.1,0.1,0.1,0.2,0.1s0.2,0,0.2-0.1
		C-203.1,189.9-203.1,189.7-203.2,189.6z"/>
	<path fill="#2E368F" stroke="#2E368F" stroke-width="0.95" stroke-miterlimit="10" d="M-214.7,182.8c-0.2,1.5,0.2,3,1.2,4.1
		l-1.4-0.2c-0.1,0-0.2,0.1-0.2,0.1s0.1,0.2,0.1,0.2l1.9,0.3c0,0,0,0,0,0c0,0,0,0,0,0c0,0,0,0,0,0c0,0,0,0,0,0c0,0,0,0,0,0
		c0,0,0,0,0,0c0,0,0,0,0,0c0,0,0,0,0,0c0,0,0,0,0,0c0,0,0,0,0,0l0.3-1.9c0-0.1-0.1-0.2-0.1-0.2c-0.1,0-0.2,0.1-0.2,0.1l-0.2,1.5
		c-1-1.1-1.4-2.5-1.2-3.9c0.4-2.6,2.8-4.4,5.4-4c2.6,0.4,4.4,2.8,4,5.4c-0.1,1-0.6,1.9-1.3,2.6c-0.1,0.1-0.1,0.2,0,0.2
		c0.1,0.1,0.2,0.1,0.2,0c0.7-0.8,1.2-1.7,1.4-2.8c0.4-2.8-1.5-5.4-4.3-5.8C-211.7,178.1-214.3,180-214.7,182.8z"/>
</g>
<path fill="none" stroke="#B2B1B2" stroke-width="0.25" stroke-miterlimit="10" d="M-417.7,145.6v92.3H-314
	C-314,237.9-417.7,143.4-417.7,145.6z"/>
<g>
	<path fill="#2E368F" stroke="#2E368F" stroke-width="0.5" stroke-miterlimit="10" d="M-53.1,170.8c0.1-0.1,0.1-0.1,0-0.2
		c-0.1-0.1-0.1-0.1-0.2,0l-2,2l0.2,0.2L-53.1,170.8z"/>
	<path fill="#2E368F" stroke="#2E368F" stroke-width="0.5" stroke-miterlimit="10" d="M-56.3,173.8l-1-1c-0.1-0.1-0.1-0.1-0.2,0
		c-0.1,0.1-0.1,0.1,0,0.2l1.1,1.1c0,0,0.1,0,0.1,0c0,0,0.1,0,0.1,0l0.1-0.1L-56.3,173.8L-56.3,173.8z"/>
	<path fill="#2E368F" stroke="#2E368F" stroke-width="0.5" stroke-miterlimit="10" d="M-56.1,172.8c-0.1-0.1-0.1-0.1-0.2,0
		c-0.1,0.1-0.1,0.1,0,0.2l0.4,0.4l0.2-0.2L-56.1,172.8z"/>
	<path fill="#2E368F" stroke="#2E368F" stroke-width="0.5" stroke-miterlimit="10" d="M-51.8,170.6c-0.1-0.1-0.1-0.1-0.2,0l-3.1,3.1
		l-0.4-0.4l-0.2,0.2l0.5,0.5c0,0,0.1,0,0.1,0c0,0,0.1,0,0.1,0l3.2-3.2C-51.8,170.8-51.8,170.7-51.8,170.6z"/>
	
		<rect x="-55.8" y="173.2" transform="matrix(0.7074 -0.7068 0.7068 0.7074 -138.822 11.4064)" fill="#2E368F" stroke="#2E368F" stroke-width="0.5" stroke-miterlimit="10" width="0.3" height="0.3"/>
</g>
<g>
	<path fill="#2E368F" stroke="#2E368F" stroke-width="0.15" stroke-miterlimit="10" d="M74.5,16.4c0,0.7-0.8,1.3-1.7,1.3H57.1
		c-0.9,0-1.7-0.6-1.7-1.3c0-0.7,0.8-1.3,1.7-1.3h15.7C73.7,15.2,74.5,15.7,74.5,16.4z"/>
	<path fill="#2E368F" stroke="#2E368F" stroke-width="0.15" stroke-miterlimit="10" d="M74.5,16.4c0,0.7-0.8,1.3-1.7,1.3H57.1
		c-0.9,0-1.7-0.6-1.7-1.3c0-0.7,0.8-1.3,1.7-1.3h15.7C73.7,15.2,74.5,15.7,74.5,16.4z"/>
</g>
<g>
	<path fill="#2E398E" stroke="#2E398E" stroke-width="0.45" stroke-miterlimit="10" d="M-124,16.7c0.2,0,0.3-0.1,0.3-0.3v-3.6
		c0-0.2-0.1-0.3-0.3-0.3c-0.2,0-0.3,0.2-0.3,0.3v3.6C-124.2,16.6-124.1,16.7-124,16.7z"/>
	<path fill="#2E398E" stroke="#2E398E" stroke-width="0.45" stroke-miterlimit="10" d="M-124,12c0.2,0,0.3-0.1,0.3-0.3v-0.5
		c0-0.2-0.1-0.3-0.3-0.3c-0.2,0-0.3,0.1-0.3,0.3v0.5C-124.3,11.8-124.2,12-124,12z"/>
</g>
<path fill="#2E368F" d="M-87.6,0.8v17.1h1.2V2h7.2v5.3h5.3v10.6h1.2V6.5l-5.7-5.7H-87.6z M-78,6.1V2.9l3.3,3.3H-78z"/>
<path fill="none" stroke="#2E368F" stroke-miterlimit="10" d="M-96.5,12.4l0-5.9c0-0.4-0.3-0.6-0.6-0.6l-5.9,0c-0.2,0-0.3,0-0.4,0.1
	c-0.1,0.1-0.2,0.3-0.2,0.4c0,0,0,0.3,0,0.3c0,0.2,0.3,0.4,0.5,0.5l-0.3-0.3l2.3,2.3l-4,4l-0.9-0.9l-0.1,0c0,0-0.1-0.1-0.2,0
	c-0.2,0.1-0.2,0.2-0.2,0.3l0,3c0,0.2,0.1,0.3,0.3,0.3h3c0.1,0,0.2,0,0.2-0.1c0,0,0.1,0,0.1-0.1c0,0,0.2-0.1,0.2-0.1
	c0-0.1-0.4-0.4-0.4-0.5l0.2,0.2l-0.8-0.8l4-4l2.5,2.5l0,0c0.1,0,0.2,0,0.3,0C-96.8,13-96.5,12.8-96.5,12.4z"/>
<rect x="-84.4" y="8.7" fill="#2E368F" width="8.4" height="0.7"/>
<rect x="-84.4" y="10.1" fill="#2E368F" width="8.4" height="0.7"/>
<rect x="-84.4" y="11.5" fill="#2E368F" width="8.4" height="0.7"/>
<rect x="-84.4" y="12.9" fill="#2E368F" width="8.4" height="0.7"/>
<rect x="-84.4" y="14.4" fill="#2E368F" width="8.4" height="0.7"/>
<rect x="-84.4" y="15.8" fill="#2E368F" width="8.4" height="0.7"/>
<g>
	<path fill="#2E368F" d="M-13.9,5.4l0.8-0.7l0.8,0.6l0-4.2h-1.6C-13.9,1.1-13.9,5.4-13.9,5.4z"/>
	<path fill="#2E368F" d="M-15.3,0.4V13h0.9V1.3h5.3v3.9h3.9V13h0.9V4.6l-4.2-4.2H-15.3z M-8.3,4.4V1.9l2.4,2.4H-8.3z"/>
	<rect x="-13" y="6.2" fill="#2E368F" width="6.1" height="0.5"/>
	<rect x="-13" y="7.2" fill="#2E368F" width="6.1" height="0.5"/>
	<rect x="-13" y="8.3" fill="#2E368F" width="6.1" height="0.5"/>
	<rect x="-13" y="9.3" fill="#2E368F" width="6.1" height="0.5"/>
	<rect x="-13" y="10.4" fill="#2E368F" width="6.1" height="0.5"/>
	<rect x="-13" y="11.4" fill="#2E368F" width="6.1" height="0.5"/>
</g>
<rect x="-62.2" y="8.7" fill="#2E368F" width="8.4" height="0.7"/>
<rect x="-62.2" y="10.1" fill="#2E368F" width="8.4" height="0.7"/>
<rect x="-62.2" y="11.6" fill="#2E368F" width="8.4" height="0.7"/>
<rect x="-62.2" y="13" fill="#2E368F" width="8.4" height="0.7"/>
<rect x="-62.2" y="14.4" fill="#2E368F" width="8.4" height="0.7"/>
<rect x="-62.2" y="15.8" fill="#2E368F" width="8.4" height="0.7"/>
<path fill="#2E368F" d="M-63.5,7.6l1-0.9l1.1,0.8l0-5.7h-2.1C-63.5,1.8-63.5,7.7-63.5,7.6z"/>
<path fill="#2E368F" d="M-65.5,0.8v17.1h1.2V2h7.2v5.4h5.4v10.6h1.2V6.5l-5.7-5.7H-65.5z M-55.8,6.2V2.9l3.3,3.3H-55.8z"/>
<rect x="-120.2" y="-98" fill="none" width="100.5" height="89.7"/>
<text transform="matrix(1 0 0 1 -120.1701 -80.7415)"><tspan x="0" y="0" font-family="'HelveticaNeue'" font-size="9">2) Resume IDS</tspan><tspan x="0" y="10.8" font-family="'HelveticaNeue'" font-size="9">3) </tspan><tspan x="0" y="21.6" font-family="'HelveticaNeue'" font-size="9">4) Email Response</tspan><tspan x="0" y="32.4" font-family="'HelveticaNeue'" font-size="9">5) File IDS</tspan><tspan x="0" y="43.2" font-family="'HelveticaNeue'" font-size="9">6) </tspan><tspan x="0" y="54" font-family="'HelveticaNeue'" font-size="9">7) Filling Package</tspan></text>
<circle fill="#FFFFFF" cx="-52.5" cy="14.4" r="4.3"/>
<circle fill="#FFFFFF" cx="-52.6" cy="14.3" r="5.7"/>
<g>
	<g>
		<path fill="#2E368F" d="M-50,12.1c0.3,0.3,0.3,0.7,0,0.9l-0.3,0.3l-0.9-0.9l0.3-0.3C-50.7,11.8-50.3,11.8-50,12.1z"/>
		<polygon fill="#2E368F" points="-54.6,15.7 -54.9,16.9 -53.7,16.6 -50.7,13.6 -51.6,12.7 		"/>
	</g>
</g>
<path fill="#2E368F" stroke="#2E368F" stroke-width="0.75" stroke-miterlimit="10" d="M-52.6,9.6c-2.6,0-4.6,2.1-4.6,4.6
	c0,2.6,2.1,4.6,4.6,4.6s4.6-2.1,4.6-4.6C-47.9,11.7-50,9.6-52.6,9.6z M-52.6,18.5c-2.3,0-4.2-1.9-4.2-4.2c0-2.3,1.9-4.2,4.2-4.2
	s4.2,1.9,4.2,4.2C-48.3,16.6-50.2,18.5-52.6,18.5z"/>
<rect x="-62.2" y="-13.6" fill="#2E368F" width="8.4" height="0.7"/>
<rect x="-62.2" y="-12.2" fill="#2E368F" width="8.4" height="0.7"/>
<rect x="-62.2" y="-10.8" fill="#2E368F" width="8.4" height="0.7"/>
<rect x="-62.2" y="-9.4" fill="#2E368F" width="8.4" height="0.7"/>
<rect x="-62.2" y="-7.9" fill="#2E368F" width="8.4" height="0.7"/>
<rect x="-62.2" y="-6.5" fill="#2E368F" width="8.4" height="0.7"/>
<path fill="#2E368F" d="M-63.5-14.8l1-0.9l1.1,0.8l0-5.7h-2.1C-63.5-20.6-63.5-14.7-63.5-14.8z"/>
<path fill="#2E368F" d="M-65.5-21.5v17.1h1.2v-15.9h7.2v5.4h5.4v10.6h1.2v-11.4l-5.7-5.7H-65.5z M-55.8-16.2v-3.3l3.3,3.3H-55.8z"/>
<circle fill="#FFFFFF" cx="-52.5" cy="-8" r="4.3"/>
<circle fill="#FFFFFF" cx="-52.6" cy="-8" r="5.7"/>
<path fill="#2E368F" stroke="#2E368F" stroke-width="0.75" stroke-miterlimit="10" d="M-52.6-12.7c-2.6,0-4.6,2.1-4.6,4.6
	c0,2.6,2.1,4.6,4.6,4.6s4.6-2.1,4.6-4.6C-47.9-10.6-50-12.7-52.6-12.7z M-52.6-3.8c-2.3,0-4.2-1.9-4.2-4.2c0-2.3,1.9-4.2,4.2-4.2
	s4.2,1.9,4.2,4.2C-48.3-5.7-50.2-3.8-52.6-3.8z"/>
<rect x="-39.9" y="8.7" fill="#2E368F" width="8.4" height="0.7"/>
<rect x="-39.9" y="10.1" fill="#2E368F" width="8.4" height="0.7"/>
<rect x="-39.9" y="11.6" fill="#2E368F" width="8.4" height="0.7"/>
<rect x="-39.9" y="13" fill="#2E368F" width="8.4" height="0.7"/>
<rect x="-39.9" y="14.4" fill="#2E368F" width="8.4" height="0.7"/>
<rect x="-39.9" y="15.8" fill="#2E368F" width="8.4" height="0.7"/>
<path fill="#2E368F" d="M-41.2,7.6l1-0.9l1.1,0.8l0-5.7h-2.1C-41.2,1.8-41.2,7.7-41.2,7.6z"/>
<path fill="#2E368F" d="M-43.2,0.8v17.1h1.2V2h7.2v5.4h5.4v10.6h1.2V6.5l-5.7-5.7H-43.2z M-33.6,6.2V2.9l3.3,3.3H-33.6z"/>
<circle fill="#FFFFFF" cx="-30.2" cy="14.4" r="4.3"/>
<circle fill="#FFFFFF" cx="-30.4" cy="14.3" r="5.7"/>
<path fill="#2E368F" stroke="#2E368F" stroke-width="0.75" stroke-miterlimit="10" d="M-30.3,9.6c-2.6,0-4.6,2.1-4.6,4.6
	c0,2.6,2.1,4.6,4.6,4.6s4.6-2.1,4.6-4.6C-25.7,11.7-27.8,9.6-30.3,9.6z M-30.3,18.5c-2.3,0-4.2-1.9-4.2-4.2c0-2.3,1.9-4.2,4.2-4.2
	s4.2,1.9,4.2,4.2C-26.1,16.6-28,18.5-30.3,18.5z"/>
<path fill="none" stroke="#2E368F" stroke-width="0.55" stroke-miterlimit="10" d="M-28.1,15l0-2.6c0-0.2-0.1-0.3-0.3-0.3l-2.6,0
	c-0.1,0-0.1,0-0.2,0c0,0-0.1,0.1-0.1,0.2c0,0,0,0.1,0,0.1c0,0.1,0.2,0.2,0.2,0.2l-0.1-0.1l1,1l-1.7,1.7l-0.4-0.4l0,0c0,0,0,0-0.1,0
	c-0.1,0-0.1,0.1-0.1,0.2l0,1.3c0,0.1,0.1,0.1,0.1,0.1h1.3c0,0,0.1,0,0.1,0c0,0,0,0,0,0c0,0,0.1,0,0.1,0c0,0-0.2-0.2-0.2-0.2l0.1,0.1
	l-0.4-0.4l1.7-1.7l1.1,1.1l0,0c0,0,0.1,0,0.1,0C-28.2,15.3-28.1,15.2-28.1,15z"/>
<rect x="72.8" y="-38.5" fill="none" width="0" height="2.7"/>
<rect x="72.8" y="-46.8" fill="none" width="0" height="2.7"/>
<rect x="72.8" y="-42.6" fill="none" width="0" height="2.7"/>
<rect x="72.8" y="-34.4" fill="none" width="0" height="2.7"/>
<rect x="72.8" y="-30.3" fill="none" width="0" height="2.7"/>
<rect x="72.8" y="-26.2" fill="none" width="0" height="2.7"/>
<rect x="72.8" y="-22.1" fill="none" width="0" height="5.6"/>
<path fill="none" d="M72.8-49.6v1.4h0v-2.7h-0.2C72.8-50.5,72.8-50,72.8-49.6z"/>
<title>folder_2</title>
<description>Created with Sketch (http://www.bohemiancoding.com/sketch)</description>
<polygon fill="#2E368F" points="-15.6,6.5 -16.6,6.5 -16.6,5.5 -22.1,5.5 -21.6,18.9 -20.7,18.9 -20.7,7.6 -15.6,7.6 "/>
<polygon fill="#F9F9FA" stroke="#2E368F" stroke-miterlimit="10" points="-4.1,8.6 -4.1,8.6 -15.5,8.6 -15.5,8.6 -19.3,8.6 
	-20.3,18.9 -5.5,18.9 -3.1,8.6 "/>
<g>
	<path fill="#2E368F" stroke="#2E368F" stroke-width="0.5" stroke-miterlimit="10" d="M17.9,5.7H0.8H0.5v11.4h17.7V5.7H17.9z
		 M6.6,11.3l2.8,2.3l2.6-2.2l5.1,5.1H1.4L6.6,11.3z M1.1,15.8V6.7l5,4.2L1.1,15.8z M12.5,11l5.1-4.2V16L12.5,11z M17.1,6.3l-7.7,6.4
		L1.7,6.3H17.1z"/>
</g>
<circle fill="#FFFFFF" cx="14.5" cy="14.1" r="4.2"/>
<circle fill="#FFFFFF" cx="14.4" cy="14.1" r="5.6"/>
<path fill="#2E368F" stroke="#2E368F" stroke-width="0.75" stroke-miterlimit="10" d="M14.4,9.5c-2.5,0-4.5,2-4.5,4.5
	c0,2.5,2,4.5,4.5,4.5s4.5-2,4.5-4.5C19,11.5,16.9,9.5,14.4,9.5z M14.4,18.2c-2.3,0-4.1-1.9-4.1-4.1c0-2.3,1.9-4.1,4.1-4.1
	s4.1,1.9,4.1,4.1C18.6,16.3,16.7,18.2,14.4,18.2z"/>
<path fill="#2E368F" d="M14.1,12.8l0-1l-2.6,1.5l2.6,1.5l0-0.9c2.8,0,3,2,3,2C17.1,13.5,14.9,12.9,14.1,12.8z"/>
<g>
	<path fill="#2E368F" d="M-50.8-8.2l-2-2c-0.1-0.1-0.3,0-0.3,0.1v4c0,0.2,0.2,0.3,0.3,0.1l2-2C-50.8-8-50.8-8.2-50.8-8.2z"/>
</g>
</svg>
