<?xml version="1.0" encoding="utf-8"?>
<!-- Generator: Adobe Illustrator 18.1.1, SVG Export Plug-In . SVG Version: 6.00 Build 0)  -->
<svg version="1.1" id="Layer_1" xmlns="http://www.w3.org/2000/svg" xmlns:xlink="http://www.w3.org/1999/xlink" x="0px" y="0px"
	 viewBox="705.9 447.4 20 20" enable-background="new 705.9 447.4 20 20" xml:space="preserve">
<g>
	<path fill="#FF8838" d="M723.6,465.5h-15.5c-1.2,0-2.2-1-2.2-2.2c0-0.5,0.2-1,0.5-1.4l7.5-13.4c0.4-0.7,1.1-1.1,1.9-1.1l0,0
		c0,0,0,0,0,0c0.8,0,1.5,0.4,1.9,1.1l7.5,13.4c0.3,0.4,0.5,0.9,0.5,1.3C725.8,464.6,724.8,465.5,723.6,465.5L723.6,465.5z
		 M715.9,448.3c-0.5,0-1,0.3-1.2,0.7l-7.6,13.4l0,0c-0.2,0.3-0.3,0.6-0.3,0.9c0,0.8,0.6,1.4,1.4,1.4h15.5c0.8,0,1.4-0.6,1.4-1.4
		c0-0.3-0.1-0.6-0.3-0.9l0-0.1l-7.6-13.4C716.9,448.6,716.4,448.3,715.9,448.3L715.9,448.3L715.9,448.3z"/>
	<g>
		<path fill="#FF8838" d="M715.9,460.3c-0.4,0-0.7,0.1-1,0.4c-0.3,0.3-0.4,0.6-0.4,1c0,0.4,0.1,0.7,0.4,1c0.3,0.3,0.6,0.4,1,0.4
			c0.4,0,0.7-0.1,1-0.4c0.3-0.3,0.4-0.6,0.4-1c0-0.4-0.1-0.7-0.4-1C716.6,460.4,716.3,460.3,715.9,460.3z"/>
		<path fill="#FF8838" d="M715.9,451.9c-0.4,0-0.8,0.1-1,0.4c-0.3,0.3-0.4,0.6-0.4,1c0,0.2,0,0.5,0.1,0.9c0.1,0.4,0.2,0.8,0.3,1.2
			c0.1,0.4,0.2,1,0.4,1.6c0.1,0.6,0.3,1.4,0.4,2.4h0.6c0.2-1,0.3-1.8,0.4-2.4c0.1-0.6,0.3-1.2,0.4-1.6c0.1-0.5,0.2-0.9,0.3-1.2
			c0.1-0.3,0.1-0.6,0.1-0.8c0-0.4-0.1-0.7-0.4-1C716.6,452.1,716.3,451.9,715.9,451.9z"/>
	</g>
</g>
</svg>
