<?xml version="1.0" encoding="utf-8"?>
<!-- Generator: Adobe Illustrator 18.1.1, SVG Export Plug-In . SVG Version: 6.00 Build 0)  -->
<svg version="1.1" id="Layer_1" xmlns="http://www.w3.org/2000/svg" xmlns:xlink="http://www.w3.org/1999/xlink" x="0px" y="0px"
	 viewBox="0 0 20 20" enable-background="new 0 0 20 20" xml:space="preserve">
<path fill="#2E368F" stroke="#2E368F" stroke-width="0.75" stroke-miterlimit="10" d="M210.1,130.1l4-4c0.1-0.1,0.1-0.2,0-0.3
	c-0.1-0.1-0.2-0.1-0.3,0l-4,4l-4-4c-0.1-0.1-0.2-0.1-0.3,0c-0.1,0.1-0.1,0.2,0,0.3l4,4l-4,4c-0.1,0.1-0.1,0.2,0,0.3
	c0,0,0.1,0.1,0.2,0.1s0.1,0,0.2-0.1l4-4l4,4c0,0,0.1,0.1,0.2,0.1s0.1,0,0.2-0.1c0.1-0.1,0.1-0.2,0-0.3L210.1,130.1z"/>
<path fill="#2E368F" stroke="#2E368F" stroke-width="0.75" stroke-miterlimit="10" d="M292.9,86.2c0.1-0.1,0.1-0.2,0-0.3
	s-0.2-0.1-0.3,0l-1.8,1.8l0.3,0.3L292.9,86.2z"/>
<path fill="#2E368F" stroke="#2E368F" stroke-width="0.75" stroke-miterlimit="10" d="M292.5,94.1c0,0,0.1,0.1,0.2,0.1
	c0.1,0,0.1,0,0.2-0.1c0.1-0.1,0.1-0.2,0-0.3l-2.2-2.2l-0.3,0.3L292.5,94.1z"/>
<path fill="#2E368F" stroke="#2E368F" stroke-width="0.75" stroke-miterlimit="10" d="M289.1,90l0.3-0.3l-0.3-0.3l-0.3,0.3l-3.8-3.8
	c-0.1-0.1-0.2-0.1-0.3,0c-0.1,0.1-0.1,0.2,0,0.3l3.8,3.8l-3.8,3.8c-0.1,0.1-0.1,0.2,0,0.3c0,0,0.1,0.1,0.2,0.1c0.1,0,0.1,0,0.2-0.1
	l3.8-3.8l1.3,1.3l0.3-0.3L289.1,90z"/>
<path fill="#2E368F" stroke="#2E368F" stroke-width="0.75" stroke-miterlimit="10" d="M287.5,94.1c-0.1,0.1-0.1,0.2,0,0.3
	c0,0,0.1,0.1,0.2,0.1c0.1,0,0.1,0,0.2-0.1l1.9-1.9l-0.3-0.3L287.5,94.1z"/>
<path fill="#2E368F" stroke="#2E368F" stroke-width="0.75" stroke-miterlimit="10" d="M287.8,86.2c-0.1-0.1-0.2-0.1-0.3,0
	c-0.1,0.1-0.1,0.2,0,0.3l2.2,2.2l0.3-0.3L287.8,86.2z"/>
<path fill="#2E368F" stroke="#2E368F" stroke-width="0.75" stroke-miterlimit="10" d="M292,90.3l3.8-3.8c0.1-0.1,0.1-0.2,0-0.3
	c-0.1-0.1-0.2-0.1-0.3,0l-3.8,3.8l-1.3-1.3L290,89l1.3,1.3l-0.4,0.4l0.3,0.3l0.4-0.4l3.8,3.8c0,0,0.1,0.1,0.2,0.1
	c0.1,0,0.1,0,0.2-0.1c0.1-0.1,0.1-0.2,0-0.3L292,90.3z"/>
<rect x="290.1" y="91.4" transform="matrix(-0.7072 -0.707 0.707 -0.7072 430.901 361.6723)" fill="#2E368F" stroke="#2E368F" stroke-width="0.75" stroke-miterlimit="10" width="0.5" height="0.5"/>
<rect x="289.8" y="88.5" transform="matrix(0.7067 0.7075 -0.7075 0.7067 147.8262 -179.192)" fill="#2E368F" stroke="#2E368F" stroke-width="0.75" stroke-miterlimit="10" width="0.5" height="0.5"/>
<g>
	<path fill="#2E368F" stroke="#2E368F" stroke-width="0.45" stroke-miterlimit="10" d="M136.3,46.8h-2.4c0.1-0.2,0.2-0.5,0.2-0.8v-2
		c0-1.8-1.5-3.3-3.3-3.3h-2.5c-1.8,0-3.3,1.5-3.3,3.3v2c0,0.3,0.1,0.6,0.2,0.8h-2.4c-1,0-1.8,0.8-1.8,1.8v8.3c0,1,0.8,1.8,1.8,1.8
		h13.5c1,0,1.8-0.8,1.8-1.8v-8.3C138.1,47.6,137.3,46.8,136.3,46.8z M125.9,46v-2c0-1.3,1.1-2.3,2.3-2.3h2.5c1.3,0,2.3,1.1,2.3,2.3
		v2c0,0.4-0.4,0.8-0.8,0.8h-5.6C126.3,46.8,125.9,46.4,125.9,46z M137.1,56.9c0,0.4-0.4,0.8-0.8,0.8h-13.5c-0.4,0-0.8-0.4-0.8-0.8
		v-8.3c0-0.4,0.4-0.8,0.8-0.8h4h5.6h4c0.4,0,0.8,0.4,0.8,0.8V56.9z"/>
	<path fill="#2E368F" stroke="#2E368F" stroke-width="0.45" stroke-miterlimit="10" d="M129.5,50.2c-1,0-1.9,0.8-1.9,1.9
		c0,0.9,0.6,1.6,1.4,1.8v1.6c0,0.3,0.2,0.5,0.5,0.5s0.5-0.2,0.5-0.5v-1.6c0.8-0.2,1.4-0.9,1.4-1.8C131.4,51,130.6,50.2,129.5,50.2z
		 M129.5,53c-0.5,0-0.9-0.4-0.9-0.9s0.4-0.9,0.9-0.9s0.9,0.4,0.9,0.9S130,53,129.5,53z"/>
</g>
<g>
	<path fill="#2E368F" stroke="#2E368F" stroke-width="0.45" stroke-miterlimit="10" d="M177.3,47.7H175c0.1-0.2,0.2-0.5,0.2-0.8v-2
		c0-1.8-1.5-3.3-3.3-3.3h-2.5c-1.8,0-3.3,1.5-3.3,3.3c0,0.3,0.2,0.5,0.5,0.5s0.5-0.2,0.5-0.5c0-1.3,1.1-2.3,2.3-2.3h2.5
		c1.3,0,2.3,1.1,2.3,2.3v2c0,0.4-0.4,0.8-0.8,0.8h-5.6h-4c-1,0-1.8,0.8-1.8,1.8v8.3c0,1,0.8,1.8,1.8,1.8h13.5c1,0,1.8-0.8,1.8-1.8
		v-8.3C179.1,48.5,178.3,47.7,177.3,47.7z M178.2,57.8c0,0.4-0.4,0.8-0.8,0.8h-13.5c-0.4,0-0.8-0.4-0.8-0.8v-8.3
		c0-0.4,0.4-0.8,0.8-0.8h4h5.6h4c0.4,0,0.8,0.4,0.8,0.8V57.8z"/>
	<path fill="#2E368F" stroke="#2E368F" stroke-width="0.45" stroke-miterlimit="10" d="M170.6,51.1c-1,0-1.9,0.8-1.9,1.9
		c0,0.9,0.6,1.6,1.4,1.8v1.6c0,0.3,0.2,0.5,0.5,0.5c0.3,0,0.5-0.2,0.5-0.5v-1.6c0.8-0.2,1.4-0.9,1.4-1.8
		C172.5,52,171.6,51.1,170.6,51.1z M170.6,53.9c-0.5,0-0.9-0.4-0.9-0.9s0.4-0.9,0.9-0.9s0.9,0.4,0.9,0.9S171.1,53.9,170.6,53.9z"/>
</g>
<path fill="#2E368F" d="M17.3,41.1H2.9c-1,0-1.8,0.8-1.8,1.8v14.4c0,1,0.8,1.8,1.8,1.8h14.4c1,0,1.8-0.8,1.8-1.8V42.9
	C19.1,41.9,18.3,41.1,17.3,41.1z M14.9,47.7c0,0-5.8,5.8-5.8,5.8c-0.3,0.3-0.5,0.2-0.8,0l-2.8-2.8c-0.3-0.3-0.3-0.5,0-0.8
	c0.3-0.3,0.5-0.3,0.8,0l2.4,2.4l5.3-5.4c0.3-0.3,0.5-0.3,0.8,0C15.1,47.2,15.1,47.4,14.9,47.7z"/>
<path fill="#2E368F" stroke="#2E368F" stroke-width="0.5" stroke-miterlimit="10" d="M-22.8,122.1c0.4,0,0.8,0.4,0.8,0.8v14.3
	c0,0.4-0.4,0.8-0.8,0.8h-14.3c-0.4,0-0.8-0.4-0.8-0.8v-14.3c0-0.4,0.4-0.8,0.8-0.8L-22.8,122.1 M-22.8,121h-14.3
	c-1,0-1.9,0.8-1.9,1.9v14.3c0,1,0.8,1.9,1.9,1.9h14.3c1,0,1.9-0.8,1.9-1.9v-14.3C-21,121.8-21.8,121-22.8,121L-22.8,121z"/>
<path fill="#2E368F" stroke="#2E368F" stroke-miterlimit="10" d="M296.2,10.3c0.1-0.1,0.1-0.2,0.1-0.3s0-0.2-0.1-0.3L288,1.5
	c-0.2-0.2-0.5-0.2-0.6,0c-0.2,0.2-0.2,0.5,0,0.6l7.8,7.8l-7.8,7.8c-0.2,0.2-0.2,0.5,0,0.6c0.2,0.2,0.5,0.2,0.6,0L296.2,10.3z"/>
<path fill="#2E368F" stroke="#2E368F" stroke-miterlimit="10" d="M10.7,126c-0.1-0.1-0.2-0.1-0.3-0.1s-0.2,0-0.3,0.1l-8.2,8.2
	c-0.2,0.2-0.2,0.5,0,0.6s0.5,0.2,0.6,0l7.8-7.8l7.8,7.8c0.2,0.2,0.5,0.2,0.6,0c0.2-0.2,0.2-0.5,0-0.6L10.7,126z"/>
<path fill="#2E368F" stroke="#2E368F" stroke-miterlimit="10" d="M169.7,95c0.1,0.1,0.2,0.1,0.3,0.1s0.2,0,0.3-0.1l8.2-8.2
	c0.2-0.2,0.2-0.5,0-0.6c-0.2-0.2-0.5-0.2-0.6,0L170,94l-7.8-7.8c-0.2-0.2-0.5-0.2-0.6,0c-0.2,0.2-0.2,0.5,0,0.6L169.7,95z"/>
<g transform="matrix( 1, 0, 0, 1, 0,0) ">
	<g>
		<g id="a_3_">
			<path fill="#2E368F" stroke="#2E368F" stroke-width="0.5" stroke-miterlimit="10" d="M40.5,85.5v7.2c0,0.9,0.3,1.7,1,2.4
				c0.7,0.7,1.5,1,2.4,1v2.6c0,0.1,0,0.2,0.1,0.3c0,0.1,0.1,0.1,0.2,0.2c0.1,0,0.1,0,0.2,0c0.1,0,0.2,0,0.3-0.1l3-2.9h8.3
				c1,0,1.8-0.3,2.5-1c0.7-0.7,1-1.5,1-2.4v-7.2c0-1-0.3-1.8-1-2.4c-0.7-0.7-1.5-1-2.5-1H44c-1,0-1.8,0.3-2.5,1
				C40.8,83.7,40.5,84.5,40.5,85.5 M44,82.9h12.1c0.7,0,1.3,0.2,1.8,0.7c0.5,0.5,0.8,1.1,0.8,1.8v7.2c0,0.7-0.3,1.3-0.8,1.8
				c-0.5,0.5-1.1,0.8-1.8,0.8h-8.5c-0.1,0-0.2,0-0.3,0.1l-2.3,2.3v-2c0-0.1,0-0.2-0.1-0.3c-0.1-0.1-0.2-0.1-0.3-0.1H44
				c-0.7,0-1.3-0.3-1.8-0.8c-0.5-0.5-0.8-1.1-0.8-1.8v-7.2c0-0.7,0.3-1.3,0.8-1.8C42.7,83.2,43.3,82.9,44,82.9z"/>
			<path fill="#2E368F" stroke="#2E368F" stroke-width="0.5" stroke-miterlimit="10" d="M55.2,89.9c0.2-0.2,0.4-0.5,0.4-0.8
				c0-0.3-0.1-0.6-0.4-0.8c-0.2-0.2-0.5-0.4-0.9-0.4c-0.3,0-0.6,0.1-0.9,0.4c-0.2,0.2-0.4,0.5-0.4,0.8c0,0.3,0.1,0.6,0.4,0.8
				c0.2,0.2,0.5,0.3,0.9,0.3C54.7,90.2,55,90.1,55.2,89.9 M46.9,89.1c0-0.3-0.1-0.6-0.4-0.8c-0.2-0.2-0.5-0.4-0.9-0.4
				s-0.6,0.1-0.9,0.4c-0.2,0.2-0.4,0.5-0.4,0.8c0,0.3,0.1,0.6,0.4,0.8c0.2,0.2,0.5,0.3,0.9,0.3s0.6-0.1,0.9-0.3
				C46.8,89.7,46.9,89.4,46.9,89.1 M49.2,88.2c-0.2,0.2-0.4,0.5-0.4,0.8c0,0.3,0.1,0.6,0.4,0.8c0.2,0.2,0.5,0.3,0.9,0.3
				c0.3,0,0.6-0.1,0.9-0.3c0.2-0.2,0.4-0.5,0.4-0.8c0-0.3-0.1-0.6-0.4-0.8c-0.2-0.2-0.5-0.4-0.9-0.4C49.7,87.9,49.4,88,49.2,88.2z"
				/>
		</g>
	</g>
</g>
<path fill="#2E368F" stroke="#2E368F" stroke-width="0.45" stroke-miterlimit="10" d="M-66.4,137.5h-2v2h-11.1v-15.2h2v-2h2v-2h11.1
	v15.2h-2L-66.4,137.5L-66.4,137.5z M-68.9,124.9H-79v14.2h10.1V124.9z M-77.5,126.9v-0.5h7.1v0.5H-77.5z M-77.5,128.9v-0.5h7.1v0.5
	H-77.5z M-77.5,131v-0.5h7.1v0.5H-77.5z M-77.5,133v-0.5h7.1v0.5H-77.5z M-77.5,135v-0.5h7.1v0.5H-77.5z M-77.5,137v-0.5h7.1v0.5
	H-77.5z M-77,122.9v1.5h8.6V137h1.5v-14.2H-77z M-75,120.8v1.5h8.6V135h1.5v-14.2H-75z"/>
<path fill="#2E368F" d="M9.4,160.2c0,0-0.1,0-0.1,0.1l-5.2,8.4c-0.1,0.1,0,0.2,0.1,0.2h10.4c0.1,0,0.2-0.1,0.1-0.2l-5.2-8.4
	C9.5,160.3,9.5,160.2,9.4,160.2L9.4,160.2z M4.2,170.7c-0.1,0-0.2,0.1-0.1,0.2l5.2,8.4c0.1,0.1,0.2,0.1,0.2,0l5.2-8.4
	c0.1-0.1,0-0.2-0.1-0.2H4.2L4.2,170.7z"/>
<path fill="#2E368F" stroke="#2E368F" stroke-width="0.75" stroke-miterlimit="10" d="M289.8,80.6c-5.3,0-9.6,4.3-9.6,9.6
	c0,5.3,4.3,9.6,9.6,9.6c5.3,0,9.6-4.3,9.6-9.6C299.4,84.9,295.1,80.6,289.8,80.6z M289.8,98.9c-4.8,0-8.7-3.9-8.7-8.7
	c0-4.8,3.9-8.7,8.7-8.7c4.8,0,8.7,3.9,8.7,8.7C298.5,95,294.6,98.9,289.8,98.9z"/>
<g>
	<path fill="#2E368F" stroke="#2E368F" stroke-width="0.75" stroke-miterlimit="10" d="M89.6,130.3c-1.9,0-3.5,1.2-4.1,2.9h0.4
		c0.6-1.6,1.9-2.5,3.7-2.5c2.1,0,3.9,1.8,3.9,3.9s-1.8,3.9-3.9,3.9c-1.6,0-2.9-1-3.5-2.3h-0.4c0.6,1.6,2.1,2.7,3.9,2.7
		c2.3,0,4.3-1.9,4.3-4.3S91.9,130.3,89.6,130.3z"/>
	<path fill="#2E368F" stroke="#2E368F" stroke-width="0.75" stroke-miterlimit="10" d="M89.6,131.8v3.3h2.5v0.4h-2.9
		c0-1.2,0-2.7,0-3.7H89.6z"/>
</g>
<path fill="#2E368F" stroke="#2E368F" stroke-miterlimit="10" d="M58.4,130.2c-0.2,0-0.3,0.1-0.3,0.3v5c0,1.6-1.3,2.9-2.9,2.9H44.6
	c-1.6,0-2.9-1.3-2.9-2.9V127v-2.2c0-1.6,1.3-2.9,2.9-2.9h4.9c0.2,0,0.3-0.1,0.3-0.3c0-0.2-0.1-0.3-0.3-0.3h-4.9
	c-1.9,0-3.5,1.6-3.5,3.5v2.2v8.4c0,1.9,1.6,3.5,3.5,3.5h10.6c1.9,0,3.5-1.6,3.5-3.5v-5C58.7,130.3,58.6,130.2,58.4,130.2z"/>
<g>
	<g>
		<path fill="#2E368F" d="M59,121.2c0.6,0.6,0.6,1.5,0,2.1l-0.7,0.7l-2.1-2.1l0.7-0.7C57.5,120.6,58.5,120.6,59,121.2z"/>
		<polygon fill="#2E368F" points="48.8,129.4 48.1,132.2 50.8,131.5 57.7,124.6 55.6,122.6 		"/>
	</g>
</g>
<path fill="#2E368F" stroke="#2E368F" stroke-width="0.75" stroke-miterlimit="10" d="M218.4,170.4c-0.2,0-0.3,0.1-0.3,0.3v5
	c0,1.6-1.3,2.9-2.9,2.9h-10.5c-1.6,0-2.9-1.3-2.9-2.9v-8.4v-2.2c0-1.6,1.3-2.9,2.9-2.9h4.9c0.2,0,0.3-0.1,0.3-0.3s-0.1-0.3-0.3-0.3
	h-4.9c-1.9,0-3.5,1.5-3.5,3.5v2.2v8.4c0,1.9,1.5,3.5,3.5,3.5h10.5c1.9,0,3.5-1.5,3.5-3.5v-5C218.7,170.5,218.6,170.4,218.4,170.4z"
	/>
<path fill="#2E368F" stroke="#2E368F" stroke-width="0.75" stroke-miterlimit="10" d="M178.9,10c-0.2,0-0.3,0.1-0.3,0.3v5.3
	c0,1.7-1.4,3.1-3.1,3.1h-11.3c-1.7,0-3.1-1.4-3.1-3.1v-9V4.3c0-1.7,1.4-3.1,3.1-3.1h5.3c0.2,0,0.3-0.1,0.3-0.3s-0.1-0.3-0.3-0.3
	h-5.3c-2,0-3.7,1.7-3.7,3.7v2.3v9c0,2,1.7,3.7,3.7,3.7h11.3c2,0,3.7-1.7,3.7-3.7v-5.3C179.2,10.1,179.1,10,178.9,10z"/>
<g>
	<path fill="#2E368F" d="M179.5,0.5c0.6,0.6,0.6,1.6,0,2.2l-0.7,0.7l-2.2-2.2l0.7-0.7C178-0.2,178.9-0.2,179.5,0.5z"/>
	<polygon fill="#2E368F" points="168.6,9.2 167.9,12.1 170.8,11.4 178.1,4.1 175.9,1.9 	"/>
</g>
<path fill="#2E368F" stroke="#2E368F" stroke-width="0.75" stroke-miterlimit="10" d="M98,9.1h-7.1V2c0-0.5-0.4-0.8-0.8-0.8
	S89.1,1.5,89.1,2v7.1H82c-0.5,0-0.8,0.4-0.8,0.8s0.4,0.8,0.8,0.8h7.1v7.1c0,0.5,0.4,0.8,0.8,0.8s0.8-0.4,0.8-0.8v-7.1H98
	c0.5,0,0.8-0.4,0.8-0.8S98.4,9.1,98,9.1z"/>
<path fill="#2E368F" stroke="#2E368F" stroke-width="0.75" stroke-miterlimit="10" d="M58.9,18.2L54.6,14c2.7-3,2.6-7.7-0.3-10.6
	c-3-3-7.9-3-11,0c-3,3-3,7.9,0,11c1.5,1.5,3.5,2.3,5.5,2.3c1.8,0,3.7-0.7,5.1-2l4.2,4.2c0.1,0.1,0.2,0.1,0.3,0.1s0.2,0,0.3-0.1
	C59.1,18.7,59.1,18.4,58.9,18.2z M44,13.7c-2.7-2.7-2.7-7,0-9.7c1.3-1.3,3.1-2,4.8-2c1.8,0,3.5,0.7,4.8,2c2.7,2.7,2.7,7,0,9.7
	C51,16.3,46.7,16.3,44,13.7z"/>
<path fill="#2E368F" stroke="#2E368F" stroke-width="0.75" stroke-miterlimit="10" d="M134.9,138.1l-2.1-2.1
	c1.4-1.5,1.3-3.9-0.2-5.4c-1.5-1.5-4-1.5-5.5,0c-1.5,1.5-1.5,4,0,5.5c0.8,0.8,1.8,1.1,2.8,1.1c0.9,0,1.9-0.3,2.6-1l2.1,2.1
	c0,0,0.1,0.1,0.2,0.1s0.1,0,0.2-0.1C135,138.4,135,138.2,134.9,138.1z M127.4,135.8c-1.3-1.3-1.3-3.5,0-4.9c0.7-0.7,1.6-1,2.4-1
	c0.9,0,1.8,0.3,2.4,1c1.3,1.3,1.3,3.5,0,4.9C130.9,137.2,128.7,137.2,127.4,135.8z"/>
<path fill="#2E368F" stroke="#2E368F" stroke-width="0.75" stroke-miterlimit="10" d="M-70,0.8c-5,0-9.1,4.1-9.1,9.1
	c0,5,4.1,9.1,9.1,9.1c5,0,9.1-4.1,9.1-9.1C-60.9,4.9-65,0.8-70,0.8z M-70,18.3c-4.6,0-8.3-3.7-8.3-8.3c0-4.6,3.7-8.3,8.3-8.3
	c4.6,0,8.3,3.7,8.3,8.3C-61.7,14.6-65.4,18.3-70,18.3z"/>
<path fill="#2E368F" stroke="#2E368F" stroke-miterlimit="10" d="M139.4,1.3v5c0,0.2-0.1,0.3-0.3,0.3s-0.3-0.1-0.3-0.3V1.9l-8.6,8.6
	c-0.1,0.1-0.1,0.1-0.2,0.1c-0.1,0-0.1,0-0.2-0.1c-0.1-0.1-0.1-0.3,0-0.4l8.6-8.6h-4.4c-0.2,0-0.3-0.1-0.3-0.3s0.1-0.3,0.3-0.3h5
	C139.3,1,139.4,1.1,139.4,1.3z"/>
<path fill="#2E368F" stroke="#2E368F" stroke-width="0.75" stroke-miterlimit="10" d="M138.6,10.3c-0.2,0-0.3,0.1-0.3,0.3v5.1
	c0,1.7-1.3,3-3,3h-10.9c-1.7,0-3-1.3-3-3V7V4.8c0-1.7,1.3-3,3-3h5.1c0.2,0,0.3-0.1,0.3-0.3s-0.1-0.3-0.3-0.3h-5.1
	c-2,0-3.6,1.6-3.6,3.6V7v8.6c0,2,1.6,3.6,3.6,3.6h10.9c2,0,3.6-1.6,3.6-3.6v-5.1C138.9,10.4,138.8,10.3,138.6,10.3z"/>
<path fill="#2E368F" stroke="#2E368F" stroke-width="0.5" stroke-miterlimit="10" d="M-20.6,13.8V5.9c0-0.2,0.1-1.8-0.5-2.5
	c-0.4-0.5-1.2-0.6-2-0.6h-0.4c-0.1,0-0.3,0-0.6,0V2.1c0-0.2-0.2-0.4-0.4-0.4c-0.2,0-0.4,0.2-0.4,0.4v0.8c-2.5,0-8,0-10.5,0V2.1
	c0-0.2-0.2-0.4-0.4-0.4S-36,1.9-36,2.1v0.8c-0.3,0-0.5,0-0.6,0h-0.3c-0.9,0-1.7,0-2,0.6c-0.6,0.6-0.5,2.2-0.5,2.4v11.6
	c0,0.2,0.2,0.4,0.4,0.4h14.5c0.1,0,0.2,0,0.3-0.1l0,0l3.6-3.7l0,0l0,0l0,0c0,0,0,0,0-0.1C-20.6,13.9-20.6,13.9-20.6,13.8z
	 M-38.4,3.9c0.2-0.3,0.9-0.3,1.6-0.3h0.4c0.1,0,0.3,0,0.6,0v0.5c0,0.2,0.2,0.4,0.4,0.4c0.2,0,0.3-0.2,0.3-0.4V3.6c2.5,0,8,0,10.5,0
	v0.5c0,0.2,0.2,0.4,0.4,0.4s0.4-0.2,0.4-0.4V3.6c0.3,0,0.5,0,0.6,0h0.4c0.7,0,1.3,0,1.6,0.3c0.1,0.3,0.1,1.1,0.1,1.7h-17.4
	C-38.7,4.9-38.6,4.2-38.4,3.9z M-38.7,6.3h17.4v7.2h-3.3c-0.2,0-0.4,0.2-0.4,0.4v3.4h-13.7V6.3z M-21.8,14.2l-2.4,2.5v-2.5H-21.8z"
	/>
<g>
	<rect x="-35" y="8.3" fill="#2E368F" width="1.9" height="1.4"/>
	<rect x="-32.3" y="8.3" fill="#2E368F" width="1.9" height="1.4"/>
	<rect x="-29.6" y="8.3" fill="#2E368F" width="1.9" height="1.4"/>
	<rect x="-26.9" y="8.3" fill="#2E368F" width="1.9" height="1.4"/>
	<rect x="-35" y="10.4" fill="#2E368F" width="1.9" height="1.4"/>
	<rect x="-32.3" y="10.4" fill="#2E368F" width="1.9" height="1.4"/>
	<rect x="-29.6" y="10.4" fill="#2E368F" width="1.9" height="1.4"/>
	<rect x="-26.9" y="10.4" fill="#2E368F" width="1.9" height="1.4"/>
	<rect x="-35" y="12.6" fill="#2E368F" width="1.9" height="1.4"/>
	<rect x="-32.3" y="12.6" fill="#2E368F" width="1.9" height="1.4"/>
	<rect x="-29.6" y="12.6" fill="#2E368F" width="1.9" height="1.4"/>
	<rect x="-26.9" y="12.6" fill="#2E368F" width="1.9" height="1.4"/>
</g>
<g>
	<g>
		<path fill="#EF3C24" d="M10.6,1.1c-0.1-0.2-0.3-0.3-0.5-0.3c-0.2,0-0.4,0.1-0.5,0.3l-9.2,16c-0.1,0.2-0.1,0.4,0,0.6
			c0.1,0.2,0.3,0.3,0.5,0.3h18.5l0,0c0.3,0,0.6-0.3,0.6-0.6c0-0.1,0-0.3-0.1-0.4L10.6,1.1z M1.9,16.8L10,2.7l8.1,14.1H1.9z"/>
		<path fill="#EF3C24" d="M9.4,7.1v4.9c0,0.3,0.3,0.6,0.6,0.6c0.3,0,0.6-0.3,0.6-0.6V7.1c0-0.3-0.3-0.6-0.6-0.6
			C9.6,6.4,9.4,6.7,9.4,7.1z"/>
		<path fill="#EF3C24" d="M10,13.4c-0.3,0-0.6,0.3-0.6,0.6v0.4c0,0.3,0.3,0.6,0.6,0.6s0.6-0.3,0.6-0.6v-0.4
			C10.6,13.7,10.3,13.4,10,13.4z"/>
	</g>
</g>
<g>
	<g>
		<path fill="#F26722" d="M-69.9-38.8c-0.1-0.2-0.3-0.3-0.5-0.3s-0.4,0.1-0.5,0.3l-9.2,16c-0.1,0.2-0.1,0.4,0,0.6
			c0.1,0.2,0.3,0.3,0.5,0.3h18.5l0,0c0.3,0,0.6-0.3,0.6-0.6c0-0.1,0-0.3-0.1-0.4L-69.9-38.8z M-78.5-23.1l8.1-14.1l8.1,14.1H-78.5z"
			/>
		<path fill="#F26722" d="M-71.1-32.8v4.9c0,0.3,0.3,0.6,0.6,0.6c0.3,0,0.6-0.3,0.6-0.6v-4.9c0-0.3-0.3-0.6-0.6-0.6
			S-71.1-33.2-71.1-32.8z"/>
		<path fill="#F26722" d="M-70.4-26.5c-0.3,0-0.6,0.3-0.6,0.6v0.4c0,0.3,0.3,0.6,0.6,0.6s0.6-0.3,0.6-0.6v-0.4
			C-69.8-26.2-70.1-26.5-70.4-26.5z"/>
	</g>
</g>
<polygon fill="#2E368F" points="-74.8,9.7 -72.4,9.7 -72.4,13.3 -67.6,13.3 -67.6,9.7 -65.2,9.7 -70,4.9 "/>
<path fill="#2E368F" stroke="#2E368F" stroke-width="0.75" stroke-miterlimit="10" d="M209.8,120.9c-5.1,0-9.2,4.1-9.2,9.2
	c0,5.1,4.1,9.2,9.2,9.2s9.2-4.1,9.2-9.2C219,125,214.9,120.9,209.8,120.9z M209.8,138.4c-4.6,0-8.4-3.8-8.4-8.4
	c0-4.6,3.8-8.4,8.4-8.4c4.6,0,8.4,3.8,8.4,8.4C218.2,134.7,214.5,138.4,209.8,138.4z"/>
<path fill="#2E368F" stroke="#2E368F" stroke-width="0.75" stroke-miterlimit="10" d="M290,120.9c-5.1,0-9.2,4.1-9.2,9.2
	c0,5.1,4.1,9.2,9.2,9.2s9.2-4.1,9.2-9.2C299.2,125,295.1,120.9,290,120.9z M290,138.4c-4.6,0-8.4-3.8-8.4-8.4c0-4.6,3.8-8.4,8.4-8.4
	s8.4,3.8,8.4,8.4C298.4,134.7,294.6,138.4,290,138.4z"/>
<path fill="#2E368F" stroke="#2E368F" stroke-width="0.75" stroke-miterlimit="10" d="M-69.2,94.1l1.9-1.9c0,0,0-0.1,0-0.2
	s-0.1,0-0.2,0l-1.9,1.9l-1.9-1.9c0,0-0.1,0-0.2,0s0,0.1,0,0.2l1.9,1.9l-1.9,1.9c0,0,0,0.1,0,0.2c0,0,0.1,0,0.1,0s0.1,0,0.1,0
	l1.9-1.9l1.9,1.9c0,0,0.1,0,0.1,0s0.1,0,0.1,0c0,0,0-0.1,0-0.2L-69.2,94.1z"/>
<path fill="#2E368F" stroke="#2E368F" stroke-width="0.75" stroke-miterlimit="10" d="M-69.4,89.2c-2.7,0-4.8,2.2-4.8,4.8
	c0,2.7,2.2,4.8,4.8,4.8s4.8-2.2,4.8-4.8C-64.5,91.4-66.7,89.2-69.4,89.2z M-69.4,98.5c-2.4,0-4.4-2-4.4-4.4c0-2.4,2-4.4,4.4-4.4
	c2.4,0,4.4,2,4.4,4.4C-65,96.5-66.9,98.5-69.4,98.5z"/>
<rect x="-30.4" y="41.4" transform="matrix(-0.5425 -0.8401 0.8401 -0.5425 -88.2738 51.8743)" fill="#2E368F" stroke="#2E368F" stroke-width="0.75" stroke-miterlimit="10" width="0.8" height="17.2"/>
<path fill="#2E368F" stroke="#2E368F" stroke-width="0.75" stroke-miterlimit="10" d="M-30.1,41c-4.8,0-8.8,3.9-8.8,8.8
	c0,4.8,3.9,8.8,8.8,8.8s8.8-3.9,8.8-8.8C-21.3,45-25.3,41-30.1,41z M-30.1,57.8c-4.4,0-8-3.6-8-8c0-4.4,3.6-8,8-8s8,3.6,8,8
	C-22.1,54.2-25.7,57.8-30.1,57.8z"/>
<g>
	<path fill="#2E368F" stroke="#2E368F" stroke-width="0.75" stroke-miterlimit="10" d="M210.2,95.6c0.3,0,0.5-0.2,0.5-0.5V88
		c0-0.3-0.2-0.5-0.5-0.5c-0.3,0-0.5,0.2-0.5,0.5v7.1C209.7,95.4,209.9,95.6,210.2,95.6z"/>
	<path fill="#2E368F" stroke="#2E368F" stroke-width="0.75" stroke-miterlimit="10" d="M210.1,86.2c0.3,0,0.5-0.2,0.5-0.5v-1
		c0-0.3-0.2-0.5-0.5-0.5c-0.3,0-0.5,0.2-0.5,0.5v1C209.6,85.9,209.8,86.2,210.1,86.2z"/>
</g>
<path fill="#2E368F" stroke="#2E368F" stroke-width="0.75" stroke-miterlimit="10" d="M210.1,81c-4.9,0-8.9,4-8.9,8.9
	c0,4.9,4,8.9,8.9,8.9c4.9,0,8.9-4,8.9-8.9C219,85,215,81,210.1,81z M210.1,98c-4.5,0-8.1-3.6-8.1-8.1c0-4.5,3.6-8.1,8.1-8.1
	s8.1,3.6,8.1,8.1C218.2,94.4,214.6,98,210.1,98z"/>
<path fill="#2E368F" stroke="#2E368F" stroke-width="0.75" stroke-miterlimit="10" d="M90.1,80.9c-5.2,0-9.4,4.2-9.4,9.4
	c0,5.2,4.2,9.4,9.4,9.4s9.4-4.2,9.4-9.4C99.5,85.1,95.3,80.9,90.1,80.9z M90.1,98.8c-4.7,0-8.5-3.8-8.5-8.5c0-4.7,3.8-8.5,8.5-8.5
	s8.5,3.8,8.5,8.5C98.7,95,94.8,98.8,90.1,98.8z"/>
<polygon fill="#2E368F" points="95,89.9 92.6,89.9 92.6,86.2 87.7,86.2 87.7,89.9 85.2,89.9 90.1,94.8 "/>
<path fill="#2E368F" stroke="#2E368F" stroke-width="0.75" stroke-miterlimit="10" d="M-70.1,41.2c-4.9,0-8.8,4-8.8,8.8
	c0,4.9,4,8.8,8.8,8.8c4.9,0,8.8-4,8.8-8.8C-61.2,45.2-65.2,41.2-70.1,41.2z M-70.1,58.1c-4.4,0-8-3.6-8-8c0-4.4,3.6-8,8-8s8,3.6,8,8
	C-62,54.5-65.6,58.1-70.1,58.1z"/>
<polygon fill="#2E368F" points="-65.5,49.7 -67.8,49.7 -67.8,46.2 -72.4,46.2 -72.4,49.7 -74.7,49.7 -70.1,54.3 "/>
<path fill="#2E368F" stroke="#2E368F" stroke-width="0.75" stroke-miterlimit="10" d="M250.5,0.9c-5,0-9,4.1-9,9c0,5,4.1,9,9,9
	s9-4.1,9-9C259.6,5,255.5,0.9,250.5,0.9z M250.5,18.2c-4.5,0-8.2-3.7-8.2-8.2c0-4.5,3.7-8.2,8.2-8.2s8.2,3.7,8.2,8.2
	C258.8,14.5,255.1,18.2,250.5,18.2z"/>
<path fill="#2E368F" stroke="#2E368F" stroke-width="0.75" stroke-miterlimit="10" d="M55,46.4c-0.1-0.1-0.3-0.1-0.4,0l-6.8,6.8
	L45.6,51c-0.1-0.1-0.3-0.1-0.4,0c-0.1,0.1-0.1,0.3,0,0.4l2.4,2.4c0.1,0.1,0.1,0.1,0.2,0.1c0.1,0,0.1,0,0.2-0.1l7-7
	C55.1,46.6,55.1,46.5,55,46.4z"/>
<path fill="#2E368F" stroke="#2E368F" stroke-width="0.75" stroke-miterlimit="10" d="M-26.9,91.8c-0.1-0.1-0.2-0.1-0.2,0l-3.6,3.6
	l-1.2-1.2c-0.1-0.1-0.2-0.1-0.2,0c-0.1,0.1-0.1,0.2,0,0.2l1.3,1.3c0,0,0.1,0,0.1,0s0.1,0,0.1,0l3.8-3.8
	C-26.9,92-26.9,91.9-26.9,91.8z"/>
<path fill="#2E368F" stroke="#2E368F" stroke-width="0.45" stroke-miterlimit="10" d="M50.1,40.6c-5.2,0-9.5,4.2-9.5,9.5
	c0,5.2,4.2,9.5,9.5,9.5s9.5-4.2,9.5-9.5C59.5,44.8,55.3,40.6,50.1,40.6z M50.1,58.7c-4.8,0-8.6-3.9-8.6-8.6c0-4.8,3.9-8.6,8.6-8.6
	s8.6,3.9,8.6,8.6C58.7,54.8,54.8,58.7,50.1,58.7z"/>
<g>
	<path fill="#2E368F" stroke="#2E368F" stroke-width="0.75" stroke-miterlimit="10" d="M253.6,86.9c0.1-0.1,0.1-0.3,0-0.4
		c-0.1-0.1-0.3-0.1-0.4,0l-4.4,4.4l0.4,0.4L253.6,86.9z"/>
	<path fill="#2E368F" stroke="#2E368F" stroke-width="0.75" stroke-miterlimit="10" d="M246.4,93.3l-2.1-2.1c-0.1-0.1-0.3-0.1-0.4,0
		c-0.1,0.1-0.1,0.3,0,0.4l2.3,2.3c0.1,0.1,0.1,0.1,0.2,0.1c0.1,0,0.1,0,0.2-0.1l0.2-0.2L246.4,93.3L246.4,93.3z"/>
	<path fill="#2E368F" stroke="#2E368F" stroke-width="0.75" stroke-miterlimit="10" d="M246.9,90.9c-0.1-0.1-0.3-0.1-0.4,0
		c-0.1,0.1-0.1,0.3,0,0.4l0.9,0.9l0.4-0.4L246.9,90.9z"/>
	<path fill="#2E368F" stroke="#2E368F" stroke-width="0.75" stroke-miterlimit="10" d="M256.2,86.2c-0.1-0.1-0.3-0.1-0.4,0L249,93
		l-0.8-0.8l-0.4,0.4l1,1c0.1,0.1,0.1,0.1,0.2,0.1c0.1,0,0.1,0,0.2-0.1l7-7C256.3,86.5,256.3,86.3,256.2,86.2z"/>
	
		<rect x="247.5" y="91.9" transform="matrix(0.7074 -0.7068 0.7068 0.7074 7.3531 202.1565)" fill="#2E368F" stroke="#2E368F" stroke-width="0.75" stroke-miterlimit="10" width="0.6" height="0.6"/>
</g>
<path fill="#2E368F" stroke="#2E368F" stroke-width="0.75" stroke-miterlimit="10" d="M250,80.6c-5.2,0-9.4,4.2-9.4,9.4
	c0,5.2,4.2,9.4,9.4,9.4c5.2,0,9.4-4.2,9.4-9.4C259.4,84.9,255.2,80.6,250,80.6z M250,98.6c-4.7,0-8.6-3.8-8.6-8.6
	c0-4.7,3.8-8.6,8.6-8.6s8.6,3.8,8.6,8.6C258.6,94.8,254.8,98.6,250,98.6z"/>
<circle fill="#2E368F" cx="130.2" cy="90.2" r="5.2"/>
<path fill="#2E368F" stroke="#2E368F" stroke-width="0.75" stroke-miterlimit="10" d="M130.2,81.3c-4.9,0-9,4-9,9c0,4.9,4,9,9,9
	c4.9,0,9-4,9-9C139.1,85.3,135.1,81.3,130.2,81.3z M130.2,98.4c-4.5,0-8.2-3.7-8.2-8.2c0-4.5,3.7-8.2,8.2-8.2c4.5,0,8.2,3.7,8.2,8.2
	C138.4,94.8,134.7,98.4,130.2,98.4z"/>
<circle fill="#2E368F" cx="209.8" cy="9.8" r="5.2"/>
<path fill="#2E368F" stroke="#2E368F" stroke-width="0.75" stroke-miterlimit="10" d="M209.8,0.8c-5,0-9.1,4.1-9.1,9.1
	c0,5,4.1,9.1,9.1,9.1c5,0,9.1-4.1,9.1-9.1C218.9,4.9,214.8,0.8,209.8,0.8z M209.8,18.1c-4.6,0-8.3-3.7-8.3-8.3
	c0-4.6,3.7-8.3,8.3-8.3s8.3,3.7,8.3,8.3C218.1,14.4,214.4,18.1,209.8,18.1z"/>
<g>
	<path fill="#2E368F" d="M214.7,44.6v3.5h1v-3.9c0-0.2-0.1-0.3-0.2-0.4l-3.3-2.9c-0.1-0.1-0.3-0.1-0.4-0.1h-9.4
		c-0.3,0-0.6,0.3-0.6,0.6v17.4c0,0.3,0.3,0.6,0.6,0.6H215c0.3,0,0.6-0.3,0.6-0.6v-4.6h-1v4.2h-11.9V41.7h8.8v2.9H214.7z"/>
	<g>
		<path fill="#2E368F" d="M210.5,50.4c-0.1,0-0.2,0-0.4,0h-0.2v0.7h0.3c0.2,0,0.3,0,0.4,0c0.1,0,0.1-0.1,0.2-0.1s0.1-0.1,0.1-0.2
			c0-0.1,0-0.2-0.1-0.2C210.6,50.5,210.6,50.4,210.5,50.4z"/>
		<path fill="#2E368F" d="M213,50.5c-0.1-0.1-0.1-0.1-0.2-0.1c-0.1,0-0.2,0-0.4,0h-0.2V52h0.4c0.1,0,0.2,0,0.3,0
			c0.1,0,0.1-0.1,0.2-0.1c0.1,0,0.1-0.1,0.1-0.2c0-0.1,0-0.3,0-0.4c0-0.2,0-0.3,0-0.4C213.1,50.7,213.1,50.6,213,50.5z"/>
		<path fill="#2E368F" d="M216.4,48.8h-7.9c-0.4,0-0.7,0.3-0.7,0.7v3.4c0,0.4,0.3,0.7,0.7,0.7h7.9c0.4,0,0.7-0.3,0.7-0.7v-3.4
			C217.1,49.1,216.8,48.8,216.4,48.8z M211.2,51.1c-0.1,0.1-0.1,0.2-0.2,0.2c-0.1,0.1-0.2,0.1-0.3,0.1c-0.1,0-0.3,0-0.5,0h-0.3v0.9
			h-0.5V50h0.8c0.3,0,0.5,0,0.6,0c0.1,0,0.3,0.1,0.3,0.2c0.1,0.1,0.1,0.3,0.1,0.5C211.3,50.9,211.3,51,211.2,51.1z M213.6,51.7
			c-0.1,0.2-0.1,0.3-0.3,0.4c-0.1,0.1-0.2,0.1-0.3,0.2c-0.1,0-0.3,0.1-0.4,0.1h-0.9V50h0.9c0.2,0,0.4,0,0.5,0c0.1,0,0.3,0.1,0.4,0.2
			c0.1,0.1,0.2,0.2,0.2,0.4c0.1,0.2,0.1,0.3,0.1,0.6C213.7,51.4,213.7,51.6,213.6,51.7z M215.6,50.4h-1.2V51h1v0.4h-1v1H214V50h1.7
			V50.4z"/>
	</g>
</g>
<path fill="#2E368F" stroke="#2E368F" stroke-width="0.5" stroke-miterlimit="10" d="M259,45.2c-0.1-0.1-0.4-0.1-0.5,0l-9.1,9.1
	l-2.9-2.9c-0.1-0.1-0.4-0.1-0.5,0s-0.1,0.4,0,0.5l3.1,3.1c0.1,0.1,0.2,0.1,0.3,0.1s0.2,0,0.3-0.1l9.4-9.4
	C259.2,45.6,259.2,45.3,259,45.2z"/>
<path fill="#2E368F" d="M253.3,44.5V48h1v-3.8c0-0.2-0.1-0.3-0.2-0.4l-3.2-2.9c-0.1-0.1-0.3-0.1-0.4-0.1h-9.3
	c-0.3,0-0.6,0.3-0.6,0.6v17.2c0,0.3,0.3,0.6,0.6,0.6h12.5c0.3,0,0.6-0.3,0.6-0.6V54h-1v4.2h-11.8V41.7h8.7v2.9H253.3z"/>
<rect x="84.9" y="48.9" fill="#2E368F" width="9.1" height="0.8"/>
<rect x="84.9" y="51.2" fill="#2E368F" width="9.1" height="0.8"/>
<rect x="84.9" y="46.6" fill="#2E368F" width="5.3" height="0.8"/>
<rect x="84.9" y="53.5" fill="#2E368F" width="9.1" height="0.8"/>
<path fill="#2E368F" d="M95.4,44.3v10.3h1V43.9c0-0.2-0.1-0.3-0.2-0.5l-3.4-3.1c-0.1-0.1-0.3-0.2-0.4-0.2h-9.8
	c-0.4,0-0.6,0.3-0.6,0.6v18.3c0,0.4,0.3,0.6,0.6,0.6h13.3c0.4,0,0.6-0.3,0.6-0.6v-4.8h-1v4.4H82.9V41.2h9.2v3H95.4z"/>
<g>
	<path fill="#2E368F" d="M2.5,80.9v16.3h1.1V82h6.9v5.1h5.1v10h1.1V86.3l-5.4-5.4H2.5z M11.7,86v-3.1l3.1,3.1H11.7z"/>
	<polygon fill="#2E368F" points="7.5,96.4 7.5,99.1 11.8,99.1 11.8,96.4 14.5,96.4 9.6,92.5 4.8,96.4 	"/>
</g>
<g>
	<path fill="#2E368F" d="M281.9,40v17.9h1.3V41.2h7.5v5.6h5.6v11h1.3V45.9l-6-6H281.9z M291.9,45.6v-3.4l3.4,3.4H291.9z"/>
	<polygon fill="#2E368F" points="292,55.7 292,52.7 287.3,52.7 287.3,55.7 284.3,55.7 289.7,60 295,55.7 	"/>
</g>
<path fill="#2E368F" d="M317.8,40v17.9h1.3V41.2h7.5v5.6h5.6v11h1.3V45.9l-6-6H317.8z M327.9,45.6v-3.4l3.4,3.4H327.9z"/>
<path fill="#2E368F" d="M-77,80.8v17.5h1.2V82h7.4v5.5h5.5v10.8h1.2V86.6l-5.8-5.8H-77z M-67.2,86.2v-3.4l3.4,3.4H-67.2z"/>
<path fill="#2E368F" stroke="#2E368F" stroke-width="0.75" stroke-miterlimit="10" d="M-29.4,89.1c-2.6,0-4.6,2.1-4.6,4.6
	c0,2.6,2.1,4.6,4.6,4.6s4.6-2.1,4.6-4.6C-24.8,91.2-26.9,89.1-29.4,89.1z M-29.4,98c-2.3,0-4.2-1.9-4.2-4.2c0-2.3,1.9-4.2,4.2-4.2
	s4.2,1.9,4.2,4.2C-25.2,96.1-27.1,98-29.4,98z"/>
<path fill="#2E368F" d="M-36.8,80.8v17.1h1.2V82h7.2v5.3h5.3v10.6h1.2V86.4l-5.7-5.7H-36.8z M-27.2,86.1v-3.3l3.3,3.3H-27.2z"/>
<path fill="#2E368F" stroke="#2E368F" stroke-width="0.75" stroke-miterlimit="10" d="M-98.9,88.3c-2.6,0-4.6,2.1-4.6,4.6
	c0,2.6,2.1,4.6,4.6,4.6c2.6,0,4.6-2.1,4.6-4.6C-94.2,90.3-96.3,88.3-98.9,88.3z M-98.9,97.1c-2.3,0-4.2-1.9-4.2-4.2
	c0-2.3,1.9-4.2,4.2-4.2c2.3,0,4.2,1.9,4.2,4.2C-94.6,95.2-96.5,97.1-98.9,97.1z"/>
<path fill="#2E368F" d="M-106.3,79.9V97h1.2V81.1h7.2v5.3h5.3V97h1.2V85.6l-5.7-5.7H-106.3z M-96.7,85.2v-3.3l3.3,3.3H-96.7z"/>
<g>
	<path fill="#2E368F" d="M81.9,120.5v17.4h1.2v-16.1h7.3v5.4h5.4v10.7h1.2v-11.6l-5.8-5.8H81.9z M91.7,125.9v-3.3l3.3,3.3H91.7z"/>
</g>
<path fill="#2E368F" d="M122.6,120.4V138h1.2v-16.4h7.4v5.5h5.5V138h1.2v-11.7l-5.9-5.9H122.6z M132.5,125.9v-3.4l3.4,3.4H132.5z"/>
<path fill="#2E368F" stroke="#2E368F" stroke-width="0.75" stroke-miterlimit="10" d="M-94.8,138.1l-2.1-2.1
	c1.4-1.5,1.3-3.9-0.2-5.4c-1.5-1.5-4-1.5-5.5,0c-1.5,1.5-1.5,4,0,5.5c0.8,0.8,1.8,1.1,2.8,1.1c0.9,0,1.9-0.3,2.6-1l2.1,2.1
	c0,0,0.1,0.1,0.2,0.1c0.1,0,0.1,0,0.2-0.1C-94.7,138.4-94.7,138.2-94.8,138.1z M-102.2,135.8c-1.3-1.3-1.3-3.5,0-4.9
	c0.7-0.7,1.6-1,2.4-1s1.8,0.3,2.4,1c1.3,1.3,1.3,3.5,0,4.9C-98.7,137.2-100.9,137.2-102.2,135.8z"/>
<path fill="#2E368F" d="M-107,120.4V138h1.2v-16.4h7.4v5.5h5.5V138h1.2v-11.7l-5.9-5.9H-107z M-97.1,125.9v-3.4l3.4,3.4H-97.1z"/>
<path fill="#2E368F" stroke="#2E368F" stroke-width="0.75" stroke-miterlimit="10" d="M-151.4,138.1l-2.1-2.1
	c1.4-1.5,1.3-3.9-0.2-5.4c-1.5-1.5-4-1.5-5.5,0c-1.5,1.5-1.5,4,0,5.5c0.8,0.8,1.8,1.1,2.8,1.1c0.9,0,1.9-0.3,2.6-1l2.1,2.1
	c0,0,0.1,0.1,0.2,0.1c0.1,0,0.1,0,0.2-0.1C-151.3,138.4-151.3,138.2-151.4,138.1z M-158.9,135.8c-1.3-1.3-1.3-3.5,0-4.9
	c0.7-0.7,1.6-1,2.4-1c0.9,0,1.8,0.3,2.4,1c1.3,1.3,1.3,3.5,0,4.9C-155.3,137.2-157.5,137.2-158.9,135.8z"/>
<path fill="#2E368F" d="M-163.6,120.4V138h1.2v-16.4h7.4v5.5h5.5V138h1.2v-11.7l-5.9-5.9H-163.6z M-153.7,125.9v-3.4l3.4,3.4H-153.7
	z"/>
<path fill="#2E368F" d="M162.1,120.5V138h1.2v-16.3h7.4v5.5h5.5V138h1.2v-11.7l-5.8-5.8H162.1z M172,126v-3.4l3.4,3.4H172z"/>
<path fill="#2E368F" stroke="#2E368F" stroke-width="0.75" stroke-miterlimit="10" d="M169.8,132c-2.8,0-4.9,3.3-4.9,3.3
	s2.2,3.2,4.9,3.2c2.8,0,4.9-3.3,4.9-3.3S172.6,132,169.8,132z M169.8,137.9c-2.4,0-4.2-2.8-4.2-2.8s1.9-2.8,4.2-2.8s4.2,2.8,4.2,2.8
	S172.2,137.9,169.8,137.9z"/>
<path fill="none" stroke="#2E368F" stroke-width="0.5" stroke-miterlimit="10" d="M169.8,133.7c-0.8,0-1.6,0.6-1.6,1.6
	c0,0.8,0.6,1.6,1.6,1.6c0.8,0,1.6-0.6,1.6-1.6C171.4,134.5,170.6,133.7,169.8,133.7z M169.8,136.4c-0.6,0-1.1-0.5-1.1-1.1
	c0-0.5,0.5-1.2,1.1-1.2s1.1,0.5,1.1,1.1C170.9,135.8,170.5,136.4,169.8,136.4z"/>
<g>
	<g>
		<g>
			<g>
				<polygon fill="#2E368F" points="-71.5,165.5 -75.6,161.4 -79.7,165.5 -77.1,165.5 -77.1,180 -74.1,180 -74.1,165.5 				"/>
				<rect x="-71.2" y="161.4" fill="#2E368F" width="8.7" height="2.8"/>
				<rect x="-72" y="166.6" fill="#2E368F" width="9.5" height="2.8"/>
				<rect x="-72" y="172" fill="#2E368F" width="9.5" height="2.8"/>
				<rect x="-72" y="177.1" fill="#2E368F" width="9.6" height="2.8"/>
			</g>
		</g>
	</g>
</g>
<g>
	<g>
		<g>
			<g>
				<polygon fill="#2E368F" points="-39,175 -35.3,178.7 -31.5,175 -33.9,175 -33.9,161.7 -36.6,161.7 -36.6,175 				"/>
				<rect x="-32" y="176.1" fill="#2E368F" width="8.9" height="2.6"/>
				<rect x="-32" y="171.4" fill="#2E368F" width="9.7" height="2.6"/>
				<rect x="-32" y="166.4" fill="#2E368F" width="9.7" height="2.6"/>
				<rect x="-32" y="161.7" fill="#2E368F" width="9.8" height="2.6"/>
			</g>
		</g>
	</g>
</g>
<path fill="#2E368F" d="M241.5,129.8h12.7l-2.7-2.7c-0.2-0.2-0.2-0.6,0-0.8c0.2-0.2,0.6-0.2,0.8,0l3.6,3.6c0.2,0.2,0.2,0.6,0,0.8
	l-3.6,3.6c-0.1,0.1-0.2,0.2-0.4,0.2c-0.1,0-0.3-0.1-0.4-0.2c-0.2-0.2-0.2-0.6,0-0.8l2.7-2.7h-12.7c-0.3,0-0.5-0.2-0.5-0.5
	C240.9,130,241.2,129.8,241.5,129.8z M255.9,120.9h-11c-2.1,0-3.9,1.7-3.9,3.9v2.3c0,0.3,0.2,0.5,0.5,0.5s0.5-0.2,0.5-0.5v-2.3
	c0-1.5,1.3-2.8,2.8-2.8h11c1.5,0,2.8,1.3,2.8,2.8v11c0,1.5-1.3,2.8-2.8,2.8h-11c-1.5,0-2.8-1.3-2.8-2.8v-2.3c0-0.3-0.2-0.5-0.5-0.5
	s-0.5,0.2-0.5,0.5v2.3c0,2.1,1.7,3.9,3.9,3.9h11c2.1,0,3.9-1.7,3.9-3.9v-11C259.7,122.7,258,120.9,255.9,120.9z"/>
<path fill="#2E368F" d="M250.3,130.3"/>
<path fill="#2E368F" d="M250.3,130.3"/>
<polyline fill="none" stroke="#2E368F" stroke-width="0.95" stroke-miterlimit="10" points="44.7,170.1 46.3,172.1 48.8,168.9 "/>
<path fill="none" stroke="#2E368F" stroke-width="0.95" stroke-miterlimit="10" d="M54.9,174.4H44.7c-2.1,0-3.8-1.7-3.8-3.8l0,0
	c0-2.1,1.7-3.8,3.8-3.8h10.2c2.1,0,3.8,1.7,3.8,3.8l0,0C58.7,172.7,57,174.4,54.9,174.4z"/>
<circle fill="none" stroke="#2E368F" stroke-width="0.95" stroke-miterlimit="10" cx="54.7" cy="170.7" r="2.5"/>
<path fill="none" stroke="#2E368F" stroke-width="0.95" stroke-miterlimit="10" d="M95.2,174.4H84.9c-2.1,0-3.8-1.7-3.8-3.8l0,0
	c0-2.1,1.7-3.8,3.8-3.8h10.2c2.1,0,3.8,1.7,3.8,3.8l0,0C99,172.7,97.3,174.4,95.2,174.4z"/>
<circle fill="none" stroke="#2E368F" stroke-width="0.95" stroke-miterlimit="10" cx="85.8" cy="170.7" r="2.5"/>
<g>
	<path fill="#2E368F" d="M136.4,168.6c-0.3,0-0.5,0-0.8-0.1c-0.2,0-0.3-0.2-0.2-0.4c0-0.2,0.2-0.3,0.4-0.2c1.3,0.3,2.6-0.3,3.2-1.5
		c0.3-0.7,0.4-1.5,0.2-2.2c-0.2-0.7-0.8-1.3-1.4-1.7c-0.7-0.3-1.5-0.4-2.2-0.2c-0.7,0.2-1.3,0.8-1.7,1.4c-0.1,0.1-0.3,0.2-0.4,0.1
		c-0.1-0.1-0.2-0.3-0.1-0.4c0.4-0.8,1.1-1.4,2-1.7c0.9-0.3,1.8-0.2,2.7,0.2c0.8,0.4,1.4,1.1,1.7,2c0.3,0.9,0.2,1.8-0.2,2.7
		C138.9,167.9,137.7,168.6,136.4,168.6z M136.4,163.5v3.1 M134.8,165.1h3.1 M136.7,166.6v-1.3h1.2c0.2,0,0.3-0.1,0.3-0.3
		c0-0.2-0.1-0.3-0.3-0.3h-1.2v-1.3c0-0.2-0.1-0.3-0.3-0.3c-0.2,0-0.3,0.1-0.3,0.3v1.3h-1.3c-0.2,0-0.3,0.1-0.3,0.3
		c0,0.2,0.1,0.3,0.3,0.3h1.3v1.3c0,0.2,0.1,0.3,0.3,0.3C136.5,166.9,136.7,166.8,136.7,166.6z"/>
	<g>
		<path fill="#2E368F" d="M128.2,178.2c-2.5,0-4.8-1.6-6.1-4.2c-0.4,0-0.9-0.3-1.2-0.9c-0.5-0.9-0.8-2.4-0.4-3.1
			c0.2-0.3,0.4-0.4,0.7-0.4c0,0,0,0,0,0c0.1-2,0.8-3.9,2-5.3c1.3-1.5,3-2.4,4.9-2.4c1.8,0,3.6,0.8,4.9,2.4c1.2,1.4,1.9,3.3,2,5.3
			c0,0,0,0,0,0c0.2,0,0.9,0.1,0.9,1.4c0,1.3-0.7,3-1.7,3.1C133.1,176.6,130.8,178.2,128.2,178.2z M122.4,173.4
			c0.1,0,0.2,0.1,0.3,0.2c1.1,2.5,3.2,4,5.6,4c2.3,0,4.5-1.5,5.6-4c0.1-0.1,0.2-0.2,0.3-0.2c0,0,0,0,0.1,0l0,0
			c0.6,0,1.2-1.4,1.2-2.5c0-0.5-0.1-0.8-0.3-0.8c0,0-0.1,0-0.2,0c-0.1,0-0.2,0-0.3,0c-0.1-0.1-0.1-0.1-0.1-0.2
			c0-4.1-2.9-7.5-6.3-7.5c-3.4,0-6.3,3.3-6.3,7.5c0,0.1-0.1,0.2-0.1,0.2s-0.2,0.1-0.3,0c-0.1,0-0.1,0-0.2,0c0,0-0.1,0-0.1,0.1
			c-0.3,0.4-0.1,1.7,0.4,2.5c0.1,0.2,0.4,0.6,0.7,0.6C122.3,173.4,122.3,173.4,122.4,173.4C122.3,173.4,122.4,173.4,122.4,173.4z"/>
	</g>
	<g>
		<path fill="#2E368F" d="M134.8,169.9c-1.8-0.4-3.6-2.6-4.6-4.4c-0.9,0.8-1.8,1.6-2.8,2.2c-2.5,1.7-5.7,2.2-5.7,2.2
			s0.2-2.5,1.8-4.6c0.7-0.9,1.6-1.8,2.7-2.3c1.6-0.8,3.8-0.6,5.3,0.4c0.4,0.3,0.8,0.6,1.1,1c0.6,0.8,1.1,1.8,1.4,2.7
			c0.3,0.8,0.5,1.6,0.7,2.4C134.7,169.6,134.8,169.8,134.8,169.9z"/>
		<path fill="#2E368F" d="M134.8,170.2c-1.7-0.4-3.6-2.5-4.7-4.3c-0.7,0.7-1.6,1.3-2.6,2c-2.5,1.7-5.7,2.3-5.8,2.3
			c-0.1,0-0.3-0.2-0.2-0.3c0-0.1,0,0.1,0,0c0-0.1,0.2-2.5,1.8-4.8c0.8-1,1.8-1.9,2.8-2.4c0.7-0.3,1.5-0.5,2.4-0.5
			c1.1,0,2.2,0.3,3.1,0.9c0.4,0.2,0.8,0.6,1.2,1.1c0.6,0.8,1.1,1.8,1.5,2.8c0.3,0.7,0.5,1.5,0.7,2.5c0,0.2,0.1,0.3,0.1,0.5
			c0,0,0,0,0,0.1C135.1,170.1,134.9,170.2,134.8,170.2"/>
	</g>
</g>
<path fill="#2E368F" d="M56.3-30.9c-0.3,0-0.5,0-0.8-0.1c-0.2,0-0.3-0.2-0.2-0.4c0-0.2,0.2-0.3,0.4-0.2c1.3,0.3,2.6-0.3,3.2-1.5
	c0.3-0.7,0.4-1.5,0.2-2.2c-0.2-0.7-0.8-1.3-1.5-1.7c-0.7-0.3-1.5-0.4-2.2-0.2c-0.7,0.2-1.3,0.8-1.7,1.5c-0.1,0.1-0.3,0.2-0.4,0.1
	c-0.1-0.1-0.2-0.3-0.1-0.4c0.4-0.8,1.1-1.5,2-1.8c0.9-0.3,1.8-0.2,2.7,0.2c0.8,0.4,1.5,1.1,1.8,2c0.3,0.9,0.2,1.8-0.2,2.7
	C58.8-31.7,57.6-30.9,56.3-30.9z"/>
<g>
	<path fill="#2E368F" d="M48.1-21.2c-2.6,0-4.9-1.6-6.1-4.2c-0.5,0-0.9-0.3-1.2-0.9c-0.5-0.9-0.8-2.4-0.4-3.2
		c0.2-0.3,0.4-0.4,0.7-0.4c0,0,0,0,0,0c0.1-2,0.8-3.9,2.1-5.4c1.3-1.5,3.1-2.4,4.9-2.4c1.9,0,3.6,0.9,4.9,2.4c1.2,1.4,2,3.3,2.1,5.4
		c0,0,0,0,0,0c0.2,0,0.9,0.1,0.9,1.4c0,1.3-0.7,3-1.8,3.1C52.9-22.8,50.6-21.2,48.1-21.2z M42.1-26.1c0.1,0,0.2,0.1,0.3,0.2
		c1.1,2.5,3.3,4.1,5.7,4.1c2.4,0,4.5-1.6,5.7-4.1c0.1-0.1,0.2-0.2,0.3-0.2c0,0,0,0,0.1,0l0,0c0.6,0,1.2-1.4,1.2-2.5
		c0-0.5-0.1-0.8-0.3-0.8c0,0-0.1,0-0.2,0c-0.1,0-0.2,0-0.3,0c-0.1-0.1-0.1-0.1-0.1-0.3c0-4.2-2.9-7.5-6.4-7.5
		c-3.5,0-6.3,3.4-6.4,7.5c0,0.1-0.1,0.2-0.1,0.3c-0.1,0.1-0.2,0.1-0.3,0c-0.1,0-0.1,0-0.2,0c0,0-0.1,0-0.2,0.1
		c-0.3,0.4-0.1,1.7,0.4,2.6c0.1,0.2,0.4,0.6,0.7,0.6C42-26.1,42.1-26.1,42.1-26.1C42.1-26.1,42.1-26.1,42.1-26.1z"/>
</g>
<g>
	<path fill="#2E368F" d="M54.7-29.6c-1.8-0.4-3.7-2.6-4.7-4.5c-0.9,0.8-1.9,1.6-2.9,2.3c-2.5,1.7-5.7,2.2-5.7,2.2s0.2-2.5,1.8-4.7
		c0.7-0.9,1.7-1.8,2.7-2.4c1.6-0.8,3.8-0.6,5.3,0.4c0.4,0.3,0.9,0.6,1.2,1c0.6,0.8,1.1,1.8,1.4,2.7c0.3,0.8,0.5,1.6,0.7,2.5
		C54.6-29.9,54.7-29.7,54.7-29.6z"/>
	<path fill="#2E368F" d="M54.7-29.3C53-29.7,51-31.8,50-33.7c-0.8,0.7-1.6,1.4-2.7,2.1c-2.5,1.7-5.8,2.3-5.9,2.3
		c-0.1,0-0.3-0.2-0.3-0.3c0-0.1,0,0.1,0,0c0-0.1,0.2-2.6,1.9-4.8c0.8-1.1,1.8-1.9,2.8-2.4c0.7-0.3,1.6-0.5,2.4-0.5
		c1.2,0,2.3,0.3,3.1,0.9c0.4,0.2,0.9,0.6,1.2,1.1c0.7,0.8,1.1,1.8,1.5,2.8c0.3,0.7,0.5,1.5,0.8,2.5c0,0.2,0.1,0.3,0.1,0.5
		c0,0,0,0.1,0,0.1C55-29.4,54.8-29.3,54.7-29.3"/>
</g>
<path fill="#2E368F" d="M296.9,170.3c-0.2,0-0.5,0-0.7-0.1c-0.2,0-0.2-0.2-0.2-0.3c0-0.2,0.2-0.2,0.3-0.2c1.2,0.3,2.4-0.3,3-1.4
	c0.3-0.6,0.4-1.4,0.1-2.1c-0.2-0.7-0.7-1.2-1.3-1.6c-0.6-0.3-1.4-0.4-2.1-0.1c-0.7,0.2-1.2,0.7-1.6,1.3c-0.1,0.1-0.2,0.2-0.4,0.1
	c-0.1-0.1-0.2-0.2-0.1-0.4c0.4-0.8,1.1-1.4,1.9-1.6c0.8-0.3,1.7-0.2,2.5,0.2c0.8,0.4,1.4,1.1,1.6,1.9c0.3,0.8,0.2,1.7-0.2,2.5
	C299.2,169.7,298.1,170.3,296.9,170.3z"/>
<g>
	<g>
		<path fill="#2E368F" d="M289.3,179.3c-2.4,0-4.5-1.5-5.6-3.9c-0.4,0-0.8-0.3-1.1-0.8c-0.5-0.8-0.7-2.3-0.3-2.9
			c0.1-0.2,0.4-0.4,0.6-0.4c0,0,0,0,0,0c0.1-1.9,0.8-3.6,1.9-5c1.2-1.4,2.8-2.2,4.6-2.2c1.7,0,3.3,0.8,4.6,2.2
			c1.1,1.3,1.8,3.1,1.9,5c0,0,0,0,0,0c0.2,0,0.8,0.1,0.8,1.3c0,1.2-0.6,2.8-1.6,2.9C293.8,177.8,291.6,179.3,289.3,179.3z
			 M283.8,174.8c0.1,0,0.2,0.1,0.3,0.2c1,2.3,3,3.8,5.2,3.8c2.2,0,4.2-1.4,5.2-3.8c0.1-0.1,0.2-0.2,0.3-0.2c0,0,0,0,0.1,0l0,0
			c0.6,0,1.1-1.3,1.1-2.3c0-0.4-0.1-0.7-0.3-0.7c0,0-0.1,0-0.2,0c-0.1,0-0.2,0-0.3,0c-0.1-0.1-0.1-0.1-0.1-0.2c0-3.8-2.7-7-5.9-7
			c-3.2,0-5.9,3.1-5.9,7c0,0.1,0,0.2-0.1,0.2c-0.1,0.1-0.2,0.1-0.3,0c-0.1,0-0.1,0-0.2,0c0,0-0.1,0-0.1,0.1
			c-0.2,0.4-0.1,1.6,0.3,2.4c0.1,0.2,0.4,0.6,0.7,0.6C283.7,174.8,283.7,174.8,283.8,174.8C283.8,174.8,283.8,174.8,283.8,174.8z"/>
	</g>
</g>
<g>
	<g>
		<path fill="#2E368F" d="M295.4,171.6c-1.7-0.3-3.4-2.4-4.3-4.1c-0.8,0.8-1.7,1.4-2.6,2.1c-2.3,1.6-5.3,2-5.3,2s0.2-2.3,1.7-4.3
			c0.6-0.9,1.5-1.7,2.5-2.2c1.5-0.7,3.5-0.6,4.9,0.3c0.4,0.2,0.8,0.6,1.1,0.9c0.6,0.7,1,1.7,1.3,2.5c0.3,0.7,0.5,1.5,0.7,2.3
			C295.3,171.3,295.4,171.5,295.4,171.6z"/>
		<path fill="#2E368F" d="M295.4,171.9c-1.6-0.3-2.8-1.4-3.8-3.2c-0.7,2.1-4.8,2.9-5.7,2.4c-2.3,1.6-2.7,0.7-2.8,0.7
			c-0.1,0-0.2-0.2-0.2-0.3c0-0.1,0,0.1,0,0c0-0.1,0.2-2.4,1.7-4.4c0.7-1,1.6-1.8,2.6-2.2c0.7-0.3,1.4-0.5,2.2-0.5
			c1.1,0,2.1,0.3,2.9,0.8c0.3,0.2,0.8,0.6,1.1,1c0.6,0.8,1,1.7,1.4,2.6c0.3,0.7,0.5,1.4,0.7,2.3c0,0.2,0.1,0.3,0.1,0.4
			c0,0,0,0,0,0.1C295.6,171.7,295.5,171.9,295.4,171.9"/>
	</g>
</g>
<g>
	<g>
		<path fill="#2E368F" d="M284,171.7c-1.3,0-2.4-0.8-3-2.1c-0.2,0-0.4-0.2-0.6-0.4c-0.3-0.4-0.4-1.2-0.2-1.6
			c0.1-0.1,0.2-0.2,0.3-0.2c0,0,0,0,0,0c0-1,0.4-1.9,1-2.6c0.6-0.8,1.5-1.2,2.4-1.2c0.9,0,1.8,0.4,2.4,1.2c0.6,0.7,1,1.6,1,2.6
			c0,0,0,0,0,0c0.1,0,0.4,0,0.4,0.7c0,0.6-0.3,1.5-0.9,1.5C286.4,170.9,285.2,171.7,284,171.7z M281.1,169.3c0.1,0,0.1,0,0.1,0.1
			c0.5,1.2,1.6,2,2.8,2c1.2,0,2.2-0.8,2.8-2c0-0.1,0.1-0.1,0.2-0.1c0,0,0,0,0,0l0,0c0.3,0,0.6-0.7,0.6-1.2c0-0.2-0.1-0.4-0.1-0.4
			c0,0-0.1,0-0.1,0c0,0-0.1,0-0.1,0c0,0-0.1-0.1-0.1-0.1c0-2-1.4-3.7-3.1-3.7c-1.7,0-3.1,1.7-3.1,3.7c0,0,0,0.1-0.1,0.1
			c0,0-0.1,0-0.1,0c0,0-0.1,0-0.1,0c0,0,0,0-0.1,0.1c-0.1,0.2-0.1,0.8,0.2,1.3C280.7,169.1,280.8,169.3,281.1,169.3
			C281,169.3,281,169.3,281.1,169.3C281,169.3,281,169.3,281.1,169.3z"/>
	</g>
	<g>
		<path fill="#2E368F" d="M287.2,167.6c-0.9-0.2-1.8-1.3-2.3-2.2c-0.4,0.4-0.9,0.8-1.4,1.1c-1.2,0.8-2.8,1.1-2.8,1.1
			s0.1-1.2,0.9-2.3c0.3-0.5,0.8-0.9,1.3-1.2c0.8-0.4,1.9-0.3,2.6,0.2c0.2,0.1,0.4,0.3,0.6,0.5c0.3,0.4,0.5,0.9,0.7,1.3
			c0.2,0.4,0.3,0.8,0.4,1.2C287.2,167.4,287.2,167.5,287.2,167.6z"/>
		<path fill="#2E368F" d="M287.2,167.7c-0.9-0.2-1.5-0.8-2-1.7c-0.4,1.1-2.5,1.5-3,1.3c-1.2,0.8-1.4,0.4-1.5,0.4
			c0,0-0.1-0.1-0.1-0.2c0,0,0,0,0,0c0-0.1,0.1-1.3,0.9-2.4c0.4-0.5,0.9-1,1.4-1.2c0.4-0.2,0.8-0.3,1.2-0.3c0.6,0,1.1,0.2,1.5,0.4
			c0.2,0.1,0.4,0.3,0.6,0.5c0.3,0.4,0.5,0.9,0.7,1.4c0.1,0.4,0.3,0.7,0.4,1.2c0,0.1,0,0.2,0,0.2c0,0,0,0,0,0
			C287.4,167.7,287.3,167.7,287.2,167.7"/>
	</g>
</g>
<g>
	<g>
		<path fill="#2E368F" d="M287.3,167.2c-0.9,0-1.8-0.6-2.2-1.6c-0.2,0-0.3-0.1-0.4-0.3c-0.2-0.3-0.3-0.9-0.1-1.2
			c0.1-0.1,0.1-0.2,0.2-0.2c0,0,0,0,0,0c0-0.7,0.3-1.4,0.8-2c0.5-0.6,1.1-0.9,1.8-0.9c0.7,0,1.3,0.3,1.8,0.9c0.5,0.5,0.7,1.2,0.8,2
			c0,0,0,0,0,0c0.1,0,0.3,0,0.3,0.5c0,0.5-0.2,1.1-0.6,1.1C289.1,166.6,288.2,167.2,287.3,167.2z M285.1,165.4c0,0,0.1,0,0.1,0.1
			c0.4,0.9,1.2,1.5,2.1,1.5c0.9,0,1.7-0.6,2.1-1.5c0,0,0.1-0.1,0.1-0.1c0,0,0,0,0,0l0,0c0.2,0,0.4-0.5,0.4-0.9c0-0.2,0-0.3-0.1-0.3
			c0,0,0,0-0.1,0c0,0-0.1,0-0.1,0c0,0-0.1-0.1-0.1-0.1c0-1.5-1.1-2.8-2.3-2.8c-1.3,0-2.3,1.2-2.3,2.8c0,0,0,0.1-0.1,0.1
			c0,0-0.1,0-0.1,0c0,0,0,0-0.1,0c0,0,0,0-0.1,0c-0.1,0.2-0.1,0.6,0.1,0.9C284.8,165.3,284.9,165.4,285.1,165.4
			C285.1,165.4,285.1,165.4,285.1,165.4C285.1,165.4,285.1,165.4,285.1,165.4z"/>
	</g>
	<g>
		<path fill="#2E368F" d="M289.7,164.1c-0.7-0.1-1.4-1-1.7-1.6c-0.3,0.3-0.7,0.6-1.1,0.8c-0.9,0.6-2.1,0.8-2.1,0.8s0.1-0.9,0.7-1.7
			c0.3-0.3,0.6-0.7,1-0.9c0.6-0.3,1.4-0.2,2,0.1c0.1,0.1,0.3,0.2,0.4,0.4c0.2,0.3,0.4,0.7,0.5,1c0.1,0.3,0.2,0.6,0.3,0.9
			C289.7,164,289.7,164.1,289.7,164.1z"/>
		<path fill="#2E368F" d="M289.7,164.2c-0.6-0.1-1.1-0.6-1.5-1.3c-0.3,0.8-1.9,1.1-2.3,1c-0.9,0.6-1.1,0.3-1.1,0.3
			c0,0-0.1-0.1-0.1-0.1c0,0,0,0,0,0c0,0,0.1-0.9,0.7-1.8c0.3-0.4,0.7-0.7,1-0.9c0.3-0.1,0.6-0.2,0.9-0.2c0.4,0,0.8,0.1,1.2,0.3
			c0.1,0.1,0.3,0.2,0.4,0.4c0.2,0.3,0.4,0.7,0.5,1c0.1,0.3,0.2,0.6,0.3,0.9c0,0.1,0,0.1,0,0.2c0,0,0,0,0,0
			C289.8,164.2,289.8,164.2,289.7,164.2"/>
	</g>
</g>
<g>
	<g>
		<path fill="#2E368F" d="M176.2,168.6c-0.3,0-0.5,0-0.8-0.1c-0.2,0-0.3-0.2-0.2-0.4c0-0.2,0.2-0.3,0.4-0.2c1.3,0.3,2.6-0.3,3.2-1.5
			c0.3-0.7,0.4-1.5,0.2-2.2c-0.2-0.7-0.8-1.3-1.4-1.7c-0.7-0.3-1.5-0.4-2.2-0.2c-0.7,0.2-1.3,0.8-1.7,1.4c-0.1,0.1-0.3,0.2-0.4,0.1
			c-0.1-0.1-0.2-0.3-0.1-0.4c0.4-0.8,1.1-1.4,2-1.7c0.9-0.3,1.8-0.2,2.7,0.2c0.8,0.4,1.4,1.1,1.7,2c0.3,0.9,0.2,1.8-0.2,2.7
			C178.7,167.9,177.5,168.6,176.2,168.6z"/>
		<g>
			<path fill="#2E368F" d="M168.1,178.2c-2.5,0-4.8-1.6-6.1-4.2c-0.4,0-0.9-0.3-1.2-0.9c-0.5-0.9-0.8-2.4-0.4-3.1
				c0.2-0.3,0.4-0.4,0.7-0.4c0,0,0,0,0,0c0.1-2,0.8-3.9,2-5.3c1.3-1.5,3-2.4,4.9-2.4c1.8,0,3.6,0.8,4.9,2.4c1.2,1.4,1.9,3.3,2,5.3
				c0,0,0,0,0,0c0.2,0,0.9,0.1,0.9,1.4c0,1.3-0.7,3-1.7,3.1C172.9,176.6,170.6,178.2,168.1,178.2z M162.2,173.4
				c0.1,0,0.2,0.1,0.3,0.2c1.1,2.5,3.2,4,5.6,4c2.3,0,4.5-1.5,5.6-4c0.1-0.1,0.2-0.2,0.3-0.2c0,0,0,0,0.1,0l0,0
				c0.6,0,1.2-1.4,1.2-2.5c0-0.5-0.1-0.8-0.3-0.8c0,0-0.1,0-0.2,0c-0.1,0-0.2,0-0.3,0s-0.1-0.1-0.1-0.2c0-4.1-2.9-7.5-6.3-7.5
				c-3.4,0-6.3,3.3-6.3,7.5c0,0.1-0.1,0.2-0.1,0.2s-0.2,0.1-0.3,0c-0.1,0-0.1,0-0.2,0c0,0-0.1,0-0.1,0.1c-0.3,0.4-0.1,1.7,0.4,2.5
				c0.1,0.2,0.4,0.6,0.7,0.6C162.1,173.4,162.1,173.4,162.2,173.4C162.2,173.4,162.2,173.4,162.2,173.4z"/>
		</g>
		<g>
			<path fill="#2E368F" d="M174.7,169.9c-1.8-0.4-3.6-2.6-4.6-4.4c-0.9,0.8-1.8,1.6-2.8,2.2c-2.5,1.7-5.7,2.2-5.7,2.2
				s0.2-2.5,1.8-4.6c0.7-0.9,1.6-1.8,2.7-2.3c1.6-0.8,3.8-0.6,5.3,0.4c0.4,0.3,0.8,0.6,1.1,1c0.6,0.8,1.1,1.8,1.4,2.7
				c0.3,0.8,0.5,1.6,0.7,2.4C174.6,169.6,174.6,169.8,174.7,169.9z"/>
			<path fill="#2E368F" d="M174.7,170.2c-1.7-0.4-3.6-2.5-4.7-4.3c-0.7,0.7-1.6,1.3-2.6,2c-2.5,1.7-5.7,2.3-5.8,2.3
				c-0.1,0-0.3-0.2-0.2-0.3c0-0.1,0,0.1,0,0c0-0.1,0.2-2.5,1.8-4.8c0.8-1,1.8-1.9,2.8-2.4c0.7-0.3,1.5-0.5,2.4-0.5
				c1.1,0,2.2,0.3,3.1,0.9c0.4,0.2,0.8,0.6,1.2,1.1c0.6,0.8,1.1,1.8,1.5,2.8c0.3,0.7,0.5,1.5,0.7,2.5c0,0.2,0.1,0.3,0.1,0.5
				c0,0,0,0,0,0.1C174.9,170.1,174.8,170.2,174.7,170.2"/>
		</g>
	</g>
</g>
<path fill="#2E368F" stroke="#2E368F" stroke-width="0.5" stroke-miterlimit="10" d="M176.5,165l1.2-1.2c0,0,0-0.1,0-0.1
	c0,0-0.1,0-0.1,0L176.5,165l-1.3-1.3c0,0-0.1,0-0.1,0c0,0,0,0.1,0,0.1l1.2,1.2l-1.2,1.2c0,0,0,0.1,0,0.1c0,0,0,0,0,0c0,0,0,0,0,0
	L176.5,165l1.1,1.3c0,0,0,0,0,0c0,0,0,0,0,0c0,0,0-0.1,0-0.1L176.5,165z"/>
<g>
	<g>
		<path fill="#2E368F" stroke="#2E368F" stroke-width="0.15" stroke-miterlimit="10" d="M218.3,162.7l-1.4-1.4
			c-0.4-0.4-1.1-0.4-1.5,0l-7.8,7.7l-1.6,4.5l4.5-1.6l7.8-7.7C218.7,163.8,218.7,163.1,218.3,162.7z M207.5,171.4l0.7-1.8l1.8,1.8
			l-1.8,0.6L207.5,171.4z M208.8,169.7l6.1-6.1l0.4,0.4l-6.1,6.1L208.8,169.7z M208.7,169.6l-0.3-0.4l6.1-6.1l0.3,0.4L208.7,169.6z
			 M209.4,170.3l6.1-6.1l0.4,0.4l-6.1,6.1L209.4,170.3z M214.8,162.8l0.2-0.2l2,2l-0.2,0.2L214.8,162.8z M210.3,171.2l-0.3-0.4
			l6.1-6.1l0.3,0.4L210.3,171.2z M217.9,163.7l-0.6,0.6l-2-2l0.6-0.6c0.2-0.2,0.4-0.2,0.6,0l1.4,1.4
			C218,163.3,218,163.6,217.9,163.7z"/>
	</g>
</g>
<circle fill="#2E368F" cx="250" cy="170" r="9.1"/>
<path fill="#FFFFFF" stroke="#FFFFFF" stroke-miterlimit="10" d="M250.7,170l3.9-3.9c0.1-0.1,0.1-0.2,0-0.3c-0.1-0.1-0.2-0.1-0.3,0
	l-3.9,3.9l-3.9-3.9c-0.1-0.1-0.2-0.1-0.3,0c-0.1,0.1-0.1,0.2,0,0.3l3.9,3.9l-3.9,3.9c-0.1,0.1-0.1,0.2,0,0.3c0,0,0.1,0.1,0.2,0.1
	c0.1,0,0.1,0,0.2-0.1l3.9-3.9l3.9,3.9c0,0,0.1,0.1,0.2,0.1c0.1,0,0.1,0,0.2-0.1c0.1-0.1,0.1-0.2,0-0.3L250.7,170z"/>
<g>
	<polygon fill="#2E368F" points="295,166.5 296.5,165.6 296.5,165.5 294.6,166.5 296.5,167.5 296.5,167.3 	"/>
	<path fill="#2E368F" d="M297.1,166.1l0-0.6l-1.7,1l1.7,1l0-0.6c1.8,0,2,1.3,2,1.3C299.1,166.6,297.6,166.2,297.1,166.1z"/>
</g>
<path fill="#2E368F" stroke="#2E368F" stroke-width="0.95" stroke-miterlimit="10" d="M290.3,124.8c-1.7,0-3.3,0.7-4.3,2v-1.6
	c0-0.1-0.1-0.2-0.2-0.2s-0.2,0.1-0.2,0.2v2.1c0,0,0,0,0,0c0,0,0,0,0,0c0,0,0,0,0,0c0,0,0,0,0,0c0,0,0,0,0,0c0,0,0,0,0,0c0,0,0,0,0,0
	c0,0,0,0,0,0c0,0,0,0,0,0c0,0,0,0,0,0h2.1c0.1,0,0.2-0.1,0.2-0.2s-0.1-0.2-0.2-0.2h-1.7c1-1.2,2.5-2,4.1-2c2.9,0,5.3,2.4,5.3,5.3
	c0,2.9-2.4,5.3-5.3,5.3c-1.1,0-2.2-0.3-3.1-1c-0.1-0.1-0.2,0-0.3,0c-0.1,0.1,0,0.2,0,0.3c1,0.7,2.1,1,3.3,1c3.2,0,5.7-2.6,5.7-5.7
	C296,127.3,293.4,124.8,290.3,124.8z"/>
<path fill="#2E368F" d="M296.1-31c-0.3,0-0.5,0-0.8-0.1c-0.2,0-0.3-0.2-0.2-0.4c0-0.2,0.2-0.3,0.4-0.2c1.3,0.3,2.6-0.3,3.2-1.5
	c0.3-0.7,0.4-1.5,0.2-2.2c-0.2-0.7-0.8-1.3-1.4-1.7c-0.7-0.3-1.5-0.4-2.2-0.2c-0.7,0.2-1.3,0.8-1.7,1.4c-0.1,0.1-0.3,0.2-0.4,0.1
	c-0.1-0.1-0.2-0.3-0.1-0.4c0.4-0.8,1.1-1.4,2-1.7c0.9-0.3,1.8-0.2,2.7,0.2c0.8,0.4,1.4,1.1,1.7,2c0.3,0.9,0.2,1.8-0.2,2.7
	C298.6-31.7,297.4-31,296.1-31z"/>
<g>
	<path fill="#2E368F" d="M287.9-21.4c-2.5,0-4.8-1.6-6.1-4.2c-0.4,0-0.9-0.3-1.2-0.9c-0.5-0.9-0.8-2.4-0.4-3.1
		c0.2-0.3,0.4-0.4,0.7-0.4c0,0,0,0,0,0c0.1-2,0.8-3.9,2-5.3c1.3-1.5,3-2.4,4.9-2.4c1.8,0,3.6,0.8,4.9,2.4c1.2,1.4,1.9,3.3,2,5.3
		c0,0,0,0,0,0c0.2,0,0.9,0.1,0.9,1.4c0,1.3-0.7,3-1.7,3.1C292.8-23,290.5-21.4,287.9-21.4z M282.1-26.2c0.1,0,0.2,0.1,0.3,0.2
		c1.1,2.5,3.2,4,5.6,4c2.3,0,4.5-1.5,5.6-4c0.1-0.1,0.2-0.2,0.3-0.2c0,0,0,0,0.1,0l0,0c0.6,0,1.2-1.4,1.2-2.5c0-0.5-0.1-0.8-0.3-0.8
		c0,0-0.1,0-0.2,0c-0.1,0-0.2,0-0.3,0c-0.1-0.1-0.1-0.1-0.1-0.2c0-4.1-2.9-7.5-6.3-7.5c-3.4,0-6.3,3.3-6.3,7.5
		c0,0.1-0.1,0.2-0.1,0.2c-0.1,0.1-0.2,0.1-0.3,0c-0.1,0-0.1,0-0.2,0c0,0-0.1,0-0.1,0.1c-0.3,0.4-0.1,1.7,0.4,2.5
		c0.1,0.2,0.4,0.6,0.7,0.6C282-26.2,282-26.2,282.1-26.2C282.1-26.2,282.1-26.2,282.1-26.2z"/>
</g>
<g>
	<path fill="#2E368F" d="M294.5-29.7c-1.8-0.4-3.6-2.6-4.6-4.4c-0.9,0.8-1.8,1.6-2.8,2.2c-2.5,1.7-5.7,2.2-5.7,2.2s0.2-2.5,1.8-4.6
		c0.7-0.9,1.6-1.8,2.7-2.3c1.6-0.8,3.8-0.6,5.3,0.4c0.4,0.3,0.8,0.6,1.1,1c0.6,0.8,1.1,1.8,1.4,2.7c0.3,0.8,0.5,1.6,0.7,2.4
		C294.5-30,294.5-29.8,294.5-29.7z"/>
	<path fill="#2E368F" d="M294.5-29.4c-1.7-0.4-3.6-2.5-4.7-4.3c-0.7,0.7-1.6,1.3-2.6,2c-2.5,1.7-5.7,2.3-5.8,2.3
		c-0.1,0-0.3-0.2-0.2-0.3c0-0.1,0,0.1,0,0c0-0.1,0.2-2.5,1.8-4.8c0.8-1,1.8-1.9,2.8-2.4c0.7-0.3,1.5-0.5,2.4-0.5
		c1.1,0,2.2,0.3,3.1,0.9c0.4,0.2,0.8,0.6,1.2,1.1c0.6,0.8,1.1,1.8,1.5,2.8c0.3,0.7,0.5,1.5,0.7,2.5c0,0.2,0.1,0.3,0.1,0.5
		c0,0,0,0,0,0.1C294.8-29.5,294.7-29.4,294.5-29.4"/>
</g>
<rect x="296" y="-36.5" transform="matrix(0.5406 0.8413 -0.8413 0.5406 106.9825 -264.9713)" fill="none" stroke="#2E368F" stroke-width="0.5" stroke-miterlimit="10" width="0.2" height="3.9"/>
<path fill="none" stroke="#2E368F" stroke-width="0.5" stroke-miterlimit="10" d="M296.1-36.5c-1.1,0-2,0.9-2,2l0,0c0,1.1,0.9,2,2,2
	c1.1,0,2-0.9,2-2l0,0C298.1-35.6,297.2-36.5,296.1-36.5L296.1-36.5L296.1-36.5z"/>
<path fill="#2E368F" d="M210.2-37.1c-0.1,0-0.1,0-0.2,0.1l-7.2,11.5c-0.1,0.2,0,0.3,0.2,0.3h14.4c0.2,0,0.3-0.1,0.2-0.3L210.3-37
	C210.3-37.1,210.2-37.1,210.2-37.1L210.2-37.1z"/>
<path fill="#2E368F" stroke="#2E368F" stroke-width="0.5" stroke-miterlimit="10" d="M161-37.4V-23c0,0.9,0.6,1.6,1.4,1.6h15.5
	c0.8,0,1.4-0.7,1.4-1.6v-14.4c0-0.9-0.6-1.6-1.4-1.6h-15.5C161.7-39,161-38.3,161-37.4z M161.8-37.4c0-0.4,0.3-0.7,0.6-0.7h15.5
	c0.3,0,0.6,0.3,0.6,0.7V-23c0,0.4-0.3,0.7-0.6,0.7h-15.5c-0.3,0-0.6-0.3-0.6-0.7V-37.4z"/>
<path fill="#2E368F" stroke="#2E368F" stroke-miterlimit="10" d="M170.1-34.2c-0.1-0.1-0.2-0.1-0.3,0c-0.1,0.1-0.1,0.2,0,0.3
	l3.9,3.9l-3.9,3.9c-0.1,0.1-0.1,0.2,0,0.3c0.1,0.1,0.2,0.1,0.3,0l4-4c0,0,0.1-0.1,0.1-0.2s0-0.1-0.1-0.2L170.1-34.2z"/>
<path fill="#2E368F" stroke="#2E368F" stroke-miterlimit="10" d="M167.1-34c-0.1-0.1-0.2-0.1-0.3,0c-0.1,0.1-0.1,0.2,0,0.3l3.9,3.9
	l-3.9,3.9c-0.1,0.1-0.1,0.2,0,0.3c0.1,0.1,0.2,0.1,0.3,0l4-4c0,0,0.1-0.1,0.1-0.2s0-0.1-0.1-0.2L167.1-34z"/>
<path fill="#2E368F" stroke="#2E368F" stroke-width="0.5" stroke-miterlimit="10" d="M120.9-37.4V-23c0,0.9,0.6,1.6,1.4,1.6h15.5
	c0.8,0,1.4-0.7,1.4-1.6v-14.4c0-0.9-0.6-1.6-1.4-1.6h-15.5C121.5-39,120.9-38.3,120.9-37.4z M121.7-37.4c0-0.4,0.3-0.7,0.6-0.7h15.5
	c0.3,0,0.6,0.3,0.6,0.7V-23c0,0.4-0.3,0.7-0.6,0.7h-15.5c-0.3,0-0.6-0.3-0.6-0.7V-37.4z"/>
<g>
	<path fill="#2E368F" stroke="#2E368F" stroke-miterlimit="10" d="M130.7-34.2c0.1-0.1,0.2-0.1,0.3,0c0.1,0.1,0.1,0.2,0,0.3
		l-3.9,3.9l3.9,3.9c0.1,0.1,0.1,0.2,0,0.3c-0.1,0.1-0.2,0.1-0.3,0l-4-4c0,0-0.1-0.1-0.1-0.2s0-0.1,0.1-0.2L130.7-34.2z"/>
	<path fill="#2E368F" stroke="#2E368F" stroke-miterlimit="10" d="M133.7-34c0.1-0.1,0.2-0.1,0.3,0c0.1,0.1,0.1,0.2,0,0.3l-3.9,3.9
		L134-26c0.1,0.1,0.1,0.2,0,0.3c-0.1,0.1-0.2,0.1-0.3,0l-4-4c0,0-0.1-0.1-0.1-0.2s0-0.1,0.1-0.2L133.7-34z"/>
</g>
<path fill="#2E368F" d="M254.9-30.5l-2.8,0.9l1.8,2.4c0.5,0.6,0.3,1.5-0.3,1.9c-0.3,0.2-0.5,0.3-0.8,0.3c-0.4,0-0.9-0.2-1.1-0.6
	l-1.8-2.4l-1.8,2.4c-0.3,0.4-0.7,0.6-1.1,0.6c-0.3,0-0.6-0.1-0.8-0.3c-0.6-0.5-0.8-1.3-0.3-1.9l1.8-2.4l-2.9-0.9
	c-0.7-0.2-1.1-1-0.9-1.8c0.2-0.7,1-1.1,1.8-0.9l2.9,0.9v-3c0-0.8,0.6-1.4,1.4-1.4c0.8,0,1.4,0.6,1.4,1.4v3l2.9-0.9
	c0.7-0.2,1.5,0.2,1.8,0.9C256-31.5,255.6-30.7,254.9-30.5z"/>
<path fill="#2E368F" stroke="#2E368F" stroke-width="0.5" stroke-miterlimit="10" d="M96-31.3c1.5-1.6,1.5-4.1-0.1-5.7
	c-0.8-0.8-1.8-1.2-2.9-1.2c-1.1,0-2.1,0.4-2.9,1.2l-3.4,3.4c-0.2,0.2-0.2,0.5,0,0.7c0.1,0.1,0.2,0.1,0.3,0.1c0.1,0,0.2,0,0.3-0.1
	l3.4-3.4c1.2-1.2,3.2-1.2,4.3,0c1.2,1.2,1.2,3.2,0,4.3l-8.5,8.5c-0.8,0.8-2.1,0.8-2.9,0c-0.8-0.8-0.8-2.1,0-2.9l6.9-6.9l0,0
	c0.4-0.4,1-0.4,1.4,0c0.2,0.2,0.3,0.4,0.3,0.7s-0.1,0.5-0.3,0.7l-6,6c-0.2,0.2-0.2,0.5,0,0.7c0.1,0.1,0.2,0.1,0.3,0.1
	c0.1,0,0.2,0,0.3-0.1l6-6c0.4-0.4,0.6-0.9,0.6-1.4c0-0.5-0.2-1-0.6-1.4c-0.7-0.7-1.9-0.8-2.7-0.1c0,0,0,0,0,0l-7,7
	c-1.2,1.2-1.2,3.1,0,4.2c0.6,0.6,1.4,0.9,2.1,0.9c0.8,0,1.5-0.3,2.1-0.9L96-31.3L96-31.3L96-31.3L96-31.3C96-31.3,96-31.3,96-31.3z"
	/>
<title>interface_004-information-detail-window-application</title>
<desc>Created with Sketch.</desc>
<path fill="#2E368F" stroke="#2E368F" stroke-width="0.5" stroke-miterlimit="10" d="M-20.2-20.5L-20.2-20.5l0-13.6
	c-0.3,0.2-0.5,0.5-0.8,0.7l0,12.1H-39v-13.4H-28c0.3-0.4,0.7-0.8,1-1.2c0.3-0.4,0.8-0.2,0.9,0.2c0.1,0,0.1,0.1,0.2,0.1c0,0,0,0,0,0
	c1.4,0,2.7,0,4.1,0c0,0,0-0.1,0.1-0.1c-0.1-0.1-0.1-0.3,0-0.5c0.1-0.3,0.3-0.5,0.4-0.8c-0.3,0-0.6-0.1-0.6-0.5c0-0.1-0.1-0.4,0-0.5
	c0,0-0.1,0.4-0.1,0.4c-0.1,0-0.2-0.2-0.3-0.2c-0.1,0-0.1-0.1-0.3,0c-0.2,0.1-0.4,0.3-0.5,0.4c0,0,0,0,0,0c0,0-0.1,0.1-0.1,0.1
	c-0.2,0.1-0.4,0.1-0.5,0c-0.1,0.1-0.2,0.2-0.3,0.4c-0.5,0.5-1.2-0.2-0.7-0.7c0.3-0.3,0.6-0.7,0.9-1h-15.8v18.1h19.2l0,0
	C-20.5-20.4-20.3-20.4-20.2-20.5L-20.2-20.5L-20.2-20.5z"/>
<rect x="-39" y="-37.8" fill="#FFFFFF" width="18.1" height="2.4"/>
<rect x="-38.3" y="-37" fill="#2E368F" stroke="#2E368F" stroke-width="0.5" stroke-miterlimit="10" width="0.8" height="0.8"/>
<rect x="-36.7" y="-37" fill="#2E368F" stroke="#2E368F" stroke-width="0.5" stroke-miterlimit="10" width="0.8" height="0.8"/>
<rect x="-35.1" y="-37" fill="#2E368F" stroke="#2E368F" stroke-width="0.5" stroke-miterlimit="10" width="0.8" height="0.8"/>
<path fill="#2E368F" stroke="#2E368F" stroke-width="0.5" stroke-miterlimit="10" d="M19.8-20.5L19.8-20.5l0-13.6
	c-0.3,0.2-0.5,0.5-0.8,0.7l0,12.1H1v-13.4H12c0.3-0.4,0.7-0.8,1-1.2c0.3-0.4,0.8-0.2,0.9,0.2c0.1,0,0.1,0.1,0.2,0.1c0,0,0,0,0,0
	c1.4,0,2.7,0,4.1,0c0,0,0-0.1,0.1-0.1c-0.1-0.1-0.1-0.3,0-0.5c0.1-0.3,0.3-0.5,0.4-0.8c-0.3,0-0.6-0.1-0.6-0.5c0-0.1-0.1-0.4,0-0.5
	c0,0-0.1,0.4-0.1,0.4c-0.1,0-0.2-0.2-0.3-0.2c-0.1,0-0.1-0.1-0.3,0c-0.2,0.1-0.4,0.3-0.5,0.4c0,0,0,0,0,0c0,0-0.1,0.1-0.1,0.1
	c-0.2,0.1-0.4,0.1-0.5,0c-0.1,0.1-0.2,0.2-0.3,0.4c-0.5,0.5-1.2-0.2-0.7-0.7c0.3-0.3,0.6-0.7,0.9-1H0.2v18.1h19.2l0,0
	C19.5-20.4,19.7-20.4,19.8-20.5L19.8-20.5L19.8-20.5z"/>
<rect x="1" y="-37.8" fill="#FFFFFF" width="18.1" height="2.4"/>
<rect x="3.3" y="-37" fill="#2E368F" stroke="#2E368F" stroke-width="0.5" stroke-miterlimit="10" width="0.8" height="0.8"/>
<rect x="1.7" y="-37" fill="#2E368F" stroke="#2E368F" stroke-width="0.5" stroke-miterlimit="10" width="0.8" height="0.8"/>
<rect x="4.9" y="-37" fill="#2E368F" stroke="#2E368F" stroke-width="0.5" stroke-miterlimit="10" width="0.8" height="0.8"/>
<g>
	<path fill="#2E368F" d="M58.1-36.3c0.2,0.2,0.2,0.5,0,0.7l-0.2,0.2l-0.7-0.7l0.2-0.2C57.6-36.5,57.9-36.5,58.1-36.3z"/>
	<polygon fill="#2E368F" points="54.8,-33.7 54.5,-32.8 55.4,-33 57.7,-35.2 57,-35.9 	"/>
</g>
<rect x="-26.4" y="-36.2" fill="#FFFFFF" width="5" height="1.6"/>
<g>
	<path fill="#2E368F" stroke="#2E368F" stroke-width="0.15" stroke-miterlimit="10" d="M-20.5-36.7l-1.4-1.3
		c-0.4-0.4-1.1-0.3-1.4,0.1l-7.2,8.1l-1.4,4.5l4.3-1.8l7.2-8.1C-20-35.6-20.1-36.3-20.5-36.7z M-30.7-27.4l0.5-1.8l1.9,1.7l-1.7,0.7
		L-30.7-27.4z M-29.5-29.2l5.7-6.4l0.4,0.4l-5.7,6.4L-29.5-29.2z M-29.6-29.3l-0.4-0.3l5.7-6.4l0.4,0.3L-29.6-29.3z M-28.9-28.6
		l5.7-6.4l0.4,0.4l-5.7,6.4L-28.9-28.6z M-24-36.3l0.2-0.2l2.1,1.9l-0.2,0.2L-24-36.3z M-27.9-27.8l-0.4-0.3l5.7-6.4l0.4,0.3
		L-27.9-27.8z M-20.9-35.6l-0.6,0.6l-2.1-1.9l0.6-0.6c0.1-0.2,0.4-0.2,0.6,0l1.4,1.3C-20.7-36.1-20.7-35.8-20.9-35.6z"/>
</g>
<path fill="#FFFFFF" d="M17.4-38.5c0,0-0.8,0.9-0.9,1c-0.1,0-2.5,1.2-2.5,1.2s-0.7-0.1-0.7,0.1s0.3,3.6,0.3,3.6l1.3,2.2
	c0,0,2.1-2.1,2.2-2.2c0.1-0.1,2.8-2.2,2.8-2.2l-1.7-2.6L17.4-38.5z"/>
<g>
	<path fill="#2E368F" stroke="#2E368F" stroke-width="0.15" stroke-miterlimit="10" d="M19.3-37.6c0.6,0.6,0.6,1.5,0,2.1l-0.7,0.7
		l-2.1-2.1l0.7-0.7C17.8-38.2,18.8-38.2,19.3-37.6z"/>
	<polygon fill="#2E368F" stroke="#2E368F" stroke-width="0.15" stroke-miterlimit="10" points="8.9,-29.3 8.3,-26.5 11,-27.2 
		18,-34.1 15.9,-36.2 	"/>
</g>
<path fill="#2E368F" stroke="#2E368F" stroke-width="0.75" stroke-miterlimit="10" d="M-97.2,92.7h-1.6v-1.6c0-0.1-0.1-0.2-0.2-0.2
	c-0.1,0-0.2,0.1-0.2,0.2v1.6h-1.6c-0.1,0-0.2,0.1-0.2,0.2c0,0.1,0.1,0.2,0.2,0.2h1.6v1.6c0,0.1,0.1,0.2,0.2,0.2
	c0.1,0,0.2-0.1,0.2-0.2v-1.6h1.6c0.1,0,0.2-0.1,0.2-0.2C-97,92.8-97.1,92.7-97.2,92.7z"/>
<path fill="#2E368F" stroke="#2E368F" stroke-width="0.75" stroke-miterlimit="10" d="M-129,123.1c-2.6,0-4.6,2.1-4.6,4.6
	c0,2.6,2.1,4.6,4.6,4.6s4.6-2.1,4.6-4.6C-124.3,125.2-126.4,123.1-129,123.1z M-129,132c-2.3,0-4.2-1.9-4.2-4.2
	c0-2.3,1.9-4.2,4.2-4.2s4.2,1.9,4.2,4.2C-124.8,130.1-126.7,132-129,132z"/>
<path fill="#2E368F" stroke="#2E368F" stroke-width="0.75" stroke-miterlimit="10" d="M-127.3,127.6h-1.6V126c0-0.1-0.1-0.2-0.2-0.2
	c-0.1,0-0.2,0.1-0.2,0.2v1.6h-1.6c-0.1,0-0.2,0.1-0.2,0.2c0,0.1,0.1,0.2,0.2,0.2h1.6v1.6c0,0.1,0.1,0.2,0.2,0.2
	c0.1,0,0.2-0.1,0.2-0.2V128h1.6c0.1,0,0.2-0.1,0.2-0.2C-127.1,127.7-127.2,127.6-127.3,127.6z"/>
<rect x="324.7" y="51.9" fill="#2E368F" width="6" height="8.1"/>
<polygon fill="#2E368F" points="328.6,50 322.6,50 322.6,58.1 323.9,58.1 323.9,51.3 328.6,51.3 "/>
<polygon fill="#2E368F" points="326.6,47.9 320.6,47.9 320.6,56.1 322,56.1 322,49.3 326.6,49.3 "/>
<g>
</g>
<g>
</g>
<g>
</g>
<g>
</g>
<g>
</g>
<g>
</g>
<g>
</g>
<g>
</g>
<g>
</g>
<g>
</g>
<g>
</g>
<g>
</g>
<g>
</g>
<g>
</g>
<g>
</g>
<g>
</g>
<g>
</g>
<g>
</g>
<g>
</g>
<g>
</g>
<g>
</g>
<g>
</g>
<g>
</g>
<g>
</g>
<g>
</g>
<g>
</g>
<g>
</g>
<g>
</g>
<g>
</g>
<g>
</g>
<g>
	<g>
		<path fill="#2E368F" d="M-127.7,79.6c-5.2,0-9.3,4.2-9.3,9.3c0,5.2,4.2,9.3,9.3,9.3h9.3v-9.3C-118.4,83.7-122.6,79.6-127.7,79.6z
			 M-127.7,96.5c-4.2,0-7.6-3.4-7.6-7.6c0-4.2,3.4-7.6,7.6-7.6c4.2,0,7.6,3.4,7.6,7.6C-120.1,93.1-123.5,96.5-127.7,96.5z"/>
	</g>
	<path fill="#2E368F" d="M-124,88.2h-3.1v-3.1c0-0.4-0.3-0.7-0.7-0.7c-0.4,0-0.7,0.3-0.7,0.7v3.1h-3.1c-0.4,0-0.7,0.3-0.7,0.7
		c0,0.4,0.3,0.7,0.7,0.7h3.1v3.1c0,0.4,0.3,0.7,0.7,0.7c0.4,0,0.7-0.3,0.7-0.7v-3.1h3.1c0.4,0,0.7-0.3,0.7-0.7
		C-123.2,88.5-123.6,88.2-124,88.2z"/>
</g>
<path fill="#2E368F" d="M-120.5,122.4v-2.9h-2.9v-1.4h-1.6v1.4h-8.2v-1.4h-1.6v1.4h-2.9v15.7h2.9v2.9h17.1v-15.7H-120.5z
	 M-136.3,134v-13h1.5v1.5h1.6V121h8.2v1.5h1.6V121h1.5v13H-136.3z M-119,136.9h-14.2v-1.6h12.6v-11.5h1.6V136.9z"/>
<path fill="#1D1D1B" d="M-122.8,153.2h-2.5c0-1.4-1.1-2.5-2.5-2.5c-1.4,0-2.5,1.1-2.5,2.5h-2.5v2.5h10V153.2z M-127.8,154.5
	c-0.7,0-1.2-0.6-1.2-1.2c0-0.7,0.6-1.2,1.2-1.2c0.7,0,1.2,0.6,1.2,1.2C-126.6,153.9-127.1,154.5-127.8,154.5z"/>
<polygon fill="#1D1D1B" points="-121.6,153.2 -121.6,157 -134,157 -134,153.2 -136.5,153.2 -136.5,170.7 -119.1,170.7 -119.1,153.2 
	"/>
</svg>
