<?xml version="1.0" encoding="utf-8"?>
<!-- Generator: Adobe Illustrator 18.1.1, SVG Export Plug-In . SVG Version: 6.00 Build 0)  -->
<svg version="1.1" id="Layer_1" xmlns="http://www.w3.org/2000/svg" xmlns:xlink="http://www.w3.org/1999/xlink" x="0px" y="0px"
	 viewBox="0 0 20 20" enable-background="new 0 0 20 20" xml:space="preserve">
<path fill="#2E368F" stroke="#2E368F" stroke-width="0.75" stroke-miterlimit="10" d="M290.6,170l4-4c0.1-0.1,0.1-0.2,0-0.3
	s-0.2-0.1-0.3,0l-4,4l-4-4c-0.1-0.1-0.2-0.1-0.3,0c-0.1,0.1-0.1,0.2,0,0.3l4,4l-4,4c-0.1,0.1-0.1,0.2,0,0.3c0,0,0.1,0.1,0.2,0.1
	s0.1,0,0.2-0.1l4-4l4,4c0,0,0.1,0.1,0.2,0.1s0.1,0,0.2-0.1c0.1-0.1,0.1-0.2,0-0.3L290.6,170z"/>
<path fill="#2E368F" stroke="#2E368F" stroke-width="0.75" stroke-miterlimit="10" d="M373.3,126.1c0.1-0.1,0.1-0.2,0-0.3
	c-0.1-0.1-0.2-0.1-0.3,0l-1.8,1.8l0.3,0.3L373.3,126.1z"/>
<path fill="#2E368F" stroke="#2E368F" stroke-width="0.75" stroke-miterlimit="10" d="M373,134.1c0,0,0.1,0.1,0.2,0.1
	c0.1,0,0.1,0,0.2-0.1c0.1-0.1,0.1-0.2,0-0.3l-2.2-2.2l-0.3,0.3L373,134.1z"/>
<path fill="#2E368F" stroke="#2E368F" stroke-width="0.75" stroke-miterlimit="10" d="M369.5,129.9l0.3-0.3l-0.3-0.3l-0.3,0.3
	l-3.8-3.8c-0.1-0.1-0.2-0.1-0.3,0c-0.1,0.1-0.1,0.2,0,0.3l3.8,3.8l-3.8,3.8c-0.1,0.1-0.1,0.2,0,0.3c0,0,0.1,0.1,0.2,0.1
	c0.1,0,0.1,0,0.2-0.1l3.8-3.8l1.3,1.3l0.3-0.3L369.5,129.9z"/>
<path fill="#2E368F" stroke="#2E368F" stroke-width="0.75" stroke-miterlimit="10" d="M367.9,134c-0.1,0.1-0.1,0.2,0,0.3
	c0,0,0.1,0.1,0.2,0.1c0.1,0,0.1,0,0.2-0.1l1.9-1.9l-0.3-0.3L367.9,134z"/>
<path fill="#2E368F" stroke="#2E368F" stroke-width="0.75" stroke-miterlimit="10" d="M368.2,126.1c-0.1-0.1-0.2-0.1-0.3,0
	c-0.1,0.1-0.1,0.2,0,0.3l2.2,2.2l0.3-0.3L368.2,126.1z"/>
<path fill="#2E368F" stroke="#2E368F" stroke-width="0.75" stroke-miterlimit="10" d="M372.4,130.2l3.8-3.8c0.1-0.1,0.1-0.2,0-0.3
	c-0.1-0.1-0.2-0.1-0.3,0l-3.8,3.8l-1.3-1.3l-0.3,0.3l1.3,1.3l-0.4,0.4l0.3,0.3l0.4-0.4l3.8,3.8c0,0,0.1,0.1,0.2,0.1s0.1,0,0.2-0.1
	c0.1-0.1,0.1-0.2,0-0.3L372.4,130.2z"/>
<rect x="370.5" y="131.3" transform="matrix(-0.7072 -0.707 0.707 -0.7072 539.9683 486.6731)" fill="#2E368F" stroke="#2E368F" stroke-width="0.75" stroke-miterlimit="10" width="0.5" height="0.5"/>
<rect x="370.2" y="128.4" transform="matrix(0.7067 0.7075 -0.7075 0.7067 199.6566 -224.3812)" fill="#2E368F" stroke="#2E368F" stroke-width="0.75" stroke-miterlimit="10" width="0.5" height="0.5"/>
<g>
	<path fill="#2E368F" stroke="#2E368F" stroke-width="0.45" stroke-miterlimit="10" d="M216.7,86.7h-2.4c0.1-0.2,0.2-0.5,0.2-0.8v-2
		c0-1.8-1.5-3.3-3.3-3.3h-2.5c-1.8,0-3.3,1.5-3.3,3.3v2c0,0.3,0.1,0.6,0.2,0.8h-2.4c-1,0-1.8,0.8-1.8,1.8v8.3c0,1,0.8,1.8,1.8,1.8
		h13.5c1,0,1.8-0.8,1.8-1.8v-8.3C218.5,87.5,217.7,86.7,216.7,86.7z M206.3,85.9v-2c0-1.3,1.1-2.3,2.3-2.3h2.5
		c1.3,0,2.3,1.1,2.3,2.3v2c0,0.4-0.4,0.8-0.8,0.8h-5.6C206.7,86.7,206.3,86.4,206.3,85.9z M217.5,96.8c0,0.4-0.4,0.8-0.8,0.8h-13.5
		c-0.4,0-0.8-0.4-0.8-0.8v-8.3c0-0.4,0.4-0.8,0.8-0.8h4h5.6h4c0.4,0,0.8,0.4,0.8,0.8V96.8z"/>
	<path fill="#2E368F" stroke="#2E368F" stroke-width="0.45" stroke-miterlimit="10" d="M209.9,90.1c-1,0-1.9,0.8-1.9,1.9
		c0,0.9,0.6,1.6,1.4,1.8v1.6c0,0.3,0.2,0.5,0.5,0.5s0.5-0.2,0.5-0.5v-1.6c0.8-0.2,1.4-0.9,1.4-1.8C211.8,90.9,211,90.1,209.9,90.1z
		 M209.9,92.9c-0.5,0-0.9-0.4-0.9-0.9c0-0.5,0.4-0.9,0.9-0.9s0.9,0.4,0.9,0.9C210.9,92.5,210.4,92.9,209.9,92.9z"/>
</g>
<g>
	<path fill="#2E368F" stroke="#2E368F" stroke-width="0.45" stroke-miterlimit="10" d="M257.8,87.7h-2.4c0.1-0.2,0.2-0.5,0.2-0.8v-2
		c0-1.8-1.5-3.3-3.3-3.3h-2.5c-1.8,0-3.3,1.5-3.3,3.3c0,0.3,0.2,0.5,0.5,0.5s0.5-0.2,0.5-0.5c0-1.3,1.1-2.3,2.3-2.3h2.5
		c1.3,0,2.3,1.1,2.3,2.3v2c0,0.4-0.4,0.8-0.8,0.8h-5.6h-4c-1,0-1.8,0.8-1.8,1.8v8.3c0,1,0.8,1.8,1.8,1.8h13.5c1,0,1.8-0.8,1.8-1.8
		v-8.3C259.5,88.5,258.7,87.7,257.8,87.7z M258.6,97.7c0,0.4-0.4,0.8-0.8,0.8h-13.5c-0.4,0-0.8-0.4-0.8-0.8v-8.3
		c0-0.4,0.4-0.8,0.8-0.8h4h5.6h4c0.4,0,0.8,0.4,0.8,0.8V97.7z"/>
	<path fill="#2E368F" stroke="#2E368F" stroke-width="0.45" stroke-miterlimit="10" d="M251,91c-1,0-1.9,0.8-1.9,1.9
		c0,0.9,0.6,1.6,1.4,1.8v1.6c0,0.3,0.2,0.5,0.5,0.5s0.5-0.2,0.5-0.5v-1.6c0.8-0.2,1.4-0.9,1.4-1.8C252.9,91.9,252,91,251,91z
		 M251,93.8c-0.5,0-0.9-0.4-0.9-0.9s0.4-0.9,0.9-0.9s0.9,0.4,0.9,0.9S251.5,93.8,251,93.8z"/>
</g>
<path fill="#2E368F" d="M97.7,81H83.3c-1,0-1.8,0.8-1.8,1.8v14.4c0,1,0.8,1.8,1.8,1.8h14.4c1,0,1.8-0.8,1.8-1.8V82.8
	C99.5,81.8,98.7,81,97.7,81z M95.3,87.6c0,0-5.8,5.8-5.8,5.8c-0.3,0.3-0.5,0.2-0.8,0L86,90.6c-0.3-0.3-0.3-0.5,0-0.8
	c0.3-0.3,0.5-0.3,0.8,0l2.4,2.4l5.3-5.4c0.3-0.3,0.5-0.3,0.8,0C95.6,87.1,95.6,87.4,95.3,87.6z"/>
<path fill="#2E368F" stroke="#2E368F" stroke-width="0.5" stroke-miterlimit="10" d="M57.6,162c0.4,0,0.8,0.4,0.8,0.8v14.3
	c0,0.4-0.4,0.8-0.8,0.8H43.3c-0.4,0-0.8-0.4-0.8-0.8v-14.3c0-0.4,0.4-0.8,0.8-0.8L57.6,162 M57.6,160.9H43.3c-1,0-1.9,0.8-1.9,1.9
	v14.3c0,1,0.8,1.9,1.9,1.9h14.3c1,0,1.9-0.8,1.9-1.9v-14.3C59.4,161.8,58.6,160.9,57.6,160.9L57.6,160.9z"/>
<path fill="#2E368F" stroke="#2E368F" stroke-miterlimit="10" d="M376.6,50.2c0.1-0.1,0.1-0.2,0.1-0.3c0-0.1,0-0.2-0.1-0.3l-8.2-8.2
	c-0.2-0.2-0.5-0.2-0.6,0s-0.2,0.5,0,0.6l7.8,7.8l-7.8,7.8c-0.2,0.2-0.2,0.5,0,0.6s0.5,0.2,0.6,0L376.6,50.2z"/>
<path fill="#2E368F" stroke="#2E368F" stroke-miterlimit="10" d="M91.1,166c-0.1-0.1-0.2-0.1-0.3-0.1c-0.1,0-0.2,0-0.3,0.1l-8.2,8.2
	c-0.2,0.2-0.2,0.5,0,0.6c0.2,0.2,0.5,0.2,0.6,0l7.8-7.8l7.8,7.8c0.2,0.2,0.5,0.2,0.6,0c0.2-0.2,0.2-0.5,0-0.6L91.1,166z"/>
<path fill="#2E368F" stroke="#2E368F" stroke-miterlimit="10" d="M250.1,134.9c0.1,0.1,0.2,0.1,0.3,0.1s0.2,0,0.3-0.1l8.2-8.2
	c0.2-0.2,0.2-0.5,0-0.6c-0.2-0.2-0.5-0.2-0.6,0l-7.8,7.8l-7.8-7.8c-0.2-0.2-0.5-0.2-0.6,0s-0.2,0.5,0,0.6L250.1,134.9z"/>
<g transform="matrix( 1, 0, 0, 1, 0,0) ">
	<g>
		<g id="a_3_">
			<path fill="#2E368F" stroke="#2E368F" stroke-width="0.5" stroke-miterlimit="10" d="M120.9,125.4v7.2c0,0.9,0.3,1.7,1,2.4
				c0.7,0.7,1.5,1,2.4,1v2.6c0,0.1,0,0.2,0.1,0.3c0,0.1,0.1,0.1,0.2,0.2c0.1,0,0.1,0,0.2,0c0.1,0,0.2,0,0.3-0.1l3-2.9h8.3
				c1,0,1.8-0.3,2.5-1c0.7-0.7,1-1.5,1-2.4v-7.2c0-1-0.3-1.8-1-2.4c-0.7-0.7-1.5-1-2.5-1h-12.1c-1,0-1.8,0.3-2.5,1
				C121.2,123.6,120.9,124.4,120.9,125.4 M124.4,122.9h12.1c0.7,0,1.3,0.2,1.8,0.7c0.5,0.5,0.8,1.1,0.8,1.8v7.2
				c0,0.7-0.3,1.3-0.8,1.8c-0.5,0.5-1.1,0.8-1.8,0.8H128c-0.1,0-0.2,0-0.3,0.1l-2.3,2.3v-2c0-0.1,0-0.2-0.1-0.3
				c-0.1-0.1-0.2-0.1-0.3-0.1h-0.4c-0.7,0-1.3-0.3-1.8-0.8c-0.5-0.5-0.8-1.1-0.8-1.8v-7.2c0-0.7,0.3-1.3,0.8-1.8
				C123.1,123.1,123.7,122.9,124.4,122.9z"/>
			<path fill="#2E368F" stroke="#2E368F" stroke-width="0.5" stroke-miterlimit="10" d="M135.6,129.8c0.2-0.2,0.4-0.5,0.4-0.8
				c0-0.3-0.1-0.6-0.4-0.8c-0.2-0.2-0.5-0.4-0.9-0.4c-0.3,0-0.6,0.1-0.9,0.4c-0.2,0.2-0.4,0.5-0.4,0.8c0,0.3,0.1,0.6,0.4,0.8
				c0.2,0.2,0.5,0.3,0.9,0.3C135.1,130.2,135.4,130,135.6,129.8 M127.4,129c0-0.3-0.1-0.6-0.4-0.8c-0.2-0.2-0.5-0.4-0.9-0.4
				c-0.3,0-0.6,0.1-0.9,0.4c-0.2,0.2-0.4,0.5-0.4,0.8c0,0.3,0.1,0.6,0.4,0.8c0.2,0.2,0.5,0.3,0.9,0.3c0.3,0,0.6-0.1,0.9-0.3
				C127.2,129.6,127.4,129.3,127.4,129 M129.6,128.1c-0.2,0.2-0.4,0.5-0.4,0.8c0,0.3,0.1,0.6,0.4,0.8c0.2,0.2,0.5,0.3,0.9,0.3
				s0.6-0.1,0.9-0.3c0.2-0.2,0.4-0.5,0.4-0.8c0-0.3-0.1-0.6-0.4-0.8c-0.2-0.2-0.5-0.4-0.9-0.4S129.9,127.9,129.6,128.1z"/>
		</g>
	</g>
</g>
<path fill="#2E368F" stroke="#2E368F" stroke-width="0.45" stroke-miterlimit="10" d="M14,177.4h-2v2H0.9v-15.2h2v-2h2v-2h11.1v15.2
	h-2L14,177.4L14,177.4z M11.5,164.8H1.4V179h10.1V164.8z M2.9,166.8v-0.5H10v0.5H2.9z M2.9,168.8v-0.5H10v0.5H2.9z M2.9,170.9v-0.5
	H10v0.5H2.9z M2.9,172.9v-0.5H10v0.5H2.9z M2.9,174.9v-0.5H10v0.5H2.9z M2.9,176.9v-0.5H10v0.5H2.9z M3.4,162.8v1.5H12v12.6h1.5
	v-14.2H3.4z M5.4,160.8v1.5H14v12.6h1.5v-14.2H5.4z"/>
<path fill="#2E368F" d="M89.9,200.2c0,0-0.1,0-0.1,0.1l-5.2,8.4c-0.1,0.1,0,0.2,0.1,0.2h10.4c0.1,0,0.2-0.1,0.1-0.2l-5.2-8.4
	C89.9,200.2,89.9,200.2,89.9,200.2L89.9,200.2z M84.6,210.6c-0.1,0-0.2,0.1-0.1,0.2l5.2,8.4c0.1,0.1,0.2,0.1,0.2,0l5.2-8.4
	c0.1-0.1,0-0.2-0.1-0.2H84.6L84.6,210.6z"/>
<path fill="#2E368F" stroke="#2E368F" stroke-width="0.75" stroke-miterlimit="10" d="M370.2,120.5c-5.3,0-9.6,4.3-9.6,9.6
	c0,5.3,4.3,9.6,9.6,9.6s9.6-4.3,9.6-9.6C379.8,124.8,375.5,120.5,370.2,120.5z M370.2,138.8c-4.8,0-8.7-3.9-8.7-8.7s3.9-8.7,8.7-8.7
	s8.7,3.9,8.7,8.7S375,138.8,370.2,138.8z"/>
<g>
	<path fill="#2E368F" stroke="#2E368F" stroke-width="0.75" stroke-miterlimit="10" d="M170,170.2c-1.9,0-3.5,1.2-4.1,2.9h0.4
		c0.6-1.6,1.9-2.5,3.7-2.5c2.1,0,3.9,1.8,3.9,3.9s-1.8,3.9-3.9,3.9c-1.6,0-2.9-1-3.5-2.3h-0.4c0.6,1.6,2.1,2.7,3.9,2.7
		c2.3,0,4.3-1.9,4.3-4.3C174.3,172.1,172.3,170.2,170,170.2z"/>
	<path fill="#2E368F" stroke="#2E368F" stroke-width="0.75" stroke-miterlimit="10" d="M170,171.8v3.3h2.5v0.4h-2.9
		c0-1.2,0-2.7,0-3.7H170z"/>
</g>
<path fill="#2E368F" stroke="#2E368F" stroke-miterlimit="10" d="M138.9,170.1c-0.2,0-0.3,0.1-0.3,0.3v5c0,1.6-1.3,2.9-2.9,2.9
	h-10.6c-1.6,0-2.9-1.3-2.9-2.9v-8.4v-2.2c0-1.6,1.3-2.9,2.9-2.9h4.9c0.2,0,0.3-0.1,0.3-0.3s-0.1-0.3-0.3-0.3h-4.9
	c-1.9,0-3.5,1.6-3.5,3.5v2.2v8.4c0,1.9,1.6,3.5,3.5,3.5h10.6c1.9,0,3.5-1.6,3.5-3.5v-5C139.1,170.2,139,170.1,138.9,170.1z"/>
<g>
	<g>
		<path fill="#2E368F" d="M139.4,161.1c0.6,0.6,0.6,1.5,0,2.1l-0.7,0.7l-2.1-2.1l0.7-0.7C137.9,160.6,138.9,160.6,139.4,161.1z"/>
		<polygon fill="#2E368F" points="129.2,169.3 128.5,172.1 131.2,171.4 138.1,164.5 136,162.5 		"/>
	</g>
</g>
<path fill="#2E368F" stroke="#2E368F" stroke-width="0.75" stroke-miterlimit="10" d="M298.8,210.3c-0.2,0-0.3,0.1-0.3,0.3v5
	c0,1.6-1.3,2.9-2.9,2.9h-10.5c-1.6,0-2.9-1.3-2.9-2.9v-8.4V205c0-1.6,1.3-2.9,2.9-2.9h4.9c0.2,0,0.3-0.1,0.3-0.3
	c0-0.2-0.1-0.3-0.3-0.3h-4.9c-1.9,0-3.5,1.5-3.5,3.5v2.2v8.4c0,1.9,1.5,3.5,3.5,3.5h10.5c1.9,0,3.5-1.5,3.5-3.5v-5
	C299.1,210.4,299,210.3,298.8,210.3z"/>
<path fill="#2E368F" stroke="#2E368F" stroke-width="0.75" stroke-miterlimit="10" d="M259.3,49.9c-0.2,0-0.3,0.1-0.3,0.3v5.3
	c0,1.7-1.4,3.1-3.1,3.1h-11.3c-1.7,0-3.1-1.4-3.1-3.1v-9v-2.3c0-1.7,1.4-3.1,3.1-3.1h5.3c0.2,0,0.3-0.1,0.3-0.3
	c0-0.2-0.1-0.3-0.3-0.3h-5.3c-2,0-3.7,1.7-3.7,3.7v2.3v9c0,2,1.7,3.7,3.7,3.7h11.3c2,0,3.7-1.7,3.7-3.7v-5.3
	C259.6,50.1,259.5,49.9,259.3,49.9z"/>
<g>
	<path fill="#2E368F" d="M260,40.4c0.6,0.6,0.6,1.6,0,2.2l-0.7,0.7l-2.2-2.2l0.7-0.7C258.4,39.8,259.4,39.8,260,40.4z"/>
	<polygon fill="#2E368F" points="249,49.1 248.3,52.1 251.2,51.3 258.5,44 256.3,41.8 	"/>
</g>
<path fill="#2E368F" stroke="#2E368F" stroke-width="0.75" stroke-miterlimit="10" d="M178.4,49h-7.1v-7.1c0-0.5-0.4-0.8-0.8-0.8
	s-0.8,0.4-0.8,0.8V49h-7.1c-0.5,0-0.8,0.4-0.8,0.8c0,0.5,0.4,0.8,0.8,0.8h7.1v7.1c0,0.5,0.4,0.8,0.8,0.8s0.8-0.4,0.8-0.8v-7.1h7.1
	c0.5,0,0.8-0.4,0.8-0.8C179.2,49.4,178.9,49,178.4,49z"/>
<path fill="#2E368F" stroke="#2E368F" stroke-width="0.75" stroke-miterlimit="10" d="M139.3,58.1l-4.2-4.2c2.7-3,2.6-7.7-0.3-10.6
	c-3-3-7.9-3-11,0c-3,3-3,7.9,0,11c1.5,1.5,3.5,2.3,5.5,2.3c1.8,0,3.7-0.7,5.1-2l4.2,4.2c0.1,0.1,0.2,0.1,0.3,0.1s0.2,0,0.3-0.1
	C139.5,58.6,139.5,58.3,139.3,58.1z M124.4,53.6c-2.7-2.7-2.7-7,0-9.7c1.3-1.3,3.1-2,4.8-2c1.8,0,3.5,0.7,4.8,2c2.7,2.7,2.7,7,0,9.7
	C131.4,56.3,127.1,56.3,124.4,53.6z"/>
<path fill="#2E368F" stroke="#2E368F" stroke-width="0.75" stroke-miterlimit="10" d="M215.3,178l-2.1-2.1c1.4-1.5,1.3-3.9-0.2-5.4
	c-1.5-1.5-4-1.5-5.5,0c-1.5,1.5-1.5,4,0,5.5c0.8,0.8,1.8,1.1,2.8,1.1c0.9,0,1.9-0.3,2.6-1l2.1,2.1c0,0,0.1,0.1,0.2,0.1
	c0.1,0,0.1,0,0.2-0.1C215.4,178.3,215.4,178.1,215.3,178z M207.8,175.7c-1.3-1.3-1.3-3.5,0-4.9c0.7-0.7,1.6-1,2.4-1
	c0.9,0,1.8,0.3,2.4,1c1.3,1.3,1.3,3.5,0,4.9C211.3,177.1,209.1,177.1,207.8,175.7z"/>
<path fill="#2E368F" stroke="#2E368F" stroke-width="0.75" stroke-miterlimit="10" d="M10.4,40.8c-5,0-9.1,4.1-9.1,9.1
	c0,5,4.1,9.1,9.1,9.1s9.1-4.1,9.1-9.1C19.6,44.9,15.5,40.8,10.4,40.8z M10.4,58.2c-4.6,0-8.3-3.7-8.3-8.3c0-4.6,3.7-8.3,8.3-8.3
	s8.3,3.7,8.3,8.3C18.8,54.5,15,58.2,10.4,58.2z"/>
<path fill="#2E368F" stroke="#2E368F" stroke-miterlimit="10" d="M219.8,41.2v5c0,0.2-0.1,0.3-0.3,0.3s-0.3-0.1-0.3-0.3v-4.4
	l-8.6,8.6c-0.1,0.1-0.1,0.1-0.2,0.1s-0.1,0-0.2-0.1c-0.1-0.1-0.1-0.3,0-0.4l8.6-8.6h-4.4c-0.2,0-0.3-0.1-0.3-0.3
	c0-0.2,0.1-0.3,0.3-0.3h5C219.7,40.9,219.8,41,219.8,41.2z"/>
<path fill="#2E368F" stroke="#2E368F" stroke-width="0.75" stroke-miterlimit="10" d="M219,50.2c-0.2,0-0.3,0.1-0.3,0.3v5.1
	c0,1.7-1.3,3-3,3h-10.9c-1.7,0-3-1.3-3-3V47v-2.2c0-1.7,1.3-3,3-3h5.1c0.2,0,0.3-0.1,0.3-0.3c0-0.2-0.1-0.3-0.3-0.3h-5.1
	c-2,0-3.6,1.6-3.6,3.6V47v8.6c0,2,1.6,3.6,3.6,3.6h10.9c2,0,3.6-1.6,3.6-3.6v-5.1C219.3,50.3,219.2,50.2,219,50.2z"/>
<path fill="#2E368F" stroke="#2E368F" stroke-width="0.5" stroke-miterlimit="10" d="M59.8,53.7v-7.9c0-0.2,0.1-1.8-0.5-2.5
	c-0.4-0.5-1.2-0.6-2-0.6h-0.4c-0.1,0-0.3,0-0.6,0V42c0-0.2-0.2-0.4-0.4-0.4c-0.2,0-0.4,0.2-0.4,0.4v0.8c-2.5,0-8,0-10.5,0V42
	c0-0.2-0.2-0.4-0.4-0.4c-0.2,0-0.2,0.2-0.2,0.4v0.8c-0.3,0-0.5,0-0.6,0h-0.3c-0.9,0-1.7,0-2,0.6C40.9,44,41,45.6,41,45.8v11.6
	c0,0.2,0.2,0.4,0.4,0.4h14.5c0.1,0,0.2,0,0.3-0.1l0,0l3.6-3.7l0,0l0,0l0,0c0,0,0,0,0-0.1S59.8,53.8,59.8,53.7z M42,43.8
	c0.2-0.3,0.9-0.3,1.6-0.3h0.4c0.1,0,0.3,0,0.6,0V44c0,0.2,0.2,0.4,0.4,0.4s0.3-0.2,0.3-0.4v-0.5c2.5,0,8,0,10.5,0V44
	c0,0.2,0.2,0.4,0.4,0.4s0.4-0.2,0.4-0.4v-0.5c0.3,0,0.5,0,0.6,0h0.4c0.7,0,1.3,0,1.6,0.3c0.1,0.3,0.1,1.1,0.1,1.7H41.7
	C41.7,44.9,41.8,44.1,42,43.8z M41.7,46.2h17.4v7.2h-3.3c-0.2,0-0.4,0.2-0.4,0.4v3.4H41.7V46.2z M58.6,54.1l-2.4,2.5v-2.5H58.6z"/>
<g>
	<rect x="45.4" y="48.2" fill="#2E368F" width="1.9" height="1.4"/>
	<rect x="48.1" y="48.2" fill="#2E368F" width="1.9" height="1.4"/>
	<rect x="50.9" y="48.2" fill="#2E368F" width="1.9" height="1.4"/>
	<rect x="53.5" y="48.2" fill="#2E368F" width="1.9" height="1.4"/>
	<rect x="45.4" y="50.3" fill="#2E368F" width="1.9" height="1.4"/>
	<rect x="48.1" y="50.3" fill="#2E368F" width="1.9" height="1.4"/>
	<rect x="50.9" y="50.3" fill="#2E368F" width="1.9" height="1.4"/>
	<rect x="53.5" y="50.3" fill="#2E368F" width="1.9" height="1.4"/>
	<rect x="45.4" y="52.6" fill="#2E368F" width="1.9" height="1.4"/>
	<rect x="48.1" y="52.6" fill="#2E368F" width="1.9" height="1.4"/>
	<rect x="50.9" y="52.6" fill="#2E368F" width="1.9" height="1.4"/>
	<rect x="53.5" y="52.6" fill="#2E368F" width="1.9" height="1.4"/>
</g>
<g>
	<g>
		<path fill="#EF3C24" d="M91,41c-0.1-0.2-0.3-0.3-0.5-0.3c-0.2,0-0.4,0.1-0.5,0.3l-9.2,16c-0.1,0.2-0.1,0.4,0,0.6S81,58,81.2,58
			h18.5l0,0c0.3,0,0.6-0.3,0.6-0.6c0-0.1,0-0.3-0.1-0.4L91,41z M82.3,56.7l8.1-14.1l8.1,14.1H82.3z"/>
		<path fill="#EF3C24" d="M89.8,47v4.9c0,0.3,0.3,0.6,0.6,0.6s0.6-0.3,0.6-0.6V47c0-0.3-0.3-0.6-0.6-0.6S89.8,46.6,89.8,47z"/>
		<path fill="#EF3C24" d="M90.4,53.3c-0.3,0-0.6,0.3-0.6,0.6v0.4c0,0.3,0.3,0.6,0.6,0.6s0.6-0.3,0.6-0.6V54
			C91,53.6,90.8,53.3,90.4,53.3z"/>
	</g>
</g>
<g>
	<g>
		<path fill="#F26722" d="M10.6,1.1c-0.1-0.2-0.3-0.3-0.5-0.3c-0.2,0-0.4,0.1-0.5,0.3l-9.2,16c-0.1,0.2-0.1,0.4,0,0.6
			c0.1,0.2,0.3,0.3,0.5,0.3h18.5l0,0c0.3,0,0.6-0.3,0.6-0.6c0-0.1,0-0.3-0.1-0.4L10.6,1.1z M1.9,16.8L10,2.7l8.1,14.1H1.9z"/>
		<path fill="#F26722" d="M9.4,7.1v4.9c0,0.3,0.3,0.6,0.6,0.6s0.6-0.3,0.6-0.6V7.1c0-0.3-0.3-0.6-0.6-0.6S9.4,6.7,9.4,7.1z"/>
		<path fill="#F26722" d="M10,13.4c-0.3,0-0.6,0.3-0.6,0.6v0.4c0,0.3,0.3,0.6,0.6,0.6s0.6-0.3,0.6-0.6v-0.4
			C10.6,13.7,10.3,13.4,10,13.4z"/>
	</g>
</g>
<polygon fill="#2E368F" points="5.6,49.6 8,49.6 8,53.2 12.8,53.2 12.8,49.6 15.2,49.6 10.4,44.8 "/>
<path fill="#2E368F" stroke="#2E368F" stroke-width="0.75" stroke-miterlimit="10" d="M290.3,160.8c-5.1,0-9.2,4.1-9.2,9.2
	c0,5.1,4.1,9.2,9.2,9.2s9.2-4.1,9.2-9.2C299.4,164.9,295.3,160.8,290.3,160.8z M290.3,178.3c-4.6,0-8.4-3.8-8.4-8.4
	c0-4.6,3.8-8.4,8.4-8.4c4.6,0,8.4,3.8,8.4,8.4C298.6,174.6,294.9,178.3,290.3,178.3z"/>
<path fill="#2E368F" stroke="#2E368F" stroke-width="0.75" stroke-miterlimit="10" d="M370.4,160.8c-5.1,0-9.2,4.1-9.2,9.2
	c0,5.1,4.1,9.2,9.2,9.2s9.2-4.1,9.2-9.2C379.6,164.9,375.5,160.8,370.4,160.8z M370.4,178.3c-4.6,0-8.4-3.8-8.4-8.4
	c0-4.6,3.8-8.4,8.4-8.4s8.4,3.8,8.4,8.4C378.8,174.6,375,178.3,370.4,178.3z"/>
<path fill="#2E368F" stroke="#2E368F" stroke-width="0.75" stroke-miterlimit="10" d="M11.2,134l1.9-1.9c0,0,0-0.1,0-0.2
	c0,0-0.1,0-0.2,0l-1.9,1.9L9.1,132c0,0-0.1,0-0.2,0c0,0,0,0.1,0,0.2l1.9,1.9L9,135.9c0,0,0,0.1,0,0.2c0,0,0.1,0,0.1,0
	c0,0,0.1,0,0.1,0l1.9-1.9l1.9,1.9c0,0,0.1,0,0.1,0c0,0,0.1,0,0.1,0c0,0,0-0.1,0-0.2L11.2,134z"/>
<path fill="#2E368F" stroke="#2E368F" stroke-width="0.75" stroke-miterlimit="10" d="M11,129.1c-2.7,0-4.8,2.2-4.8,4.8
	c0,2.7,2.2,4.8,4.8,4.8s4.8-2.2,4.8-4.8C15.9,131.3,13.7,129.1,11,129.1z M11,138.4c-2.4,0-4.4-2-4.4-4.4c0-2.4,2-4.4,4.4-4.4
	s4.4,2,4.4,4.4C15.5,136.4,13.5,138.4,11,138.4z"/>
<rect x="50" y="81.3" transform="matrix(-0.5425 -0.8401 0.8401 -0.5425 2.2327 181.0007)" fill="#2E368F" stroke="#2E368F" stroke-width="0.75" stroke-miterlimit="10" width="0.8" height="17.2"/>
<path fill="#2E368F" stroke="#2E368F" stroke-width="0.75" stroke-miterlimit="10" d="M50.3,81c-4.8,0-8.8,3.9-8.8,8.8
	c0,4.8,3.9,8.8,8.8,8.8s8.8-3.9,8.8-8.8C59.1,84.9,55.2,81,50.3,81z M50.3,97.7c-4.4,0-8-3.6-8-8c0-4.4,3.6-8,8-8s8,3.6,8,8
	C58.3,94.1,54.7,97.7,50.3,97.7z"/>
<g>
	<path fill="#2E368F" stroke="#2E368F" stroke-width="0.75" stroke-miterlimit="10" d="M290.6,135.5c0.3,0,0.5-0.2,0.5-0.5V128
		c0-0.3-0.2-0.5-0.5-0.5s-0.5,0.2-0.5,0.5v7.1C290.1,135.3,290.3,135.5,290.6,135.5z"/>
	<path fill="#2E368F" stroke="#2E368F" stroke-width="0.75" stroke-miterlimit="10" d="M290.5,126.1c0.3,0,0.5-0.2,0.5-0.5v-1
		c0-0.3-0.2-0.5-0.5-0.5s-0.5,0.2-0.5,0.5v1C290,125.9,290.2,126.1,290.5,126.1z"/>
</g>
<path fill="#2E368F" stroke="#2E368F" stroke-width="0.75" stroke-miterlimit="10" d="M290.5,120.9c-4.9,0-8.9,4-8.9,8.9
	c0,4.9,4,8.9,8.9,8.9c4.9,0,8.9-4,8.9-8.9C299.4,124.9,295.4,120.9,290.5,120.9z M290.5,137.9c-4.5,0-8.1-3.6-8.1-8.1
	c0-4.5,3.6-8.1,8.1-8.1s8.1,3.6,8.1,8.1C298.7,134.3,295,137.9,290.5,137.9z"/>
<path fill="#2E368F" stroke="#2E368F" stroke-width="0.75" stroke-miterlimit="10" d="M170.6,120.8c-5.2,0-9.4,4.2-9.4,9.4
	c0,5.2,4.2,9.4,9.4,9.4c5.2,0,9.4-4.2,9.4-9.4C179.9,125,175.7,120.8,170.6,120.8z M170.6,138.7c-4.7,0-8.5-3.8-8.5-8.5
	c0-4.7,3.8-8.5,8.5-8.5c4.7,0,8.5,3.8,8.5,8.5C179.1,134.9,175.3,138.7,170.6,138.7z"/>
<polygon fill="#2E368F" points="175.4,129.8 173,129.8 173,126.1 168.1,126.1 168.1,129.8 165.6,129.8 170.5,134.7 "/>
<path fill="#2E368F" stroke="#2E368F" stroke-width="0.75" stroke-miterlimit="10" d="M10.4,81.2c-4.9,0-8.8,4-8.8,8.8
	c0,4.9,4,8.8,8.8,8.8s8.8-4,8.8-8.8C19.2,85.1,15.2,81.2,10.4,81.2z M10.4,98c-4.4,0-8-3.6-8-8c0-4.4,3.6-8,8-8s8,3.6,8,8
	C18.4,94.4,14.8,98,10.4,98z"/>
<polygon fill="#2E368F" points="14.9,89.6 12.6,89.6 12.6,86.1 8,86.1 8,89.6 5.7,89.6 10.3,94.2 "/>
<path fill="#2E368F" stroke="#2E368F" stroke-width="0.75" stroke-miterlimit="10" d="M331,40.8c-5,0-9,4.1-9,9c0,5,4.1,9,9,9
	s9-4.1,9-9C340,44.9,335.9,40.8,331,40.8z M331,58.1c-4.5,0-8.2-3.7-8.2-8.2c0-4.5,3.7-8.2,8.2-8.2s8.2,3.7,8.2,8.2
	C339.2,54.4,335.5,58.1,331,58.1z"/>
<path fill="#2E368F" stroke="#2E368F" stroke-width="0.75" stroke-miterlimit="10" d="M135.4,86.3c-0.1-0.1-0.3-0.1-0.4,0l-6.8,6.8
	l-2.2-2.2c-0.1-0.1-0.3-0.1-0.4,0s-0.1,0.3,0,0.4l2.4,2.4c0.1,0.1,0.1,0.1,0.2,0.1s0.1,0,0.2-0.1l7-7
	C135.5,86.6,135.5,86.4,135.4,86.3z"/>
<path fill="#2E368F" stroke="#2E368F" stroke-width="0.75" stroke-miterlimit="10" d="M53.5,131.8c-0.1-0.1-0.2-0.1-0.2,0l-3.6,3.6
	l-1.2-1.2c-0.1-0.1-0.2-0.1-0.2,0c-0.1,0.1-0.1,0.2,0,0.2l1.3,1.3c0,0,0.1,0,0.1,0s0.1,0,0.1,0l3.8-3.8
	C53.5,131.9,53.5,131.8,53.5,131.8z"/>
<path fill="#2E368F" stroke="#2E368F" stroke-width="0.45" stroke-miterlimit="10" d="M130.5,80.5c-5.2,0-9.5,4.2-9.5,9.5
	c0,5.2,4.2,9.5,9.5,9.5c5.2,0,9.5-4.2,9.5-9.5C140,84.8,135.7,80.5,130.5,80.5z M130.5,98.6c-4.8,0-8.6-3.9-8.6-8.6
	c0-4.8,3.9-8.6,8.6-8.6c4.8,0,8.6,3.9,8.6,8.6C139.1,94.8,135.3,98.6,130.5,98.6z"/>
<g>
	<path fill="#2E368F" stroke="#2E368F" stroke-width="0.75" stroke-miterlimit="10" d="M334,126.8c0.1-0.1,0.1-0.3,0-0.4
		c-0.1-0.1-0.3-0.1-0.4,0l-4.4,4.4l0.4,0.4L334,126.8z"/>
	<path fill="#2E368F" stroke="#2E368F" stroke-width="0.75" stroke-miterlimit="10" d="M326.8,133.2l-2.1-2.1
		c-0.1-0.1-0.3-0.1-0.4,0c-0.1,0.1-0.1,0.3,0,0.4l2.3,2.3c0.1,0.1,0.1,0.1,0.2,0.1c0.1,0,0.1,0,0.2-0.1l0.2-0.2L326.8,133.2
		L326.8,133.2z"/>
	<path fill="#2E368F" stroke="#2E368F" stroke-width="0.75" stroke-miterlimit="10" d="M327.3,130.8c-0.1-0.1-0.3-0.1-0.4,0
		c-0.1,0.1-0.1,0.3,0,0.4l0.9,0.9l0.4-0.4L327.3,130.8z"/>
	<path fill="#2E368F" stroke="#2E368F" stroke-width="0.75" stroke-miterlimit="10" d="M336.6,126.1c-0.1-0.1-0.3-0.1-0.4,0
		l-6.8,6.8l-0.8-0.8l-0.4,0.4l1,1c0.1,0.1,0.1,0.1,0.2,0.1c0.1,0,0.1,0,0.2-0.1l7-7C336.8,126.4,336.8,126.3,336.6,126.1z"/>
	
		<rect x="328" y="131.8" transform="matrix(0.7074 -0.7068 0.7068 0.7074 2.6703 270.6783)" fill="#2E368F" stroke="#2E368F" stroke-width="0.75" stroke-miterlimit="10" width="0.6" height="0.6"/>
</g>
<path fill="#2E368F" stroke="#2E368F" stroke-width="0.75" stroke-miterlimit="10" d="M330.4,120.6c-5.2,0-9.4,4.2-9.4,9.4
	c0,5.2,4.2,9.4,9.4,9.4c5.2,0,9.4-4.2,9.4-9.4C339.8,124.8,335.6,120.6,330.4,120.6z M330.4,138.5c-4.7,0-8.6-3.8-8.6-8.6
	c0-4.7,3.8-8.6,8.6-8.6c4.7,0,8.6,3.8,8.6,8.6C339,134.7,335.2,138.5,330.4,138.5z"/>
<circle fill="#2E368F" cx="210.6" cy="130.2" r="5.2"/>
<path fill="#2E368F" stroke="#2E368F" stroke-width="0.75" stroke-miterlimit="10" d="M210.6,121.2c-4.9,0-9,4-9,9c0,4.9,4,9,9,9
	c4.9,0,9-4,9-9C219.6,125.2,215.5,121.2,210.6,121.2z M210.6,138.3c-4.5,0-8.2-3.7-8.2-8.2c0-4.5,3.7-8.2,8.2-8.2
	c4.5,0,8.2,3.7,8.2,8.2C218.8,134.7,215.1,138.3,210.6,138.3z"/>
<circle fill="#2E368F" cx="290.3" cy="49.8" r="5.2"/>
<path fill="#2E368F" stroke="#2E368F" stroke-width="0.75" stroke-miterlimit="10" d="M290.3,40.7c-5,0-9.1,4.1-9.1,9.1
	c0,5,4.1,9.1,9.1,9.1s9.1-4.1,9.1-9.1C299.3,44.8,295.3,40.7,290.3,40.7z M290.3,58c-4.6,0-8.3-3.7-8.3-8.3c0-4.6,3.7-8.3,8.3-8.3
	s8.3,3.7,8.3,8.3C298.5,54.3,294.8,58,290.3,58z"/>
<g>
	<path fill="#2E368F" d="M295.1,84.5V88h1v-3.9c0-0.2-0.1-0.3-0.2-0.4l-3.3-2.9c-0.1-0.1-0.3-0.1-0.4-0.1h-9.4
		c-0.3,0-0.6,0.3-0.6,0.6v17.4c0,0.3,0.3,0.6,0.6,0.6h12.7c0.3,0,0.6-0.3,0.6-0.6v-4.6h-1v4.2h-11.9V81.7h8.8v2.9H295.1z"/>
	<g>
		<path fill="#2E368F" d="M290.9,90.3c-0.1,0-0.2,0-0.4,0h-0.2V91h0.3c0.2,0,0.3,0,0.4,0c0.1,0,0.1-0.1,0.2-0.1
			c0-0.1,0.1-0.1,0.1-0.2c0-0.1,0-0.2-0.1-0.2C291.1,90.4,291,90.3,290.9,90.3z"/>
		<path fill="#2E368F" d="M293.4,90.4c-0.1-0.1-0.1-0.1-0.2-0.1c-0.1,0-0.2,0-0.4,0h-0.2v1.6h0.4c0.1,0,0.2,0,0.3,0
			c0.1,0,0.1-0.1,0.2-0.1c0.1,0,0.1-0.1,0.1-0.2c0-0.1,0-0.3,0-0.4s0-0.3,0-0.4C293.5,90.6,293.5,90.5,293.4,90.4z"/>
		<path fill="#2E368F" d="M296.8,88.7h-7.9c-0.4,0-0.7,0.3-0.7,0.7v3.4c0,0.4,0.3,0.7,0.7,0.7h7.9c0.4,0,0.7-0.3,0.7-0.7v-3.4
			C297.5,89,297.2,88.7,296.8,88.7z M291.6,91c-0.1,0.1-0.1,0.2-0.2,0.2c-0.1,0.1-0.2,0.1-0.3,0.1c-0.1,0-0.3,0-0.5,0h-0.3v0.9h-0.5
			v-2.4h0.8c0.3,0,0.5,0,0.6,0c0.1,0,0.3,0.1,0.3,0.2c0.1,0.1,0.1,0.3,0.1,0.5C291.7,90.8,291.7,90.9,291.6,91z M294,91.6
			c-0.1,0.2-0.1,0.3-0.3,0.4c-0.1,0.1-0.2,0.1-0.3,0.2c-0.1,0-0.3,0.1-0.4,0.1h-0.9v-2.4h0.9c0.2,0,0.4,0,0.5,0
			c0.1,0,0.3,0.1,0.4,0.2c0.1,0.1,0.2,0.2,0.2,0.4c0.1,0.2,0.1,0.3,0.1,0.6C294.1,91.3,294.1,91.5,294,91.6z M296.1,90.3h-1.2v0.6h1
			v0.4h-1v1h-0.5v-2.4h1.7V90.3z"/>
	</g>
</g>
<path fill="#2E368F" stroke="#2E368F" stroke-width="0.5" stroke-miterlimit="10" d="M339.4,85.1c-0.1-0.1-0.4-0.1-0.5,0l-9.1,9.1
	l-2.9-2.9c-0.1-0.1-0.4-0.1-0.5,0s-0.1,0.4,0,0.5l3.1,3.1c0.1,0.1,0.2,0.1,0.3,0.1c0.1,0,0.2,0,0.3-0.1l9.4-9.4
	C339.6,85.5,339.6,85.2,339.4,85.1z"/>
<path fill="#2E368F" d="M333.7,84.4v3.5h1v-3.8c0-0.2-0.1-0.3-0.2-0.4l-3.2-2.9c-0.1-0.1-0.3-0.1-0.4-0.1h-9.3
	c-0.3,0-0.6,0.3-0.6,0.6v17.2c0,0.3,0.3,0.6,0.6,0.6h12.5c0.3,0,0.6-0.3,0.6-0.6v-4.5h-1v4.2h-11.8V81.6h8.7v2.9H333.7z"/>
<rect x="165.3" y="88.8" fill="#2E368F" width="9.1" height="0.8"/>
<rect x="165.3" y="91.1" fill="#2E368F" width="9.1" height="0.8"/>
<rect x="165.3" y="86.5" fill="#2E368F" width="5.3" height="0.8"/>
<rect x="165.3" y="93.4" fill="#2E368F" width="9.1" height="0.8"/>
<path fill="#2E368F" d="M175.8,84.2v10.3h1V83.8c0-0.2-0.1-0.3-0.2-0.5l-3.4-3.1c-0.1-0.1-0.3-0.2-0.4-0.2H163
	c-0.4,0-0.6,0.3-0.6,0.6V99c0,0.4,0.3,0.6,0.6,0.6h13.3c0.4,0,0.6-0.3,0.6-0.6v-4.8h-1v4.4h-12.5V81.2h9.2v3H175.8z"/>
<g>
	<path fill="#2E368F" d="M82.9,120.8v16.3h1.1v-15.1h6.9v5.1H96v10h1.1v-10.9l-5.4-5.4H82.9z M92.1,125.9v-3.1l3.1,3.1H92.1z"/>
	<polygon fill="#2E368F" points="87.9,136.3 87.9,139 92.2,139 92.2,136.3 94.9,136.3 90,132.4 85.2,136.3 	"/>
</g>
<g>
	<path fill="#2E368F" d="M362.3,79.9v17.9h1.3V81.2h7.5v5.6h5.6v11h1.3V85.9l-6-6H362.3z M372.3,85.5v-3.4l3.4,3.4H372.3z"/>
	<polygon fill="#2E368F" points="372.5,95.6 372.5,92.6 367.7,92.6 367.7,95.6 364.8,95.6 370.1,99.9 375.4,95.6 	"/>
</g>
<path fill="#2E368F" d="M398.2,79.9v17.9h1.3V81.2h7.5v5.6h5.6v11h1.3V85.9l-6-6H398.2z M408.3,85.5v-3.4l3.4,3.4H408.3z"/>
<path fill="#2E368F" d="M3.4,120.7v17.5h1.2v-16.3H12v5.5h5.5v10.8h1.2v-11.7l-5.8-5.8H3.4z M13.2,126.1v-3.4l3.4,3.4H13.2z"/>
<path fill="#2E368F" stroke="#2E368F" stroke-width="0.75" stroke-miterlimit="10" d="M51,129.1c-2.6,0-4.6,2.1-4.6,4.6
	c0,2.6,2.1,4.6,4.6,4.6c2.6,0,4.6-2.1,4.6-4.6C55.6,131.1,53.5,129.1,51,129.1z M51,137.9c-2.3,0-4.2-1.9-4.2-4.2
	c0-2.3,1.9-4.2,4.2-4.2c2.3,0,4.2,1.9,4.2,4.2C55.2,136,53.3,137.9,51,137.9z"/>
<path fill="#2E368F" d="M43.6,120.7v17.1h1.2v-15.9H52v5.3h5.3v10.6h1.2v-11.4l-5.7-5.7H43.6z M53.2,126v-3.3l3.3,3.3H53.2z"/>
<path fill="#2E368F" stroke="#2E368F" stroke-width="0.75" stroke-miterlimit="10" d="M-18.4,128.2c-2.6,0-4.6,2.1-4.6,4.6
	c0,2.6,2.1,4.6,4.6,4.6s4.6-2.1,4.6-4.6C-13.8,130.3-15.9,128.2-18.4,128.2z M-18.4,137c-2.3,0-4.2-1.9-4.2-4.2
	c0-2.3,1.9-4.2,4.2-4.2s4.2,1.9,4.2,4.2C-14.2,135.1-16.1,137-18.4,137z"/>
<path fill="#2E368F" d="M-25.9,119.8v17.1h1.2V121h7.2v5.3h5.3v10.6h1.2v-11.4l-5.7-5.7H-25.9z M-16.2,125.1v-3.3l3.3,3.3H-16.2z"/>
<g>
	<path fill="#2E368F" d="M162.4,160.4v17.4h1.2v-16.1h7.3v5.4h5.4v10.7h1.2v-11.6l-5.8-5.8H162.4z M172.1,165.9v-3.3l3.3,3.3H172.1z
		"/>
</g>
<path fill="#2E368F" d="M203,160.3v17.6h1.2v-16.4h7.4v5.5h5.5v10.9h1.2v-11.7l-5.9-5.9H203z M212.9,165.8v-3.4l3.4,3.4H212.9z"/>
<path fill="#2E368F" stroke="#2E368F" stroke-width="0.75" stroke-miterlimit="10" d="M-14.3,178l-2.1-2.1c1.4-1.5,1.3-3.9-0.2-5.4
	c-1.5-1.5-4-1.5-5.5,0c-1.5,1.5-1.5,4,0,5.5c0.8,0.8,1.8,1.1,2.8,1.1c0.9,0,1.9-0.3,2.6-1l2.1,2.1c0,0,0.1,0.1,0.2,0.1
	s0.1,0,0.2-0.1C-14.2,178.3-14.2,178.1-14.3,178z M-21.8,175.7c-1.3-1.3-1.3-3.5,0-4.9c0.7-0.7,1.6-1,2.4-1s1.8,0.3,2.4,1
	c1.3,1.3,1.3,3.5,0,4.9C-18.3,177.1-20.5,177.1-21.8,175.7z"/>
<path fill="#2E368F" d="M-26.6,160.3v17.6h1.2v-16.4h7.4v5.5h5.5v10.9h1.2v-11.7l-5.9-5.9H-26.6z M-16.7,165.8v-3.4l3.4,3.4H-16.7z"
	/>
<path fill="#2E368F" stroke="#2E368F" stroke-width="0.75" stroke-miterlimit="10" d="M-71,178l-2.1-2.1c1.4-1.5,1.3-3.9-0.2-5.4
	c-1.5-1.5-4-1.5-5.5,0c-1.5,1.5-1.5,4,0,5.5c0.8,0.8,1.8,1.1,2.8,1.1c0.9,0,1.9-0.3,2.6-1l2.1,2.1c0,0,0.1,0.1,0.2,0.1
	c0.1,0,0.1,0,0.2-0.1C-70.9,178.3-70.9,178.1-71,178z M-78.5,175.7c-1.3-1.3-1.3-3.5,0-4.9c0.7-0.7,1.6-1,2.4-1s1.8,0.3,2.4,1
	c1.3,1.3,1.3,3.5,0,4.9C-74.9,177.1-77.1,177.1-78.5,175.7z"/>
<path fill="#2E368F" d="M-83.2,160.3v17.6h1.2v-16.4h7.4v5.5h5.5v10.9h1.2v-11.7l-5.9-5.9H-83.2z M-73.3,165.8v-3.4l3.4,3.4H-73.3z"
	/>
<path fill="#2E368F" d="M242.5,160.4V178h1.2v-16.3h7.4v5.5h5.5V178h1.2v-11.7l-5.8-5.8H242.5z M252.4,165.9v-3.4l3.4,3.4H252.4z"/>
<path fill="#2E368F" stroke="#2E368F" stroke-width="0.75" stroke-miterlimit="10" d="M250.2,171.9c-2.8,0-4.9,3.3-4.9,3.3
	s2.2,3.2,4.9,3.2c2.8,0,4.9-3.3,4.9-3.3S253,171.9,250.2,171.9z M250.2,177.9c-2.4,0-4.2-2.8-4.2-2.8s1.9-2.8,4.2-2.8
	s4.2,2.8,4.2,2.8S252.6,177.9,250.2,177.9z"/>
<path fill="none" stroke="#2E368F" stroke-width="0.5" stroke-miterlimit="10" d="M250.2,173.7c-0.8,0-1.6,0.6-1.6,1.6
	c0,0.8,0.6,1.6,1.6,1.6c0.8,0,1.6-0.6,1.6-1.6C251.8,174.4,251.1,173.7,250.2,173.7z M250.2,176.3c-0.6,0-1.1-0.5-1.1-1.1
	s0.5-1.2,1.1-1.2s1.1,0.5,1.1,1.1C251.3,175.7,250.9,176.3,250.2,176.3z"/>
<g>
	<g>
		<g>
			<g>
				<polygon fill="#2E368F" points="8.9,205.4 4.8,201.4 0.7,205.4 3.4,205.4 3.4,219.9 6.3,219.9 6.3,205.4 				"/>
				<rect x="9.2" y="201.4" fill="#2E368F" width="8.7" height="2.8"/>
				<rect x="8.4" y="206.5" fill="#2E368F" width="9.5" height="2.8"/>
				<rect x="8.4" y="211.9" fill="#2E368F" width="9.5" height="2.8"/>
				<rect x="8.4" y="217.1" fill="#2E368F" width="9.6" height="2.8"/>
			</g>
		</g>
	</g>
</g>
<g>
	<g>
		<g>
			<g>
				<polygon fill="#2E368F" points="41.4,214.9 45.2,218.6 48.9,214.9 46.5,214.9 46.5,201.6 43.8,201.6 43.8,214.9 				"/>
				<rect x="48.4" y="216" fill="#2E368F" width="8.9" height="2.6"/>
				<rect x="48.4" y="211.3" fill="#2E368F" width="9.7" height="2.6"/>
				<rect x="48.4" y="206.3" fill="#2E368F" width="9.7" height="2.6"/>
				<rect x="48.4" y="201.6" fill="#2E368F" width="9.8" height="2.6"/>
			</g>
		</g>
	</g>
</g>
<path fill="#2E368F" d="M321.9,169.7h12.7l-2.7-2.7c-0.2-0.2-0.2-0.6,0-0.8c0.2-0.2,0.6-0.2,0.8,0l3.6,3.6c0.2,0.2,0.2,0.6,0,0.8
	l-3.6,3.6c-0.1,0.1-0.2,0.2-0.4,0.2s-0.3-0.1-0.4-0.2c-0.2-0.2-0.2-0.6,0-0.8l2.7-2.7h-12.7c-0.3,0-0.5-0.2-0.5-0.5
	C321.3,169.9,321.6,169.7,321.9,169.7z M336.3,160.8h-11c-2.1,0-3.9,1.7-3.9,3.9v2.3c0,0.3,0.2,0.5,0.5,0.5c0.3,0,0.5-0.2,0.5-0.5
	v-2.3c0-1.5,1.3-2.8,2.8-2.8h11c1.5,0,2.8,1.3,2.8,2.8v11c0,1.5-1.3,2.8-2.8,2.8h-11c-1.5,0-2.8-1.3-2.8-2.8v-2.3
	c0-0.3-0.2-0.5-0.5-0.5c-0.3,0-0.5,0.2-0.5,0.5v2.3c0,2.1,1.7,3.9,3.9,3.9h11c2.1,0,3.9-1.7,3.9-3.9v-11
	C340.2,162.6,338.4,160.8,336.3,160.8z"/>
<path fill="#2E368F" d="M330.7,170.2"/>
<path fill="#2E368F" d="M330.7,170.2"/>
<polyline fill="none" stroke="#2E368F" stroke-width="0.95" stroke-miterlimit="10" points="125.1,210 126.7,212 129.2,208.8 "/>
<path fill="none" stroke="#2E368F" stroke-width="0.95" stroke-miterlimit="10" d="M135.3,214.3h-10.2c-2.1,0-3.8-1.7-3.8-3.8l0,0
	c0-2.1,1.7-3.8,3.8-3.8h10.2c2.1,0,3.8,1.7,3.8,3.8l0,0C139.2,212.6,137.4,214.3,135.3,214.3z"/>
<circle fill="none" stroke="#2E368F" stroke-width="0.95" stroke-miterlimit="10" cx="135.1" cy="210.6" r="2.5"/>
<path fill="none" stroke="#2E368F" stroke-width="0.95" stroke-miterlimit="10" d="M175.6,214.3h-10.2c-2.1,0-3.8-1.7-3.8-3.8l0,0
	c0-2.1,1.7-3.8,3.8-3.8h10.2c2.1,0,3.8,1.7,3.8,3.8l0,0C179.4,212.6,177.7,214.3,175.6,214.3z"/>
<circle fill="none" stroke="#2E368F" stroke-width="0.95" stroke-miterlimit="10" cx="166.2" cy="210.6" r="2.5"/>
<g>
	<path fill="#2E368F" d="M216.8,208.5c-0.3,0-0.5,0-0.8-0.1c-0.2,0-0.3-0.2-0.2-0.4c0-0.2,0.2-0.3,0.4-0.2c1.3,0.3,2.6-0.3,3.2-1.5
		c0.3-0.7,0.4-1.5,0.2-2.2c-0.2-0.7-0.8-1.3-1.4-1.7c-0.7-0.3-1.5-0.4-2.2-0.2c-0.7,0.2-1.3,0.8-1.7,1.4c-0.1,0.1-0.3,0.2-0.4,0.1
		c-0.1-0.1-0.2-0.3-0.1-0.4c0.4-0.8,1.1-1.4,2-1.7c0.9-0.3,1.8-0.2,2.7,0.2c0.8,0.4,1.4,1.1,1.7,2c0.3,0.9,0.2,1.8-0.2,2.7
		C219.3,207.8,218.1,208.5,216.8,208.5z M216.8,203.4v3.1 M215.2,205h3.1 M217.1,206.6v-1.3h1.2c0.2,0,0.3-0.1,0.3-0.3
		c0-0.2-0.1-0.3-0.3-0.3h-1.2v-1.3c0-0.2-0.1-0.3-0.3-0.3s-0.3,0.1-0.3,0.3v1.3h-1.3c-0.2,0-0.3,0.1-0.3,0.3c0,0.2,0.1,0.3,0.3,0.3
		h1.3v1.3c0,0.2,0.1,0.3,0.3,0.3S217.1,206.7,217.1,206.6z"/>
	<g>
		<path fill="#2E368F" d="M208.6,218.1c-2.5,0-4.8-1.6-6.1-4.2c-0.4,0-0.9-0.3-1.2-0.9c-0.5-0.9-0.8-2.4-0.4-3.1
			c0.2-0.3,0.4-0.4,0.7-0.4c0,0,0,0,0,0c0.1-2,0.8-3.9,2-5.3c1.3-1.5,3-2.4,4.9-2.4c1.8,0,3.6,0.8,4.9,2.4c1.2,1.4,1.9,3.3,2,5.3
			c0,0,0,0,0,0c0.2,0,0.9,0.1,0.9,1.4c0,1.3-0.7,3-1.7,3.1C213.5,216.5,211.2,218.1,208.6,218.1z M202.8,213.3
			c0.1,0,0.2,0.1,0.3,0.2c1.1,2.5,3.2,4,5.6,4c2.3,0,4.5-1.5,5.6-4c0.1-0.1,0.2-0.2,0.3-0.2c0,0,0,0,0.1,0l0,0
			c0.6,0,1.2-1.4,1.2-2.5c0-0.5-0.1-0.8-0.3-0.8c0,0-0.1,0-0.2,0c-0.1,0-0.2,0-0.3,0s-0.1-0.1-0.1-0.2c0-4.1-2.9-7.5-6.3-7.5
			c-3.4,0-6.3,3.3-6.3,7.5c0,0.1-0.1,0.2-0.1,0.2s-0.2,0.1-0.3,0c-0.1,0-0.1,0-0.2,0c0,0-0.1,0-0.1,0.1c-0.3,0.4-0.1,1.7,0.4,2.5
			c0.1,0.2,0.4,0.6,0.7,0.6C202.7,213.3,202.7,213.3,202.8,213.3C202.8,213.3,202.8,213.3,202.8,213.3z"/>
	</g>
	<g>
		<path fill="#2E368F" d="M215.2,209.8c-1.8-0.4-3.6-2.6-4.6-4.4c-0.9,0.8-1.8,1.6-2.8,2.2c-2.5,1.7-5.7,2.2-5.7,2.2
			s0.2-2.5,1.8-4.6c0.7-0.9,1.6-1.8,2.7-2.3c1.6-0.8,3.8-0.6,5.3,0.4c0.4,0.3,0.8,0.6,1.1,1c0.6,0.8,1.1,1.8,1.4,2.7
			c0.3,0.8,0.5,1.6,0.7,2.4C215.2,209.5,215.2,209.7,215.2,209.8z"/>
		<path fill="#2E368F" d="M215.2,210.1c-1.7-0.4-3.6-2.5-4.7-4.3c-0.7,0.7-1.6,1.3-2.6,2c-2.5,1.7-5.7,2.3-5.8,2.3
			c-0.1,0-0.3-0.2-0.2-0.3c0-0.1,0,0.1,0,0c0-0.1,0.2-2.5,1.8-4.8c0.8-1,1.8-1.9,2.8-2.4c0.7-0.3,1.5-0.5,2.4-0.5
			c1.1,0,2.2,0.3,3.1,0.9c0.4,0.2,0.8,0.6,1.2,1.1c0.6,0.8,1.1,1.8,1.5,2.8c0.3,0.7,0.5,1.5,0.7,2.5c0,0.2,0.1,0.3,0.1,0.5
			c0,0,0,0,0,0.1C215.5,210,215.4,210.1,215.2,210.1"/>
	</g>
</g>
<path fill="#2E368F" d="M136.7,9c-0.3,0-0.5,0-0.8-0.1c-0.2,0-0.3-0.2-0.2-0.4c0-0.2,0.2-0.3,0.4-0.2c1.3,0.3,2.6-0.3,3.2-1.5
	c0.3-0.7,0.4-1.5,0.2-2.2c-0.2-0.7-0.8-1.3-1.5-1.7c-0.7-0.3-1.5-0.4-2.2-0.2c-0.7,0.2-1.3,0.8-1.7,1.5c-0.1,0.1-0.3,0.2-0.4,0.1
	c-0.1-0.1-0.2-0.3-0.1-0.4c0.4-0.8,1.1-1.5,2-1.8c0.9-0.3,1.8-0.2,2.7,0.2c0.8,0.4,1.5,1.1,1.8,2c0.3,0.9,0.2,1.8-0.2,2.7
	C139.2,8.2,138,9,136.7,9z"/>
<g>
	<path fill="#2E368F" d="M128.5,18.7c-2.6,0-4.9-1.6-6.1-4.2c-0.5,0-0.9-0.3-1.2-0.9c-0.5-0.9-0.8-2.4-0.4-3.2
		c0.2-0.3,0.4-0.4,0.7-0.4c0,0,0,0,0,0c0.1-2,0.8-3.9,2.1-5.4c1.3-1.5,3.1-2.4,4.9-2.4c1.9,0,3.6,0.9,4.9,2.4c1.2,1.4,2,3.3,2.1,5.4
		c0,0,0,0,0,0c0.2,0,0.9,0.1,0.9,1.4c0,1.3-0.7,3-1.8,3.1C133.4,17.1,131,18.7,128.5,18.7z M122.6,13.8c0.1,0,0.2,0.1,0.3,0.2
		c1.1,2.5,3.3,4.1,5.7,4.1c2.4,0,4.5-1.6,5.7-4.1c0.1-0.1,0.2-0.2,0.3-0.2c0,0,0,0,0.1,0l0,0c0.6,0,1.2-1.4,1.2-2.5
		c0-0.5-0.1-0.8-0.3-0.8c0,0-0.1,0-0.2,0c-0.1,0-0.2,0-0.3,0s-0.1-0.1-0.1-0.3c0-4.2-2.9-7.5-6.4-7.5c-3.5,0-6.3,3.4-6.4,7.5
		c0,0.1-0.1,0.2-0.1,0.3c-0.1,0.1-0.2,0.1-0.3,0c-0.1,0-0.1,0-0.2,0c0,0-0.1,0-0.2,0.1c-0.3,0.4-0.1,1.7,0.4,2.6
		c0.1,0.2,0.4,0.6,0.7,0.6C122.5,13.9,122.5,13.9,122.6,13.8C122.5,13.9,122.5,13.8,122.6,13.8z"/>
</g>
<g>
	<path fill="#2E368F" d="M135.1,10.3c-1.8-0.4-3.7-2.6-4.7-4.5c-0.9,0.8-1.9,1.6-2.9,2.3c-2.5,1.7-5.7,2.2-5.7,2.2s0.2-2.5,1.8-4.7
		c0.7-0.9,1.7-1.8,2.7-2.4c1.6-0.8,3.8-0.6,5.3,0.4c0.4,0.3,0.9,0.6,1.2,1c0.6,0.8,1.1,1.8,1.4,2.7c0.3,0.8,0.5,1.6,0.7,2.5
		C135.1,10,135.1,10.2,135.1,10.3z"/>
	<path fill="#2E368F" d="M135.1,10.6c-1.8-0.4-3.7-2.5-4.7-4.4c-0.8,0.7-1.6,1.4-2.7,2.1c-2.5,1.7-5.8,2.3-5.9,2.3
		c-0.1,0-0.3-0.2-0.3-0.3c0-0.1,0,0.1,0,0c0-0.1,0.2-2.6,1.9-4.8c0.8-1.1,1.8-1.9,2.8-2.4c0.7-0.3,1.6-0.5,2.4-0.5
		c1.2,0,2.3,0.3,3.1,0.9c0.4,0.2,0.9,0.6,1.2,1.1c0.7,0.8,1.1,1.8,1.5,2.8c0.3,0.7,0.5,1.5,0.8,2.5c0,0.2,0.1,0.3,0.1,0.5
		c0,0,0,0.1,0,0.1C135.4,10.5,135.3,10.6,135.1,10.6"/>
</g>
<path fill="#2E368F" d="M377.3,210.3c-0.2,0-0.5,0-0.7-0.1c-0.2,0-0.2-0.2-0.2-0.3c0-0.2,0.2-0.2,0.3-0.2c1.2,0.3,2.4-0.3,3-1.4
	c0.3-0.6,0.4-1.4,0.1-2.1c-0.2-0.7-0.7-1.2-1.3-1.6c-0.6-0.3-1.4-0.4-2.1-0.1c-0.7,0.2-1.2,0.7-1.6,1.3c-0.1,0.1-0.2,0.2-0.4,0.1
	c-0.1-0.1-0.2-0.2-0.1-0.4c0.4-0.8,1.1-1.4,1.9-1.6c0.8-0.3,1.7-0.2,2.5,0.2c0.8,0.4,1.4,1.1,1.6,1.9c0.3,0.8,0.2,1.7-0.2,2.5
	C379.6,209.6,378.5,210.3,377.3,210.3z"/>
<g>
	<g>
		<path fill="#2E368F" d="M369.7,219.2c-2.4,0-4.5-1.5-5.6-3.9c-0.4,0-0.8-0.3-1.1-0.8c-0.5-0.8-0.7-2.3-0.3-2.9
			c0.1-0.2,0.4-0.4,0.6-0.4c0,0,0,0,0,0c0.1-1.9,0.8-3.6,1.9-5c1.2-1.4,2.8-2.2,4.6-2.2c1.7,0,3.3,0.8,4.6,2.2
			c1.1,1.3,1.8,3.1,1.9,5c0,0,0,0,0,0c0.2,0,0.8,0.1,0.8,1.3c0,1.2-0.6,2.8-1.6,2.9C374.2,217.7,372,219.2,369.7,219.2z
			 M364.2,214.8c0.1,0,0.2,0.1,0.3,0.2c1,2.3,3,3.8,5.2,3.8c2.2,0,4.2-1.4,5.2-3.8c0.1-0.1,0.2-0.2,0.3-0.2c0,0,0,0,0.1,0l0,0
			c0.6,0,1.1-1.3,1.1-2.3c0-0.4-0.1-0.7-0.3-0.7c0,0-0.1,0-0.2,0c-0.1,0-0.2,0-0.3,0s-0.1-0.1-0.1-0.2c0-3.8-2.7-7-5.9-7
			c-3.2,0-5.9,3.1-5.9,7c0,0.1,0,0.2-0.1,0.2s-0.2,0.1-0.3,0c-0.1,0-0.1,0-0.2,0c0,0-0.1,0-0.1,0.1c-0.2,0.4-0.1,1.6,0.3,2.4
			c0.1,0.2,0.4,0.6,0.7,0.6C364.1,214.8,364.1,214.8,364.2,214.8C364.2,214.8,364.2,214.8,364.2,214.8z"/>
	</g>
</g>
<g>
	<g>
		<path fill="#2E368F" d="M375.8,211.5c-1.7-0.3-3.4-2.4-4.3-4.1c-0.8,0.8-1.7,1.4-2.6,2.1c-2.3,1.6-5.3,2-5.3,2s0.2-2.3,1.7-4.3
			c0.6-0.9,1.5-1.7,2.5-2.2c1.5-0.7,3.5-0.6,4.9,0.3c0.4,0.2,0.8,0.6,1.1,0.9c0.6,0.7,1,1.7,1.3,2.5c0.3,0.7,0.5,1.5,0.7,2.3
			C375.8,211.2,375.8,211.4,375.8,211.5z"/>
		<path fill="#2E368F" d="M375.8,211.8c-1.6-0.3-2.8-1.4-3.8-3.2c-0.7,2.1-4.8,2.9-5.7,2.4c-2.3,1.6-2.7,0.7-2.8,0.7
			c-0.1,0-0.2-0.2-0.2-0.3c0-0.1,0,0.1,0,0c0-0.1,0.2-2.4,1.7-4.4c0.7-1,1.6-1.8,2.6-2.2c0.7-0.3,1.4-0.5,2.2-0.5
			c1.1,0,2.1,0.3,2.9,0.8c0.3,0.2,0.8,0.6,1.1,1c0.6,0.8,1,1.7,1.4,2.6c0.3,0.7,0.5,1.4,0.7,2.3c0,0.2,0.1,0.3,0.1,0.4
			c0,0,0,0,0,0.1C376,211.6,375.9,211.8,375.8,211.8"/>
	</g>
</g>
<g>
	<g>
		<path fill="#2E368F" d="M364.4,211.6c-1.3,0-2.4-0.8-3-2.1c-0.2,0-0.4-0.2-0.6-0.4c-0.3-0.4-0.4-1.2-0.2-1.6
			c0.1-0.1,0.2-0.2,0.3-0.2c0,0,0,0,0,0c0-1,0.4-1.9,1-2.6c0.6-0.8,1.5-1.2,2.4-1.2c0.9,0,1.8,0.4,2.4,1.2c0.6,0.7,1,1.6,1,2.6
			c0,0,0,0,0,0c0.1,0,0.4,0,0.4,0.7c0,0.6-0.3,1.5-0.9,1.5C366.8,210.8,365.6,211.6,364.4,211.6z M361.5,209.2c0.1,0,0.1,0,0.1,0.1
			c0.5,1.2,1.6,2,2.8,2c1.2,0,2.2-0.8,2.8-2c0-0.1,0.1-0.1,0.2-0.1c0,0,0,0,0,0l0,0c0.3,0,0.6-0.7,0.6-1.2c0-0.2-0.1-0.4-0.1-0.4
			c0,0-0.1,0-0.1,0c0,0-0.1,0-0.1,0c0,0-0.1-0.1-0.1-0.1c0-2-1.4-3.7-3.1-3.7c-1.7,0-3.1,1.7-3.1,3.7c0,0,0,0.1-0.1,0.1
			c0,0-0.1,0-0.1,0c0,0-0.1,0-0.1,0c0,0,0,0-0.1,0.1c-0.1,0.2-0.1,0.8,0.2,1.3C361.1,209,361.2,209.2,361.5,209.2
			C361.4,209.2,361.4,209.2,361.5,209.2C361.5,209.2,361.5,209.2,361.5,209.2z"/>
	</g>
	<g>
		<path fill="#2E368F" d="M367.6,207.5c-0.9-0.2-1.8-1.3-2.3-2.2c-0.4,0.4-0.9,0.8-1.4,1.1c-1.2,0.8-2.8,1.1-2.8,1.1
			s0.1-1.2,0.9-2.3c0.3-0.5,0.8-0.9,1.3-1.2c0.8-0.4,1.9-0.3,2.6,0.2c0.2,0.1,0.4,0.3,0.6,0.5c0.3,0.4,0.5,0.9,0.7,1.3
			c0.2,0.4,0.3,0.8,0.4,1.2C367.6,207.4,367.6,207.4,367.6,207.5z"/>
		<path fill="#2E368F" d="M367.6,207.7c-0.9-0.2-1.5-0.8-2-1.7c-0.4,1.1-2.5,1.5-3,1.3c-1.2,0.8-1.4,0.4-1.5,0.4
			c0,0-0.1-0.1-0.1-0.2c0,0,0,0,0,0c0-0.1,0.1-1.3,0.9-2.4c0.4-0.5,0.9-1,1.4-1.2c0.4-0.2,0.8-0.3,1.2-0.3c0.6,0,1.1,0.2,1.5,0.4
			c0.2,0.1,0.4,0.3,0.6,0.5c0.3,0.4,0.5,0.9,0.7,1.4c0.1,0.4,0.3,0.7,0.4,1.2c0,0.1,0,0.2,0,0.2c0,0,0,0,0,0
			C367.8,207.6,367.7,207.7,367.6,207.7"/>
	</g>
</g>
<g>
	<g>
		<path fill="#2E368F" d="M367.7,207.1c-0.9,0-1.8-0.6-2.2-1.6c-0.2,0-0.3-0.1-0.4-0.3c-0.2-0.3-0.3-0.9-0.1-1.2
			c0.1-0.1,0.1-0.2,0.2-0.2c0,0,0,0,0,0c0-0.7,0.3-1.4,0.8-2c0.5-0.6,1.1-0.9,1.8-0.9c0.7,0,1.3,0.3,1.8,0.9c0.5,0.5,0.7,1.2,0.8,2
			c0,0,0,0,0,0c0.1,0,0.3,0,0.3,0.5c0,0.5-0.2,1.1-0.6,1.1C369.5,206.5,368.6,207.1,367.7,207.1z M365.5,205.3c0,0,0.1,0,0.1,0.1
			c0.4,0.9,1.2,1.5,2.1,1.5c0.9,0,1.7-0.6,2.1-1.5c0,0,0.1-0.1,0.1-0.1c0,0,0,0,0,0l0,0c0.2,0,0.4-0.5,0.4-0.9c0-0.2,0-0.3-0.1-0.3
			c0,0,0,0-0.1,0c0,0-0.1,0-0.1,0s-0.1-0.1-0.1-0.1c0-1.5-1.1-2.8-2.3-2.8c-1.3,0-2.3,1.2-2.3,2.8c0,0,0,0.1-0.1,0.1s-0.1,0-0.1,0
			c0,0,0,0-0.1,0c0,0,0,0-0.1,0c-0.1,0.2-0.1,0.6,0.1,0.9C365.2,205.2,365.3,205.3,365.5,205.3C365.5,205.3,365.5,205.3,365.5,205.3
			C365.5,205.3,365.5,205.3,365.5,205.3z"/>
	</g>
	<g>
		<path fill="#2E368F" d="M370.1,204.1c-0.7-0.1-1.4-1-1.7-1.6c-0.3,0.3-0.7,0.6-1.1,0.8c-0.9,0.6-2.1,0.8-2.1,0.8s0.1-0.9,0.7-1.7
			c0.3-0.3,0.6-0.7,1-0.9c0.6-0.3,1.4-0.2,2,0.1c0.1,0.1,0.3,0.2,0.4,0.4c0.2,0.3,0.4,0.7,0.5,1c0.1,0.3,0.2,0.6,0.3,0.9
			C370.1,203.9,370.1,204,370.1,204.1z"/>
		<path fill="#2E368F" d="M370.1,204.2c-0.6-0.1-1.1-0.6-1.5-1.3c-0.3,0.8-1.9,1.1-2.3,1c-0.9,0.6-1.1,0.3-1.1,0.3
			c0,0-0.1-0.1-0.1-0.1c0,0,0,0,0,0c0,0,0.1-0.9,0.7-1.8c0.3-0.4,0.7-0.7,1-0.9c0.3-0.1,0.6-0.2,0.9-0.2c0.4,0,0.8,0.1,1.2,0.3
			c0.1,0.1,0.3,0.2,0.4,0.4c0.2,0.3,0.4,0.7,0.5,1c0.1,0.3,0.2,0.6,0.3,0.9c0,0.1,0,0.1,0,0.2c0,0,0,0,0,0
			C370.2,204.1,370.2,204.2,370.1,204.2"/>
	</g>
</g>
<g>
	<g>
		<path fill="#2E368F" d="M256.6,208.5c-0.3,0-0.5,0-0.8-0.1c-0.2,0-0.3-0.2-0.2-0.4c0-0.2,0.2-0.3,0.4-0.2c1.3,0.3,2.6-0.3,3.2-1.5
			c0.3-0.7,0.4-1.5,0.2-2.2c-0.2-0.7-0.8-1.3-1.4-1.7c-0.7-0.3-1.5-0.4-2.2-0.2c-0.7,0.2-1.3,0.8-1.7,1.4c-0.1,0.1-0.3,0.2-0.4,0.1
			c-0.1-0.1-0.2-0.3-0.1-0.4c0.4-0.8,1.1-1.4,2-1.7c0.9-0.3,1.8-0.2,2.7,0.2c0.8,0.4,1.4,1.1,1.7,2c0.3,0.9,0.2,1.8-0.2,2.7
			C259.1,207.8,257.9,208.5,256.6,208.5z"/>
		<g>
			<path fill="#2E368F" d="M248.5,218.1c-2.5,0-4.8-1.6-6.1-4.2c-0.4,0-0.9-0.3-1.2-0.9c-0.5-0.9-0.8-2.4-0.4-3.1
				c0.2-0.3,0.4-0.4,0.7-0.4c0,0,0,0,0,0c0.1-2,0.8-3.9,2-5.3c1.3-1.5,3-2.4,4.9-2.4c1.8,0,3.6,0.8,4.9,2.4c1.2,1.4,1.9,3.3,2,5.3
				c0,0,0,0,0,0c0.2,0,0.9,0.1,0.9,1.4c0,1.3-0.7,3-1.7,3.1C253.3,216.5,251,218.1,248.5,218.1z M242.6,213.3c0.1,0,0.2,0.1,0.3,0.2
				c1.1,2.5,3.2,4,5.6,4c2.3,0,4.5-1.5,5.6-4c0.1-0.1,0.2-0.2,0.3-0.2c0,0,0,0,0.1,0l0,0c0.6,0,1.2-1.4,1.2-2.5
				c0-0.5-0.1-0.8-0.3-0.8c0,0-0.1,0-0.2,0c-0.1,0-0.2,0-0.3,0s-0.1-0.1-0.1-0.2c0-4.1-2.9-7.5-6.3-7.5c-3.4,0-6.3,3.3-6.3,7.5
				c0,0.1-0.1,0.2-0.1,0.2s-0.2,0.1-0.3,0c-0.1,0-0.1,0-0.2,0c0,0-0.1,0-0.1,0.1c-0.3,0.4-0.1,1.7,0.4,2.5c0.1,0.2,0.4,0.6,0.7,0.6
				C242.5,213.3,242.6,213.3,242.6,213.3C242.6,213.3,242.6,213.3,242.6,213.3z"/>
		</g>
		<g>
			<path fill="#2E368F" d="M255.1,209.8c-1.8-0.4-3.6-2.6-4.6-4.4c-0.9,0.8-1.8,1.6-2.8,2.2c-2.5,1.7-5.7,2.2-5.7,2.2
				s0.2-2.5,1.8-4.6c0.7-0.9,1.6-1.8,2.7-2.3c1.6-0.8,3.8-0.6,5.3,0.4c0.4,0.3,0.8,0.6,1.1,1c0.6,0.8,1.1,1.8,1.4,2.7
				c0.3,0.8,0.5,1.6,0.7,2.4C255,209.5,255,209.7,255.1,209.8z"/>
			<path fill="#2E368F" d="M255.1,210.1c-1.7-0.4-3.6-2.5-4.7-4.3c-0.7,0.7-1.6,1.3-2.6,2c-2.5,1.7-5.7,2.3-5.8,2.3
				c-0.1,0-0.3-0.2-0.2-0.3c0-0.1,0,0.1,0,0c0-0.1,0.2-2.5,1.8-4.8c0.8-1,1.8-1.9,2.8-2.4c0.7-0.3,1.5-0.5,2.4-0.5
				c1.1,0,2.2,0.3,3.1,0.9c0.4,0.2,0.8,0.6,1.2,1.1c0.6,0.8,1.1,1.8,1.5,2.8c0.3,0.7,0.5,1.5,0.7,2.5c0,0.2,0.1,0.3,0.1,0.5
				c0,0,0,0,0,0.1C255.3,210,255.2,210.1,255.1,210.1"/>
		</g>
	</g>
</g>
<path fill="#2E368F" stroke="#2E368F" stroke-width="0.5" stroke-miterlimit="10" d="M256.9,204.9l1.2-1.2c0,0,0-0.1,0-0.1
	c0,0-0.1,0-0.1,0L256.9,204.9l-1.3-1.3c0,0-0.1,0-0.1,0c0,0,0,0.1,0,0.1l1.2,1.2l-1.2,1.2c0,0,0,0.1,0,0.1c0,0,0,0,0,0s0,0,0,0
	L256.9,204.9l1.1,1.3c0,0,0,0,0,0s0,0,0,0c0,0,0-0.1,0-0.1L256.9,204.9z"/>
<g>
	<g>
		<path fill="#2E368F" stroke="#2E368F" stroke-width="0.15" stroke-miterlimit="10" d="M298.7,202.6l-1.4-1.4
			c-0.4-0.4-1.1-0.4-1.5,0l-7.8,7.7l-1.6,4.5l4.5-1.6l7.8-7.7C299.1,203.7,299.1,203,298.7,202.6z M287.9,211.3l0.7-1.8l1.8,1.8
			l-1.8,0.6L287.9,211.3z M289.2,209.6l6.1-6.1l0.4,0.4l-6.1,6.1L289.2,209.6z M289.1,209.5l-0.3-0.4l6.1-6.1l0.3,0.4L289.1,209.5z
			 M289.8,210.2l6.1-6.1l0.4,0.4l-6.1,6.1L289.8,210.2z M295.2,202.7l0.2-0.2l2,2l-0.2,0.2L295.2,202.7z M290.7,211.1l-0.3-0.4
			l6.1-6.1l0.3,0.4L290.7,211.1z M298.3,203.6l-0.6,0.6l-2-2l0.6-0.6c0.2-0.2,0.4-0.2,0.6,0l1.4,1.4
			C298.4,203.2,298.4,203.5,298.3,203.6z"/>
	</g>
</g>
<circle fill="#2E368F" cx="330.4" cy="209.9" r="9.1"/>
<path fill="#FFFFFF" stroke="#FFFFFF" stroke-miterlimit="10" d="M331.1,209.9l3.9-3.9c0.1-0.1,0.1-0.2,0-0.3
	c-0.1-0.1-0.2-0.1-0.3,0l-3.9,3.9l-3.9-3.9c-0.1-0.1-0.2-0.1-0.3,0c-0.1,0.1-0.1,0.2,0,0.3l3.9,3.9l-3.9,3.9c-0.1,0.1-0.1,0.2,0,0.3
	c0,0,0.1,0.1,0.2,0.1s0.1,0,0.2-0.1l3.9-3.9l3.9,3.9c0,0,0.1,0.1,0.2,0.1c0.1,0,0.1,0,0.2-0.1c0.1-0.1,0.1-0.2,0-0.3L331.1,209.9z"
	/>
<g>
	<polygon fill="#2E368F" points="375.4,206.4 376.9,205.6 376.9,205.4 375,206.4 376.9,207.4 376.9,207.2 	"/>
	<path fill="#2E368F" d="M377.5,206l0-0.6l-1.7,1l1.7,1l0-0.6c1.8,0,2,1.3,2,1.3C379.5,206.5,378,206.1,377.5,206z"/>
</g>
<path fill="#2E368F" stroke="#2E368F" stroke-width="0.95" stroke-miterlimit="10" d="M370.7,164.7c-1.7,0-3.3,0.7-4.3,2v-1.6
	c0-0.1-0.1-0.2-0.2-0.2s-0.2,0.1-0.2,0.2v2.1c0,0,0,0,0,0c0,0,0,0,0,0c0,0,0,0,0,0c0,0,0,0,0,0c0,0,0,0,0,0c0,0,0,0,0,0c0,0,0,0,0,0
	c0,0,0,0,0,0c0,0,0,0,0,0c0,0,0,0,0,0h2.1c0.1,0,0.2-0.1,0.2-0.2c0-0.1-0.1-0.2-0.2-0.2h-1.7c1-1.2,2.5-2,4.1-2
	c2.9,0,5.3,2.4,5.3,5.3c0,2.9-2.4,5.3-5.3,5.3c-1.1,0-2.2-0.3-3.1-1c-0.1-0.1-0.2,0-0.3,0c-0.1,0.1,0,0.2,0,0.3c1,0.7,2.1,1,3.3,1
	c3.2,0,5.7-2.6,5.7-5.7C376.4,167.2,373.9,164.7,370.7,164.7z"/>
<path fill="#2E368F" d="M376.5,8.9c-0.3,0-0.5,0-0.8-0.1c-0.2,0-0.3-0.2-0.2-0.4c0-0.2,0.2-0.3,0.4-0.2c1.3,0.3,2.6-0.3,3.2-1.5
	c0.3-0.7,0.4-1.5,0.2-2.2c-0.2-0.7-0.8-1.3-1.4-1.7c-0.7-0.3-1.5-0.4-2.2-0.2c-0.7,0.2-1.3,0.8-1.7,1.4c-0.1,0.1-0.3,0.2-0.4,0.1
	c-0.1-0.1-0.2-0.3-0.1-0.4c0.4-0.8,1.1-1.4,2-1.7c0.9-0.3,1.8-0.2,2.7,0.2c0.8,0.4,1.4,1.1,1.7,2c0.3,0.9,0.2,1.8-0.2,2.7
	C379,8.2,377.8,8.9,376.5,8.9z"/>
<g>
	<path fill="#2E368F" d="M368.4,18.5c-2.5,0-4.8-1.6-6.1-4.2c-0.4,0-0.9-0.3-1.2-0.9c-0.5-0.9-0.8-2.4-0.4-3.1
		c0.2-0.3,0.4-0.4,0.7-0.4c0,0,0,0,0,0c0.1-2,0.8-3.9,2-5.3c1.3-1.5,3-2.4,4.9-2.4c1.8,0,3.6,0.8,4.9,2.4c1.2,1.4,1.9,3.3,2,5.3
		c0,0,0,0,0,0c0.2,0,0.9,0.1,0.9,1.4c0,1.3-0.7,3-1.7,3.1C373.2,16.9,370.9,18.5,368.4,18.5z M362.5,13.7c0.1,0,0.2,0.1,0.3,0.2
		c1.1,2.5,3.2,4,5.6,4c2.3,0,4.5-1.5,5.6-4c0.1-0.1,0.2-0.2,0.3-0.2c0,0,0,0,0.1,0l0,0c0.6,0,1.2-1.4,1.2-2.5c0-0.5-0.1-0.8-0.3-0.8
		c0,0-0.1,0-0.2,0c-0.1,0-0.2,0-0.3,0c-0.1-0.1-0.1-0.1-0.1-0.2c0-4.1-2.9-7.5-6.3-7.5c-3.4,0-6.3,3.3-6.3,7.5
		c0,0.1-0.1,0.2-0.1,0.2c-0.1,0.1-0.2,0.1-0.3,0c-0.1,0-0.1,0-0.2,0c0,0-0.1,0-0.1,0.1c-0.3,0.4-0.1,1.7,0.4,2.5
		c0.1,0.2,0.4,0.6,0.7,0.6C362.4,13.7,362.4,13.7,362.5,13.7C362.5,13.7,362.5,13.7,362.5,13.7z"/>
</g>
<g>
	<path fill="#2E368F" d="M374.9,10.2c-1.8-0.4-3.6-2.6-4.6-4.4c-0.9,0.8-1.8,1.6-2.8,2.2c-2.5,1.7-5.7,2.2-5.7,2.2s0.2-2.5,1.8-4.6
		c0.7-0.9,1.6-1.8,2.7-2.3c1.6-0.8,3.8-0.6,5.3,0.4c0.4,0.3,0.8,0.6,1.1,1c0.6,0.8,1.1,1.8,1.4,2.7c0.3,0.8,0.5,1.6,0.7,2.4
		C374.9,9.9,374.9,10.1,374.9,10.2z"/>
	<path fill="#2E368F" d="M374.9,10.5c-1.7-0.4-3.6-2.5-4.7-4.3c-0.7,0.7-1.6,1.3-2.6,2c-2.5,1.7-5.7,2.3-5.8,2.3
		c-0.1,0-0.3-0.2-0.2-0.3c0-0.1,0,0.1,0,0c0-0.1,0.2-2.5,1.8-4.8c0.8-1,1.8-1.9,2.8-2.4c0.7-0.3,1.5-0.5,2.4-0.5
		c1.1,0,2.2,0.3,3.1,0.9c0.4,0.2,0.8,0.6,1.2,1.1c0.6,0.8,1.1,1.8,1.5,2.8c0.3,0.7,0.5,1.5,0.7,2.5c0,0.2,0.1,0.3,0.1,0.5
		c0,0,0,0,0,0.1C375.2,10.4,375.1,10.5,374.9,10.5"/>
</g>
<rect x="376.4" y="3.5" transform="matrix(0.5406 0.8413 -0.8413 0.5406 177.5117 -314.287)" fill="none" stroke="#2E368F" stroke-width="0.5" stroke-miterlimit="10" width="0.2" height="3.9"/>
<path fill="none" stroke="#2E368F" stroke-width="0.5" stroke-miterlimit="10" d="M376.5,3.4c-1.1,0-2,0.9-2,2l0,0c0,1.1,0.9,2,2,2
	s2-0.9,2-2l0,0C378.5,4.3,377.6,3.4,376.5,3.4L376.5,3.4L376.5,3.4z"/>
<path fill="#2E368F" d="M290.6,2.8c-0.1,0-0.1,0-0.2,0.1l-7.2,11.5c-0.1,0.2,0,0.3,0.2,0.3h14.4c0.2,0,0.3-0.1,0.2-0.3l-7.2-11.5
	C290.8,2.8,290.7,2.8,290.6,2.8L290.6,2.8z"/>
<path fill="#2E368F" stroke="#2E368F" stroke-width="0.5" stroke-miterlimit="10" d="M241.5,2.5v14.4c0,0.9,0.6,1.6,1.4,1.6h15.5
	c0.8,0,1.4-0.7,1.4-1.6V2.5c0-0.9-0.6-1.6-1.4-1.6h-15.5C242.1,0.9,241.5,1.6,241.5,2.5z M242.2,2.5c0-0.4,0.3-0.7,0.6-0.7h15.5
	c0.3,0,0.6,0.3,0.6,0.7v14.4c0,0.4-0.3,0.7-0.6,0.7h-15.5c-0.3,0-0.6-0.3-0.6-0.7V2.5z"/>
<path fill="#2E368F" stroke="#2E368F" stroke-miterlimit="10" d="M250.5,5.7c-0.1-0.1-0.2-0.1-0.3,0c-0.1,0.1-0.1,0.2,0,0.3l3.9,3.9
	l-3.9,3.9c-0.1,0.1-0.1,0.2,0,0.3c0.1,0.1,0.2,0.1,0.3,0l4-4c0,0,0.1-0.1,0.1-0.2s0-0.1-0.1-0.2L250.5,5.7z"/>
<path fill="#2E368F" stroke="#2E368F" stroke-miterlimit="10" d="M247.5,5.9c-0.1-0.1-0.2-0.1-0.3,0c-0.1,0.1-0.1,0.2,0,0.3l3.9,3.9
	l-3.9,3.9c-0.1,0.1-0.1,0.2,0,0.3c0.1,0.1,0.2,0.1,0.3,0l4-4c0,0,0.1-0.1,0.1-0.2c0-0.1,0-0.1-0.1-0.2L247.5,5.9z"/>
<path fill="#2E368F" stroke="#2E368F" stroke-width="0.5" stroke-miterlimit="10" d="M201.3,2.5v14.4c0,0.9,0.6,1.6,1.4,1.6h15.5
	c0.8,0,1.4-0.7,1.4-1.6V2.5c0-0.9-0.6-1.6-1.4-1.6h-15.5C201.9,0.9,201.3,1.6,201.3,2.5z M202.1,2.5c0-0.4,0.3-0.7,0.6-0.7h15.5
	c0.3,0,0.6,0.3,0.6,0.7v14.4c0,0.4-0.3,0.7-0.6,0.7h-15.5c-0.3,0-0.6-0.3-0.6-0.7V2.5z"/>
<g>
	<path fill="#2E368F" stroke="#2E368F" stroke-miterlimit="10" d="M211.1,5.7c0.1-0.1,0.2-0.1,0.3,0c0.1,0.1,0.1,0.2,0,0.3l-3.9,3.9
		l3.9,3.9c0.1,0.1,0.1,0.2,0,0.3c-0.1,0.1-0.2,0.1-0.3,0l-4-4c0,0-0.1-0.1-0.1-0.2s0-0.1,0.1-0.2L211.1,5.7z"/>
	<path fill="#2E368F" stroke="#2E368F" stroke-miterlimit="10" d="M214.1,5.9c0.1-0.1,0.2-0.1,0.3,0c0.1,0.1,0.1,0.2,0,0.3l-3.9,3.9
		l3.9,3.9c0.1,0.1,0.1,0.2,0,0.3c-0.1,0.1-0.2,0.1-0.3,0l-4-4c0,0-0.1-0.1-0.1-0.2c0-0.1,0-0.1,0.1-0.2L214.1,5.9z"/>
</g>
<path fill="#2E368F" d="M335.3,9.4l-2.8,0.9l1.8,2.4c0.5,0.6,0.3,1.5-0.3,1.9c-0.3,0.2-0.5,0.3-0.8,0.3c-0.4,0-0.9-0.2-1.1-0.6
	l-1.8-2.4l-1.8,2.4c-0.3,0.4-0.7,0.6-1.1,0.6c-0.3,0-0.6-0.1-0.8-0.3c-0.6-0.5-0.8-1.3-0.3-1.9l1.8-2.4l-2.9-0.9
	c-0.7-0.2-1.1-1-0.9-1.8c0.2-0.7,1-1.1,1.8-0.9l2.9,0.9v-3c0-0.8,0.6-1.4,1.4-1.4c0.8,0,1.4,0.6,1.4,1.4v3l2.9-0.9
	c0.7-0.2,1.5,0.2,1.8,0.9C336.4,8.4,336,9.2,335.3,9.4z"/>
<path fill="#2E368F" stroke="#2E368F" stroke-width="0.5" stroke-miterlimit="10" d="M176.4,8.6c1.5-1.6,1.5-4.1-0.1-5.7
	c-0.8-0.8-1.8-1.2-2.9-1.2c-1.1,0-2.1,0.4-2.9,1.2l-3.4,3.4c-0.2,0.2-0.2,0.5,0,0.7c0.1,0.1,0.2,0.1,0.3,0.1c0.1,0,0.2,0,0.3-0.1
	l3.4-3.4c1.2-1.2,3.2-1.2,4.3,0c1.2,1.2,1.2,3.2,0,4.3l-8.5,8.5c-0.8,0.8-2.1,0.8-2.9,0c-0.8-0.8-0.8-2.1,0-2.9l6.9-6.9l0,0
	c0.4-0.4,1-0.4,1.4,0c0.2,0.2,0.3,0.4,0.3,0.7c0,0.3-0.1,0.5-0.3,0.7l-6,6c-0.2,0.2-0.2,0.5,0,0.7c0.1,0.1,0.2,0.1,0.3,0.1
	c0.1,0,0.2,0,0.3-0.1l6-6c0.4-0.4,0.6-0.9,0.6-1.4c0-0.5-0.2-1-0.6-1.4c-0.7-0.7-1.9-0.8-2.7-0.1c0,0,0,0,0,0l-7,7
	c-1.2,1.2-1.2,3.1,0,4.2c0.6,0.6,1.4,0.9,2.1,0.9c0.8,0,1.5-0.3,2.1-0.9L176.4,8.6L176.4,8.6L176.4,8.6L176.4,8.6
	C176.4,8.6,176.4,8.6,176.4,8.6z"/>
<title>interface_004-information-detail-window-application</title>
<desc>Created with Sketch.</desc>
<path fill="#2E368F" stroke="#2E368F" stroke-width="0.5" stroke-miterlimit="10" d="M60.3,19.5L60.3,19.5l0-13.6
	c-0.3,0.2-0.5,0.5-0.8,0.7l0,12.1H41.4V5.3h11.1c0.3-0.4,0.7-0.8,1-1.2c0.3-0.4,0.8-0.2,0.9,0.2c0.1,0,0.1,0.1,0.2,0.1c0,0,0,0,0,0
	c1.4,0,2.7,0,4.1,0c0,0,0-0.1,0.1-0.1c-0.1-0.1-0.1-0.3,0-0.5c0.1-0.3,0.3-0.5,0.4-0.8c-0.3,0-0.6-0.1-0.6-0.5c0-0.1-0.1-0.4,0-0.5
	c0,0-0.1,0.4-0.1,0.4c-0.1,0-0.2-0.2-0.3-0.2c-0.1,0-0.1-0.1-0.3,0c-0.2,0.1-0.4,0.3-0.5,0.4c0,0,0,0,0,0c0,0-0.1,0.1-0.1,0.1
	c-0.2,0.1-0.4,0.1-0.5,0c-0.1,0.1-0.2,0.2-0.3,0.4c-0.5,0.5-1.2-0.2-0.7-0.7c0.3-0.3,0.6-0.7,0.9-1H40.6v18.1h19.2l0,0
	C60,19.5,60.1,19.5,60.3,19.5L60.3,19.5L60.3,19.5z"/>
<rect x="41.4" y="2.2" fill="#FFFFFF" width="18.1" height="2.4"/>
<rect x="42.2" y="3" fill="#2E368F" stroke="#2E368F" stroke-width="0.5" stroke-miterlimit="10" width="0.8" height="0.8"/>
<rect x="43.7" y="3" fill="#2E368F" stroke="#2E368F" stroke-width="0.5" stroke-miterlimit="10" width="0.8" height="0.8"/>
<rect x="45.3" y="3" fill="#2E368F" stroke="#2E368F" stroke-width="0.5" stroke-miterlimit="10" width="0.8" height="0.8"/>
<path fill="#2E368F" stroke="#2E368F" stroke-width="0.5" stroke-miterlimit="10" d="M100.3,19.5L100.3,19.5l0-13.6
	c-0.3,0.2-0.5,0.5-0.8,0.7l0,12.1H81.4V5.3h11.1c0.3-0.4,0.7-0.8,1-1.2c0.3-0.4,0.8-0.2,0.9,0.2c0.1,0,0.1,0.1,0.2,0.1c0,0,0,0,0,0
	c1.4,0,2.7,0,4.1,0c0,0,0-0.1,0.1-0.1c-0.1-0.1-0.1-0.3,0-0.5c0.1-0.3,0.3-0.5,0.4-0.8c-0.3,0-0.6-0.1-0.6-0.5c0-0.1-0.1-0.4,0-0.5
	c0,0-0.1,0.4-0.1,0.4c-0.1,0-0.2-0.2-0.3-0.2c-0.1,0-0.1-0.1-0.3,0c-0.2,0.1-0.4,0.3-0.5,0.4c0,0,0,0,0,0c0,0-0.1,0.1-0.1,0.1
	c-0.2,0.1-0.4,0.1-0.5,0c-0.1,0.1-0.2,0.2-0.3,0.4c-0.5,0.5-1.2-0.2-0.7-0.7c0.3-0.3,0.6-0.7,0.9-1H80.6v18.1h19.2l0,0
	C100,19.5,100.1,19.5,100.3,19.5L100.3,19.5L100.3,19.5z"/>
<rect x="81.4" y="2.2" fill="#FFFFFF" width="18.1" height="2.4"/>
<rect x="83.7" y="3" fill="#2E368F" stroke="#2E368F" stroke-width="0.5" stroke-miterlimit="10" width="0.8" height="0.8"/>
<rect x="82.1" y="3" fill="#2E368F" stroke="#2E368F" stroke-width="0.5" stroke-miterlimit="10" width="0.8" height="0.8"/>
<rect x="85.3" y="3" fill="#2E368F" stroke="#2E368F" stroke-width="0.5" stroke-miterlimit="10" width="0.8" height="0.8"/>
<g>
	<path fill="#2E368F" d="M138.5,3.6c0.2,0.2,0.2,0.5,0,0.7l-0.2,0.2l-0.7-0.7l0.2-0.2C138,3.4,138.3,3.4,138.5,3.6z"/>
	<polygon fill="#2E368F" points="135.2,6.3 135,7.2 135.8,6.9 138.1,4.7 137.4,4 	"/>
</g>
<rect x="54" y="3.8" fill="#FFFFFF" width="5" height="1.6"/>
<g>
	<path fill="#2E368F" stroke="#2E368F" stroke-width="0.15" stroke-miterlimit="10" d="M59.9,3.2l-1.4-1.3C58.1,1.6,57.4,1.6,57,2
		l-7.2,8.1l-1.4,4.5l4.3-1.8L60,4.7C60.4,4.3,60.3,3.6,59.9,3.2z M49.7,12.5l0.5-1.8l1.9,1.7l-1.7,0.7L49.7,12.5z M50.9,10.7
		l5.7-6.4l0.4,0.4l-5.7,6.4L50.9,10.7z M50.8,10.6l-0.4-0.3l5.7-6.4l0.4,0.3L50.8,10.6z M51.5,11.3l5.7-6.4l0.4,0.4L52,11.7
		L51.5,11.3z M56.4,3.6l0.2-0.2l2.1,1.9l-0.2,0.2L56.4,3.6z M52.5,12.2l-0.4-0.3l5.7-6.4l0.4,0.3L52.5,12.2z M59.5,4.3L59,4.9
		l-2.1-1.9l0.6-0.6c0.1-0.2,0.4-0.2,0.6,0l1.4,1.3C59.7,3.9,59.7,4.1,59.5,4.3z"/>
</g>
<path fill="#FFFFFF" d="M97.8,1.4c0,0-0.8,0.9-0.9,1c-0.1,0-2.5,1.2-2.5,1.2s-0.7-0.1-0.7,0.1s0.3,3.6,0.3,3.6l1.3,2.2
	c0,0,2.1-2.1,2.2-2.2s2.8-2.2,2.8-2.2l-1.7-2.6L97.8,1.4z"/>
<g>
	<path fill="#2E368F" stroke="#2E368F" stroke-width="0.15" stroke-miterlimit="10" d="M99.8,2.3c0.6,0.6,0.6,1.5,0,2.1l-0.7,0.7
		L97,3l0.7-0.7C98.3,1.7,99.2,1.7,99.8,2.3z"/>
	<polygon fill="#2E368F" stroke="#2E368F" stroke-width="0.15" stroke-miterlimit="10" points="89.4,10.6 88.7,13.4 91.4,12.7 
		98.4,5.8 96.3,3.7 	"/>
</g>
<path fill="#2E368F" stroke="#2E368F" stroke-width="0.75" stroke-miterlimit="10" d="M-16.8,132.6h-1.6v-1.6c0-0.1-0.1-0.2-0.2-0.2
	c-0.1,0-0.2,0.1-0.2,0.2v1.6h-1.6c-0.1,0-0.2,0.1-0.2,0.2c0,0.1,0.1,0.2,0.2,0.2h1.6v1.6c0,0.1,0.1,0.2,0.2,0.2
	c0.1,0,0.2-0.1,0.2-0.2V133h1.6c0.1,0,0.2-0.1,0.2-0.2C-16.6,132.7-16.7,132.6-16.8,132.6z"/>
<path fill="#2E368F" stroke="#2E368F" stroke-width="0.75" stroke-miterlimit="10" d="M-48.6,163c-2.6,0-4.6,2.1-4.6,4.6
	c0,2.6,2.1,4.6,4.6,4.6c2.6,0,4.6-2.1,4.6-4.6C-43.9,165.1-46,163-48.6,163z M-48.6,171.9c-2.3,0-4.2-1.9-4.2-4.2
	c0-2.3,1.9-4.2,4.2-4.2c2.3,0,4.2,1.9,4.2,4.2C-44.3,170-46.2,171.9-48.6,171.9z"/>
<path fill="#2E368F" stroke="#2E368F" stroke-width="0.75" stroke-miterlimit="10" d="M-46.9,167.5h-1.6v-1.6c0-0.1-0.1-0.2-0.2-0.2
	s-0.2,0.1-0.2,0.2v1.6h-1.6c-0.1,0-0.2,0.1-0.2,0.2s0.1,0.2,0.2,0.2h1.6v1.6c0,0.1,0.1,0.2,0.2,0.2s0.2-0.1,0.2-0.2v-1.6h1.6
	c0.1,0,0.2-0.1,0.2-0.2S-46.8,167.5-46.9,167.5z"/>
<rect x="405.1" y="91.8" fill="#2E368F" width="6" height="8.1"/>
<polygon fill="#2E368F" points="409,89.9 403,89.9 403,98 404.3,98 404.3,91.2 409,91.2 "/>
<polygon fill="#2E368F" points="407,87.9 401.1,87.9 401.1,96 402.4,96 402.4,89.2 407,89.2 "/>
<g>
</g>
<g>
</g>
<g>
</g>
<g>
</g>
<g>
</g>
<g>
</g>
<g>
</g>
<g>
</g>
<g>
</g>
<g>
</g>
<g>
</g>
<g>
</g>
<g>
</g>
<g>
</g>
<g>
</g>
<g>
</g>
<g>
</g>
<g>
</g>
<g>
</g>
<g>
</g>
<g>
</g>
<g>
</g>
<g>
</g>
<g>
</g>
<g>
</g>
<g>
</g>
<g>
</g>
<g>
</g>
<g>
</g>
<g>
</g>
<g>
	<g>
		<path fill="#2E368F" d="M-47.3,119.5c-5.2,0-9.3,4.2-9.3,9.3c0,5.2,4.2,9.3,9.3,9.3h9.3v-9.3C-38,123.6-42.2,119.5-47.3,119.5z
			 M-47.3,136.4c-4.2,0-7.6-3.4-7.6-7.6s3.4-7.6,7.6-7.6s7.6,3.4,7.6,7.6S-43.1,136.4-47.3,136.4z"/>
	</g>
	<path fill="#2E368F" d="M-43.5,128.1h-3.1V125c0-0.4-0.3-0.7-0.7-0.7c-0.4,0-0.7,0.3-0.7,0.7v3.1h-3.1c-0.4,0-0.7,0.3-0.7,0.7
		c0,0.4,0.3,0.7,0.7,0.7h3.1v3.1c0,0.4,0.3,0.7,0.7,0.7c0.4,0,0.7-0.3,0.7-0.7v-3.1h3.1c0.4,0,0.7-0.3,0.7-0.7
		C-42.8,128.4-43.1,128.1-43.5,128.1z"/>
</g>
<path fill="#2E368F" d="M-40.1,162.3v-2.9H-43V158h-1.6v1.4h-8.2V158h-1.6v1.4h-2.9v15.7h2.9v2.9h17.1v-15.7H-40.1z M-55.9,173.9
	v-13h1.5v1.5h1.6v-1.5h8.2v1.5h1.6v-1.5h1.5v13H-55.9z M-38.5,176.8h-14.2v-1.6h12.6v-11.5h1.6V176.8z"/>
<path fill="#1D1D1B" d="M-42.4,193.1h-2.5c0-1.4-1.1-2.5-2.5-2.5c-1.4,0-2.5,1.1-2.5,2.5h-2.5v2.5h10V193.1z M-47.4,194.4
	c-0.7,0-1.2-0.6-1.2-1.2c0-0.7,0.6-1.2,1.2-1.2c0.7,0,1.2,0.6,1.2,1.2C-46.2,193.8-46.7,194.4-47.4,194.4z"/>
<polygon fill="#1D1D1B" points="-41.2,193.1 -41.2,196.9 -53.6,196.9 -53.6,193.1 -56.1,193.1 -56.1,210.6 -38.7,210.6 -38.7,193.1 
	"/>
</svg>
