<?xml version="1.0" encoding="utf-8"?>
<!-- Generator: Adobe Illustrator 18.1.1, SVG Export Plug-In . SVG Version: 6.00 Build 0)  -->
<svg version="1.1" id="Layer_1" xmlns="http://www.w3.org/2000/svg" xmlns:xlink="http://www.w3.org/1999/xlink" x="0px" y="0px"
	 viewBox="0 0 18.7 18.7" enable-background="new 0 0 18.7 18.7" xml:space="preserve">
<path fill="#666666" stroke="#666666" stroke-width="0.75" stroke-miterlimit="10" d="M348.3,107.1l4-4c0.1-0.1,0.1-0.2,0-0.3
	s-0.2-0.1-0.3,0l-4,4l-4-4c-0.1-0.1-0.2-0.1-0.3,0s-0.1,0.2,0,0.3l4,4l-4,4c-0.1,0.1-0.1,0.2,0,0.3c0,0,0.1,0.1,0.2,0.1
	s0.1,0,0.2-0.1l4-4l4,4c0,0,0.1,0.1,0.2,0.1s0.1,0,0.2-0.1c0.1-0.1,0.1-0.2,0-0.3L348.3,107.1z"/>
<path fill="#666666" stroke="#666666" stroke-width="0.75" stroke-miterlimit="10" d="M431,63.2c0.1-0.1,0.1-0.2,0-0.3
	c-0.1-0.1-0.2-0.1-0.3,0l-1.8,1.8l0.3,0.3L431,63.2z"/>
<path fill="#666666" stroke="#666666" stroke-width="0.75" stroke-miterlimit="10" d="M430.7,71.2c0,0,0.1,0.1,0.2,0.1
	s0.1,0,0.2-0.1c0.1-0.1,0.1-0.2,0-0.3l-2.2-2.2l-0.3,0.3L430.7,71.2z"/>
<path fill="#666666" stroke="#666666" stroke-width="0.75" stroke-miterlimit="10" d="M427.2,67l0.3-0.3l-0.3-0.3l-0.3,0.3l-3.8-3.8
	c-0.1-0.1-0.2-0.1-0.3,0c-0.1,0.1-0.1,0.2,0,0.3l3.8,3.8l-3.8,3.8c-0.1,0.1-0.1,0.2,0,0.3c0,0,0.1,0.1,0.2,0.1c0.1,0,0.1,0,0.2-0.1
	l3.8-3.8l1.3,1.3l0.3-0.3L427.2,67z"/>
<path fill="#666666" stroke="#666666" stroke-width="0.75" stroke-miterlimit="10" d="M425.6,71.1c-0.1,0.1-0.1,0.2,0,0.3
	c0,0,0.1,0.1,0.2,0.1c0.1,0,0.1,0,0.2-0.1l1.9-1.9l-0.3-0.3L425.6,71.1z"/>
<path fill="#666666" stroke="#666666" stroke-width="0.75" stroke-miterlimit="10" d="M426,63.2c-0.1-0.1-0.2-0.1-0.3,0
	c-0.1,0.1-0.1,0.2,0,0.3l2.2,2.2l0.3-0.3L426,63.2z"/>
<path fill="#666666" stroke="#666666" stroke-width="0.75" stroke-miterlimit="10" d="M430.1,67.3l3.8-3.8c0.1-0.1,0.1-0.2,0-0.3
	c-0.1-0.1-0.2-0.1-0.3,0l-3.8,3.8l-1.3-1.3l-0.3,0.3l1.3,1.3l-0.4,0.4l0.3,0.3l0.4-0.4l3.8,3.8c0,0,0.1,0.1,0.2,0.1
	c0.1,0,0.1,0,0.2-0.1c0.1-0.1,0.1-0.2,0-0.3L430.1,67.3z"/>
<rect x="428.2" y="68.4" transform="matrix(-0.7072 -0.707 0.707 -0.7072 682.9935 420.0792)" fill="#666666" stroke="#666666" stroke-width="0.75" stroke-miterlimit="10" width="0.5" height="0.5"/>
<rect x="427.9" y="65.5" transform="matrix(0.7067 0.7075 -0.7075 0.7067 172.0756 -283.6761)" fill="#666666" stroke="#666666" stroke-width="0.75" stroke-miterlimit="10" width="0.5" height="0.5"/>
<g>
	<path fill="#666666" stroke="#666666" stroke-width="0.45" stroke-miterlimit="10" d="M274.4,23.8H272c0.1-0.2,0.2-0.5,0.2-0.8v-2
		c0-1.8-1.5-3.3-3.3-3.3h-2.5c-1.8,0-3.3,1.5-3.3,3.3v2c0,0.3,0.1,0.6,0.2,0.8h-2.4c-1,0-1.8,0.8-1.8,1.8v8.3c0,1,0.8,1.8,1.8,1.8
		h13.5c1,0,1.8-0.8,1.8-1.8v-8.3C276.2,24.6,275.4,23.8,274.4,23.8z M264.1,23v-2c0-1.3,1.1-2.3,2.3-2.3h2.5c1.3,0,2.3,1.1,2.3,2.3
		v2c0,0.4-0.4,0.8-0.8,0.8h-5.6C264.4,23.8,264.1,23.4,264.1,23z M275.2,33.9c0,0.4-0.4,0.8-0.8,0.8h-13.5c-0.4,0-0.8-0.4-0.8-0.8
		v-8.3c0-0.4,0.4-0.8,0.8-0.8h4h5.6h4c0.4,0,0.8,0.4,0.8,0.8V33.9z"/>
	<path fill="#666666" stroke="#666666" stroke-width="0.45" stroke-miterlimit="10" d="M267.7,27.2c-1,0-1.9,0.8-1.9,1.9
		c0,0.9,0.6,1.6,1.4,1.8v1.6c0,0.3,0.2,0.5,0.5,0.5s0.5-0.2,0.5-0.5v-1.6c0.8-0.2,1.4-0.9,1.4-1.8C269.6,28,268.7,27.2,267.7,27.2z
		 M267.7,30c-0.5,0-0.9-0.4-0.9-0.9c0-0.5,0.4-0.9,0.9-0.9c0.5,0,0.9,0.4,0.9,0.9C268.6,29.6,268.2,30,267.7,30z"/>
</g>
<g>
	<path fill="#666666" stroke="#666666" stroke-width="0.45" stroke-miterlimit="10" d="M315.5,24.7h-2.4c0.1-0.2,0.2-0.5,0.2-0.8v-2
		c0-1.8-1.5-3.3-3.3-3.3h-2.5c-1.8,0-3.3,1.5-3.3,3.3c0,0.3,0.2,0.5,0.5,0.5s0.5-0.2,0.5-0.5c0-1.3,1.1-2.3,2.3-2.3h2.5
		c1.3,0,2.3,1.1,2.3,2.3v2c0,0.4-0.4,0.8-0.8,0.8h-5.6h-4c-1,0-1.8,0.8-1.8,1.8v8.3c0,1,0.8,1.8,1.8,1.8h13.5c1,0,1.8-0.8,1.8-1.8
		v-8.3C317.3,25.5,316.5,24.7,315.5,24.7z M316.3,34.8c0,0.4-0.4,0.8-0.8,0.8H302c-0.4,0-0.8-0.4-0.8-0.8v-8.3
		c0-0.4,0.4-0.8,0.8-0.8h4h5.6h4c0.4,0,0.8,0.4,0.8,0.8V34.8z"/>
	<path fill="#666666" stroke="#666666" stroke-width="0.45" stroke-miterlimit="10" d="M308.7,28.1c-1,0-1.9,0.8-1.9,1.9
		c0,0.9,0.6,1.6,1.4,1.8v1.6c0,0.3,0.2,0.5,0.5,0.5s0.5-0.2,0.5-0.5v-1.6c0.8-0.2,1.4-0.9,1.4-1.8C310.6,29,309.8,28.1,308.7,28.1z
		 M308.7,30.9c-0.5,0-0.9-0.4-0.9-0.9c0-0.5,0.4-0.9,0.9-0.9c0.5,0,0.9,0.4,0.9,0.9C309.6,30.5,309.2,30.9,308.7,30.9z"/>
</g>
<path fill="#666666" d="M155.4,18.1H141c-1,0-1.8,0.8-1.8,1.8v14.4c0,1,0.8,1.8,1.8,1.8h14.4c1,0,1.8-0.8,1.8-1.8V19.9
	C157.2,18.9,156.4,18.1,155.4,18.1z M153,24.7c0,0-5.8,5.8-5.8,5.8c-0.3,0.3-0.5,0.2-0.8,0l-2.8-2.8c-0.3-0.3-0.3-0.5,0-0.8
	c0.3-0.3,0.5-0.3,0.8,0l2.4,2.4l5.3-5.4c0.3-0.3,0.5-0.3,0.8,0C153.3,24.2,153.3,24.4,153,24.7z"/>
<path fill="#666666" stroke="#666666" stroke-width="0.5" stroke-miterlimit="10" d="M115.3,99.1c0.4,0,0.8,0.4,0.8,0.8v14.3
	c0,0.4-0.4,0.8-0.8,0.8H101c-0.4,0-0.8-0.4-0.8-0.8V99.9c0-0.4,0.4-0.8,0.8-0.8L115.3,99.1 M115.3,98H101c-1,0-1.9,0.8-1.9,1.9v14.3
	c0,1,0.8,1.9,1.9,1.9h14.3c1,0,1.9-0.8,1.9-1.9V99.9C117.2,98.8,116.3,98,115.3,98L115.3,98z"/>
<path fill="#666666" stroke="#666666" stroke-miterlimit="10" d="M434.3-12.7c0.1-0.1,0.1-0.2,0.1-0.3s0-0.2-0.1-0.3l-8.2-8.2
	c-0.2-0.2-0.5-0.2-0.6,0s-0.2,0.5,0,0.6l7.8,7.8l-7.8,7.8c-0.2,0.2-0.2,0.5,0,0.6s0.5,0.2,0.6,0L434.3-12.7z"/>
<path fill="#666666" stroke="#666666" stroke-miterlimit="10" d="M148.8,103c-0.1-0.1-0.2-0.1-0.3-0.1s-0.2,0-0.3,0.1l-8.2,8.2
	c-0.2,0.2-0.2,0.5,0,0.6c0.2,0.2,0.5,0.2,0.6,0l7.8-7.8l7.8,7.8c0.2,0.2,0.5,0.2,0.6,0c0.2-0.2,0.2-0.5,0-0.6L148.8,103z"/>
<path fill="#666666" stroke="#666666" stroke-miterlimit="10" d="M307.8,72c0.1,0.1,0.2,0.1,0.3,0.1c0.1,0,0.2,0,0.3-0.1l8.2-8.2
	c0.2-0.2,0.2-0.5,0-0.6c-0.2-0.2-0.5-0.2-0.6,0l-7.8,7.8l-7.8-7.8c-0.2-0.2-0.5-0.2-0.6,0c-0.2,0.2-0.2,0.5,0,0.6L307.8,72z"/>
<g transform="matrix( 1, 0, 0, 1, 0,0) ">
	<g>
		<g id="a_3_">
			<path fill="#666666" stroke="#666666" stroke-width="0.5" stroke-miterlimit="10" d="M178.6,62.5v7.2c0,0.9,0.3,1.7,1,2.4
				s1.5,1,2.4,1v2.6c0,0.1,0,0.2,0.1,0.3c0,0.1,0.1,0.1,0.2,0.2c0.1,0,0.1,0,0.2,0c0.1,0,0.2,0,0.3-0.1l3-2.9h8.3c1,0,1.8-0.3,2.5-1
				c0.7-0.7,1-1.5,1-2.4v-7.2c0-1-0.3-1.8-1-2.4c-0.7-0.7-1.5-1-2.5-1h-12.1c-1,0-1.8,0.3-2.5,1C179,60.7,178.6,61.5,178.6,62.5
				 M182.2,59.9h12.1c0.7,0,1.3,0.2,1.8,0.7c0.5,0.5,0.8,1.1,0.8,1.8v7.2c0,0.7-0.3,1.3-0.8,1.8c-0.5,0.5-1.1,0.8-1.8,0.8h-8.5
				c-0.1,0-0.2,0-0.3,0.1l-2.3,2.3v-2c0-0.1,0-0.2-0.1-0.3c-0.1-0.1-0.2-0.1-0.3-0.1h-0.4c-0.7,0-1.3-0.3-1.8-0.8
				c-0.5-0.5-0.8-1.1-0.8-1.8v-7.2c0-0.7,0.3-1.3,0.8-1.8C180.8,60.2,181.4,59.9,182.2,59.9z"/>
			<path fill="#666666" stroke="#666666" stroke-width="0.5" stroke-miterlimit="10" d="M193.4,66.9c0.2-0.2,0.4-0.5,0.4-0.8
				c0-0.3-0.1-0.6-0.4-0.8c-0.2-0.2-0.5-0.4-0.9-0.4s-0.6,0.1-0.9,0.4c-0.2,0.2-0.4,0.5-0.4,0.8c0,0.3,0.1,0.6,0.4,0.8
				c0.2,0.2,0.5,0.3,0.9,0.3S193.1,67.1,193.4,66.9 M185.1,66.1c0-0.3-0.1-0.6-0.4-0.8c-0.2-0.2-0.5-0.4-0.9-0.4
				c-0.3,0-0.6,0.1-0.9,0.4c-0.2,0.2-0.4,0.5-0.4,0.8c0,0.3,0.1,0.6,0.4,0.8c0.2,0.2,0.5,0.3,0.9,0.3c0.3,0,0.6-0.1,0.9-0.3
				C185,66.7,185.1,66.4,185.1,66.1 M187.3,65.2c-0.2,0.2-0.4,0.5-0.4,0.8c0,0.3,0.1,0.6,0.4,0.8c0.2,0.2,0.5,0.3,0.9,0.3
				c0.3,0,0.6-0.1,0.9-0.3c0.2-0.2,0.4-0.5,0.4-0.8c0-0.3-0.1-0.6-0.4-0.8c-0.2-0.2-0.5-0.4-0.9-0.4C187.9,64.9,187.6,65,187.3,65.2
				z"/>
		</g>
	</g>
</g>
<path fill="#666666" stroke="#666666" stroke-width="0.45" stroke-miterlimit="10" d="M71.8,114.5h-2v2H58.6v-15.2h2v-2h2v-2h11.1
	v15.2h-2L71.8,114.5L71.8,114.5z M69.2,101.9H59.1v14.2h10.1V101.9z M60.6,103.9v-0.5h7.1v0.5H60.6z M60.6,105.9v-0.5h7.1v0.5H60.6z
	 M60.6,108v-0.5h7.1v0.5H60.6z M60.6,110v-0.5h7.1v0.5H60.6z M60.6,112v-0.5h7.1v0.5H60.6z M60.6,114v-0.5h7.1v0.5H60.6z M61.1,99.9
	v1.5h8.6V114h1.5V99.9H61.1z M63.2,97.8v1.5h8.6V112h1.5V97.8H63.2z"/>
<path fill="#666666" d="M147.6,137.2c0,0-0.1,0-0.1,0.1l-5.2,8.4c-0.1,0.1,0,0.2,0.1,0.2h10.4c0.1,0,0.2-0.1,0.1-0.2l-5.2-8.4
	C147.7,137.3,147.6,137.2,147.6,137.2L147.6,137.2z M142.4,147.7c-0.1,0-0.2,0.1-0.1,0.2l5.2,8.4c0.1,0.1,0.2,0.1,0.2,0l5.2-8.4
	c0.1-0.1,0-0.2-0.1-0.2H142.4L142.4,147.7z"/>
<path fill="#666666" stroke="#666666" stroke-width="0.75" stroke-miterlimit="10" d="M427.9,57.6c-5.3,0-9.6,4.3-9.6,9.6
	s4.3,9.6,9.6,9.6s9.6-4.3,9.6-9.6S433.2,57.6,427.9,57.6z M427.9,75.9c-4.8,0-8.7-3.9-8.7-8.7s3.9-8.7,8.7-8.7s8.7,3.9,8.7,8.7
	S432.8,75.9,427.9,75.9z"/>
<g>
	<path fill="#666666" stroke="#666666" stroke-width="0.75" stroke-miterlimit="10" d="M227.7,107.3c-1.9,0-3.5,1.2-4.1,2.9h0.4
		c0.6-1.6,1.9-2.5,3.7-2.5c2.1,0,3.9,1.8,3.9,3.9s-1.8,3.9-3.9,3.9c-1.6,0-2.9-1-3.5-2.3h-0.4c0.6,1.6,2.1,2.7,3.9,2.7
		c2.3,0,4.3-1.9,4.3-4.3C232,109.2,230,107.3,227.7,107.3z"/>
	<path fill="#666666" stroke="#666666" stroke-width="0.75" stroke-miterlimit="10" d="M227.7,108.8v3.3h2.5v0.4h-2.9
		c0-1.2,0-2.7,0-3.7L227.7,108.8z"/>
</g>
<path fill="#666666" stroke="#666666" stroke-miterlimit="10" d="M196.6,107.2c-0.2,0-0.3,0.1-0.3,0.3v5c0,1.6-1.3,2.9-2.9,2.9
	h-10.6c-1.6,0-2.9-1.3-2.9-2.9V104v-2.2c0-1.6,1.3-2.9,2.9-2.9h4.9c0.2,0,0.3-0.1,0.3-0.3s-0.1-0.3-0.3-0.3h-4.9
	c-1.9,0-3.5,1.6-3.5,3.5v2.2v8.4c0,1.9,1.6,3.5,3.5,3.5h10.6c1.9,0,3.5-1.6,3.5-3.5v-5C196.8,107.3,196.7,107.2,196.6,107.2z"/>
<g>
	<g>
		<path fill="#666666" d="M197.2,98.2c0.6,0.6,0.6,1.5,0,2.1l-0.7,0.7l-2.1-2.1l0.7-0.7C195.7,97.7,196.6,97.6,197.2,98.2z"/>
		<polygon fill="#666666" points="186.9,106.4 186.2,109.2 189,108.5 195.8,101.6 193.7,99.6 		"/>
	</g>
</g>
<path fill="#666666" stroke="#666666" stroke-width="0.75" stroke-miterlimit="10" d="M356.6,147.4c-0.2,0-0.3,0.1-0.3,0.3v5
	c0,1.6-1.3,2.9-2.9,2.9h-10.5c-1.6,0-2.9-1.3-2.9-2.9v-8.4v-2.2c0-1.6,1.3-2.9,2.9-2.9h4.9c0.2,0,0.3-0.1,0.3-0.3
	c0-0.2-0.1-0.3-0.3-0.3h-4.9c-1.9,0-3.5,1.5-3.5,3.5v2.2v8.4c0,1.9,1.5,3.5,3.5,3.5h10.5c1.9,0,3.5-1.5,3.5-3.5v-5
	C356.8,147.5,356.7,147.4,356.6,147.4z"/>
<path fill="#666666" stroke="#666666" stroke-width="0.75" stroke-miterlimit="10" d="M317.1-13c-0.2,0-0.3,0.1-0.3,0.3v5.3
	c0,1.7-1.4,3.1-3.1,3.1h-11.3c-1.7,0-3.1-1.4-3.1-3.1v-9v-2.3c0-1.7,1.4-3.1,3.1-3.1h5.3c0.2,0,0.3-0.1,0.3-0.3s-0.1-0.3-0.3-0.3
	h-5.3c-2,0-3.7,1.7-3.7,3.7v2.3v9c0,2,1.7,3.7,3.7,3.7h11.3c2,0,3.7-1.7,3.7-3.7v-5.3C317.3-12.9,317.2-13,317.1-13z"/>
<g>
	<path fill="#666666" d="M317.7-22.5c0.6,0.6,0.6,1.6,0,2.2l-0.7,0.7l-2.2-2.2l0.7-0.7C316.1-23.1,317.1-23.1,317.7-22.5z"/>
	<polygon fill="#666666" points="306.7,-13.8 306,-10.9 308.9,-11.6 316.2,-18.9 314,-21.1 	"/>
</g>
<path fill="#666666" stroke="#666666" stroke-width="0.75" stroke-miterlimit="10" d="M236.1-13.9H229V-21c0-0.5-0.4-0.8-0.8-0.8
	c-0.5,0-0.8,0.4-0.8,0.8v7.1h-7.1c-0.5,0-0.8,0.4-0.8,0.8c0,0.5,0.4,0.8,0.8,0.8h7.1V-5c0,0.5,0.4,0.8,0.8,0.8
	c0.5,0,0.8-0.4,0.8-0.8v-7.1h7.1c0.5,0,0.8-0.4,0.8-0.8C237-13.5,236.6-13.9,236.1-13.9z"/>
<path fill="#666666" stroke="#666666" stroke-width="0.75" stroke-miterlimit="10" d="M197-4.8L192.8-9c2.7-3,2.6-7.7-0.3-10.6
	c-3-3-7.9-3-11,0c-3,3-3,7.9,0,11c1.5,1.5,3.5,2.3,5.5,2.3c1.8,0,3.7-0.7,5.1-2l4.2,4.2c0.1,0.1,0.2,0.1,0.3,0.1
	c0.1,0,0.2,0,0.3-0.1C197.2-4.3,197.2-4.6,197-4.8z M182.2-9.3c-2.7-2.7-2.7-7,0-9.7c1.3-1.3,3.1-2,4.8-2s3.5,0.7,4.8,2
	c2.7,2.7,2.7,7,0,9.7C189.2-6.7,184.8-6.6,182.2-9.3z"/>
<path fill="#666666" stroke="#666666" stroke-width="0.75" stroke-miterlimit="10" d="M273,115.1l-2.1-2.1c1.4-1.5,1.3-3.9-0.2-5.4
	c-1.5-1.5-4-1.5-5.5,0c-1.5,1.5-1.5,4,0,5.5c0.8,0.8,1.8,1.1,2.8,1.1c0.9,0,1.9-0.3,2.6-1l2.1,2.1c0,0,0.1,0.1,0.2,0.1
	s0.1,0,0.2-0.1C273.1,115.4,273.1,115.2,273,115.1z M265.5,112.8c-1.3-1.3-1.3-3.5,0-4.9c0.7-0.7,1.6-1,2.4-1s1.8,0.3,2.4,1
	c1.3,1.3,1.3,3.5,0,4.9C269,114.2,266.9,114.2,265.5,112.8z"/>
<path fill="#666666" stroke="#666666" stroke-width="0.75" stroke-miterlimit="10" d="M68.1-22.2c-5,0-9.1,4.1-9.1,9.1
	c0,5,4.1,9.1,9.1,9.1S77.3-8,77.3-13C77.3-18.1,73.2-22.2,68.1-22.2z M68.1-4.7c-4.6,0-8.3-3.7-8.3-8.3c0-4.6,3.7-8.3,8.3-8.3
	c4.6,0,8.3,3.7,8.3,8.3C76.5-8.4,72.7-4.7,68.1-4.7z"/>
<path fill="#666666" stroke="#666666" stroke-miterlimit="10" d="M276.6-20.9v4.6c0,0.1-0.1,0.2-0.2,0.2s-0.2-0.1-0.2-0.2v-4
	l-7.8,7.8c0,0-0.1,0.1-0.2,0.1c0,0-0.1,0-0.2-0.1c-0.1-0.1-0.1-0.2,0-0.3l7.8-7.8h-4c-0.1,0-0.2-0.1-0.2-0.2s0.1-0.2,0.2-0.2h4.6
	C276.5-21.1,276.6-21,276.6-20.9z"/>
<path fill="#666666" stroke="#666666" stroke-width="0.75" stroke-miterlimit="10" d="M275.9-12.7c-0.1,0-0.2,0.1-0.2,0.2v4.6
	c0,1.5-1.2,2.7-2.7,2.7h-9.8c-1.5,0-2.7-1.2-2.7-2.7v-7.8v-2c0-1.5,1.2-2.7,2.7-2.7h4.6c0.1,0,0.2-0.1,0.2-0.2
	c0-0.1-0.1-0.2-0.2-0.2h-4.6c-1.8,0-3.2,1.4-3.2,3.2v2v7.8c0,1.8,1.4,3.2,3.2,3.2h9.8c1.8,0,3.2-1.4,3.2-3.2v-4.6
	C276.2-12.6,276.1-12.7,275.9-12.7z"/>
<path fill="#666666" stroke="#666666" stroke-miterlimit="10" d="M18.3,30.6v4.3c0,0.1-0.1,0.2-0.2,0.2c-0.1,0-0.2-0.1-0.2-0.2v-3.8
	l-7.4,7.4c0,0-0.1,0.1-0.2,0.1s-0.1,0-0.2-0.1c-0.1-0.1-0.1-0.2,0-0.3l7.4-7.4h-3.8c-0.1,0-0.2-0.1-0.2-0.2c0-0.1,0.1-0.2,0.2-0.2
	H18C18.2,30.3,18.3,30.4,18.3,30.6z"/>
<path fill="#666666" stroke="#666666" stroke-width="0.75" stroke-miterlimit="10" d="M15.6,40.5c-0.1,0-0.2,0.1-0.2,0.2v4.4
	c0,1.4-1.2,2.6-2.6,2.6H3.4c-1.4,0-2.6-1.2-2.6-2.6v-7.5v-1.9c0-1.4,1.2-2.6,2.6-2.6h4.4C7.9,33.2,8,33.1,8,33s-0.1-0.2-0.2-0.2H3.4
	c-1.7,0-3.1,1.4-3.1,3.1v1.9v7.5c0,1.7,1.4,3.1,3.1,3.1h9.4c1.7,0,3.1-1.4,3.1-3.1v-4.4C15.9,40.6,15.8,40.5,15.6,40.5z"/>
<path fill="#666666" stroke="#666666" stroke-width="0.5" stroke-miterlimit="10" d="M117.5-9.2v-7.9c0-0.2,0.1-1.8-0.5-2.5
	c-0.4-0.5-1.2-0.6-2-0.6h-0.4c-0.1,0-0.3,0-0.6,0v-0.7c0-0.2-0.2-0.4-0.4-0.4s-0.4,0.2-0.4,0.4v0.8c-2.5,0-8,0-10.5,0v-0.8
	c0-0.2-0.2-0.4-0.4-0.4s-0.2,0.2-0.2,0.4v0.8c-0.3,0-0.5,0-0.6,0h-0.3c-0.9,0-1.7,0-2,0.6c-0.6,0.6-0.5,2.2-0.5,2.4v11.6
	c0,0.2,0.2,0.4,0.4,0.4h14.5c0.1,0,0.2,0,0.3-0.1l0,0l3.6-3.7l0,0l0,0l0,0c0,0,0,0,0-0.1C117.5-9.1,117.5-9.1,117.5-9.2z M99.7-19.1
	c0.2-0.3,0.9-0.3,1.6-0.3h0.4c0.1,0,0.3,0,0.6,0v0.5c0,0.2,0.2,0.4,0.4,0.4s0.3-0.2,0.3-0.4v-0.5c2.5,0,8,0,10.5,0v0.5
	c0,0.2,0.2,0.4,0.4,0.4s0.4-0.2,0.4-0.4v-0.5c0.3,0,0.5,0,0.6,0h0.4c0.7,0,1.3,0,1.6,0.3c0.1,0.3,0.1,1.1,0.1,1.7H99.4
	C99.4-18,99.5-18.8,99.7-19.1z M99.4-16.7h17.4v7.2h-3.3c-0.2,0-0.4,0.2-0.4,0.4v3.4H99.4V-16.7z M116.4-8.8l-2.4,2.5v-2.5H116.4z"
	/>
<g>
	<rect x="103.1" y="-14.7" fill="#666666" width="1.9" height="1.4"/>
	<rect x="105.9" y="-14.7" fill="#666666" width="1.9" height="1.4"/>
	<rect x="108.6" y="-14.7" fill="#666666" width="1.9" height="1.4"/>
	<rect x="111.2" y="-14.7" fill="#666666" width="1.9" height="1.4"/>
	<rect x="103.1" y="-12.6" fill="#666666" width="1.9" height="1.4"/>
	<rect x="105.9" y="-12.6" fill="#666666" width="1.9" height="1.4"/>
	<rect x="108.6" y="-12.6" fill="#666666" width="1.9" height="1.4"/>
	<rect x="111.2" y="-12.6" fill="#666666" width="1.9" height="1.4"/>
	<rect x="103.1" y="-10.4" fill="#666666" width="1.9" height="1.4"/>
	<rect x="105.9" y="-10.4" fill="#666666" width="1.9" height="1.4"/>
	<rect x="108.6" y="-10.4" fill="#666666" width="1.9" height="1.4"/>
	<rect x="111.2" y="-10.4" fill="#666666" width="1.9" height="1.4"/>
</g>
<g>
	<g>
		<path fill="#EF3C24" d="M148.7-21.9c-0.1-0.2-0.3-0.3-0.5-0.3c-0.2,0-0.4,0.1-0.5,0.3l-9.2,16c-0.1,0.2-0.1,0.4,0,0.6
			s0.3,0.3,0.5,0.3h18.5l0,0c0.3,0,0.6-0.3,0.6-0.6c0-0.1,0-0.3-0.1-0.4L148.7-21.9z M140-6.2l8.1-14.1l8.1,14.1H140z"/>
		<path fill="#EF3C24" d="M147.5-15.9v4.9c0,0.3,0.3,0.6,0.6,0.6c0.3,0,0.6-0.3,0.6-0.6v-4.9c0-0.3-0.3-0.6-0.6-0.6
			C147.8-16.6,147.5-16.3,147.5-15.9z"/>
		<path fill="#EF3C24" d="M148.1-9.6c-0.3,0-0.6,0.3-0.6,0.6v0.4c0,0.3,0.3,0.6,0.6,0.6c0.3,0,0.6-0.3,0.6-0.6v-0.4
			C148.8-9.3,148.5-9.6,148.1-9.6z"/>
	</g>
</g>
<g>
	<g>
		<path fill="#F26722" d="M68.3-61.8c-0.1-0.2-0.3-0.3-0.5-0.3c-0.2,0-0.4,0.1-0.5,0.3l-9.2,16c-0.1,0.2-0.1,0.4,0,0.6
			s0.3,0.3,0.5,0.3H77l0,0c0.3,0,0.6-0.3,0.6-0.6c0-0.1,0-0.3-0.1-0.4L68.3-61.8z M59.6-46.1l8.1-14.1l8.1,14.1H59.6z"/>
		<path fill="#F26722" d="M67.1-55.8v4.9c0,0.3,0.3,0.6,0.6,0.6c0.3,0,0.6-0.3,0.6-0.6v-4.9c0-0.3-0.3-0.6-0.6-0.6
			S67.1-56.2,67.1-55.8z"/>
		<path fill="#F26722" d="M67.7-49.5c-0.3,0-0.6,0.3-0.6,0.6v0.4c0,0.3,0.3,0.6,0.6,0.6c0.3,0,0.6-0.3,0.6-0.6v-0.4
			C68.4-49.2,68.1-49.5,67.7-49.5z"/>
	</g>
</g>
<polygon fill="#666666" points="63.3,-13.3 65.7,-13.3 65.7,-9.7 70.5,-9.7 70.5,-13.3 72.9,-13.3 68.1,-18.1 "/>
<path fill="#666666" stroke="#666666" stroke-width="0.75" stroke-miterlimit="10" d="M348,97.9c-5.1,0-9.2,4.1-9.2,9.2
	c0,5.1,4.1,9.2,9.2,9.2s9.2-4.1,9.2-9.2C357.2,102,353,97.9,348,97.9z M348,115.4c-4.6,0-8.4-3.8-8.4-8.4c0-4.6,3.8-8.4,8.4-8.4
	s8.4,3.8,8.4,8.4C356.4,111.7,352.6,115.4,348,115.4z"/>
<path fill="#666666" stroke="#666666" stroke-width="0.75" stroke-miterlimit="10" d="M428.1,97.9c-5.1,0-9.2,4.1-9.2,9.2
	c0,5.1,4.1,9.2,9.2,9.2c5.1,0,9.2-4.1,9.2-9.2C437.3,102,433.2,97.9,428.1,97.9z M428.1,115.4c-4.6,0-8.4-3.8-8.4-8.4
	c0-4.6,3.8-8.4,8.4-8.4c4.6,0,8.4,3.8,8.4,8.4C436.5,111.7,432.8,115.4,428.1,115.4z"/>
<path fill="#666666" stroke="#666666" stroke-width="0.75" stroke-miterlimit="10" d="M68.9,71.1l1.9-1.9c0,0,0-0.1,0-0.2
	c0,0-0.1,0-0.2,0l-1.9,1.9L66.9,69c0,0-0.1,0-0.2,0c0,0,0,0.1,0,0.2l1.9,1.9L66.7,73c0,0,0,0.1,0,0.2c0,0,0.1,0,0.1,0s0.1,0,0.1,0
	l1.9-1.9l1.9,1.9c0,0,0.1,0,0.1,0s0.1,0,0.1,0c0,0,0-0.1,0-0.2L68.9,71.1z"/>
<path fill="#666666" stroke="#666666" stroke-width="0.75" stroke-miterlimit="10" d="M68.8,66.2c-2.7,0-4.8,2.2-4.8,4.8
	c0,2.7,2.2,4.8,4.8,4.8c2.7,0,4.8-2.2,4.8-4.8C73.6,68.4,71.4,66.2,68.8,66.2z M68.8,75.5c-2.4,0-4.4-2-4.4-4.4c0-2.4,2-4.4,4.4-4.4
	c2.4,0,4.4,2,4.4,4.4C73.2,73.5,71.2,75.5,68.8,75.5z"/>
<rect x="107.7" y="18.4" transform="matrix(-0.5425 -0.8401 0.8401 -0.5425 144.1202 132.4535)" fill="#666666" stroke="#666666" stroke-width="0.75" stroke-miterlimit="10" width="0.8" height="17.2"/>
<path fill="#666666" stroke="#666666" stroke-width="0.75" stroke-miterlimit="10" d="M108,18c-4.8,0-8.8,3.9-8.8,8.8
	c0,4.8,3.9,8.8,8.8,8.8s8.8-3.9,8.8-8.8C116.8,22,112.9,18,108,18z M108,34.8c-4.4,0-8-3.6-8-8c0-4.4,3.6-8,8-8c4.4,0,8,3.6,8,8
	C116,31.2,112.5,34.8,108,34.8z"/>
<g>
	<path fill="#666666" stroke="#666666" stroke-width="0.75" stroke-miterlimit="10" d="M348.3,72.6c0.3,0,0.5-0.2,0.5-0.5v-7.1
		c0-0.3-0.2-0.5-0.5-0.5s-0.5,0.2-0.5,0.5v7.1C347.8,72.4,348,72.6,348.3,72.6z"/>
	<path fill="#666666" stroke="#666666" stroke-width="0.75" stroke-miterlimit="10" d="M348.2,63.2c0.3,0,0.5-0.2,0.5-0.5v-1
		c0-0.3-0.2-0.5-0.5-0.5s-0.5,0.2-0.5,0.5v1C347.7,62.9,347.9,63.2,348.2,63.2z"/>
</g>
<path fill="#666666" stroke="#666666" stroke-width="0.75" stroke-miterlimit="10" d="M348.3,58c-4.9,0-8.9,4-8.9,8.9
	c0,4.9,4,8.9,8.9,8.9c4.9,0,8.9-4,8.9-8.9C357.2,62,353.2,58,348.3,58z M348.3,75c-4.5,0-8.1-3.6-8.1-8.1c0-4.5,3.6-8.1,8.1-8.1
	c4.5,0,8.1,3.6,8.1,8.1C356.4,71.4,352.7,75,348.3,75z"/>
<path fill="#666666" stroke="#666666" stroke-width="0.75" stroke-miterlimit="10" d="M228.3,57.9c-5.2,0-9.4,4.2-9.4,9.4
	c0,5.2,4.2,9.4,9.4,9.4c5.2,0,9.4-4.2,9.4-9.4C237.6,62.1,233.4,57.9,228.3,57.9z M228.3,75.8c-4.7,0-8.5-3.8-8.5-8.5
	c0-4.7,3.8-8.5,8.5-8.5c4.7,0,8.5,3.8,8.5,8.5C236.8,72,233,75.8,228.3,75.8z"/>
<polygon fill="#666666" points="233.1,66.9 230.7,66.9 230.7,63.2 225.8,63.2 225.8,66.9 223.3,66.9 228.2,71.8 "/>
<path fill="#666666" stroke="#666666" stroke-width="0.75" stroke-miterlimit="10" d="M68.1,18.2c-4.9,0-8.8,4-8.8,8.8
	c0,4.9,4,8.8,8.8,8.8s8.8-4,8.8-8.8C76.9,22.2,72.9,18.2,68.1,18.2z M68.1,35.1c-4.4,0-8-3.6-8-8c0-4.4,3.6-8,8-8s8,3.6,8,8
	C76.1,31.5,72.5,35.1,68.1,35.1z"/>
<polygon fill="#666666" points="72.7,26.7 70.4,26.7 70.4,23.2 65.7,23.2 65.7,26.7 63.4,26.7 68,31.3 "/>
<path fill="#666666" stroke="#666666" stroke-width="0.75" stroke-miterlimit="10" d="M388.7-22.1c-5,0-9,4.1-9,9c0,5,4.1,9,9,9
	c5,0,9-4.1,9-9C397.7-18,393.7-22.1,388.7-22.1z M388.7-4.8c-4.5,0-8.2-3.7-8.2-8.2c0-4.5,3.7-8.2,8.2-8.2c4.5,0,8.2,3.7,8.2,8.2
	C396.9-8.5,393.2-4.8,388.7-4.8z"/>
<path fill="#666666" stroke="#666666" stroke-width="0.75" stroke-miterlimit="10" d="M193.1,23.4c-0.1-0.1-0.3-0.1-0.4,0l-6.8,6.8
	l-2.2-2.2c-0.1-0.1-0.3-0.1-0.4,0s-0.1,0.3,0,0.4l2.4,2.4c0.1,0.1,0.1,0.1,0.2,0.1s0.1,0,0.2-0.1l7-7
	C193.2,23.7,193.2,23.5,193.1,23.4z"/>
<path fill="#666666" stroke="#666666" stroke-width="0.75" stroke-miterlimit="10" d="M111.2,68.8c-0.1-0.1-0.2-0.1-0.2,0l-3.6,3.6
	l-1.2-1.2c-0.1-0.1-0.2-0.1-0.2,0c-0.1,0.1-0.1,0.2,0,0.2l1.3,1.3c0,0,0.1,0,0.1,0c0,0,0.1,0,0.1,0l3.8-3.8
	C111.3,69,111.3,68.9,111.2,68.8z"/>
<path fill="#666666" stroke="#666666" stroke-width="0.45" stroke-miterlimit="10" d="M188.2,17.6c-5.2,0-9.5,4.2-9.5,9.5
	c0,5.2,4.2,9.5,9.5,9.5c5.2,0,9.5-4.2,9.5-9.5C197.7,21.9,193.4,17.6,188.2,17.6z M188.2,35.7c-4.8,0-8.6-3.9-8.6-8.6
	c0-4.8,3.9-8.6,8.6-8.6s8.6,3.9,8.6,8.6C196.8,31.8,193,35.7,188.2,35.7z"/>
<g>
	<path fill="#666666" stroke="#666666" stroke-width="0.75" stroke-miterlimit="10" d="M391.7,63.9c0.1-0.1,0.1-0.3,0-0.4
		c-0.1-0.1-0.3-0.1-0.4,0l-4.4,4.4l0.4,0.4L391.7,63.9z"/>
	<path fill="#666666" stroke="#666666" stroke-width="0.75" stroke-miterlimit="10" d="M384.5,70.3l-2.1-2.1c-0.1-0.1-0.3-0.1-0.4,0
		c-0.1,0.1-0.1,0.3,0,0.4l2.3,2.3c0.1,0.1,0.1,0.1,0.2,0.1c0.1,0,0.1,0,0.2-0.1l0.2-0.2L384.5,70.3L384.5,70.3z"/>
	<path fill="#666666" stroke="#666666" stroke-width="0.75" stroke-miterlimit="10" d="M385,67.9c-0.1-0.1-0.3-0.1-0.4,0
		c-0.1,0.1-0.1,0.3,0,0.4l0.9,0.9l0.4-0.4L385,67.9z"/>
	<path fill="#666666" stroke="#666666" stroke-width="0.75" stroke-miterlimit="10" d="M394.4,63.2c-0.1-0.1-0.3-0.1-0.4,0l-6.8,6.8
		l-0.8-0.8l-0.4,0.4l1,1c0.1,0.1,0.1,0.1,0.2,0.1c0.1,0,0.1,0,0.2-0.1l7-7C394.5,63.5,394.5,63.3,394.4,63.2z"/>
	
		<rect x="385.7" y="68.9" transform="matrix(0.7074 -0.7068 0.7068 0.7074 64.0299 293.0698)" fill="#666666" stroke="#666666" stroke-width="0.75" stroke-miterlimit="10" width="0.6" height="0.6"/>
</g>
<path fill="#666666" stroke="#666666" stroke-width="0.75" stroke-miterlimit="10" d="M388.2,57.6c-5.2,0-9.4,4.2-9.4,9.4
	c0,5.2,4.2,9.4,9.4,9.4c5.2,0,9.4-4.2,9.4-9.4C397.6,61.9,393.4,57.6,388.2,57.6z M388.2,75.6c-4.7,0-8.6-3.8-8.6-8.6
	c0-4.7,3.8-8.6,8.6-8.6c4.7,0,8.6,3.8,8.6,8.6C396.7,71.8,392.9,75.6,388.2,75.6z"/>
<circle fill="#666666" cx="268.3" cy="67.2" r="5.2"/>
<path fill="#666666" stroke="#666666" stroke-width="0.75" stroke-miterlimit="10" d="M268.3,58.3c-4.9,0-9,4-9,9c0,4.9,4,9,9,9
	s9-4,9-9C277.3,62.3,273.3,58.3,268.3,58.3z M268.3,75.4c-4.5,0-8.2-3.7-8.2-8.2c0-4.5,3.7-8.2,8.2-8.2s8.2,3.7,8.2,8.2
	C276.5,71.8,272.8,75.4,268.3,75.4z"/>
<circle fill="#666666" cx="348" cy="-13.1" r="5.2"/>
<path fill="#666666" stroke="#666666" stroke-width="0.75" stroke-miterlimit="10" d="M348-22.2c-5,0-9.1,4.1-9.1,9.1
	c0,5,4.1,9.1,9.1,9.1s9.1-4.1,9.1-9.1C357-18.1,353-22.2,348-22.2z M348-4.9c-4.6,0-8.3-3.7-8.3-8.3c0-4.6,3.7-8.3,8.3-8.3
	s8.3,3.7,8.3,8.3C356.3-8.6,352.5-4.9,348-4.9z"/>
<g>
	<path fill="#666666" d="M352.8,21.6v3.5h1v-3.9c0-0.2-0.1-0.3-0.2-0.4l-3.3-2.9c-0.1-0.1-0.3-0.1-0.4-0.1h-9.4
		c-0.3,0-0.6,0.3-0.6,0.6v17.4c0,0.3,0.3,0.6,0.6,0.6h12.7c0.3,0,0.6-0.3,0.6-0.6v-4.6h-1v4.2h-11.9V18.7h8.8v2.9H352.8z"/>
	<g>
		<path fill="#666666" d="M348.6,27.4c-0.1,0-0.2,0-0.4,0h-0.2v0.7h0.3c0.2,0,0.3,0,0.4,0c0.1,0,0.1-0.1,0.2-0.1
			c0-0.1,0.1-0.1,0.1-0.2c0-0.1,0-0.2-0.1-0.2C348.8,27.5,348.7,27.4,348.6,27.4z"/>
		<path fill="#666666" d="M351.2,27.5c-0.1-0.1-0.1-0.1-0.2-0.1c-0.1,0-0.2,0-0.4,0h-0.2V29h0.4c0.1,0,0.2,0,0.3,0
			c0.1,0,0.1-0.1,0.2-0.1c0.1,0,0.1-0.1,0.1-0.2c0-0.1,0-0.3,0-0.4s0-0.3,0-0.4C351.3,27.7,351.2,27.6,351.2,27.5z"/>
		<path fill="#666666" d="M354.6,25.8h-7.9c-0.4,0-0.7,0.3-0.7,0.7v3.4c0,0.4,0.3,0.7,0.7,0.7h7.9c0.4,0,0.7-0.3,0.7-0.7v-3.4
			C355.3,26.1,355,25.8,354.6,25.8z M349.3,28.1c-0.1,0.1-0.1,0.2-0.2,0.2c-0.1,0.1-0.2,0.1-0.3,0.1c-0.1,0-0.3,0-0.5,0h-0.3v0.9
			h-0.5V27h0.8c0.3,0,0.5,0,0.6,0c0.1,0,0.3,0.1,0.3,0.2c0.1,0.1,0.1,0.3,0.1,0.5C349.4,27.9,349.4,28,349.3,28.1z M351.8,28.7
			c-0.1,0.2-0.1,0.3-0.3,0.4c-0.1,0.1-0.2,0.1-0.3,0.2c-0.1,0-0.3,0.1-0.4,0.1h-0.9V27h0.9c0.2,0,0.4,0,0.5,0c0.1,0,0.3,0.1,0.4,0.2
			c0.1,0.1,0.2,0.2,0.2,0.4c0.1,0.2,0.1,0.3,0.1,0.6C351.8,28.4,351.8,28.6,351.8,28.7z M353.8,27.4h-1.2V28h1v0.4h-1v1h-0.5V27h1.7
			V27.4z"/>
	</g>
</g>
<path fill="#666666" stroke="#666666" stroke-width="0.5" stroke-miterlimit="10" d="M397.1,22.2c-0.1-0.1-0.4-0.1-0.5,0l-9.1,9.1
	l-2.9-2.9c-0.1-0.1-0.4-0.1-0.5,0c-0.1,0.1-0.1,0.4,0,0.5l3.1,3.1c0.1,0.1,0.2,0.1,0.3,0.1c0.1,0,0.2,0,0.3-0.1l9.4-9.4
	C397.3,22.6,397.3,22.3,397.1,22.2z"/>
<path fill="#666666" d="M391.4,21.5V25h1v-3.8c0-0.2-0.1-0.3-0.2-0.4l-3.2-2.9c-0.1-0.1-0.3-0.1-0.4-0.1h-9.3
	c-0.3,0-0.6,0.3-0.6,0.6v17.2c0,0.3,0.3,0.6,0.6,0.6h12.5c0.3,0,0.6-0.3,0.6-0.6V31h-1v4.2h-11.8V18.7h8.7v2.9H391.4z"/>
<rect x="223" y="25.9" fill="#666666" width="9.1" height="0.8"/>
<rect x="223" y="28.2" fill="#666666" width="9.1" height="0.8"/>
<rect x="223" y="23.6" fill="#666666" width="5.3" height="0.8"/>
<rect x="223" y="30.5" fill="#666666" width="9.1" height="0.8"/>
<path fill="#666666" d="M233.6,21.3v10.3h1V20.9c0-0.2-0.1-0.3-0.2-0.5l-3.4-3.1c-0.1-0.1-0.3-0.2-0.4-0.2h-9.8
	c-0.4,0-0.6,0.3-0.6,0.6v18.3c0,0.4,0.3,0.6,0.6,0.6H234c0.4,0,0.6-0.3,0.6-0.6v-4.8h-1v4.4h-12.5V18.2h9.2v3H233.6z"/>
<g>
	<path fill="#666666" d="M140.7,57.9v16.3h1.1V59h6.9v5.1h5.1v10h1.1V63.3l-5.4-5.4H140.7z M149.8,63v-3.1l3.1,3.1H149.8z"/>
	<polygon fill="#666666" points="145.6,73.4 145.6,76.1 149.9,76.1 149.9,73.4 152.6,73.4 147.8,69.5 142.9,73.4 	"/>
</g>
<g>
	<path fill="#666666" d="M420,17v17.9h1.3V18.2h7.5v5.6h5.6v11h1.3V22.9l-6-6H420z M430,22.6v-3.4l3.4,3.4H430z"/>
	<polygon fill="#666666" points="430.2,32.7 430.2,29.7 425.5,29.7 425.5,32.7 422.5,32.7 427.8,37 433.2,32.7 	"/>
</g>
<path fill="#666666" d="M455.9,17v17.9h1.3V18.2h7.5v5.6h5.6v11h1.3V22.9l-6-6H455.9z M466,22.6v-3.4l3.4,3.4H466z"/>
<path fill="#666666" d="M61.1,57.8v17.5h1.2V59h7.4v5.5h5.5v10.8h1.2V63.6l-5.8-5.8H61.1z M71,63.2v-3.4l3.4,3.4H71z"/>
<path fill="#666666" stroke="#666666" stroke-width="0.75" stroke-miterlimit="10" d="M108.7,66.2c-2.6,0-4.6,2.1-4.6,4.6
	c0,2.6,2.1,4.6,4.6,4.6s4.6-2.1,4.6-4.6C113.3,68.2,111.3,66.2,108.7,66.2z M108.7,75c-2.3,0-4.2-1.9-4.2-4.2c0-2.3,1.9-4.2,4.2-4.2
	s4.2,1.9,4.2,4.2C112.9,73.1,111,75,108.7,75z"/>
<path fill="#666666" d="M101.3,57.8v17.1h1.2V59h7.2v5.3h5.3v10.6h1.2V63.4l-5.7-5.7H101.3z M110.9,63.1v-3.3l3.3,3.3H110.9z"/>
<path fill="#666666" stroke="#666666" stroke-width="0.75" stroke-miterlimit="10" d="M39.3,65.3c-2.6,0-4.6,2.1-4.6,4.6
	c0,2.6,2.1,4.6,4.6,4.6c2.6,0,4.6-2.1,4.6-4.6C43.9,67.3,41.8,65.3,39.3,65.3z M39.3,74.1c-2.3,0-4.2-1.9-4.2-4.2
	c0-2.3,1.9-4.2,4.2-4.2c2.3,0,4.2,1.9,4.2,4.2C43.5,72.2,41.6,74.1,39.3,74.1z"/>
<path fill="#666666" d="M31.9,56.9V74h1.2V58.1h7.2v5.3h5.3V74h1.2V62.6l-5.7-5.7H31.9z M41.5,62.2v-3.3l3.3,3.3H41.5z"/>
<g>
	<path fill="#666666" d="M220.1,97.5v17.4h1.2V98.7h7.3v5.4h5.4v10.7h1.2v-11.6l-5.8-5.8H220.1z M229.8,102.9v-3.3l3.3,3.3H229.8z"
		/>
</g>
<path fill="#666666" d="M260.8,97.4V115h1.2V98.6h7.4v5.5h5.5V115h1.2v-11.7l-5.9-5.9H260.8z M270.7,102.9v-3.4l3.4,3.4H270.7z"/>
<path fill="#666666" stroke="#666666" stroke-width="0.75" stroke-miterlimit="10" d="M43.4,115.1l-2.1-2.1c1.4-1.5,1.3-3.9-0.2-5.4
	c-1.5-1.5-4-1.5-5.5,0c-1.5,1.5-1.5,4,0,5.5c0.8,0.8,1.8,1.1,2.8,1.1c0.9,0,1.9-0.3,2.6-1l2.1,2.1c0,0,0.1,0.1,0.2,0.1
	s0.1,0,0.2-0.1C43.5,115.4,43.5,115.2,43.4,115.1z M35.9,112.8c-1.3-1.3-1.3-3.5,0-4.9c0.7-0.7,1.6-1,2.4-1s1.8,0.3,2.4,1
	c1.3,1.3,1.3,3.5,0,4.9C39.4,114.2,37.2,114.2,35.9,112.8z"/>
<path fill="#666666" d="M31.1,97.4V115h1.2V98.6h7.4v5.5h5.5V115h1.2v-11.7l-5.9-5.9H31.1z M41,102.9v-3.4l3.4,3.4H41z"/>
<path fill="#666666" stroke="#666666" stroke-width="0.75" stroke-miterlimit="10" d="M-13.2,115.1l-2.1-2.1
	c1.4-1.5,1.3-3.9-0.2-5.4c-1.5-1.5-4-1.5-5.5,0c-1.5,1.5-1.5,4,0,5.5c0.8,0.8,1.8,1.1,2.8,1.1c0.9,0,1.9-0.3,2.6-1l2.1,2.1
	c0,0,0.1,0.1,0.2,0.1c0.1,0,0.1,0,0.2-0.1C-13.2,115.4-13.2,115.2-13.2,115.1z M-20.7,112.8c-1.3-1.3-1.3-3.5,0-4.9
	c0.7-0.7,1.6-1,2.4-1s1.8,0.3,2.4,1c1.3,1.3,1.3,3.5,0,4.9C-17.2,114.2-19.4,114.2-20.7,112.8z"/>
<path fill="#666666" d="M-25.5,97.4V115h1.2V98.6h7.4v5.5h5.5V115h1.2v-11.7l-5.9-5.9H-25.5z M-15.6,102.9v-3.4l3.4,3.4H-15.6z"/>
<path fill="#666666" d="M300.3,97.5V115h1.2V98.7h7.4v5.5h5.5V115h1.2v-11.7l-5.8-5.8H300.3z M310.1,103v-3.4l3.4,3.4H310.1z"/>
<path fill="#666666" stroke="#666666" stroke-width="0.75" stroke-miterlimit="10" d="M308,109c-2.8,0-4.9,3.3-4.9,3.3
	s2.2,3.2,4.9,3.2c2.8,0,4.9-3.3,4.9-3.3S310.7,109,308,109z M308,114.9c-2.4,0-4.2-2.8-4.2-2.8s1.9-2.8,4.2-2.8s4.2,2.8,4.2,2.8
	S310.3,114.9,308,114.9z"/>
<path fill="none" stroke="#666666" stroke-width="0.5" stroke-miterlimit="10" d="M308,110.7c-0.8,0-1.6,0.6-1.6,1.6
	c0,0.8,0.6,1.6,1.6,1.6c0.8,0,1.6-0.6,1.6-1.6C309.5,111.5,308.8,110.7,308,110.7z M308,113.4c-0.6,0-1.1-0.5-1.1-1.1
	s0.5-1.2,1.1-1.2s1.1,0.5,1.1,1.1C309,112.8,308.6,113.4,308,113.4z"/>
<g>
	<g>
		<g>
			<g>
				<polygon fill="#666666" points="66.6,142.5 62.5,138.4 58.5,142.5 61.1,142.5 61.1,157 64,157 64,142.5 				"/>
				<rect x="67" y="138.4" fill="#666666" width="8.7" height="2.8"/>
				<rect x="66.1" y="143.6" fill="#666666" width="9.5" height="2.8"/>
				<rect x="66.1" y="149" fill="#666666" width="9.5" height="2.8"/>
				<rect x="66.1" y="154.1" fill="#666666" width="9.6" height="2.8"/>
			</g>
		</g>
	</g>
</g>
<g>
	<g>
		<g>
			<g>
				<polygon fill="#666666" points="99.1,152 102.9,155.7 106.6,152 104.2,152 104.2,138.7 101.5,138.7 101.5,152 				"/>
				<rect x="106.1" y="153.1" fill="#666666" width="8.9" height="2.6"/>
				<rect x="106.1" y="148.4" fill="#666666" width="9.7" height="2.6"/>
				<rect x="106.1" y="143.4" fill="#666666" width="9.7" height="2.6"/>
				<rect x="106.1" y="138.7" fill="#666666" width="9.8" height="2.6"/>
			</g>
		</g>
	</g>
</g>
<path fill="#666666" d="M379.6,106.8h12.7l-2.7-2.7c-0.2-0.2-0.2-0.6,0-0.8s0.6-0.2,0.8,0l3.6,3.6c0.2,0.2,0.2,0.6,0,0.8l-3.6,3.6
	c-0.1,0.1-0.2,0.2-0.4,0.2s-0.3-0.1-0.4-0.2c-0.2-0.2-0.2-0.6,0-0.8l2.7-2.7h-12.7c-0.3,0-0.5-0.2-0.5-0.5
	C379.1,107,379.3,106.8,379.6,106.8z M394,97.9h-11c-2.1,0-3.9,1.7-3.9,3.9v2.3c0,0.3,0.2,0.5,0.5,0.5s0.5-0.2,0.5-0.5v-2.3
	c0-1.5,1.3-2.8,2.8-2.8h11c1.5,0,2.8,1.3,2.8,2.8v11c0,1.5-1.3,2.8-2.8,2.8h-11c-1.5,0-2.8-1.3-2.8-2.8v-2.3c0-0.3-0.2-0.5-0.5-0.5
	s-0.5,0.2-0.5,0.5v2.3c0,2.1,1.7,3.9,3.9,3.9h11c2.1,0,3.9-1.7,3.9-3.9v-11C397.9,99.7,396.2,97.9,394,97.9z"/>
<path fill="#666666" d="M388.5,107.3"/>
<path fill="#666666" d="M388.5,107.3"/>
<polyline fill="none" stroke="#666666" stroke-width="0.95" stroke-miterlimit="10" points="182.9,147.1 184.4,149.1 186.9,145.9 
	"/>
<path fill="none" stroke="#666666" stroke-width="0.95" stroke-miterlimit="10" d="M193.1,151.4h-10.2c-2.1,0-3.8-1.7-3.8-3.8l0,0
	c0-2.1,1.7-3.8,3.8-3.8H193c2.1,0,3.8,1.7,3.8,3.8l0,0C196.9,149.7,195.2,151.4,193.1,151.4z"/>
<circle fill="none" stroke="#666666" stroke-width="0.95" stroke-miterlimit="10" cx="192.9" cy="147.7" r="2.5"/>
<path fill="none" stroke="#666666" stroke-width="0.95" stroke-miterlimit="10" d="M233.3,151.4h-10.2c-2.1,0-3.8-1.7-3.8-3.8l0,0
	c0-2.1,1.7-3.8,3.8-3.8h10.2c2.1,0,3.8,1.7,3.8,3.8l0,0C237.1,149.7,235.4,151.4,233.3,151.4z"/>
<circle fill="none" stroke="#666666" stroke-width="0.95" stroke-miterlimit="10" cx="223.9" cy="147.7" r="2.5"/>
<g>
	<path fill="#666666" d="M274.5,145.6c-0.3,0-0.5,0-0.8-0.1c-0.2,0-0.3-0.2-0.2-0.4c0-0.2,0.2-0.3,0.4-0.2c1.3,0.3,2.6-0.3,3.2-1.5
		c0.3-0.7,0.4-1.5,0.2-2.2c-0.2-0.7-0.8-1.3-1.4-1.7c-0.7-0.3-1.5-0.4-2.2-0.2c-0.7,0.2-1.3,0.8-1.7,1.4c-0.1,0.1-0.3,0.2-0.4,0.1
		c-0.1-0.1-0.2-0.3-0.1-0.4c0.4-0.8,1.1-1.4,2-1.7c0.9-0.3,1.8-0.2,2.7,0.2c0.8,0.4,1.4,1.1,1.7,2c0.3,0.9,0.2,1.8-0.2,2.7
		C277,144.9,275.8,145.6,274.5,145.6z M274.5,140.5v3.1 M272.9,142.1h3.1 M274.8,143.6v-1.3h1.2c0.2,0,0.3-0.1,0.3-0.3
		c0-0.2-0.1-0.3-0.3-0.3h-1.2v-1.3c0-0.2-0.1-0.3-0.3-0.3s-0.3,0.1-0.3,0.3v1.3h-1.3c-0.2,0-0.3,0.1-0.3,0.3c0,0.2,0.1,0.3,0.3,0.3
		h1.3v1.3c0,0.2,0.1,0.3,0.3,0.3S274.8,143.8,274.8,143.6z"/>
	<g>
		<path fill="#666666" d="M266.4,155.2c-2.5,0-4.8-1.6-6.1-4.2c-0.4,0-0.9-0.3-1.2-0.9c-0.5-0.9-0.8-2.4-0.4-3.1
			c0.2-0.3,0.4-0.4,0.7-0.4c0,0,0,0,0,0c0.1-2,0.8-3.9,2-5.3c1.3-1.5,3-2.4,4.9-2.4c1.8,0,3.6,0.8,4.9,2.4c1.2,1.4,1.9,3.3,2,5.3
			c0,0,0,0,0,0c0.2,0,0.9,0.1,0.9,1.4c0,1.3-0.7,3-1.7,3.1C271.2,153.6,268.9,155.2,266.4,155.2z M260.5,150.4
			c0.1,0,0.2,0.1,0.3,0.2c1.1,2.5,3.2,4,5.6,4c2.3,0,4.5-1.5,5.6-4c0.1-0.1,0.2-0.2,0.3-0.2c0,0,0,0,0.1,0l0,0
			c0.6,0,1.2-1.4,1.2-2.5c0-0.5-0.1-0.8-0.3-0.8c0,0-0.1,0-0.2,0c-0.1,0-0.2,0-0.3,0c-0.1-0.1-0.1-0.1-0.1-0.2
			c0-4.1-2.9-7.5-6.3-7.5c-3.4,0-6.3,3.3-6.3,7.5c0,0.1-0.1,0.2-0.1,0.2c-0.1,0.1-0.2,0.1-0.3,0c-0.1,0-0.1,0-0.2,0
			c0,0-0.1,0-0.1,0.1c-0.3,0.4-0.1,1.7,0.4,2.5c0.1,0.2,0.4,0.6,0.7,0.6C260.4,150.4,260.4,150.4,260.5,150.4
			C260.5,150.4,260.5,150.4,260.5,150.4z"/>
	</g>
	<g>
		<path fill="#666666" d="M272.9,146.9c-1.8-0.4-3.6-2.6-4.6-4.4c-0.9,0.8-1.8,1.6-2.8,2.2c-2.5,1.7-5.7,2.2-5.7,2.2
			s0.2-2.5,1.8-4.6c0.7-0.9,1.6-1.8,2.7-2.3c1.6-0.8,3.8-0.6,5.3,0.4c0.4,0.3,0.8,0.6,1.1,1c0.6,0.8,1.1,1.8,1.4,2.7
			c0.3,0.8,0.5,1.6,0.7,2.4C272.9,146.6,272.9,146.8,272.9,146.9z"/>
		<path fill="#666666" d="M272.9,147.2c-1.7-0.4-3.6-2.5-4.7-4.3c-0.7,0.7-1.6,1.3-2.6,2c-2.5,1.7-5.7,2.3-5.8,2.3
			c-0.1,0-0.3-0.2-0.2-0.3c0-0.1,0,0.1,0,0c0-0.1,0.2-2.5,1.8-4.8c0.8-1,1.8-1.9,2.8-2.4c0.7-0.3,1.5-0.5,2.4-0.5
			c1.1,0,2.2,0.3,3.1,0.9c0.4,0.2,0.8,0.6,1.2,1.1c0.6,0.8,1.1,1.8,1.5,2.8c0.3,0.7,0.5,1.5,0.7,2.5c0,0.2,0.1,0.3,0.1,0.5
			c0,0,0,0,0,0.1C273.2,147.1,273.1,147.2,272.9,147.2"/>
	</g>
</g>
<path fill="#666666" d="M194.4-53.9c-0.3,0-0.5,0-0.8-0.1c-0.2,0-0.3-0.2-0.2-0.4c0-0.2,0.2-0.3,0.4-0.2c1.3,0.3,2.6-0.3,3.2-1.5
	c0.3-0.7,0.4-1.5,0.2-2.2c-0.2-0.7-0.8-1.3-1.5-1.7c-0.7-0.3-1.5-0.4-2.2-0.2c-0.7,0.2-1.3,0.8-1.7,1.5c-0.1,0.1-0.3,0.2-0.4,0.1
	c-0.1-0.1-0.2-0.3-0.1-0.4c0.4-0.8,1.1-1.5,2-1.8c0.9-0.3,1.8-0.2,2.7,0.2c0.8,0.4,1.5,1.1,1.8,2c0.3,0.9,0.2,1.8-0.2,2.7
	C197-54.7,195.7-53.9,194.4-53.9z"/>
<g>
	<path fill="#666666" d="M186.2-44.2c-2.6,0-4.9-1.6-6.1-4.2c-0.5,0-0.9-0.3-1.2-0.9c-0.5-0.9-0.8-2.4-0.4-3.2
		c0.2-0.3,0.4-0.4,0.7-0.4c0,0,0,0,0,0c0.1-2,0.8-3.9,2.1-5.4c1.3-1.5,3.1-2.4,4.9-2.4c1.9,0,3.6,0.9,4.9,2.4c1.2,1.4,2,3.3,2.1,5.4
		c0,0,0,0,0,0c0.2,0,0.9,0.1,0.9,1.4c0,1.3-0.7,3-1.8,3.1C191.1-45.8,188.8-44.2,186.2-44.2z M180.3-49.1c0.1,0,0.2,0.1,0.3,0.2
		c1.1,2.5,3.3,4.1,5.7,4.1c2.4,0,4.5-1.6,5.7-4.1c0.1-0.1,0.2-0.2,0.3-0.2c0,0,0,0,0.1,0l0,0c0.6,0,1.2-1.4,1.2-2.5
		c0-0.5-0.1-0.8-0.3-0.8c0,0-0.1,0-0.2,0c-0.1,0-0.2,0-0.3,0c-0.1-0.1-0.1-0.1-0.1-0.3c0-4.2-2.9-7.5-6.4-7.5
		c-3.5,0-6.3,3.4-6.4,7.5c0,0.1-0.1,0.2-0.1,0.3c-0.1,0.1-0.2,0.1-0.3,0c-0.1,0-0.1,0-0.2,0c0,0-0.1,0-0.2,0.1
		c-0.3,0.4-0.1,1.7,0.4,2.6c0.1,0.2,0.4,0.6,0.7,0.6C180.2-49.1,180.2-49.1,180.3-49.1C180.2-49.1,180.3-49.1,180.3-49.1z"/>
</g>
<g>
	<path fill="#666666" d="M192.9-52.6c-1.8-0.4-3.7-2.6-4.7-4.5c-0.9,0.8-1.9,1.6-2.9,2.3c-2.5,1.7-5.7,2.2-5.7,2.2s0.2-2.5,1.8-4.7
		c0.7-0.9,1.7-1.8,2.7-2.4c1.6-0.8,3.8-0.6,5.3,0.4c0.4,0.3,0.9,0.6,1.2,1c0.6,0.8,1.1,1.8,1.4,2.7c0.3,0.8,0.5,1.6,0.7,2.5
		C192.8-52.9,192.8-52.7,192.9-52.6z"/>
	<path fill="#666666" d="M192.9-52.3c-1.8-0.4-3.7-2.5-4.7-4.4c-0.8,0.7-1.6,1.4-2.7,2.1c-2.5,1.7-5.8,2.3-5.9,2.3
		c-0.1,0-0.3-0.2-0.3-0.3c0-0.1,0,0.1,0,0c0-0.1,0.2-2.6,1.9-4.8c0.8-1.1,1.8-1.9,2.8-2.4c0.7-0.3,1.6-0.5,2.4-0.5
		c1.2,0,2.3,0.3,3.1,0.9c0.4,0.2,0.9,0.6,1.2,1.1c0.7,0.8,1.1,1.8,1.5,2.8c0.3,0.7,0.5,1.5,0.8,2.5c0,0.2,0.1,0.3,0.1,0.5
		c0,0,0,0.1,0,0.1C193.1-52.4,193-52.3,192.9-52.3"/>
</g>
<path fill="#666666" d="M435,147.4c-0.2,0-0.5,0-0.7-0.1c-0.2,0-0.2-0.2-0.2-0.3c0-0.2,0.2-0.2,0.3-0.2c1.2,0.3,2.4-0.3,3-1.4
	c0.3-0.6,0.4-1.4,0.1-2.1c-0.2-0.7-0.7-1.2-1.3-1.6c-0.6-0.3-1.4-0.4-2.1-0.1c-0.7,0.2-1.2,0.7-1.6,1.3c-0.1,0.1-0.2,0.2-0.4,0.1
	c-0.1-0.1-0.2-0.2-0.1-0.4c0.4-0.8,1.1-1.4,1.9-1.6c0.8-0.3,1.7-0.2,2.5,0.2c0.8,0.4,1.4,1.1,1.6,1.9c0.3,0.8,0.2,1.7-0.2,2.5
	C437.3,146.7,436.2,147.4,435,147.4z"/>
<g>
	<g>
		<path fill="#666666" d="M427.4,156.3c-2.4,0-4.5-1.5-5.6-3.9c-0.4,0-0.8-0.3-1.1-0.8c-0.5-0.8-0.7-2.3-0.3-2.9
			c0.1-0.2,0.4-0.4,0.6-0.4c0,0,0,0,0,0c0.1-1.9,0.8-3.6,1.9-5c1.2-1.4,2.8-2.2,4.6-2.2c1.7,0,3.3,0.8,4.6,2.2
			c1.1,1.3,1.8,3.1,1.9,5c0,0,0,0,0,0c0.2,0,0.8,0.1,0.8,1.3c0,1.2-0.6,2.8-1.6,2.9C431.9,154.8,429.8,156.3,427.4,156.3z
			 M421.9,151.8c0.1,0,0.2,0.1,0.3,0.2c1,2.3,3,3.8,5.2,3.8c2.2,0,4.2-1.4,5.2-3.8c0.1-0.1,0.2-0.2,0.3-0.2c0,0,0,0,0.1,0l0,0
			c0.6,0,1.1-1.3,1.1-2.3c0-0.4-0.1-0.7-0.3-0.7c0,0-0.1,0-0.2,0c-0.1,0-0.2,0-0.3,0s-0.1-0.1-0.1-0.2c0-3.8-2.7-7-5.9-7
			c-3.2,0-5.9,3.1-5.9,7c0,0.1,0,0.2-0.1,0.2s-0.2,0.1-0.3,0c-0.1,0-0.1,0-0.2,0c0,0-0.1,0-0.1,0.1c-0.2,0.4-0.1,1.6,0.3,2.4
			c0.1,0.2,0.4,0.6,0.7,0.6C421.8,151.9,421.9,151.9,421.9,151.8C421.9,151.8,421.9,151.8,421.9,151.8z"/>
	</g>
</g>
<g>
	<g>
		<path fill="#666666" d="M433.5,148.6c-1.7-0.3-3.4-2.4-4.3-4.1c-0.8,0.8-1.7,1.4-2.6,2.1c-2.3,1.6-5.3,2-5.3,2s0.2-2.3,1.7-4.3
			c0.6-0.9,1.5-1.7,2.5-2.2c1.5-0.7,3.5-0.6,4.9,0.3c0.4,0.2,0.8,0.6,1.1,0.9c0.6,0.7,1,1.7,1.3,2.5c0.3,0.7,0.5,1.5,0.7,2.3
			C433.5,148.3,433.5,148.5,433.5,148.6z"/>
		<path fill="#666666" d="M433.5,148.9c-1.6-0.3-2.8-1.4-3.8-3.2c-0.7,2.1-4.8,2.9-5.7,2.4c-2.3,1.6-2.7,0.7-2.8,0.7
			c-0.1,0-0.2-0.2-0.2-0.3c0-0.1,0,0.1,0,0c0-0.1,0.2-2.4,1.7-4.4c0.7-1,1.6-1.8,2.6-2.2c0.7-0.3,1.4-0.5,2.2-0.5
			c1.1,0,2.1,0.3,2.9,0.8c0.3,0.2,0.8,0.6,1.1,1c0.6,0.8,1,1.7,1.4,2.6c0.3,0.7,0.5,1.4,0.7,2.3c0,0.2,0.1,0.3,0.1,0.4
			c0,0,0,0,0,0.1C433.8,148.7,433.7,148.9,433.5,148.9"/>
	</g>
</g>
<g>
	<g>
		<path fill="#666666" d="M422.1,148.7c-1.3,0-2.4-0.8-3-2.1c-0.2,0-0.4-0.2-0.6-0.4c-0.3-0.4-0.4-1.2-0.2-1.6
			c0.1-0.1,0.2-0.2,0.3-0.2c0,0,0,0,0,0c0-1,0.4-1.9,1-2.6c0.6-0.8,1.5-1.2,2.4-1.2c0.9,0,1.8,0.4,2.4,1.2c0.6,0.7,1,1.6,1,2.6
			c0,0,0,0,0,0c0.1,0,0.4,0,0.4,0.7c0,0.6-0.3,1.5-0.9,1.5C424.5,147.9,423.4,148.7,422.1,148.7z M419.2,146.3c0.1,0,0.1,0,0.1,0.1
			c0.5,1.2,1.6,2,2.8,2c1.2,0,2.2-0.8,2.8-2c0-0.1,0.1-0.1,0.2-0.1c0,0,0,0,0,0l0,0c0.3,0,0.6-0.7,0.6-1.2c0-0.2-0.1-0.4-0.1-0.4
			c0,0-0.1,0-0.1,0c0,0-0.1,0-0.1,0c0,0-0.1-0.1-0.1-0.1c0-2-1.4-3.7-3.1-3.7c-1.7,0-3.1,1.7-3.1,3.7c0,0,0,0.1-0.1,0.1
			c0,0-0.1,0-0.1,0c0,0-0.1,0-0.1,0c0,0,0,0-0.1,0.1c-0.1,0.2-0.1,0.8,0.2,1.3C418.8,146.1,419,146.3,419.2,146.3
			C419.1,146.3,419.2,146.3,419.2,146.3C419.2,146.3,419.2,146.3,419.2,146.3z"/>
	</g>
	<g>
		<path fill="#666666" d="M425.4,144.6c-0.9-0.2-1.8-1.3-2.3-2.2c-0.4,0.4-0.9,0.8-1.4,1.1c-1.2,0.8-2.8,1.1-2.8,1.1
			s0.1-1.2,0.9-2.3c0.3-0.5,0.8-0.9,1.3-1.2c0.8-0.4,1.9-0.3,2.6,0.2c0.2,0.1,0.4,0.3,0.6,0.5c0.3,0.4,0.5,0.9,0.7,1.3
			c0.2,0.4,0.3,0.8,0.4,1.2C425.3,144.4,425.4,144.5,425.4,144.6z"/>
		<path fill="#666666" d="M425.4,144.7c-0.9-0.2-1.5-0.8-2-1.7c-0.4,1.1-2.5,1.5-3,1.3c-1.2,0.8-1.4,0.4-1.5,0.4
			c0,0-0.1-0.1-0.1-0.2c0,0,0,0,0,0c0-0.1,0.1-1.3,0.9-2.4c0.4-0.5,0.9-1,1.4-1.2c0.4-0.2,0.8-0.3,1.2-0.3c0.6,0,1.1,0.2,1.5,0.4
			c0.2,0.1,0.4,0.3,0.6,0.5c0.3,0.4,0.5,0.9,0.7,1.4c0.1,0.4,0.3,0.7,0.4,1.2c0,0.1,0,0.2,0,0.2c0,0,0,0,0,0
			C425.5,144.7,425.4,144.7,425.4,144.7"/>
	</g>
</g>
<g>
	<g>
		<path fill="#666666" d="M425.4,144.2c-0.9,0-1.8-0.6-2.2-1.6c-0.2,0-0.3-0.1-0.4-0.3c-0.2-0.3-0.3-0.9-0.1-1.2
			c0.1-0.1,0.1-0.2,0.2-0.2c0,0,0,0,0,0c0-0.7,0.3-1.4,0.8-2c0.5-0.6,1.1-0.9,1.8-0.9c0.7,0,1.3,0.3,1.8,0.9c0.5,0.5,0.7,1.2,0.8,2
			c0,0,0,0,0,0c0.1,0,0.3,0,0.3,0.5c0,0.5-0.2,1.1-0.6,1.1C427.2,143.6,426.3,144.2,425.4,144.2z M423.2,142.4c0,0,0.1,0,0.1,0.1
			c0.4,0.9,1.2,1.5,2.1,1.5c0.9,0,1.7-0.6,2.1-1.5c0,0,0.1-0.1,0.1-0.1c0,0,0,0,0,0l0,0c0.2,0,0.4-0.5,0.4-0.9c0-0.2,0-0.3-0.1-0.3
			c0,0,0,0-0.1,0c0,0-0.1,0-0.1,0s-0.1-0.1-0.1-0.1c0-1.5-1.1-2.8-2.3-2.8c-1.3,0-2.3,1.2-2.3,2.8c0,0,0,0.1-0.1,0.1
			c0,0-0.1,0-0.1,0c0,0,0,0-0.1,0c0,0,0,0-0.1,0c-0.1,0.2-0.1,0.6,0.1,0.9C423,142.3,423.1,142.4,423.2,142.4
			C423.2,142.4,423.2,142.4,423.2,142.4C423.2,142.4,423.2,142.4,423.2,142.4z"/>
	</g>
	<g>
		<path fill="#666666" d="M427.8,141.1c-0.7-0.1-1.4-1-1.7-1.6c-0.3,0.3-0.7,0.6-1.1,0.8c-0.9,0.6-2.1,0.8-2.1,0.8s0.1-0.9,0.7-1.7
			c0.3-0.3,0.6-0.7,1-0.9c0.6-0.3,1.4-0.2,2,0.1c0.1,0.1,0.3,0.2,0.4,0.4c0.2,0.3,0.4,0.7,0.5,1c0.1,0.3,0.2,0.6,0.3,0.9
			C427.8,141,427.8,141.1,427.8,141.1z"/>
		<path fill="#666666" d="M427.8,141.2c-0.6-0.1-1.1-0.6-1.5-1.3c-0.3,0.8-1.9,1.1-2.3,1c-0.9,0.6-1.1,0.3-1.1,0.3
			c0,0-0.1-0.1-0.1-0.1c0,0,0,0,0,0c0,0,0.1-0.9,0.7-1.8c0.3-0.4,0.7-0.7,1-0.9c0.3-0.1,0.6-0.2,0.9-0.2c0.4,0,0.8,0.1,1.2,0.3
			c0.1,0.1,0.3,0.2,0.4,0.4c0.2,0.3,0.4,0.7,0.5,1c0.1,0.3,0.2,0.6,0.3,0.9c0,0.1,0,0.1,0,0.2c0,0,0,0,0,0
			C427.9,141.2,427.9,141.2,427.8,141.2"/>
	</g>
</g>
<g>
	<g>
		<path fill="#666666" d="M314.4,145.6c-0.3,0-0.5,0-0.8-0.1c-0.2,0-0.3-0.2-0.2-0.4c0-0.2,0.2-0.3,0.4-0.2c1.3,0.3,2.6-0.3,3.2-1.5
			c0.3-0.7,0.4-1.5,0.2-2.2c-0.2-0.7-0.8-1.3-1.4-1.7c-0.7-0.3-1.5-0.4-2.2-0.2c-0.7,0.2-1.3,0.8-1.7,1.4c-0.1,0.1-0.3,0.2-0.4,0.1
			c-0.1-0.1-0.2-0.3-0.1-0.4c0.4-0.8,1.1-1.4,2-1.7c0.9-0.3,1.8-0.2,2.7,0.2c0.8,0.4,1.4,1.1,1.7,2c0.3,0.9,0.2,1.8-0.2,2.7
			C316.9,144.9,315.6,145.6,314.4,145.6z"/>
		<g>
			<path fill="#666666" d="M306.2,155.2c-2.5,0-4.8-1.6-6.1-4.2c-0.4,0-0.9-0.3-1.2-0.9c-0.5-0.9-0.8-2.4-0.4-3.1
				c0.2-0.3,0.4-0.4,0.7-0.4c0,0,0,0,0,0c0.1-2,0.8-3.9,2-5.3c1.3-1.5,3-2.4,4.9-2.4c1.8,0,3.6,0.8,4.9,2.4c1.2,1.4,1.9,3.3,2,5.3
				c0,0,0,0,0,0c0.2,0,0.9,0.1,0.9,1.4c0,1.3-0.7,3-1.7,3.1C311,153.6,308.7,155.2,306.2,155.2z M300.4,150.4c0.1,0,0.2,0.1,0.3,0.2
				c1.1,2.5,3.2,4,5.6,4c2.3,0,4.5-1.5,5.6-4c0.1-0.1,0.2-0.2,0.3-0.2c0,0,0,0,0.1,0l0,0c0.6,0,1.2-1.4,1.2-2.5
				c0-0.5-0.1-0.8-0.3-0.8c0,0-0.1,0-0.2,0c-0.1,0-0.2,0-0.3,0c-0.1-0.1-0.1-0.1-0.1-0.2c0-4.1-2.9-7.5-6.3-7.5
				c-3.4,0-6.3,3.3-6.3,7.5c0,0.1-0.1,0.2-0.1,0.2c-0.1,0.1-0.2,0.1-0.3,0c-0.1,0-0.1,0-0.2,0c0,0-0.1,0-0.1,0.1
				c-0.3,0.4-0.1,1.7,0.4,2.5c0.1,0.2,0.4,0.6,0.7,0.6C300.3,150.4,300.3,150.4,300.4,150.4C300.3,150.4,300.3,150.4,300.4,150.4z"
				/>
		</g>
		<g>
			<path fill="#666666" d="M312.8,146.9c-1.8-0.4-3.6-2.6-4.6-4.4c-0.9,0.8-1.8,1.6-2.8,2.2c-2.5,1.7-5.7,2.2-5.7,2.2
				s0.2-2.5,1.8-4.6c0.7-0.9,1.6-1.8,2.7-2.3c1.6-0.8,3.8-0.6,5.3,0.4c0.4,0.3,0.8,0.6,1.1,1c0.6,0.8,1.1,1.8,1.4,2.7
				c0.3,0.8,0.5,1.6,0.7,2.4C312.7,146.6,312.8,146.8,312.8,146.9z"/>
			<path fill="#666666" d="M312.8,147.2c-1.7-0.4-3.6-2.5-4.7-4.3c-0.7,0.7-1.6,1.3-2.6,2c-2.5,1.7-5.7,2.3-5.8,2.3
				c-0.1,0-0.3-0.2-0.2-0.3c0-0.1,0,0.1,0,0c0-0.1,0.2-2.5,1.8-4.8c0.8-1,1.8-1.9,2.8-2.4c0.7-0.3,1.5-0.5,2.4-0.5
				c1.1,0,2.2,0.3,3.1,0.9c0.4,0.2,0.8,0.6,1.2,1.1c0.6,0.8,1.1,1.8,1.5,2.8c0.3,0.7,0.5,1.5,0.7,2.5c0,0.2,0.1,0.3,0.1,0.5
				c0,0,0,0,0,0.1C313,147.1,312.9,147.2,312.8,147.2"/>
		</g>
	</g>
</g>
<path fill="#666666" stroke="#666666" stroke-width="0.5" stroke-miterlimit="10" d="M314.6,142l1.2-1.2c0,0,0-0.1,0-0.1
	c0,0-0.1,0-0.1,0L314.6,142l-1.3-1.3c0,0-0.1,0-0.1,0c0,0,0,0.1,0,0.1l1.2,1.2l-1.2,1.2c0,0,0,0.1,0,0.1c0,0,0,0,0,0s0,0,0,0
	L314.6,142l1.1,1.3c0,0,0,0,0,0s0,0,0,0c0,0,0-0.1,0-0.1L314.6,142z"/>
<g>
	<g>
		<path fill="#666666" stroke="#666666" stroke-width="0.15" stroke-miterlimit="10" d="M356.4,139.7l-1.4-1.4
			c-0.4-0.4-1.1-0.4-1.5,0l-7.8,7.7l-1.6,4.5l4.5-1.6l7.8-7.7C356.8,140.8,356.8,140.1,356.4,139.7z M345.6,148.4l0.7-1.8l1.8,1.8
			l-1.8,0.6L345.6,148.4z M347,146.7l6.1-6.1l0.4,0.4l-6.1,6.1L347,146.7z M346.8,146.6l-0.3-0.4l6.1-6.1l0.3,0.4L346.8,146.6z
			 M347.5,147.3l6.1-6.1l0.4,0.4l-6.1,6.1L347.5,147.3z M352.9,139.8l0.2-0.2l2,2l-0.2,0.2L352.9,139.8z M348.4,148.2l-0.3-0.4
			l6.1-6.1l0.3,0.4L348.4,148.2z M356,140.7l-0.6,0.6l-2-2l0.6-0.6c0.2-0.2,0.4-0.2,0.6,0l1.4,1.4
			C356.2,140.3,356.2,140.6,356,140.7z"/>
	</g>
</g>
<circle fill="#666666" cx="388.1" cy="147" r="9.1"/>
<path fill="#FFFFFF" stroke="#FFFFFF" stroke-miterlimit="10" d="M388.8,147l3.9-3.9c0.1-0.1,0.1-0.2,0-0.3c-0.1-0.1-0.2-0.1-0.3,0
	l-3.9,3.9l-3.9-3.9c-0.1-0.1-0.2-0.1-0.3,0c-0.1,0.1-0.1,0.2,0,0.3l3.9,3.9l-3.9,3.9c-0.1,0.1-0.1,0.2,0,0.3c0,0,0.1,0.1,0.2,0.1
	c0.1,0,0.1,0,0.2-0.1l3.9-3.9l3.9,3.9c0,0,0.1,0.1,0.2,0.1c0.1,0,0.1,0,0.2-0.1c0.1-0.1,0.1-0.2,0-0.3L388.8,147z"/>
<g>
	<polygon fill="#666666" points="433.2,143.5 434.6,142.7 434.6,142.5 432.7,143.5 434.6,144.5 434.6,144.3 	"/>
	<path fill="#666666" d="M435.3,143.1l0-0.6l-1.7,1l1.7,1l0-0.6c1.8,0,2,1.3,2,1.3C437.3,143.6,435.8,143.2,435.3,143.1z"/>
</g>
<path fill="#666666" stroke="#666666" stroke-width="0.95" stroke-miterlimit="10" d="M428.4,101.8c-1.7,0-3.3,0.7-4.3,2v-1.6
	c0-0.1-0.1-0.2-0.2-0.2s-0.2,0.1-0.2,0.2v2.1c0,0,0,0,0,0c0,0,0,0,0,0c0,0,0,0,0,0c0,0,0,0,0,0c0,0,0,0,0,0c0,0,0,0,0,0c0,0,0,0,0,0
	c0,0,0,0,0,0c0,0,0,0,0,0c0,0,0,0,0,0h2.1c0.1,0,0.2-0.1,0.2-0.2s-0.1-0.2-0.2-0.2h-1.7c1-1.2,2.5-2,4.1-2c2.9,0,5.3,2.4,5.3,5.3
	c0,2.9-2.4,5.3-5.3,5.3c-1.1,0-2.2-0.3-3.1-1c-0.1-0.1-0.2,0-0.3,0c-0.1,0.1,0,0.2,0,0.3c1,0.7,2.1,1,3.3,1c3.2,0,5.7-2.6,5.7-5.7
	S431.6,101.8,428.4,101.8z"/>
<path fill="#666666" d="M434.2-54c-0.3,0-0.5,0-0.8-0.1c-0.2,0-0.3-0.2-0.2-0.4c0-0.2,0.2-0.3,0.4-0.2c1.3,0.3,2.6-0.3,3.2-1.5
	c0.3-0.7,0.4-1.5,0.2-2.2c-0.2-0.7-0.8-1.3-1.4-1.7c-0.7-0.3-1.5-0.4-2.2-0.2c-0.7,0.2-1.3,0.8-1.7,1.4c-0.1,0.1-0.3,0.2-0.4,0.1
	c-0.1-0.1-0.2-0.3-0.1-0.4c0.4-0.8,1.1-1.4,2-1.7c0.9-0.3,1.8-0.2,2.7,0.2c0.8,0.4,1.4,1.1,1.7,2c0.3,0.9,0.2,1.8-0.2,2.7
	C436.7-54.7,435.5-54,434.2-54z"/>
<g>
	<path fill="#666666" d="M426.1-44.4c-2.5,0-4.8-1.6-6.1-4.2c-0.4,0-0.9-0.3-1.2-0.9c-0.5-0.9-0.8-2.4-0.4-3.1
		c0.2-0.3,0.4-0.4,0.7-0.4c0,0,0,0,0,0c0.1-2,0.8-3.9,2-5.3c1.3-1.5,3-2.4,4.9-2.4c1.8,0,3.6,0.8,4.9,2.4c1.2,1.4,1.9,3.3,2,5.3
		c0,0,0,0,0,0c0.2,0,0.9,0.1,0.9,1.4c0,1.3-0.7,3-1.7,3.1C430.9-46,428.6-44.4,426.1-44.4z M420.2-49.2c0.1,0,0.2,0.1,0.3,0.2
		c1.1,2.5,3.2,4,5.6,4c2.3,0,4.5-1.5,5.6-4c0.1-0.1,0.2-0.2,0.3-0.2c0,0,0,0,0.1,0l0,0c0.6,0,1.2-1.4,1.2-2.5c0-0.5-0.1-0.8-0.3-0.8
		c0,0-0.1,0-0.2,0c-0.1,0-0.2,0-0.3,0c-0.1-0.1-0.1-0.1-0.1-0.2c0-4.1-2.9-7.5-6.3-7.5c-3.4,0-6.3,3.3-6.3,7.5
		c0,0.1-0.1,0.2-0.1,0.2c-0.1,0.1-0.2,0.1-0.3,0c-0.1,0-0.1,0-0.2,0c0,0-0.1,0-0.1,0.1c-0.3,0.4-0.1,1.7,0.4,2.5
		c0.1,0.2,0.4,0.6,0.7,0.6C420.1-49.2,420.2-49.2,420.2-49.2C420.2-49.2,420.2-49.2,420.2-49.2z"/>
</g>
<g>
	<path fill="#666666" d="M432.7-52.7c-1.8-0.4-3.6-2.6-4.6-4.4c-0.9,0.8-1.8,1.6-2.8,2.2c-2.5,1.7-5.7,2.2-5.7,2.2s0.2-2.5,1.8-4.6
		c0.7-0.9,1.6-1.8,2.7-2.3c1.6-0.8,3.8-0.6,5.3,0.4c0.4,0.3,0.8,0.6,1.1,1c0.6,0.8,1.1,1.8,1.4,2.7c0.3,0.8,0.5,1.6,0.7,2.4
		C432.6-53,432.6-52.8,432.7-52.7z"/>
	<path fill="#666666" d="M432.7-52.4c-1.7-0.4-3.6-2.5-4.7-4.3c-0.7,0.7-1.6,1.3-2.6,2c-2.5,1.7-5.7,2.3-5.8,2.3
		c-0.1,0-0.3-0.2-0.2-0.3c0-0.1,0,0.1,0,0c0-0.1,0.2-2.5,1.8-4.8c0.8-1,1.8-1.9,2.8-2.4c0.7-0.3,1.5-0.5,2.4-0.5
		c1.1,0,2.2,0.3,3.1,0.9c0.4,0.2,0.8,0.6,1.2,1.1c0.6,0.8,1.1,1.8,1.5,2.8c0.3,0.7,0.5,1.5,0.7,2.5c0,0.2,0.1,0.3,0.1,0.5
		c0,0,0,0,0,0.1C432.9-52.5,432.8-52.4,432.7-52.4"/>
</g>
<rect x="434.2" y="-59.5" transform="matrix(0.5406 0.8413 -0.8413 0.5406 151.1039 -391.7548)" fill="none" stroke="#666666" stroke-width="0.5" stroke-miterlimit="10" width="0.2" height="3.9"/>
<path fill="none" stroke="#666666" stroke-width="0.5" stroke-miterlimit="10" d="M434.2-59.5c-1.1,0-2,0.9-2,2l0,0c0,1.1,0.9,2,2,2
	s2-0.9,2-2l0,0C436.3-58.6,435.4-59.5,434.2-59.5L434.2-59.5L434.2-59.5z"/>
<path fill="#666666" d="M348.3-60.1c-0.1,0-0.1,0-0.2,0.1l-7.2,11.5c-0.1,0.2,0,0.3,0.2,0.3h14.4c0.2,0,0.3-0.1,0.2-0.3L348.5-60
	C348.5-60.1,348.4-60.1,348.3-60.1L348.3-60.1z"/>
<path fill="#666666" stroke="#666666" stroke-width="0.5" stroke-miterlimit="10" d="M299.2-60.4V-46c0,0.9,0.6,1.6,1.4,1.6h15.5
	c0.8,0,1.4-0.7,1.4-1.6v-14.4c0-0.9-0.6-1.6-1.4-1.6h-15.5C299.8-62,299.2-61.3,299.2-60.4z M299.9-60.4c0-0.4,0.3-0.7,0.6-0.7h15.5
	c0.3,0,0.6,0.3,0.6,0.7V-46c0,0.4-0.3,0.7-0.6,0.7h-15.5c-0.3,0-0.6-0.3-0.6-0.7V-60.4z"/>
<path fill="#666666" stroke="#666666" stroke-miterlimit="10" d="M308.2-57.2c-0.1-0.1-0.2-0.1-0.3,0c-0.1,0.1-0.1,0.2,0,0.3
	l3.9,3.9l-3.9,3.9c-0.1,0.1-0.1,0.2,0,0.3c0.1,0.1,0.2,0.1,0.3,0l4-4c0,0,0.1-0.1,0.1-0.2s0-0.1-0.1-0.2L308.2-57.2z"/>
<path fill="#666666" stroke="#666666" stroke-miterlimit="10" d="M305.2-57c-0.1-0.1-0.2-0.1-0.3,0c-0.1,0.1-0.1,0.2,0,0.3l3.9,3.9
	l-3.9,3.9c-0.1,0.1-0.1,0.2,0,0.3c0.1,0.1,0.2,0.1,0.3,0l4-4c0,0,0.1-0.1,0.1-0.2s0-0.1-0.1-0.2L305.2-57z"/>
<path fill="#666666" stroke="#666666" stroke-width="0.5" stroke-miterlimit="10" d="M259.1-60.4V-46c0,0.9,0.6,1.6,1.4,1.6h15.5
	c0.8,0,1.4-0.7,1.4-1.6v-14.4c0-0.9-0.6-1.6-1.4-1.6h-15.5C259.7-62,259.1-61.3,259.1-60.4z M259.8-60.4c0-0.4,0.3-0.7,0.6-0.7h15.5
	c0.3,0,0.6,0.3,0.6,0.7V-46c0,0.4-0.3,0.7-0.6,0.7h-15.5c-0.3,0-0.6-0.3-0.6-0.7V-60.4z"/>
<g>
	<path fill="#666666" stroke="#666666" stroke-miterlimit="10" d="M268.8-57.2c0.1-0.1,0.2-0.1,0.3,0s0.1,0.2,0,0.3l-3.9,3.9
		l3.9,3.9c0.1,0.1,0.1,0.2,0,0.3s-0.2,0.1-0.3,0l-4-4c0,0-0.1-0.1-0.1-0.2s0-0.1,0.1-0.2L268.8-57.2z"/>
	<path fill="#666666" stroke="#666666" stroke-miterlimit="10" d="M271.8-57c0.1-0.1,0.2-0.1,0.3,0s0.1,0.2,0,0.3l-3.9,3.9l3.9,3.9
		c0.1,0.1,0.1,0.2,0,0.3s-0.2,0.1-0.3,0l-4-4c0,0-0.1-0.1-0.1-0.2s0-0.1,0.1-0.2L271.8-57z"/>
</g>
<path fill="#666666" d="M393-53.5l-2.8,0.9l1.8,2.4c0.5,0.6,0.3,1.5-0.3,1.9c-0.3,0.2-0.5,0.3-0.8,0.3c-0.4,0-0.9-0.2-1.1-0.6
	l-1.8-2.4l-1.8,2.4c-0.3,0.4-0.7,0.6-1.1,0.6c-0.3,0-0.6-0.1-0.8-0.3c-0.6-0.5-0.8-1.3-0.3-1.9l1.8-2.4l-2.9-0.9
	c-0.7-0.2-1.1-1-0.9-1.8c0.2-0.7,1-1.1,1.8-0.9l2.9,0.9v-3c0-0.8,0.6-1.4,1.4-1.4c0.8,0,1.4,0.6,1.4,1.4v3l2.9-0.9
	c0.7-0.2,1.5,0.2,1.8,0.9C394.2-54.5,393.8-53.7,393-53.5z"/>
<path fill="#666666" stroke="#666666" stroke-width="0.5" stroke-miterlimit="10" d="M234.2-54.3c1.5-1.6,1.5-4.1-0.1-5.7
	c-0.8-0.8-1.8-1.2-2.9-1.2c-1.1,0-2.1,0.4-2.9,1.2l-3.4,3.4c-0.2,0.2-0.2,0.5,0,0.7c0.1,0.1,0.2,0.1,0.3,0.1s0.2,0,0.3-0.1l3.4-3.4
	c1.2-1.2,3.2-1.2,4.3,0c1.2,1.2,1.2,3.2,0,4.3l-8.5,8.5c-0.8,0.8-2.1,0.8-2.9,0c-0.8-0.8-0.8-2.1,0-2.9l6.9-6.9l0,0
	c0.4-0.4,1-0.4,1.4,0c0.2,0.2,0.3,0.4,0.3,0.7c0,0.3-0.1,0.5-0.3,0.7l-6,6c-0.2,0.2-0.2,0.5,0,0.7c0.1,0.1,0.2,0.1,0.3,0.1
	s0.2,0,0.3-0.1l6-6c0.4-0.4,0.6-0.9,0.6-1.4c0-0.5-0.2-1-0.6-1.4c-0.7-0.7-1.9-0.8-2.7-0.1c0,0,0,0,0,0l-7,7c-1.2,1.2-1.2,3.1,0,4.2
	c0.6,0.6,1.4,0.9,2.1,0.9c0.8,0,1.5-0.3,2.1-0.9L234.2-54.3L234.2-54.3L234.2-54.3L234.2-54.3C234.1-54.3,234.2-54.3,234.2-54.3z"/>
<title>interface_004-information-detail-window-application</title>
<desc>Created with Sketch.</desc>
<path fill="#666666" stroke="#666666" stroke-width="0.5" stroke-miterlimit="10" d="M118-43.5L118-43.5l0-13.6
	c-0.3,0.2-0.5,0.5-0.8,0.7l0,12.1H99.1v-13.4h11.1c0.3-0.4,0.7-0.8,1-1.2c0.3-0.4,0.8-0.2,0.9,0.2c0.1,0,0.1,0.1,0.2,0.1
	c0,0,0,0,0,0c1.4,0,2.7,0,4.1,0c0,0,0-0.1,0.1-0.1c-0.1-0.1-0.1-0.3,0-0.5c0.1-0.3,0.3-0.5,0.4-0.8c-0.3,0-0.6-0.1-0.6-0.5
	c0-0.1-0.1-0.4,0-0.5c0,0-0.1,0.4-0.1,0.4c-0.1,0-0.2-0.2-0.3-0.2c-0.1,0-0.1-0.1-0.3,0c-0.2,0.1-0.4,0.3-0.5,0.4c0,0,0,0,0,0
	c0,0-0.1,0.1-0.1,0.1c-0.2,0.1-0.4,0.1-0.5,0c-0.1,0.1-0.2,0.2-0.3,0.4c-0.5,0.5-1.2-0.2-0.7-0.7c0.3-0.3,0.6-0.7,0.9-1H98.3v18.1
	h19.2l0,0C117.7-43.4,117.8-43.4,118-43.5L118-43.5L118-43.5z"/>
<rect x="99.1" y="-60.7" fill="#FFFFFF" width="18.1" height="2.4"/>
<rect x="99.9" y="-60" fill="#666666" stroke="#666666" stroke-width="0.5" stroke-miterlimit="10" width="0.8" height="0.8"/>
<rect x="101.5" y="-60" fill="#666666" stroke="#666666" stroke-width="0.5" stroke-miterlimit="10" width="0.8" height="0.8"/>
<rect x="103" y="-60" fill="#666666" stroke="#666666" stroke-width="0.5" stroke-miterlimit="10" width="0.8" height="0.8"/>
<path fill="#666666" stroke="#666666" stroke-width="0.5" stroke-miterlimit="10" d="M158-43.5L158-43.5l0-13.6
	c-0.3,0.2-0.5,0.5-0.8,0.7l0,12.1h-18.1v-13.4h11.1c0.3-0.4,0.7-0.8,1-1.2c0.3-0.4,0.8-0.2,0.9,0.2c0.1,0,0.1,0.1,0.2,0.1
	c0,0,0,0,0,0c1.4,0,2.7,0,4.1,0c0,0,0-0.1,0.1-0.1c-0.1-0.1-0.1-0.3,0-0.5c0.1-0.3,0.3-0.5,0.4-0.8c-0.3,0-0.6-0.1-0.6-0.5
	c0-0.1-0.1-0.4,0-0.5c0,0-0.1,0.4-0.1,0.4c-0.1,0-0.2-0.2-0.3-0.2c-0.1,0-0.1-0.1-0.3,0c-0.2,0.1-0.4,0.3-0.5,0.4c0,0,0,0,0,0
	c0,0-0.1,0.1-0.1,0.1c-0.2,0.1-0.4,0.1-0.5,0c-0.1,0.1-0.2,0.2-0.3,0.4c-0.5,0.5-1.2-0.2-0.7-0.7c0.3-0.3,0.6-0.7,0.9-1h-15.8v18.1
	h19.2l0,0C157.7-43.4,157.8-43.4,158-43.5L158-43.5L158-43.5z"/>
<rect x="139.1" y="-60.7" fill="#FFFFFF" width="18.1" height="2.4"/>
<rect x="141.5" y="-60" fill="#666666" stroke="#666666" stroke-width="0.5" stroke-miterlimit="10" width="0.8" height="0.8"/>
<rect x="139.8" y="-60" fill="#666666" stroke="#666666" stroke-width="0.5" stroke-miterlimit="10" width="0.8" height="0.8"/>
<rect x="143" y="-60" fill="#666666" stroke="#666666" stroke-width="0.5" stroke-miterlimit="10" width="0.8" height="0.8"/>
<g>
	<path fill="#666666" d="M196.2-59.3c0.2,0.2,0.2,0.5,0,0.7l-0.2,0.2l-0.7-0.7l0.2-0.2C195.8-59.5,196.1-59.5,196.2-59.3z"/>
	<polygon fill="#666666" points="192.9,-56.6 192.7,-55.8 193.6,-56 195.8,-58.2 195.1,-58.9 	"/>
</g>
<rect x="111.7" y="-59.2" fill="#FFFFFF" width="5" height="1.6"/>
<g>
	<path fill="#666666" stroke="#666666" stroke-width="0.15" stroke-miterlimit="10" d="M117.6-59.7l-1.4-1.3
		c-0.4-0.4-1.1-0.3-1.4,0.1l-7.2,8.1l-1.4,4.5l4.3-1.8l7.2-8.1C118.1-58.6,118.1-59.3,117.6-59.7z M107.4-50.4l0.5-1.8l1.9,1.7
		l-1.7,0.7L107.4-50.4z M108.7-52.2l5.7-6.4l0.4,0.4l-5.7,6.4L108.7-52.2z M108.5-52.3l-0.4-0.3l5.7-6.4l0.4,0.3L108.5-52.3z
		 M109.3-51.6L115-58l0.4,0.4l-5.7,6.4L109.3-51.6z M114.2-59.3l0.2-0.2l2.1,1.9l-0.2,0.2L114.2-59.3z M110.2-50.8l-0.4-0.3l5.7-6.4
		l0.4,0.3L110.2-50.8z M117.3-58.6l-0.6,0.6l-2.1-1.9l0.6-0.6c0.1-0.2,0.4-0.2,0.6,0l1.4,1.3C117.4-59.1,117.4-58.8,117.3-58.6z"/>
</g>
<path fill="#FFFFFF" d="M155.5-61.5c0,0-0.8,0.9-0.9,1c-0.1,0-2.5,1.2-2.5,1.2s-0.7-0.1-0.7,0.1s0.3,3.6,0.3,3.6l1.3,2.2
	c0,0,2.1-2.1,2.2-2.2c0.1-0.1,2.8-2.2,2.8-2.2l-1.7-2.6L155.5-61.5z"/>
<g>
	<path fill="#666666" stroke="#666666" stroke-width="0.15" stroke-miterlimit="10" d="M157.5-60.6c0.6,0.6,0.6,1.5,0,2.1l-0.7,0.7
		l-2.1-2.1l0.7-0.7C156-61.2,156.9-61.2,157.5-60.6z"/>
	<polygon fill="#666666" stroke="#666666" stroke-width="0.15" stroke-miterlimit="10" points="147.1,-52.3 146.4,-49.5 
		149.2,-50.2 156.1,-57.1 154,-59.2 	"/>
</g>
<path fill="#666666" stroke="#666666" stroke-width="0.75" stroke-miterlimit="10" d="M41,69.7h-1.6v-1.6c0-0.1-0.1-0.2-0.2-0.2
	c-0.1,0-0.2,0.1-0.2,0.2v1.6h-1.6c-0.1,0-0.2,0.1-0.2,0.2s0.1,0.2,0.2,0.2H39v1.6c0,0.1,0.1,0.2,0.2,0.2c0.1,0,0.2-0.1,0.2-0.2v-1.6
	H41c0.1,0,0.2-0.1,0.2-0.2S41.1,69.7,41,69.7z"/>
<path fill="#666666" stroke="#666666" stroke-width="0.75" stroke-miterlimit="10" d="M9.2,100.1c-2.6,0-4.6,2.1-4.6,4.6
	c0,2.6,2.1,4.6,4.6,4.6s4.6-2.1,4.6-4.6C13.8,102.2,11.7,100.1,9.2,100.1z M9.2,109c-2.3,0-4.2-1.9-4.2-4.2c0-2.3,1.9-4.2,4.2-4.2
	s4.2,1.9,4.2,4.2C13.4,107.1,11.5,109,9.2,109z"/>
<path fill="#666666" stroke="#666666" stroke-width="0.75" stroke-miterlimit="10" d="M10.8,104.6H9.3V103c0-0.1-0.1-0.2-0.2-0.2
	s-0.2,0.1-0.2,0.2v1.6H7.3c-0.1,0-0.2,0.1-0.2,0.2c0,0.1,0.1,0.2,0.2,0.2h1.6v1.6c0,0.1,0.1,0.2,0.2,0.2s0.2-0.1,0.2-0.2V105h1.6
	c0.1,0,0.2-0.1,0.2-0.2C11,104.7,10.9,104.6,10.8,104.6z"/>
<rect x="462.8" y="28.9" fill="#666666" width="6" height="8.1"/>
<polygon fill="#666666" points="466.7,27 460.7,27 460.7,35.1 462.1,35.1 462.1,28.3 466.7,28.3 "/>
<polygon fill="#666666" points="464.7,25 458.8,25 458.8,33.1 460.1,33.1 460.1,26.3 464.7,26.3 "/>
<g>
</g>
<g>
</g>
<g>
</g>
<g>
</g>
<g>
</g>
<g>
</g>
<g>
</g>
<g>
</g>
<g>
</g>
<g>
</g>
<g>
</g>
<g>
</g>
<g>
</g>
<g>
</g>
<g>
</g>
<g>
</g>
<g>
</g>
<g>
</g>
<g>
</g>
<g>
</g>
<g>
</g>
<g>
</g>
<g>
</g>
<g>
</g>
<g>
</g>
<g>
</g>
<g>
</g>
<g>
</g>
<g>
</g>
<g>
</g>
<g>
	<g>
		<path fill="#666666" d="M10.4,56.6c-5.2,0-9.3,4.2-9.3,9.3s4.2,9.3,9.3,9.3h9.3v-9.3C19.7,60.7,15.6,56.6,10.4,56.6z M10.4,73.5
			c-4.2,0-7.6-3.4-7.6-7.6s3.4-7.6,7.6-7.6s7.6,3.4,7.6,7.6S14.6,73.5,10.4,73.5z"/>
	</g>
	<path fill="#666666" d="M14.2,65.2h-3.1v-3.1c0-0.4-0.3-0.7-0.7-0.7c-0.4,0-0.7,0.3-0.7,0.7v3.1H6.6c-0.4,0-0.7,0.3-0.7,0.7
		s0.3,0.7,0.7,0.7h3.1v3.1c0,0.4,0.3,0.7,0.7,0.7c0.4,0,0.7-0.3,0.7-0.7v-3.1h3.1c0.4,0,0.7-0.3,0.7-0.7
		C14.9,65.5,14.6,65.2,14.2,65.2z"/>
</g>
<path fill="#666666" d="M17.6,99.4v-2.9h-2.9v-1.4h-1.6v1.4H5v-1.4H3.3v1.4H0.5v15.7h2.9v2.9h17.1V99.4H17.6z M1.8,111V98h1.5v1.5H5
	V98h8.2v1.5h1.6V98h1.5v13H1.8z M19.2,113.9H5v-1.6h12.6v-11.5h1.6V113.9z"/>
<path fill="#666666" d="M17.1,130.2h-4.3c0-1.4-1.1-2.5-2.5-2.5c-1.4,0-2.5,1.1-2.5,2.5H3.5v3h13.6V130.2z M10.3,131.5
	c-0.7,0-1.2-0.6-1.2-1.2c0-0.7,0.6-1.2,1.2-1.2c0.7,0,1.2,0.6,1.2,1.2C11.6,130.9,11,131.5,10.3,131.5z"/>
<g>
	<path fill="#666666" d="M17.9,130.2v3.7H2.7v-3.7H1.6v17.4H19v-17.4H17.9z M18.1,146.7H2.6V135h15.5V146.7z"/>
	<rect x="2.6" y="135" fill="#FFFFFF" width="15.5" height="11.7"/>
</g>
<path fill="#666666" stroke="#666666" stroke-width="0.75" stroke-miterlimit="10" d="M12.7,138.9c-0.1-0.1-0.2-0.1-0.2,0l-3.6,3.6
	l-1.2-1.2c-0.1-0.1-0.2-0.1-0.2,0c-0.1,0.1-0.1,0.2,0,0.2l1.3,1.3c0,0,0.1,0,0.1,0s0.1,0,0.1,0l3.8-3.8
	C12.7,139.1,12.7,139,12.7,138.9z"/>
<path fill="#666666" stroke="#666666" stroke-width="0.75" stroke-miterlimit="10" d="M10.2,136.2c-2.6,0-4.6,2.1-4.6,4.6
	c0,2.6,2.1,4.6,4.6,4.6s4.6-2.1,4.6-4.6C14.8,138.3,12.8,136.2,10.2,136.2z M10.2,145.1c-2.3,0-4.2-1.9-4.2-4.2
	c0-2.3,1.9-4.2,4.2-4.2s4.2,1.9,4.2,4.2C14.4,143.2,12.5,145.1,10.2,145.1z"/>
<path fill="#666666" d="M-26.4,128.8c-0.7,0-0.7,0-0.7,0.7v16.3c0,0.7,0,0.7,0.7,0.7c0.7,0,0.7,0,0.7-0.7v-16.3
	C-25.7,128.8-25.7,128.8-26.4,128.8z"/>
<g>
	<path fill="#666666" d="M-9.3,129.1c-5.9-1.5-10.4,1.5-14.9,0v10c4.5,1.5,8.9-1.5,14.9,0l-3-5.2L-9.3,129.1z M-11.5,138
		c-4.5-1.1-7.9,1.1-11.3,0v-7.6c3.4,1.1,6.8-1.1,11.3,0l-2.3,3.7L-11.5,138z"/>
	<path fill="#FFFFFF" d="M-11.5,130.4c-4.5-1.1-7.9,1.1-11.3,0v7.6c3.4,1.1,6.8-1.1,11.3,0l-2.3-3.9L-11.5,130.4z"/>
</g>
<g>
	<path fill="#666666" stroke="#666666" stroke-miterlimit="10" d="M-50.9,146.4h-3c-0.9,0-1.7-0.7-1.7-1.7v-8.1
		c0-0.9,0.7-1.7,1.7-1.7h3V146.4z M-53.9,135.5c-0.6,0-1.1,0.5-1.1,1.1v8.1c0,0.6,0.5,1.1,1.1,1.1h2.5v-10.3H-53.9z"/>
	<path fill="#666666" stroke="#666666" stroke-miterlimit="10" d="M-41.8,146.4h-9.5v-11.2l3.8-5.5c0.4-0.5,1-0.8,1.7-0.8h0.1
		c0.7,0,1.3,0.3,1.7,0.8c0.4,0.5,0.5,1.2,0.3,1.8l-1,3.5h5.1c0.7,0,1.5,0.4,1.9,1c0.6,0.8,0.7,1.8,0.3,3l-1.7,5.1
		C-39.6,145-40.8,146.4-41.8,146.4z M-50.9,145.8h9c0.7,0,1.8-1.2,2-2l1.7-5.1c0.3-0.9,0.3-1.8-0.2-2.5c-0.3-0.5-0.9-0.8-1.5-0.8
		h-5.7l1.2-4.2c0.1-0.5,0-1-0.2-1.4c-0.3-0.4-0.7-0.6-1.2-0.6h-0.1c-0.5,0-0.9,0.2-1.2,0.6l-3.8,5.4V145.8z"/>
</g>
<path fill="#666666" d="M-23.6,102.2l0.7-0.6l0.7,0.5l0-3.6h-1.3C-23.6,98.5-23.6,102.2-23.6,102.2z"/>
<path fill="#666666" d="M3.8,9.3C3.8,9,4,8.8,4.3,8.8h12.6l-2.7-2.7c-0.2-0.2-0.2-0.6,0-0.8c0.1-0.1,0.2-0.2,0.4-0.2
	s0.3,0.1,0.4,0.2l3.6,3.6c0.2,0.2,0.2,0.6,0,0.8l-3.6,3.6c-0.2,0.2-0.6,0.2-0.8,0c-0.2-0.2-0.2-0.6,0-0.8l2.7-2.7H4.3
	C4,9.8,3.7,9.6,3.8,9.3z"/>
<path fill="#666666" d="M3.9,18.6h10.9c2.1,0,3.9-1.7,3.9-3.9v-2.3c0-0.3-0.2-0.5-0.5-0.5s-0.5,0.2-0.5,0.5v2.3
	c0,1.5-1.3,2.8-2.8,2.8H4c-1.5,0-2.8-1.3-2.8-2.8V3.9c0-1.5,1.3-2.8,2.8-2.8h10.9c1.5,0,2.8,1.3,2.8,2.8v2.2c0,0.3,0.2,0.5,0.5,0.5
	s0.5-0.2,0.5-0.5V3.9C18.7,1.7,17,0,14.9,0L3.9,0C1.8,0,0.1,1.7,0.1,3.9v10.9C0.1,16.9,1.8,18.6,3.9,18.6z"/>
<path fill="#666666" d="M9.4,9.3"/>
<path fill="#666666" d="M9.4,9.3"/>
</svg>
