<?xml version="1.0" encoding="utf-8"?>
<!-- Generator: Adobe Illustrator 18.1.1, SVG Export Plug-In . SVG Version: 6.00 Build 0)  -->
<svg version="1.1" id="Layer_1" xmlns="http://www.w3.org/2000/svg" xmlns:xlink="http://www.w3.org/1999/xlink" x="0px" y="0px"
	 viewBox="561.5 447.4 20 20" enable-background="new 561.5 447.4 20 20" xml:space="preserve">
<path fill="#666666" stroke="#666666" stroke-width="0.35" stroke-miterlimit="10" d="M581,448.3v5.3c0,0.2-0.1,0.3-0.3,0.3
	s-0.3-0.1-0.3-0.3V449l-9,9c-0.1,0.1-0.1,0.1-0.2,0.1c-0.1,0-0.1,0-0.2-0.1c-0.1-0.1-0.1-0.3,0-0.4l9-9h-4.6c-0.2,0-0.3-0.1-0.3-0.3
	c0-0.2,0.1-0.3,0.3-0.3h5.3C580.9,448,581,448.2,581,448.3z M580.7,457.5c-0.2,0-0.3,0.1-0.3,0.3v5.4c0,1.8-1.4,3.2-3.2,3.2h-11.4
	c-1.8,0-3.2-1.4-3.2-3.2v-9.1v-2.3c0-1.8,1.4-3.2,3.2-3.2h5.3c0.2,0,0.3-0.1,0.3-0.3c0-0.2-0.1-0.3-0.3-0.3h-5.3
	c-2.1,0-3.7,1.7-3.7,3.7v2.3v9.1c0,2.1,1.7,3.7,3.7,3.7h11.4c2.1,0,3.7-1.7,3.7-3.7v-5.4C581,457.7,580.9,457.5,580.7,457.5z"/>
</svg>
