<?xml version="1.0" encoding="utf-8"?>
<!-- Generator: Adobe Illustrator 18.1.1, SVG Export Plug-In . SVG Version: 6.00 Build 0)  -->
<svg version="1.1" id="Layer_1" xmlns="http://www.w3.org/2000/svg" xmlns:xlink="http://www.w3.org/1999/xlink" x="0px" y="0px"
	 viewBox="0 0 18.7 18.7" enable-background="new 0 0 18.7 18.7" xml:space="preserve">
<path fill="#2E368F" stroke="#2E368F" stroke-width="0.75" stroke-miterlimit="10" d="M348.3,77.2l4-4c0.1-0.1,0.1-0.2,0-0.3
	s-0.2-0.1-0.3,0l-4,4l-4-4c-0.1-0.1-0.2-0.1-0.3,0s-0.1,0.2,0,0.3l4,4l-4,4c-0.1,0.1-0.1,0.2,0,0.3c0,0,0.1,0.1,0.2,0.1
	s0.1,0,0.2-0.1l4-4l4,4c0,0,0.1,0.1,0.2,0.1s0.1,0,0.2-0.1c0.1-0.1,0.1-0.2,0-0.3L348.3,77.2z"/>
<path fill="#2E368F" stroke="#2E368F" stroke-width="0.75" stroke-miterlimit="10" d="M431,33.3c0.1-0.1,0.1-0.2,0-0.3
	c-0.1-0.1-0.2-0.1-0.3,0l-1.8,1.8l0.3,0.3L431,33.3z"/>
<path fill="#2E368F" stroke="#2E368F" stroke-width="0.75" stroke-miterlimit="10" d="M430.7,41.3c0,0,0.1,0.1,0.2,0.1
	s0.1,0,0.2-0.1c0.1-0.1,0.1-0.2,0-0.3l-2.2-2.2l-0.3,0.3L430.7,41.3z"/>
<path fill="#2E368F" stroke="#2E368F" stroke-width="0.75" stroke-miterlimit="10" d="M427.2,37.1l0.3-0.3l-0.3-0.3l-0.3,0.3L423,33
	c-0.1-0.1-0.2-0.1-0.3,0c-0.1,0.1-0.1,0.2,0,0.3l3.8,3.8l-3.8,3.8c-0.1,0.1-0.1,0.2,0,0.3c0,0,0.1,0.1,0.2,0.1c0.1,0,0.1,0,0.2-0.1
	l3.8-3.8l1.3,1.3l0.3-0.3L427.2,37.1z"/>
<path fill="#2E368F" stroke="#2E368F" stroke-width="0.75" stroke-miterlimit="10" d="M425.6,41.3c-0.1,0.1-0.1,0.2,0,0.3
	c0,0,0.1,0.1,0.2,0.1c0.1,0,0.1,0,0.2-0.1l1.9-1.9l-0.3-0.3L425.6,41.3z"/>
<path fill="#2E368F" stroke="#2E368F" stroke-width="0.75" stroke-miterlimit="10" d="M426,33.3c-0.1-0.1-0.2-0.1-0.3,0
	c-0.1,0.1-0.1,0.2,0,0.3l2.2,2.2l0.3-0.3L426,33.3z"/>
<path fill="#2E368F" stroke="#2E368F" stroke-width="0.75" stroke-miterlimit="10" d="M430.1,37.4l3.8-3.8c0.1-0.1,0.1-0.2,0-0.3
	c-0.1-0.1-0.2-0.1-0.3,0l-3.8,3.8l-1.3-1.3l-0.3,0.3l1.3,1.3l-0.4,0.4l0.3,0.3l0.4-0.4l3.8,3.8c0,0,0.1,0.1,0.2,0.1
	c0.1,0,0.1,0,0.2-0.1c0.1-0.1,0.1-0.2,0-0.3L430.1,37.4z"/>
<rect x="428.2" y="38.5" transform="matrix(-0.7072 -0.707 0.707 -0.7072 704.1151 369.0762)" fill="#2E368F" stroke="#2E368F" stroke-width="0.75" stroke-miterlimit="10" width="0.5" height="0.5"/>
<rect x="427.9" y="35.6" transform="matrix(0.7067 0.7075 -0.7075 0.7067 150.938 -292.439)" fill="#2E368F" stroke="#2E368F" stroke-width="0.75" stroke-miterlimit="10" width="0.5" height="0.5"/>
<g>
	<path fill="#2E368F" stroke="#2E368F" stroke-width="0.45" stroke-miterlimit="10" d="M274.4-6.1H272c0.1-0.2,0.2-0.5,0.2-0.8v-2
		c0-1.8-1.5-3.3-3.3-3.3h-2.5c-1.8,0-3.3,1.5-3.3,3.3v2c0,0.3,0.1,0.6,0.2,0.8h-2.4c-1,0-1.8,0.8-1.8,1.8V4c0,1,0.8,1.8,1.8,1.8
		h13.5c1,0,1.8-0.8,1.8-1.8v-8.3C276.2-5.3,275.4-6.1,274.4-6.1z M264.1-6.9v-2c0-1.3,1.1-2.3,2.3-2.3h2.5c1.3,0,2.3,1.1,2.3,2.3v2
		c0,0.4-0.4,0.8-0.8,0.8h-5.6C264.4-6.1,264.1-6.4,264.1-6.9z M275.2,4c0,0.4-0.4,0.8-0.8,0.8h-13.5c-0.4,0-0.8-0.4-0.8-0.8v-8.3
		c0-0.4,0.4-0.8,0.8-0.8h4h5.6h4c0.4,0,0.8,0.4,0.8,0.8V4z"/>
	<path fill="#2E368F" stroke="#2E368F" stroke-width="0.45" stroke-miterlimit="10" d="M267.7-2.7c-1,0-1.9,0.8-1.9,1.9
		c0,0.9,0.6,1.6,1.4,1.8v1.6c0,0.3,0.2,0.5,0.5,0.5s0.5-0.2,0.5-0.5V1c0.8-0.2,1.4-0.9,1.4-1.8C269.6-1.8,268.7-2.7,267.7-2.7z
		 M267.7,0.1c-0.5,0-0.9-0.4-0.9-0.9s0.4-0.9,0.9-0.9c0.5,0,0.9,0.4,0.9,0.9S268.2,0.1,267.7,0.1z"/>
</g>
<g>
	<path fill="#2E368F" stroke="#2E368F" stroke-width="0.45" stroke-miterlimit="10" d="M315.5-5.1h-2.4c0.1-0.2,0.2-0.5,0.2-0.8v-2
		c0-1.8-1.5-3.3-3.3-3.3h-2.5c-1.8,0-3.3,1.5-3.3,3.3c0,0.3,0.2,0.5,0.5,0.5s0.5-0.2,0.5-0.5c0-1.3,1.1-2.3,2.3-2.3h2.5
		c1.3,0,2.3,1.1,2.3,2.3v2c0,0.4-0.4,0.8-0.8,0.8h-5.6h-4c-1,0-1.8,0.8-1.8,1.8v8.3c0,1,0.8,1.8,1.8,1.8h13.5c1,0,1.8-0.8,1.8-1.8
		v-8.3C317.3-4.3,316.5-5.1,315.5-5.1z M316.3,4.9c0,0.4-0.4,0.8-0.8,0.8H302c-0.4,0-0.8-0.4-0.8-0.8v-8.3c0-0.4,0.4-0.8,0.8-0.8h4
		h5.6h4c0.4,0,0.8,0.4,0.8,0.8V4.9z"/>
	<path fill="#2E368F" stroke="#2E368F" stroke-width="0.45" stroke-miterlimit="10" d="M308.7-1.8c-1,0-1.9,0.8-1.9,1.9
		c0,0.9,0.6,1.6,1.4,1.8v1.6c0,0.3,0.2,0.5,0.5,0.5s0.5-0.2,0.5-0.5V2c0.8-0.2,1.4-0.9,1.4-1.8C310.6-0.9,309.8-1.8,308.7-1.8z
		 M308.7,1c-0.5,0-0.9-0.4-0.9-0.9s0.4-0.9,0.9-0.9c0.5,0,0.9,0.4,0.9,0.9S309.2,1,308.7,1z"/>
</g>
<path fill="#2E368F" d="M155.4-11.8H141c-1,0-1.8,0.8-1.8,1.8V4.4c0,1,0.8,1.8,1.8,1.8h14.4c1,0,1.8-0.8,1.8-1.8V-10
	C157.2-11,156.4-11.8,155.4-11.8z M153-5.2c0,0-5.8,5.8-5.8,5.8c-0.3,0.3-0.5,0.2-0.8,0l-2.8-2.8c-0.3-0.3-0.3-0.5,0-0.8
	c0.3-0.3,0.5-0.3,0.8,0l2.4,2.4l5.3-5.4c0.3-0.3,0.5-0.3,0.8,0C153.3-5.7,153.3-5.4,153-5.2z"/>
<path fill="#2E368F" stroke="#2E368F" stroke-width="0.5" stroke-miterlimit="10" d="M115.3,69.2c0.4,0,0.8,0.4,0.8,0.8v14.3
	c0,0.4-0.4,0.8-0.8,0.8H101c-0.4,0-0.8-0.4-0.8-0.8V70c0-0.4,0.4-0.8,0.8-0.8L115.3,69.2 M115.3,68.1H101c-1,0-1.9,0.8-1.9,1.9v14.3
	c0,1,0.8,1.9,1.9,1.9h14.3c1,0,1.9-0.8,1.9-1.9V70C117.2,69,116.3,68.1,115.3,68.1L115.3,68.1z"/>
<path fill="#2E368F" stroke="#2E368F" stroke-miterlimit="10" d="M434.3-42.5c0.1-0.1,0.1-0.2,0.1-0.3c0-0.1,0-0.2-0.1-0.3l-8.2-8.2
	c-0.2-0.2-0.5-0.2-0.6,0s-0.2,0.5,0,0.6l7.8,7.8l-7.8,7.8c-0.2,0.2-0.2,0.5,0,0.6s0.5,0.2,0.6,0L434.3-42.5z"/>
<path fill="#2E368F" stroke="#2E368F" stroke-miterlimit="10" d="M148.8,73.2c-0.1-0.1-0.2-0.1-0.3-0.1s-0.2,0-0.3,0.1l-8.2,8.2
	c-0.2,0.2-0.2,0.5,0,0.6c0.2,0.2,0.5,0.2,0.6,0l7.8-7.8l7.8,7.8c0.2,0.2,0.5,0.2,0.6,0c0.2-0.2,0.2-0.5,0-0.6L148.8,73.2z"/>
<path fill="#2E368F" stroke="#2E368F" stroke-miterlimit="10" d="M307.8,42.1c0.1,0.1,0.2,0.1,0.3,0.1c0.1,0,0.2,0,0.3-0.1l8.2-8.2
	c0.2-0.2,0.2-0.5,0-0.6c-0.2-0.2-0.5-0.2-0.6,0l-7.8,7.8l-7.8-7.8c-0.2-0.2-0.5-0.2-0.6,0c-0.2,0.2-0.2,0.5,0,0.6L307.8,42.1z"/>
<g transform="matrix( 1, 0, 0, 1, 0,0) ">
	<g>
		<g id="a_3_">
			<path fill="#2E368F" stroke="#2E368F" stroke-width="0.5" stroke-miterlimit="10" d="M178.6,32.6v7.2c0,0.9,0.3,1.7,1,2.4
				s1.5,1,2.4,1v2.6c0,0.1,0,0.2,0.1,0.3c0,0.1,0.1,0.1,0.2,0.2c0.1,0,0.1,0,0.2,0c0.1,0,0.2,0,0.3-0.1l3-2.9h8.3c1,0,1.8-0.3,2.5-1
				c0.7-0.7,1-1.5,1-2.4v-7.2c0-1-0.3-1.8-1-2.4c-0.7-0.7-1.5-1-2.5-1h-12.1c-1,0-1.8,0.3-2.5,1C179,30.8,178.6,31.7,178.6,32.6
				 M182.2,30.1h12.1c0.7,0,1.3,0.2,1.8,0.7c0.5,0.5,0.8,1.1,0.8,1.8v7.2c0,0.7-0.3,1.3-0.8,1.8c-0.5,0.5-1.1,0.8-1.8,0.8h-8.5
				c-0.1,0-0.2,0-0.3,0.1l-2.3,2.3v-2c0-0.1,0-0.2-0.1-0.3c-0.1-0.1-0.2-0.1-0.3-0.1h-0.4c-0.7,0-1.3-0.3-1.8-0.8
				c-0.5-0.5-0.8-1.1-0.8-1.8v-7.2c0-0.7,0.3-1.3,0.8-1.8C180.8,30.3,181.4,30.1,182.2,30.1z"/>
			<path fill="#2E368F" stroke="#2E368F" stroke-width="0.5" stroke-miterlimit="10" d="M193.4,37c0.2-0.2,0.4-0.5,0.4-0.8
				c0-0.3-0.1-0.6-0.4-0.8c-0.2-0.2-0.5-0.4-0.9-0.4s-0.6,0.1-0.9,0.4c-0.2,0.2-0.4,0.5-0.4,0.8c0,0.3,0.1,0.6,0.4,0.8
				c0.2,0.2,0.5,0.3,0.9,0.3S193.1,37.3,193.4,37 M185.1,36.2c0-0.3-0.1-0.6-0.4-0.8c-0.2-0.2-0.5-0.4-0.9-0.4
				c-0.3,0-0.6,0.1-0.9,0.4c-0.2,0.2-0.4,0.5-0.4,0.8c0,0.3,0.1,0.6,0.4,0.8c0.2,0.2,0.5,0.3,0.9,0.3c0.3,0,0.6-0.1,0.9-0.3
				C185,36.8,185.1,36.5,185.1,36.2 M187.3,35.4c-0.2,0.2-0.4,0.5-0.4,0.8c0,0.3,0.1,0.6,0.4,0.8c0.2,0.2,0.5,0.3,0.9,0.3
				c0.3,0,0.6-0.1,0.9-0.3c0.2-0.2,0.4-0.5,0.4-0.8c0-0.3-0.1-0.6-0.4-0.8c-0.2-0.2-0.5-0.4-0.9-0.4C187.9,35,187.6,35.1,187.3,35.4
				z"/>
		</g>
	</g>
</g>
<path fill="#2E368F" stroke="#2E368F" stroke-width="0.45" stroke-miterlimit="10" d="M71.8,84.7h-2v2H58.6V71.5h2v-2h2v-2h11.1
	v15.2h-2L71.8,84.7L71.8,84.7z M69.2,72H59.1v14.2h10.1V72z M60.6,74v-0.5h7.1V74H60.6z M60.6,76.1v-0.5h7.1v0.5H60.6z M60.6,78.1
	v-0.5h7.1v0.5H60.6z M60.6,80.1v-0.5h7.1v0.5H60.6z M60.6,82.1v-0.5h7.1v0.5H60.6z M60.6,84.2v-0.5h7.1v0.5H60.6z M61.1,70v1.5h8.6
	v12.6h1.5V70H61.1z M63.2,68v1.5h8.6v12.6h1.5V68H63.2z"/>
<path fill="#2E368F" d="M147.6,107.4c0,0-0.1,0-0.1,0.1l-5.2,8.4c-0.1,0.1,0,0.2,0.1,0.2h10.4c0.1,0,0.2-0.1,0.1-0.2l-5.2-8.4
	C147.7,107.4,147.6,107.4,147.6,107.4L147.6,107.4z M142.4,117.8c-0.1,0-0.2,0.1-0.1,0.2l5.2,8.4c0.1,0.1,0.2,0.1,0.2,0l5.2-8.4
	c0.1-0.1,0-0.2-0.1-0.2H142.4L142.4,117.8z"/>
<path fill="#2E368F" stroke="#2E368F" stroke-width="0.75" stroke-miterlimit="10" d="M427.9,27.7c-5.3,0-9.6,4.3-9.6,9.6
	s4.3,9.6,9.6,9.6s9.6-4.3,9.6-9.6S433.2,27.7,427.9,27.7z M427.9,46.1c-4.8,0-8.7-3.9-8.7-8.7s3.9-8.7,8.7-8.7s8.7,3.9,8.7,8.7
	S432.8,46.1,427.9,46.1z"/>
<g>
	<path fill="#2E368F" stroke="#2E368F" stroke-width="0.75" stroke-miterlimit="10" d="M227.7,77.4c-1.9,0-3.5,1.2-4.1,2.9h0.4
		c0.6-1.6,1.9-2.5,3.7-2.5c2.1,0,3.9,1.8,3.9,3.9s-1.8,3.9-3.9,3.9c-1.6,0-2.9-1-3.5-2.3h-0.4c0.6,1.6,2.1,2.7,3.9,2.7
		c2.3,0,4.3-1.9,4.3-4.3C232,79.4,230,77.4,227.7,77.4z"/>
	<path fill="#2E368F" stroke="#2E368F" stroke-width="0.75" stroke-miterlimit="10" d="M227.7,79v3.3h2.5v0.4h-2.9
		c0-1.2,0-2.7,0-3.7L227.7,79z"/>
</g>
<path fill="#2E368F" stroke="#2E368F" stroke-miterlimit="10" d="M196.6,77.3c-0.2,0-0.3,0.1-0.3,0.3v5c0,1.6-1.3,2.9-2.9,2.9h-10.6
	c-1.6,0-2.9-1.3-2.9-2.9v-8.4v-2.2c0-1.6,1.3-2.9,2.9-2.9h4.9c0.2,0,0.3-0.1,0.3-0.3s-0.1-0.3-0.3-0.3h-4.9c-1.9,0-3.5,1.6-3.5,3.5
	v2.2v8.4c0,1.9,1.6,3.5,3.5,3.5h10.6c1.9,0,3.5-1.6,3.5-3.5v-5C196.8,77.4,196.7,77.3,196.6,77.3z"/>
<g>
	<g>
		<path fill="#2E368F" d="M197.2,68.3c0.6,0.6,0.6,1.5,0,2.1l-0.7,0.7l-2.1-2.1l0.7-0.7C195.7,67.8,196.6,67.8,197.2,68.3z"/>
		<polygon fill="#2E368F" points="186.9,76.5 186.2,79.3 189,78.6 195.8,71.8 193.7,69.7 		"/>
	</g>
</g>
<path fill="#2E368F" stroke="#2E368F" stroke-width="0.75" stroke-miterlimit="10" d="M356.6,117.5c-0.2,0-0.3,0.1-0.3,0.3v5
	c0,1.6-1.3,2.9-2.9,2.9h-10.5c-1.6,0-2.9-1.3-2.9-2.9v-8.4v-2.2c0-1.6,1.3-2.9,2.9-2.9h4.9c0.2,0,0.3-0.1,0.3-0.3
	c0-0.2-0.1-0.3-0.3-0.3h-4.9c-1.9,0-3.5,1.5-3.5,3.5v2.2v8.4c0,1.9,1.5,3.5,3.5,3.5h10.5c1.9,0,3.5-1.5,3.5-3.5v-5
	C356.8,117.6,356.7,117.5,356.6,117.5z"/>
<path fill="#2E368F" stroke="#2E368F" stroke-width="0.75" stroke-miterlimit="10" d="M317.1-42.8c-0.2,0-0.3,0.1-0.3,0.3v5.3
	c0,1.7-1.4,3.1-3.1,3.1h-11.3c-1.7,0-3.1-1.4-3.1-3.1v-9v-2.3c0-1.7,1.4-3.1,3.1-3.1h5.3c0.2,0,0.3-0.1,0.3-0.3s-0.1-0.3-0.3-0.3
	h-5.3c-2,0-3.7,1.7-3.7,3.7v2.3v9c0,2,1.7,3.7,3.7,3.7h11.3c2,0,3.7-1.7,3.7-3.7v-5.3C317.3-42.7,317.2-42.8,317.1-42.8z"/>
<g>
	<path fill="#2E368F" d="M317.7-52.4c0.6,0.6,0.6,1.6,0,2.2l-0.7,0.7l-2.2-2.2l0.7-0.7C316.1-53,317.1-53,317.7-52.4z"/>
	<polygon fill="#2E368F" points="306.7,-43.7 306,-40.7 308.9,-41.5 316.2,-48.8 314,-51 	"/>
</g>
<path fill="#2E368F" stroke="#2E368F" stroke-width="0.75" stroke-miterlimit="10" d="M236.1-43.8H229v-7.1c0-0.5-0.4-0.8-0.8-0.8
	c-0.5,0-0.8,0.4-0.8,0.8v7.1h-7.1c-0.5,0-0.8,0.4-0.8,0.8c0,0.5,0.4,0.8,0.8,0.8h7.1v7.1c0,0.5,0.4,0.8,0.8,0.8
	c0.5,0,0.8-0.4,0.8-0.8v-7.1h7.1c0.5,0,0.8-0.4,0.8-0.8C237-43.4,236.6-43.8,236.1-43.8z"/>
<path fill="#2E368F" stroke="#2E368F" stroke-width="0.75" stroke-miterlimit="10" d="M197-34.7l-4.2-4.2c2.7-3,2.6-7.7-0.3-10.6
	c-3-3-7.9-3-11,0c-3,3-3,7.9,0,11c1.5,1.5,3.5,2.3,5.5,2.3c1.8,0,3.7-0.7,5.1-2l4.2,4.2c0.1,0.1,0.2,0.1,0.3,0.1
	c0.1,0,0.2,0,0.3-0.1C197.2-34.2,197.2-34.5,197-34.7z M182.2-39.2c-2.7-2.7-2.7-7,0-9.7c1.3-1.3,3.1-2,4.8-2s3.5,0.7,4.8,2
	c2.7,2.7,2.7,7,0,9.7C189.2-36.5,184.8-36.5,182.2-39.2z"/>
<path fill="#2E368F" stroke="#2E368F" stroke-width="0.75" stroke-miterlimit="10" d="M273,85.2l-2.1-2.1c1.4-1.5,1.3-3.9-0.2-5.4
	c-1.5-1.5-4-1.5-5.5,0c-1.5,1.5-1.5,4,0,5.5c0.8,0.8,1.8,1.1,2.8,1.1c0.9,0,1.9-0.3,2.6-1l2.1,2.1c0,0,0.1,0.1,0.2,0.1
	s0.1,0,0.2-0.1C273.1,85.5,273.1,85.3,273,85.2z M265.5,83c-1.3-1.3-1.3-3.5,0-4.9c0.7-0.7,1.6-1,2.4-1s1.8,0.3,2.4,1
	c1.3,1.3,1.3,3.5,0,4.9C269,84.3,266.9,84.3,265.5,83z"/>
<path fill="#2E368F" stroke="#2E368F" stroke-width="0.75" stroke-miterlimit="10" d="M68.1-52c-5,0-9.1,4.1-9.1,9.1
	c0,5,4.1,9.1,9.1,9.1s9.1-4.1,9.1-9.1C77.3-47.9,73.2-52,68.1-52z M68.1-34.6c-4.6,0-8.3-3.7-8.3-8.3c0-4.6,3.7-8.3,8.3-8.3
	c4.6,0,8.3,3.7,8.3,8.3C76.5-38.3,72.7-34.6,68.1-34.6z"/>
<path fill="#2E368F" stroke="#2E368F" stroke-miterlimit="10" d="M276.6-50.8v4.6c0,0.1-0.1,0.2-0.2,0.2s-0.2-0.1-0.2-0.2v-4
	l-7.8,7.8c0,0-0.1,0.1-0.2,0.1c0,0-0.1,0-0.2-0.1c-0.1-0.1-0.1-0.2,0-0.3l7.8-7.8h-4c-0.1,0-0.2-0.1-0.2-0.2s0.1-0.2,0.2-0.2h4.6
	C276.5-51,276.6-50.9,276.6-50.8z"/>
<path fill="#2E368F" stroke="#2E368F" stroke-width="0.75" stroke-miterlimit="10" d="M275.9-42.6c-0.1,0-0.2,0.1-0.2,0.2v4.6
	c0,1.5-1.2,2.7-2.7,2.7h-9.8c-1.5,0-2.7-1.2-2.7-2.7v-7.8v-2c0-1.5,1.2-2.7,2.7-2.7h4.6c0.1,0,0.2-0.1,0.2-0.2s-0.1-0.2-0.2-0.2
	h-4.6c-1.8,0-3.2,1.4-3.2,3.2v2v7.8c0,1.8,1.4,3.2,3.2,3.2h9.8c1.8,0,3.2-1.4,3.2-3.2v-4.6C276.2-42.5,276.1-42.6,275.9-42.6z"/>
<path fill="#2E368F" stroke="#2E368F" stroke-miterlimit="10" d="M18.3,0.7V5c0,0.1-0.1,0.2-0.2,0.2c-0.1,0-0.2-0.1-0.2-0.2V1.3
	l-7.4,7.4c0,0-0.1,0.1-0.2,0.1s-0.1,0-0.2-0.1c-0.1-0.1-0.1-0.2,0-0.3l7.4-7.4h-3.8c-0.1,0-0.2-0.1-0.2-0.2s0.1-0.2,0.2-0.2H18
	C18.2,0.5,18.3,0.6,18.3,0.7z"/>
<path fill="#2E368F" stroke="#2E368F" stroke-width="0.75" stroke-miterlimit="10" d="M15.6,10.7c-0.1,0-0.2,0.1-0.2,0.2v4.4
	c0,1.4-1.2,2.6-2.6,2.6H3.4c-1.4,0-2.6-1.2-2.6-2.6V7.9V5.9c0-1.4,1.2-2.6,2.6-2.6h4.4C7.9,3.3,8,3.2,8,3.1S7.9,2.9,7.8,2.9H3.4
	c-1.7,0-3.1,1.4-3.1,3.1v1.9v7.5c0,1.7,1.4,3.1,3.1,3.1h9.4c1.7,0,3.1-1.4,3.1-3.1v-4.4C15.9,10.8,15.8,10.7,15.6,10.7z"/>
<path fill="#2E368F" stroke="#2E368F" stroke-width="0.5" stroke-miterlimit="10" d="M117.5-39.1v-7.9c0-0.2,0.1-1.8-0.5-2.5
	c-0.4-0.5-1.2-0.6-2-0.6h-0.4c-0.1,0-0.3,0-0.6,0v-0.7c0-0.2-0.2-0.4-0.4-0.4s-0.4,0.2-0.4,0.4v0.8c-2.5,0-8,0-10.5,0v-0.8
	c0-0.2-0.2-0.4-0.4-0.4s-0.2,0.2-0.2,0.4v0.8c-0.3,0-0.5,0-0.6,0h-0.3c-0.9,0-1.7,0-2,0.6c-0.6,0.6-0.5,2.2-0.5,2.4v11.6
	c0,0.2,0.2,0.4,0.4,0.4h14.5c0.1,0,0.2,0,0.3-0.1l0,0l3.6-3.7l0,0l0,0l0,0c0,0,0,0,0-0.1C117.5-39,117.5-39,117.5-39.1z M99.7-49
	c0.2-0.3,0.9-0.3,1.6-0.3h0.4c0.1,0,0.3,0,0.6,0v0.5c0,0.2,0.2,0.4,0.4,0.4s0.3-0.2,0.3-0.4v-0.5c2.5,0,8,0,10.5,0v0.5
	c0,0.2,0.2,0.4,0.4,0.4s0.4-0.2,0.4-0.4v-0.5c0.3,0,0.5,0,0.6,0h0.4c0.7,0,1.3,0,1.6,0.3c0.1,0.3,0.1,1.1,0.1,1.7H99.4
	C99.4-47.9,99.5-48.7,99.7-49z M99.4-46.6h17.4v7.2h-3.3c-0.2,0-0.4,0.2-0.4,0.4v3.4H99.4V-46.6z M116.4-38.7l-2.4,2.5v-2.5H116.4z"
	/>
<g>
	<rect x="103.1" y="-44.6" fill="#2E368F" width="1.9" height="1.4"/>
	<rect x="105.9" y="-44.6" fill="#2E368F" width="1.9" height="1.4"/>
	<rect x="108.6" y="-44.6" fill="#2E368F" width="1.9" height="1.4"/>
	<rect x="111.2" y="-44.6" fill="#2E368F" width="1.9" height="1.4"/>
	<rect x="103.1" y="-42.5" fill="#2E368F" width="1.9" height="1.4"/>
	<rect x="105.9" y="-42.5" fill="#2E368F" width="1.9" height="1.4"/>
	<rect x="108.6" y="-42.5" fill="#2E368F" width="1.9" height="1.4"/>
	<rect x="111.2" y="-42.5" fill="#2E368F" width="1.9" height="1.4"/>
	<rect x="103.1" y="-40.2" fill="#2E368F" width="1.9" height="1.4"/>
	<rect x="105.9" y="-40.2" fill="#2E368F" width="1.9" height="1.4"/>
	<rect x="108.6" y="-40.2" fill="#2E368F" width="1.9" height="1.4"/>
	<rect x="111.2" y="-40.2" fill="#2E368F" width="1.9" height="1.4"/>
</g>
<g>
	<g>
		<path fill="#EF3C24" d="M148.7-51.7c-0.1-0.2-0.3-0.3-0.5-0.3c-0.2,0-0.4,0.1-0.5,0.3l-9.2,16c-0.1,0.2-0.1,0.4,0,0.6
			c0.1,0.2,0.3,0.3,0.5,0.3h18.5l0,0c0.3,0,0.6-0.3,0.6-0.6c0-0.1,0-0.3-0.1-0.4L148.7-51.7z M140-36.1l8.1-14.1l8.1,14.1H140z"/>
		<path fill="#EF3C24" d="M147.5-45.8v4.9c0,0.3,0.3,0.6,0.6,0.6c0.3,0,0.6-0.3,0.6-0.6v-4.9c0-0.3-0.3-0.6-0.6-0.6
			C147.8-46.4,147.5-46.1,147.5-45.8z"/>
		<path fill="#EF3C24" d="M148.1-39.5c-0.3,0-0.6,0.3-0.6,0.6v0.4c0,0.3,0.3,0.6,0.6,0.6c0.3,0,0.6-0.3,0.6-0.6v-0.4
			C148.8-39.2,148.5-39.5,148.1-39.5z"/>
	</g>
</g>
<g>
	<g>
		<path fill="#F26722" d="M68.3-91.7C68.2-91.9,68-92,67.7-92c-0.2,0-0.4,0.1-0.5,0.3l-9.2,16c-0.1,0.2-0.1,0.4,0,0.6
			c0.1,0.2,0.3,0.3,0.5,0.3H77l0,0c0.3,0,0.6-0.3,0.6-0.6c0-0.1,0-0.3-0.1-0.4L68.3-91.7z M59.6-76l8.1-14.1L75.9-76H59.6z"/>
		<path fill="#F26722" d="M67.1-85.7v4.9c0,0.3,0.3,0.6,0.6,0.6c0.3,0,0.6-0.3,0.6-0.6v-4.9c0-0.3-0.3-0.6-0.6-0.6
			S67.1-86.1,67.1-85.7z"/>
		<path fill="#F26722" d="M67.7-79.4c-0.3,0-0.6,0.3-0.6,0.6v0.4c0,0.3,0.3,0.6,0.6,0.6c0.3,0,0.6-0.3,0.6-0.6v-0.4
			C68.4-79.1,68.1-79.4,67.7-79.4z"/>
	</g>
</g>
<polygon fill="#2E368F" points="63.3,-43.2 65.7,-43.2 65.7,-39.6 70.5,-39.6 70.5,-43.2 72.9,-43.2 68.1,-48 "/>
<path fill="#2E368F" stroke="#2E368F" stroke-width="0.75" stroke-miterlimit="10" d="M348,68c-5.1,0-9.2,4.1-9.2,9.2
	c0,5.1,4.1,9.2,9.2,9.2s9.2-4.1,9.2-9.2C357.2,72.1,353,68,348,68z M348,85.6c-4.6,0-8.4-3.8-8.4-8.4c0-4.6,3.8-8.4,8.4-8.4
	s8.4,3.8,8.4,8.4C356.4,81.8,352.6,85.6,348,85.6z"/>
<path fill="#2E368F" stroke="#2E368F" stroke-width="0.75" stroke-miterlimit="10" d="M428.1,68c-5.1,0-9.2,4.1-9.2,9.2
	c0,5.1,4.1,9.2,9.2,9.2c5.1,0,9.2-4.1,9.2-9.2C437.3,72.1,433.2,68,428.1,68z M428.1,85.6c-4.6,0-8.4-3.8-8.4-8.4
	c0-4.6,3.8-8.4,8.4-8.4c4.6,0,8.4,3.8,8.4,8.4C436.5,81.8,432.8,85.6,428.1,85.6z"/>
<path fill="#2E368F" stroke="#2E368F" stroke-width="0.75" stroke-miterlimit="10" d="M68.9,41.2l1.9-1.9c0,0,0-0.1,0-0.2
	c0,0-0.1,0-0.2,0L68.8,41l-1.9-1.9c0,0-0.1,0-0.2,0c0,0,0,0.1,0,0.2l1.9,1.9l-1.9,1.9c0,0,0,0.1,0,0.2c0,0,0.1,0,0.1,0s0.1,0,0.1,0
	l1.9-1.9l1.9,1.9c0,0,0.1,0,0.1,0s0.1,0,0.1,0c0,0,0-0.1,0-0.2L68.9,41.2z"/>
<path fill="#2E368F" stroke="#2E368F" stroke-width="0.75" stroke-miterlimit="10" d="M68.8,36.4c-2.7,0-4.8,2.2-4.8,4.8
	c0,2.7,2.2,4.8,4.8,4.8c2.7,0,4.8-2.2,4.8-4.8C73.6,38.5,71.4,36.4,68.8,36.4z M68.8,45.6c-2.4,0-4.4-2-4.4-4.4c0-2.4,2-4.4,4.4-4.4
	c2.4,0,4.4,2,4.4,4.4C73.2,43.6,71.2,45.6,68.8,45.6z"/>
<rect x="107.7" y="-11.5" transform="matrix(-0.5425 -0.8401 0.8401 -0.5425 169.2176 86.3724)" fill="#2E368F" stroke="#2E368F" stroke-width="0.75" stroke-miterlimit="10" width="0.8" height="17.2"/>
<path fill="#2E368F" stroke="#2E368F" stroke-width="0.75" stroke-miterlimit="10" d="M108-11.8c-4.8,0-8.8,3.9-8.8,8.8
	c0,4.8,3.9,8.8,8.8,8.8s8.8-3.9,8.8-8.8C116.8-7.9,112.9-11.8,108-11.8z M108,4.9c-4.4,0-8-3.6-8-8c0-4.4,3.6-8,8-8c4.4,0,8,3.6,8,8
	C116,1.3,112.5,4.9,108,4.9z"/>
<g>
	<path fill="#2E368F" stroke="#2E368F" stroke-width="0.75" stroke-miterlimit="10" d="M348.3,42.7c0.3,0,0.5-0.2,0.5-0.5v-7.1
		c0-0.3-0.2-0.5-0.5-0.5s-0.5,0.2-0.5,0.5v7.1C347.8,42.5,348,42.7,348.3,42.7z"/>
	<path fill="#2E368F" stroke="#2E368F" stroke-width="0.75" stroke-miterlimit="10" d="M348.2,33.3c0.3,0,0.5-0.2,0.5-0.5v-1
		c0-0.3-0.2-0.5-0.5-0.5s-0.5,0.2-0.5,0.5v1C347.7,33.1,347.9,33.3,348.2,33.3z"/>
</g>
<path fill="#2E368F" stroke="#2E368F" stroke-width="0.75" stroke-miterlimit="10" d="M348.3,28.1c-4.9,0-8.9,4-8.9,8.9
	c0,4.9,4,8.9,8.9,8.9c4.9,0,8.9-4,8.9-8.9C357.2,32.1,353.2,28.1,348.3,28.1z M348.3,45.1c-4.5,0-8.1-3.6-8.1-8.1
	c0-4.5,3.6-8.1,8.1-8.1c4.5,0,8.1,3.6,8.1,8.1C356.4,41.5,352.7,45.1,348.3,45.1z"/>
<path fill="#2E368F" stroke="#2E368F" stroke-width="0.75" stroke-miterlimit="10" d="M228.3,28.1c-5.2,0-9.4,4.2-9.4,9.4
	c0,5.2,4.2,9.4,9.4,9.4c5.2,0,9.4-4.2,9.4-9.4C237.6,32.3,233.4,28.1,228.3,28.1z M228.3,46c-4.7,0-8.5-3.8-8.5-8.5
	c0-4.7,3.8-8.5,8.5-8.5c4.7,0,8.5,3.8,8.5,8.5C236.8,42.1,233,46,228.3,46z"/>
<polygon fill="#2E368F" points="233.1,37 230.7,37 230.7,33.3 225.8,33.3 225.8,37 223.3,37 228.2,41.9 "/>
<path fill="#2E368F" stroke="#2E368F" stroke-width="0.75" stroke-miterlimit="10" d="M68.1-11.6c-4.9,0-8.8,4-8.8,8.8
	c0,4.9,4,8.8,8.8,8.8s8.8-4,8.8-8.8C76.9-7.7,72.9-11.6,68.1-11.6z M68.1,5.2c-4.4,0-8-3.6-8-8c0-4.4,3.6-8,8-8s8,3.6,8,8
	C76.1,1.6,72.5,5.2,68.1,5.2z"/>
<polygon fill="#2E368F" points="72.7,-3.2 70.4,-3.2 70.4,-6.7 65.7,-6.7 65.7,-3.2 63.4,-3.2 68,1.4 "/>
<path fill="#2E368F" stroke="#2E368F" stroke-width="0.75" stroke-miterlimit="10" d="M388.7-52c-5,0-9,4.1-9,9c0,5,4.1,9,9,9
	c5,0,9-4.1,9-9C397.7-47.9,393.7-52,388.7-52z M388.7-34.7c-4.5,0-8.2-3.7-8.2-8.2c0-4.5,3.7-8.2,8.2-8.2c4.5,0,8.2,3.7,8.2,8.2
	C396.9-38.4,393.2-34.7,388.7-34.7z"/>
<path fill="#2E368F" stroke="#2E368F" stroke-width="0.75" stroke-miterlimit="10" d="M193.1-6.5c-0.1-0.1-0.3-0.1-0.4,0l-6.8,6.8
	l-2.2-2.2c-0.1-0.1-0.3-0.1-0.4,0c-0.1,0.1-0.1,0.3,0,0.4l2.4,2.4c0.1,0.1,0.1,0.1,0.2,0.1s0.1,0,0.2-0.1l7-7
	C193.2-6.2,193.2-6.4,193.1-6.5z"/>
<path fill="#2E368F" stroke="#2E368F" stroke-width="0.75" stroke-miterlimit="10" d="M111.2,39c-0.1-0.1-0.2-0.1-0.2,0l-3.6,3.6
	l-1.2-1.2c-0.1-0.1-0.2-0.1-0.2,0c-0.1,0.1-0.1,0.2,0,0.2l1.3,1.3c0,0,0.1,0,0.1,0c0,0,0.1,0,0.1,0l3.8-3.8
	C111.3,39.1,111.3,39,111.2,39z"/>
<path fill="#2E368F" stroke="#2E368F" stroke-width="0.45" stroke-miterlimit="10" d="M188.2-12.3c-5.2,0-9.5,4.2-9.5,9.5
	c0,5.2,4.2,9.5,9.5,9.5c5.2,0,9.5-4.2,9.5-9.5C197.7-8,193.4-12.3,188.2-12.3z M188.2,5.8c-4.8,0-8.6-3.9-8.6-8.6
	c0-4.8,3.9-8.6,8.6-8.6s8.6,3.9,8.6,8.6C196.8,2,193,5.8,188.2,5.8z"/>
<g>
	<path fill="#2E368F" stroke="#2E368F" stroke-width="0.75" stroke-miterlimit="10" d="M391.7,34c0.1-0.1,0.1-0.3,0-0.4
		c-0.1-0.1-0.3-0.1-0.4,0l-4.4,4.4l0.4,0.4L391.7,34z"/>
	<path fill="#2E368F" stroke="#2E368F" stroke-width="0.75" stroke-miterlimit="10" d="M384.5,40.4l-2.1-2.1c-0.1-0.1-0.3-0.1-0.4,0
		c-0.1,0.1-0.1,0.3,0,0.4l2.3,2.3c0.1,0.1,0.1,0.1,0.2,0.1c0.1,0,0.1,0,0.2-0.1l0.2-0.2L384.5,40.4L384.5,40.4z"/>
	<path fill="#2E368F" stroke="#2E368F" stroke-width="0.75" stroke-miterlimit="10" d="M385,38c-0.1-0.1-0.3-0.1-0.4,0
		c-0.1,0.1-0.1,0.3,0,0.4l0.9,0.9l0.4-0.4L385,38z"/>
	<path fill="#2E368F" stroke="#2E368F" stroke-width="0.75" stroke-miterlimit="10" d="M394.4,33.4c-0.1-0.1-0.3-0.1-0.4,0l-6.8,6.8
		l-0.8-0.8l-0.4,0.4l1,1c0.1,0.1,0.1,0.1,0.2,0.1c0.1,0,0.1,0,0.2-0.1l7-7C394.5,33.7,394.5,33.5,394.4,33.4z"/>
	
		<rect x="385.7" y="39" transform="matrix(0.7074 -0.7068 0.7068 0.7074 85.1466 284.3278)" fill="#2E368F" stroke="#2E368F" stroke-width="0.75" stroke-miterlimit="10" width="0.6" height="0.6"/>
</g>
<path fill="#2E368F" stroke="#2E368F" stroke-width="0.75" stroke-miterlimit="10" d="M388.2,27.8c-5.2,0-9.4,4.2-9.4,9.4
	c0,5.2,4.2,9.4,9.4,9.4c5.2,0,9.4-4.2,9.4-9.4C397.6,32,393.4,27.8,388.2,27.8z M388.2,45.8c-4.7,0-8.6-3.8-8.6-8.6
	c0-4.7,3.8-8.6,8.6-8.6c4.7,0,8.6,3.8,8.6,8.6C396.7,41.9,392.9,45.8,388.2,45.8z"/>
<circle fill="#2E368F" cx="268.3" cy="37.4" r="5.2"/>
<path fill="#2E368F" stroke="#2E368F" stroke-width="0.75" stroke-miterlimit="10" d="M268.3,28.4c-4.9,0-9,4-9,9c0,4.9,4,9,9,9
	s9-4,9-9C277.3,32.4,273.3,28.4,268.3,28.4z M268.3,45.5c-4.5,0-8.2-3.7-8.2-8.2c0-4.5,3.7-8.2,8.2-8.2s8.2,3.7,8.2,8.2
	C276.5,41.9,272.8,45.5,268.3,45.5z"/>
<circle fill="#2E368F" cx="348" cy="-43" r="5.2"/>
<path fill="#2E368F" stroke="#2E368F" stroke-width="0.75" stroke-miterlimit="10" d="M348-52.1c-5,0-9.1,4.1-9.1,9.1
	c0,5,4.1,9.1,9.1,9.1S357-38,357-43C357-48,353-52.1,348-52.1z M348-34.8c-4.6,0-8.3-3.7-8.3-8.3c0-4.6,3.7-8.3,8.3-8.3
	s8.3,3.7,8.3,8.3C356.3-38.5,352.5-34.8,348-34.8z"/>
<g>
	<path fill="#2E368F" d="M352.8-8.2v3.5h1v-3.9c0-0.2-0.1-0.3-0.2-0.4l-3.3-2.9c-0.1-0.1-0.3-0.1-0.4-0.1h-9.4
		c-0.3,0-0.6,0.3-0.6,0.6V5.9c0,0.3,0.3,0.6,0.6,0.6h12.7c0.3,0,0.6-0.3,0.6-0.6V1.3h-1v4.2h-11.9v-16.7h8.8v2.9H352.8z"/>
	<g>
		<path fill="#2E368F" d="M348.6-2.5c-0.1,0-0.2,0-0.4,0h-0.2v0.7h0.3c0.2,0,0.3,0,0.4,0c0.1,0,0.1-0.1,0.2-0.1
			c0-0.1,0.1-0.1,0.1-0.2c0-0.1,0-0.2-0.1-0.2C348.8-2.4,348.7-2.4,348.6-2.5z"/>
		<path fill="#2E368F" d="M351.2-2.3c-0.1-0.1-0.1-0.1-0.2-0.1c-0.1,0-0.2,0-0.4,0h-0.2v1.6h0.4c0.1,0,0.2,0,0.3,0
			c0.1,0,0.1-0.1,0.2-0.1c0.1,0,0.1-0.1,0.1-0.2c0-0.1,0-0.3,0-0.4s0-0.3,0-0.4C351.3-2.2,351.2-2.3,351.2-2.3z"/>
		<path fill="#2E368F" d="M354.6-4.1h-7.9c-0.4,0-0.7,0.3-0.7,0.7V0c0,0.4,0.3,0.7,0.7,0.7h7.9c0.4,0,0.7-0.3,0.7-0.7v-3.4
			C355.3-3.8,355-4.1,354.6-4.1z M349.3-1.8c-0.1,0.1-0.1,0.2-0.2,0.2c-0.1,0.1-0.2,0.1-0.3,0.1c-0.1,0-0.3,0-0.5,0h-0.3v0.9h-0.5
			v-2.4h0.8c0.3,0,0.5,0,0.6,0c0.1,0,0.3,0.1,0.3,0.2c0.1,0.1,0.1,0.3,0.1,0.5C349.4-2,349.4-1.9,349.3-1.8z M351.8-1.1
			c-0.1,0.2-0.1,0.3-0.3,0.4c-0.1,0.1-0.2,0.1-0.3,0.2c-0.1,0-0.3,0.1-0.4,0.1h-0.9v-2.4h0.9c0.2,0,0.4,0,0.5,0
			c0.1,0,0.3,0.1,0.4,0.2c0.1,0.1,0.2,0.2,0.2,0.4c0.1,0.2,0.1,0.3,0.1,0.6C351.8-1.5,351.8-1.3,351.8-1.1z M353.8-2.5h-1.2v0.6h1
			v0.4h-1v1h-0.5v-2.4h1.7V-2.5z"/>
	</g>
</g>
<path fill="#2E368F" stroke="#2E368F" stroke-width="0.5" stroke-miterlimit="10" d="M397.1-7.7c-0.1-0.1-0.4-0.1-0.5,0l-9.1,9.1
	l-2.9-2.9c-0.1-0.1-0.4-0.1-0.5,0c-0.1,0.1-0.1,0.4,0,0.5l3.1,3.1c0.1,0.1,0.2,0.1,0.3,0.1c0.1,0,0.2,0,0.3-0.1l9.4-9.4
	C397.3-7.3,397.3-7.5,397.1-7.7z"/>
<path fill="#2E368F" d="M391.4-8.4v3.5h1v-3.8c0-0.2-0.1-0.3-0.2-0.4L389-12c-0.1-0.1-0.3-0.1-0.4-0.1h-9.3c-0.3,0-0.6,0.3-0.6,0.6
	V5.6c0,0.3,0.3,0.6,0.6,0.6h12.5c0.3,0,0.6-0.3,0.6-0.6V1.1h-1v4.2h-11.8v-16.5h8.7v2.9H391.4z"/>
<rect x="223" y="-4" fill="#2E368F" width="9.1" height="0.8"/>
<rect x="223" y="-1.7" fill="#2E368F" width="9.1" height="0.8"/>
<rect x="223" y="-6.2" fill="#2E368F" width="5.3" height="0.8"/>
<rect x="223" y="0.6" fill="#2E368F" width="9.1" height="0.8"/>
<path fill="#2E368F" d="M233.6-8.6V1.7h1V-9c0-0.2-0.1-0.3-0.2-0.5l-3.4-3.1c-0.1-0.1-0.3-0.2-0.4-0.2h-9.8c-0.4,0-0.6,0.3-0.6,0.6
	V6.2c0,0.4,0.3,0.6,0.6,0.6H234c0.4,0,0.6-0.3,0.6-0.6V1.4h-1v4.4h-12.5v-17.5h9.2v3H233.6z"/>
<g>
	<path fill="#2E368F" d="M140.7,28v16.3h1.1V29.2h6.9v5.1h5.1v10h1.1V33.4l-5.4-5.4H140.7z M149.8,33.1V30l3.1,3.1H149.8z"/>
	<polygon fill="#2E368F" points="145.6,43.5 145.6,46.2 149.9,46.2 149.9,43.5 152.6,43.5 147.8,39.6 142.9,43.5 	"/>
</g>
<g>
	<path fill="#2E368F" d="M420-12.9V5h1.3v-16.6h7.5V-6h5.6V5h1.3V-6.9l-6-6H420z M430-7.3v-3.4l3.4,3.4H430z"/>
	<polygon fill="#2E368F" points="430.2,2.8 430.2,-0.1 425.5,-0.1 425.5,2.8 422.5,2.8 427.8,7.1 433.2,2.8 	"/>
</g>
<path fill="#2E368F" d="M455.9-12.9V5h1.3v-16.6h7.5V-6h5.6V5h1.3V-6.9l-6-6H455.9z M466-7.3v-3.4l3.4,3.4H466z"/>
<path fill="#2E368F" d="M61.1,27.9v17.5h1.2V29.1h7.4v5.5h5.5v10.8h1.2V33.7l-5.8-5.8H61.1z M71,33.4V30l3.4,3.4H71z"/>
<path fill="#2E368F" stroke="#2E368F" stroke-width="0.75" stroke-miterlimit="10" d="M108.7,36.3c-2.6,0-4.6,2.1-4.6,4.6
	c0,2.6,2.1,4.6,4.6,4.6s4.6-2.1,4.6-4.6C113.3,38.4,111.3,36.3,108.7,36.3z M108.7,45.1c-2.3,0-4.2-1.9-4.2-4.2
	c0-2.3,1.9-4.2,4.2-4.2s4.2,1.9,4.2,4.2C112.9,43.2,111,45.1,108.7,45.1z"/>
<path fill="#2E368F" d="M101.3,27.9V45h1.2V29.1h7.2v5.3h5.3V45h1.2V33.6l-5.7-5.7H101.3z M110.9,33.2v-3.3l3.3,3.3H110.9z"/>
<path fill="#2E368F" stroke="#2E368F" stroke-width="0.75" stroke-miterlimit="10" d="M39.3,35.4c-2.6,0-4.6,2.1-4.6,4.6
	c0,2.6,2.1,4.6,4.6,4.6c2.6,0,4.6-2.1,4.6-4.6C43.9,37.5,41.8,35.4,39.3,35.4z M39.3,44.3c-2.3,0-4.2-1.9-4.2-4.2
	c0-2.3,1.9-4.2,4.2-4.2c2.3,0,4.2,1.9,4.2,4.2C43.5,42.4,41.6,44.3,39.3,44.3z"/>
<path fill="#2E368F" d="M31.9,27v17.1h1.2V28.2h7.2v5.3h5.3v10.6h1.2V32.7L41.1,27H31.9z M41.5,32.3v-3.3l3.3,3.3H41.5z"/>
<g>
	<path fill="#2E368F" d="M220.1,67.7V85h1.2V68.9h7.3v5.4h5.4V85h1.2V73.4l-5.8-5.8H220.1z M229.8,73.1v-3.3l3.3,3.3H229.8z"/>
</g>
<path fill="#2E368F" d="M260.8,67.5v17.6h1.2V68.7h7.4v5.5h5.5v10.9h1.2V73.3l-5.9-5.9H260.8z M270.7,73v-3.4L274,73H270.7z"/>
<path fill="#2E368F" stroke="#2E368F" stroke-width="0.75" stroke-miterlimit="10" d="M43.4,85.2l-2.1-2.1c1.4-1.5,1.3-3.9-0.2-5.4
	c-1.5-1.5-4-1.5-5.5,0c-1.5,1.5-1.5,4,0,5.5c0.8,0.8,1.8,1.1,2.8,1.1c0.9,0,1.9-0.3,2.6-1l2.1,2.1c0,0,0.1,0.1,0.2,0.1
	s0.1,0,0.2-0.1C43.5,85.5,43.5,85.3,43.4,85.2z M35.9,83c-1.3-1.3-1.3-3.5,0-4.9c0.7-0.7,1.6-1,2.4-1s1.8,0.3,2.4,1
	c1.3,1.3,1.3,3.5,0,4.9C39.4,84.3,37.2,84.3,35.9,83z"/>
<path fill="#2E368F" d="M31.1,67.5v17.6h1.2V68.7h7.4v5.5h5.5v10.9h1.2V73.3l-5.9-5.9H31.1z M41,73v-3.4l3.4,3.4H41z"/>
<path fill="#2E368F" stroke="#2E368F" stroke-width="0.75" stroke-miterlimit="10" d="M-13.2,85.2l-2.1-2.1c1.4-1.5,1.3-3.9-0.2-5.4
	c-1.5-1.5-4-1.5-5.5,0c-1.5,1.5-1.5,4,0,5.5c0.8,0.8,1.8,1.1,2.8,1.1c0.9,0,1.9-0.3,2.6-1l2.1,2.1c0,0,0.1,0.1,0.2,0.1
	c0.1,0,0.1,0,0.2-0.1C-13.2,85.5-13.2,85.3-13.2,85.2z M-20.7,83c-1.3-1.3-1.3-3.5,0-4.9c0.7-0.7,1.6-1,2.4-1s1.8,0.3,2.4,1
	c1.3,1.3,1.3,3.5,0,4.9C-17.2,84.3-19.4,84.3-20.7,83z"/>
<path fill="#2E368F" d="M-25.5,67.5v17.6h1.2V68.7h7.4v5.5h5.5v10.9h1.2V73.3l-5.9-5.9H-25.5z M-15.6,73v-3.4l3.4,3.4H-15.6z"/>
<path fill="#2E368F" d="M300.3,67.6v17.6h1.2V68.8h7.4v5.5h5.5v10.8h1.2V73.5l-5.8-5.8H300.3z M310.1,73.1v-3.4l3.4,3.4H310.1z"/>
<path fill="#2E368F" stroke="#2E368F" stroke-width="0.75" stroke-miterlimit="10" d="M308,79.1c-2.8,0-4.9,3.3-4.9,3.3
	s2.2,3.2,4.9,3.2c2.8,0,4.9-3.3,4.9-3.3S310.7,79.1,308,79.1z M308,85.1c-2.4,0-4.2-2.8-4.2-2.8s1.9-2.8,4.2-2.8s4.2,2.8,4.2,2.8
	S310.3,85.1,308,85.1z"/>
<path fill="none" stroke="#2E368F" stroke-width="0.5" stroke-miterlimit="10" d="M308,80.9c-0.8,0-1.6,0.6-1.6,1.6
	c0,0.8,0.6,1.6,1.6,1.6c0.8,0,1.6-0.6,1.6-1.6C309.5,81.6,308.8,80.9,308,80.9z M308,83.5c-0.6,0-1.1-0.5-1.1-1.1s0.5-1.2,1.1-1.2
	s1.1,0.5,1.1,1.1C309,82.9,308.6,83.5,308,83.5z"/>
<g>
	<g>
		<g>
			<g>
				<polygon fill="#2E368F" points="66.6,112.7 62.5,108.6 58.5,112.7 61.1,112.6 61.1,127.1 64,127.1 64,112.6 				"/>
				<rect x="67" y="108.6" fill="#2E368F" width="8.7" height="2.8"/>
				<rect x="66.1" y="113.7" fill="#2E368F" width="9.5" height="2.8"/>
				<rect x="66.1" y="119.1" fill="#2E368F" width="9.5" height="2.8"/>
				<rect x="66.1" y="124.3" fill="#2E368F" width="9.6" height="2.8"/>
			</g>
		</g>
	</g>
</g>
<g>
	<g>
		<g>
			<g>
				<polygon fill="#2E368F" points="99.1,122.1 102.9,125.8 106.6,122.1 104.2,122.1 104.2,108.8 101.5,108.8 101.5,122.1 				"/>
				<rect x="106.1" y="123.2" fill="#2E368F" width="8.9" height="2.6"/>
				<rect x="106.1" y="118.5" fill="#2E368F" width="9.7" height="2.6"/>
				<rect x="106.1" y="113.6" fill="#2E368F" width="9.7" height="2.6"/>
				<rect x="106.1" y="108.8" fill="#2E368F" width="9.8" height="2.6"/>
			</g>
		</g>
	</g>
</g>
<path fill="#2E368F" d="M379.6,76.9h12.7l-2.7-2.7c-0.2-0.2-0.2-0.6,0-0.8s0.6-0.2,0.8,0l3.6,3.6c0.2,0.2,0.2,0.6,0,0.8l-3.6,3.6
	c-0.1,0.1-0.2,0.2-0.4,0.2s-0.3-0.1-0.4-0.2c-0.2-0.2-0.2-0.6,0-0.8l2.7-2.7h-12.7c-0.3,0-0.5-0.2-0.5-0.5
	C379.1,77.2,379.3,76.9,379.6,76.9z M394,68.1h-11c-2.1,0-3.9,1.7-3.9,3.9v2.3c0,0.3,0.2,0.5,0.5,0.5s0.5-0.2,0.5-0.5v-2.3
	c0-1.5,1.3-2.8,2.8-2.8h11c1.5,0,2.8,1.3,2.8,2.8v11c0,1.5-1.3,2.8-2.8,2.8h-11c-1.5,0-2.8-1.3-2.8-2.8v-2.3c0-0.3-0.2-0.5-0.5-0.5
	s-0.5,0.2-0.5,0.5V83c0,2.1,1.7,3.9,3.9,3.9h11c2.1,0,3.9-1.7,3.9-3.9v-11C397.9,69.8,396.2,68.1,394,68.1z"/>
<path fill="#2E368F" d="M388.5,77.5"/>
<path fill="#2E368F" d="M388.5,77.5"/>
<polyline fill="none" stroke="#2E368F" stroke-width="0.95" stroke-miterlimit="10" points="182.9,117.3 184.4,119.2 186.9,116 "/>
<path fill="none" stroke="#2E368F" stroke-width="0.95" stroke-miterlimit="10" d="M193.1,121.5h-10.2c-2.1,0-3.8-1.7-3.8-3.8l0,0
	c0-2.1,1.7-3.8,3.8-3.8H193c2.1,0,3.8,1.7,3.8,3.8l0,0C196.9,119.8,195.2,121.5,193.1,121.5z"/>
<circle fill="none" stroke="#2E368F" stroke-width="0.95" stroke-miterlimit="10" cx="192.9" cy="117.8" r="2.5"/>
<path fill="none" stroke="#2E368F" stroke-width="0.95" stroke-miterlimit="10" d="M233.3,121.5h-10.2c-2.1,0-3.8-1.7-3.8-3.8l0,0
	c0-2.1,1.7-3.8,3.8-3.8h10.2c2.1,0,3.8,1.7,3.8,3.8l0,0C237.1,119.8,235.4,121.5,233.3,121.5z"/>
<circle fill="none" stroke="#2E368F" stroke-width="0.95" stroke-miterlimit="10" cx="223.9" cy="117.8" r="2.5"/>
<g>
	<path fill="#2E368F" d="M274.5,115.7c-0.3,0-0.5,0-0.8-0.1c-0.2,0-0.3-0.2-0.2-0.4c0-0.2,0.2-0.3,0.4-0.2c1.3,0.3,2.6-0.3,3.2-1.5
		c0.3-0.7,0.4-1.5,0.2-2.2c-0.2-0.7-0.8-1.3-1.4-1.7c-0.7-0.3-1.5-0.4-2.2-0.2c-0.7,0.2-1.3,0.8-1.7,1.4c-0.1,0.1-0.3,0.2-0.4,0.1
		c-0.1-0.1-0.2-0.3-0.1-0.4c0.4-0.8,1.1-1.4,2-1.7c0.9-0.3,1.8-0.2,2.7,0.2c0.8,0.4,1.4,1.1,1.7,2c0.3,0.9,0.2,1.8-0.2,2.7
		C277,115,275.8,115.7,274.5,115.7z M274.5,110.6v3.1 M272.9,112.2h3.1 M274.8,113.8v-1.3h1.2c0.2,0,0.3-0.1,0.3-0.3
		c0-0.2-0.1-0.3-0.3-0.3h-1.2v-1.3c0-0.2-0.1-0.3-0.3-0.3s-0.3,0.1-0.3,0.3v1.3h-1.3c-0.2,0-0.3,0.1-0.3,0.3c0,0.2,0.1,0.3,0.3,0.3
		h1.3v1.3c0,0.2,0.1,0.3,0.3,0.3S274.8,113.9,274.8,113.8z"/>
	<g>
		<path fill="#2E368F" d="M266.4,125.3c-2.5,0-4.8-1.6-6.1-4.2c-0.4,0-0.9-0.3-1.2-0.9c-0.5-0.9-0.8-2.4-0.4-3.1
			c0.2-0.3,0.4-0.4,0.7-0.4c0,0,0,0,0,0c0.1-2,0.8-3.9,2-5.3c1.3-1.5,3-2.4,4.9-2.4c1.8,0,3.6,0.8,4.9,2.4c1.2,1.4,1.9,3.3,2,5.3
			c0,0,0,0,0,0c0.2,0,0.9,0.1,0.9,1.4c0,1.3-0.7,3-1.7,3.1C271.2,123.7,268.9,125.3,266.4,125.3z M260.5,120.5
			c0.1,0,0.2,0.1,0.3,0.2c1.1,2.5,3.2,4,5.6,4c2.3,0,4.5-1.5,5.6-4c0.1-0.1,0.2-0.2,0.3-0.2c0,0,0,0,0.1,0l0,0
			c0.6,0,1.2-1.4,1.2-2.5c0-0.5-0.1-0.8-0.3-0.8c0,0-0.1,0-0.2,0c-0.1,0-0.2,0-0.3,0c-0.1-0.1-0.1-0.1-0.1-0.2
			c0-4.1-2.9-7.5-6.3-7.5c-3.4,0-6.3,3.3-6.3,7.5c0,0.1-0.1,0.2-0.1,0.2c-0.1,0.1-0.2,0.1-0.3,0c-0.1,0-0.1,0-0.2,0
			c0,0-0.1,0-0.1,0.1c-0.3,0.4-0.1,1.7,0.4,2.5c0.1,0.2,0.4,0.6,0.7,0.6C260.4,120.5,260.4,120.5,260.5,120.5
			C260.5,120.5,260.5,120.5,260.5,120.5z"/>
	</g>
	<g>
		<path fill="#2E368F" d="M272.9,117.1c-1.8-0.4-3.6-2.6-4.6-4.4c-0.9,0.8-1.8,1.6-2.8,2.2c-2.5,1.7-5.7,2.2-5.7,2.2
			s0.2-2.5,1.8-4.6c0.7-0.9,1.6-1.8,2.7-2.3c1.6-0.8,3.8-0.6,5.3,0.4c0.4,0.3,0.8,0.6,1.1,1c0.6,0.8,1.1,1.8,1.4,2.7
			c0.3,0.8,0.5,1.6,0.7,2.4C272.9,116.7,272.9,116.9,272.9,117.1z"/>
		<path fill="#2E368F" d="M272.9,117.3c-1.7-0.4-3.6-2.5-4.7-4.3c-0.7,0.7-1.6,1.3-2.6,2c-2.5,1.7-5.7,2.3-5.8,2.3
			c-0.1,0-0.3-0.2-0.2-0.3c0-0.1,0,0.1,0,0c0-0.1,0.2-2.5,1.8-4.8c0.8-1,1.8-1.9,2.8-2.4c0.7-0.3,1.5-0.5,2.4-0.5
			c1.1,0,2.2,0.3,3.1,0.9c0.4,0.2,0.8,0.6,1.2,1.1c0.6,0.8,1.1,1.8,1.5,2.8c0.3,0.7,0.5,1.5,0.7,2.5c0,0.2,0.1,0.3,0.1,0.5
			c0,0,0,0,0,0.1C273.2,117.2,273.1,117.3,272.9,117.3"/>
	</g>
</g>
<path fill="#2E368F" d="M194.4-83.8c-0.3,0-0.5,0-0.8-0.1c-0.2,0-0.3-0.2-0.2-0.4c0-0.2,0.2-0.3,0.4-0.2c1.3,0.3,2.6-0.3,3.2-1.5
	c0.3-0.7,0.4-1.5,0.2-2.2c-0.2-0.7-0.8-1.3-1.5-1.7c-0.7-0.3-1.5-0.4-2.2-0.2c-0.7,0.2-1.3,0.8-1.7,1.5c-0.1,0.1-0.3,0.2-0.4,0.1
	c-0.1-0.1-0.2-0.3-0.1-0.4c0.4-0.8,1.1-1.5,2-1.8c0.9-0.3,1.8-0.2,2.7,0.2c0.8,0.4,1.5,1.1,1.8,2c0.3,0.9,0.2,1.8-0.2,2.7
	C197-84.5,195.7-83.8,194.4-83.8z"/>
<g>
	<path fill="#2E368F" d="M186.2-74.1c-2.6,0-4.9-1.6-6.1-4.2c-0.5,0-0.9-0.3-1.2-0.9c-0.5-0.9-0.8-2.4-0.4-3.2
		c0.2-0.3,0.4-0.4,0.7-0.4c0,0,0,0,0,0c0.1-2,0.8-3.9,2.1-5.4c1.3-1.5,3.1-2.4,4.9-2.4c1.9,0,3.6,0.9,4.9,2.4c1.2,1.4,2,3.3,2.1,5.4
		c0,0,0,0,0,0c0.2,0,0.9,0.1,0.9,1.4c0,1.3-0.7,3-1.8,3.1C191.1-75.7,188.8-74.1,186.2-74.1z M180.3-78.9c0.1,0,0.2,0.1,0.3,0.2
		c1.1,2.5,3.3,4.1,5.7,4.1c2.4,0,4.5-1.6,5.7-4.1c0.1-0.1,0.2-0.2,0.3-0.2c0,0,0,0,0.1,0l0,0c0.6,0,1.2-1.4,1.2-2.5
		c0-0.5-0.1-0.8-0.3-0.8c0,0-0.1,0-0.2,0c-0.1,0-0.2,0-0.3,0c-0.1-0.1-0.1-0.1-0.1-0.3c0-4.2-2.9-7.5-6.4-7.5
		c-3.5,0-6.3,3.4-6.4,7.5c0,0.1-0.1,0.2-0.1,0.3c-0.1,0.1-0.2,0.1-0.3,0c-0.1,0-0.1,0-0.2,0c0,0-0.1,0-0.2,0.1
		c-0.3,0.4-0.1,1.7,0.4,2.6c0.1,0.2,0.4,0.6,0.7,0.6C180.2-78.9,180.2-78.9,180.3-78.9C180.2-78.9,180.3-78.9,180.3-78.9z"/>
</g>
<g>
	<path fill="#2E368F" d="M192.9-82.4c-1.8-0.4-3.7-2.6-4.7-4.5c-0.9,0.8-1.9,1.6-2.9,2.3c-2.5,1.7-5.7,2.2-5.7,2.2s0.2-2.5,1.8-4.7
		c0.7-0.9,1.7-1.8,2.7-2.4c1.6-0.8,3.8-0.6,5.3,0.4c0.4,0.3,0.9,0.6,1.2,1c0.6,0.8,1.1,1.8,1.4,2.7c0.3,0.8,0.5,1.6,0.7,2.5
		C192.8-82.8,192.8-82.6,192.9-82.4z"/>
	<path fill="#2E368F" d="M192.9-82.2c-1.8-0.4-3.7-2.5-4.7-4.4c-0.8,0.7-1.6,1.4-2.7,2.1c-2.5,1.7-5.8,2.3-5.9,2.3
		c-0.1,0-0.3-0.2-0.3-0.3c0-0.1,0,0.1,0,0c0-0.1,0.2-2.6,1.9-4.8c0.8-1.1,1.8-1.9,2.8-2.4c0.7-0.3,1.6-0.5,2.4-0.5
		c1.2,0,2.3,0.3,3.1,0.9c0.4,0.2,0.9,0.6,1.2,1.1c0.7,0.8,1.1,1.8,1.5,2.8c0.3,0.7,0.5,1.5,0.8,2.5c0,0.2,0.1,0.3,0.1,0.5
		c0,0,0,0.1,0,0.1C193.1-82.3,193-82.2,192.9-82.2"/>
</g>
<path fill="#2E368F" d="M435,117.5c-0.2,0-0.5,0-0.7-0.1c-0.2,0-0.2-0.2-0.2-0.3c0-0.2,0.2-0.2,0.3-0.2c1.2,0.3,2.4-0.3,3-1.4
	c0.3-0.6,0.4-1.4,0.1-2.1c-0.2-0.7-0.7-1.2-1.3-1.6c-0.6-0.3-1.4-0.4-2.1-0.1c-0.7,0.2-1.2,0.7-1.6,1.3c-0.1,0.1-0.2,0.2-0.4,0.1
	c-0.1-0.1-0.2-0.2-0.1-0.4c0.4-0.8,1.1-1.4,1.9-1.6c0.8-0.3,1.7-0.2,2.5,0.2c0.8,0.4,1.4,1.1,1.6,1.9c0.3,0.8,0.2,1.7-0.2,2.5
	C437.3,116.8,436.2,117.5,435,117.5z"/>
<g>
	<g>
		<path fill="#2E368F" d="M427.4,126.4c-2.4,0-4.5-1.5-5.6-3.9c-0.4,0-0.8-0.3-1.1-0.8c-0.5-0.8-0.7-2.3-0.3-2.9
			c0.1-0.2,0.4-0.4,0.6-0.4c0,0,0,0,0,0c0.1-1.9,0.8-3.6,1.9-5c1.2-1.4,2.8-2.2,4.6-2.2c1.7,0,3.3,0.8,4.6,2.2
			c1.1,1.3,1.8,3.1,1.9,5c0,0,0,0,0,0c0.2,0,0.8,0.1,0.8,1.3c0,1.2-0.6,2.8-1.6,2.9C431.9,125,429.8,126.4,427.4,126.4z M421.9,122
			c0.1,0,0.2,0.1,0.3,0.2c1,2.3,3,3.8,5.2,3.8c2.2,0,4.2-1.4,5.2-3.8c0.1-0.1,0.2-0.2,0.3-0.2c0,0,0,0,0.1,0l0,0
			c0.6,0,1.1-1.3,1.1-2.3c0-0.4-0.1-0.7-0.3-0.7c0,0-0.1,0-0.2,0c-0.1,0-0.2,0-0.3,0c-0.1-0.1-0.1-0.1-0.1-0.2c0-3.8-2.7-7-5.9-7
			c-3.2,0-5.9,3.1-5.9,7c0,0.1,0,0.2-0.1,0.2c-0.1,0.1-0.2,0.1-0.3,0c-0.1,0-0.1,0-0.2,0c0,0-0.1,0-0.1,0.1
			c-0.2,0.4-0.1,1.6,0.3,2.4c0.1,0.2,0.4,0.6,0.7,0.6C421.8,122,421.9,122,421.9,122C421.9,122,421.9,122,421.9,122z"/>
	</g>
</g>
<g>
	<g>
		<path fill="#2E368F" d="M433.5,118.7c-1.7-0.3-3.4-2.4-4.3-4.1c-0.8,0.8-1.7,1.4-2.6,2.1c-2.3,1.6-5.3,2-5.3,2s0.2-2.3,1.7-4.3
			c0.6-0.9,1.5-1.7,2.5-2.2c1.5-0.7,3.5-0.6,4.9,0.3c0.4,0.2,0.8,0.6,1.1,0.9c0.6,0.7,1,1.7,1.3,2.5c0.3,0.7,0.5,1.5,0.7,2.3
			C433.5,118.4,433.5,118.6,433.5,118.7z"/>
		<path fill="#2E368F" d="M433.5,119c-1.6-0.3-2.8-1.4-3.8-3.2c-0.7,2.1-4.8,2.9-5.7,2.4c-2.3,1.6-2.7,0.7-2.8,0.7
			c-0.1,0-0.2-0.2-0.2-0.3c0-0.1,0,0.1,0,0c0-0.1,0.2-2.4,1.7-4.4c0.7-1,1.6-1.8,2.6-2.2c0.7-0.3,1.4-0.5,2.2-0.5
			c1.1,0,2.1,0.3,2.9,0.8c0.3,0.2,0.8,0.6,1.1,1c0.6,0.8,1,1.7,1.4,2.6c0.3,0.7,0.5,1.4,0.7,2.3c0,0.2,0.1,0.3,0.1,0.4
			c0,0,0,0,0,0.1C433.8,118.9,433.7,119,433.5,119"/>
	</g>
</g>
<g>
	<g>
		<path fill="#2E368F" d="M422.1,118.8c-1.3,0-2.4-0.8-3-2.1c-0.2,0-0.4-0.2-0.6-0.4c-0.3-0.4-0.4-1.2-0.2-1.6
			c0.1-0.1,0.2-0.2,0.3-0.2c0,0,0,0,0,0c0-1,0.4-1.9,1-2.6c0.6-0.8,1.5-1.2,2.4-1.2c0.9,0,1.8,0.4,2.4,1.2c0.6,0.7,1,1.6,1,2.6
			c0,0,0,0,0,0c0.1,0,0.4,0,0.4,0.7c0,0.6-0.3,1.5-0.9,1.5C424.5,118,423.4,118.8,422.1,118.8z M419.2,116.4c0.1,0,0.1,0,0.1,0.1
			c0.5,1.2,1.6,2,2.8,2c1.2,0,2.2-0.8,2.8-2c0-0.1,0.1-0.1,0.2-0.1c0,0,0,0,0,0l0,0c0.3,0,0.6-0.7,0.6-1.2c0-0.2-0.1-0.4-0.1-0.4
			c0,0-0.1,0-0.1,0c0,0-0.1,0-0.1,0c0,0-0.1-0.1-0.1-0.1c0-2-1.4-3.7-3.1-3.7c-1.7,0-3.1,1.7-3.1,3.7c0,0,0,0.1-0.1,0.1
			c0,0-0.1,0-0.1,0c0,0-0.1,0-0.1,0c0,0,0,0-0.1,0.1c-0.1,0.2-0.1,0.8,0.2,1.3C418.8,116.3,419,116.4,419.2,116.4
			C419.1,116.4,419.2,116.4,419.2,116.4C419.2,116.4,419.2,116.4,419.2,116.4z"/>
	</g>
	<g>
		<path fill="#2E368F" d="M425.4,114.7c-0.9-0.2-1.8-1.3-2.3-2.2c-0.4,0.4-0.9,0.8-1.4,1.1c-1.2,0.8-2.8,1.1-2.8,1.1
			s0.1-1.2,0.9-2.3c0.3-0.5,0.8-0.9,1.3-1.2c0.8-0.4,1.9-0.3,2.6,0.2c0.2,0.1,0.4,0.3,0.6,0.5c0.3,0.4,0.5,0.9,0.7,1.3
			c0.2,0.4,0.3,0.8,0.4,1.2C425.3,114.6,425.4,114.6,425.4,114.7z"/>
		<path fill="#2E368F" d="M425.4,114.9c-0.9-0.2-1.5-0.8-2-1.7c-0.4,1.1-2.5,1.5-3,1.3c-1.2,0.8-1.4,0.4-1.5,0.4
			c0,0-0.1-0.1-0.1-0.2c0,0,0,0,0,0c0-0.1,0.1-1.3,0.9-2.4c0.4-0.5,0.9-1,1.4-1.2c0.4-0.2,0.8-0.3,1.2-0.3c0.6,0,1.1,0.2,1.5,0.4
			c0.2,0.1,0.4,0.3,0.6,0.5c0.3,0.4,0.5,0.9,0.7,1.4c0.1,0.4,0.3,0.7,0.4,1.2c0,0.1,0,0.2,0,0.2c0,0,0,0,0,0
			C425.5,114.8,425.4,114.9,425.4,114.9"/>
	</g>
</g>
<g>
	<g>
		<path fill="#2E368F" d="M425.4,114.3c-0.9,0-1.8-0.6-2.2-1.6c-0.2,0-0.3-0.1-0.4-0.3c-0.2-0.3-0.3-0.9-0.1-1.2
			c0.1-0.1,0.1-0.2,0.2-0.2c0,0,0,0,0,0c0-0.7,0.3-1.4,0.8-2c0.5-0.6,1.1-0.9,1.8-0.9c0.7,0,1.3,0.3,1.8,0.9c0.5,0.5,0.7,1.2,0.8,2
			c0,0,0,0,0,0c0.1,0,0.3,0,0.3,0.5c0,0.5-0.2,1.1-0.6,1.1C427.2,113.7,426.3,114.3,425.4,114.3z M423.2,112.6c0,0,0.1,0,0.1,0.1
			c0.4,0.9,1.2,1.5,2.1,1.5c0.9,0,1.7-0.6,2.1-1.5c0,0,0.1-0.1,0.1-0.1c0,0,0,0,0,0l0,0c0.2,0,0.4-0.5,0.4-0.9c0-0.2,0-0.3-0.1-0.3
			c0,0,0,0-0.1,0c0,0-0.1,0-0.1,0s-0.1-0.1-0.1-0.1c0-1.5-1.1-2.8-2.3-2.8c-1.3,0-2.3,1.2-2.3,2.8c0,0,0,0.1-0.1,0.1
			c0,0-0.1,0-0.1,0c0,0,0,0-0.1,0c0,0,0,0-0.1,0c-0.1,0.2-0.1,0.6,0.1,0.9C423,112.4,423.1,112.6,423.2,112.6
			C423.2,112.6,423.2,112.6,423.2,112.6C423.2,112.6,423.2,112.6,423.2,112.6z"/>
	</g>
	<g>
		<path fill="#2E368F" d="M427.8,111.3c-0.7-0.1-1.4-1-1.7-1.6c-0.3,0.3-0.7,0.6-1.1,0.8c-0.9,0.6-2.1,0.8-2.1,0.8s0.1-0.9,0.7-1.7
			c0.3-0.3,0.6-0.7,1-0.9c0.6-0.3,1.4-0.2,2,0.1c0.1,0.1,0.3,0.2,0.4,0.4c0.2,0.3,0.4,0.7,0.5,1c0.1,0.3,0.2,0.6,0.3,0.9
			C427.8,111.1,427.8,111.2,427.8,111.3z"/>
		<path fill="#2E368F" d="M427.8,111.4c-0.6-0.1-1.1-0.6-1.5-1.3c-0.3,0.8-1.9,1.1-2.3,1c-0.9,0.6-1.1,0.3-1.1,0.3
			c0,0-0.1-0.1-0.1-0.1c0,0,0,0,0,0c0,0,0.1-0.9,0.7-1.8c0.3-0.4,0.7-0.7,1-0.9c0.3-0.1,0.6-0.2,0.9-0.2c0.4,0,0.8,0.1,1.2,0.3
			c0.1,0.1,0.3,0.2,0.4,0.4c0.2,0.3,0.4,0.7,0.5,1c0.1,0.3,0.2,0.6,0.3,0.9c0,0.1,0,0.1,0,0.2c0,0,0,0,0,0
			C427.9,111.3,427.9,111.4,427.8,111.4"/>
	</g>
</g>
<g>
	<g>
		<path fill="#2E368F" d="M314.4,115.7c-0.3,0-0.5,0-0.8-0.1c-0.2,0-0.3-0.2-0.2-0.4c0-0.2,0.2-0.3,0.4-0.2c1.3,0.3,2.6-0.3,3.2-1.5
			c0.3-0.7,0.4-1.5,0.2-2.2c-0.2-0.7-0.8-1.3-1.4-1.7c-0.7-0.3-1.5-0.4-2.2-0.2c-0.7,0.2-1.3,0.8-1.7,1.4c-0.1,0.1-0.3,0.2-0.4,0.1
			c-0.1-0.1-0.2-0.3-0.1-0.4c0.4-0.8,1.1-1.4,2-1.7c0.9-0.3,1.8-0.2,2.7,0.2c0.8,0.4,1.4,1.1,1.7,2c0.3,0.9,0.2,1.8-0.2,2.7
			C316.9,115,315.6,115.7,314.4,115.7z"/>
		<g>
			<path fill="#2E368F" d="M306.2,125.3c-2.5,0-4.8-1.6-6.1-4.2c-0.4,0-0.9-0.3-1.2-0.9c-0.5-0.9-0.8-2.4-0.4-3.1
				c0.2-0.3,0.4-0.4,0.7-0.4c0,0,0,0,0,0c0.1-2,0.8-3.9,2-5.3c1.3-1.5,3-2.4,4.9-2.4c1.8,0,3.6,0.8,4.9,2.4c1.2,1.4,1.9,3.3,2,5.3
				c0,0,0,0,0,0c0.2,0,0.9,0.1,0.9,1.4c0,1.3-0.7,3-1.7,3.1C311,123.7,308.7,125.3,306.2,125.3z M300.4,120.5c0.1,0,0.2,0.1,0.3,0.2
				c1.1,2.5,3.2,4,5.6,4c2.3,0,4.5-1.5,5.6-4c0.1-0.1,0.2-0.2,0.3-0.2c0,0,0,0,0.1,0l0,0c0.6,0,1.2-1.4,1.2-2.5
				c0-0.5-0.1-0.8-0.3-0.8c0,0-0.1,0-0.2,0c-0.1,0-0.2,0-0.3,0c-0.1-0.1-0.1-0.1-0.1-0.2c0-4.1-2.9-7.5-6.3-7.5
				c-3.4,0-6.3,3.3-6.3,7.5c0,0.1-0.1,0.2-0.1,0.2c-0.1,0.1-0.2,0.1-0.3,0c-0.1,0-0.1,0-0.2,0c0,0-0.1,0-0.1,0.1
				c-0.3,0.4-0.1,1.7,0.4,2.5c0.1,0.2,0.4,0.6,0.7,0.6C300.3,120.5,300.3,120.5,300.4,120.5C300.3,120.5,300.3,120.5,300.4,120.5z"
				/>
		</g>
		<g>
			<path fill="#2E368F" d="M312.8,117.1c-1.8-0.4-3.6-2.6-4.6-4.4c-0.9,0.8-1.8,1.6-2.8,2.2c-2.5,1.7-5.7,2.2-5.7,2.2
				s0.2-2.5,1.8-4.6c0.7-0.9,1.6-1.8,2.7-2.3c1.6-0.8,3.8-0.6,5.3,0.4c0.4,0.3,0.8,0.6,1.1,1c0.6,0.8,1.1,1.8,1.4,2.7
				c0.3,0.8,0.5,1.6,0.7,2.4C312.7,116.7,312.8,116.9,312.8,117.1z"/>
			<path fill="#2E368F" d="M312.8,117.3c-1.7-0.4-3.6-2.5-4.7-4.3c-0.7,0.7-1.6,1.3-2.6,2c-2.5,1.7-5.7,2.3-5.8,2.3
				c-0.1,0-0.3-0.2-0.2-0.3c0-0.1,0,0.1,0,0c0-0.1,0.2-2.5,1.8-4.8c0.8-1,1.8-1.9,2.8-2.4c0.7-0.3,1.5-0.5,2.4-0.5
				c1.1,0,2.2,0.3,3.1,0.9c0.4,0.2,0.8,0.6,1.2,1.1c0.6,0.8,1.1,1.8,1.5,2.8c0.3,0.7,0.5,1.5,0.7,2.5c0,0.2,0.1,0.3,0.1,0.5
				c0,0,0,0,0,0.1C313,117.2,312.9,117.3,312.8,117.3"/>
		</g>
	</g>
</g>
<path fill="#2E368F" stroke="#2E368F" stroke-width="0.5" stroke-miterlimit="10" d="M314.6,112.1l1.2-1.2c0,0,0-0.1,0-0.1
	c0,0-0.1,0-0.1,0L314.6,112.1l-1.3-1.3c0,0-0.1,0-0.1,0c0,0,0,0.1,0,0.1l1.2,1.2l-1.2,1.2c0,0,0,0.1,0,0.1c0,0,0,0,0,0s0,0,0,0
	L314.6,112.1l1.1,1.3c0,0,0,0,0,0s0,0,0,0c0,0,0-0.1,0-0.1L314.6,112.1z"/>
<g>
	<g>
		<path fill="#2E368F" stroke="#2E368F" stroke-width="0.15" stroke-miterlimit="10" d="M356.4,109.8l-1.4-1.4
			c-0.4-0.4-1.1-0.4-1.5,0l-7.8,7.7l-1.6,4.5l4.5-1.6l7.8-7.7C356.8,110.9,356.8,110.2,356.4,109.8z M345.6,118.5l0.7-1.8l1.8,1.8
			l-1.8,0.6L345.6,118.5z M347,116.8l6.1-6.1l0.4,0.4l-6.1,6.1L347,116.8z M346.8,116.7l-0.3-0.4l6.1-6.1l0.3,0.4L346.8,116.7z
			 M347.5,117.4l6.1-6.1l0.4,0.4l-6.1,6.1L347.5,117.4z M352.9,110l0.2-0.2l2,2l-0.2,0.2L352.9,110z M348.4,118.3l-0.3-0.4l6.1-6.1
			l0.3,0.4L348.4,118.3z M356,110.9l-0.6,0.6l-2-2l0.6-0.6c0.2-0.2,0.4-0.2,0.6,0l1.4,1.4C356.2,110.4,356.2,110.7,356,110.9z"/>
	</g>
</g>
<circle fill="#2E368F" cx="388.1" cy="117.1" r="9.1"/>
<path fill="#FFFFFF" stroke="#FFFFFF" stroke-miterlimit="10" d="M388.8,117.1l3.9-3.9c0.1-0.1,0.1-0.2,0-0.3
	c-0.1-0.1-0.2-0.1-0.3,0l-3.9,3.9l-3.9-3.9c-0.1-0.1-0.2-0.1-0.3,0c-0.1,0.1-0.1,0.2,0,0.3l3.9,3.9l-3.9,3.9c-0.1,0.1-0.1,0.2,0,0.3
	c0,0,0.1,0.1,0.2,0.1c0.1,0,0.1,0,0.2-0.1l3.9-3.9l3.9,3.9c0,0,0.1,0.1,0.2,0.1c0.1,0,0.1,0,0.2-0.1c0.1-0.1,0.1-0.2,0-0.3
	L388.8,117.1z"/>
<g>
	<polygon fill="#2E368F" points="433.2,113.6 434.6,112.8 434.6,112.6 432.7,113.6 434.6,114.6 434.6,114.5 	"/>
	<path fill="#2E368F" d="M435.3,113.2l0-0.6l-1.7,1l1.7,1l0-0.6c1.8,0,2,1.3,2,1.3C437.3,113.7,435.8,113.3,435.3,113.2z"/>
</g>
<path fill="#2E368F" stroke="#2E368F" stroke-width="0.95" stroke-miterlimit="10" d="M428.4,71.9c-1.7,0-3.3,0.7-4.3,2v-1.6
	c0-0.1-0.1-0.2-0.2-0.2s-0.2,0.1-0.2,0.2v2.1c0,0,0,0,0,0c0,0,0,0,0,0c0,0,0,0,0,0c0,0,0,0,0,0c0,0,0,0,0,0c0,0,0,0,0,0c0,0,0,0,0,0
	c0,0,0,0,0,0c0,0,0,0,0,0c0,0,0,0,0,0h2.1c0.1,0,0.2-0.1,0.2-0.2s-0.1-0.2-0.2-0.2h-1.7c1-1.2,2.5-2,4.1-2c2.9,0,5.3,2.4,5.3,5.3
	c0,2.9-2.4,5.3-5.3,5.3c-1.1,0-2.2-0.3-3.1-1c-0.1-0.1-0.2,0-0.3,0c-0.1,0.1,0,0.2,0,0.3c1,0.7,2.1,1,3.3,1c3.2,0,5.7-2.6,5.7-5.7
	S431.6,71.9,428.4,71.9z"/>
<path fill="#2E368F" d="M434.2-83.9c-0.3,0-0.5,0-0.8-0.1c-0.2,0-0.3-0.2-0.2-0.4c0-0.2,0.2-0.3,0.4-0.2c1.3,0.3,2.6-0.3,3.2-1.5
	c0.3-0.7,0.4-1.5,0.2-2.2c-0.2-0.7-0.8-1.3-1.4-1.7c-0.7-0.3-1.5-0.4-2.2-0.2c-0.7,0.2-1.3,0.8-1.7,1.4c-0.1,0.1-0.3,0.2-0.4,0.1
	c-0.1-0.1-0.2-0.3-0.1-0.4c0.4-0.8,1.1-1.4,2-1.7c0.9-0.3,1.8-0.2,2.7,0.2c0.8,0.4,1.4,1.1,1.7,2c0.3,0.9,0.2,1.8-0.2,2.7
	C436.7-84.6,435.5-83.9,434.2-83.9z"/>
<g>
	<path fill="#2E368F" d="M426.1-74.3c-2.5,0-4.8-1.6-6.1-4.2c-0.4,0-0.9-0.3-1.2-0.9c-0.5-0.9-0.8-2.4-0.4-3.1
		c0.2-0.3,0.4-0.4,0.7-0.4c0,0,0,0,0,0c0.1-2,0.8-3.9,2-5.3c1.3-1.5,3-2.4,4.9-2.4c1.8,0,3.6,0.8,4.9,2.4c1.2,1.4,1.9,3.3,2,5.3
		c0,0,0,0,0,0c0.2,0,0.9,0.1,0.9,1.4c0,1.3-0.7,3-1.7,3.1C430.9-75.9,428.6-74.3,426.1-74.3z M420.2-79.1c0.1,0,0.2,0.1,0.3,0.2
		c1.1,2.5,3.2,4,5.6,4c2.3,0,4.5-1.5,5.6-4c0.1-0.1,0.2-0.2,0.3-0.2c0,0,0,0,0.1,0l0,0c0.6,0,1.2-1.4,1.2-2.5c0-0.5-0.1-0.8-0.3-0.8
		c0,0-0.1,0-0.2,0c-0.1,0-0.2,0-0.3,0c-0.1-0.1-0.1-0.1-0.1-0.2c0-4.1-2.9-7.5-6.3-7.5c-3.4,0-6.3,3.3-6.3,7.5
		c0,0.1-0.1,0.2-0.1,0.2c-0.1,0.1-0.2,0.1-0.3,0c-0.1,0-0.1,0-0.2,0c0,0-0.1,0-0.1,0.1c-0.3,0.4-0.1,1.7,0.4,2.5
		c0.1,0.2,0.4,0.6,0.7,0.6C420.1-79.1,420.2-79.1,420.2-79.1C420.2-79.1,420.2-79.1,420.2-79.1z"/>
</g>
<g>
	<path fill="#2E368F" d="M432.7-82.5c-1.8-0.4-3.6-2.6-4.6-4.4c-0.9,0.8-1.8,1.6-2.8,2.2c-2.5,1.7-5.7,2.2-5.7,2.2s0.2-2.5,1.8-4.6
		c0.7-0.9,1.6-1.8,2.7-2.3c1.6-0.8,3.8-0.6,5.3,0.4c0.4,0.3,0.8,0.6,1.1,1c0.6,0.8,1.1,1.8,1.4,2.7c0.3,0.8,0.5,1.6,0.7,2.4
		C432.6-82.9,432.6-82.7,432.7-82.5z"/>
	<path fill="#2E368F" d="M432.7-82.3c-1.7-0.4-3.6-2.5-4.7-4.3c-0.7,0.7-1.6,1.3-2.6,2c-2.5,1.7-5.7,2.3-5.8,2.3
		c-0.1,0-0.3-0.2-0.2-0.3c0-0.1,0,0.1,0,0c0-0.1,0.2-2.5,1.8-4.8c0.8-1,1.8-1.9,2.8-2.4c0.7-0.3,1.5-0.5,2.4-0.5
		c1.1,0,2.2,0.3,3.1,0.9c0.4,0.2,0.8,0.6,1.2,1.1c0.6,0.8,1.1,1.8,1.5,2.8c0.3,0.7,0.5,1.5,0.7,2.5c0,0.2,0.1,0.3,0.1,0.5
		c0,0,0,0,0,0.1C432.9-82.4,432.8-82.3,432.7-82.3"/>
</g>
<rect x="434.2" y="-89.3" transform="matrix(0.5406 0.8413 -0.8413 0.5406 125.9699 -405.4807)" fill="none" stroke="#2E368F" stroke-width="0.5" stroke-miterlimit="10" width="0.2" height="3.9"/>
<path fill="none" stroke="#2E368F" stroke-width="0.5" stroke-miterlimit="10" d="M434.2-89.4c-1.1,0-2,0.9-2,2l0,0c0,1.1,0.9,2,2,2
	s2-0.9,2-2l0,0C436.3-88.5,435.4-89.4,434.2-89.4L434.2-89.4L434.2-89.4z"/>
<path fill="#2E368F" d="M348.3-90c-0.1,0-0.1,0-0.2,0.1l-7.2,11.5c-0.1,0.2,0,0.3,0.2,0.3h14.4c0.2,0,0.3-0.1,0.2-0.3l-7.2-11.5
	C348.5-90,348.4-90,348.3-90L348.3-90z"/>
<path fill="#2E368F" stroke="#2E368F" stroke-width="0.5" stroke-miterlimit="10" d="M299.2-90.3v14.4c0,0.9,0.6,1.6,1.4,1.6h15.5
	c0.8,0,1.4-0.7,1.4-1.6v-14.4c0-0.9-0.6-1.6-1.4-1.6h-15.5C299.8-91.9,299.2-91.2,299.2-90.3z M299.9-90.3c0-0.4,0.3-0.7,0.6-0.7
	h15.5c0.3,0,0.6,0.3,0.6,0.7v14.4c0,0.4-0.3,0.7-0.6,0.7h-15.5c-0.3,0-0.6-0.3-0.6-0.7V-90.3z"/>
<path fill="#2E368F" stroke="#2E368F" stroke-miterlimit="10" d="M308.2-87.1c-0.1-0.1-0.2-0.1-0.3,0c-0.1,0.1-0.1,0.2,0,0.3
	l3.9,3.9l-3.9,3.9c-0.1,0.1-0.1,0.2,0,0.3c0.1,0.1,0.2,0.1,0.3,0l4-4c0,0,0.1-0.1,0.1-0.2s0-0.1-0.1-0.2L308.2-87.1z"/>
<path fill="#2E368F" stroke="#2E368F" stroke-miterlimit="10" d="M305.2-86.9c-0.1-0.1-0.2-0.1-0.3,0c-0.1,0.1-0.1,0.2,0,0.3
	l3.9,3.9l-3.9,3.9c-0.1,0.1-0.1,0.2,0,0.3c0.1,0.1,0.2,0.1,0.3,0l4-4c0,0,0.1-0.1,0.1-0.2c0-0.1,0-0.1-0.1-0.2L305.2-86.9z"/>
<path fill="#2E368F" stroke="#2E368F" stroke-width="0.5" stroke-miterlimit="10" d="M259.1-90.3v14.4c0,0.9,0.6,1.6,1.4,1.6h15.5
	c0.8,0,1.4-0.7,1.4-1.6v-14.4c0-0.9-0.6-1.6-1.4-1.6h-15.5C259.7-91.9,259.1-91.2,259.1-90.3z M259.8-90.3c0-0.4,0.3-0.7,0.6-0.7
	h15.5c0.3,0,0.6,0.3,0.6,0.7v14.4c0,0.4-0.3,0.7-0.6,0.7h-15.5c-0.3,0-0.6-0.3-0.6-0.7V-90.3z"/>
<g>
	<path fill="#2E368F" stroke="#2E368F" stroke-miterlimit="10" d="M268.8-87.1c0.1-0.1,0.2-0.1,0.3,0s0.1,0.2,0,0.3l-3.9,3.9
		l3.9,3.9c0.1,0.1,0.1,0.2,0,0.3s-0.2,0.1-0.3,0l-4-4c0,0-0.1-0.1-0.1-0.2s0-0.1,0.1-0.2L268.8-87.1z"/>
	<path fill="#2E368F" stroke="#2E368F" stroke-miterlimit="10" d="M271.8-86.9c0.1-0.1,0.2-0.1,0.3,0s0.1,0.2,0,0.3l-3.9,3.9
		l3.9,3.9c0.1,0.1,0.1,0.2,0,0.3s-0.2,0.1-0.3,0l-4-4c0,0-0.1-0.1-0.1-0.2c0-0.1,0-0.1,0.1-0.2L271.8-86.9z"/>
</g>
<path fill="#2E368F" d="M393-83.4l-2.8,0.9l1.8,2.4c0.5,0.6,0.3,1.5-0.3,1.9c-0.3,0.2-0.5,0.3-0.8,0.3c-0.4,0-0.9-0.2-1.1-0.6
	l-1.8-2.4l-1.8,2.4c-0.3,0.4-0.7,0.6-1.1,0.6c-0.3,0-0.6-0.1-0.8-0.3c-0.6-0.5-0.8-1.3-0.3-1.9l1.8-2.4l-2.9-0.9
	c-0.7-0.2-1.1-1-0.9-1.8c0.2-0.7,1-1.1,1.8-0.9l2.9,0.9v-3c0-0.8,0.6-1.4,1.4-1.4c0.8,0,1.4,0.6,1.4,1.4v3l2.9-0.9
	c0.7-0.2,1.5,0.2,1.8,0.9C394.2-84.4,393.8-83.6,393-83.4z"/>
<path fill="#2E368F" stroke="#2E368F" stroke-width="0.5" stroke-miterlimit="10" d="M234.2-84.2c1.5-1.6,1.5-4.1-0.1-5.7
	c-0.8-0.8-1.8-1.2-2.9-1.2c-1.1,0-2.1,0.4-2.9,1.2l-3.4,3.4c-0.2,0.2-0.2,0.5,0,0.7c0.1,0.1,0.2,0.1,0.3,0.1s0.2,0,0.3-0.1l3.4-3.4
	c1.2-1.2,3.2-1.2,4.3,0c1.2,1.2,1.2,3.2,0,4.3l-8.5,8.5c-0.8,0.8-2.1,0.8-2.9,0c-0.8-0.8-0.8-2.1,0-2.9l6.9-6.9l0,0
	c0.4-0.4,1-0.4,1.4,0c0.2,0.2,0.3,0.4,0.3,0.7c0,0.3-0.1,0.5-0.3,0.7l-6,6c-0.2,0.2-0.2,0.5,0,0.7c0.1,0.1,0.2,0.1,0.3,0.1
	s0.2,0,0.3-0.1l6-6c0.4-0.4,0.6-0.9,0.6-1.4c0-0.5-0.2-1-0.6-1.4c-0.7-0.7-1.9-0.8-2.7-0.1c0,0,0,0,0,0l-7,7c-1.2,1.2-1.2,3.1,0,4.2
	c0.6,0.6,1.4,0.9,2.1,0.9c0.8,0,1.5-0.3,2.1-0.9L234.2-84.2L234.2-84.2L234.2-84.2L234.2-84.2C234.1-84.1,234.2-84.2,234.2-84.2z"/>
<title>interface_004-information-detail-window-application</title>
<desc>Created with Sketch.</desc>
<path fill="#2E368F" stroke="#2E368F" stroke-width="0.5" stroke-miterlimit="10" d="M118-73.3L118-73.3l0-13.6
	c-0.3,0.2-0.5,0.5-0.8,0.7l0,12.1H99.1v-13.4h11.1c0.3-0.4,0.7-0.8,1-1.2c0.3-0.4,0.8-0.2,0.9,0.2c0.1,0,0.1,0.1,0.2,0.1
	c0,0,0,0,0,0c1.4,0,2.7,0,4.1,0c0,0,0-0.1,0.1-0.1c-0.1-0.1-0.1-0.3,0-0.5c0.1-0.3,0.3-0.5,0.4-0.8c-0.3,0-0.6-0.1-0.6-0.5
	c0-0.1-0.1-0.4,0-0.5c0,0-0.1,0.4-0.1,0.4c-0.1,0-0.2-0.2-0.3-0.2c-0.1,0-0.1-0.1-0.3,0c-0.2,0.1-0.4,0.3-0.5,0.4c0,0,0,0,0,0
	c0,0-0.1,0.1-0.1,0.1c-0.2,0.1-0.4,0.1-0.5,0c-0.1,0.1-0.2,0.2-0.3,0.4c-0.5,0.5-1.2-0.2-0.7-0.7c0.3-0.3,0.6-0.7,0.9-1H98.3v18.1
	h19.2l0,0C117.7-73.3,117.8-73.3,118-73.3L118-73.3L118-73.3z"/>
<rect x="99.1" y="-90.6" fill="#FFFFFF" width="18.1" height="2.4"/>
<rect x="99.9" y="-89.8" fill="#2E368F" stroke="#2E368F" stroke-width="0.5" stroke-miterlimit="10" width="0.8" height="0.8"/>
<rect x="101.5" y="-89.8" fill="#2E368F" stroke="#2E368F" stroke-width="0.5" stroke-miterlimit="10" width="0.8" height="0.8"/>
<rect x="103" y="-89.8" fill="#2E368F" stroke="#2E368F" stroke-width="0.5" stroke-miterlimit="10" width="0.8" height="0.8"/>
<path fill="#2E368F" stroke="#2E368F" stroke-width="0.5" stroke-miterlimit="10" d="M158-73.3L158-73.3l0-13.6
	c-0.3,0.2-0.5,0.5-0.8,0.7l0,12.1h-18.1v-13.4h11.1c0.3-0.4,0.7-0.8,1-1.2c0.3-0.4,0.8-0.2,0.9,0.2c0.1,0,0.1,0.1,0.2,0.1
	c0,0,0,0,0,0c1.4,0,2.7,0,4.1,0c0,0,0-0.1,0.1-0.1c-0.1-0.1-0.1-0.3,0-0.5c0.1-0.3,0.3-0.5,0.4-0.8c-0.3,0-0.6-0.1-0.6-0.5
	c0-0.1-0.1-0.4,0-0.5c0,0-0.1,0.4-0.1,0.4c-0.1,0-0.2-0.2-0.3-0.2c-0.1,0-0.1-0.1-0.3,0c-0.2,0.1-0.4,0.3-0.5,0.4c0,0,0,0,0,0
	c0,0-0.1,0.1-0.1,0.1c-0.2,0.1-0.4,0.1-0.5,0c-0.1,0.1-0.2,0.2-0.3,0.4c-0.5,0.5-1.2-0.2-0.7-0.7c0.3-0.3,0.6-0.7,0.9-1h-15.8v18.1
	h19.2l0,0C157.7-73.3,157.8-73.3,158-73.3L158-73.3L158-73.3z"/>
<rect x="139.1" y="-90.6" fill="#FFFFFF" width="18.1" height="2.4"/>
<rect x="141.5" y="-89.8" fill="#2E368F" stroke="#2E368F" stroke-width="0.5" stroke-miterlimit="10" width="0.8" height="0.8"/>
<rect x="139.8" y="-89.8" fill="#2E368F" stroke="#2E368F" stroke-width="0.5" stroke-miterlimit="10" width="0.8" height="0.8"/>
<rect x="143" y="-89.8" fill="#2E368F" stroke="#2E368F" stroke-width="0.5" stroke-miterlimit="10" width="0.8" height="0.8"/>
<g>
	<path fill="#2E368F" d="M196.2-89.2c0.2,0.2,0.2,0.5,0,0.7l-0.2,0.2l-0.7-0.7l0.2-0.2C195.8-89.4,196.1-89.4,196.2-89.2z"/>
	<polygon fill="#2E368F" points="192.9,-86.5 192.7,-85.6 193.6,-85.9 195.8,-88.1 195.1,-88.8 	"/>
</g>
<rect x="111.7" y="-89" fill="#FFFFFF" width="5" height="1.6"/>
<g>
	<path fill="#2E368F" stroke="#2E368F" stroke-width="0.15" stroke-miterlimit="10" d="M117.6-89.5l-1.4-1.3
		c-0.4-0.4-1.1-0.3-1.4,0.1l-7.2,8.1l-1.4,4.5l4.3-1.8l7.2-8.1C118.1-88.5,118.1-89.2,117.6-89.5z M107.4-80.3l0.5-1.8l1.9,1.7
		l-1.7,0.7L107.4-80.3z M108.7-82l5.7-6.4l0.4,0.4l-5.7,6.4L108.7-82z M108.5-82.2l-0.4-0.3l5.7-6.4l0.4,0.3L108.5-82.2z
		 M109.3-81.5l5.7-6.4l0.4,0.4l-5.7,6.4L109.3-81.5z M114.2-89.2l0.2-0.2l2.1,1.9l-0.2,0.2L114.2-89.2z M110.2-80.6l-0.4-0.3
		l5.7-6.4l0.4,0.3L110.2-80.6z M117.3-88.5l-0.6,0.6l-2.1-1.9l0.6-0.6c0.1-0.2,0.4-0.2,0.6,0l1.4,1.3
		C117.4-88.9,117.4-88.7,117.3-88.5z"/>
</g>
<path fill="#FFFFFF" d="M155.5-91.4c0,0-0.8,0.9-0.9,1c-0.1,0-2.5,1.2-2.5,1.2s-0.7-0.1-0.7,0.1s0.3,3.6,0.3,3.6l1.3,2.2
	c0,0,2.1-2.1,2.2-2.2c0.1-0.1,2.8-2.2,2.8-2.2l-1.7-2.6L155.5-91.4z"/>
<g>
	<path fill="#2E368F" stroke="#2E368F" stroke-width="0.15" stroke-miterlimit="10" d="M157.5-90.5c0.6,0.6,0.6,1.5,0,2.1l-0.7,0.7
		l-2.1-2.1l0.7-0.7C156-91,156.9-91,157.5-90.5z"/>
	<polygon fill="#2E368F" stroke="#2E368F" stroke-width="0.15" stroke-miterlimit="10" points="147.1,-82.2 146.4,-79.4 
		149.2,-80.1 156.1,-87 154,-89.1 	"/>
</g>
<path fill="#2E368F" stroke="#2E368F" stroke-width="0.75" stroke-miterlimit="10" d="M41,39.9h-1.6v-1.6c0-0.1-0.1-0.2-0.2-0.2
	c-0.1,0-0.2,0.1-0.2,0.2v1.6h-1.6c-0.1,0-0.2,0.1-0.2,0.2s0.1,0.2,0.2,0.2H39v1.6c0,0.1,0.1,0.2,0.2,0.2c0.1,0,0.2-0.1,0.2-0.2v-1.6
	H41c0.1,0,0.2-0.1,0.2-0.2S41.1,39.9,41,39.9z"/>
<path fill="#2E368F" stroke="#2E368F" stroke-width="0.75" stroke-miterlimit="10" d="M9.2,70.3c-2.6,0-4.6,2.1-4.6,4.6
	c0,2.6,2.1,4.6,4.6,4.6s4.6-2.1,4.6-4.6C13.8,72.3,11.7,70.3,9.2,70.3z M9.2,79.1c-2.3,0-4.2-1.9-4.2-4.2c0-2.3,1.9-4.2,4.2-4.2
	s4.2,1.9,4.2,4.2C13.4,77.2,11.5,79.1,9.2,79.1z"/>
<path fill="#2E368F" stroke="#2E368F" stroke-width="0.75" stroke-miterlimit="10" d="M10.8,74.7H9.3v-1.6C9.3,73,9.2,73,9.1,73
	S8.9,73,8.9,73.1v1.6H7.3c-0.1,0-0.2,0.1-0.2,0.2c0,0.1,0.1,0.2,0.2,0.2h1.6v1.6c0,0.1,0.1,0.2,0.2,0.2s0.2-0.1,0.2-0.2v-1.6h1.6
	c0.1,0,0.2-0.1,0.2-0.2C11,74.8,10.9,74.7,10.8,74.7z"/>
<rect x="462.8" y="-1" fill="#2E368F" width="6" height="8.1"/>
<polygon fill="#2E368F" points="466.7,-2.9 460.7,-2.9 460.7,5.2 462.1,5.2 462.1,-1.6 466.7,-1.6 "/>
<polygon fill="#2E368F" points="464.7,-4.9 458.8,-4.9 458.8,3.2 460.1,3.2 460.1,-3.6 464.7,-3.6 "/>
<g>
</g>
<g>
</g>
<g>
</g>
<g>
</g>
<g>
</g>
<g>
</g>
<g>
</g>
<g>
</g>
<g>
</g>
<g>
</g>
<g>
</g>
<g>
</g>
<g>
</g>
<g>
</g>
<g>
</g>
<g>
</g>
<g>
</g>
<g>
</g>
<g>
</g>
<g>
</g>
<g>
</g>
<g>
</g>
<g>
</g>
<g>
</g>
<g>
</g>
<g>
</g>
<g>
</g>
<g>
</g>
<g>
</g>
<g>
</g>
<g>
	<g>
		<path fill="#2E368F" d="M10.4,26.7c-5.2,0-9.3,4.2-9.3,9.3s4.2,9.3,9.3,9.3h9.3V36C19.7,30.9,15.6,26.7,10.4,26.7z M10.4,43.6
			c-4.2,0-7.6-3.4-7.6-7.6s3.4-7.6,7.6-7.6S18,31.8,18,36S14.6,43.6,10.4,43.6z"/>
	</g>
	<path fill="#2E368F" d="M14.2,35.3h-3.1v-3.1c0-0.4-0.3-0.7-0.7-0.7c-0.4,0-0.7,0.3-0.7,0.7v3.1H6.6c-0.4,0-0.7,0.3-0.7,0.7
		s0.3,0.7,0.7,0.7h3.1v3.1c0,0.4,0.3,0.7,0.7,0.7c0.4,0,0.7-0.3,0.7-0.7v-3.1h3.1c0.4,0,0.7-0.3,0.7-0.7
		C14.9,35.6,14.6,35.3,14.2,35.3z"/>
</g>
<path fill="#2E368F" d="M17.6,69.5v-2.9h-2.9v-1.4h-1.6v1.4H5v-1.4H3.3v1.4H0.5v15.7h2.9v2.9h17.1V69.5H17.6z M1.8,81.1v-13h1.5v1.5
	H5v-1.5h8.2v1.5h1.6v-1.5h1.5v13H1.8z M19.2,84H5v-1.6h12.6V70.9h1.6V84z"/>
<path fill="#2E368F" d="M17.1,100.4h-4.3c0-1.4-1.1-2.5-2.5-2.5c-1.4,0-2.5,1.1-2.5,2.5H3.5v3h13.6V100.4z M10.3,101.6
	c-0.7,0-1.2-0.6-1.2-1.2c0-0.7,0.6-1.2,1.2-1.2c0.7,0,1.2,0.6,1.2,1.2C11.6,101,11,101.6,10.3,101.6z"/>
<g>
	<path fill="#2E368F" d="M17.9,100.4v3.7H2.7v-3.7H1.6v17.4H19v-17.4H17.9z M18.1,116.9H2.6v-11.7h15.5V116.9z"/>
	<rect x="2.6" y="105.2" fill="#FFFFFF" width="15.5" height="11.7"/>
</g>
<path fill="#2E368F" stroke="#2E368F" stroke-width="0.75" stroke-miterlimit="10" d="M12.7,109c-0.1-0.1-0.2-0.1-0.2,0l-3.6,3.6
	l-1.2-1.2c-0.1-0.1-0.2-0.1-0.2,0c-0.1,0.1-0.1,0.2,0,0.2l1.3,1.3c0,0,0.1,0,0.1,0s0.1,0,0.1,0l3.8-3.8
	C12.7,109.2,12.7,109.1,12.7,109z"/>
<path fill="#2E368F" stroke="#2E368F" stroke-width="0.75" stroke-miterlimit="10" d="M10.2,106.3c-2.6,0-4.6,2.1-4.6,4.6
	c0,2.6,2.1,4.6,4.6,4.6s4.6-2.1,4.6-4.6C14.8,108.4,12.8,106.3,10.2,106.3z M10.2,115.2c-2.3,0-4.2-1.9-4.2-4.2
	c0-2.3,1.9-4.2,4.2-4.2s4.2,1.9,4.2,4.2C14.4,113.3,12.5,115.2,10.2,115.2z"/>
<path fill="#2E368F" d="M-26.4,98.9c-0.7,0-0.7,0-0.7,0.7V116c0,0.7,0,0.7,0.7,0.7c0.7,0,0.7,0,0.7-0.7V99.6
	C-25.7,98.9-25.7,98.9-26.4,98.9z"/>
<g>
	<path fill="#2E368F" d="M-9.3,99.3c-5.9-1.5-10.4,1.5-14.9,0v10c4.5,1.5,8.9-1.5,14.9,0l-3-5.2L-9.3,99.3z M-11.5,108.1
		c-4.5-1.1-7.9,1.1-11.3,0v-7.6c3.4,1.1,6.8-1.1,11.3,0l-2.3,3.7L-11.5,108.1z"/>
	<path fill="#FFFFFF" d="M-11.5,100.5c-4.5-1.1-7.9,1.1-11.3,0v7.6c3.4,1.1,6.8-1.1,11.3,0l-2.3-3.9L-11.5,100.5z"/>
</g>
<g>
	<path fill="#2E368F" stroke="#2E368F" stroke-miterlimit="10" d="M-50.9,116.5h-3c-0.9,0-1.7-0.7-1.7-1.7v-8.1
		c0-0.9,0.7-1.7,1.7-1.7h3V116.5z M-53.9,105.6c-0.6,0-1.1,0.5-1.1,1.1v8.1c0,0.6,0.5,1.1,1.1,1.1h2.5v-10.3H-53.9z"/>
	<path fill="#2E368F" stroke="#2E368F" stroke-miterlimit="10" d="M-41.8,116.5h-9.5v-11.2l3.8-5.5c0.4-0.5,1-0.8,1.7-0.8h0.1
		c0.7,0,1.3,0.3,1.7,0.8c0.4,0.5,0.5,1.2,0.3,1.8l-1,3.5h5.1c0.7,0,1.5,0.4,1.9,1c0.6,0.8,0.7,1.8,0.3,3l-1.7,5.1
		C-39.6,115.1-40.8,116.5-41.8,116.5z M-50.9,116h9c0.7,0,1.8-1.2,2-2l1.7-5.1c0.3-0.9,0.3-1.8-0.2-2.5c-0.3-0.5-0.9-0.8-1.5-0.8
		h-5.7l1.2-4.2c0.1-0.5,0-1-0.2-1.4c-0.3-0.4-0.7-0.6-1.2-0.6h-0.1c-0.5,0-0.9,0.2-1.2,0.6l-3.8,5.4V116z"/>
</g>
<path fill="#2E368F" d="M-23.6,72.3l0.7-0.6l0.7,0.5l0-3.6h-1.3C-23.6,68.6-23.6,72.4-23.6,72.3z"/>
<path fill="#2E368F" d="M3.8-20.6c0-0.3,0.2-0.5,0.5-0.5h12.6l-2.7-2.7c-0.2-0.2-0.2-0.6,0-0.8c0.1-0.1,0.2-0.2,0.4-0.2
	s0.3,0.1,0.4,0.2l3.6,3.6c0.2,0.2,0.2,0.6,0,0.8l-3.6,3.6c-0.2,0.2-0.6,0.2-0.8,0c-0.2-0.2-0.2-0.6,0-0.8l2.7-2.7H4.3
	C4-20,3.7-20.2,3.8-20.6z"/>
<path fill="#2E368F" d="M3.9-11.2h10.9c2.1,0,3.9-1.7,3.9-3.9v-2.3c0-0.3-0.2-0.5-0.5-0.5s-0.5,0.2-0.5,0.5v2.3
	c0,1.5-1.3,2.8-2.8,2.8H4c-1.5,0-2.8-1.3-2.8-2.8V-26c0-1.5,1.3-2.8,2.8-2.8h10.9c1.5,0,2.8,1.3,2.8,2.8v2.2c0,0.3,0.2,0.5,0.5,0.5
	s0.5-0.2,0.5-0.5V-26c0-2.1-1.7-3.9-3.9-3.9H3.9c-2.1,0-3.9,1.7-3.9,3.9v10.9C0.1-12.9,1.8-11.2,3.9-11.2z"/>
<path fill="#2E368F" d="M9.4-20.6"/>
<path fill="#2E368F" d="M9.4-20.6"/>
</svg>
