<?xml version="1.0" encoding="utf-8"?>
<!-- Generator: Adobe Illustrator 18.1.1, SVG Export Plug-In . SVG Version: 6.00 Build 0)  -->
<svg version="1.1" id="Layer_1" xmlns="http://www.w3.org/2000/svg" xmlns:xlink="http://www.w3.org/1999/xlink" x="0px" y="0px"
	 viewBox="0 0 20 20" enable-background="new 0 0 20 20" xml:space="preserve">
<g>
	<path fill="#2E368F" d="M7,4.7l0.6-0.5l0.6,0.5l0-3.3H7C7,1.4,7,4.8,7,4.7z"/>
	<polygon fill="none" points="17.7,13.4 17.7,4.3 14.7,4.3 14.7,1.5 6.3,1.5 6.3,15.9 17.7,15.9 17.7,13.6 	"/>
	<path fill="#2E368F" d="M6.3,1.5h8.4v2.8h3v9.1v0.2v2.3h0.9v-2.5h0V3.9c0-0.2-0.1-0.3-0.2-0.4l-3.1-2.8c-0.1-0.1-0.3-0.1-0.4-0.1H6
		c-0.3,0-0.6,0.3-0.6,0.6v14.7h0.9V1.5z"/>
	<rect x="8.6" y="6.7" fill="#2E368F" width="6.9" height="0.6"/>
	<rect x="8.6" y="7.9" fill="#2E368F" width="6.9" height="0.6"/>
	<rect x="8.6" y="9" fill="#2E368F" width="6.9" height="0.6"/>
	<rect x="8.6" y="10.2" fill="#2E368F" width="6.9" height="0.6"/>
	<rect x="8.6" y="11.3" fill="#2E368F" width="6.9" height="0.6"/>
	<rect x="8.6" y="12.5" fill="#2E368F" width="6.9" height="0.6"/>
</g>
<path fill="#F9F9FA" stroke="#2E368F" stroke-miterlimit="10" d="M18,9.8h-7.4l-0.8-1c-0.5-0.7-1-1.1-1.8-1.1H2.3
	c-0.8,0-1.4,0.5-1.4,1.1v2.1v0.5v6.6c0,0.6,0.6,1.1,1.4,1.1H18c0.8,0,1.4-0.5,1.4-1.1v-7.2C19.4,10.3,18.8,9.8,18,9.8z"/>
</svg>
