<?xml version="1.0" encoding="utf-8"?>
<!-- Generator: Adobe Illustrator 18.1.1, SVG Export Plug-In . SVG Version: 6.00 Build 0)  -->
<svg version="1.1" id="Layer_1" xmlns="http://www.w3.org/2000/svg" xmlns:xlink="http://www.w3.org/1999/xlink" x="0px" y="0px"
	 viewBox="0 0 20 20" enable-background="new 0 0 20 20" xml:space="preserve">
<g>
	<path fill="#2E368F" stroke="#2E368F" stroke-width="0.15" stroke-miterlimit="10" d="M17.7,19.2H2.8c-1.1,0-2-0.9-2-2.1v-6.5
		c0-0.5,0.2-1,0.5-1.4c0.4-0.4,0.9-0.6,1.4-0.6h14.9c1.1,0,2,0.9,2,2.1v6.5C19.7,18.3,18.8,19.2,17.7,19.2z M2.8,9.6
		c-0.2,0-0.5,0.1-0.7,0.3c-0.2,0.2-0.3,0.4-0.3,0.7v6.5c0,0.6,0.4,1,0.9,1h14.9c0.5,0,0.9-0.5,0.9-1v-6.5c0-0.6-0.4-1-0.9-1H2.8z"/>
</g>
<g>
	<path fill="#2E368F" stroke="#2E368F" stroke-width="0.15" stroke-miterlimit="10" d="M18.9,9.4h-1.1V1.8c0-0.4-0.4-0.8-0.8-0.8
		H3.5C3.3,1.1,3.1,1.2,3,1.3S2.7,1.6,2.7,1.8v7.6H1.7V1.8c0-0.5,0.2-0.9,0.5-1.3C2.6,0.2,3,0,3.5,0h13.5c1,0,1.8,0.8,1.8,1.8V9.4z"
		/>
</g>
<g>
	<path fill="#2E368F" stroke="#2E368F" stroke-width="0.15" stroke-miterlimit="10" d="M16.3,9.5c-0.3,0-0.5-0.2-0.5-0.5V7.6H4.7V9
		c0,0.3-0.2,0.5-0.5,0.5S3.6,9.2,3.6,9V7c0-0.3,0.2-0.5,0.5-0.5h12.1c0.3,0,0.5,0.2,0.5,0.5V9C16.8,9.2,16.6,9.5,16.3,9.5z"/>
</g>
<g>
	<path fill="#2E368F" stroke="#2E368F" stroke-width="0.15" stroke-miterlimit="10" d="M15.3,7.3c-0.3,0-0.5-0.2-0.5-0.5V5.7H5.7
		v1.1c0,0.3-0.2,0.5-0.5,0.5C4.9,7.3,4.7,7,4.7,6.7V5.1c0-0.3,0.2-0.5,0.5-0.5h10.2c0.3,0,0.5,0.2,0.5,0.5v1.6
		C15.9,7,15.6,7.3,15.3,7.3z"/>
</g>
<g>
	<path fill="#2E368F" stroke="#2E368F" stroke-width="0.15" stroke-miterlimit="10" d="M14.4,5.3c-0.3,0-0.5-0.2-0.5-0.5v-1H6.7v1
		c0,0.3-0.2,0.5-0.5,0.5S5.7,5,5.7,4.7V3.2c0-0.3,0.2-0.5,0.5-0.5h8.2c0.3,0,0.5,0.2,0.5,0.5v1.5C15,5,14.7,5.3,14.4,5.3z"/>
</g>
<g>
	<path fill="#2E368F" stroke="#2E368F" stroke-width="0.15" stroke-miterlimit="10" d="M13,15.3H7.6c-0.3,0-0.5-0.2-0.5-0.5v-1.3
		c0-0.3,0.2-0.5,0.5-0.5s0.5,0.2,0.5,0.5v0.8h4.4v-0.8c0-0.3,0.2-0.5,0.5-0.5c0.3,0,0.5,0.2,0.5,0.5v1.3
		C13.6,15.1,13.3,15.3,13,15.3z"/>
</g>
</svg>
