<?xml version="1.0" encoding="utf-8"?>
<!-- Generator: Adobe Illustrator 18.1.1, SVG Export Plug-In . SVG Version: 6.00 Build 0)  -->
<svg version="1.1" id="Layer_1" xmlns="http://www.w3.org/2000/svg" xmlns:xlink="http://www.w3.org/1999/xlink" x="0px" y="0px"
	 viewBox="0 0 20 20" enable-background="new 0 0 20 20" xml:space="preserve">
<path fill="#ff3300" stroke="#ff3300" stroke-width="0.75" stroke-miterlimit="10" d="M376.7-20.6l4-4c0.1-0.1,0.1-0.2,0-0.3
	c-0.1-0.1-0.2-0.1-0.3,0l-4,4l-4-4c-0.1-0.1-0.2-0.1-0.3,0s-0.1,0.2,0,0.3l4,4l-4,4c-0.1,0.1-0.1,0.2,0,0.3c0,0,0.1,0.1,0.2,0.1
	s0.1,0,0.2-0.1l4-4l4,4c0,0,0.1,0.1,0.2,0.1s0.1,0,0.2-0.1c0.1-0.1,0.1-0.2,0-0.3L376.7-20.6z"/>
<path fill="#ff3300" stroke="#ff3300" stroke-width="0.75" stroke-miterlimit="10" d="M459.4-64.6c0.1-0.1,0.1-0.2,0-0.3
	s-0.2-0.1-0.3,0l-1.8,1.8l0.3,0.3L459.4-64.6z"/>
<path fill="#ff3300" stroke="#ff3300" stroke-width="0.75" stroke-miterlimit="10" d="M459.1-56.6c0,0,0.1,0.1,0.2,0.1
	s0.1,0,0.2-0.1c0.1-0.1,0.1-0.2,0-0.3l-2.2-2.2l-0.3,0.3L459.1-56.6z"/>
<path fill="#ff3300" stroke="#ff3300" stroke-width="0.75" stroke-miterlimit="10" d="M455.6-60.7l0.3-0.3l-0.3-0.3l-0.3,0.3
	l-3.8-3.8c-0.1-0.1-0.2-0.1-0.3,0c-0.1,0.1-0.1,0.2,0,0.3l3.8,3.8l-3.8,3.8c-0.1,0.1-0.1,0.2,0,0.3c0,0,0.1,0.1,0.2,0.1
	c0.1,0,0.1,0,0.2-0.1l3.8-3.8l1.3,1.3l0.3-0.3L455.6-60.7z"/>
<path fill="#ff3300" stroke="#ff3300" stroke-width="0.75" stroke-miterlimit="10" d="M454-56.6c-0.1,0.1-0.1,0.2,0,0.3
	c0,0,0.1,0.1,0.2,0.1c0.1,0,0.1,0,0.2-0.1l1.9-1.9l-0.3-0.3L454-56.6z"/>
<path fill="#ff3300" stroke="#ff3300" stroke-width="0.75" stroke-miterlimit="10" d="M454.3-64.6c-0.1-0.1-0.2-0.1-0.3,0
	c-0.1,0.1-0.1,0.2,0,0.3l2.2,2.2l0.3-0.3L454.3-64.6z"/>
<path fill="#ff3300" stroke="#ff3300" stroke-width="0.75" stroke-miterlimit="10" d="M458.5-60.4l3.8-3.8c0.1-0.1,0.1-0.2,0-0.3
	c-0.1-0.1-0.2-0.1-0.3,0l-3.8,3.8l-1.3-1.3l-0.3,0.3l1.3,1.3l-0.4,0.4l0.3,0.3l0.4-0.4l3.8,3.8c0,0,0.1,0.1,0.2,0.1
	c0.1,0,0.1,0,0.2-0.1c0.1-0.1,0.1-0.2,0-0.3L458.5-60.4z"/>
<rect x="456.6" y="-59.4" transform="matrix(-0.7072 -0.707 0.707 -0.7072 821.7378 222.0573)" fill="#ff3300" stroke="#ff3300" stroke-width="0.75" stroke-miterlimit="10" width="0.5" height="0.5"/>
<rect x="456.3" y="-62.3" transform="matrix(0.7067 0.7075 -0.7075 0.7067 90.0166 -341.2171)" fill="#ff3300" stroke="#ff3300" stroke-width="0.75" stroke-miterlimit="10" width="0.5" height="0.5"/>
<g>
	<path fill="#ff3300" stroke="#ff3300" stroke-width="0.45" stroke-miterlimit="10" d="M302.8-103.9h-2.4c0.1-0.2,0.2-0.5,0.2-0.8
		v-2c0-1.8-1.5-3.3-3.3-3.3h-2.5c-1.8,0-3.3,1.5-3.3,3.3v2c0,0.3,0.1,0.6,0.2,0.8h-2.4c-1,0-1.8,0.8-1.8,1.8v8.3
		c0,1,0.8,1.8,1.8,1.8h13.5c1,0,1.8-0.8,1.8-1.8v-8.3C304.6-103.1,303.8-103.9,302.8-103.9z M292.4-104.7v-2c0-1.3,1.1-2.3,2.3-2.3
		h2.5c1.3,0,2.3,1.1,2.3,2.3v2c0,0.4-0.4,0.8-0.8,0.8h-5.6C292.8-103.9,292.4-104.3,292.4-104.7z M303.6-93.9c0,0.4-0.4,0.8-0.8,0.8
		h-13.5c-0.4,0-0.8-0.4-0.8-0.8v-8.3c0-0.4,0.4-0.8,0.8-0.8h4h5.6h4c0.4,0,0.8,0.4,0.8,0.8V-93.9z"/>
	<path fill="#ff3300" stroke="#ff3300" stroke-width="0.45" stroke-miterlimit="10" d="M296-100.6c-1,0-1.9,0.8-1.9,1.9
		c0,0.9,0.6,1.6,1.4,1.8v1.6c0,0.3,0.2,0.5,0.5,0.5s0.5-0.2,0.5-0.5v-1.6c0.8-0.2,1.4-0.9,1.4-1.8C297.9-99.7,297.1-100.6,296-100.6
		z M296-97.7c-0.5,0-0.9-0.4-0.9-0.9s0.4-0.9,0.9-0.9c0.5,0,0.9,0.4,0.9,0.9S296.5-97.7,296-97.7z"/>
</g>
<g>
	<path fill="#ff3300" stroke="#ff3300" stroke-width="0.45" stroke-miterlimit="10" d="M343.9-103h-2.4c0.1-0.2,0.2-0.5,0.2-0.8v-2
		c0-1.8-1.5-3.3-3.3-3.3h-2.5c-1.8,0-3.3,1.5-3.3,3.3c0,0.3,0.2,0.5,0.5,0.5s0.5-0.2,0.5-0.5c0-1.3,1.1-2.3,2.3-2.3h2.5
		c1.3,0,2.3,1.1,2.3,2.3v2c0,0.4-0.4,0.8-0.8,0.8h-5.6h-4c-1,0-1.8,0.8-1.8,1.8v8.3c0,1,0.8,1.8,1.8,1.8h13.5c1,0,1.8-0.8,1.8-1.8
		v-8.3C345.6-102.2,344.8-103,343.9-103z M344.7-92.9c0,0.4-0.4,0.8-0.8,0.8h-13.5c-0.4,0-0.8-0.4-0.8-0.8v-8.3
		c0-0.4,0.4-0.8,0.8-0.8h4h5.6h4c0.4,0,0.8,0.4,0.8,0.8V-92.9z"/>
	<path fill="#ff3300" stroke="#ff3300" stroke-width="0.45" stroke-miterlimit="10" d="M337.1-99.6c-1,0-1.9,0.8-1.9,1.9
		c0,0.9,0.6,1.6,1.4,1.8v1.6c0,0.3,0.2,0.5,0.5,0.5s0.5-0.2,0.5-0.5v-1.6c0.8-0.2,1.4-0.9,1.4-1.8C339-98.8,338.1-99.6,337.1-99.6z
		 M337.1-96.8c-0.5,0-0.9-0.4-0.9-0.9s0.4-0.9,0.9-0.9c0.5,0,0.9,0.4,0.9,0.9S337.6-96.8,337.1-96.8z"/>
</g>
<path fill="#ff3300" d="M183.8-109.7h-14.4c-1,0-1.8,0.8-1.8,1.8v14.4c0,1,0.8,1.8,1.8,1.8h14.4c1,0,1.8-0.8,1.8-1.8v-14.4
	C185.6-108.9,184.8-109.7,183.8-109.7z M181.4-103c0,0-5.8,5.8-5.8,5.8c-0.3,0.3-0.5,0.2-0.8,0l-2.8-2.8c-0.3-0.3-0.3-0.5,0-0.8
	c0.3-0.3,0.5-0.3,0.8,0l2.4,2.4l5.3-5.4c0.3-0.3,0.5-0.3,0.8,0C181.7-103.6,181.7-103.3,181.4-103z"/>
<path fill="#ff3300" stroke="#ff3300" stroke-width="0.5" stroke-miterlimit="10" d="M143.7-28.6c0.4,0,0.8,0.4,0.8,0.8v14.3
	c0,0.4-0.4,0.8-0.8,0.8h-14.3c-0.4,0-0.8-0.4-0.8-0.8v-14.3c0-0.4,0.4-0.8,0.8-0.8L143.7-28.6 M143.7-29.7h-14.3
	c-1,0-1.9,0.8-1.9,1.9v14.3c0,1,0.8,1.9,1.9,1.9h14.3c1,0,1.9-0.8,1.9-1.9v-14.3C145.5-28.9,144.7-29.7,143.7-29.7L143.7-29.7z"/>
<path fill="#ff3300" stroke="#ff3300" stroke-miterlimit="10" d="M462.7-140.4c0.1-0.1,0.1-0.2,0.1-0.3s0-0.2-0.1-0.3l-8.2-8.2
	c-0.2-0.2-0.5-0.2-0.6,0c-0.2,0.2-0.2,0.5,0,0.6l7.8,7.8l-7.8,7.8c-0.2,0.2-0.2,0.5,0,0.6s0.5,0.2,0.6,0L462.7-140.4z"/>
<path fill="#ff3300" stroke="#ff3300" stroke-miterlimit="10" d="M177.2-24.7c-0.1-0.1-0.2-0.1-0.3-0.1s-0.2,0-0.3,0.1l-8.2,8.2
	c-0.2,0.2-0.2,0.5,0,0.6c0.2,0.2,0.5,0.2,0.6,0l7.8-7.8l7.8,7.8c0.2,0.2,0.5,0.2,0.6,0c0.2-0.2,0.2-0.5,0-0.6L177.2-24.7z"/>
<path fill="#ff3300" stroke="#ff3300" stroke-miterlimit="10" d="M336.2-55.8c0.1,0.1,0.2,0.1,0.3,0.1c0.1,0,0.2,0,0.3-0.1l8.2-8.2
	c0.2-0.2,0.2-0.5,0-0.6s-0.5-0.2-0.6,0l-7.8,7.8l-7.8-7.8c-0.2-0.2-0.5-0.2-0.6,0c-0.2,0.2-0.2,0.5,0,0.6L336.2-55.8z"/>
<g transform="matrix( 1, 0, 0, 1, 0,0) ">
	<g>
		<g id="a_3_">
			<path fill="#ff3300" stroke="#ff3300" stroke-width="0.5" stroke-miterlimit="10" d="M207-65.3v7.2c0,0.9,0.3,1.7,1,2.4
				c0.7,0.7,1.5,1,2.4,1v2.6c0,0.1,0,0.2,0.1,0.3c0,0.1,0.1,0.1,0.2,0.2c0.1,0,0.1,0,0.2,0c0.1,0,0.2,0,0.3-0.1l3-2.9h8.3
				c1,0,1.8-0.3,2.5-1c0.7-0.7,1-1.5,1-2.4v-7.2c0-1-0.3-1.8-1-2.4c-0.7-0.7-1.5-1-2.5-1h-12.1c-1,0-1.8,0.3-2.5,1
				C207.3-67,207-66.2,207-65.3 M210.5-67.8h12.1c0.7,0,1.3,0.2,1.8,0.7c0.5,0.5,0.8,1.1,0.8,1.8v7.2c0,0.7-0.3,1.3-0.8,1.8
				c-0.5,0.5-1.1,0.8-1.8,0.8h-8.5c-0.1,0-0.2,0-0.3,0.1l-2.3,2.3v-2c0-0.1,0-0.2-0.1-0.3c-0.1-0.1-0.2-0.1-0.3-0.1h-0.4
				c-0.7,0-1.3-0.3-1.8-0.8c-0.5-0.5-0.8-1.1-0.8-1.8v-7.2c0-0.7,0.3-1.3,0.8-1.8C209.2-67.5,209.8-67.8,210.5-67.8z"/>
			<path fill="#ff3300" stroke="#ff3300" stroke-width="0.5" stroke-miterlimit="10" d="M221.7-60.8c0.2-0.2,0.4-0.5,0.4-0.8
				c0-0.3-0.1-0.6-0.4-0.8c-0.2-0.2-0.5-0.4-0.9-0.4c-0.3,0-0.6,0.1-0.9,0.4c-0.2,0.2-0.4,0.5-0.4,0.8c0,0.3,0.1,0.6,0.4,0.8
				c0.2,0.2,0.5,0.3,0.9,0.3C221.2-60.5,221.5-60.6,221.7-60.8 M213.4-61.7c0-0.3-0.1-0.6-0.4-0.8c-0.2-0.2-0.5-0.4-0.9-0.4
				s-0.6,0.1-0.9,0.4c-0.2,0.2-0.4,0.5-0.4,0.8c0,0.3,0.1,0.6,0.4,0.8c0.2,0.2,0.5,0.3,0.9,0.3s0.6-0.1,0.9-0.3
				C213.3-61.1,213.4-61.4,213.4-61.7 M215.7-62.5c-0.2,0.2-0.4,0.5-0.4,0.8c0,0.3,0.1,0.6,0.4,0.8c0.2,0.2,0.5,0.3,0.9,0.3
				s0.6-0.1,0.9-0.3c0.2-0.2,0.4-0.5,0.4-0.8c0-0.3-0.1-0.6-0.4-0.8c-0.2-0.2-0.5-0.4-0.9-0.4S215.9-62.7,215.7-62.5z"/>
		</g>
	</g>
</g>
<path fill="#ff3300" stroke="#ff3300" stroke-width="0.45" stroke-miterlimit="10" d="M100.1-13.2h-2v2H87v-15.2h2v-2h2v-2h11.1
	v15.2h-2L100.1-13.2L100.1-13.2z M97.6-25.8H87.5v14.2h10.1V-25.8z M89-23.8v-0.5h7.1v0.5H89z M89-21.8v-0.5h7.1v0.5H89z M89-19.8
	v-0.5h7.1v0.5H89z M89-17.8v-0.5h7.1v0.5H89z M89-15.7v-0.5h7.1v0.5H89z M89-13.7v-0.5h7.1v0.5H89z M89.5-27.9v1.5h8.6v12.6h1.5
	v-14.2H89.5z M91.5-29.9v1.5h8.6v12.6h1.5v-14.2H91.5z"/>
<path fill="#ff3300" d="M175.9,9.5c0,0-0.1,0-0.1,0.1l-5.2,8.4c-0.1,0.1,0,0.2,0.1,0.2h10.4c0.1,0,0.2-0.1,0.1-0.2l-5.2-8.4
	C176,9.5,176,9.5,175.9,9.5L175.9,9.5z M170.7,19.9c-0.1,0-0.2,0.1-0.1,0.2l5.2,8.4c0.1,0.1,0.2,0.1,0.2,0l5.2-8.4
	c0.1-0.1,0-0.2-0.1-0.2H170.7L170.7,19.9z"/>
<path fill="#ff3300" stroke="#ff3300" stroke-width="0.75" stroke-miterlimit="10" d="M456.3-70.1c-5.3,0-9.6,4.3-9.6,9.6
	s4.3,9.6,9.6,9.6s9.6-4.3,9.6-9.6S461.6-70.1,456.3-70.1z M456.3-51.8c-4.8,0-8.7-3.9-8.7-8.7s3.9-8.7,8.7-8.7s8.7,3.9,8.7,8.7
	S461.1-51.8,456.3-51.8z"/>
<g>
	<path fill="#ff3300" stroke="#ff3300" stroke-width="0.75" stroke-miterlimit="10" d="M256.1-20.5c-1.9,0-3.5,1.2-4.1,2.9h0.4
		c0.6-1.6,1.9-2.5,3.7-2.5c2.1,0,3.9,1.8,3.9,3.9s-1.8,3.9-3.9,3.9c-1.6,0-2.9-1-3.5-2.3h-0.4c0.6,1.6,2.1,2.7,3.9,2.7
		c2.3,0,4.3-1.9,4.3-4.3S258.4-20.5,256.1-20.5z"/>
	<path fill="#ff3300" stroke="#ff3300" stroke-width="0.75" stroke-miterlimit="10" d="M256.1-18.9v3.3h2.5v0.4h-2.9
		c0-1.2,0-2.7,0-3.7L256.1-18.9z"/>
</g>
<path fill="#ff3300" stroke="#ff3300" stroke-miterlimit="10" d="M224.9-20.6c-0.2,0-0.3,0.1-0.3,0.3v5c0,1.6-1.3,2.9-2.9,2.9h-10.6
	c-1.6,0-2.9-1.3-2.9-2.9v-8.4v-2.2c0-1.6,1.3-2.9,2.9-2.9h4.9c0.2,0,0.3-0.1,0.3-0.3c0-0.2-0.1-0.3-0.3-0.3h-4.9
	c-1.9,0-3.5,1.6-3.5,3.5v2.2v8.4c0,1.9,1.6,3.5,3.5,3.5h10.6c1.9,0,3.5-1.6,3.5-3.5v-5C225.2-20.5,225.1-20.6,224.9-20.6z"/>
<g>
	<g>
		<path fill="#ff3300" d="M225.5-29.5c0.6,0.6,0.6,1.5,0,2.1l-0.7,0.7l-2.1-2.1l0.7-0.7C224-30.1,225-30.1,225.5-29.5z"/>
		<polygon fill="#ff3300" points="215.3,-21.3 214.6,-18.6 217.3,-19.3 224.2,-26.1 222.1,-28.2 		"/>
	</g>
</g>
<path fill="#ff3300" stroke="#ff3300" stroke-width="0.75" stroke-miterlimit="10" d="M384.9,19.7c-0.2,0-0.3,0.1-0.3,0.3v5
	c0,1.6-1.3,2.9-2.9,2.9h-10.5c-1.6,0-2.9-1.3-2.9-2.9v-8.4v-2.2c0-1.6,1.3-2.9,2.9-2.9h4.9c0.2,0,0.3-0.1,0.3-0.3
	c0-0.2-0.1-0.3-0.3-0.3h-4.9c-1.9,0-3.5,1.5-3.5,3.5v2.2v8.4c0,1.9,1.5,3.5,3.5,3.5h10.5c1.9,0,3.5-1.5,3.5-3.5v-5
	C385.2,19.8,385.1,19.7,384.9,19.7z"/>
<path fill="#ff3300" stroke="#ff3300" stroke-width="0.75" stroke-miterlimit="10" d="M345.4-140.7c-0.2,0-0.3,0.1-0.3,0.3v5.3
	c0,1.7-1.4,3.1-3.1,3.1h-11.3c-1.7,0-3.1-1.4-3.1-3.1v-9v-2.3c0-1.7,1.4-3.1,3.1-3.1h5.3c0.2,0,0.3-0.1,0.3-0.3
	c0-0.2-0.1-0.3-0.3-0.3h-5.3c-2,0-3.7,1.7-3.7,3.7v2.3v9c0,2,1.7,3.7,3.7,3.7H342c2,0,3.7-1.7,3.7-3.7v-5.3
	C345.7-140.6,345.6-140.7,345.4-140.7z"/>
<g>
	<path fill="#ff3300" d="M346.1-150.3c0.6,0.6,0.6,1.6,0,2.2l-0.7,0.7l-2.2-2.2l0.7-0.7C344.5-150.9,345.5-150.9,346.1-150.3z"/>
	<polygon fill="#ff3300" points="335.1,-141.5 334.4,-138.6 337.3,-139.3 344.6,-146.6 342.4,-148.8 	"/>
</g>
<path fill="#ff3300" stroke="#ff3300" stroke-width="0.75" stroke-miterlimit="10" d="M264.5-141.6h-7.1v-7.1c0-0.5-0.4-0.8-0.8-0.8
	c-0.5,0-0.8,0.4-0.8,0.8v7.1h-7.1c-0.5,0-0.8,0.4-0.8,0.8c0,0.5,0.4,0.8,0.8,0.8h7.1v7.1c0,0.5,0.4,0.8,0.8,0.8
	c0.5,0,0.8-0.4,0.8-0.8v-7.1h7.1c0.5,0,0.8-0.4,0.8-0.8C265.3-141.3,265-141.6,264.5-141.6z"/>
<path fill="#ff3300" stroke="#ff3300" stroke-width="0.75" stroke-miterlimit="10" d="M225.4-132.5l-4.2-4.2c2.7-3,2.6-7.7-0.3-10.6
	c-3-3-7.9-3-11,0c-3,3-3,7.9,0,11c1.5,1.5,3.5,2.3,5.5,2.3c1.8,0,3.7-0.7,5.1-2l4.2,4.2c0.1,0.1,0.2,0.1,0.3,0.1s0.2,0,0.3-0.1
	C225.6-132.1,225.6-132.3,225.4-132.5z M210.5-137.1c-2.7-2.7-2.7-7,0-9.7c1.3-1.3,3.1-2,4.8-2c1.8,0,3.5,0.7,4.8,2
	c2.7,2.7,2.7,7,0,9.7C217.5-134.4,213.2-134.4,210.5-137.1z"/>
<path fill="#ff3300" stroke="#ff3300" stroke-width="0.75" stroke-miterlimit="10" d="M301.4-12.6l-2.1-2.1c1.4-1.5,1.3-3.9-0.2-5.4
	c-1.5-1.5-4-1.5-5.5,0c-1.5,1.5-1.5,4,0,5.5c0.8,0.8,1.8,1.1,2.8,1.1c0.9,0,1.9-0.3,2.6-1l2.1,2.1c0,0,0.1,0.1,0.2,0.1
	s0.1,0,0.2-0.1C301.5-12.4,301.5-12.5,301.4-12.6z M293.9-14.9c-1.3-1.3-1.3-3.5,0-4.9c0.7-0.7,1.6-1,2.4-1s1.8,0.3,2.4,1
	c1.3,1.3,1.3,3.5,0,4.9C297.4-13.6,295.2-13.6,293.9-14.9z"/>
<path fill="#ff3300" stroke="#ff3300" stroke-width="0.75" stroke-miterlimit="10" d="M96.5-149.9c-5,0-9.1,4.1-9.1,9.1
	c0,5,4.1,9.1,9.1,9.1c5,0,9.1-4.1,9.1-9.1C105.6-145.8,101.5-149.9,96.5-149.9z M96.5-132.4c-4.6,0-8.3-3.7-8.3-8.3
	c0-4.6,3.7-8.3,8.3-8.3c4.6,0,8.3,3.7,8.3,8.3C104.8-136.2,101.1-132.4,96.5-132.4z"/>
<path fill="#ff3300" stroke="#ff3300" stroke-miterlimit="10" d="M305.9-149.5v5c0,0.2-0.1,0.3-0.3,0.3s-0.3-0.1-0.3-0.3v-4.4
	l-8.6,8.6c-0.1,0.1-0.1,0.1-0.2,0.1s-0.1,0-0.2-0.1c-0.1-0.1-0.1-0.3,0-0.4l8.6-8.6h-4.4c-0.2,0-0.3-0.1-0.3-0.3
	c0-0.2,0.1-0.3,0.3-0.3h5C305.8-149.7,305.9-149.6,305.9-149.5z"/>
<path fill="#ff3300" stroke="#ff3300" stroke-width="0.75" stroke-miterlimit="10" d="M305.1-140.4c-0.2,0-0.3,0.1-0.3,0.3v5.1
	c0,1.7-1.3,3-3,3H291c-1.7,0-3-1.3-3-3v-8.6v-2.2c0-1.7,1.3-3,3-3h5.1c0.2,0,0.3-0.1,0.3-0.3c0-0.2-0.1-0.3-0.3-0.3H291
	c-2,0-3.6,1.6-3.6,3.6v2.2v8.6c0,2,1.6,3.6,3.6,3.6h10.9c2,0,3.6-1.6,3.6-3.6v-5.1C305.4-140.3,305.3-140.4,305.1-140.4z"/>
<path fill="#ff3300" stroke="#ff3300" stroke-width="0.5" stroke-miterlimit="10" d="M145.9-136.9v-7.9c0-0.2,0.1-1.8-0.5-2.5
	c-0.4-0.5-1.2-0.6-2-0.6H143c-0.1,0-0.3,0-0.6,0v-0.7c0-0.2-0.2-0.4-0.4-0.4s-0.4,0.2-0.4,0.4v0.8c-2.5,0-8,0-10.5,0v-0.8
	c0-0.2-0.2-0.4-0.4-0.4s-0.2,0.2-0.2,0.4v0.8c-0.3,0-0.5,0-0.6,0h-0.3c-0.9,0-1.7,0-2,0.6c-0.6,0.6-0.5,2.2-0.5,2.4v11.6
	c0,0.2,0.2,0.4,0.4,0.4H142c0.1,0,0.2,0,0.3-0.1l0,0l3.6-3.7l0,0l0,0l0,0c0,0,0,0,0-0.1S145.9-136.8,145.9-136.9z M128.1-146.9
	c0.2-0.3,0.9-0.3,1.6-0.3h0.4c0.1,0,0.3,0,0.6,0v0.5c0,0.2,0.2,0.4,0.4,0.4s0.3-0.2,0.3-0.4v-0.5c2.5,0,8,0,10.5,0v0.5
	c0,0.2,0.2,0.4,0.4,0.4s0.4-0.2,0.4-0.4v-0.5c0.3,0,0.5,0,0.6,0h0.4c0.7,0,1.3,0,1.6,0.3c0.1,0.3,0.1,1.1,0.1,1.7h-17.4
	C127.8-145.8,127.9-146.6,128.1-146.9z M127.8-144.4h17.4v7.2h-3.3c-0.2,0-0.4,0.2-0.4,0.4v3.4h-13.7V-144.4z M144.7-136.5l-2.4,2.5
	v-2.5H144.7z"/>
<g>
	<rect x="131.5" y="-142.5" fill="#ff3300" width="1.9" height="1.4"/>
	<rect x="134.2" y="-142.5" fill="#ff3300" width="1.9" height="1.4"/>
	<rect x="136.9" y="-142.5" fill="#ff3300" width="1.9" height="1.4"/>
	<rect x="139.6" y="-142.5" fill="#ff3300" width="1.9" height="1.4"/>
	<rect x="131.5" y="-140.3" fill="#ff3300" width="1.9" height="1.4"/>
	<rect x="134.2" y="-140.3" fill="#ff3300" width="1.9" height="1.4"/>
	<rect x="136.9" y="-140.3" fill="#ff3300" width="1.9" height="1.4"/>
	<rect x="139.6" y="-140.3" fill="#ff3300" width="1.9" height="1.4"/>
	<rect x="131.5" y="-138.1" fill="#ff3300" width="1.9" height="1.4"/>
	<rect x="134.2" y="-138.1" fill="#ff3300" width="1.9" height="1.4"/>
	<rect x="136.9" y="-138.1" fill="#ff3300" width="1.9" height="1.4"/>
	<rect x="139.6" y="-138.1" fill="#ff3300" width="1.9" height="1.4"/>
</g>
<g>
	<g>
		<path fill="#EF3C24" d="M177.1-149.6c-0.1-0.2-0.3-0.3-0.5-0.3s-0.4,0.1-0.5,0.3l-9.2,16c-0.1,0.2-0.1,0.4,0,0.6
			c0.1,0.2,0.3,0.3,0.5,0.3h18.5l0,0c0.3,0,0.6-0.3,0.6-0.6c0-0.1,0-0.3-0.1-0.4L177.1-149.6z M168.4-133.9l8.1-14.1l8.1,14.1H168.4
			z"/>
		<path fill="#EF3C24" d="M175.9-143.7v4.9c0,0.3,0.3,0.6,0.6,0.6c0.3,0,0.6-0.3,0.6-0.6v-4.9c0-0.3-0.3-0.6-0.6-0.6
			C176.2-144.3,175.9-144,175.9-143.7z"/>
		<path fill="#EF3C24" d="M176.5-137.3c-0.3,0-0.6,0.3-0.6,0.6v0.4c0,0.3,0.3,0.6,0.6,0.6c0.3,0,0.6-0.3,0.6-0.6v-0.4
			C177.1-137,176.9-137.3,176.5-137.3z"/>
	</g>
</g>
<g>
	<g>
		<path fill="#F26722" d="M96.7-189.5c-0.1-0.2-0.3-0.3-0.5-0.3s-0.4,0.1-0.5,0.3l-9.2,16c-0.1,0.2-0.1,0.4,0,0.6s0.3,0.3,0.5,0.3
			h18.5l0,0c0.3,0,0.6-0.3,0.6-0.6c0-0.1,0-0.3-0.1-0.4L96.7-189.5z M88-173.9l8.1-14.1l8.1,14.1H88z"/>
		<path fill="#F26722" d="M95.5-183.6v4.9c0,0.3,0.3,0.6,0.6,0.6c0.3,0,0.6-0.3,0.6-0.6v-4.9c0-0.3-0.3-0.6-0.6-0.6
			S95.5-183.9,95.5-183.6z"/>
		<path fill="#F26722" d="M96.1-177.2c-0.3,0-0.6,0.3-0.6,0.6v0.4c0,0.3,0.3,0.6,0.6,0.6s0.6-0.3,0.6-0.6v-0.4
			C96.7-176.9,96.4-177.2,96.1-177.2z"/>
	</g>
</g>
<polygon fill="#ff3300" points="91.7,-141 94.1,-141 94.1,-137.5 98.9,-137.5 98.9,-141 101.3,-141 96.5,-145.8 "/>
<path fill="#ff3300" stroke="#ff3300" stroke-width="0.75" stroke-miterlimit="10" d="M376.3-29.9c-5.1,0-9.2,4.1-9.2,9.2
	c0,5.1,4.1,9.2,9.2,9.2s9.2-4.1,9.2-9.2C385.5-25.7,381.4-29.9,376.3-29.9z M376.3-12.3c-4.6,0-8.4-3.8-8.4-8.4
	c0-4.6,3.8-8.4,8.4-8.4s8.4,3.8,8.4,8.4C384.7-16.1,381-12.3,376.3-12.3z"/>
<path fill="#ff3300" stroke="#ff3300" stroke-width="0.75" stroke-miterlimit="10" d="M456.5-29.9c-5.1,0-9.2,4.1-9.2,9.2
	c0,5.1,4.1,9.2,9.2,9.2s9.2-4.1,9.2-9.2C465.7-25.7,461.6-29.9,456.5-29.9z M456.5-12.3c-4.6,0-8.4-3.8-8.4-8.4
	c0-4.6,3.8-8.4,8.4-8.4c4.6,0,8.4,3.8,8.4,8.4C464.9-16.1,461.1-12.3,456.5-12.3z"/>
<path fill="#ff3300" stroke="#ff3300" stroke-width="0.75" stroke-miterlimit="10" d="M97.3-56.7l1.9-1.9c0,0,0-0.1,0-0.2
	c0,0-0.1,0-0.2,0l-1.9,1.9l-1.9-1.9c0,0-0.1,0-0.2,0c0,0,0,0.1,0,0.2l1.9,1.9l-1.9,1.9c0,0,0,0.1,0,0.2c0,0,0.1,0,0.1,0s0.1,0,0.1,0
	l1.9-1.9l1.9,1.9c0,0,0.1,0,0.1,0s0.1,0,0.1,0c0,0,0-0.1,0-0.2L97.3-56.7z"/>
<path fill="#ff3300" stroke="#ff3300" stroke-width="0.75" stroke-miterlimit="10" d="M97.1-61.5c-2.7,0-4.8,2.2-4.8,4.8
	c0,2.7,2.2,4.8,4.8,4.8s4.8-2.2,4.8-4.8C102-59.3,99.8-61.5,97.1-61.5z M97.1-52.3c-2.4,0-4.4-2-4.4-4.4c0-2.4,2-4.4,4.4-4.4
	s4.4,2,4.4,4.4C101.5-54.2,99.6-52.3,97.1-52.3z"/>
<rect x="136.1" y="-109.4" transform="matrix(-0.5425 -0.8401 0.8401 -0.5425 295.1903 -40.7478)" fill="#ff3300" stroke="#ff3300" stroke-width="0.75" stroke-miterlimit="10" width="0.8" height="17.2"/>
<path fill="#ff3300" stroke="#ff3300" stroke-width="0.75" stroke-miterlimit="10" d="M136.4-109.7c-4.8,0-8.8,3.9-8.8,8.8
	c0,4.8,3.9,8.8,8.8,8.8s8.8-3.9,8.8-8.8C145.2-105.8,141.2-109.7,136.4-109.7z M136.4-92.9c-4.4,0-8-3.6-8-8c0-4.4,3.6-8,8-8
	c4.4,0,8,3.6,8,8C144.4-96.5,140.8-92.9,136.4-92.9z"/>
<g>
	<path fill="#ff3300" stroke="#ff3300" stroke-width="0.75" stroke-miterlimit="10" d="M376.7-55.1c0.3,0,0.5-0.2,0.5-0.5v-7.1
		c0-0.3-0.2-0.5-0.5-0.5s-0.5,0.2-0.5,0.5v7.1C376.2-55.4,376.4-55.1,376.7-55.1z"/>
	<path fill="#ff3300" stroke="#ff3300" stroke-width="0.75" stroke-miterlimit="10" d="M376.6-64.6c0.3,0,0.5-0.2,0.5-0.5v-1
		c0-0.3-0.2-0.5-0.5-0.5c-0.3,0-0.5,0.2-0.5,0.5v1C376.1-64.8,376.3-64.6,376.6-64.6z"/>
</g>
<path fill="#ff3300" stroke="#ff3300" stroke-width="0.75" stroke-miterlimit="10" d="M376.6-69.7c-4.9,0-8.9,4-8.9,8.9
	c0,4.9,4,8.9,8.9,8.9c4.9,0,8.9-4,8.9-8.9C385.5-65.8,381.5-69.7,376.6-69.7z M376.6-52.7c-4.5,0-8.1-3.6-8.1-8.1
	c0-4.5,3.6-8.1,8.1-8.1s8.1,3.6,8.1,8.1C384.7-56.4,381.1-52.7,376.6-52.7z"/>
<path fill="#ff3300" stroke="#ff3300" stroke-width="0.75" stroke-miterlimit="10" d="M256.6-69.8c-5.2,0-9.4,4.2-9.4,9.4
	c0,5.2,4.2,9.4,9.4,9.4s9.4-4.2,9.4-9.4C266-65.6,261.8-69.8,256.6-69.8z M256.6-51.9c-4.7,0-8.5-3.8-8.5-8.5c0-4.7,3.8-8.5,8.5-8.5
	c4.7,0,8.5,3.8,8.5,8.5C265.2-55.7,261.4-51.9,256.6-51.9z"/>
<polygon fill="#ff3300" points="261.5,-60.9 259.1,-60.9 259.1,-64.5 254.2,-64.5 254.2,-60.9 251.7,-60.9 256.6,-56 "/>
<path fill="#ff3300" stroke="#ff3300" stroke-width="0.75" stroke-miterlimit="10" d="M96.4-109.5c-4.9,0-8.8,4-8.8,8.8
	c0,4.9,4,8.8,8.8,8.8c4.9,0,8.8-4,8.8-8.8C105.3-105.5,101.3-109.5,96.4-109.5z M96.4-92.6c-4.4,0-8-3.6-8-8c0-4.4,3.6-8,8-8
	s8,3.6,8,8C104.5-96.2,100.9-92.6,96.4-92.6z"/>
<polygon fill="#ff3300" points="101,-101.1 98.7,-101.1 98.7,-104.5 94.1,-104.5 94.1,-101.1 91.8,-101.1 96.4,-96.4 "/>
<path fill="#ff3300" stroke="#ff3300" stroke-width="0.75" stroke-miterlimit="10" d="M417-149.8c-5,0-9,4.1-9,9c0,5,4.1,9,9,9
	s9-4.1,9-9C426.1-145.8,422-149.8,417-149.8z M417-132.5c-4.5,0-8.2-3.7-8.2-8.2c0-4.5,3.7-8.2,8.2-8.2s8.2,3.7,8.2,8.2
	C425.3-136.2,421.6-132.5,417-132.5z"/>
<path fill="#ff3300" stroke="#ff3300" stroke-width="0.75" stroke-miterlimit="10" d="M221.5-104.4c-0.1-0.1-0.3-0.1-0.4,0l-6.8,6.8
	l-2.2-2.2c-0.1-0.1-0.3-0.1-0.4,0s-0.1,0.3,0,0.4l2.4,2.4c0.1,0.1,0.1,0.1,0.2,0.1c0.1,0,0.1,0,0.2-0.1l7-7
	C221.6-104.1,221.6-104.3,221.5-104.4z"/>
<path fill="#ff3300" stroke="#ff3300" stroke-width="0.75" stroke-miterlimit="10" d="M139.6-58.9c-0.1-0.1-0.2-0.1-0.2,0l-3.6,3.6
	l-1.2-1.2c-0.1-0.1-0.2-0.1-0.2,0c-0.1,0.1-0.1,0.2,0,0.2l1.3,1.3c0,0,0.1,0,0.1,0c0,0,0.1,0,0.1,0l3.8-3.8
	C139.6-58.7,139.6-58.8,139.6-58.9z"/>
<path fill="#ff3300" stroke="#ff3300" stroke-width="0.45" stroke-miterlimit="10" d="M216.6-110.1c-5.2,0-9.5,4.2-9.5,9.5
	c0,5.2,4.2,9.5,9.5,9.5c5.2,0,9.5-4.2,9.5-9.5C226-105.9,221.8-110.1,216.6-110.1z M216.6-92c-4.8,0-8.6-3.9-8.6-8.6
	c0-4.8,3.9-8.6,8.6-8.6c4.8,0,8.6,3.9,8.6,8.6C225.2-95.9,221.3-92,216.6-92z"/>
<g>
	<path fill="#ff3300" stroke="#ff3300" stroke-width="0.75" stroke-miterlimit="10" d="M420.1-63.9c0.1-0.1,0.1-0.3,0-0.4
		c-0.1-0.1-0.3-0.1-0.4,0l-4.4,4.4l0.4,0.4L420.1-63.9z"/>
	<path fill="#ff3300" stroke="#ff3300" stroke-width="0.75" stroke-miterlimit="10" d="M412.9-57.5l-2.1-2.1c-0.1-0.1-0.3-0.1-0.4,0
		c-0.1,0.1-0.1,0.3,0,0.4l2.3,2.3c0.1,0.1,0.1,0.1,0.2,0.1c0.1,0,0.1,0,0.2-0.1l0.2-0.2L412.9-57.5L412.9-57.5z"/>
	<path fill="#ff3300" stroke="#ff3300" stroke-width="0.75" stroke-miterlimit="10" d="M413.4-59.9c-0.1-0.1-0.3-0.1-0.4,0
		c-0.1,0.1-0.1,0.3,0,0.4l0.9,0.9l0.4-0.4L413.4-59.9z"/>
	<path fill="#ff3300" stroke="#ff3300" stroke-width="0.75" stroke-miterlimit="10" d="M422.7-64.5c-0.1-0.1-0.3-0.1-0.4,0l-6.8,6.8
		l-0.8-0.8l-0.4,0.4l1,1c0.1,0.1,0.1,0.1,0.2,0.1c0.1,0,0.1,0,0.2-0.1l7-7C422.8-64.2,422.8-64.4,422.7-64.5z"/>
	
		<rect x="414.1" y="-58.8" transform="matrix(0.7074 -0.7068 0.7068 0.7074 162.6222 275.7428)" fill="#ff3300" stroke="#ff3300" stroke-width="0.75" stroke-miterlimit="10" width="0.6" height="0.6"/>
</g>
<path fill="#ff3300" stroke="#ff3300" stroke-width="0.75" stroke-miterlimit="10" d="M416.5-70.1c-5.2,0-9.4,4.2-9.4,9.4
	c0,5.2,4.2,9.4,9.4,9.4s9.4-4.2,9.4-9.4C425.9-65.9,421.7-70.1,416.5-70.1z M416.5-52.1c-4.7,0-8.6-3.8-8.6-8.6
	c0-4.7,3.8-8.6,8.6-8.6c4.7,0,8.6,3.8,8.6,8.6C425.1-56,421.3-52.1,416.5-52.1z"/>
<circle fill="#ff3300" cx="296.7" cy="-60.5" r="5.2"/>
<path fill="#ff3300" stroke="#ff3300" stroke-width="0.75" stroke-miterlimit="10" d="M296.7-69.5c-4.9,0-9,4-9,9c0,4.9,4,9,9,9
	s9-4,9-9C305.6-65.4,301.6-69.5,296.7-69.5z M296.7-52.3c-4.5,0-8.2-3.7-8.2-8.2c0-4.5,3.7-8.2,8.2-8.2c4.5,0,8.2,3.7,8.2,8.2
	C304.9-56,301.2-52.3,296.7-52.3z"/>
<circle fill="#ff3300" cx="376.4" cy="-140.9" r="5.2"/>
<path fill="#ff3300" stroke="#ff3300" stroke-width="0.75" stroke-miterlimit="10" d="M376.4-149.9c-5,0-9.1,4.1-9.1,9.1
	c0,5,4.1,9.1,9.1,9.1c5,0,9.1-4.1,9.1-9.1C385.4-145.9,381.4-149.9,376.4-149.9z M376.4-132.6c-4.6,0-8.3-3.7-8.3-8.3
	c0-4.6,3.7-8.3,8.3-8.3s8.3,3.7,8.3,8.3C384.6-136.3,380.9-132.6,376.4-132.6z"/>
<g>
	<path fill="#ff3300" d="M381.2-106.1v3.5h1v-3.9c0-0.2-0.1-0.3-0.2-0.4l-3.3-2.9c-0.1-0.1-0.3-0.1-0.4-0.1h-9.4
		c-0.3,0-0.6,0.3-0.6,0.6v17.4c0,0.3,0.3,0.6,0.6,0.6h12.7c0.3,0,0.6-0.3,0.6-0.6v-4.6h-1v4.2h-11.9V-109h8.8v2.9H381.2z"/>
	<g>
		<path fill="#ff3300" d="M377-100.3c-0.1,0-0.2,0-0.4,0h-0.2v0.7h0.3c0.2,0,0.3,0,0.4,0c0.1,0,0.1-0.1,0.2-0.1
			c0-0.1,0.1-0.1,0.1-0.2c0-0.1,0-0.2-0.1-0.2C377.2-100.3,377.1-100.3,377-100.3z"/>
		<path fill="#ff3300" d="M379.5-100.2c-0.1-0.1-0.1-0.1-0.2-0.1c-0.1,0-0.2,0-0.4,0h-0.2v1.6h0.4c0.1,0,0.2,0,0.3,0
			c0.1,0,0.1-0.1,0.2-0.1c0.1,0,0.1-0.1,0.1-0.2c0-0.1,0-0.3,0-0.4s0-0.3,0-0.4C379.6-100.1,379.6-100.1,379.5-100.2z"/>
		<path fill="#ff3300" d="M382.9-101.9H375c-0.4,0-0.7,0.3-0.7,0.7v3.4c0,0.4,0.3,0.7,0.7,0.7h7.9c0.4,0,0.7-0.3,0.7-0.7v-3.4
			C383.6-101.6,383.3-101.9,382.9-101.9z M377.7-99.6c-0.1,0.1-0.1,0.2-0.2,0.2c-0.1,0.1-0.2,0.1-0.3,0.1c-0.1,0-0.3,0-0.5,0h-0.3
			v0.9h-0.5v-2.4h0.8c0.3,0,0.5,0,0.6,0c0.1,0,0.3,0.1,0.3,0.2c0.1,0.1,0.1,0.3,0.1,0.5C377.8-99.9,377.8-99.7,377.7-99.6z
			 M380.1-99c-0.1,0.2-0.1,0.3-0.3,0.4c-0.1,0.1-0.2,0.1-0.3,0.2c-0.1,0-0.3,0.1-0.4,0.1h-0.9v-2.4h0.9c0.2,0,0.4,0,0.5,0
			c0.1,0,0.3,0.1,0.4,0.2c0.1,0.1,0.2,0.2,0.2,0.4c0.1,0.2,0.1,0.3,0.1,0.6C380.2-99.3,380.2-99.1,380.1-99z M382.2-100.3H381v0.6h1
			v0.4h-1v1h-0.5v-2.4h1.7V-100.3z"/>
	</g>
</g>
<path fill="#ff3300" stroke="#ff3300" stroke-width="0.5" stroke-miterlimit="10" d="M425.5-105.6c-0.1-0.1-0.4-0.1-0.5,0l-9.1,9.1
	l-2.9-2.9c-0.1-0.1-0.4-0.1-0.5,0c-0.1,0.1-0.1,0.4,0,0.5l3.1,3.1c0.1,0.1,0.2,0.1,0.3,0.1c0.1,0,0.2,0,0.3-0.1l9.4-9.4
	C425.7-105.2,425.7-105.4,425.5-105.6z"/>
<path fill="#ff3300" d="M419.8-106.2v3.5h1v-3.8c0-0.2-0.1-0.3-0.2-0.4l-3.2-2.9c-0.1-0.1-0.3-0.1-0.4-0.1h-9.3
	c-0.3,0-0.6,0.3-0.6,0.6v17.2c0,0.3,0.3,0.6,0.6,0.6h12.5c0.3,0,0.6-0.3,0.6-0.6v-4.5h-1v4.2H408v-16.5h8.7v2.9H419.8z"/>
<rect x="251.4" y="-101.8" fill="#ff3300" width="9.1" height="0.8"/>
<rect x="251.4" y="-99.5" fill="#ff3300" width="9.1" height="0.8"/>
<rect x="251.4" y="-104.1" fill="#ff3300" width="5.3" height="0.8"/>
<rect x="251.4" y="-97.3" fill="#ff3300" width="9.1" height="0.8"/>
<path fill="#ff3300" d="M261.9-106.5v10.3h1v-10.7c0-0.2-0.1-0.3-0.2-0.5l-3.4-3.1c-0.1-0.1-0.3-0.2-0.4-0.2h-9.8
	c-0.4,0-0.6,0.3-0.6,0.6v18.3c0,0.4,0.3,0.6,0.6,0.6h13.3c0.4,0,0.6-0.3,0.6-0.6v-4.8h-1v4.4h-12.5v-17.5h9.2v3H261.9z"/>
<g>
	<path fill="#ff3300" d="M169-69.9v16.3h1.1v-15.1h6.9v5.1h5.1v10h1.1v-10.9l-5.4-5.4H169z M178.2-64.8v-3.1l3.1,3.1H178.2z"/>
	<polygon fill="#ff3300" points="174,-54.4 174,-51.6 178.3,-51.6 178.3,-54.4 181,-54.4 176.1,-58.3 171.3,-54.4 	"/>
</g>
<g>
	<path fill="#ff3300" d="M448.4-110.7v17.9h1.3v-16.6h7.5v5.6h5.6v11h1.3v-11.9l-6-6H448.4z M458.4-105.2v-3.4l3.4,3.4H458.4z"/>
	<polygon fill="#ff3300" points="458.5,-95 458.5,-98 453.8,-98 453.8,-95 450.8,-95 456.2,-90.7 461.5,-95 	"/>
</g>
<path fill="#ff3300" d="M484.3-110.7v17.9h1.3v-16.6h7.5v5.6h5.6v11h1.3v-11.9l-6-6H484.3z M494.4-105.2v-3.4l3.4,3.4H494.4z"/>
<path fill="#ff3300" d="M89.5-70v17.5h1.2v-16.3h7.4v5.5h5.5v10.8h1.2v-11.7L99-70H89.5z M99.3-64.5v-3.4l3.4,3.4H99.3z"/>
<path fill="#ff3300" stroke="#ff3300" stroke-width="0.75" stroke-miterlimit="10" d="M137.1-61.6c-2.6,0-4.6,2.1-4.6,4.6
	c0,2.6,2.1,4.6,4.6,4.6s4.6-2.1,4.6-4.6C141.7-59.5,139.6-61.6,137.1-61.6z M137.1-52.7c-2.3,0-4.2-1.9-4.2-4.2
	c0-2.3,1.9-4.2,4.2-4.2s4.2,1.9,4.2,4.2C141.3-54.6,139.4-52.7,137.1-52.7z"/>
<path fill="#ff3300" d="M129.7-70v17.1h1.2v-15.9h7.2v5.3h5.3v10.6h1.2v-11.4l-5.7-5.7H129.7z M139.3-64.6v-3.3l3.3,3.3H139.3z"/>
<path fill="#ff3300" stroke="#ff3300" stroke-width="0.75" stroke-miterlimit="10" d="M67.6-62.5c-2.6,0-4.6,2.1-4.6,4.6
	c0,2.6,2.1,4.6,4.6,4.6c2.6,0,4.6-2.1,4.6-4.6C72.3-60.4,70.2-62.5,67.6-62.5z M67.6-53.6c-2.3,0-4.2-1.9-4.2-4.2
	c0-2.3,1.9-4.2,4.2-4.2c2.3,0,4.2,1.9,4.2,4.2C71.9-55.5,70-53.6,67.6-53.6z"/>
<path fill="#ff3300" d="M60.2-70.9v17.1h1.2v-15.9h7.2v5.3H74v10.6h1.2v-11.4l-5.7-5.7H60.2z M69.8-65.5v-3.3l3.3,3.3H69.8z"/>
<g>
	<path fill="#ff3300" d="M248.4-30.2v17.4h1.2V-29h7.3v5.4h5.4v10.7h1.2v-11.6l-5.8-5.8H248.4z M258.2-24.8v-3.3l3.3,3.3H258.2z"/>
</g>
<path fill="#ff3300" d="M289.1-30.4v17.6h1.2v-16.4h7.4v5.5h5.5v10.9h1.2v-11.7l-5.9-5.9H289.1z M299-24.9v-3.4l3.4,3.4H299z"/>
<path fill="#ff3300" stroke="#ff3300" stroke-width="0.75" stroke-miterlimit="10" d="M71.8-12.6l-2.1-2.1c1.4-1.5,1.3-3.9-0.2-5.4
	c-1.5-1.5-4-1.5-5.5,0c-1.5,1.5-1.5,4,0,5.5c0.8,0.8,1.8,1.1,2.8,1.1c0.9,0,1.9-0.3,2.6-1l2.1,2.1c0,0,0.1,0.1,0.2,0.1
	c0.1,0,0.1,0,0.2-0.1C71.8-12.4,71.8-12.5,71.8-12.6z M64.3-14.9c-1.3-1.3-1.3-3.5,0-4.9c0.7-0.7,1.6-1,2.4-1s1.8,0.3,2.4,1
	c1.3,1.3,1.3,3.5,0,4.9C67.8-13.6,65.6-13.6,64.3-14.9z"/>
<path fill="#ff3300" d="M59.5-30.4v17.6h1.2v-16.4h7.4v5.5h5.5v10.9h1.2v-11.7L69-30.4H59.5z M69.4-24.9v-3.4l3.4,3.4H69.4z"/>
<path fill="#ff3300" stroke="#ff3300" stroke-width="0.75" stroke-miterlimit="10" d="M15.1-12.6L13-14.8c1.4-1.5,1.3-3.9-0.2-5.4
	c-1.5-1.5-4-1.5-5.5,0c-1.5,1.5-1.5,4,0,5.5c0.8,0.8,1.8,1.1,2.8,1.1c0.9,0,1.9-0.3,2.6-1l2.1,2.1c0,0,0.1,0.1,0.2,0.1
	c0.1,0,0.1,0,0.2-0.1C15.2-12.4,15.2-12.5,15.1-12.6z M7.6-14.9c-1.3-1.3-1.3-3.5,0-4.9c0.7-0.7,1.6-1,2.4-1c0.9,0,1.8,0.3,2.4,1
	c1.3,1.3,1.3,3.5,0,4.9C11.2-13.6,9-13.6,7.6-14.9z"/>
<path fill="#ff3300" d="M2.9-30.4v17.6h1.2v-16.4h7.4v5.5H17v10.9h1.2v-11.7l-5.9-5.9H2.9z M12.8-24.9v-3.4l3.4,3.4H12.8z"/>
<path fill="#ff3300" d="M328.6-30.3v17.6h1.2V-29h7.4v5.5h5.5v10.8h1.2v-11.7l-5.8-5.8H328.6z M338.5-24.8v-3.4l3.4,3.4H338.5z"/>
<path fill="#ff3300" stroke="#ff3300" stroke-width="0.75" stroke-miterlimit="10" d="M336.3-18.7c-2.8,0-4.9,3.3-4.9,3.3
	s2.2,3.2,4.9,3.2c2.8,0,4.9-3.3,4.9-3.3S339.1-18.7,336.3-18.7z M336.3-12.8c-2.4,0-4.2-2.8-4.2-2.8s1.9-2.8,4.2-2.8
	s4.2,2.8,4.2,2.8S338.7-12.8,336.3-12.8z"/>
<path fill="none" stroke="#ff3300" stroke-width="0.5" stroke-miterlimit="10" d="M336.3-17c-0.8,0-1.6,0.6-1.6,1.6
	c0,0.8,0.6,1.6,1.6,1.6c0.8,0,1.6-0.6,1.6-1.6C337.9-16.3,337.1-17,336.3-17z M336.3-14.3c-0.6,0-1.1-0.5-1.1-1.1
	c0-0.5,0.5-1.2,1.1-1.2s1.1,0.5,1.1,1.1S337-14.3,336.3-14.3z"/>
<g>
	<g>
		<g>
			<g>
				<polygon fill="#ff3300" points="95,14.8 90.9,10.7 86.8,14.8 89.5,14.8 89.5,29.3 92.4,29.3 92.4,14.8 				"/>
				<rect x="95.3" y="10.7" fill="#ff3300" width="8.7" height="2.8"/>
				<rect x="94.5" y="15.8" fill="#ff3300" width="9.5" height="2.8"/>
				<rect x="94.5" y="21.3" fill="#ff3300" width="9.5" height="2.8"/>
				<rect x="94.5" y="26.4" fill="#ff3300" width="9.6" height="2.8"/>
			</g>
		</g>
	</g>
</g>
<g>
	<g>
		<g>
			<g>
				<polygon fill="#ff3300" points="127.5,24.2 131.2,28 135,24.2 132.6,24.2 132.6,11 129.9,11 129.9,24.2 				"/>
				<rect x="134.5" y="25.4" fill="#ff3300" width="8.9" height="2.6"/>
				<rect x="134.5" y="20.7" fill="#ff3300" width="9.7" height="2.6"/>
				<rect x="134.5" y="15.7" fill="#ff3300" width="9.7" height="2.6"/>
				<rect x="134.5" y="11" fill="#ff3300" width="9.8" height="2.6"/>
			</g>
		</g>
	</g>
</g>
<path fill="#ff3300" d="M408-20.9h12.7l-2.7-2.7c-0.2-0.2-0.2-0.6,0-0.8c0.2-0.2,0.6-0.2,0.8,0l3.6,3.6c0.2,0.2,0.2,0.6,0,0.8
	l-3.6,3.6c-0.1,0.1-0.2,0.2-0.4,0.2c-0.1,0-0.3-0.1-0.4-0.2c-0.2-0.2-0.2-0.6,0-0.8l2.7-2.7H408c-0.3,0-0.5-0.2-0.5-0.5
	C407.4-20.7,407.7-20.9,408-20.9z M422.4-29.8h-11c-2.1,0-3.9,1.7-3.9,3.9v2.3c0,0.3,0.2,0.5,0.5,0.5s0.5-0.2,0.5-0.5v-2.3
	c0-1.5,1.3-2.8,2.8-2.8h11c1.5,0,2.8,1.3,2.8,2.8v11c0,1.5-1.3,2.8-2.8,2.8h-11c-1.5,0-2.8-1.3-2.8-2.8v-2.3c0-0.3-0.2-0.5-0.5-0.5
	s-0.5,0.2-0.5,0.5v2.3c0,2.1,1.7,3.9,3.9,3.9h11c2.1,0,3.9-1.7,3.9-3.9v-11C426.2-28.1,424.5-29.8,422.4-29.8z"/>
<path fill="#ff3300" d="M416.8-20.4"/>
<path fill="#ff3300" d="M416.8-20.4"/>
<polyline fill="none" stroke="#ff3300" stroke-width="0.95" stroke-miterlimit="10" points="211.2,19.4 212.8,21.4 215.3,18.1 "/>
<path fill="none" stroke="#ff3300" stroke-width="0.95" stroke-miterlimit="10" d="M221.4,23.7h-10.2c-2.1,0-3.8-1.7-3.8-3.8l0,0
	c0-2.1,1.7-3.8,3.8-3.8h10.2c2.1,0,3.8,1.7,3.8,3.8l0,0C225.3,21.9,223.5,23.7,221.4,23.7z"/>
<circle fill="none" stroke="#ff3300" stroke-width="0.95" stroke-miterlimit="10" cx="221.2" cy="19.9" r="2.5"/>
<path fill="none" stroke="#ff3300" stroke-width="0.95" stroke-miterlimit="10" d="M261.7,23.7h-10.2c-2.1,0-3.8-1.7-3.8-3.8l0,0
	c0-2.1,1.7-3.8,3.8-3.8h10.2c2.1,0,3.8,1.7,3.8,3.8l0,0C265.5,21.9,263.8,23.7,261.7,23.7z"/>
<circle fill="none" stroke="#ff3300" stroke-width="0.95" stroke-miterlimit="10" cx="252.3" cy="19.9" r="2.5"/>
<g>
	<path fill="#ff3300" d="M302.9,17.9c-0.3,0-0.5,0-0.8-0.1c-0.2,0-0.3-0.2-0.2-0.4c0-0.2,0.2-0.3,0.4-0.2c1.3,0.3,2.6-0.3,3.2-1.5
		c0.3-0.7,0.4-1.5,0.2-2.2c-0.2-0.7-0.8-1.3-1.4-1.7c-0.7-0.3-1.5-0.4-2.2-0.2c-0.7,0.2-1.3,0.8-1.7,1.4c-0.1,0.1-0.3,0.2-0.4,0.1
		c-0.1-0.1-0.2-0.3-0.1-0.4c0.4-0.8,1.1-1.4,2-1.7c0.9-0.3,1.8-0.2,2.7,0.2c0.8,0.4,1.4,1.1,1.7,2c0.3,0.9,0.2,1.8-0.2,2.7
		C305.4,17.1,304.2,17.9,302.9,17.9z M302.9,12.8v3.1 M301.3,14.3h3.1 M303.2,15.9v-1.3h1.2c0.2,0,0.3-0.1,0.3-0.3
		c0-0.2-0.1-0.3-0.3-0.3h-1.2v-1.3c0-0.2-0.1-0.3-0.3-0.3s-0.3,0.1-0.3,0.3V14h-1.3c-0.2,0-0.3,0.1-0.3,0.3c0,0.2,0.1,0.3,0.3,0.3
		h1.3v1.3c0,0.2,0.1,0.3,0.3,0.3S303.2,16.1,303.2,15.9z"/>
	<g>
		<path fill="#ff3300" d="M294.7,27.5c-2.5,0-4.8-1.6-6.1-4.2c-0.4,0-0.9-0.3-1.2-0.9c-0.5-0.9-0.8-2.4-0.4-3.1
			c0.2-0.3,0.4-0.4,0.7-0.4c0,0,0,0,0,0c0.1-2,0.8-3.9,2-5.3c1.3-1.5,3-2.4,4.9-2.4c1.8,0,3.6,0.8,4.9,2.4c1.2,1.4,1.9,3.3,2,5.3
			c0,0,0,0,0,0c0.2,0,0.9,0.1,0.9,1.4c0,1.3-0.7,3-1.7,3.1C299.6,25.9,297.3,27.5,294.7,27.5z M288.9,22.7c0.1,0,0.2,0.1,0.3,0.2
			c1.1,2.5,3.2,4,5.6,4c2.3,0,4.5-1.5,5.6-4c0.1-0.1,0.2-0.2,0.3-0.2c0,0,0,0,0.1,0l0,0c0.6,0,1.2-1.4,1.2-2.5
			c0-0.5-0.1-0.8-0.3-0.8c0,0-0.1,0-0.2,0c-0.1,0-0.2,0-0.3,0c-0.1-0.1-0.1-0.1-0.1-0.2c0-4.1-2.9-7.5-6.3-7.5
			c-3.4,0-6.3,3.3-6.3,7.5c0,0.1-0.1,0.2-0.1,0.2c-0.1,0.1-0.2,0.1-0.3,0c-0.1,0-0.1,0-0.2,0c0,0-0.1,0-0.1,0.1
			c-0.3,0.4-0.1,1.7,0.4,2.5c0.1,0.2,0.4,0.6,0.7,0.6C288.8,22.7,288.8,22.7,288.9,22.7C288.8,22.7,288.9,22.7,288.9,22.7z"/>
	</g>
	<g>
		<path fill="#ff3300" d="M301.3,19.2c-1.8-0.4-3.6-2.6-4.6-4.4c-0.9,0.8-1.8,1.6-2.8,2.2c-2.5,1.7-5.7,2.2-5.7,2.2s0.2-2.5,1.8-4.6
			c0.7-0.9,1.6-1.8,2.7-2.3c1.6-0.8,3.8-0.6,5.3,0.4c0.4,0.3,0.8,0.6,1.1,1c0.6,0.8,1.1,1.8,1.4,2.7c0.3,0.8,0.5,1.6,0.7,2.4
			C301.2,18.9,301.3,19,301.3,19.2z"/>
		<path fill="#ff3300" d="M301.3,19.5c-1.7-0.4-3.6-2.5-4.7-4.3c-0.7,0.7-1.6,1.3-2.6,2c-2.5,1.7-5.7,2.3-5.8,2.3
			c-0.1,0-0.3-0.2-0.2-0.3c0-0.1,0,0.1,0,0c0-0.1,0.2-2.5,1.8-4.8c0.8-1,1.8-1.9,2.8-2.4c0.7-0.3,1.5-0.5,2.4-0.5
			c1.1,0,2.2,0.3,3.1,0.9c0.4,0.2,0.8,0.6,1.2,1.1c0.6,0.8,1.1,1.8,1.5,2.8c0.3,0.7,0.5,1.5,0.7,2.5c0,0.2,0.1,0.3,0.1,0.5
			c0,0,0,0,0,0.1C301.6,19.3,301.4,19.5,301.3,19.5"/>
	</g>
</g>
<path fill="#ff3300" d="M222.8-181.7c-0.3,0-0.5,0-0.8-0.1c-0.2,0-0.3-0.2-0.2-0.4c0-0.2,0.2-0.3,0.4-0.2c1.3,0.3,2.6-0.3,3.2-1.5
	c0.3-0.7,0.4-1.5,0.2-2.2c-0.2-0.7-0.8-1.3-1.5-1.7c-0.7-0.3-1.5-0.4-2.2-0.2c-0.7,0.2-1.3,0.8-1.7,1.5c-0.1,0.1-0.3,0.2-0.4,0.1
	c-0.1-0.1-0.2-0.3-0.1-0.4c0.4-0.8,1.1-1.5,2-1.8c0.9-0.3,1.8-0.2,2.7,0.2c0.8,0.4,1.5,1.1,1.8,2c0.3,0.9,0.2,1.8-0.2,2.7
	C225.3-182.4,224.1-181.7,222.8-181.7z"/>
<g>
	<path fill="#ff3300" d="M214.6-172c-2.6,0-4.9-1.6-6.1-4.2c-0.5,0-0.9-0.3-1.2-0.9c-0.5-0.9-0.8-2.4-0.4-3.2
		c0.2-0.3,0.4-0.4,0.7-0.4c0,0,0,0,0,0c0.1-2,0.8-3.9,2.1-5.4c1.3-1.5,3.1-2.4,4.9-2.4c1.9,0,3.6,0.9,4.9,2.4c1.2,1.4,2,3.3,2.1,5.4
		c0,0,0,0,0,0c0.2,0,0.9,0.1,0.9,1.4c0,1.3-0.7,3-1.8,3.1C219.5-173.6,217.1-172,214.6-172z M208.6-176.8c0.1,0,0.2,0.1,0.3,0.2
		c1.1,2.5,3.3,4.1,5.7,4.1c2.4,0,4.5-1.6,5.7-4.1c0.1-0.1,0.2-0.2,0.3-0.2c0,0,0,0,0.1,0l0,0c0.6,0,1.2-1.4,1.2-2.5
		c0-0.5-0.1-0.8-0.3-0.8c0,0-0.1,0-0.2,0c-0.1,0-0.2,0-0.3,0c-0.1-0.1-0.1-0.1-0.1-0.3c0-4.2-2.9-7.5-6.4-7.5
		c-3.5,0-6.3,3.4-6.4,7.5c0,0.1-0.1,0.2-0.1,0.3c-0.1,0.1-0.2,0.1-0.3,0c-0.1,0-0.1,0-0.2,0c0,0-0.1,0-0.2,0.1
		c-0.3,0.4-0.1,1.7,0.4,2.6c0.1,0.2,0.4,0.6,0.7,0.6C208.6-176.8,208.6-176.8,208.6-176.8C208.6-176.8,208.6-176.8,208.6-176.8z"/>
</g>
<g>
	<path fill="#ff3300" d="M221.2-180.3c-1.8-0.4-3.7-2.6-4.7-4.5c-0.9,0.8-1.9,1.6-2.9,2.3c-2.5,1.7-5.7,2.2-5.7,2.2s0.2-2.5,1.8-4.7
		c0.7-0.9,1.7-1.8,2.7-2.4c1.6-0.8,3.8-0.6,5.3,0.4c0.4,0.3,0.9,0.6,1.2,1c0.6,0.8,1.1,1.8,1.4,2.7c0.3,0.8,0.5,1.6,0.7,2.5
		C221.2-180.6,221.2-180.5,221.2-180.3z"/>
	<path fill="#ff3300" d="M221.2-180c-1.8-0.4-3.7-2.5-4.7-4.4c-0.8,0.7-1.6,1.4-2.7,2.1c-2.5,1.7-5.8,2.3-5.9,2.3
		c-0.1,0-0.3-0.2-0.3-0.3c0-0.1,0,0.1,0,0c0-0.1,0.2-2.6,1.9-4.8c0.8-1.1,1.8-1.9,2.8-2.4c0.7-0.3,1.6-0.5,2.4-0.5
		c1.2,0,2.3,0.3,3.1,0.9c0.4,0.2,0.9,0.6,1.2,1.1c0.7,0.8,1.1,1.8,1.5,2.8c0.3,0.7,0.5,1.5,0.8,2.5c0,0.2,0.1,0.3,0.1,0.5
		c0,0,0,0.1,0,0.1C221.5-180.2,221.4-180,221.2-180"/>
</g>
<path fill="#ff3300" d="M463.4,19.6c-0.2,0-0.5,0-0.7-0.1c-0.2,0-0.2-0.2-0.2-0.3c0-0.2,0.2-0.2,0.3-0.2c1.2,0.3,2.4-0.3,3-1.4
	c0.3-0.6,0.4-1.4,0.1-2.1c-0.2-0.7-0.7-1.2-1.3-1.6c-0.6-0.3-1.4-0.4-2.1-0.1c-0.7,0.2-1.2,0.7-1.6,1.3c-0.1,0.1-0.2,0.2-0.4,0.1
	c-0.1-0.1-0.2-0.2-0.1-0.4c0.4-0.8,1.1-1.4,1.9-1.6c0.8-0.3,1.7-0.2,2.5,0.2c0.8,0.4,1.4,1.1,1.6,1.9c0.3,0.8,0.2,1.7-0.2,2.5
	C465.7,18.9,464.6,19.6,463.4,19.6z"/>
<g>
	<g>
		<path fill="#ff3300" d="M455.8,28.6c-2.4,0-4.5-1.5-5.6-3.9c-0.4,0-0.8-0.3-1.1-0.8c-0.5-0.8-0.7-2.3-0.3-2.9
			c0.1-0.2,0.4-0.4,0.6-0.4c0,0,0,0,0,0c0.1-1.9,0.8-3.6,1.9-5c1.2-1.4,2.8-2.2,4.6-2.2c1.7,0,3.3,0.8,4.6,2.2
			c1.1,1.3,1.8,3.1,1.9,5c0,0,0,0,0,0c0.2,0,0.8,0.1,0.8,1.3c0,1.2-0.6,2.8-1.6,2.9C460.3,27.1,458.1,28.6,455.8,28.6z M450.3,24.1
			c0.1,0,0.2,0.1,0.3,0.2c1,2.3,3,3.8,5.2,3.8c2.2,0,4.2-1.4,5.2-3.8c0.1-0.1,0.2-0.2,0.3-0.2c0,0,0,0,0.1,0l0,0
			c0.6,0,1.1-1.3,1.1-2.3c0-0.4-0.1-0.7-0.3-0.7c0,0-0.1,0-0.2,0c-0.1,0-0.2,0-0.3,0c-0.1-0.1-0.1-0.1-0.1-0.2c0-3.8-2.7-7-5.9-7
			c-3.2,0-5.9,3.1-5.9,7c0,0.1,0,0.2-0.1,0.2c-0.1,0.1-0.2,0.1-0.3,0c-0.1,0-0.1,0-0.2,0c0,0-0.1,0-0.1,0.1
			c-0.2,0.4-0.1,1.6,0.3,2.4c0.1,0.2,0.4,0.6,0.7,0.6C450.2,24.1,450.2,24.1,450.3,24.1C450.3,24.1,450.3,24.1,450.3,24.1z"/>
	</g>
</g>
<g>
	<g>
		<path fill="#ff3300" d="M461.9,20.9c-1.7-0.3-3.4-2.4-4.3-4.1c-0.8,0.8-1.7,1.4-2.6,2.1c-2.3,1.6-5.3,2-5.3,2s0.2-2.3,1.7-4.3
			c0.6-0.9,1.5-1.7,2.5-2.2c1.5-0.7,3.5-0.6,4.9,0.3c0.4,0.2,0.8,0.6,1.1,0.9c0.6,0.7,1,1.7,1.3,2.5c0.3,0.7,0.5,1.5,0.7,2.3
			C461.8,20.6,461.9,20.7,461.9,20.9z"/>
		<path fill="#ff3300" d="M461.9,21.1c-1.6-0.3-2.8-1.4-3.8-3.2c-0.7,2.1-4.8,2.9-5.7,2.4c-2.3,1.6-2.7,0.7-2.8,0.7
			c-0.1,0-0.2-0.2-0.2-0.3c0-0.1,0,0.1,0,0c0-0.1,0.2-2.4,1.7-4.4c0.7-1,1.6-1.8,2.6-2.2c0.7-0.3,1.4-0.5,2.2-0.5
			c1.1,0,2.1,0.3,2.9,0.8c0.3,0.2,0.8,0.6,1.1,1c0.6,0.8,1,1.7,1.4,2.6c0.3,0.7,0.5,1.4,0.7,2.3c0,0.2,0.1,0.3,0.1,0.4
			c0,0,0,0,0,0.1C462.1,21,462,21.1,461.9,21.1"/>
	</g>
</g>
<g>
	<g>
		<path fill="#ff3300" d="M450.5,21c-1.3,0-2.4-0.8-3-2.1c-0.2,0-0.4-0.2-0.6-0.4c-0.3-0.4-0.4-1.2-0.2-1.6c0.1-0.1,0.2-0.2,0.3-0.2
			c0,0,0,0,0,0c0-1,0.4-1.9,1-2.6c0.6-0.8,1.5-1.2,2.4-1.2c0.9,0,1.8,0.4,2.4,1.2c0.6,0.7,1,1.6,1,2.6c0,0,0,0,0,0
			c0.1,0,0.4,0,0.4,0.7c0,0.6-0.3,1.5-0.9,1.5C452.9,20.2,451.7,21,450.5,21z M447.6,18.6c0.1,0,0.1,0,0.1,0.1c0.5,1.2,1.6,2,2.8,2
			c1.2,0,2.2-0.8,2.8-2c0-0.1,0.1-0.1,0.2-0.1c0,0,0,0,0,0l0,0c0.3,0,0.6-0.7,0.6-1.2c0-0.2-0.1-0.4-0.1-0.4c0,0-0.1,0-0.1,0
			c0,0-0.1,0-0.1,0c0,0-0.1-0.1-0.1-0.1c0-2-1.4-3.7-3.1-3.7c-1.7,0-3.1,1.7-3.1,3.7c0,0,0,0.1-0.1,0.1c0,0-0.1,0-0.1,0
			c0,0-0.1,0-0.1,0c0,0,0,0-0.1,0.1c-0.1,0.2-0.1,0.8,0.2,1.3C447.2,18.4,447.3,18.6,447.6,18.6C447.5,18.6,447.5,18.6,447.6,18.6
			C447.5,18.6,447.6,18.6,447.6,18.6z"/>
	</g>
	<g>
		<path fill="#ff3300" d="M453.7,16.9c-0.9-0.2-1.8-1.3-2.3-2.2c-0.4,0.4-0.9,0.8-1.4,1.1c-1.2,0.8-2.8,1.1-2.8,1.1s0.1-1.2,0.9-2.3
			c0.3-0.5,0.8-0.9,1.3-1.2c0.8-0.4,1.9-0.3,2.6,0.2c0.2,0.1,0.4,0.3,0.6,0.5c0.3,0.4,0.5,0.9,0.7,1.3c0.2,0.4,0.3,0.8,0.4,1.2
			C453.7,16.7,453.7,16.8,453.7,16.9z"/>
		<path fill="#ff3300" d="M453.7,17c-0.9-0.2-1.5-0.8-2-1.7c-0.4,1.1-2.5,1.5-3,1.3c-1.2,0.8-1.4,0.4-1.5,0.4c0,0-0.1-0.1-0.1-0.2
			c0,0,0,0,0,0c0-0.1,0.1-1.3,0.9-2.4c0.4-0.5,0.9-1,1.4-1.2c0.4-0.2,0.8-0.3,1.2-0.3c0.6,0,1.1,0.2,1.5,0.4
			c0.2,0.1,0.4,0.3,0.6,0.5c0.3,0.4,0.5,0.9,0.7,1.4c0.1,0.4,0.3,0.7,0.4,1.2c0,0.1,0,0.2,0,0.2c0,0,0,0,0,0
			C453.9,16.9,453.8,17,453.7,17"/>
	</g>
</g>
<g>
	<g>
		<path fill="#ff3300" d="M453.8,16.5c-0.9,0-1.8-0.6-2.2-1.6c-0.2,0-0.3-0.1-0.4-0.3c-0.2-0.3-0.3-0.9-0.1-1.2
			c0.1-0.1,0.1-0.2,0.2-0.2c0,0,0,0,0,0c0-0.7,0.3-1.4,0.8-2c0.5-0.6,1.1-0.9,1.8-0.9c0.7,0,1.3,0.3,1.8,0.9c0.5,0.5,0.7,1.2,0.8,2
			c0,0,0,0,0,0c0.1,0,0.3,0,0.3,0.5c0,0.5-0.2,1.1-0.6,1.1C455.6,15.9,454.7,16.5,453.8,16.5z M451.6,14.7c0,0,0.1,0,0.1,0.1
			c0.4,0.9,1.2,1.5,2.1,1.5c0.9,0,1.7-0.6,2.1-1.5c0,0,0.1-0.1,0.1-0.1c0,0,0,0,0,0l0,0c0.2,0,0.4-0.5,0.4-0.9c0-0.2,0-0.3-0.1-0.3
			c0,0,0,0-0.1,0c0,0-0.1,0-0.1,0c0,0-0.1-0.1-0.1-0.1c0-1.5-1.1-2.8-2.3-2.8c-1.3,0-2.3,1.2-2.3,2.8c0,0,0,0.1-0.1,0.1
			c0,0-0.1,0-0.1,0c0,0,0,0-0.1,0c0,0,0,0-0.1,0c-0.1,0.2-0.1,0.6,0.1,0.9C451.3,14.6,451.4,14.7,451.6,14.7
			C451.6,14.7,451.6,14.7,451.6,14.7C451.6,14.7,451.6,14.7,451.6,14.7z"/>
	</g>
	<g>
		<path fill="#ff3300" d="M456.2,13.4c-0.7-0.1-1.4-1-1.7-1.6c-0.3,0.3-0.7,0.6-1.1,0.8c-0.9,0.6-2.1,0.8-2.1,0.8s0.1-0.9,0.7-1.7
			c0.3-0.3,0.6-0.7,1-0.9c0.6-0.3,1.4-0.2,2,0.1c0.1,0.1,0.3,0.2,0.4,0.4c0.2,0.3,0.4,0.7,0.5,1c0.1,0.3,0.2,0.6,0.3,0.9
			C456.2,13.3,456.2,13.3,456.2,13.4z"/>
		<path fill="#ff3300" d="M456.2,13.5c-0.6-0.1-1.1-0.6-1.5-1.3c-0.3,0.8-1.9,1.1-2.3,1c-0.9,0.6-1.1,0.3-1.1,0.3
			c0,0-0.1-0.1-0.1-0.1c0,0,0,0,0,0c0,0,0.1-0.9,0.7-1.8c0.3-0.4,0.7-0.7,1-0.9c0.3-0.1,0.6-0.2,0.9-0.2c0.4,0,0.8,0.1,1.2,0.3
			c0.1,0.1,0.3,0.2,0.4,0.4c0.2,0.3,0.4,0.7,0.5,1c0.1,0.3,0.2,0.6,0.3,0.9c0,0.1,0,0.1,0,0.2c0,0,0,0,0,0
			C456.3,13.4,456.3,13.5,456.2,13.5"/>
	</g>
</g>
<g>
	<g>
		<path fill="#ff3300" d="M342.7,17.9c-0.3,0-0.5,0-0.8-0.1c-0.2,0-0.3-0.2-0.2-0.4c0-0.2,0.2-0.3,0.4-0.2c1.3,0.3,2.6-0.3,3.2-1.5
			c0.3-0.7,0.4-1.5,0.2-2.2c-0.2-0.7-0.8-1.3-1.4-1.7c-0.7-0.3-1.5-0.4-2.2-0.2c-0.7,0.2-1.3,0.8-1.7,1.4c-0.1,0.1-0.3,0.2-0.4,0.1
			c-0.1-0.1-0.2-0.3-0.1-0.4c0.4-0.8,1.1-1.4,2-1.7c0.9-0.3,1.8-0.2,2.7,0.2c0.8,0.4,1.4,1.1,1.7,2c0.3,0.9,0.2,1.8-0.2,2.7
			C345.2,17.1,344,17.9,342.7,17.9z"/>
		<g>
			<path fill="#ff3300" d="M334.6,27.5c-2.5,0-4.8-1.6-6.1-4.2c-0.4,0-0.9-0.3-1.2-0.9c-0.5-0.9-0.8-2.4-0.4-3.1
				c0.2-0.3,0.4-0.4,0.7-0.4c0,0,0,0,0,0c0.1-2,0.8-3.9,2-5.3c1.3-1.5,3-2.4,4.9-2.4c1.8,0,3.6,0.8,4.9,2.4c1.2,1.4,1.9,3.3,2,5.3
				c0,0,0,0,0,0c0.2,0,0.9,0.1,0.9,1.4c0,1.3-0.7,3-1.7,3.1C339.4,25.9,337.1,27.5,334.6,27.5z M328.7,22.7c0.1,0,0.2,0.1,0.3,0.2
				c1.1,2.5,3.2,4,5.6,4c2.3,0,4.5-1.5,5.6-4c0.1-0.1,0.2-0.2,0.3-0.2c0,0,0,0,0.1,0l0,0c0.6,0,1.2-1.4,1.2-2.5
				c0-0.5-0.1-0.8-0.3-0.8c0,0-0.1,0-0.2,0c-0.1,0-0.2,0-0.3,0c-0.1-0.1-0.1-0.1-0.1-0.2c0-4.1-2.9-7.5-6.3-7.5
				c-3.4,0-6.3,3.3-6.3,7.5c0,0.1-0.1,0.2-0.1,0.2c-0.1,0.1-0.2,0.1-0.3,0c-0.1,0-0.1,0-0.2,0c0,0-0.1,0-0.1,0.1
				c-0.3,0.4-0.1,1.7,0.4,2.5c0.1,0.2,0.4,0.6,0.7,0.6C328.6,22.7,328.7,22.7,328.7,22.7C328.7,22.7,328.7,22.7,328.7,22.7z"/>
		</g>
		<g>
			<path fill="#ff3300" d="M341.2,19.2c-1.8-0.4-3.6-2.6-4.6-4.4c-0.9,0.8-1.8,1.6-2.8,2.2c-2.5,1.7-5.7,2.2-5.7,2.2
				s0.2-2.5,1.8-4.6c0.7-0.9,1.6-1.8,2.7-2.3c1.6-0.8,3.8-0.6,5.3,0.4c0.4,0.3,0.8,0.6,1.1,1c0.6,0.8,1.1,1.8,1.4,2.7
				c0.3,0.8,0.5,1.6,0.7,2.4C341.1,18.9,341.1,19,341.2,19.2z"/>
			<path fill="#ff3300" d="M341.2,19.5c-1.7-0.4-3.6-2.5-4.7-4.3c-0.7,0.7-1.6,1.3-2.6,2c-2.5,1.7-5.7,2.3-5.8,2.3
				c-0.1,0-0.3-0.2-0.2-0.3c0-0.1,0,0.1,0,0c0-0.1,0.2-2.5,1.8-4.8c0.8-1,1.8-1.9,2.8-2.4c0.7-0.3,1.5-0.5,2.4-0.5
				c1.1,0,2.2,0.3,3.1,0.9c0.4,0.2,0.8,0.6,1.2,1.1c0.6,0.8,1.1,1.8,1.5,2.8c0.3,0.7,0.5,1.5,0.7,2.5c0,0.2,0.1,0.3,0.1,0.5
				c0,0,0,0,0,0.1C341.4,19.3,341.3,19.5,341.2,19.5"/>
		</g>
	</g>
</g>
<path fill="#ff3300" stroke="#ff3300" stroke-width="0.5" stroke-miterlimit="10" d="M343,14.3l1.2-1.2c0,0,0-0.1,0-0.1
	c0,0-0.1,0-0.1,0L343,14.3l-1.3-1.3c0,0-0.1,0-0.1,0c0,0,0,0.1,0,0.1l1.2,1.2l-1.2,1.2c0,0,0,0.1,0,0.1c0,0,0,0,0,0s0,0,0,0
	L343,14.3l1.1,1.3c0,0,0,0,0,0c0,0,0,0,0,0c0,0,0-0.1,0-0.1L343,14.3z"/>
<g>
	<g>
		<path fill="#ff3300" stroke="#ff3300" stroke-width="0.15" stroke-miterlimit="10" d="M384.8,12l-1.4-1.4c-0.4-0.4-1.1-0.4-1.5,0
			l-7.8,7.7l-1.6,4.5l4.5-1.6l7.8-7.7C385.2,13,385.2,12.4,384.8,12z M374,20.6l0.7-1.8l1.8,1.8l-1.8,0.6L374,20.6z M375.3,19
			l6.1-6.1l0.4,0.4l-6.1,6.1L375.3,19z M375.2,18.8l-0.3-0.4l6.1-6.1l0.3,0.4L375.2,18.8z M375.9,19.5l6.1-6.1l0.4,0.4l-6.1,6.1
			L375.9,19.5z M381.3,12.1l0.2-0.2l2,2l-0.2,0.2L381.3,12.1z M376.8,20.5l-0.3-0.4l6.1-6.1l0.3,0.4L376.8,20.5z M384.4,13l-0.6,0.6
			l-2-2l0.6-0.6c0.2-0.2,0.4-0.2,0.6,0l1.4,1.4C384.5,12.6,384.5,12.8,384.4,13z"/>
	</g>
</g>
<circle fill="#ff3300" cx="416.5" cy="19.3" r="9.1"/>
<path fill="#FFFFFF" stroke="#FFFFFF" stroke-miterlimit="10" d="M417.2,19.2l3.9-3.9c0.1-0.1,0.1-0.2,0-0.3c-0.1-0.1-0.2-0.1-0.3,0
	l-3.9,3.9L413,15c-0.1-0.1-0.2-0.1-0.3,0c-0.1,0.1-0.1,0.2,0,0.3l3.9,3.9l-3.9,3.9c-0.1,0.1-0.1,0.2,0,0.3c0,0,0.1,0.1,0.2,0.1
	c0.1,0,0.1,0,0.2-0.1l3.9-3.9l3.9,3.9c0,0,0.1,0.1,0.2,0.1c0.1,0,0.1,0,0.2-0.1c0.1-0.1,0.1-0.2,0-0.3L417.2,19.2z"/>
<g>
	<polygon fill="#ff3300" points="461.5,15.8 463,14.9 463,14.7 461.1,15.8 463,16.8 463,16.6 	"/>
	<path fill="#ff3300" d="M463.6,15.4l0-0.6l-1.7,1l1.7,1l0-0.6c1.8,0,2,1.3,2,1.3C465.6,15.8,464.1,15.5,463.6,15.4z"/>
</g>
<path fill="#ff3300" stroke="#ff3300" stroke-width="0.95" stroke-miterlimit="10" d="M456.8-26c-1.7,0-3.3,0.7-4.3,2v-1.6
	c0-0.1-0.1-0.2-0.2-0.2s-0.2,0.1-0.2,0.2v2.1c0,0,0,0,0,0c0,0,0,0,0,0c0,0,0,0,0,0c0,0,0,0,0,0c0,0,0,0,0,0c0,0,0,0,0,0c0,0,0,0,0,0
	c0,0,0,0,0,0c0,0,0,0,0,0c0,0,0,0,0,0h2.1c0.1,0,0.2-0.1,0.2-0.2s-0.1-0.2-0.2-0.2h-1.7c1-1.2,2.5-2,4.1-2c2.9,0,5.3,2.4,5.3,5.3
	s-2.4,5.3-5.3,5.3c-1.1,0-2.2-0.3-3.1-1c-0.1-0.1-0.2,0-0.3,0c-0.1,0.1,0,0.2,0,0.3c1,0.7,2.1,1,3.3,1c3.2,0,5.7-2.6,5.7-5.7
	S459.9-26,456.8-26z"/>
<path fill="#ff3300" d="M462.6-181.8c-0.3,0-0.5,0-0.8-0.1c-0.2,0-0.3-0.2-0.2-0.4c0-0.2,0.2-0.3,0.4-0.2c1.3,0.3,2.6-0.3,3.2-1.5
	c0.3-0.7,0.4-1.5,0.2-2.2c-0.2-0.7-0.8-1.3-1.4-1.7c-0.7-0.3-1.5-0.4-2.2-0.2c-0.7,0.2-1.3,0.8-1.7,1.4c-0.1,0.1-0.3,0.2-0.4,0.1
	c-0.1-0.1-0.2-0.3-0.1-0.4c0.4-0.8,1.1-1.4,2-1.7c0.9-0.3,1.8-0.2,2.7,0.2c0.8,0.4,1.4,1.1,1.7,2c0.3,0.9,0.2,1.8-0.2,2.7
	C465.1-182.5,463.9-181.8,462.6-181.8z"/>
<g>
	<path fill="#ff3300" d="M454.5-172.1c-2.5,0-4.8-1.6-6.1-4.2c-0.4,0-0.9-0.3-1.2-0.9c-0.5-0.9-0.8-2.4-0.4-3.1
		c0.2-0.3,0.4-0.4,0.7-0.4c0,0,0,0,0,0c0.1-2,0.8-3.9,2-5.3c1.3-1.5,3-2.4,4.9-2.4c1.8,0,3.6,0.8,4.9,2.4c1.2,1.4,1.9,3.3,2,5.3
		c0,0,0,0,0,0c0.2,0,0.9,0.1,0.9,1.4c0,1.3-0.7,3-1.7,3.1C459.3-173.8,457-172.1,454.5-172.1z M448.6-176.9c0.1,0,0.2,0.1,0.3,0.2
		c1.1,2.5,3.2,4,5.6,4c2.3,0,4.5-1.5,5.6-4c0.1-0.1,0.2-0.2,0.3-0.2c0,0,0,0,0.1,0l0,0c0.6,0,1.2-1.4,1.2-2.5c0-0.5-0.1-0.8-0.3-0.8
		c0,0-0.1,0-0.2,0c-0.1,0-0.2,0-0.3,0c-0.1-0.1-0.1-0.1-0.1-0.2c0-4.1-2.9-7.5-6.3-7.5c-3.4,0-6.3,3.3-6.3,7.5
		c0,0.1-0.1,0.2-0.1,0.2c-0.1,0.1-0.2,0.1-0.3,0c-0.1,0-0.1,0-0.2,0c0,0-0.1,0-0.1,0.1c-0.3,0.4-0.1,1.7,0.4,2.5
		c0.1,0.2,0.4,0.6,0.7,0.6C448.5-176.9,448.5-176.9,448.6-176.9C448.6-176.9,448.6-176.9,448.6-176.9z"/>
</g>
<g>
	<path fill="#ff3300" d="M461-180.4c-1.8-0.4-3.6-2.6-4.6-4.4c-0.9,0.8-1.8,1.6-2.8,2.2c-2.5,1.7-5.7,2.2-5.7,2.2s0.2-2.5,1.8-4.6
		c0.7-0.9,1.6-1.8,2.7-2.3c1.6-0.8,3.8-0.6,5.3,0.4c0.4,0.3,0.8,0.6,1.1,1c0.6,0.8,1.1,1.8,1.4,2.7c0.3,0.8,0.5,1.6,0.7,2.4
		C461-180.7,461-180.6,461-180.4z"/>
	<path fill="#ff3300" d="M461-180.1c-1.7-0.4-3.6-2.5-4.7-4.3c-0.7,0.7-1.6,1.3-2.6,2c-2.5,1.7-5.7,2.3-5.8,2.3
		c-0.1,0-0.3-0.2-0.2-0.3c0-0.1,0,0.1,0,0c0-0.1,0.2-2.5,1.8-4.8c0.8-1,1.8-1.9,2.8-2.4c0.7-0.3,1.5-0.5,2.4-0.5
		c1.1,0,2.2,0.3,3.1,0.9c0.4,0.2,0.8,0.6,1.2,1.1c0.6,0.8,1.1,1.8,1.5,2.8c0.3,0.7,0.5,1.5,0.7,2.5c0,0.2,0.1,0.3,0.1,0.5
		c0,0,0,0,0,0.1C461.3-180.3,461.2-180.1,461-180.1"/>
</g>
<rect x="462.5" y="-187.2" transform="matrix(0.5406 0.8413 -0.8413 0.5406 56.6696 -474.3114)" fill="none" stroke="#ff3300" stroke-width="0.5" stroke-miterlimit="10" width="0.2" height="3.9"/>
<path fill="none" stroke="#ff3300" stroke-width="0.5" stroke-miterlimit="10" d="M462.6-187.3c-1.1,0-2,0.9-2,2l0,0
	c0,1.1,0.9,2,2,2s2-0.9,2-2l0,0C464.6-186.4,463.7-187.3,462.6-187.3L462.6-187.3L462.6-187.3z"/>
<path fill="#ff3300" d="M376.7-187.9c-0.1,0-0.1,0-0.2,0.1l-7.2,11.5c-0.1,0.2,0,0.3,0.2,0.3h14.4c0.2,0,0.3-0.1,0.2-0.3l-7.2-11.5
	C376.8-187.9,376.8-187.9,376.7-187.9L376.7-187.9z"/>
<path fill="#ff3300" stroke="#ff3300" stroke-width="0.5" stroke-miterlimit="10" d="M327.5-188.1v14.4c0,0.9,0.6,1.6,1.4,1.6h15.5
	c0.8,0,1.4-0.7,1.4-1.6v-14.4c0-0.9-0.6-1.6-1.4-1.6h-15.5C328.2-189.7,327.5-189,327.5-188.1z M328.3-188.1c0-0.4,0.3-0.7,0.6-0.7
	h15.5c0.3,0,0.6,0.3,0.6,0.7v14.4c0,0.4-0.3,0.7-0.6,0.7h-15.5c-0.3,0-0.6-0.3-0.6-0.7V-188.1z"/>
<path fill="#ff3300" stroke="#ff3300" stroke-miterlimit="10" d="M336.6-184.9c-0.1-0.1-0.2-0.1-0.3,0c-0.1,0.1-0.1,0.2,0,0.3
	l3.9,3.9l-3.9,3.9c-0.1,0.1-0.1,0.2,0,0.3c0.1,0.1,0.2,0.1,0.3,0l4-4c0,0,0.1-0.1,0.1-0.2s0-0.1-0.1-0.2L336.6-184.9z"/>
<path fill="#ff3300" stroke="#ff3300" stroke-miterlimit="10" d="M333.6-184.7c-0.1-0.1-0.2-0.1-0.3,0c-0.1,0.1-0.1,0.2,0,0.3
	l3.9,3.9l-3.9,3.9c-0.1,0.1-0.1,0.2,0,0.3c0.1,0.1,0.2,0.1,0.3,0l4-4c0,0,0.1-0.1,0.1-0.2s0-0.1-0.1-0.2L333.6-184.7z"/>
<path fill="#ff3300" stroke="#ff3300" stroke-width="0.5" stroke-miterlimit="10" d="M287.4-188.1v14.4c0,0.9,0.6,1.6,1.4,1.6h15.5
	c0.8,0,1.4-0.7,1.4-1.6v-14.4c0-0.9-0.6-1.6-1.4-1.6h-15.5C288-189.7,287.4-189,287.4-188.1z M288.2-188.1c0-0.4,0.3-0.7,0.6-0.7
	h15.5c0.3,0,0.6,0.3,0.6,0.7v14.4c0,0.4-0.3,0.7-0.6,0.7h-15.5c-0.3,0-0.6-0.3-0.6-0.7V-188.1z"/>
<g>
	<path fill="#ff3300" stroke="#ff3300" stroke-miterlimit="10" d="M297.2-184.9c0.1-0.1,0.2-0.1,0.3,0c0.1,0.1,0.1,0.2,0,0.3
		l-3.9,3.9l3.9,3.9c0.1,0.1,0.1,0.2,0,0.3c-0.1,0.1-0.2,0.1-0.3,0l-4-4c0,0-0.1-0.1-0.1-0.2s0-0.1,0.1-0.2L297.2-184.9z"/>
	<path fill="#ff3300" stroke="#ff3300" stroke-miterlimit="10" d="M300.2-184.7c0.1-0.1,0.2-0.1,0.3,0c0.1,0.1,0.1,0.2,0,0.3
		l-3.9,3.9l3.9,3.9c0.1,0.1,0.1,0.2,0,0.3c-0.1,0.1-0.2,0.1-0.3,0l-4-4c0,0-0.1-0.1-0.1-0.2s0-0.1,0.1-0.2L300.2-184.7z"/>
</g>
<path fill="#ff3300" d="M421.4-181.2l-2.8,0.9l1.8,2.4c0.5,0.6,0.3,1.5-0.3,1.9c-0.3,0.2-0.5,0.3-0.8,0.3c-0.4,0-0.9-0.2-1.1-0.6
	l-1.8-2.4l-1.8,2.4c-0.3,0.4-0.7,0.6-1.1,0.6c-0.3,0-0.6-0.1-0.8-0.3c-0.6-0.5-0.8-1.3-0.3-1.9l1.8-2.4l-2.9-0.9
	c-0.7-0.2-1.1-1-0.9-1.8c0.2-0.7,1-1.1,1.8-0.9l2.9,0.9v-3c0-0.8,0.6-1.4,1.4-1.4c0.8,0,1.4,0.6,1.4,1.4v3l2.9-0.9
	c0.7-0.2,1.5,0.2,1.8,0.9C422.5-182.3,422.1-181.5,421.4-181.2z"/>
<path fill="#ff3300" stroke="#ff3300" stroke-width="0.5" stroke-miterlimit="10" d="M262.5-182c1.5-1.6,1.5-4.1-0.1-5.7
	c-0.8-0.8-1.8-1.2-2.9-1.2c-1.1,0-2.1,0.4-2.9,1.2l-3.4,3.4c-0.2,0.2-0.2,0.5,0,0.7c0.1,0.1,0.2,0.1,0.3,0.1c0.1,0,0.2,0,0.3-0.1
	l3.4-3.4c1.2-1.2,3.2-1.2,4.3,0c1.2,1.2,1.2,3.2,0,4.3l-8.5,8.5c-0.8,0.8-2.1,0.8-2.9,0c-0.8-0.8-0.8-2.1,0-2.9l6.9-6.9l0,0
	c0.4-0.4,1-0.4,1.4,0c0.2,0.2,0.3,0.4,0.3,0.7c0,0.3-0.1,0.5-0.3,0.7l-6,6c-0.2,0.2-0.2,0.5,0,0.7c0.1,0.1,0.2,0.1,0.3,0.1
	s0.2,0,0.3-0.1l6-6c0.4-0.4,0.6-0.9,0.6-1.4c0-0.5-0.2-1-0.6-1.4c-0.7-0.7-1.9-0.8-2.7-0.1c0,0,0,0,0,0l-7,7c-1.2,1.2-1.2,3.1,0,4.2
	c0.6,0.6,1.4,0.9,2.1,0.9c0.8,0,1.5-0.3,2.1-0.9L262.5-182L262.5-182L262.5-182L262.5-182C262.5-182,262.5-182,262.5-182z"/>
<title>interface_004-information-detail-window-application</title>
<desc>Created with Sketch.</desc>
<path fill="#ff3300" stroke="#ff3300" stroke-width="0.5" stroke-miterlimit="10" d="M146.4-171.2L146.4-171.2l0-13.6
	c-0.3,0.2-0.5,0.5-0.8,0.7l0,12.1h-18.1v-13.4h11.1c0.3-0.4,0.7-0.8,1-1.2c0.3-0.4,0.8-0.2,0.9,0.2c0.1,0,0.1,0.1,0.2,0.1
	c0,0,0,0,0,0c1.4,0,2.7,0,4.1,0c0,0,0-0.1,0.1-0.1c-0.1-0.1-0.1-0.3,0-0.5c0.1-0.3,0.3-0.5,0.4-0.8c-0.3,0-0.6-0.1-0.6-0.5
	c0-0.1-0.1-0.4,0-0.5c0,0-0.1,0.4-0.1,0.4c-0.1,0-0.2-0.2-0.3-0.2c-0.1,0-0.1-0.1-0.3,0c-0.2,0.1-0.4,0.3-0.5,0.4c0,0,0,0,0,0
	c0,0-0.1,0.1-0.1,0.1c-0.2,0.1-0.4,0.1-0.5,0c-0.1,0.1-0.2,0.2-0.3,0.4c-0.5,0.5-1.2-0.2-0.7-0.7c0.3-0.3,0.6-0.7,0.9-1h-15.8v18.1
	h19.2l0,0C146.1-171.2,146.2-171.2,146.4-171.2L146.4-171.2L146.4-171.2z"/>
<rect x="127.5" y="-188.5" fill="#FFFFFF" width="18.1" height="2.4"/>
<rect x="128.3" y="-187.7" fill="#ff3300" stroke="#ff3300" stroke-width="0.5" stroke-miterlimit="10" width="0.8" height="0.8"/>
<rect x="129.8" y="-187.7" fill="#ff3300" stroke="#ff3300" stroke-width="0.5" stroke-miterlimit="10" width="0.8" height="0.8"/>
<rect x="131.4" y="-187.7" fill="#ff3300" stroke="#ff3300" stroke-width="0.5" stroke-miterlimit="10" width="0.8" height="0.8"/>
<path fill="#ff3300" stroke="#ff3300" stroke-width="0.5" stroke-miterlimit="10" d="M186.4-171.2L186.4-171.2l0-13.6
	c-0.3,0.2-0.5,0.5-0.8,0.7l0,12.1h-18.1v-13.4h11.1c0.3-0.4,0.7-0.8,1-1.2c0.3-0.4,0.8-0.2,0.9,0.2c0.1,0,0.1,0.1,0.2,0.1
	c0,0,0,0,0,0c1.4,0,2.7,0,4.1,0c0,0,0-0.1,0.1-0.1c-0.1-0.1-0.1-0.3,0-0.5c0.1-0.3,0.3-0.5,0.4-0.8c-0.3,0-0.6-0.1-0.6-0.5
	c0-0.1-0.1-0.4,0-0.5c0,0-0.1,0.4-0.1,0.4c-0.1,0-0.2-0.2-0.3-0.2c-0.1,0-0.1-0.1-0.3,0c-0.2,0.1-0.4,0.3-0.5,0.4c0,0,0,0,0,0
	c0,0-0.1,0.1-0.1,0.1c-0.2,0.1-0.4,0.1-0.5,0c-0.1,0.1-0.2,0.2-0.3,0.4c-0.5,0.5-1.2-0.2-0.7-0.7c0.3-0.3,0.6-0.7,0.9-1h-15.8v18.1
	h19.2l0,0C186.1-171.2,186.2-171.2,186.4-171.2L186.4-171.2L186.4-171.2z"/>
<rect x="167.5" y="-188.5" fill="#FFFFFF" width="18.1" height="2.4"/>
<rect x="169.8" y="-187.7" fill="#ff3300" stroke="#ff3300" stroke-width="0.5" stroke-miterlimit="10" width="0.8" height="0.8"/>
<rect x="168.2" y="-187.7" fill="#ff3300" stroke="#ff3300" stroke-width="0.5" stroke-miterlimit="10" width="0.8" height="0.8"/>
<rect x="171.4" y="-187.7" fill="#ff3300" stroke="#ff3300" stroke-width="0.5" stroke-miterlimit="10" width="0.8" height="0.8"/>
<g>
	<path fill="#ff3300" d="M224.6-187.1c0.2,0.2,0.2,0.5,0,0.7l-0.2,0.2l-0.7-0.7l0.2-0.2C224.1-187.2,224.4-187.2,224.6-187.1z"/>
	<polygon fill="#ff3300" points="221.3,-184.4 221.1,-183.5 221.9,-183.7 224.2,-185.9 223.5,-186.6 	"/>
</g>
<rect x="140.1" y="-186.9" fill="#FFFFFF" width="5" height="1.6"/>
<g>
	<path fill="#ff3300" stroke="#ff3300" stroke-width="0.15" stroke-miterlimit="10" d="M146-187.4l-1.4-1.3
		c-0.4-0.4-1.1-0.3-1.4,0.1l-7.2,8.1l-1.4,4.5l4.3-1.8l7.2-8.1C146.5-186.4,146.4-187,146-187.4z M135.8-178.2l0.5-1.8l1.9,1.7
		l-1.7,0.7L135.8-178.2z M137-179.9l5.7-6.4l0.4,0.4l-5.7,6.4L137-179.9z M136.9-180l-0.4-0.3l5.7-6.4l0.4,0.3L136.9-180z
		 M137.6-179.4l5.7-6.4l0.4,0.4l-5.7,6.4L137.6-179.4z M142.5-187.1l0.2-0.2l2.1,1.9l-0.2,0.2L142.5-187.1z M138.6-178.5l-0.4-0.3
		l5.7-6.4l0.4,0.3L138.6-178.5z M145.6-186.4l-0.6,0.6l-2.1-1.9l0.6-0.6c0.1-0.2,0.4-0.2,0.6,0l1.4,1.3
		C145.8-186.8,145.8-186.5,145.6-186.4z"/>
</g>
<path fill="#FFFFFF" d="M183.9-189.2c0,0-0.8,0.9-0.9,1c-0.1,0-2.5,1.2-2.5,1.2s-0.7-0.1-0.7,0.1s0.3,3.6,0.3,3.6l1.3,2.2
	c0,0,2.1-2.1,2.2-2.2c0.1-0.1,2.8-2.2,2.8-2.2l-1.7-2.6L183.9-189.2z"/>
<g>
	<path fill="#ff3300" stroke="#ff3300" stroke-width="0.15" stroke-miterlimit="10" d="M185.9-188.3c0.6,0.6,0.6,1.5,0,2.1l-0.7,0.7
		l-2.1-2.1l0.7-0.7C184.3-188.9,185.3-188.9,185.9-188.3z"/>
	<polygon fill="#ff3300" stroke="#ff3300" stroke-width="0.15" stroke-miterlimit="10" points="175.5,-180 174.8,-177.2 
		177.5,-177.9 184.5,-184.9 182.4,-186.9 	"/>
</g>
<path fill="#ff3300" stroke="#ff3300" stroke-width="0.75" stroke-miterlimit="10" d="M69.3-58h-1.6v-1.6c0-0.1-0.1-0.2-0.2-0.2
	c-0.1,0-0.2,0.1-0.2,0.2v1.6h-1.6c-0.1,0-0.2,0.1-0.2,0.2s0.1,0.2,0.2,0.2h1.6v1.6c0,0.1,0.1,0.2,0.2,0.2c0.1,0,0.2-0.1,0.2-0.2
	v-1.6h1.6c0.1,0,0.2-0.1,0.2-0.2S69.4-58,69.3-58z"/>
<path fill="#ff3300" stroke="#ff3300" stroke-width="0.75" stroke-miterlimit="10" d="M37.5-27.6c-2.6,0-4.6,2.1-4.6,4.6
	c0,2.6,2.1,4.6,4.6,4.6c2.6,0,4.6-2.1,4.6-4.6C42.2-25.5,40.1-27.6,37.5-27.6z M37.5-18.7c-2.3,0-4.2-1.9-4.2-4.2
	c0-2.3,1.9-4.2,4.2-4.2c2.3,0,4.2,1.9,4.2,4.2C41.8-20.6,39.9-18.7,37.5-18.7z"/>
<path fill="#ff3300" stroke="#ff3300" stroke-width="0.75" stroke-miterlimit="10" d="M39.2-23.1h-1.6v-1.6c0-0.1-0.1-0.2-0.2-0.2
	s-0.2,0.1-0.2,0.2v1.6h-1.6c-0.1,0-0.2,0.1-0.2,0.2c0,0.1,0.1,0.2,0.2,0.2h1.6v1.6c0,0.1,0.1,0.2,0.2,0.2s0.2-0.1,0.2-0.2v-1.6h1.6
	c0.1,0,0.2-0.1,0.2-0.2C39.4-23.1,39.3-23.1,39.2-23.1z"/>
<rect x="491.2" y="-98.9" fill="#ff3300" width="6" height="8.1"/>
<polygon fill="#ff3300" points="495.1,-100.8 489.1,-100.8 489.1,-92.6 490.4,-92.6 490.4,-99.5 495.1,-99.5 "/>
<polygon fill="#ff3300" points="493.1,-102.8 487.2,-102.8 487.2,-94.7 488.5,-94.7 488.5,-101.5 493.1,-101.5 "/>
<g>
</g>
<g>
</g>
<g>
</g>
<g>
</g>
<g>
</g>
<g>
</g>
<g>
</g>
<g>
</g>
<g>
</g>
<g>
</g>
<g>
</g>
<g>
</g>
<g>
</g>
<g>
</g>
<g>
</g>
<g>
</g>
<g>
</g>
<g>
</g>
<g>
</g>
<g>
</g>
<g>
</g>
<g>
</g>
<g>
</g>
<g>
</g>
<g>
</g>
<g>
</g>
<g>
</g>
<g>
</g>
<g>
</g>
<g>
</g>
<g>
	<g>
		<path fill="#ff3300" d="M38.8-71.2c-5.2,0-9.3,4.2-9.3,9.3s4.2,9.3,9.3,9.3h9.3v-9.3C48.1-67,43.9-71.2,38.8-71.2z M38.8-54.2
			c-4.2,0-7.6-3.4-7.6-7.6s3.4-7.6,7.6-7.6s7.6,3.4,7.6,7.6S43-54.2,38.8-54.2z"/>
	</g>
	<path fill="#ff3300" d="M42.6-62.6h-3.1v-3.1c0-0.4-0.3-0.7-0.7-0.7c-0.4,0-0.7,0.3-0.7,0.7v3.1H35c-0.4,0-0.7,0.3-0.7,0.7
		s0.3,0.7,0.7,0.7h3.1v3.1c0,0.4,0.3,0.7,0.7,0.7c0.4,0,0.7-0.3,0.7-0.7v-3.1h3.1c0.4,0,0.7-0.3,0.7-0.7
		C43.3-62.2,43-62.6,42.6-62.6z"/>
</g>
<path fill="#ff3300" d="M46-28.3v-2.9h-2.9v-1.4h-1.6v1.4h-8.2v-1.4h-1.6v1.4h-2.9v15.7h2.9v2.9h17.1v-15.7H46z M30.2-16.8v-13h1.5
	v1.5h1.6v-1.5h8.2v1.5h1.6v-1.5h1.5v13H30.2z M47.6-13.9H33.4v-1.6H46V-27h1.6V-13.9z"/>
<path fill="#ff3300" d="M45.5,2.5h-4.3c0-1.4-1.1-2.5-2.5-2.5c-1.4,0-2.5,1.1-2.5,2.5h-4.4v3h13.6V2.5z M38.7,3.7
	c-0.7,0-1.2-0.6-1.2-1.2c0-0.7,0.6-1.2,1.2-1.2c0.7,0,1.2,0.6,1.2,1.2C39.9,3.2,39.4,3.7,38.7,3.7z"/>
<g>
	<path fill="#ff3300" d="M46.3,2.5v3.7H31V2.5H30v17.4h17.4V2.5H46.3z M46.4,19H30.9V7.3h15.5V19z"/>
	<rect x="30.9" y="7.3" fill="#FFFFFF" width="15.5" height="11.7"/>
</g>
<path fill="#ff3300" stroke="#ff3300" stroke-width="0.75" stroke-miterlimit="10" d="M41.1,11.2c-0.1-0.1-0.2-0.1-0.2,0l-3.6,3.6
	L36,13.7c-0.1-0.1-0.2-0.1-0.2,0s-0.1,0.2,0,0.2l1.3,1.3c0,0,0.1,0,0.1,0s0.1,0,0.1,0l3.8-3.8C41.1,11.3,41.1,11.2,41.1,11.2z"/>
<path fill="#ff3300" stroke="#ff3300" stroke-width="0.75" stroke-miterlimit="10" d="M38.6,8.5c-2.6,0-4.6,2.1-4.6,4.6
	c0,2.6,2.1,4.6,4.6,4.6c2.6,0,4.6-2.1,4.6-4.6C43.2,10.6,41.1,8.5,38.6,8.5z M38.6,17.3c-2.3,0-4.2-1.9-4.2-4.2
	c0-2.3,1.9-4.2,4.2-4.2c2.3,0,4.2,1.9,4.2,4.2C42.8,15.4,40.9,17.3,38.6,17.3z"/>
<path fill="#ff3300" d="M2,1C1.2,1,1.2,1,1.2,1.8v16.3c0,0.7,0,0.7,0.7,0.7s0.7,0,0.7-0.7V1.8C2.7,1,2.7,1,2,1z"/>
<g>
	<path fill="#ff3300" d="M19,1.4c-5.9-1.5-10.4,1.5-14.9,0v10c4.5,1.5,8.9-1.5,14.9,0l-3-5.2L19,1.4z M16.9,10.3
		c-4.5-1.1-7.9,1.1-11.3,0V2.7c3.4,1.1,6.8-1.1,11.3,0l-2.3,3.7L16.9,10.3z"/>
	<path fill="#FFFFFF" d="M16.9,2.7C12.4,1.5,9,3.8,5.6,2.7v7.6c3.4,1.1,6.8-1.1,11.3,0l-2.3-3.9L16.9,2.7z"/>
</g>
</svg>
