<?xml version="1.0" encoding="utf-8"?>
<!-- Generator: Adobe Illustrator 18.1.1, SVG Export Plug-In . SVG Version: 6.00 Build 0)  -->
<svg version="1.1" id="Layer_1" xmlns="http://www.w3.org/2000/svg" xmlns:xlink="http://www.w3.org/1999/xlink" x="0px" y="0px"
	 viewBox="0 0 20 20" enable-background="new 0 0 20 20" xml:space="preserve">
<path fill="#2E368F" d="M2.9,5.5l0.8-0.7l0.8,0.6V1.1H2.9C2.9,1.2,2.9,5.5,2.9,5.5z"/>
<polygon fill="none" points="16.8,16.7 16.8,4.9 12.9,4.9 12.9,1.3 2.1,1.3 2.1,19.9 16.8,19.9 16.8,17 "/>
<path fill="#2E368F" d="M2.1,1.3H13v3.6h3.8v11.8V17v1.7H18v-1.6v-0.5V4.4c0-0.2-0.1-0.4-0.2-0.5l-4-3.6c-0.2-0.1-0.3-0.2-0.5-0.2
	H1.6c-0.4,0-0.8,0.3-0.8,0.8v17.8H2L2.1,1.3L2.1,1.3z"/>
<rect x="5" y="8" fill="#2E368F" width="8.9" height="0.8"/>
<rect x="5" y="9.5" fill="#2E368F" width="8.9" height="0.8"/>
<rect x="5" y="11" fill="#2E368F" width="8.9" height="0.8"/>
<rect x="5" y="12.5" fill="#2E368F" width="8.9" height="0.8"/>
<rect x="5" y="14" fill="#2E368F" width="8.9" height="0.8"/>
<rect x="5" y="15.5" fill="#2E368F" width="8.9" height="0.8"/>
<path fill="#2E368F" d="M16.8,17.9v0.9H2v-0.9c-0.4,0-0.8-0.1-1.2-0.1v1.4c0,0.4,0.3,0.8,0.8,0.8h15.6c0.4,0,0.8-0.3,0.8-0.8v-1.5
	C17.5,17.9,17.2,17.9,16.8,17.9z"/>
</svg>
