<?xml version="1.0" encoding="utf-8"?>
<!-- Generator: Adobe Illustrator 18.1.1, SVG Export Plug-In . SVG Version: 6.00 Build 0)  -->
<svg version="1.1" id="Layer_1" xmlns="http://www.w3.org/2000/svg" xmlns:xlink="http://www.w3.org/1999/xlink" x="0px" y="0px"
	 viewBox="0 0 20 20" enable-background="new 0 0 20 20" xml:space="preserve">
<g>
	<path fill="#2E368F" stroke="#2E368F" stroke-width="0.75" stroke-miterlimit="10" d="M10.2,15.6c0.3,0,0.5-0.2,0.5-0.5V8
		c0-0.3-0.2-0.5-0.5-0.5S9.7,7.8,9.7,8v7.1C9.7,15.4,9.9,15.6,10.2,15.6z"/>
	<path fill="#2E368F" stroke="#2E368F" stroke-width="0.75" stroke-miterlimit="10" d="M10.1,6.2c0.3,0,0.5-0.2,0.5-0.5v-1
		c0-0.3-0.2-0.5-0.5-0.5S9.6,4.4,9.6,4.7v1C9.6,5.9,9.8,6.2,10.1,6.2z"/>
</g>
<path fill="#2E368F" stroke="#2E368F" stroke-width="0.75" stroke-miterlimit="10" d="M10.1,1C5.2,1,1.2,5,1.2,9.9
	c0,4.9,4,8.9,8.9,8.9s8.9-4,8.9-8.9C19,5,15,1,10.1,1z M10.1,18C5.7,18,2,14.4,2,9.9c0-4.5,3.6-8.1,8.1-8.1s8.1,3.6,8.1,8.1
	C18.2,14.4,14.6,18,10.1,18z"/>
</svg>
