<?xml version="1.0" encoding="utf-8"?>
<!-- Generator: Adobe Illustrator 18.1.1, SVG Export Plug-In . SVG Version: 6.00 Build 0)  -->
<svg version="1.1" id="Layer_1" xmlns="http://www.w3.org/2000/svg" xmlns:xlink="http://www.w3.org/1999/xlink" x="0px" y="0px"
	 viewBox="0 0 20 20" enable-background="new 0 0 20 20" xml:space="preserve">
<path fill="#2E368F" stroke="#2E368F" stroke-width="0.75" stroke-miterlimit="10" d="M229.7,208.6l4-4c0.1-0.1,0.1-0.2,0-0.3
	c-0.1-0.1-0.2-0.1-0.3,0l-4,4l-4-4c-0.1-0.1-0.2-0.1-0.3,0c-0.1,0.1-0.1,0.2,0,0.3l4,4l-4,4c-0.1,0.1-0.1,0.2,0,0.3
	c0,0,0.1,0.1,0.2,0.1s0.1,0,0.2-0.1l4-4l4,4c0,0,0.1,0.1,0.2,0.1s0.1,0,0.2-0.1c0.1-0.1,0.1-0.2,0-0.3L229.7,208.6z"/>
<path fill="#2E368F" stroke="#2E368F" stroke-width="0.75" stroke-miterlimit="10" d="M312.4,164.7c0.1-0.1,0.1-0.2,0-0.3
	c-0.1-0.1-0.2-0.1-0.3,0l-1.8,1.8l0.3,0.3L312.4,164.7z"/>
<path fill="#2E368F" stroke="#2E368F" stroke-width="0.75" stroke-miterlimit="10" d="M312.1,172.6c0,0,0.1,0.1,0.2,0.1
	c0.1,0,0.1,0,0.2-0.1c0.1-0.1,0.1-0.2,0-0.3l-2.2-2.2l-0.3,0.3L312.1,172.6z"/>
<path fill="#2E368F" stroke="#2E368F" stroke-width="0.75" stroke-miterlimit="10" d="M308.6,168.5l0.3-0.3l-0.3-0.3l-0.3,0.3
	l-3.8-3.8c-0.1-0.1-0.2-0.1-0.3,0c-0.1,0.1-0.1,0.2,0,0.3l3.8,3.8l-3.8,3.8c-0.1,0.1-0.1,0.2,0,0.3c0,0,0.1,0.1,0.2,0.1
	c0.1,0,0.1,0,0.2-0.1l3.8-3.8l1.3,1.3l0.3-0.3L308.6,168.5z"/>
<path fill="#2E368F" stroke="#2E368F" stroke-width="0.75" stroke-miterlimit="10" d="M307,172.6c-0.1,0.1-0.1,0.2,0,0.3
	c0,0,0.1,0.1,0.2,0.1c0.1,0,0.1,0,0.2-0.1l1.9-1.9l-0.3-0.3L307,172.6z"/>
<path fill="#2E368F" stroke="#2E368F" stroke-width="0.75" stroke-miterlimit="10" d="M307.3,164.6c-0.1-0.1-0.2-0.1-0.3,0
	c-0.1,0.1-0.1,0.2,0,0.3l2.2,2.2l0.3-0.3L307.3,164.6z"/>
<path fill="#2E368F" stroke="#2E368F" stroke-width="0.75" stroke-miterlimit="10" d="M311.5,168.8l3.8-3.8c0.1-0.1,0.1-0.2,0-0.3
	c-0.1-0.1-0.2-0.1-0.3,0l-3.8,3.8l-1.3-1.3l-0.3,0.3l1.3,1.3l-0.4,0.4l0.3,0.3l0.4-0.4l3.8,3.8c0,0,0.1,0.1,0.2,0.1
	c0.1,0,0.1,0,0.2-0.1c0.1-0.1,0.1-0.2,0-0.3L311.5,168.8z"/>
<rect x="309.6" y="169.9" transform="matrix(-0.7072 -0.707 0.707 -0.7072 408.7338 509.4785)" fill="#2E368F" stroke="#2E368F" stroke-width="0.75" stroke-miterlimit="10" width="0.5" height="0.5"/>
<rect x="309.3" y="167" transform="matrix(0.7067 0.7075 -0.7075 0.7067 209.0889 -169.9805)" fill="#2E368F" stroke="#2E368F" stroke-width="0.75" stroke-miterlimit="10" width="0.5" height="0.5"/>
<g>
	<path fill="#2E368F" stroke="#2E368F" stroke-width="0.45" stroke-miterlimit="10" d="M155.8,125.3h-2.4c0.1-0.2,0.2-0.5,0.2-0.8
		v-2c0-1.8-1.5-3.3-3.3-3.3h-2.5c-1.8,0-3.3,1.5-3.3,3.3v2c0,0.3,0.1,0.6,0.2,0.8h-2.4c-1,0-1.8,0.8-1.8,1.8v8.3
		c0,1,0.8,1.8,1.8,1.8h13.5c1,0,1.8-0.8,1.8-1.8v-8.3C157.6,126.1,156.8,125.3,155.8,125.3z M145.4,124.5v-2c0-1.3,1.1-2.3,2.3-2.3
		h2.5c1.3,0,2.3,1.1,2.3,2.3v2c0,0.4-0.4,0.8-0.8,0.8h-5.6C145.8,125.3,145.4,124.9,145.4,124.5z M156.6,135.4
		c0,0.4-0.4,0.8-0.8,0.8h-13.5c-0.4,0-0.8-0.4-0.8-0.8v-8.3c0-0.4,0.4-0.8,0.8-0.8h4h5.6h4c0.4,0,0.8,0.4,0.8,0.8V135.4z"/>
	<path fill="#2E368F" stroke="#2E368F" stroke-width="0.45" stroke-miterlimit="10" d="M149,128.7c-1,0-1.9,0.8-1.9,1.9
		c0,0.9,0.6,1.6,1.4,1.8v1.6c0,0.3,0.2,0.5,0.5,0.5s0.5-0.2,0.5-0.5v-1.6c0.8-0.2,1.4-0.9,1.4-1.8
		C150.9,129.5,150.1,128.7,149,128.7z M149,131.5c-0.5,0-0.9-0.4-0.9-0.9s0.4-0.9,0.9-0.9s0.9,0.4,0.9,0.9S149.5,131.5,149,131.5z"
		/>
</g>
<g>
	<path fill="#2E368F" stroke="#2E368F" stroke-width="0.45" stroke-miterlimit="10" d="M196.9,126.2h-2.4c0.1-0.2,0.2-0.5,0.2-0.8
		v-2c0-1.8-1.5-3.3-3.3-3.3h-2.5c-1.8,0-3.3,1.5-3.3,3.3c0,0.3,0.2,0.5,0.5,0.5s0.5-0.2,0.5-0.5c0-1.3,1.1-2.3,2.3-2.3h2.5
		c1.3,0,2.3,1.1,2.3,2.3v2c0,0.4-0.4,0.8-0.8,0.8h-5.6h-4c-1,0-1.8,0.8-1.8,1.8v8.3c0,1,0.8,1.8,1.8,1.8h13.5c1,0,1.8-0.8,1.8-1.8
		V128C198.7,127,197.8,126.2,196.9,126.2z M197.7,136.3c0,0.4-0.4,0.8-0.8,0.8h-13.5c-0.4,0-0.8-0.4-0.8-0.8V128
		c0-0.4,0.4-0.8,0.8-0.8h4h5.6h4c0.4,0,0.8,0.4,0.8,0.8V136.3z"/>
	<path fill="#2E368F" stroke="#2E368F" stroke-width="0.45" stroke-miterlimit="10" d="M190.1,129.6c-1,0-1.9,0.8-1.9,1.9
		c0,0.9,0.6,1.6,1.4,1.8v1.6c0,0.3,0.2,0.5,0.5,0.5s0.5-0.2,0.5-0.5v-1.6c0.8-0.2,1.4-0.9,1.4-1.8
		C192,130.4,191.2,129.6,190.1,129.6z M190.1,132.4c-0.5,0-0.9-0.4-0.9-0.9c0-0.5,0.4-0.9,0.9-0.9s0.9,0.4,0.9,0.9
		C191,132,190.6,132.4,190.1,132.4z"/>
</g>
<path fill="#2E368F" d="M36.8,119.6H22.4c-1,0-1.8,0.8-1.8,1.8v14.4c0,1,0.8,1.8,1.8,1.8h14.4c1,0,1.8-0.8,1.8-1.8v-14.4
	C38.6,120.4,37.8,119.6,36.8,119.6z M34.4,126.2c0,0-5.8,5.8-5.8,5.8c-0.3,0.3-0.5,0.2-0.8,0l-2.8-2.8c-0.3-0.3-0.3-0.5,0-0.8
	c0.3-0.3,0.5-0.3,0.8,0l2.4,2.4l5.3-5.4c0.3-0.3,0.5-0.3,0.8,0C34.7,125.7,34.7,125.9,34.4,126.2z"/>
<path fill="#2E368F" stroke="#2E368F" stroke-width="0.5" stroke-miterlimit="10" d="M-3.3,200.6c0.4,0,0.8,0.4,0.8,0.8v14.3
	c0,0.4-0.4,0.8-0.8,0.8h-14.3c-0.4,0-0.8-0.4-0.8-0.8v-14.3c0-0.4,0.4-0.8,0.8-0.8L-3.3,200.6 M-3.3,199.5h-14.3
	c-1,0-1.9,0.8-1.9,1.9v14.3c0,1,0.8,1.9,1.9,1.9h14.3c1,0,1.9-0.8,1.9-1.9v-14.3C-1.4,200.3-2.3,199.5-3.3,199.5L-3.3,199.5z"/>
<path fill="#2E368F" stroke="#2E368F" stroke-miterlimit="10" d="M315.7,88.8c0.1-0.1,0.1-0.2,0.1-0.3c0-0.1,0-0.2-0.1-0.3l-8.2-8.2
	c-0.2-0.2-0.5-0.2-0.6,0c-0.2,0.2-0.2,0.5,0,0.6l7.8,7.8l-7.8,7.8c-0.2,0.2-0.2,0.5,0,0.6c0.2,0.2,0.5,0.2,0.6,0L315.7,88.8z"/>
<path fill="#2E368F" stroke="#2E368F" stroke-miterlimit="10" d="M30.2,204.5c-0.1-0.1-0.2-0.1-0.3-0.1s-0.2,0-0.3,0.1l-8.2,8.2
	c-0.2,0.2-0.2,0.5,0,0.6c0.2,0.2,0.5,0.2,0.6,0l7.8-7.8l7.8,7.8c0.2,0.2,0.5,0.2,0.6,0c0.2-0.2,0.2-0.5,0-0.6L30.2,204.5z"/>
<path fill="#2E368F" stroke="#2E368F" stroke-miterlimit="10" d="M189.2,173.5c0.1,0.1,0.2,0.1,0.3,0.1s0.2,0,0.3-0.1l8.2-8.2
	c0.2-0.2,0.2-0.5,0-0.6c-0.2-0.2-0.5-0.2-0.6,0l-7.8,7.8l-7.8-7.8c-0.2-0.2-0.5-0.2-0.6,0c-0.2,0.2-0.2,0.5,0,0.6L189.2,173.5z"/>
<g transform="matrix( 1, 0, 0, 1, 0,0) ">
	<g>
		<g id="a_3_">
			<path fill="#2E368F" stroke="#2E368F" stroke-width="0.5" stroke-miterlimit="10" d="M60,164v7.2c0,0.9,0.3,1.7,1,2.4
				c0.7,0.7,1.5,1,2.4,1v2.6c0,0.1,0,0.2,0.1,0.3c0,0.1,0.1,0.1,0.2,0.2c0.1,0,0.1,0,0.2,0c0.1,0,0.2,0,0.3-0.1l3-2.9h8.3
				c1,0,1.8-0.3,2.5-1c0.7-0.7,1-1.5,1-2.4V164c0-1-0.3-1.8-1-2.4c-0.7-0.7-1.5-1-2.5-1H63.5c-1,0-1.8,0.3-2.5,1
				C60.3,162.2,60,163,60,164 M63.5,161.4h12.1c0.7,0,1.3,0.2,1.8,0.7c0.5,0.5,0.8,1.1,0.8,1.8v7.2c0,0.7-0.3,1.3-0.8,1.8
				c-0.5,0.5-1.1,0.8-1.8,0.8h-8.5c-0.1,0-0.2,0-0.3,0.1l-2.3,2.3v-2c0-0.1,0-0.2-0.1-0.3c-0.1-0.1-0.2-0.1-0.3-0.1h-0.4
				c-0.7,0-1.3-0.3-1.8-0.8c-0.5-0.5-0.8-1.1-0.8-1.8V164c0-0.7,0.3-1.3,0.8-1.8C62.2,161.7,62.8,161.4,63.5,161.4z"/>
			<path fill="#2E368F" stroke="#2E368F" stroke-width="0.5" stroke-miterlimit="10" d="M74.8,168.4c0.2-0.2,0.4-0.5,0.4-0.8
				c0-0.3-0.1-0.6-0.4-0.8c-0.2-0.2-0.5-0.4-0.9-0.4c-0.3,0-0.6,0.1-0.9,0.4c-0.2,0.2-0.4,0.5-0.4,0.8c0,0.3,0.1,0.6,0.4,0.8
				c0.2,0.2,0.5,0.3,0.9,0.3C74.2,168.7,74.5,168.6,74.8,168.4 M66.5,167.5c0-0.3-0.1-0.6-0.4-0.8c-0.2-0.2-0.5-0.4-0.9-0.4
				c-0.3,0-0.6,0.1-0.9,0.4c-0.2,0.2-0.4,0.5-0.4,0.8c0,0.3,0.1,0.6,0.4,0.8c0.2,0.2,0.5,0.3,0.9,0.3c0.3,0,0.6-0.1,0.9-0.3
				C66.3,168.2,66.5,167.9,66.5,167.5 M68.7,166.7c-0.2,0.2-0.4,0.5-0.4,0.8c0,0.3,0.1,0.6,0.4,0.8c0.2,0.2,0.5,0.3,0.9,0.3
				c0.3,0,0.6-0.1,0.9-0.3c0.2-0.2,0.4-0.5,0.4-0.8c0-0.3-0.1-0.6-0.4-0.8c-0.2-0.2-0.5-0.4-0.9-0.4C69.2,166.4,69,166.5,68.7,166.7
				z"/>
		</g>
	</g>
</g>
<path fill="#2E368F" stroke="#2E368F" stroke-width="0.45" stroke-miterlimit="10" d="M-46.9,216h-2v2H-60v-15.2h2v-2h2v-2h11.1V214
	h-2L-46.9,216L-46.9,216z M-49.4,203.4h-10.1v14.2h10.1V203.4z M-58,205.4v-0.5h7.1v0.5H-58z M-58,207.4v-0.5h7.1v0.5H-58z
	 M-58,209.5v-0.5h7.1v0.5H-58z M-58,211.5V211h7.1v0.5H-58z M-58,213.5V213h7.1v0.5H-58z M-58,215.5V215h7.1v0.5H-58z M-57.5,201.4
	v1.5h8.6v12.6h1.5v-14.2H-57.5z M-55.5,199.3v1.5h8.6v12.6h1.5v-14.2H-55.5z"/>
<path fill="#2E368F" d="M29,238.7c0,0-0.1,0-0.1,0.1l-5.2,8.4c-0.1,0.1,0,0.2,0.1,0.2h10.4c0.1,0,0.2-0.1,0.1-0.2l-5.2-8.4
	C29.1,238.8,29,238.7,29,238.7L29,238.7z M23.8,249.2c-0.1,0-0.2,0.1-0.1,0.2l5.2,8.4c0.1,0.1,0.2,0.1,0.2,0l5.2-8.4
	c0.1-0.1,0-0.2-0.1-0.2H23.8L23.8,249.2z"/>
<path fill="#2E368F" stroke="#2E368F" stroke-width="0.75" stroke-miterlimit="10" d="M309.3,159.1c-5.3,0-9.6,4.3-9.6,9.6
	s4.3,9.6,9.6,9.6s9.6-4.3,9.6-9.6S314.6,159.1,309.3,159.1z M309.3,177.4c-4.8,0-8.7-3.9-8.7-8.7c0-4.8,3.9-8.7,8.7-8.7
	s8.7,3.9,8.7,8.7C318.1,173.5,314.1,177.4,309.3,177.4z"/>
<g>
	<path fill="#2E368F" stroke="#2E368F" stroke-width="0.75" stroke-miterlimit="10" d="M109.1,208.8c-1.9,0-3.5,1.2-4.1,2.9h0.4
		c0.6-1.6,1.9-2.5,3.7-2.5c2.1,0,3.9,1.8,3.9,3.9c0,2.1-1.8,3.9-3.9,3.9c-1.6,0-2.9-1-3.5-2.3h-0.4c0.6,1.6,2.1,2.7,3.9,2.7
		c2.3,0,4.3-1.9,4.3-4.3C113.4,210.7,111.4,208.8,109.1,208.8z"/>
	<path fill="#2E368F" stroke="#2E368F" stroke-width="0.75" stroke-miterlimit="10" d="M109.1,210.3v3.3h2.5v0.4h-2.9
		c0-1.2,0-2.7,0-3.7L109.1,210.3z"/>
</g>
<path fill="#2E368F" stroke="#2E368F" stroke-miterlimit="10" d="M78,208.7c-0.2,0-0.3,0.1-0.3,0.3v5c0,1.6-1.3,2.9-2.9,2.9H64.2
	c-1.6,0-2.9-1.3-2.9-2.9v-8.4v-2.2c0-1.6,1.3-2.9,2.9-2.9h4.9c0.2,0,0.3-0.1,0.3-0.3s-0.1-0.3-0.3-0.3h-4.9c-1.9,0-3.5,1.6-3.5,3.5
	v2.2v8.4c0,1.9,1.6,3.5,3.5,3.5h10.6c1.9,0,3.5-1.6,3.5-3.5v-5C78.2,208.8,78.1,208.7,78,208.7z"/>
<g>
	<g>
		<path fill="#2E368F" d="M78.5,199.7c0.6,0.6,0.6,1.5,0,2.1l-0.7,0.7l-2.1-2.1l0.7-0.7C77.1,199.1,78,199.1,78.5,199.7z"/>
		<polygon fill="#2E368F" points="68.3,207.9 67.6,210.6 70.3,210 77.2,203.1 75.1,201.1 		"/>
	</g>
</g>
<g>
	<g>
		<path fill="#2E368F" d="M-76.8,141.7c0.3,0.3,0.3,0.7,0,0.9l-0.3,0.3L-78,142l0.3-0.3C-77.5,141.4-77.1,141.4-76.8,141.7z"/>
		<polygon fill="#2E368F" points="-81.4,145.3 -81.7,146.5 -80.4,146.2 -77.4,143.2 -78.3,142.3 		"/>
	</g>
</g>
<path fill="#2E368F" stroke="#2E368F" stroke-miterlimit="10" d="M-165.9,217.3c0-0.2-0.1-0.3-0.3-0.3h-5.2c-1.7,0-3-1.4-3-3V203
	c0-1.7,1.4-3,3-3h8.7h2.3c1.7,0,3,1.4,3,3v5.1c0,0.2,0.1,0.3,0.3,0.3c0.2,0,0.3-0.1,0.3-0.3V203c0-2-1.6-3.6-3.6-3.6h-2.3h-8.7
	c-2,0-3.6,1.6-3.6,3.6V214c0,2,1.6,3.6,3.6,3.6h5.2C-166,217.6-165.9,217.4-165.9,217.3z"/>
<path fill="#2E368F" stroke="#2E368F" stroke-width="0.75" stroke-miterlimit="10" d="M237.9,248.9c-0.2,0-0.3,0.1-0.3,0.3v5
	c0,1.6-1.3,2.9-2.9,2.9h-10.5c-1.6,0-2.9-1.3-2.9-2.9v-8.4v-2.2c0-1.6,1.3-2.9,2.9-2.9h4.9c0.2,0,0.3-0.1,0.3-0.3
	c0-0.2-0.1-0.3-0.3-0.3h-4.9c-1.9,0-3.5,1.5-3.5,3.5v2.2v8.4c0,1.9,1.5,3.5,3.5,3.5h10.5c1.9,0,3.5-1.5,3.5-3.5v-5
	C238.2,249,238.1,248.9,237.9,248.9z"/>
<path fill="#2E368F" stroke="#2E368F" stroke-width="0.75" stroke-miterlimit="10" d="M198.4,88.5c-0.2,0-0.3,0.1-0.3,0.3v5.3
	c0,1.7-1.4,3.1-3.1,3.1h-11.3c-1.7,0-3.1-1.4-3.1-3.1v-9v-2.3c0-1.7,1.4-3.1,3.1-3.1h5.3c0.2,0,0.3-0.1,0.3-0.3
	c0-0.2-0.1-0.3-0.3-0.3h-5.3c-2,0-3.7,1.7-3.7,3.7v2.3v9c0,2,1.7,3.7,3.7,3.7H195c2,0,3.7-1.7,3.7-3.7v-5.3
	C198.7,88.6,198.6,88.5,198.4,88.5z"/>
<g>
	<path fill="#2E368F" d="M199.1,78.9c0.6,0.6,0.6,1.6,0,2.2l-0.7,0.7l-2.2-2.2l0.7-0.7C197.5,78.3,198.5,78.3,199.1,78.9z"/>
	<polygon fill="#2E368F" points="188.1,87.7 187.4,90.6 190.3,89.9 197.6,82.6 195.4,80.4 	"/>
</g>
<path fill="#2E368F" stroke="#2E368F" stroke-width="0.75" stroke-miterlimit="10" d="M117.5,87.6h-7.1v-7.1c0-0.5-0.4-0.8-0.8-0.8
	c-0.5,0-0.8,0.4-0.8,0.8v7.1h-7.1c-0.5,0-0.8,0.4-0.8,0.8s0.4,0.8,0.8,0.8h7.1v7.1c0,0.5,0.4,0.8,0.8,0.8c0.5,0,0.8-0.4,0.8-0.8
	v-7.1h7.1c0.5,0,0.8-0.4,0.8-0.8S118,87.6,117.5,87.6z"/>
<path fill="#2E368F" stroke="#2E368F" stroke-width="0.75" stroke-miterlimit="10" d="M78.4,96.7l-4.2-4.2c2.7-3,2.6-7.7-0.3-10.6
	c-3-3-7.9-3-11,0c-3,3-3,7.9,0,11c1.5,1.5,3.5,2.3,5.5,2.3c1.8,0,3.7-0.7,5.1-2l4.2,4.2c0.1,0.1,0.2,0.1,0.3,0.1
	c0.1,0,0.2,0,0.3-0.1C78.6,97.2,78.6,96.9,78.4,96.7z M63.5,92.2c-2.7-2.7-2.7-7,0-9.7c1.3-1.3,3.1-2,4.8-2s3.5,0.7,4.8,2
	c2.7,2.7,2.7,7,0,9.7C70.6,94.8,66.2,94.8,63.5,92.2z"/>
<path fill="#2E368F" stroke="#2E368F" stroke-width="0.75" stroke-miterlimit="10" d="M154.4,216.6l-2.1-2.1
	c1.4-1.5,1.3-3.9-0.2-5.4c-1.5-1.5-4-1.5-5.5,0c-1.5,1.5-1.5,4,0,5.5c0.8,0.8,1.8,1.1,2.8,1.1c0.9,0,1.9-0.3,2.6-1l2.1,2.1
	c0,0,0.1,0.1,0.2,0.1s0.1,0,0.2-0.1C154.5,216.8,154.5,216.7,154.4,216.6z M146.9,214.3c-1.3-1.3-1.3-3.5,0-4.9c0.7-0.7,1.6-1,2.4-1
	c0.9,0,1.8,0.3,2.4,1c1.3,1.3,1.3,3.5,0,4.9C150.4,215.7,148.2,215.7,146.9,214.3z"/>
<path fill="#2E368F" stroke="#2E368F" stroke-width="0.75" stroke-miterlimit="10" d="M-50.5,79.3c-5,0-9.1,4.1-9.1,9.1
	c0,5,4.1,9.1,9.1,9.1s9.1-4.1,9.1-9.1C-41.3,83.4-45.4,79.3-50.5,79.3z M-50.5,96.8c-4.6,0-8.3-3.7-8.3-8.3c0-4.6,3.7-8.3,8.3-8.3
	s8.3,3.7,8.3,8.3C-42.1,93.1-45.9,96.8-50.5,96.8z"/>
<path fill="#2E368F" stroke="#2E368F" stroke-miterlimit="10" d="M158,80.6v4.6c0,0.1-0.1,0.2-0.2,0.2s-0.2-0.1-0.2-0.2v-4l-7.8,7.8
	c0,0-0.1,0.1-0.2,0.1c0,0-0.1,0-0.2-0.1c-0.1-0.1-0.1-0.2,0-0.3l7.8-7.8h-4c-0.1,0-0.2-0.1-0.2-0.2s0.1-0.2,0.2-0.2h4.6
	C157.9,80.3,158,80.4,158,80.6z"/>
<path fill="#2E368F" stroke="#2E368F" stroke-width="0.75" stroke-miterlimit="10" d="M157.3,88.8c-0.1,0-0.2,0.1-0.2,0.2v4.6
	c0,1.5-1.2,2.7-2.7,2.7h-9.8c-1.5,0-2.7-1.2-2.7-2.7v-7.8v-2c0-1.5,1.2-2.7,2.7-2.7h4.6c0.1,0,0.2-0.1,0.2-0.2s-0.1-0.2-0.2-0.2
	h-4.6c-1.8,0-3.2,1.4-3.2,3.2v2v7.8c0,1.8,1.4,3.2,3.2,3.2h9.8c1.8,0,3.2-1.4,3.2-3.2V89C157.6,88.9,157.5,88.8,157.3,88.8z"/>
<path fill="#2E368F" stroke="#2E368F" stroke-miterlimit="10" d="M-100.4,132.1v4.3c0,0.1-0.1,0.2-0.2,0.2c-0.1,0-0.2-0.1-0.2-0.2
	v-3.8l-7.4,7.4c0,0-0.1,0.1-0.2,0.1c0,0-0.1,0-0.2-0.1c-0.1-0.1-0.1-0.2,0-0.3l7.4-7.4h-3.8c-0.1,0-0.2-0.1-0.2-0.2
	c0-0.1,0.1-0.2,0.2-0.2h4.3C-100.4,131.8-100.4,131.9-100.4,132.1z"/>
<path fill="#2E368F" stroke="#2E368F" stroke-width="0.75" stroke-miterlimit="10" d="M-103,142c-0.1,0-0.2,0.1-0.2,0.2v4.4
	c0,1.4-1.2,2.6-2.6,2.6h-9.4c-1.4,0-2.6-1.2-2.6-2.6v-7.5v-1.9c0-1.4,1.2-2.6,2.6-2.6h4.4c0.1,0,0.2-0.1,0.2-0.2
	c0-0.1-0.1-0.2-0.2-0.2h-4.4c-1.7,0-3.1,1.4-3.1,3.1v1.9v7.5c0,1.7,1.4,3.1,3.1,3.1h9.4c1.7,0,3.1-1.4,3.1-3.1v-4.4
	C-102.8,142.1-102.8,142-103,142z"/>
<path fill="#2E368F" stroke="#2E368F" stroke-width="0.5" stroke-miterlimit="10" d="M-1.1,92.3v-7.9c0-0.2,0.1-1.8-0.5-2.5
	c-0.4-0.5-1.2-0.6-2-0.6H-4c-0.1,0-0.3,0-0.6,0v-0.7c0-0.2-0.2-0.4-0.4-0.4c-0.2,0-0.4,0.2-0.4,0.4v0.8c-2.5,0-8,0-10.5,0v-0.8
	c0-0.2-0.2-0.4-0.4-0.4s-0.2,0.2-0.2,0.4v0.8c-0.3,0-0.5,0-0.6,0h-0.3c-0.9,0-1.7,0-2,0.6c-0.6,0.6-0.5,2.2-0.5,2.4V96
	c0,0.2,0.2,0.4,0.4,0.4H-5c0.1,0,0.2,0,0.3-0.1l0,0l3.6-3.7l0,0l0,0l0,0c0,0,0,0,0-0.1S-1.1,92.4-1.1,92.3z M-18.9,82.4
	c0.2-0.3,0.9-0.3,1.6-0.3h0.4c0.1,0,0.3,0,0.6,0v0.5c0,0.2,0.2,0.4,0.4,0.4s0.3-0.2,0.3-0.4v-0.5c2.5,0,8,0,10.5,0v0.5
	c0,0.2,0.2,0.4,0.4,0.4c0.2,0,0.4-0.2,0.4-0.4v-0.5c0.3,0,0.5,0,0.6,0h0.4c0.7,0,1.3,0,1.6,0.3c0.1,0.3,0.1,1.1,0.1,1.7h-17.4
	C-19.2,83.4-19.1,82.7-18.9,82.4z M-19.2,84.8h17.4V92h-3.3c-0.2,0-0.4,0.2-0.4,0.4v3.4h-13.7V84.8z M-2.3,92.7l-2.4,2.5v-2.5H-2.3z
	"/>
<g>
	<rect x="-15.5" y="86.7" fill="#2E368F" width="1.9" height="1.4"/>
	<rect x="-12.8" y="86.7" fill="#2E368F" width="1.9" height="1.4"/>
	<rect x="-10" y="86.7" fill="#2E368F" width="1.9" height="1.4"/>
	<rect x="-7.4" y="86.7" fill="#2E368F" width="1.9" height="1.4"/>
	<rect x="-15.5" y="88.9" fill="#2E368F" width="1.9" height="1.4"/>
	<rect x="-12.8" y="88.9" fill="#2E368F" width="1.9" height="1.4"/>
	<rect x="-10" y="88.9" fill="#2E368F" width="1.9" height="1.4"/>
	<rect x="-7.4" y="88.9" fill="#2E368F" width="1.9" height="1.4"/>
	<rect x="-15.5" y="91.1" fill="#2E368F" width="1.9" height="1.4"/>
	<rect x="-12.8" y="91.1" fill="#2E368F" width="1.9" height="1.4"/>
	<rect x="-10" y="91.1" fill="#2E368F" width="1.9" height="1.4"/>
	<rect x="-7.4" y="91.1" fill="#2E368F" width="1.9" height="1.4"/>
</g>
<g>
	<g>
		<path fill="#EF3C24" d="M30.1,79.6c-0.1-0.2-0.3-0.3-0.5-0.3c-0.2,0-0.4,0.1-0.5,0.3l-9.2,16c-0.1,0.2-0.1,0.4,0,0.6
			c0.1,0.2,0.3,0.3,0.5,0.3h18.5l0,0c0.3,0,0.6-0.3,0.6-0.6c0-0.1,0-0.3-0.1-0.4L30.1,79.6z M21.4,95.3l8.1-14.1l8.1,14.1H21.4z"/>
		<path fill="#EF3C24" d="M28.9,85.6v4.9c0,0.3,0.3,0.6,0.6,0.6s0.6-0.3,0.6-0.6v-4.9c0-0.3-0.3-0.6-0.6-0.6
			C29.2,84.9,28.9,85.2,28.9,85.6z"/>
		<path fill="#EF3C24" d="M29.5,91.9c-0.3,0-0.6,0.3-0.6,0.6V93c0,0.3,0.3,0.6,0.6,0.6c0.3,0,0.6-0.3,0.6-0.6v-0.4
			C30.2,92.2,29.9,91.9,29.5,91.9z"/>
	</g>
</g>
<g>
	<g>
		<path fill="#F26722" d="M-50.3,39.7c-0.1-0.2-0.3-0.3-0.5-0.3c-0.2,0-0.4,0.1-0.5,0.3l-9.2,16c-0.1,0.2-0.1,0.4,0,0.6
			c0.1,0.2,0.3,0.3,0.5,0.3h18.5l0,0c0.3,0,0.6-0.3,0.6-0.6c0-0.1,0-0.3-0.1-0.4L-50.3,39.7z M-59,55.4l8.1-14.1l8.1,14.1H-59z"/>
		<path fill="#F26722" d="M-51.5,45.7v4.9c0,0.3,0.3,0.6,0.6,0.6c0.3,0,0.6-0.3,0.6-0.6v-4.9c0-0.3-0.3-0.6-0.6-0.6
			C-51.2,45-51.5,45.3-51.5,45.7z"/>
		<path fill="#F26722" d="M-50.9,52c-0.3,0-0.6,0.3-0.6,0.6v0.4c0,0.3,0.3,0.6,0.6,0.6s0.6-0.3,0.6-0.6v-0.4
			C-50.3,52.3-50.5,52-50.9,52z"/>
	</g>
</g>
<polygon fill="#2E368F" points="-55.3,88.2 -52.9,88.2 -52.9,91.8 -48.1,91.8 -48.1,88.2 -45.7,88.2 -50.5,83.4 "/>
<path fill="#2E368F" stroke="#2E368F" stroke-width="0.75" stroke-miterlimit="10" d="M229.4,199.4c-5.1,0-9.2,4.1-9.2,9.2
	c0,5.1,4.1,9.2,9.2,9.2s9.2-4.1,9.2-9.2C238.5,203.5,234.4,199.4,229.4,199.4z M229.4,216.9c-4.6,0-8.4-3.8-8.4-8.4
	c0-4.6,3.8-8.4,8.4-8.4c4.6,0,8.4,3.8,8.4,8.4C237.7,213.2,234,216.9,229.4,216.9z"/>
<path fill="#2E368F" stroke="#2E368F" stroke-width="0.75" stroke-miterlimit="10" d="M309.5,199.4c-5.1,0-9.2,4.1-9.2,9.2
	c0,5.1,4.1,9.2,9.2,9.2s9.2-4.1,9.2-9.2C318.7,203.5,314.6,199.4,309.5,199.4z M309.5,216.9c-4.6,0-8.4-3.8-8.4-8.4
	c0-4.6,3.8-8.4,8.4-8.4c4.6,0,8.4,3.8,8.4,8.4C317.9,213.2,314.1,216.9,309.5,216.9z"/>
<path fill="#2E368F" stroke="#2E368F" stroke-width="0.75" stroke-miterlimit="10" d="M-49.7,172.6l1.9-1.9c0,0,0-0.1,0-0.2
	c0,0-0.1,0-0.2,0l-1.9,1.9l-1.9-1.9c0,0-0.1,0-0.2,0c0,0,0,0.1,0,0.2l1.9,1.9l-1.9,1.9c0,0,0,0.1,0,0.2c0,0,0.1,0,0.1,0
	c0,0,0.1,0,0.1,0l1.9-1.9l1.9,1.9c0,0,0.1,0,0.1,0c0,0,0.1,0,0.1,0c0,0,0-0.1,0-0.2L-49.7,172.6z"/>
<path fill="#2E368F" stroke="#2E368F" stroke-width="0.75" stroke-miterlimit="10" d="M-49.9,167.7c-2.7,0-4.8,2.2-4.8,4.8
	c0,2.7,2.2,4.8,4.8,4.8s4.8-2.2,4.8-4.8C-45,169.9-47.2,167.7-49.9,167.7z M-49.9,177c-2.4,0-4.4-2-4.4-4.4c0-2.4,2-4.4,4.4-4.4
	s4.4,2,4.4,4.4C-45.4,175-47.4,177-49.9,177z"/>
<rect x="-10.9" y="119.9" transform="matrix(-0.5425 -0.8401 0.8401 -0.5425 -124.1031 189.3466)" fill="#2E368F" stroke="#2E368F" stroke-width="0.75" stroke-miterlimit="10" width="0.8" height="17.2"/>
<path fill="#2E368F" stroke="#2E368F" stroke-width="0.75" stroke-miterlimit="10" d="M-10.6,119.5c-4.8,0-8.8,3.9-8.8,8.8
	c0,4.8,3.9,8.8,8.8,8.8s8.8-3.9,8.8-8.8C-1.8,123.5-5.7,119.5-10.6,119.5z M-10.6,136.3c-4.4,0-8-3.6-8-8c0-4.4,3.6-8,8-8s8,3.6,8,8
	C-2.6,132.7-6.2,136.3-10.6,136.3z"/>
<g>
	<path fill="#2E368F" stroke="#2E368F" stroke-width="0.75" stroke-miterlimit="10" d="M229.7,174.1c0.3,0,0.5-0.2,0.5-0.5v-7.1
		c0-0.3-0.2-0.5-0.5-0.5c-0.3,0-0.5,0.2-0.5,0.5v7.1C229.2,173.9,229.4,174.1,229.7,174.1z"/>
	<path fill="#2E368F" stroke="#2E368F" stroke-width="0.75" stroke-miterlimit="10" d="M229.6,164.7c0.3,0,0.5-0.2,0.5-0.5v-1
		c0-0.3-0.2-0.5-0.5-0.5c-0.3,0-0.5,0.2-0.5,0.5v1C229.1,164.4,229.3,164.7,229.6,164.7z"/>
</g>
<path fill="#2E368F" stroke="#2E368F" stroke-width="0.75" stroke-miterlimit="10" d="M229.6,159.5c-4.9,0-8.9,4-8.9,8.9
	c0,4.9,4,8.9,8.9,8.9c4.9,0,8.9-4,8.9-8.9C238.5,163.5,234.5,159.5,229.6,159.5z M229.6,176.5c-4.5,0-8.1-3.6-8.1-8.1
	c0-4.5,3.6-8.1,8.1-8.1c4.5,0,8.1,3.6,8.1,8.1C237.8,172.9,234.1,176.5,229.6,176.5z"/>
<path fill="#2E368F" stroke="#2E368F" stroke-width="0.75" stroke-miterlimit="10" d="M109.7,159.4c-5.2,0-9.4,4.2-9.4,9.4
	c0,5.2,4.2,9.4,9.4,9.4s9.4-4.2,9.4-9.4C119,163.6,114.8,159.4,109.7,159.4z M109.7,177.3c-4.7,0-8.5-3.8-8.5-8.5
	c0-4.7,3.8-8.5,8.5-8.5s8.5,3.8,8.5,8.5C118.2,173.5,114.4,177.3,109.7,177.3z"/>
<polygon fill="#2E368F" points="114.5,168.4 112.1,168.4 112.1,164.7 107.2,164.7 107.2,168.4 104.7,168.4 109.6,173.3 "/>
<path fill="#2E368F" stroke="#2E368F" stroke-width="0.75" stroke-miterlimit="10" d="M-50.5,119.7c-4.9,0-8.8,4-8.8,8.8
	c0,4.9,4,8.8,8.8,8.8s8.8-4,8.8-8.8C-41.7,123.7-45.7,119.7-50.5,119.7z M-50.5,136.6c-4.4,0-8-3.6-8-8c0-4.4,3.6-8,8-8s8,3.6,8,8
	C-42.5,133-46.1,136.6-50.5,136.6z"/>
<polygon fill="#2E368F" points="-45.9,128.2 -48.3,128.2 -48.3,124.7 -52.9,124.7 -52.9,128.2 -55.2,128.2 -50.6,132.8 "/>
<path fill="#2E368F" stroke="#2E368F" stroke-width="0.75" stroke-miterlimit="10" d="M270.1,79.4c-5,0-9,4.1-9,9c0,5,4.1,9,9,9
	c5,0,9-4.1,9-9C279.1,83.5,275,79.4,270.1,79.4z M270.1,96.7c-4.5,0-8.2-3.7-8.2-8.2c0-4.5,3.7-8.2,8.2-8.2c4.5,0,8.2,3.7,8.2,8.2
	C278.3,93,274.6,96.7,270.1,96.7z"/>
<path fill="#2E368F" stroke="#2E368F" stroke-width="0.75" stroke-miterlimit="10" d="M74.5,124.8c-0.1-0.1-0.3-0.1-0.4,0l-6.8,6.8
	l-2.2-2.2c-0.1-0.1-0.3-0.1-0.4,0c-0.1,0.1-0.1,0.3,0,0.4l2.4,2.4c0.1,0.1,0.1,0.1,0.2,0.1s0.1,0,0.2-0.1l7-7
	C74.6,125.1,74.6,125,74.5,124.8z"/>
<path fill="#2E368F" stroke="#2E368F" stroke-width="0.45" stroke-miterlimit="10" d="M69.6,119.1c-5.2,0-9.5,4.2-9.5,9.5
	c0,5.2,4.2,9.5,9.5,9.5s9.5-4.2,9.5-9.5C79.1,123.3,74.8,119.1,69.6,119.1z M69.6,137.2c-4.8,0-8.6-3.9-8.6-8.6
	c0-4.8,3.9-8.6,8.6-8.6c4.8,0,8.6,3.9,8.6,8.6C78.2,133.3,74.4,137.2,69.6,137.2z"/>
<path fill="#2E368F" stroke="#2E368F" stroke-width="0.45" stroke-miterlimit="10" d="M-57.1,0.6c-5.2,0-9.5,4.2-9.5,9.5
	c0,5.2,4.2,9.5,9.5,9.5s9.5-4.2,9.5-9.5C-47.6,4.8-51.8,0.6-57.1,0.6z M-57.1,18.7c-4.8,0-8.6-3.9-8.6-8.6c0-4.8,3.9-8.6,8.6-8.6
	s8.6,3.9,8.6,8.6C-48.4,14.8-52.3,18.7-57.1,18.7z"/>
<g>
	<path fill="#2E368F" stroke="#2E368F" stroke-width="0.75" stroke-miterlimit="10" d="M273.1,165.4c0.1-0.1,0.1-0.3,0-0.4
		c-0.1-0.1-0.3-0.1-0.4,0l-4.4,4.4l0.4,0.4L273.1,165.4z"/>
	<path fill="#2E368F" stroke="#2E368F" stroke-width="0.75" stroke-miterlimit="10" d="M265.9,171.8l-2.1-2.1
		c-0.1-0.1-0.3-0.1-0.4,0c-0.1,0.1-0.1,0.3,0,0.4l2.3,2.3c0.1,0.1,0.1,0.1,0.2,0.1c0.1,0,0.1,0,0.2-0.1l0.2-0.2L265.9,171.8
		L265.9,171.8z"/>
	<path fill="#2E368F" stroke="#2E368F" stroke-width="0.75" stroke-miterlimit="10" d="M266.4,169.4c-0.1-0.1-0.3-0.1-0.4,0
		c-0.1,0.1-0.1,0.3,0,0.4l0.9,0.9l0.4-0.4L266.4,169.4z"/>
	<path fill="#2E368F" stroke="#2E368F" stroke-width="0.75" stroke-miterlimit="10" d="M275.7,164.7c-0.1-0.1-0.3-0.1-0.4,0
		l-6.8,6.8l-0.8-0.8l-0.4,0.4l1,1c0.1,0.1,0.1,0.1,0.2,0.1c0.1,0,0.1,0,0.2-0.1l7-7C275.9,165,275.9,164.8,275.7,164.7z"/>
	
		<rect x="267.1" y="170.4" transform="matrix(0.7074 -0.7068 0.7068 0.7074 -42.4161 238.9238)" fill="#2E368F" stroke="#2E368F" stroke-width="0.75" stroke-miterlimit="10" width="0.6" height="0.6"/>
</g>
<path fill="#2E368F" stroke="#2E368F" stroke-width="0.75" stroke-miterlimit="10" d="M269.5,159.1c-5.2,0-9.4,4.2-9.4,9.4
	c0,5.2,4.2,9.4,9.4,9.4c5.2,0,9.4-4.2,9.4-9.4C279,163.4,274.7,159.1,269.5,159.1z M269.5,177.1c-4.7,0-8.6-3.8-8.6-8.6
	c0-4.7,3.8-8.6,8.6-8.6c4.7,0,8.6,3.8,8.6,8.6C278.1,173.3,274.3,177.1,269.5,177.1z"/>
<circle fill="#2E368F" cx="149.7" cy="168.7" r="5.2"/>
<path fill="#2E368F" stroke="#2E368F" stroke-width="0.75" stroke-miterlimit="10" d="M149.7,159.8c-4.9,0-9,4-9,9c0,4.9,4,9,9,9
	c4.9,0,9-4,9-9C158.7,163.8,154.6,159.8,149.7,159.8z M149.7,176.9c-4.5,0-8.2-3.7-8.2-8.2c0-4.5,3.7-8.2,8.2-8.2
	c4.5,0,8.2,3.7,8.2,8.2C157.9,173.2,154.2,176.9,149.7,176.9z"/>
<circle fill="#2E368F" cx="229.4" cy="88.3" r="5.2"/>
<path fill="#2E368F" stroke="#2E368F" stroke-width="0.75" stroke-miterlimit="10" d="M229.4,79.3c-5,0-9.1,4.1-9.1,9.1
	c0,5,4.1,9.1,9.1,9.1s9.1-4.1,9.1-9.1C238.4,83.3,234.4,79.3,229.4,79.3z M229.4,96.6c-4.6,0-8.3-3.7-8.3-8.3c0-4.6,3.7-8.3,8.3-8.3
	s8.3,3.7,8.3,8.3C237.6,92.9,233.9,96.6,229.4,96.6z"/>
<g>
	<path fill="#2E368F" d="M234.2,123.1v3.5h1v-3.9c0-0.2-0.1-0.3-0.2-0.4l-3.3-2.9c-0.1-0.1-0.3-0.1-0.4-0.1h-9.4
		c-0.3,0-0.6,0.3-0.6,0.6v17.4c0,0.3,0.3,0.6,0.6,0.6h12.7c0.3,0,0.6-0.3,0.6-0.6v-4.6h-1v4.2h-11.9v-16.7h8.8v2.9H234.2z"/>
	<g>
		<path fill="#2E368F" d="M230,128.9c-0.1,0-0.2,0-0.4,0h-0.2v0.7h0.3c0.2,0,0.3,0,0.4,0c0.1,0,0.1-0.1,0.2-0.1
			c0-0.1,0.1-0.1,0.1-0.2c0-0.1,0-0.2-0.1-0.2C230.2,129,230.1,128.9,230,128.9z"/>
		<path fill="#2E368F" d="M232.5,129c-0.1-0.1-0.1-0.1-0.2-0.1c-0.1,0-0.2,0-0.4,0h-0.2v1.6h0.4c0.1,0,0.2,0,0.3,0
			c0.1,0,0.1-0.1,0.2-0.1c0.1,0,0.1-0.1,0.1-0.2c0-0.1,0-0.3,0-0.4c0-0.2,0-0.3,0-0.4C232.6,129.2,232.6,129.1,232.5,129z"/>
		<path fill="#2E368F" d="M236,127.3H228c-0.4,0-0.7,0.3-0.7,0.7v3.4c0,0.4,0.3,0.7,0.7,0.7h7.9c0.4,0,0.7-0.3,0.7-0.7V128
			C236.7,127.6,236.3,127.3,236,127.3z M230.7,129.6c-0.1,0.1-0.1,0.2-0.2,0.2c-0.1,0.1-0.2,0.1-0.3,0.1c-0.1,0-0.3,0-0.5,0h-0.3
			v0.9H229v-2.4h0.8c0.3,0,0.5,0,0.6,0c0.1,0,0.3,0.1,0.3,0.2c0.1,0.1,0.1,0.3,0.1,0.5C230.8,129.4,230.8,129.5,230.7,129.6z
			 M233.2,130.2c-0.1,0.2-0.1,0.3-0.3,0.4c-0.1,0.1-0.2,0.1-0.3,0.2c-0.1,0-0.3,0.1-0.4,0.1h-0.9v-2.4h0.9c0.2,0,0.4,0,0.5,0
			c0.1,0,0.3,0.1,0.4,0.2c0.1,0.1,0.2,0.2,0.2,0.4c0.1,0.2,0.1,0.3,0.1,0.6C233.2,129.9,233.2,130.1,233.2,130.2z M235.2,128.9H234
			v0.6h1v0.4h-1v1h-0.5v-2.4h1.7V128.9z"/>
	</g>
</g>
<path fill="#2E368F" stroke="#2E368F" stroke-width="0.5" stroke-miterlimit="10" d="M278.5,123.7c-0.1-0.1-0.4-0.1-0.5,0l-9.1,9.1
	l-2.9-2.9c-0.1-0.1-0.4-0.1-0.5,0s-0.1,0.4,0,0.5l3.1,3.1c0.1,0.1,0.2,0.1,0.3,0.1c0.1,0,0.2,0,0.3-0.1l9.4-9.4
	C278.7,124.1,278.7,123.8,278.5,123.7z"/>
<path fill="#2E368F" d="M272.8,123v3.5h1v-3.8c0-0.2-0.1-0.3-0.2-0.4l-3.2-2.9c-0.1-0.1-0.3-0.1-0.4-0.1h-9.3
	c-0.3,0-0.6,0.3-0.6,0.6V137c0,0.3,0.3,0.6,0.6,0.6h12.5c0.3,0,0.6-0.3,0.6-0.6v-4.5h-1v4.2H261v-16.5h8.7v2.9H272.8z"/>
<rect x="104.4" y="127.4" fill="#2E368F" width="9.1" height="0.8"/>
<rect x="104.4" y="129.7" fill="#2E368F" width="9.1" height="0.8"/>
<rect x="104.4" y="125.1" fill="#2E368F" width="5.3" height="0.8"/>
<rect x="104.4" y="132" fill="#2E368F" width="9.1" height="0.8"/>
<path fill="#2E368F" d="M114.9,122.8v10.3h1v-10.7c0-0.2-0.1-0.3-0.2-0.5l-3.4-3.1c-0.1-0.1-0.3-0.2-0.4-0.2h-9.8
	c-0.4,0-0.6,0.3-0.6,0.6v18.3c0,0.4,0.3,0.6,0.6,0.6h13.3c0.4,0,0.6-0.3,0.6-0.6v-4.8h-1v4.4h-12.5v-17.5h9.2v3H114.9z"/>
<g>
	<path fill="#2E368F" d="M22,159.4v16.3h1.1v-15.1H30v5.1h5.1v10h1.1v-10.9l-5.4-5.4H22z M31.2,164.5v-3.1l3.1,3.1H31.2z"/>
	<polygon fill="#2E368F" points="27,174.9 27,177.6 31.3,177.6 31.3,174.9 34,174.9 29.1,171 24.3,174.9 	"/>
</g>
<g>
	<path fill="#2E368F" d="M301.4,118.5v17.9h1.3v-16.6h7.5v5.6h5.6v11h1.3v-11.9l-6-6H301.4z M311.4,124.1v-3.4l3.4,3.4H311.4z"/>
	<polygon fill="#2E368F" points="311.6,134.2 311.6,131.2 306.8,131.2 306.8,134.2 303.9,134.2 309.2,138.5 314.5,134.2 	"/>
</g>
<path fill="#2E368F" d="M337.3,118.5v17.9h1.3v-16.6h7.5v5.6h5.6v11h1.3v-11.9l-6-6H337.3z M347.4,124.1v-3.4l3.4,3.4H347.4z"/>
<path fill="#2E368F" d="M-57.5,159.2v17.5h1.2v-16.3h7.4v5.5h5.5v10.8h1.2v-11.7l-5.8-5.8H-57.5z M-47.7,164.7v-3.4l3.4,3.4H-47.7z"
	/>
<path fill="#2E368F" stroke="#2E368F" stroke-width="0.75" stroke-miterlimit="10" d="M-9.9,167.6c-2.6,0-4.6,2.1-4.6,4.6
	c0,2.6,2.1,4.6,4.6,4.6s4.6-2.1,4.6-4.6C-5.3,169.7-7.4,167.6-9.9,167.6z M-9.9,176.5c-2.3,0-4.2-1.9-4.2-4.2c0-2.3,1.9-4.2,4.2-4.2
	s4.2,1.9,4.2,4.2C-5.7,174.6-7.6,176.5-9.9,176.5z"/>
<path fill="#2E368F" d="M-17.3,159.2v17.1h1.2v-15.9h7.2v5.3h5.3v10.6h1.2v-11.4l-5.7-5.7H-17.3z M-7.7,164.6v-3.3l3.3,3.3H-7.7z"/>
<path fill="#2E368F" stroke="#2E368F" stroke-width="0.75" stroke-miterlimit="10" d="M-79.3,166.8c-2.6,0-4.6,2.1-4.6,4.6
	c0,2.6,2.1,4.6,4.6,4.6c2.6,0,4.6-2.1,4.6-4.6C-74.7,168.8-76.8,166.8-79.3,166.8z M-79.3,175.6c-2.3,0-4.2-1.9-4.2-4.2
	c0-2.3,1.9-4.2,4.2-4.2c2.3,0,4.2,1.9,4.2,4.2C-75.1,173.7-77,175.6-79.3,175.6z"/>
<path fill="#2E368F" d="M-86.7,158.4v17.1h1.2v-15.9h7.2v5.3h5.3v10.6h1.2v-11.4l-5.7-5.7H-86.7z M-77.1,163.7v-3.3l3.3,3.3H-77.1z"
	/>
<g>
	<path fill="#2E368F" d="M101.5,199v17.4h1.2v-16.1h7.3v5.4h5.4v10.7h1.2v-11.6l-5.8-5.8H101.5z M111.2,204.4v-3.3l3.3,3.3H111.2z"
		/>
</g>
<path fill="#2E368F" d="M142.1,198.9v17.6h1.2v-16.4h7.4v5.5h5.5v10.9h1.2v-11.7l-5.9-5.9H142.1z M152,204.3V201l3.4,3.4H152z"/>
<path fill="#2E368F" stroke="#2E368F" stroke-width="0.75" stroke-miterlimit="10" d="M-75.2,216.6l-2.1-2.1
	c1.4-1.5,1.3-3.9-0.2-5.4c-1.5-1.5-4-1.5-5.5,0c-1.5,1.5-1.5,4,0,5.5c0.8,0.8,1.8,1.1,2.8,1.1c0.9,0,1.9-0.3,2.6-1l2.1,2.1
	c0,0,0.1,0.1,0.2,0.1c0.1,0,0.1,0,0.2-0.1C-75.1,216.8-75.1,216.7-75.2,216.6z M-82.7,214.3c-1.3-1.3-1.3-3.5,0-4.9
	c0.7-0.7,1.6-1,2.4-1s1.8,0.3,2.4,1c1.3,1.3,1.3,3.5,0,4.9C-79.2,215.7-81.4,215.7-82.7,214.3z"/>
<path fill="#2E368F" d="M-87.5,198.9v17.6h1.2v-16.4h7.4v5.5h5.5v10.9h1.2v-11.7l-5.9-5.9H-87.5z M-77.6,204.3V201l3.4,3.4H-77.6z"
	/>
<path fill="#2E368F" d="M-144.1,198.9v17.6h1.2v-16.4h7.4v5.5h5.5v10.9h1.2v-11.7l-5.9-5.9H-144.1z M-134.2,204.3V201l3.4,3.4
	H-134.2z"/>
<path fill="#2E368F" d="M181.6,199v17.6h1.2v-16.3h7.4v5.5h5.5v10.8h1.2v-11.7l-5.8-5.8H181.6z M191.5,204.5v-3.4l3.4,3.4H191.5z"/>
<path fill="#2E368F" stroke="#2E368F" stroke-width="0.75" stroke-miterlimit="10" d="M189.3,210.5c-2.8,0-4.9,3.3-4.9,3.3
	s2.2,3.2,4.9,3.2c2.8,0,4.9-3.3,4.9-3.3S192.1,210.5,189.3,210.5z M189.3,216.4c-2.4,0-4.2-2.8-4.2-2.8s1.9-2.8,4.2-2.8
	s4.2,2.8,4.2,2.8S191.7,216.4,189.3,216.4z"/>
<path fill="none" stroke="#2E368F" stroke-width="0.5" stroke-miterlimit="10" d="M189.3,212.2c-0.8,0-1.6,0.6-1.6,1.6
	c0,0.8,0.6,1.6,1.6,1.6c0.8,0,1.6-0.6,1.6-1.6C190.9,213,190.2,212.2,189.3,212.2z M189.3,214.9c-0.6,0-1.1-0.5-1.1-1.1
	c0-0.5,0.5-1.2,1.1-1.2s1.1,0.5,1.1,1.1C190.4,214.2,190,214.9,189.3,214.9z"/>
<path fill="#2E368F" stroke="#2E368F" stroke-width="0.75" stroke-miterlimit="10" d="M-136.3,209c-2.8,0-4.9,3.3-4.9,3.3
	s2.2,3.2,4.9,3.2c2.8,0,4.9-3.3,4.9-3.3S-133.6,209-136.3,209z M-136.3,215c-2.4,0-4.2-2.8-4.2-2.8s1.9-2.8,4.2-2.8s4.2,2.8,4.2,2.8
	S-134,215-136.3,215z"/>
<path fill="none" stroke="#2E368F" stroke-width="0.5" stroke-miterlimit="10" d="M-136.3,210.8c-0.8,0-1.6,0.6-1.6,1.6
	c0,0.8,0.6,1.6,1.6,1.6c0.8,0,1.6-0.6,1.6-1.6C-134.8,211.5-135.5,210.8-136.3,210.8z M-136.3,213.4c-0.6,0-1.1-0.5-1.1-1.1
	c0-0.5,0.5-1.2,1.1-1.2s1.1,0.5,1.1,1.1C-135.3,212.8-135.7,213.4-136.3,213.4z"/>
<g>
	<g>
		<g>
			<g>
				<polygon fill="#2E368F" points="-52,244 -56.1,239.9 -60.2,244 -57.5,244 -57.5,258.5 -54.6,258.5 -54.6,244 				"/>
				<rect x="-51.7" y="239.9" fill="#2E368F" width="8.7" height="2.8"/>
				<rect x="-52.5" y="245.1" fill="#2E368F" width="9.5" height="2.8"/>
				<rect x="-52.5" y="250.5" fill="#2E368F" width="9.5" height="2.8"/>
				<rect x="-52.5" y="255.6" fill="#2E368F" width="9.6" height="2.8"/>
			</g>
		</g>
	</g>
</g>
<g>
	<g>
		<g>
			<g>
				<polygon fill="#2E368F" points="-19.5,253.5 -15.7,257.2 -12,253.5 -14.4,253.5 -14.4,240.2 -17.1,240.2 -17.1,253.5 				"/>
				<rect x="-12.5" y="254.6" fill="#2E368F" width="8.9" height="2.6"/>
				<rect x="-12.5" y="249.9" fill="#2E368F" width="9.7" height="2.6"/>
				<rect x="-12.5" y="244.9" fill="#2E368F" width="9.7" height="2.6"/>
				<rect x="-12.5" y="240.2" fill="#2E368F" width="9.8" height="2.6"/>
			</g>
		</g>
	</g>
</g>
<path fill="#2E368F" d="M261,208.3h12.7l-2.7-2.7c-0.2-0.2-0.2-0.6,0-0.8c0.2-0.2,0.6-0.2,0.8,0l3.6,3.6c0.2,0.2,0.2,0.6,0,0.8
	l-3.6,3.6c-0.1,0.1-0.2,0.2-0.4,0.2s-0.3-0.1-0.4-0.2c-0.2-0.2-0.2-0.6,0-0.8l2.7-2.7H261c-0.3,0-0.5-0.2-0.5-0.5
	C260.4,208.5,260.7,208.3,261,208.3z M275.4,199.4h-11c-2.1,0-3.9,1.7-3.9,3.9v2.3c0,0.3,0.2,0.5,0.5,0.5c0.3,0,0.5-0.2,0.5-0.5
	v-2.3c0-1.5,1.3-2.8,2.8-2.8h11c1.5,0,2.8,1.3,2.8,2.8v11c0,1.5-1.3,2.8-2.8,2.8h-11c-1.5,0-2.8-1.3-2.8-2.8v-2.3
	c0-0.3-0.2-0.5-0.5-0.5c-0.3,0-0.5,0.2-0.5,0.5v2.3c0,2.1,1.7,3.9,3.9,3.9h11c2.1,0,3.9-1.7,3.9-3.9v-11
	C279.3,201.1,277.5,199.4,275.4,199.4z"/>
<path fill="#2E368F" d="M269.9,208.8"/>
<path fill="#2E368F" d="M269.9,208.8"/>
<polyline fill="none" stroke="#2E368F" stroke-width="0.95" stroke-miterlimit="10" points="64.2,248.6 65.8,250.6 68.3,247.4 "/>
<path fill="none" stroke="#2E368F" stroke-width="0.95" stroke-miterlimit="10" d="M74.4,252.9H64.2c-2.1,0-3.8-1.7-3.8-3.8l0,0
	c0-2.1,1.7-3.8,3.8-3.8h10.2c2.1,0,3.8,1.7,3.8,3.8l0,0C78.3,251.2,76.5,252.9,74.4,252.9z"/>
<circle fill="none" stroke="#2E368F" stroke-width="0.95" stroke-miterlimit="10" cx="74.2" cy="249.2" r="2.5"/>
<path fill="none" stroke="#2E368F" stroke-width="0.95" stroke-miterlimit="10" d="M114.7,252.9h-10.2c-2.1,0-3.8-1.7-3.8-3.8l0,0
	c0-2.1,1.7-3.8,3.8-3.8h10.2c2.1,0,3.8,1.7,3.8,3.8l0,0C118.5,251.2,116.8,252.9,114.7,252.9z"/>
<circle fill="none" stroke="#2E368F" stroke-width="0.95" stroke-miterlimit="10" cx="105.3" cy="249.2" r="2.5"/>
<g>
	<path fill="#2E368F" d="M155.9,247.1c-0.3,0-0.5,0-0.8-0.1c-0.2,0-0.3-0.2-0.2-0.4c0-0.2,0.2-0.3,0.4-0.2c1.3,0.3,2.6-0.3,3.2-1.5
		c0.3-0.7,0.4-1.5,0.2-2.2c-0.2-0.7-0.8-1.3-1.4-1.7c-0.7-0.3-1.5-0.4-2.2-0.2c-0.7,0.2-1.3,0.8-1.7,1.4c-0.1,0.1-0.3,0.2-0.4,0.1
		c-0.1-0.1-0.2-0.3-0.1-0.4c0.4-0.8,1.1-1.4,2-1.7c0.9-0.3,1.8-0.2,2.7,0.2c0.8,0.4,1.4,1.1,1.7,2c0.3,0.9,0.2,1.8-0.2,2.7
		C158.4,246.4,157.2,247.1,155.9,247.1z M155.9,242v3.1 M154.3,243.6h3.1 M156.2,245.1v-1.3h1.2c0.2,0,0.3-0.1,0.3-0.3
		c0-0.2-0.1-0.3-0.3-0.3h-1.2V242c0-0.2-0.1-0.3-0.3-0.3c-0.2,0-0.3,0.1-0.3,0.3v1.3h-1.3c-0.2,0-0.3,0.1-0.3,0.3
		c0,0.2,0.1,0.3,0.3,0.3h1.3v1.3c0,0.2,0.1,0.3,0.3,0.3C156,245.4,156.2,245.3,156.2,245.1z"/>
	<g>
		<path fill="#2E368F" d="M147.8,256.7c-2.5,0-4.8-1.6-6.1-4.2c-0.4,0-0.9-0.3-1.2-0.9c-0.5-0.9-0.8-2.4-0.4-3.1
			c0.2-0.3,0.4-0.4,0.7-0.4c0,0,0,0,0,0c0.1-2,0.8-3.9,2-5.3c1.3-1.5,3-2.4,4.9-2.4c1.8,0,3.6,0.8,4.9,2.4c1.2,1.4,1.9,3.3,2,5.3
			c0,0,0,0,0,0c0.2,0,0.9,0.1,0.9,1.4c0,1.3-0.7,3-1.7,3.1C152.6,255.1,150.3,256.7,147.8,256.7z M141.9,251.9
			c0.1,0,0.2,0.1,0.3,0.2c1.1,2.5,3.2,4,5.6,4c2.3,0,4.5-1.5,5.6-4c0.1-0.1,0.2-0.2,0.3-0.2c0,0,0,0,0.1,0l0,0
			c0.6,0,1.2-1.4,1.2-2.5c0-0.5-0.1-0.8-0.3-0.8c0,0-0.1,0-0.2,0c-0.1,0-0.2,0-0.3,0c-0.1-0.1-0.1-0.1-0.1-0.2
			c0-4.1-2.9-7.5-6.3-7.5c-3.4,0-6.3,3.3-6.3,7.5c0,0.1-0.1,0.2-0.1,0.2c-0.1,0.1-0.2,0.1-0.3,0c-0.1,0-0.1,0-0.2,0
			c0,0-0.1,0-0.1,0.1c-0.3,0.4-0.1,1.7,0.4,2.5c0.1,0.2,0.4,0.6,0.7,0.6C141.8,251.9,141.8,251.9,141.9,251.9
			C141.9,251.9,141.9,251.9,141.9,251.9z"/>
	</g>
	<g>
		<path fill="#2E368F" d="M154.3,248.4c-1.8-0.4-3.6-2.6-4.6-4.4c-0.9,0.8-1.8,1.6-2.8,2.2c-2.5,1.7-5.7,2.2-5.7,2.2
			s0.2-2.5,1.8-4.6c0.7-0.9,1.6-1.8,2.7-2.3c1.6-0.8,3.8-0.6,5.3,0.4c0.4,0.3,0.8,0.6,1.1,1c0.6,0.8,1.1,1.8,1.4,2.7
			c0.3,0.8,0.5,1.6,0.7,2.4C154.3,248.1,154.3,248.3,154.3,248.4z"/>
		<path fill="#2E368F" d="M154.3,248.7c-1.7-0.4-3.6-2.5-4.7-4.3c-0.7,0.7-1.6,1.3-2.6,2c-2.5,1.7-5.7,2.3-5.8,2.3
			c-0.1,0-0.3-0.2-0.2-0.3c0-0.1,0,0.1,0,0c0-0.1,0.2-2.5,1.8-4.8c0.8-1,1.8-1.9,2.8-2.4c0.7-0.3,1.5-0.5,2.4-0.5
			c1.1,0,2.2,0.3,3.1,0.9c0.4,0.2,0.8,0.6,1.2,1.1c0.6,0.8,1.1,1.8,1.5,2.8c0.3,0.7,0.5,1.5,0.7,2.5c0,0.2,0.1,0.3,0.1,0.5
			c0,0,0,0,0,0.1C154.6,248.6,154.5,248.7,154.3,248.7"/>
	</g>
</g>
<path fill="#2E368F" d="M75.8,47.6c-0.3,0-0.5,0-0.8-0.1c-0.2,0-0.3-0.2-0.2-0.4c0-0.2,0.2-0.3,0.4-0.2c1.3,0.3,2.6-0.3,3.2-1.5
	c0.3-0.7,0.4-1.5,0.2-2.2c-0.2-0.7-0.8-1.3-1.5-1.7c-0.7-0.3-1.5-0.4-2.2-0.2c-0.7,0.2-1.3,0.8-1.7,1.5c-0.1,0.1-0.3,0.2-0.4,0.1
	c-0.1-0.1-0.2-0.3-0.1-0.4c0.4-0.8,1.1-1.5,2-1.8c0.9-0.3,1.8-0.2,2.7,0.2c0.8,0.4,1.5,1.1,1.8,2c0.3,0.9,0.2,1.8-0.2,2.7
	C78.3,46.8,77.1,47.6,75.8,47.6z"/>
<g>
	<path fill="#2E368F" d="M67.6,57.3c-2.6,0-4.9-1.6-6.1-4.2c-0.5,0-0.9-0.3-1.2-0.9c-0.5-0.9-0.8-2.4-0.4-3.2
		c0.2-0.3,0.4-0.4,0.7-0.4c0,0,0,0,0,0c0.1-2,0.8-3.9,2.1-5.4c1.3-1.5,3.1-2.4,4.9-2.4c1.9,0,3.6,0.9,4.9,2.4c1.2,1.4,2,3.3,2.1,5.4
		c0,0,0,0,0,0c0.2,0,0.9,0.1,0.9,1.4c0,1.3-0.7,3-1.8,3.1C72.5,55.7,70.1,57.3,67.6,57.3z M61.7,52.4c0.1,0,0.2,0.1,0.3,0.2
		c1.1,2.5,3.3,4.1,5.7,4.1c2.4,0,4.5-1.6,5.7-4.1c0.1-0.1,0.2-0.2,0.3-0.2c0,0,0,0,0.1,0l0,0c0.6,0,1.2-1.4,1.2-2.5
		c0-0.5-0.1-0.8-0.3-0.8c0,0-0.1,0-0.2,0c-0.1,0-0.2,0-0.3,0C74,49.1,74,49,74,48.9c0-4.2-2.9-7.5-6.4-7.5c-3.5,0-6.3,3.4-6.4,7.5
		c0,0.1-0.1,0.2-0.1,0.3c-0.1,0.1-0.2,0.1-0.3,0c-0.1,0-0.1,0-0.2,0c0,0-0.1,0-0.2,0.1c-0.3,0.4-0.1,1.7,0.4,2.6
		c0.1,0.2,0.4,0.6,0.7,0.6C61.6,52.4,61.6,52.4,61.7,52.4C61.6,52.4,61.6,52.4,61.7,52.4z"/>
</g>
<g>
	<path fill="#2E368F" d="M74.2,48.9c-1.8-0.4-3.7-2.6-4.7-4.5c-0.9,0.8-1.9,1.6-2.9,2.3c-2.5,1.7-5.7,2.2-5.7,2.2s0.2-2.5,1.8-4.7
		c0.7-0.9,1.7-1.8,2.7-2.4c1.6-0.8,3.8-0.6,5.3,0.4c0.4,0.3,0.9,0.6,1.2,1C72.6,44,73,45,73.4,46c0.3,0.8,0.5,1.6,0.7,2.5
		C74.2,48.6,74.2,48.8,74.2,48.9z"/>
	<path fill="#2E368F" d="M74.2,49.2c-1.8-0.4-3.7-2.5-4.7-4.4c-0.8,0.7-1.6,1.4-2.7,2.1c-2.5,1.7-5.8,2.3-5.9,2.3
		c-0.1,0-0.3-0.2-0.3-0.3c0-0.1,0,0.1,0,0c0-0.1,0.2-2.6,1.9-4.8c0.8-1.1,1.8-1.9,2.8-2.4c0.7-0.3,1.6-0.5,2.4-0.5
		c1.2,0,2.3,0.3,3.1,0.9c0.4,0.2,0.9,0.6,1.2,1.1c0.7,0.8,1.1,1.8,1.5,2.8c0.3,0.7,0.5,1.5,0.8,2.5c0,0.2,0.1,0.3,0.1,0.5
		c0,0,0,0.1,0,0.1C74.5,49.1,74.4,49.2,74.2,49.2"/>
</g>
<path fill="#2E368F" d="M316.4,248.8c-0.2,0-0.5,0-0.7-0.1c-0.2,0-0.2-0.2-0.2-0.3c0-0.2,0.2-0.2,0.3-0.2c1.2,0.3,2.4-0.3,3-1.4
	c0.3-0.6,0.4-1.4,0.1-2.1c-0.2-0.7-0.7-1.2-1.3-1.6c-0.6-0.3-1.4-0.4-2.1-0.1c-0.7,0.2-1.2,0.7-1.6,1.3c-0.1,0.1-0.2,0.2-0.4,0.1
	c-0.1-0.1-0.2-0.2-0.1-0.4c0.4-0.8,1.1-1.4,1.9-1.6c0.8-0.3,1.7-0.2,2.5,0.2c0.8,0.4,1.4,1.1,1.6,1.9c0.3,0.8,0.2,1.7-0.2,2.5
	C318.7,248.2,317.6,248.8,316.4,248.8z"/>
<g>
	<g>
		<path fill="#2E368F" d="M308.8,257.8c-2.4,0-4.5-1.5-5.6-3.9c-0.4,0-0.8-0.3-1.1-0.8c-0.5-0.8-0.7-2.3-0.3-2.9
			c0.1-0.2,0.4-0.4,0.6-0.4c0,0,0,0,0,0c0.1-1.9,0.8-3.6,1.9-5c1.2-1.4,2.8-2.2,4.6-2.2c1.7,0,3.3,0.8,4.6,2.2
			c1.1,1.3,1.8,3.1,1.9,5c0,0,0,0,0,0c0.2,0,0.8,0.1,0.8,1.3c0,1.2-0.6,2.8-1.6,2.9C313.3,256.3,311.1,257.8,308.8,257.8z
			 M303.3,253.3c0.1,0,0.2,0.1,0.3,0.2c1,2.3,3,3.8,5.2,3.8c2.2,0,4.2-1.4,5.2-3.8c0.1-0.1,0.2-0.2,0.3-0.2c0,0,0,0,0.1,0l0,0
			c0.6,0,1.1-1.3,1.1-2.3c0-0.4-0.1-0.7-0.3-0.7c0,0-0.1,0-0.2,0c-0.1,0-0.2,0-0.3,0s-0.1-0.1-0.1-0.2c0-3.8-2.7-7-5.9-7
			c-3.2,0-5.9,3.1-5.9,7c0,0.1,0,0.2-0.1,0.2s-0.2,0.1-0.3,0c-0.1,0-0.1,0-0.2,0c0,0-0.1,0-0.1,0.1c-0.2,0.4-0.1,1.6,0.3,2.4
			c0.1,0.2,0.4,0.6,0.7,0.6C303.2,253.3,303.2,253.3,303.3,253.3C303.3,253.3,303.3,253.3,303.3,253.3z"/>
	</g>
</g>
<g>
	<g>
		<path fill="#2E368F" d="M314.9,250.1c-1.7-0.3-3.4-2.4-4.3-4.1c-0.8,0.8-1.7,1.4-2.6,2.1c-2.3,1.6-5.3,2-5.3,2s0.2-2.3,1.7-4.3
			c0.6-0.9,1.5-1.7,2.5-2.2c1.5-0.7,3.5-0.6,4.9,0.3c0.4,0.2,0.8,0.6,1.1,0.9c0.6,0.7,1,1.7,1.3,2.5c0.3,0.7,0.5,1.5,0.7,2.3
			C314.9,249.8,314.9,249.9,314.9,250.1z"/>
		<path fill="#2E368F" d="M314.9,250.4c-1.6-0.3-2.8-1.4-3.8-3.2c-0.7,2.1-4.8,2.9-5.7,2.4c-2.3,1.6-2.7,0.7-2.8,0.7
			c-0.1,0-0.2-0.2-0.2-0.3c0-0.1,0,0.1,0,0c0-0.1,0.2-2.4,1.7-4.4c0.7-1,1.6-1.8,2.6-2.2c0.7-0.3,1.4-0.5,2.2-0.5
			c1.1,0,2.1,0.3,2.9,0.8c0.3,0.2,0.8,0.6,1.1,1c0.6,0.8,1,1.7,1.4,2.6c0.3,0.7,0.5,1.4,0.7,2.3c0,0.2,0.1,0.3,0.1,0.4
			c0,0,0,0,0,0.1C315.2,250.2,315,250.4,314.9,250.4"/>
	</g>
</g>
<g>
	<g>
		<path fill="#2E368F" d="M303.5,250.2c-1.3,0-2.4-0.8-3-2.1c-0.2,0-0.4-0.2-0.6-0.4c-0.3-0.4-0.4-1.2-0.2-1.6
			c0.1-0.1,0.2-0.2,0.3-0.2c0,0,0,0,0,0c0-1,0.4-1.9,1-2.6c0.6-0.8,1.5-1.2,2.4-1.2c0.9,0,1.8,0.4,2.4,1.2c0.6,0.7,1,1.6,1,2.6
			c0,0,0,0,0,0c0.1,0,0.4,0,0.4,0.7c0,0.6-0.3,1.5-0.9,1.5C305.9,249.4,304.7,250.2,303.5,250.2z M300.6,247.8c0.1,0,0.1,0,0.1,0.1
			c0.5,1.2,1.6,2,2.8,2c1.2,0,2.2-0.8,2.8-2c0-0.1,0.1-0.1,0.2-0.1c0,0,0,0,0,0l0,0c0.3,0,0.6-0.7,0.6-1.2c0-0.2-0.1-0.4-0.1-0.4
			c0,0-0.1,0-0.1,0c0,0-0.1,0-0.1,0c0,0-0.1-0.1-0.1-0.1c0-2-1.4-3.7-3.1-3.7c-1.7,0-3.1,1.7-3.1,3.7c0,0,0,0.1-0.1,0.1
			c0,0-0.1,0-0.1,0c0,0-0.1,0-0.1,0c0,0,0,0-0.1,0.1c-0.1,0.2-0.1,0.8,0.2,1.3C300.2,247.6,300.4,247.8,300.6,247.8
			C300.5,247.8,300.5,247.8,300.6,247.8C300.6,247.8,300.6,247.8,300.6,247.8z"/>
	</g>
	<g>
		<path fill="#2E368F" d="M306.7,246.1c-0.9-0.2-1.8-1.3-2.3-2.2c-0.4,0.4-0.9,0.8-1.4,1.1c-1.2,0.8-2.8,1.1-2.8,1.1
			s0.1-1.2,0.9-2.3c0.3-0.5,0.8-0.9,1.3-1.2c0.8-0.4,1.9-0.3,2.6,0.2c0.2,0.1,0.4,0.3,0.6,0.5c0.3,0.4,0.5,0.9,0.7,1.3
			c0.2,0.4,0.3,0.8,0.4,1.2C306.7,245.9,306.7,246,306.7,246.1z"/>
		<path fill="#2E368F" d="M306.7,246.2c-0.9-0.2-1.5-0.8-2-1.7c-0.4,1.1-2.5,1.5-3,1.3c-1.2,0.8-1.4,0.4-1.5,0.4
			c0,0-0.1-0.1-0.1-0.2c0,0,0,0,0,0c0-0.1,0.1-1.3,0.9-2.4c0.4-0.5,0.9-1,1.4-1.2c0.4-0.2,0.8-0.3,1.2-0.3c0.6,0,1.1,0.2,1.5,0.4
			c0.2,0.1,0.4,0.3,0.6,0.5c0.3,0.4,0.5,0.9,0.7,1.4c0.1,0.4,0.3,0.7,0.4,1.2c0,0.1,0,0.2,0,0.2c0,0,0,0,0,0
			C306.9,246.2,306.8,246.2,306.7,246.2"/>
	</g>
</g>
<g>
	<g>
		<path fill="#2E368F" d="M306.8,245.7c-0.9,0-1.8-0.6-2.2-1.6c-0.2,0-0.3-0.1-0.4-0.3c-0.2-0.3-0.3-0.9-0.1-1.2
			c0.1-0.1,0.1-0.2,0.2-0.2c0,0,0,0,0,0c0-0.7,0.3-1.4,0.8-2c0.5-0.6,1.1-0.9,1.8-0.9c0.7,0,1.3,0.3,1.8,0.9c0.5,0.5,0.7,1.2,0.8,2
			c0,0,0,0,0,0c0.1,0,0.3,0,0.3,0.5c0,0.5-0.2,1.1-0.6,1.1C308.6,245.1,307.7,245.7,306.8,245.7z M304.6,243.9c0,0,0.1,0,0.1,0.1
			c0.4,0.9,1.2,1.5,2.1,1.5c0.9,0,1.7-0.6,2.1-1.5c0,0,0.1-0.1,0.1-0.1c0,0,0,0,0,0l0,0c0.2,0,0.4-0.5,0.4-0.9c0-0.2,0-0.3-0.1-0.3
			c0,0,0,0-0.1,0c0,0-0.1,0-0.1,0c0,0-0.1-0.1-0.1-0.1c0-1.5-1.1-2.8-2.3-2.8c-1.3,0-2.3,1.2-2.3,2.8c0,0,0,0.1-0.1,0.1
			c0,0-0.1,0-0.1,0c0,0,0,0-0.1,0c0,0,0,0-0.1,0c-0.1,0.2-0.1,0.6,0.1,0.9C304.3,243.8,304.4,243.9,304.6,243.9
			C304.6,243.9,304.6,243.9,304.6,243.9C304.6,243.9,304.6,243.9,304.6,243.9z"/>
	</g>
	<g>
		<path fill="#2E368F" d="M309.2,242.6c-0.7-0.1-1.4-1-1.7-1.6c-0.3,0.3-0.7,0.6-1.1,0.8c-0.9,0.6-2.1,0.8-2.1,0.8s0.1-0.9,0.7-1.7
			c0.3-0.3,0.6-0.7,1-0.9c0.6-0.3,1.4-0.2,2,0.1c0.1,0.1,0.3,0.2,0.4,0.4c0.2,0.3,0.4,0.7,0.5,1c0.1,0.3,0.2,0.6,0.3,0.9
			C309.2,242.5,309.2,242.6,309.2,242.6z"/>
		<path fill="#2E368F" d="M309.2,242.7c-0.6-0.1-1.1-0.6-1.5-1.3c-0.3,0.8-1.9,1.1-2.3,1c-0.9,0.6-1.1,0.3-1.1,0.3
			c0,0-0.1-0.1-0.1-0.1c0,0,0,0,0,0c0,0,0.1-0.9,0.7-1.8c0.3-0.4,0.7-0.7,1-0.9c0.3-0.1,0.6-0.2,0.9-0.2c0.4,0,0.8,0.1,1.2,0.3
			c0.1,0.1,0.3,0.2,0.4,0.4c0.2,0.3,0.4,0.7,0.5,1c0.1,0.3,0.2,0.6,0.3,0.9c0,0.1,0,0.1,0,0.2c0,0,0,0,0,0
			C309.3,242.7,309.3,242.7,309.2,242.7"/>
	</g>
</g>
<g>
	<g>
		<path fill="#2E368F" d="M195.7,247.1c-0.3,0-0.5,0-0.8-0.1c-0.2,0-0.3-0.2-0.2-0.4c0-0.2,0.2-0.3,0.4-0.2c1.3,0.3,2.6-0.3,3.2-1.5
			c0.3-0.7,0.4-1.5,0.2-2.2c-0.2-0.7-0.8-1.3-1.4-1.7c-0.7-0.3-1.5-0.4-2.2-0.2c-0.7,0.2-1.3,0.8-1.7,1.4c-0.1,0.1-0.3,0.2-0.4,0.1
			c-0.1-0.1-0.2-0.3-0.1-0.4c0.4-0.8,1.1-1.4,2-1.7c0.9-0.3,1.8-0.2,2.7,0.2c0.8,0.4,1.4,1.1,1.7,2c0.3,0.9,0.2,1.8-0.2,2.7
			C198.2,246.4,197,247.1,195.7,247.1z"/>
		<g>
			<path fill="#2E368F" d="M187.6,256.7c-2.5,0-4.8-1.6-6.1-4.2c-0.4,0-0.9-0.3-1.2-0.9c-0.5-0.9-0.8-2.4-0.4-3.1
				c0.2-0.3,0.4-0.4,0.7-0.4c0,0,0,0,0,0c0.1-2,0.8-3.9,2-5.3c1.3-1.5,3-2.4,4.9-2.4c1.8,0,3.6,0.8,4.9,2.4c1.2,1.4,1.9,3.3,2,5.3
				c0,0,0,0,0,0c0.2,0,0.9,0.1,0.9,1.4c0,1.3-0.7,3-1.7,3.1C192.4,255.1,190.1,256.7,187.6,256.7z M181.7,251.9
				c0.1,0,0.2,0.1,0.3,0.2c1.1,2.5,3.2,4,5.6,4c2.3,0,4.5-1.5,5.6-4c0.1-0.1,0.2-0.2,0.3-0.2c0,0,0,0,0.1,0l0,0
				c0.6,0,1.2-1.4,1.2-2.5c0-0.5-0.1-0.8-0.3-0.8c0,0-0.1,0-0.2,0c-0.1,0-0.2,0-0.3,0c-0.1-0.1-0.1-0.1-0.1-0.2
				c0-4.1-2.9-7.5-6.3-7.5c-3.4,0-6.3,3.3-6.3,7.5c0,0.1-0.1,0.2-0.1,0.2c-0.1,0.1-0.2,0.1-0.3,0c-0.1,0-0.1,0-0.2,0
				c0,0-0.1,0-0.1,0.1c-0.3,0.4-0.1,1.7,0.4,2.5c0.1,0.2,0.4,0.6,0.7,0.6C181.6,251.9,181.7,251.9,181.7,251.9
				C181.7,251.9,181.7,251.9,181.7,251.9z"/>
		</g>
		<g>
			<path fill="#2E368F" d="M194.2,248.4c-1.8-0.4-3.6-2.6-4.6-4.4c-0.9,0.8-1.8,1.6-2.8,2.2c-2.5,1.7-5.7,2.2-5.7,2.2
				s0.2-2.5,1.8-4.6c0.7-0.9,1.6-1.8,2.7-2.3c1.6-0.8,3.8-0.6,5.3,0.4c0.4,0.3,0.8,0.6,1.1,1c0.6,0.8,1.1,1.8,1.4,2.7
				c0.3,0.8,0.5,1.6,0.7,2.4C194.1,248.1,194.1,248.3,194.2,248.4z"/>
			<path fill="#2E368F" d="M194.2,248.7c-1.7-0.4-3.6-2.5-4.7-4.3c-0.7,0.7-1.6,1.3-2.6,2c-2.5,1.7-5.7,2.3-5.8,2.3
				c-0.1,0-0.3-0.2-0.2-0.3c0-0.1,0,0.1,0,0c0-0.1,0.2-2.5,1.8-4.8c0.8-1,1.8-1.9,2.8-2.4c0.7-0.3,1.5-0.5,2.4-0.5
				c1.1,0,2.2,0.3,3.1,0.9c0.4,0.2,0.8,0.6,1.2,1.1c0.6,0.8,1.1,1.8,1.5,2.8c0.3,0.7,0.5,1.5,0.7,2.5c0,0.2,0.1,0.3,0.1,0.5
				c0,0,0,0,0,0.1C194.4,248.6,194.3,248.7,194.2,248.7"/>
		</g>
	</g>
</g>
<path fill="#2E368F" stroke="#2E368F" stroke-width="0.5" stroke-miterlimit="10" d="M196,243.5l1.2-1.2c0,0,0-0.1,0-0.1
	c0,0-0.1,0-0.1,0L196,243.5l-1.3-1.3c0,0-0.1,0-0.1,0c0,0,0,0.1,0,0.1l1.2,1.2l-1.2,1.2c0,0,0,0.1,0,0.1c0,0,0,0,0,0c0,0,0,0,0,0
	L196,243.5l1.1,1.3c0,0,0,0,0,0c0,0,0,0,0,0c0,0,0-0.1,0-0.1L196,243.5z"/>
<g>
	<g>
		<path fill="#2E368F" stroke="#2E368F" stroke-width="0.15" stroke-miterlimit="10" d="M237.8,241.2l-1.4-1.4
			c-0.4-0.4-1.1-0.4-1.5,0l-7.8,7.7l-1.6,4.5l4.5-1.6l7.8-7.7C238.2,242.3,238.2,241.6,237.8,241.2z M227,249.9l0.7-1.8l1.8,1.8
			l-1.8,0.6L227,249.9z M228.3,248.2l6.1-6.1l0.4,0.4l-6.1,6.1L228.3,248.2z M228.2,248.1l-0.3-0.4l6.1-6.1l0.3,0.4L228.2,248.1z
			 M228.9,248.8l6.1-6.1l0.4,0.4l-6.1,6.1L228.9,248.8z M234.3,241.3l0.2-0.2l2,2l-0.2,0.2L234.3,241.3z M229.8,249.7l-0.3-0.4
			l6.1-6.1l0.3,0.4L229.8,249.7z M237.4,242.2l-0.6,0.6l-2-2l0.6-0.6c0.2-0.2,0.4-0.2,0.6,0l1.4,1.4
			C237.5,241.8,237.5,242.1,237.4,242.2z"/>
	</g>
</g>
<circle fill="#2E368F" cx="269.5" cy="248.5" r="9.1"/>
<path fill="#FFFFFF" stroke="#FFFFFF" stroke-miterlimit="10" d="M270.2,248.4l3.9-3.9c0.1-0.1,0.1-0.2,0-0.3
	c-0.1-0.1-0.2-0.1-0.3,0l-3.9,3.9l-3.9-3.9c-0.1-0.1-0.2-0.1-0.3,0c-0.1,0.1-0.1,0.2,0,0.3l3.9,3.9l-3.9,3.9c-0.1,0.1-0.1,0.2,0,0.3
	c0,0,0.1,0.1,0.2,0.1s0.1,0,0.2-0.1l3.9-3.9l3.9,3.9c0,0,0.1,0.1,0.2,0.1c0.1,0,0.1,0,0.2-0.1c0.1-0.1,0.1-0.2,0-0.3L270.2,248.4z"
	/>
<polygon fill="#2E368F" points="314.5,245 316,244.1 316,244 314.1,245 316,246 316,245.8 "/>
<path fill="#2E368F" d="M316.7,244.6l0-0.6l-1.7,1l1.7,1l0-0.6c1.8,0,2,1.3,2,1.3C318.6,245.1,317.2,244.7,316.7,244.6z"/>
<path fill="#2E368F" stroke="#2E368F" stroke-width="0.95" stroke-miterlimit="10" d="M309.8,203.3c-1.7,0-3.3,0.7-4.3,2v-1.6
	c0-0.1-0.1-0.2-0.2-0.2s-0.2,0.1-0.2,0.2v2.1c0,0,0,0,0,0c0,0,0,0,0,0c0,0,0,0,0,0c0,0,0,0,0,0c0,0,0,0,0,0c0,0,0,0,0,0c0,0,0,0,0,0
	c0,0,0,0,0,0c0,0,0,0,0,0c0,0,0,0,0,0h2.1c0.1,0,0.2-0.1,0.2-0.2s-0.1-0.2-0.2-0.2h-1.7c1-1.2,2.5-2,4.1-2c2.9,0,5.3,2.4,5.3,5.3
	s-2.4,5.3-5.3,5.3c-1.1,0-2.2-0.3-3.1-1c-0.1-0.1-0.2,0-0.3,0c-0.1,0.1,0,0.2,0,0.3c1,0.7,2.1,1,3.3,1c3.2,0,5.7-2.6,5.7-5.7
	C315.5,205.8,313,203.3,309.8,203.3z"/>
<path fill="#2E368F" d="M315.6,47.5c-0.3,0-0.5,0-0.8-0.1c-0.2,0-0.3-0.2-0.2-0.4c0-0.2,0.2-0.3,0.4-0.2c1.3,0.3,2.6-0.3,3.2-1.5
	c0.3-0.7,0.4-1.5,0.2-2.2c-0.2-0.7-0.8-1.3-1.4-1.7c-0.7-0.3-1.5-0.4-2.2-0.2c-0.7,0.2-1.3,0.8-1.7,1.4c-0.1,0.1-0.3,0.2-0.4,0.1
	c-0.1-0.1-0.2-0.3-0.1-0.4c0.4-0.8,1.1-1.4,2-1.7c0.9-0.3,1.8-0.2,2.7,0.2c0.8,0.4,1.4,1.1,1.7,2c0.3,0.9,0.2,1.8-0.2,2.7
	C318.1,46.7,316.9,47.5,315.6,47.5z"/>
<g>
	<path fill="#2E368F" d="M307.5,57.1c-2.5,0-4.8-1.6-6.1-4.2c-0.4,0-0.9-0.3-1.2-0.9c-0.5-0.9-0.8-2.4-0.4-3.1
		c0.2-0.3,0.4-0.4,0.7-0.4c0,0,0,0,0,0c0.1-2,0.8-3.9,2-5.3c1.3-1.5,3-2.4,4.9-2.4c1.8,0,3.6,0.8,4.9,2.4c1.2,1.4,1.9,3.3,2,5.3
		c0,0,0,0,0,0c0.2,0,0.9,0.1,0.9,1.4c0,1.3-0.7,3-1.7,3.1C312.3,55.5,310,57.1,307.5,57.1z M301.6,52.3c0.1,0,0.2,0.1,0.3,0.2
		c1.1,2.5,3.2,4,5.6,4c2.3,0,4.5-1.5,5.6-4c0.1-0.1,0.2-0.2,0.3-0.2c0,0,0,0,0.1,0l0,0c0.6,0,1.2-1.4,1.2-2.5c0-0.5-0.1-0.8-0.3-0.8
		c0,0-0.1,0-0.2,0c-0.1,0-0.2,0-0.3,0c-0.1-0.1-0.1-0.1-0.1-0.2c0-4.1-2.9-7.5-6.3-7.5c-3.4,0-6.3,3.3-6.3,7.5
		c0,0.1-0.1,0.2-0.1,0.2c-0.1,0.1-0.2,0.1-0.3,0c-0.1,0-0.1,0-0.2,0c0,0-0.1,0-0.1,0.1c-0.3,0.4-0.1,1.7,0.4,2.5
		c0.1,0.2,0.4,0.6,0.7,0.6C301.5,52.3,301.5,52.3,301.6,52.3C301.6,52.3,301.6,52.3,301.6,52.3z"/>
</g>
<g>
	<path fill="#2E368F" d="M314,48.8c-1.8-0.4-3.6-2.6-4.6-4.4c-0.9,0.8-1.8,1.6-2.8,2.2c-2.5,1.7-5.7,2.2-5.7,2.2s0.2-2.5,1.8-4.6
		c0.7-0.9,1.6-1.8,2.7-2.3c1.6-0.8,3.8-0.6,5.3,0.4c0.4,0.3,0.8,0.6,1.1,1c0.6,0.8,1.1,1.8,1.4,2.7c0.3,0.8,0.5,1.6,0.7,2.4
		C314,48.5,314,48.7,314,48.8z"/>
	<path fill="#2E368F" d="M314,49.1c-1.7-0.4-3.6-2.5-4.7-4.3c-0.7,0.7-1.6,1.3-2.6,2c-2.5,1.7-5.7,2.3-5.8,2.3
		c-0.1,0-0.3-0.2-0.2-0.3c0-0.1,0,0.1,0,0c0-0.1,0.2-2.5,1.8-4.8c0.8-1,1.8-1.9,2.8-2.4c0.7-0.3,1.5-0.5,2.4-0.5
		c1.1,0,2.2,0.3,3.1,0.9c0.4,0.2,0.8,0.6,1.2,1.1c0.6,0.8,1.1,1.8,1.5,2.8c0.3,0.7,0.5,1.5,0.7,2.5c0,0.2,0.1,0.3,0.1,0.5
		c0,0,0,0,0,0.1C314.3,49,314.2,49.1,314,49.1"/>
</g>
<rect x="315.5" y="42" transform="matrix(0.5406 0.8413 -0.8413 0.5406 181.9884 -245.3317)" fill="none" stroke="#2E368F" stroke-width="0.5" stroke-miterlimit="10" width="0.2" height="3.9"/>
<path fill="none" stroke="#2E368F" stroke-width="0.5" stroke-miterlimit="10" d="M315.6,42c-1.1,0-2,0.9-2,2l0,0c0,1.1,0.9,2,2,2
	s2-0.9,2-2l0,0C317.6,42.9,316.8,42,315.6,42L315.6,42L315.6,42z"/>
<path fill="#2E368F" d="M229.7,41.4c-0.1,0-0.1,0-0.2,0.1L222.3,53c-0.1,0.2,0,0.3,0.2,0.3h14.4c0.2,0,0.3-0.1,0.2-0.3l-7.2-11.5
	C229.9,41.4,229.8,41.4,229.7,41.4L229.7,41.4z"/>
<path fill="#2E368F" stroke="#2E368F" stroke-width="0.5" stroke-miterlimit="10" d="M180.6,41.1v14.4c0,0.9,0.6,1.6,1.4,1.6h15.5
	c0.8,0,1.4-0.7,1.4-1.6V41.1c0-0.9-0.6-1.6-1.4-1.6h-15.5C181.2,39.5,180.6,40.2,180.6,41.1z M181.3,41.1c0-0.4,0.3-0.7,0.6-0.7
	h15.5c0.3,0,0.6,0.3,0.6,0.7v14.4c0,0.4-0.3,0.7-0.6,0.7h-15.5c-0.3,0-0.6-0.3-0.6-0.7V41.1z"/>
<path fill="#2E368F" stroke="#2E368F" stroke-miterlimit="10" d="M189.6,44.3c-0.1-0.1-0.2-0.1-0.3,0s-0.1,0.2,0,0.3l3.9,3.9
	l-3.9,3.9c-0.1,0.1-0.1,0.2,0,0.3c0.1,0.1,0.2,0.1,0.3,0l4-4c0,0,0.1-0.1,0.1-0.2s0-0.1-0.1-0.2L189.6,44.3z"/>
<path fill="#2E368F" stroke="#2E368F" stroke-miterlimit="10" d="M186.6,44.5c-0.1-0.1-0.2-0.1-0.3,0c-0.1,0.1-0.1,0.2,0,0.3
	l3.9,3.9l-3.9,3.9c-0.1,0.1-0.1,0.2,0,0.3c0.1,0.1,0.2,0.1,0.3,0l4-4c0,0,0.1-0.1,0.1-0.2s0-0.1-0.1-0.2L186.6,44.5z"/>
<path fill="#2E368F" stroke="#2E368F" stroke-width="0.5" stroke-miterlimit="10" d="M140.4,41.1v14.4c0,0.9,0.6,1.6,1.4,1.6h15.5
	c0.8,0,1.4-0.7,1.4-1.6V41.1c0-0.9-0.6-1.6-1.4-1.6h-15.5C141.1,39.5,140.4,40.2,140.4,41.1z M141.2,41.1c0-0.4,0.3-0.7,0.6-0.7
	h15.5c0.3,0,0.6,0.3,0.6,0.7v14.4c0,0.4-0.3,0.7-0.6,0.7h-15.5c-0.3,0-0.6-0.3-0.6-0.7V41.1z"/>
<g>
	<path fill="#2E368F" stroke="#2E368F" stroke-miterlimit="10" d="M150.2,44.3c0.1-0.1,0.2-0.1,0.3,0c0.1,0.1,0.1,0.2,0,0.3
		l-3.9,3.9l3.9,3.9c0.1,0.1,0.1,0.2,0,0.3c-0.1,0.1-0.2,0.1-0.3,0l-4-4c0,0-0.1-0.1-0.1-0.2s0-0.1,0.1-0.2L150.2,44.3z"/>
	<path fill="#2E368F" stroke="#2E368F" stroke-miterlimit="10" d="M153.2,44.5c0.1-0.1,0.2-0.1,0.3,0c0.1,0.1,0.1,0.2,0,0.3
		l-3.9,3.9l3.9,3.9c0.1,0.1,0.1,0.2,0,0.3c-0.1,0.1-0.2,0.1-0.3,0l-4-4c0,0-0.1-0.1-0.1-0.2s0-0.1,0.1-0.2L153.2,44.5z"/>
</g>
<path fill="#2E368F" d="M274.4,48l-2.8,0.9l1.8,2.4c0.5,0.6,0.3,1.5-0.3,1.9c-0.3,0.2-0.5,0.3-0.8,0.3c-0.4,0-0.9-0.2-1.1-0.6
	l-1.8-2.4l-1.8,2.4c-0.3,0.4-0.7,0.6-1.1,0.6c-0.3,0-0.6-0.1-0.8-0.3c-0.6-0.5-0.8-1.3-0.3-1.9l1.8-2.4l-2.9-0.9
	c-0.7-0.2-1.1-1-0.9-1.8c0.2-0.7,1-1.1,1.8-0.9l2.9,0.9v-3c0-0.8,0.6-1.4,1.4-1.4c0.8,0,1.4,0.6,1.4,1.4v3l2.9-0.9
	c0.7-0.2,1.5,0.2,1.8,0.9C275.5,47,275.1,47.7,274.4,48z"/>
<path fill="#2E368F" stroke="#2E368F" stroke-width="0.5" stroke-miterlimit="10" d="M115.5,47.2c1.5-1.6,1.5-4.1-0.1-5.7
	c-0.8-0.8-1.8-1.2-2.9-1.2c-1.1,0-2.1,0.4-2.9,1.2l-3.4,3.4c-0.2,0.2-0.2,0.5,0,0.7c0.1,0.1,0.2,0.1,0.3,0.1c0.1,0,0.2,0,0.3-0.1
	l3.4-3.4c1.2-1.2,3.2-1.2,4.3,0c1.2,1.2,1.2,3.2,0,4.3l-8.5,8.5c-0.8,0.8-2.1,0.8-2.9,0c-0.8-0.8-0.8-2.1,0-2.9l6.9-6.9l0,0
	c0.4-0.4,1-0.4,1.4,0c0.2,0.2,0.3,0.4,0.3,0.7s-0.1,0.5-0.3,0.7l-6,6c-0.2,0.2-0.2,0.5,0,0.7c0.1,0.1,0.2,0.1,0.3,0.1
	c0.1,0,0.2,0,0.3-0.1l6-6c0.4-0.4,0.6-0.9,0.6-1.4c0-0.5-0.2-1-0.6-1.4c-0.7-0.7-1.9-0.8-2.7-0.1c0,0,0,0,0,0l-7,7
	c-1.2,1.2-1.2,3.1,0,4.2c0.6,0.6,1.4,0.9,2.1,0.9c0.8,0,1.5-0.3,2.1-0.9L115.5,47.2L115.5,47.2L115.5,47.2L115.5,47.2
	C115.5,47.2,115.5,47.2,115.5,47.2z"/>
<title>interface_004-information-detail-window-application</title>
<desc>Created with Sketch.</desc>
<path fill="#2E368F" stroke="#2E368F" stroke-width="0.5" stroke-miterlimit="10" d="M-0.6,58L-0.6,58l0-13.6
	c-0.3,0.2-0.5,0.5-0.8,0.7l0,12.1h-18.1V43.9h11.1c0.3-0.4,0.7-0.8,1-1.2c0.3-0.4,0.8-0.2,0.9,0.2c0.1,0,0.1,0.1,0.2,0.1
	c0,0,0,0,0,0c1.4,0,2.7,0,4.1,0c0,0,0-0.1,0.1-0.1c-0.1-0.1-0.1-0.3,0-0.5c0.1-0.3,0.3-0.5,0.4-0.8c-0.3,0-0.6-0.1-0.6-0.5
	c0-0.1-0.1-0.4,0-0.5c0,0-0.1,0.4-0.1,0.4c-0.1,0-0.2-0.2-0.3-0.2c-0.1,0-0.1-0.1-0.3,0c-0.2,0.1-0.4,0.3-0.5,0.4c0,0,0,0,0,0
	c0,0-0.1,0.1-0.1,0.1c-0.2,0.1-0.4,0.1-0.5,0c-0.1,0.1-0.2,0.2-0.3,0.4c-0.5,0.5-1.2-0.2-0.7-0.7c0.3-0.3,0.6-0.7,0.9-1h-15.8V58
	h19.2l0,0C-0.9,58-0.8,58-0.6,58L-0.6,58L-0.6,58z"/>
<rect x="-19.5" y="40.7" fill="#FFFFFF" width="18.1" height="2.4"/>
<rect x="-18.7" y="41.5" fill="#2E368F" stroke="#2E368F" stroke-width="0.5" stroke-miterlimit="10" width="0.8" height="0.8"/>
<rect x="-17.2" y="41.5" fill="#2E368F" stroke="#2E368F" stroke-width="0.5" stroke-miterlimit="10" width="0.8" height="0.8"/>
<rect x="-15.6" y="41.5" fill="#2E368F" stroke="#2E368F" stroke-width="0.5" stroke-miterlimit="10" width="0.8" height="0.8"/>
<path fill="#2E368F" stroke="#2E368F" stroke-width="0.5" stroke-miterlimit="10" d="M39.4,58L39.4,58l0-13.6
	c-0.3,0.2-0.5,0.5-0.8,0.7l0,12.1H20.5V43.9h11.1c0.3-0.4,0.7-0.8,1-1.2c0.3-0.4,0.8-0.2,0.9,0.2c0.1,0,0.1,0.1,0.2,0.1c0,0,0,0,0,0
	c1.4,0,2.7,0,4.1,0c0,0,0-0.1,0.1-0.1c-0.1-0.1-0.1-0.3,0-0.5c0.1-0.3,0.3-0.5,0.4-0.8c-0.3,0-0.6-0.1-0.6-0.5c0-0.1-0.1-0.4,0-0.5
	c0,0-0.1,0.4-0.1,0.4c-0.1,0-0.2-0.2-0.3-0.2c-0.1,0-0.1-0.1-0.3,0c-0.2,0.1-0.4,0.3-0.5,0.4c0,0,0,0,0,0c0,0-0.1,0.1-0.1,0.1
	c-0.2,0.1-0.4,0.1-0.5,0c-0.1,0.1-0.2,0.2-0.3,0.4c-0.5,0.5-1.2-0.2-0.7-0.7c0.3-0.3,0.6-0.7,0.9-1H19.7V58h19.2l0,0
	C39.1,58,39.2,58,39.4,58L39.4,58L39.4,58z"/>
<rect x="20.5" y="40.7" fill="#FFFFFF" width="18.1" height="2.4"/>
<rect x="22.8" y="41.5" fill="#2E368F" stroke="#2E368F" stroke-width="0.5" stroke-miterlimit="10" width="0.8" height="0.8"/>
<rect x="21.2" y="41.5" fill="#2E368F" stroke="#2E368F" stroke-width="0.5" stroke-miterlimit="10" width="0.8" height="0.8"/>
<rect x="24.4" y="41.5" fill="#2E368F" stroke="#2E368F" stroke-width="0.5" stroke-miterlimit="10" width="0.8" height="0.8"/>
<g>
	<path fill="#2E368F" d="M77.6,42.2c0.2,0.2,0.2,0.5,0,0.7l-0.2,0.2l-0.7-0.7l0.2-0.2C77.1,42,77.4,42,77.6,42.2z"/>
	<polygon fill="#2E368F" points="74.3,44.8 74.1,45.7 75,45.5 77.2,43.3 76.5,42.6 	"/>
</g>
<rect x="-6.9" y="42.3" fill="#FFFFFF" width="5" height="1.6"/>
<g>
	<path fill="#2E368F" stroke="#2E368F" stroke-width="0.15" stroke-miterlimit="10" d="M-1,41.8l-1.4-1.3c-0.4-0.4-1.1-0.3-1.4,0.1
		l-7.2,8.1l-1.4,4.5l4.3-1.8l7.2-8.1C-0.5,42.9-0.6,42.2-1,41.8z M-11.2,51.1l0.5-1.8l1.9,1.7l-1.7,0.7L-11.2,51.1z M-10,49.3
		l5.7-6.4l0.4,0.4l-5.7,6.4L-10,49.3z M-10.1,49.2l-0.4-0.3l5.7-6.4l0.4,0.3L-10.1,49.2z M-9.4,49.9l5.7-6.4l0.4,0.4l-5.7,6.4
		L-9.4,49.9z M-4.5,42.2l0.2-0.2l2.1,1.9L-2.4,44L-4.5,42.2z M-8.4,50.7l-0.4-0.3L-3,44l0.4,0.3L-8.4,50.7z M-1.4,42.9l-0.6,0.6
		L-4,41.6l0.6-0.6c0.1-0.2,0.4-0.2,0.6,0l1.4,1.3C-1.2,42.4-1.2,42.7-1.4,42.9z"/>
</g>
<path fill="#FFFFFF" d="M36.9,40c0,0-0.8,0.9-0.9,1s-2.5,1.2-2.5,1.2s-0.7-0.1-0.7,0.1s0.3,3.6,0.3,3.6l1.3,2.2c0,0,2.1-2.1,2.2-2.2
	c0.1-0.1,2.8-2.2,2.8-2.2L37.8,41L36.9,40z"/>
<g>
	<path fill="#2E368F" stroke="#2E368F" stroke-width="0.15" stroke-miterlimit="10" d="M38.9,40.9c0.6,0.6,0.6,1.5,0,2.1l-0.7,0.7
		l-2.1-2.1l0.7-0.7C37.4,40.3,38.3,40.3,38.9,40.9z"/>
	<polygon fill="#2E368F" stroke="#2E368F" stroke-width="0.15" stroke-miterlimit="10" points="28.5,49.2 27.8,52 30.5,51.3 
		37.5,44.4 35.4,42.3 	"/>
</g>
<path fill="#2E368F" stroke="#2E368F" stroke-width="0.75" stroke-miterlimit="10" d="M-77.6,171.2h-1.6v-1.6c0-0.1-0.1-0.2-0.2-0.2
	c-0.1,0-0.2,0.1-0.2,0.2v1.6h-1.6c-0.1,0-0.2,0.1-0.2,0.2c0,0.1,0.1,0.2,0.2,0.2h1.6v1.6c0,0.1,0.1,0.2,0.2,0.2
	c0.1,0,0.2-0.1,0.2-0.2v-1.6h1.6c0.1,0,0.2-0.1,0.2-0.2C-77.5,171.3-77.5,171.2-77.6,171.2z"/>
<path fill="#2E368F" stroke="#2E368F" stroke-width="0.75" stroke-miterlimit="10" d="M-79.3,139.3c-2.6,0-4.6,2.1-4.6,4.6
	c0,2.6,2.1,4.6,4.6,4.6c2.6,0,4.6-2.1,4.6-4.6C-74.7,141.3-76.8,139.3-79.3,139.3z M-79.3,148.1c-2.3,0-4.2-1.9-4.2-4.2
	c0-2.3,1.9-4.2,4.2-4.2c2.3,0,4.2,1.9,4.2,4.2C-75.1,146.2-77,148.1-79.3,148.1z"/>
<path fill="#2E368F" d="M-86.7,130.9V148h1.2v-15.9h7.2v5.3h5.3V148h1.2v-11.4l-5.7-5.7H-86.7z M-77.1,136.2v-3.3l3.3,3.3H-77.1z"/>
<path fill="#2E368F" stroke="#2E368F" stroke-width="0.75" stroke-miterlimit="10" d="M-79.4,9.2c-2.6,0-4.6,2.1-4.6,4.6
	c0,2.6,2.1,4.6,4.6,4.6c2.6,0,4.6-2.1,4.6-4.6C-74.7,11.3-76.8,9.2-79.4,9.2z M-79.4,18.1c-2.3,0-4.2-1.9-4.2-4.2
	c0-2.3,1.9-4.2,4.2-4.2c2.3,0,4.2,1.9,4.2,4.2C-75.1,16.2-77,18.1-79.4,18.1z"/>
<path fill="#2E368F" d="M-86.8,0.8v17.1h1.2V2h7.2v5.3h5.3v10.6h1.2V6.5l-5.7-5.7H-86.8z M-77.2,6.1V2.9l3.3,3.3H-77.2z"/>
<g>
	<g>
		<path fill="#2E368F" d="M-74.9,111.6c0.4,0.4,0.4,1,0,1.5l-0.5,0.5l-1.5-1.5l0.5-0.5C-76,111.2-75.3,111.2-74.9,111.6z"/>
		<polygon fill="#2E368F" points="-82.2,117.4 -82.7,119.4 -80.7,118.9 -75.9,114 -77.3,112.6 		"/>
	</g>
</g>
<path fill="#2E368F" d="M-86.7,102.5v17.1h1.2v-15.9h7.2v5.3h5.3v10.6h1.2v-11.4l-5.7-5.7H-86.7z M-77.1,107.9v-3.3l3.3,3.3H-77.1z"
	/>
<path fill="#2E368F" stroke="#2E368F" stroke-width="0.75" stroke-miterlimit="10" d="M-109.5,201.6c-2.6,0-4.6,2.1-4.6,4.6
	c0,2.6,2.1,4.6,4.6,4.6c2.6,0,4.6-2.1,4.6-4.6C-104.8,203.7-106.9,201.6-109.5,201.6z M-109.5,210.5c-2.3,0-4.2-1.9-4.2-4.2
	c0-2.3,1.9-4.2,4.2-4.2c2.3,0,4.2,1.9,4.2,4.2C-105.2,208.6-107.1,210.5-109.5,210.5z"/>
<path fill="#2E368F" stroke="#2E368F" stroke-width="0.75" stroke-miterlimit="10" d="M-107.8,206.1h-1.6v-1.6
	c0-0.1-0.1-0.2-0.2-0.2c-0.1,0-0.2,0.1-0.2,0.2v1.6h-1.6c-0.1,0-0.2,0.1-0.2,0.2s0.1,0.2,0.2,0.2h1.6v1.6c0,0.1,0.1,0.2,0.2,0.2
	c0.1,0,0.2-0.1,0.2-0.2v-1.6h1.6c0.1,0,0.2-0.1,0.2-0.2S-107.7,206.1-107.8,206.1z"/>
<rect x="344.2" y="130.4" fill="#2E368F" width="6" height="8.1"/>
<polygon fill="#2E368F" points="348.1,128.5 342.1,128.5 342.1,136.6 343.4,136.6 343.4,129.8 348.1,129.8 "/>
<polygon fill="#2E368F" points="346.1,126.4 340.2,126.4 340.2,134.6 341.5,134.6 341.5,127.7 346.1,127.7 "/>
<g>
</g>
<g>
</g>
<g>
</g>
<g>
</g>
<g>
</g>
<g>
</g>
<g>
</g>
<g>
</g>
<g>
</g>
<g>
</g>
<g>
</g>
<g>
</g>
<g>
</g>
<g>
</g>
<g>
</g>
<g>
</g>
<g>
</g>
<g>
</g>
<g>
</g>
<g>
</g>
<g>
</g>
<g>
</g>
<g>
</g>
<g>
</g>
<g>
</g>
<g>
</g>
<g>
</g>
<g>
</g>
<g>
</g>
<g>
</g>
<g>
	<g>
		<path fill="#2E368F" d="M-108.2,158c-5.2,0-9.3,4.2-9.3,9.3c0,5.2,4.2,9.3,9.3,9.3h9.3v-9.3C-98.9,162.2-103.1,158-108.2,158z
			 M-108.2,175c-4.2,0-7.6-3.4-7.6-7.6s3.4-7.6,7.6-7.6s7.6,3.4,7.6,7.6S-104,175-108.2,175z"/>
	</g>
	<path fill="#2E368F" d="M-104.4,166.7h-3.1v-3.1c0-0.4-0.3-0.7-0.7-0.7c-0.4,0-0.7,0.3-0.7,0.7v3.1h-3.1c-0.4,0-0.7,0.3-0.7,0.7
		s0.3,0.7,0.7,0.7h3.1v3.1c0,0.4,0.3,0.7,0.7,0.7c0.4,0,0.7-0.3,0.7-0.7v-3.1h3.1c0.4,0,0.7-0.3,0.7-0.7
		C-103.7,167-104,166.7-104.4,166.7z"/>
</g>
<path fill="#2E368F" d="M-101,200.9V198h-2.9v-1.4h-1.6v1.4h-8.2v-1.4h-1.6v1.4h-2.9v15.7h2.9v2.9h17.1v-15.7H-101z M-116.8,212.4
	v-13h1.5v1.5h1.6v-1.5h8.2v1.5h1.6v-1.5h1.5v13H-116.8z M-99.4,215.4h-14.2v-1.6h12.6v-11.5h1.6V215.4z"/>
<path fill="#2E368F" d="M-101.5,231.7h-4.3c0-1.4-1.1-2.5-2.5-2.5c-1.4,0-2.5,1.1-2.5,2.5h-4.4v3h13.6V231.7z M-108.3,233
	c-0.7,0-1.2-0.6-1.2-1.2c0-0.7,0.6-1.2,1.2-1.2c0.7,0,1.2,0.6,1.2,1.2C-107,232.4-107.6,233-108.3,233z"/>
<g>
	<path fill="#2E368F" d="M-100.7,231.7v3.7H-116v-3.7h-1.1v17.4h17.4v-17.4H-100.7z M-100.6,248.2H-116v-11.7h15.5V248.2z"/>
	<rect x="-116" y="236.5" fill="#FFFFFF" width="15.5" height="11.7"/>
</g>
<path fill="#2E368F" stroke="#2E368F" stroke-width="0.75" stroke-miterlimit="10" d="M-105.9,240.4c-0.1-0.1-0.2-0.1-0.2,0
	l-3.6,3.6l-1.2-1.2c-0.1-0.1-0.2-0.1-0.2,0c-0.1,0.1-0.1,0.2,0,0.2l1.3,1.3c0,0,0.1,0,0.1,0c0,0,0.1,0,0.1,0l3.8-3.8
	C-105.9,240.6-105.9,240.5-105.9,240.4z"/>
<path fill="#2E368F" stroke="#2E368F" stroke-width="0.75" stroke-miterlimit="10" d="M-108.4,237.7c-2.6,0-4.6,2.1-4.6,4.6
	c0,2.6,2.1,4.6,4.6,4.6c2.6,0,4.6-2.1,4.6-4.6C-103.8,239.8-105.9,237.7-108.4,237.7z M-108.4,246.6c-2.3,0-4.2-1.9-4.2-4.2
	c0-2.3,1.9-4.2,4.2-4.2c2.3,0,4.2,1.9,4.2,4.2C-104.2,244.7-106.1,246.6-108.4,246.6z"/>
<path fill="#2E368F" d="M-145,230.3c-0.7,0-0.7,0-0.7,0.7v16.3c0,0.7,0,0.7,0.7,0.7s0.7,0,0.7-0.7V231
	C-144.3,230.3-144.3,230.3-145,230.3z"/>
<g>
	<path fill="#2E368F" d="M-128,230.6c-5.9-1.5-10.4,1.5-14.9,0v10c4.5,1.5,8.9-1.5,14.9,0l-3-5.2L-128,230.6z M-130.1,239.5
		c-4.5-1.1-7.9,1.1-11.3,0v-7.6c3.4,1.1,6.8-1.1,11.3,0l-2.3,3.7L-130.1,239.5z"/>
	<path fill="#FFFFFF" d="M-130.1,231.9c-4.5-1.1-7.9,1.1-11.3,0v7.6c3.4,1.1,6.8-1.1,11.3,0l-2.3-3.9L-130.1,231.9z"/>
</g>
<g>
	<path fill="#2E368F" stroke="#2E368F" stroke-miterlimit="10" d="M-169.5,247.9h-3c-0.9,0-1.7-0.7-1.7-1.7v-8.1
		c0-0.9,0.7-1.7,1.7-1.7h3V247.9z M-172.5,237c-0.6,0-1.1,0.5-1.1,1.1v8.1c0,0.6,0.5,1.1,1.1,1.1h2.5V237H-172.5z"/>
	<path fill="#2E368F" stroke="#2E368F" stroke-miterlimit="10" d="M-160.5,247.9h-9.5v-11.2l3.8-5.5c0.4-0.5,1-0.8,1.7-0.8h0.1
		c0.7,0,1.3,0.3,1.7,0.8c0.4,0.5,0.5,1.2,0.3,1.8l-1,3.5h5.1c0.7,0,1.5,0.4,1.9,1c0.6,0.8,0.7,1.8,0.3,3l-1.7,5.1
		C-158.2,246.4-159.4,247.9-160.5,247.9z M-169.5,247.3h9c0.7,0,1.8-1.2,2-2l1.7-5.1c0.3-0.9,0.3-1.8-0.2-2.5
		c-0.3-0.5-0.9-0.8-1.5-0.8h-5.7l1.2-4.2c0.1-0.5,0-1-0.2-1.4c-0.3-0.4-0.7-0.6-1.2-0.6h-0.1c-0.5,0-0.9,0.2-1.2,0.6l-3.8,5.4V247.3
		z"/>
</g>
<path fill="#2E368F" d="M-142.2,203.6l0.7-0.6l0.7,0.5l0-3.6h-1.3C-142.2,200-142.2,203.7-142.2,203.6z"/>
<path fill="#2E368F" d="M-41,7.5l1-0.9l1.1,0.8l0-5.7H-41C-41,1.8-41,7.6-41,7.5z"/>
<path fill="none" d="M-162.1,180.5c-0.9-0.9-2-1.3-3.1-1.3c-1.1,0-2.3,0.4-3.1,1.3c-1.7,1.7-1.7,4.5,0,6.3c1.7,1.7,4.5,1.7,6.3,0
	C-160.4,185-160.4,182.2-162.1,180.5z"/>
<path fill="#2E368F" d="M-114.8,110.8c0-0.3,0.2-0.5,0.5-0.5h12.6l-2.7-2.7c-0.2-0.2-0.2-0.6,0-0.8c0.1-0.1,0.2-0.2,0.4-0.2
	c0.1,0,0.3,0.1,0.4,0.2l3.6,3.6c0.2,0.2,0.2,0.6,0,0.8l-3.6,3.6c-0.2,0.2-0.6,0.2-0.8,0c-0.2-0.2-0.2-0.6,0-0.8l2.7-2.7h-12.6
	C-114.6,111.3-114.9,111.1-114.8,110.8z"/>
<path fill="#2E368F" d="M-114.7,120.1h10.9c2.1,0,3.9-1.7,3.9-3.9V114c0-0.3-0.2-0.5-0.5-0.5s-0.5,0.2-0.5,0.5v2.3
	c0,1.5-1.3,2.8-2.8,2.8h-10.9c-1.5,0-2.8-1.3-2.8-2.8v-10.9c0-1.5,1.3-2.8,2.8-2.8h10.9c1.5,0,2.8,1.3,2.8,2.8v2.2
	c0,0.3,0.2,0.5,0.5,0.5s0.5-0.2,0.5-0.5v-2.2c0-2.1-1.7-3.9-3.9-3.9h-10.9c-2.1,0-3.9,1.7-3.9,3.9v10.9
	C-118.5,118.4-116.8,120.1-114.7,120.1z"/>
<path fill="#2E368F" d="M-109.2,110.8"/>
<path fill="#2E368F" d="M-109.2,110.8"/>
<g>
	<path fill="#2E368F" stroke="#2E368F" stroke-width="0.25" stroke-miterlimit="10" d="M-109.8,74c2.6,0,4.7,2.1,4.7,4.7
		c0,0.9-0.3,1.8-0.8,2.6l0,0l0,0l-2,4h-3.7l-2.2-4l0,0l0,0c-0.5-0.8-0.8-1.6-0.8-2.6C-114.6,76.2-112.5,74-109.8,74 M-109.8,73.4
		c-3,0-5.4,2.4-5.4,5.4c0,1.1,0.3,2.1,0.9,2.9l0,0l2.4,4.4h4.5l2.2-4.4l0,0c0.5-0.8,0.9-1.8,0.9-2.9
		C-104.4,75.8-106.9,73.4-109.8,73.4L-109.8,73.4z"/>
	<path fill="#2E368F" stroke="#2E368F" stroke-width="0.25" stroke-miterlimit="10" d="M-112.5,78.4h-0.7c0-1.6,1.3-2.9,2.9-2.9v0.7
		C-111.5,76.1-112.5,77.1-112.5,78.4z"/>
	<rect x="-112" y="86.4" fill="#2E368F" stroke="#2E368F" stroke-width="0.25" stroke-miterlimit="10" width="4.5" height="0.8"/>
	<rect x="-112" y="87.7" fill="#2E368F" stroke="#2E368F" stroke-width="0.25" stroke-miterlimit="10" width="4.5" height="0.8"/>
	<rect x="-112" y="88.9" fill="#2E368F" stroke="#2E368F" stroke-width="0.25" stroke-miterlimit="10" width="4.5" height="0.8"/>
	<rect x="-111.1" y="90.1" fill="#2E368F" stroke="#2E368F" stroke-width="0.25" stroke-miterlimit="10" width="2.7" height="0.8"/>
</g>
<path fill="none" d="M-136,108.7h-3.1c-0.4,0-0.7-0.3-0.7-0.7v-3.4c-3.1,1-5.4,3.9-5.4,7.4c0,4.3,3.5,7.7,7.7,7.7
	c4.3,0,7.7-3.5,7.7-7.7c0-3.5-2.3-6.4-5.4-7.4v3.4C-135.2,108.3-135.6,108.7-136,108.7z"/>
<path fill="#12A049" stroke="#12A049" stroke-width="0.45" stroke-miterlimit="10" d="M-135.2,103.7v0.8c3.1,1,5.4,3.9,5.4,7.4
	c0,4.3-3.5,7.7-7.7,7.7c-4.3,0-7.7-3.5-7.7-7.7c0-3.5,2.3-6.4,5.4-7.4v-0.8c-3.6,1-6.2,4.3-6.2,8.1c0,4.7,3.8,8.5,8.5,8.5
	c4.7,0,8.5-3.8,8.5-8.5C-129.1,108-131.7,104.7-135.2,103.7z"/>
<path fill="#12A049" d="M-135.8,107.7c0,0.3-0.3,0.6-0.6,0.6h-2.4c-0.3,0-0.6-0.3-0.6-0.6v-5c0-0.3,0.3-0.6,0.6-0.6h2.4
	c0.3,0,0.6,0.3,0.6,0.6V107.7z"/>
<path fill="none" d="M-157.7,108.7h-3.1c-0.4,0-0.7-0.3-0.7-0.7v-3.4c-3.1,1-5.4,3.9-5.4,7.4c0,4.3,3.5,7.7,7.7,7.7
	c4.3,0,7.7-3.5,7.7-7.7c0-3.5-2.3-6.4-5.4-7.4v3.4C-157,108.3-157.3,108.7-157.7,108.7z"/>
<path fill="#EF3C24" stroke="#EF3C24" stroke-width="0.45" stroke-miterlimit="10" d="M-157,103.7v0.8c3.1,1,5.4,3.9,5.4,7.4
	c0,4.3-3.5,7.7-7.7,7.7c-4.3,0-7.7-3.5-7.7-7.7c0-3.5,2.3-6.4,5.4-7.4v-0.8c-3.6,1-6.2,4.3-6.2,8.1c0,4.7,3.8,8.5,8.5,8.5
	c4.7,0,8.5-3.8,8.5-8.5C-150.8,108-153.4,104.7-157,103.7z"/>
<path fill="#EF3C24" d="M-157.5,107.7c0,0.3-0.3,0.6-0.6,0.6h-2.4c-0.3,0-0.6-0.3-0.6-0.6v-5c0-0.3,0.3-0.6,0.6-0.6h2.4
	c0.3,0,0.6,0.3,0.6,0.6V107.7z"/>
<path fill="#2E368F" stroke="#2E368F" stroke-width="0.5" stroke-miterlimit="10" d="M-165.2,191.5c-4.4,0-8-3.6-8-8
	c0-4.4,3.6-8,8-8s8,3.6,8,8c0,2.1-0.8,4.1-2.2,5.5l0.5,0.5c1.5-1.6,2.4-3.7,2.4-6c0-4.8-3.9-8.8-8.8-8.8s-8.8,3.9-8.8,8.8
	c0,4.8,3.9,8.8,8.8,8.8c2.3,0,4.4-0.9,5.9-2.3l-0.5-0.5C-161.3,190.7-163.2,191.5-165.2,191.5z"/>
<path fill="#FFFFFF" stroke="#FFFFFF" stroke-miterlimit="10" d="M-161.6,190c0,0,1.2-0.4,2.7-2.8l2.1,1.5l0.3,1.6l-3.2,2.2
	l-0.8-0.9L-161.6,190z"/>
<path fill="#2E368F" stroke="#2E368F" stroke-width="0.75" stroke-miterlimit="10" d="M-158.2,215.4l-3.1-3.1c2-2.2,1.9-5.6-0.2-7.7
	c-2.2-2.2-5.8-2.2-8-0.1c-2.2,2.2-2.2,5.8-0.1,8c1.1,1.1,2.5,1.7,4,1.7c1.3,0,2.7-0.5,3.7-1.4l3.1,3.1c0.1,0.1,0.1,0.1,0.2,0.1
	s0.2,0,0.2-0.1C-158.1,215.8-158.1,215.6-158.2,215.4z M-169,212.1c-1.9-2-1.9-5.1,0-7c1-1,2.3-1.4,3.5-1.4s2.5,0.5,3.5,1.5
	c1.9,2,1.9,5.1,0,7C-163.9,214.1-167.1,214-169,212.1z"/>
<g>
	<path fill="#2E368F" stroke="#2E368F" stroke-width="0.75" stroke-miterlimit="10" d="M-158.5,189.6l-2.8-2.8c1.8-2,1.7-5.1-0.2-7
		c-2-2-5.2-2-7.2,0c-1.9,1.9-2,4.8-0.4,6.8c0,0,0.1-0.1,0.1-0.1c0.1-0.1,0.2-0.1,0.3-0.1c0,0,0.1-0.1,0.1-0.1
		c-1.4-1.8-1.3-4.4,0.3-6c0.9-0.9,2-1.3,3.2-1.3c1.2,0,2.3,0.4,3.2,1.3c1.8,1.8,1.8,4.6,0,6.4c-1.1,1.1-2.7,1.5-4.2,1.2
		c-0.1,0.2-0.2,0.4-0.4,0.5c0.5,0.1,0.9,0.2,1.4,0.2c1.2,0,2.4-0.4,3.4-1.3l2.8,2.8c0.1,0.1,0.1,0.1,0.2,0.1s0.2,0,0.2-0.1
		C-158.4,189.9-158.4,189.7-158.5,189.6z"/>
	<path fill="#2E368F" stroke="#2E368F" stroke-width="0.95" stroke-miterlimit="10" d="M-170.1,182.8c-0.2,1.5,0.2,3,1.2,4.1
		l-1.4-0.2c-0.1,0-0.2,0.1-0.2,0.1c0,0.1,0.1,0.2,0.1,0.2l1.9,0.3c0,0,0,0,0,0c0,0,0,0,0,0c0,0,0,0,0,0c0,0,0,0,0,0c0,0,0,0,0,0
		c0,0,0,0,0,0c0,0,0,0,0,0c0,0,0,0,0,0c0,0,0,0,0,0c0,0,0,0,0,0l0.3-1.9c0-0.1-0.1-0.2-0.1-0.2c-0.1,0-0.2,0.1-0.2,0.1l-0.2,1.5
		c-1-1.1-1.4-2.5-1.2-3.9c0.4-2.6,2.8-4.4,5.4-4c2.6,0.4,4.4,2.8,4,5.4c-0.1,1-0.6,1.9-1.3,2.6c-0.1,0.1-0.1,0.2,0,0.2
		c0.1,0.1,0.2,0.1,0.2,0c0.7-0.8,1.2-1.7,1.4-2.8c0.4-2.8-1.5-5.4-4.3-5.8C-167.1,178.1-169.7,180-170.1,182.8z"/>
</g>
<path fill="none" stroke="#B2B1B2" stroke-width="0.25" stroke-miterlimit="10" d="M-373,145.6v92.3h103.7
	C-269.3,237.9-373,143.4-373,145.6z"/>
<g>
	<path fill="#2E368F" stroke="#2E368F" stroke-width="0.5" stroke-miterlimit="10" d="M-8.4,170.8c0.1-0.1,0.1-0.1,0-0.2
		c-0.1-0.1-0.1-0.1-0.2,0l-2,2l0.2,0.2L-8.4,170.8z"/>
	<path fill="#2E368F" stroke="#2E368F" stroke-width="0.5" stroke-miterlimit="10" d="M-11.6,173.8l-1-1c-0.1-0.1-0.1-0.1-0.2,0
		c-0.1,0.1-0.1,0.1,0,0.2l1.1,1.1c0,0,0.1,0,0.1,0c0,0,0.1,0,0.1,0l0.1-0.1L-11.6,173.8L-11.6,173.8z"/>
	<path fill="#2E368F" stroke="#2E368F" stroke-width="0.5" stroke-miterlimit="10" d="M-11.4,172.8c-0.1-0.1-0.1-0.1-0.2,0
		c-0.1,0.1-0.1,0.1,0,0.2l0.4,0.4l0.2-0.2L-11.4,172.8z"/>
	<path fill="#2E368F" stroke="#2E368F" stroke-width="0.5" stroke-miterlimit="10" d="M-7.2,170.6c-0.1-0.1-0.1-0.1-0.2,0l-3.1,3.1
		l-0.4-0.4l-0.2,0.2l0.5,0.5c0,0,0.1,0,0.1,0c0,0,0.1,0,0.1,0l3.2-3.2C-7.1,170.8-7.1,170.7-7.2,170.6z"/>
	
		<rect x="-11.1" y="173.2" transform="matrix(0.7074 -0.7068 0.7068 0.7074 -125.755 42.9702)" fill="#2E368F" stroke="#2E368F" stroke-width="0.5" stroke-miterlimit="10" width="0.3" height="0.3"/>
</g>
<g>
	<path fill="#2E368F" stroke="#2E368F" stroke-width="0.15" stroke-miterlimit="10" d="M119.2,16.4c0,0.7-0.8,1.3-1.7,1.3h-15.7
		c-0.9,0-1.7-0.6-1.7-1.3c0-0.7,0.8-1.3,1.7-1.3h15.7C118.4,15.2,119.2,15.7,119.2,16.4z"/>
	<path fill="#2E368F" stroke="#2E368F" stroke-width="0.15" stroke-miterlimit="10" d="M119.2,16.4c0,0.7-0.8,1.3-1.7,1.3h-15.7
		c-0.9,0-1.7-0.6-1.7-1.3c0-0.7,0.8-1.3,1.7-1.3h15.7C118.4,15.2,119.2,15.7,119.2,16.4z"/>
</g>
<g>
	<path fill="#2E398E" stroke="#2E398E" stroke-width="0.45" stroke-miterlimit="10" d="M-79.3,16.7c0.2,0,0.3-0.1,0.3-0.3v-3.6
		c0-0.2-0.1-0.3-0.3-0.3c-0.2,0-0.3,0.2-0.3,0.3v3.6C-79.6,16.6-79.5,16.7-79.3,16.7z"/>
	<path fill="#2E398E" stroke="#2E398E" stroke-width="0.45" stroke-miterlimit="10" d="M-79.4,12c0.2,0,0.3-0.1,0.3-0.3v-0.5
		c0-0.2-0.1-0.3-0.3-0.3c-0.2,0-0.3,0.1-0.3,0.3v0.5C-79.6,11.8-79.5,12-79.4,12z"/>
</g>
<path fill="#2E368F" d="M-42.9,0.8v17.1h1.2V2h7.2v5.3h5.3v10.6h1.2V6.5l-5.7-5.7H-42.9z M-33.3,6.1V2.9l3.3,3.3H-33.3z"/>
<path fill="none" stroke="#2E368F" stroke-miterlimit="10" d="M-51.9,12.4l0-5.9c0-0.4-0.3-0.6-0.6-0.6l-5.9,0c-0.2,0-0.3,0-0.4,0.1
	C-58.9,6-59,6.2-59.1,6.3c0,0,0,0.3,0,0.3c0,0.2,0.3,0.4,0.5,0.5l-0.3-0.3l2.3,2.3l-4,4l-0.9-0.9l-0.1,0c0,0-0.1-0.1-0.2,0
	c-0.2,0.1-0.2,0.2-0.2,0.3l0,3c0,0.2,0.1,0.3,0.3,0.3h3c0.1,0,0.2,0,0.2-0.1c0,0,0.1,0,0.1-0.1c0,0,0.2-0.1,0.2-0.1
	c0-0.1-0.4-0.4-0.4-0.5l0.2,0.2l-0.8-0.8l4-4l2.5,2.5l0,0c0.1,0,0.2,0,0.3,0C-52.2,13-51.9,12.8-51.9,12.4z"/>
<rect x="-39.7" y="8.7" fill="#2E368F" width="8.4" height="0.7"/>
<rect x="-39.7" y="10.1" fill="#2E368F" width="8.4" height="0.7"/>
<rect x="-39.7" y="11.5" fill="#2E368F" width="8.4" height="0.7"/>
<rect x="-39.7" y="12.9" fill="#2E368F" width="8.4" height="0.7"/>
<rect x="-39.7" y="14.4" fill="#2E368F" width="8.4" height="0.7"/>
<rect x="-39.7" y="15.8" fill="#2E368F" width="8.4" height="0.7"/>
<g>
	<path fill="#2E368F" d="M30.7,5.4l0.8-0.7l0.8,0.6l0-4.2h-1.6C30.7,1.1,30.7,5.4,30.7,5.4z"/>
	<path fill="#2E368F" d="M29.3,0.4V13h0.9V1.3h5.3v3.9h3.9V13h0.9V4.6l-4.2-4.2H29.3z M36.4,4.4V1.9l2.4,2.4H36.4z"/>
	<rect x="31.7" y="6.2" fill="#2E368F" width="6.1" height="0.5"/>
	<rect x="31.7" y="7.2" fill="#2E368F" width="6.1" height="0.5"/>
	<rect x="31.7" y="8.3" fill="#2E368F" width="6.1" height="0.5"/>
	<rect x="31.7" y="9.3" fill="#2E368F" width="6.1" height="0.5"/>
	<rect x="31.7" y="10.4" fill="#2E368F" width="6.1" height="0.5"/>
	<rect x="31.7" y="11.4" fill="#2E368F" width="6.1" height="0.5"/>
</g>
<rect x="-17.5" y="8.7" fill="#2E368F" width="8.4" height="0.7"/>
<rect x="-17.5" y="10.1" fill="#2E368F" width="8.4" height="0.7"/>
<rect x="-17.5" y="11.6" fill="#2E368F" width="8.4" height="0.7"/>
<rect x="-17.5" y="13" fill="#2E368F" width="8.4" height="0.7"/>
<rect x="-17.5" y="14.4" fill="#2E368F" width="8.4" height="0.7"/>
<rect x="-17.5" y="15.8" fill="#2E368F" width="8.4" height="0.7"/>
<path fill="#2E368F" d="M-18.8,7.6l1-0.9l1.1,0.8l0-5.7h-2.1C-18.8,1.8-18.8,7.7-18.8,7.6z"/>
<path fill="#2E368F" d="M-20.8,0.8v17.1h1.2V2h7.2v5.4H-7v10.6h1.2V6.5l-5.7-5.7H-20.8z M-11.2,6.2V2.9l3.3,3.3H-11.2z"/>
<rect x="-75.5" y="-98" fill="none" width="100.5" height="89.7"/>
<text transform="matrix(1 0 0 1 -75.5151 -80.7415)"><tspan x="0" y="0" font-family="'HelveticaNeue'" font-size="9">2) Resume IDS</tspan><tspan x="0" y="10.8" font-family="'HelveticaNeue'" font-size="9">3) </tspan><tspan x="0" y="21.6" font-family="'HelveticaNeue'" font-size="9">4) Email Response</tspan><tspan x="0" y="32.4" font-family="'HelveticaNeue'" font-size="9">5) File IDS</tspan><tspan x="0" y="43.2" font-family="'HelveticaNeue'" font-size="9">6) </tspan><tspan x="0" y="54" font-family="'HelveticaNeue'" font-size="9">7) Filling Package</tspan></text>
<circle fill="#FFFFFF" cx="-7.8" cy="14.4" r="4.3"/>
<circle fill="#FFFFFF" cx="-8" cy="14.3" r="5.7"/>
<g>
	<g>
		<path fill="#2E368F" d="M-5.4,12.1c0.3,0.3,0.3,0.7,0,0.9l-0.3,0.3l-0.9-0.9l0.3-0.3C-6.1,11.8-5.6,11.8-5.4,12.1z"/>
		<polygon fill="#2E368F" points="-9.9,15.7 -10.2,16.9 -9,16.6 -6,13.6 -6.9,12.7 		"/>
	</g>
</g>
<path fill="#2E368F" stroke="#2E368F" stroke-width="0.75" stroke-miterlimit="10" d="M-7.9,9.6c-2.6,0-4.6,2.1-4.6,4.6
	c0,2.6,2.1,4.6,4.6,4.6s4.6-2.1,4.6-4.6C-3.3,11.7-5.4,9.6-7.9,9.6z M-7.9,18.5c-2.3,0-4.2-1.9-4.2-4.2c0-2.3,1.9-4.2,4.2-4.2
	s4.2,1.9,4.2,4.2C-3.7,16.6-5.6,18.5-7.9,18.5z"/>
<rect x="-17.5" y="-13.6" fill="#2E368F" width="8.4" height="0.7"/>
<rect x="-17.5" y="-12.2" fill="#2E368F" width="8.4" height="0.7"/>
<rect x="-17.5" y="-10.8" fill="#2E368F" width="8.4" height="0.7"/>
<rect x="-17.5" y="-9.4" fill="#2E368F" width="8.4" height="0.7"/>
<rect x="-17.5" y="-7.9" fill="#2E368F" width="8.4" height="0.7"/>
<rect x="-17.5" y="-6.5" fill="#2E368F" width="8.4" height="0.7"/>
<path fill="#2E368F" d="M-18.8-14.8l1-0.9l1.1,0.8l0-5.7h-2.1C-18.8-20.6-18.8-14.7-18.8-14.8z"/>
<path fill="#2E368F" d="M-20.8-21.5v17.1h1.2v-15.9h7.2v5.4H-7v10.6h1.2v-11.4l-5.7-5.7H-20.8z M-11.2-16.2v-3.3l3.3,3.3H-11.2z"/>
<circle fill="#FFFFFF" cx="-7.8" cy="-8" r="4.3"/>
<circle fill="#FFFFFF" cx="-8" cy="-8" r="5.7"/>
<path fill="#2E368F" stroke="#2E368F" stroke-width="0.75" stroke-miterlimit="10" d="M-7.9-12.7c-2.6,0-4.6,2.1-4.6,4.6
	c0,2.6,2.1,4.6,4.6,4.6S-3.3-5.5-3.3-8C-3.3-10.6-5.4-12.7-7.9-12.7z M-7.9-3.8c-2.3,0-4.2-1.9-4.2-4.2c0-2.3,1.9-4.2,4.2-4.2
	s4.2,1.9,4.2,4.2C-3.7-5.7-5.6-3.8-7.9-3.8z"/>
<rect x="4.7" y="8.7" fill="#2E368F" width="8.4" height="0.7"/>
<rect x="4.7" y="10.1" fill="#2E368F" width="8.4" height="0.7"/>
<rect x="4.7" y="11.6" fill="#2E368F" width="8.4" height="0.7"/>
<rect x="4.7" y="13" fill="#2E368F" width="8.4" height="0.7"/>
<rect x="4.7" y="14.4" fill="#2E368F" width="8.4" height="0.7"/>
<rect x="4.7" y="15.8" fill="#2E368F" width="8.4" height="0.7"/>
<path fill="#2E368F" d="M3.4,7.6l1-0.9l1.1,0.8l0-5.7H3.4C3.4,1.8,3.4,7.7,3.4,7.6z"/>
<path fill="#2E368F" d="M1.5,0.8v17.1h1.2V2h7.2v5.4h5.4v10.6h1.2V6.5l-5.7-5.7H1.5z M11.1,6.2V2.9l3.3,3.3H11.1z"/>
<circle fill="#FFFFFF" cx="14.4" cy="14.4" r="4.3"/>
<circle fill="#FFFFFF" cx="14.3" cy="14.3" r="5.7"/>
<path fill="#2E368F" stroke="#2E368F" stroke-width="0.75" stroke-miterlimit="10" d="M14.3,9.6c-2.6,0-4.6,2.1-4.6,4.6
	c0,2.6,2.1,4.6,4.6,4.6s4.6-2.1,4.6-4.6C19,11.7,16.9,9.6,14.3,9.6z M14.3,18.5c-2.3,0-4.2-1.9-4.2-4.2c0-2.3,1.9-4.2,4.2-4.2
	s4.2,1.9,4.2,4.2C18.6,16.6,16.7,18.5,14.3,18.5z"/>
<path fill="none" stroke="#2E368F" stroke-width="0.55" stroke-miterlimit="10" d="M16.6,15l0-2.6c0-0.2-0.1-0.3-0.3-0.3l-2.6,0
	c-0.1,0-0.1,0-0.2,0c0,0-0.1,0.1-0.1,0.2c0,0,0,0.1,0,0.1c0,0.1,0.2,0.2,0.2,0.2l-0.1-0.1l1,1l-1.7,1.7L12.4,15l0,0c0,0,0,0-0.1,0
	c-0.1,0-0.1,0.1-0.1,0.2l0,1.3c0,0.1,0.1,0.1,0.1,0.1h1.3c0,0,0.1,0,0.1,0c0,0,0,0,0,0c0,0,0.1,0,0.1,0c0,0-0.2-0.2-0.2-0.2l0.1,0.1
	l-0.4-0.4l1.7-1.7l1.1,1.1l0,0c0,0,0.1,0,0.1,0C16.5,15.3,16.6,15.2,16.6,15z"/>
<rect x="117.5" y="-38.5" fill="none" width="0" height="2.7"/>
<rect x="117.5" y="-46.8" fill="none" width="0" height="2.7"/>
<rect x="117.5" y="-42.6" fill="none" width="0" height="2.7"/>
<rect x="117.5" y="-34.4" fill="none" width="0" height="2.7"/>
<rect x="117.5" y="-30.3" fill="none" width="0" height="2.7"/>
<rect x="117.5" y="-26.2" fill="none" width="0" height="2.7"/>
<rect x="117.5" y="-22.1" fill="none" width="0" height="5.6"/>
<path fill="none" d="M117.5-49.6v1.4h0v-2.7h-0.2C117.4-50.5,117.5-50,117.5-49.6z"/>
<title>folder_2</title>
<description>Created with Sketch (http://www.bohemiancoding.com/sketch)</description>
<polygon fill="#2E368F" points="29,6.5 28,6.5 28,5.5 22.5,5.5 23.1,18.9 23.9,18.9 23.9,7.6 29,7.6 "/>
<polygon fill="#F9F9FA" stroke="#2E368F" stroke-miterlimit="10" points="40.6,8.6 40.6,8.6 29.1,8.6 29.1,8.6 25.3,8.6 24.3,18.9 
	39.2,18.9 41.6,8.6 "/>
<g>
	<path fill="#2E368F" stroke="#2E368F" stroke-width="0.5" stroke-miterlimit="10" d="M62.6,5.7H45.5h-0.4v11.4h17.7V5.7H62.6z
		 M51.3,11.3l2.8,2.3l2.6-2.2l5.1,5.1H46L51.3,11.3z M45.8,15.8V6.7l5,4.2L45.8,15.8z M57.2,11l5.1-4.2V16L57.2,11z M61.7,6.3
		L54,12.8l-7.7-6.4H61.7z"/>
</g>
<circle fill="#FFFFFF" cx="59.2" cy="14.1" r="4.2"/>
<circle fill="#FFFFFF" cx="59.1" cy="14.1" r="5.6"/>
<path fill="#2E368F" stroke="#2E368F" stroke-width="0.75" stroke-miterlimit="10" d="M59.1,9.5c-2.5,0-4.5,2-4.5,4.5
	c0,2.5,2,4.5,4.5,4.5c2.5,0,4.5-2,4.5-4.5C63.6,11.5,61.6,9.5,59.1,9.5z M59.1,18.2c-2.3,0-4.1-1.9-4.1-4.1c0-2.3,1.9-4.1,4.1-4.1
	c2.3,0,4.1,1.9,4.1,4.1C63.2,16.3,61.4,18.2,59.1,18.2z"/>
<path fill="#2E368F" d="M58.8,12.8l0-1l-2.6,1.5l2.6,1.5l0-0.9c2.8,0,3,2,3,2C61.8,13.5,59.5,12.9,58.8,12.8z"/>
<g>
	<path fill="#2E368F" d="M-6.2-8.2l-2-2c-0.1-0.1-0.3,0-0.3,0.1v4c0,0.2,0.2,0.3,0.3,0.1l2-2C-6.1-8-6.1-8.2-6.2-8.2z"/>
</g>
</svg>
