<?xml version="1.0" encoding="utf-8"?>
<!-- Generator: Adobe Illustrator 18.1.1, SVG Export Plug-In . SVG Version: 6.00 Build 0)  -->
<svg version="1.1" id="Layer_1" xmlns="http://www.w3.org/2000/svg" xmlns:xlink="http://www.w3.org/1999/xlink" x="0px" y="0px"
	 viewBox="636.2 447.4 20 20" enable-background="new 636.2 447.4 20 20" xml:space="preserve">
<g>
	<path fill="#666666" d="M652.8,454.2h-2.4c0.1-0.3,0.2-0.5,0.2-0.8v-2c0-1.8-1.5-3.3-3.3-3.3h-2.4c-1.8,0-3.3,1.5-3.3,3.3v2
		c0,0.3,0.1,0.6,0.2,0.8h-2.4c-1,0-1.8,0.8-1.8,1.8v8.2c0,1,0.8,1.8,1.8,1.8h13.4c1,0,1.8-0.8,1.8-1.8V456
		C654.6,455,653.9,454.2,652.8,454.2z M642.6,453.4v-2c0-1.3,1-2.3,2.3-2.3h2.4c1.3,0,2.3,1,2.3,2.3v2c0,0.5-0.4,0.8-0.8,0.8h-5.5
		C643,454.2,642.6,453.9,642.6,453.4z M653.7,464.2c0,0.5-0.4,0.8-0.8,0.8h-13.4c-0.5,0-0.8-0.4-0.8-0.8V456c0-0.5,0.4-0.8,0.8-0.8
		h3.9h5.5h3.9c0.5,0,0.8,0.4,0.8,0.8V464.2L653.7,464.2z"/>
	<path fill="#666666" d="M646.2,457.6c-1,0-1.9,0.8-1.9,1.9c0,0.8,0.6,1.6,1.4,1.8v1.6c0,0.3,0.2,0.5,0.5,0.5c0.3,0,0.5-0.2,0.5-0.5
		v-1.6c0.8-0.2,1.4-1,1.4-1.8C648.1,458.4,647.2,457.6,646.2,457.6z M646.2,460.4c-0.5,0-0.9-0.4-0.9-0.9s0.4-0.9,0.9-0.9
		s0.9,0.4,0.9,0.9S646.7,460.4,646.2,460.4z"/>
</g>
</svg>
