<?xml version="1.0" encoding="utf-8"?>
<!-- Generator: Adobe Illustrator 18.1.1, SVG Export Plug-In . SVG Version: 6.00 Build 0)  -->
<svg version="1.1" id="Layer_1" xmlns="http://www.w3.org/2000/svg" xmlns:xlink="http://www.w3.org/1999/xlink" x="0px" y="0px"
	 viewBox="0 0 20 20" enable-background="new 0 0 20 20" xml:space="preserve">
<path fill="#009966" stroke="#009966" stroke-width="0.75" stroke-miterlimit="10" d="M405-20.6l4-4c0.1-0.1,0.1-0.2,0-0.3
	s-0.2-0.1-0.3,0l-4,4l-4-4c-0.1-0.1-0.2-0.1-0.3,0s-0.1,0.2,0,0.3l4,4l-4,4c-0.1,0.1-0.1,0.2,0,0.3c0,0,0.1,0.1,0.2,0.1
	s0.1,0,0.2-0.1l4-4l4,4c0,0,0.1,0.1,0.2,0.1s0.1,0,0.2-0.1c0.1-0.1,0.1-0.2,0-0.3L405-20.6z"/>
<path fill="#009966" stroke="#009966" stroke-width="0.75" stroke-miterlimit="10" d="M487.7-64.6c0.1-0.1,0.1-0.2,0-0.3
	s-0.2-0.1-0.3,0l-1.8,1.8l0.3,0.3L487.7-64.6z"/>
<path fill="#009966" stroke="#009966" stroke-width="0.75" stroke-miterlimit="10" d="M487.4-56.6c0,0,0.1,0.1,0.2,0.1
	c0.1,0,0.1,0,0.2-0.1c0.1-0.1,0.1-0.2,0-0.3l-2.2-2.2l-0.3,0.3L487.4-56.6z"/>
<path fill="#009966" stroke="#009966" stroke-width="0.75" stroke-miterlimit="10" d="M483.9-60.7l0.3-0.3l-0.3-0.3l-0.3,0.3
	l-3.8-3.8c-0.1-0.1-0.2-0.1-0.3,0c-0.1,0.1-0.1,0.2,0,0.3l3.8,3.8l-3.8,3.8c-0.1,0.1-0.1,0.2,0,0.3c0,0,0.1,0.1,0.2,0.1
	c0.1,0,0.1,0,0.2-0.1l3.8-3.8l1.3,1.3l0.3-0.3L483.9-60.7z"/>
<path fill="#009966" stroke="#009966" stroke-width="0.75" stroke-miterlimit="10" d="M482.3-56.6c-0.1,0.1-0.1,0.2,0,0.3
	c0,0,0.1,0.1,0.2,0.1c0.1,0,0.1,0,0.2-0.1l1.9-1.9l-0.3-0.3L482.3-56.6z"/>
<path fill="#009966" stroke="#009966" stroke-width="0.75" stroke-miterlimit="10" d="M482.7-64.6c-0.1-0.1-0.2-0.1-0.3,0
	c-0.1,0.1-0.1,0.2,0,0.3l2.2,2.2l0.3-0.3L482.7-64.6z"/>
<path fill="#009966" stroke="#009966" stroke-width="0.75" stroke-miterlimit="10" d="M486.8-60.4l3.8-3.8c0.1-0.1,0.1-0.2,0-0.3
	c-0.1-0.1-0.2-0.1-0.3,0l-3.8,3.8l-1.3-1.3l-0.3,0.3l1.3,1.3l-0.4,0.4l0.3,0.3l0.4-0.4l3.8,3.8c0,0,0.1,0.1,0.2,0.1
	c0.1,0,0.1,0,0.2-0.1c0.1-0.1,0.1-0.2,0-0.3L486.8-60.4z"/>
<rect x="485" y="-59.4" transform="matrix(-0.7072 -0.707 0.707 -0.7072 870.1127 242.0906)" fill="#009966" stroke="#009966" stroke-width="0.75" stroke-miterlimit="10" width="0.5" height="0.5"/>
<rect x="484.6" y="-62.3" transform="matrix(0.7067 0.7075 -0.7075 0.7067 98.3281 -361.2655)" fill="#009966" stroke="#009966" stroke-width="0.75" stroke-miterlimit="10" width="0.5" height="0.5"/>
<g>
	<path fill="#009966" stroke="#009966" stroke-width="0.45" stroke-miterlimit="10" d="M331.1-103.9h-2.4c0.1-0.2,0.2-0.5,0.2-0.8
		v-2c0-1.8-1.5-3.3-3.3-3.3h-2.5c-1.8,0-3.3,1.5-3.3,3.3v2c0,0.3,0.1,0.6,0.2,0.8h-2.4c-1,0-1.8,0.8-1.8,1.8v8.3
		c0,1,0.8,1.8,1.8,1.8h13.5c1,0,1.8-0.8,1.8-1.8v-8.3C332.9-103.1,332.1-103.9,331.1-103.9z M320.8-104.7v-2c0-1.3,1.1-2.3,2.3-2.3
		h2.5c1.3,0,2.3,1.1,2.3,2.3v2c0,0.4-0.4,0.8-0.8,0.8h-5.6C321.1-103.9,320.8-104.3,320.8-104.7z M331.9-93.9c0,0.4-0.4,0.8-0.8,0.8
		h-13.5c-0.4,0-0.8-0.4-0.8-0.8v-8.3c0-0.4,0.4-0.8,0.8-0.8h4h5.6h4c0.4,0,0.8,0.4,0.8,0.8V-93.9z"/>
	<path fill="#009966" stroke="#009966" stroke-width="0.45" stroke-miterlimit="10" d="M324.4-100.6c-1,0-1.9,0.8-1.9,1.9
		c0,0.9,0.6,1.6,1.4,1.8v1.6c0,0.3,0.2,0.5,0.5,0.5s0.5-0.2,0.5-0.5v-1.6c0.8-0.2,1.4-0.9,1.4-1.8
		C326.3-99.7,325.4-100.6,324.4-100.6z M324.4-97.7c-0.5,0-0.9-0.4-0.9-0.9s0.4-0.9,0.9-0.9c0.5,0,0.9,0.4,0.9,0.9
		S324.9-97.7,324.4-97.7z"/>
</g>
<g>
	<path fill="#009966" stroke="#009966" stroke-width="0.45" stroke-miterlimit="10" d="M372.2-103h-2.4c0.1-0.2,0.2-0.5,0.2-0.8v-2
		c0-1.8-1.5-3.3-3.3-3.3h-2.5c-1.8,0-3.3,1.5-3.3,3.3c0,0.3,0.2,0.5,0.5,0.5s0.5-0.2,0.5-0.5c0-1.3,1.1-2.3,2.3-2.3h2.5
		c1.3,0,2.3,1.1,2.3,2.3v2c0,0.4-0.4,0.8-0.8,0.8h-5.6h-4c-1,0-1.8,0.8-1.8,1.8v8.3c0,1,0.8,1.8,1.8,1.8h13.5c1,0,1.8-0.8,1.8-1.8
		v-8.3C374-102.2,373.2-103,372.2-103z M373-92.9c0,0.4-0.4,0.8-0.8,0.8h-13.5c-0.4,0-0.8-0.4-0.8-0.8v-8.3c0-0.4,0.4-0.8,0.8-0.8h4
		h5.6h4c0.4,0,0.8,0.4,0.8,0.8V-92.9z"/>
	<path fill="#009966" stroke="#009966" stroke-width="0.45" stroke-miterlimit="10" d="M365.4-99.6c-1,0-1.9,0.8-1.9,1.9
		c0,0.9,0.6,1.6,1.4,1.8v1.6c0,0.3,0.2,0.5,0.5,0.5s0.5-0.2,0.5-0.5v-1.6c0.8-0.2,1.4-0.9,1.4-1.8C367.3-98.8,366.5-99.6,365.4-99.6
		z M365.4-96.8c-0.5,0-0.9-0.4-0.9-0.9s0.4-0.9,0.9-0.9c0.5,0,0.9,0.4,0.9,0.9S365.9-96.8,365.4-96.8z"/>
</g>
<path fill="#009966" d="M212.1-109.7h-14.4c-1,0-1.8,0.8-1.8,1.8v14.4c0,1,0.8,1.8,1.8,1.8h14.4c1,0,1.8-0.8,1.8-1.8v-14.4
	C213.9-108.9,213.1-109.7,212.1-109.7z M209.7-103c0,0-5.8,5.8-5.8,5.8c-0.3,0.3-0.5,0.2-0.8,0l-2.8-2.8c-0.3-0.3-0.3-0.5,0-0.8
	c0.3-0.3,0.5-0.3,0.8,0l2.4,2.4l5.3-5.4c0.3-0.3,0.5-0.3,0.8,0C210-103.6,210-103.3,209.7-103z"/>
<path fill="#009966" stroke="#009966" stroke-width="0.5" stroke-miterlimit="10" d="M172-28.6c0.4,0,0.8,0.4,0.8,0.8v14.3
	c0,0.4-0.4,0.8-0.8,0.8h-14.3c-0.4,0-0.8-0.4-0.8-0.8v-14.3c0-0.4,0.4-0.8,0.8-0.8L172-28.6 M172-29.7h-14.3c-1,0-1.9,0.8-1.9,1.9
	v14.3c0,1,0.8,1.9,1.9,1.9H172c1,0,1.9-0.8,1.9-1.9v-14.3C173.9-28.9,173-29.7,172-29.7L172-29.7z"/>
<path fill="#009966" stroke="#009966" stroke-miterlimit="10" d="M491-140.4c0.1-0.1,0.1-0.2,0.1-0.3s0-0.2-0.1-0.3l-8.2-8.2
	c-0.2-0.2-0.5-0.2-0.6,0c-0.2,0.2-0.2,0.5,0,0.6l7.8,7.8l-7.8,7.8c-0.2,0.2-0.2,0.5,0,0.6c0.2,0.2,0.5,0.2,0.6,0L491-140.4z"/>
<path fill="#009966" stroke="#009966" stroke-miterlimit="10" d="M205.5-24.7c-0.1-0.1-0.2-0.1-0.3-0.1c-0.1,0-0.2,0-0.3,0.1
	l-8.2,8.2c-0.2,0.2-0.2,0.5,0,0.6s0.5,0.2,0.6,0l7.8-7.8l7.8,7.8c0.2,0.2,0.5,0.2,0.6,0c0.2-0.2,0.2-0.5,0-0.6L205.5-24.7z"/>
<path fill="#009966" stroke="#009966" stroke-miterlimit="10" d="M364.5-55.8c0.1,0.1,0.2,0.1,0.3,0.1s0.2,0,0.3-0.1l8.2-8.2
	c0.2-0.2,0.2-0.5,0-0.6s-0.5-0.2-0.6,0l-7.8,7.8l-7.8-7.8c-0.2-0.2-0.5-0.2-0.6,0c-0.2,0.2-0.2,0.5,0,0.6L364.5-55.8z"/>
<g transform="matrix( 1, 0, 0, 1, 0,0) ">
	<g>
		<g id="a_3_">
			<path fill="#009966" stroke="#009966" stroke-width="0.5" stroke-miterlimit="10" d="M235.3-65.3v7.2c0,0.9,0.3,1.7,1,2.4
				c0.7,0.7,1.5,1,2.4,1v2.6c0,0.1,0,0.2,0.1,0.3c0,0.1,0.1,0.1,0.2,0.2c0.1,0,0.1,0,0.2,0c0.1,0,0.2,0,0.3-0.1l3-2.9h8.3
				c1,0,1.8-0.3,2.5-1c0.7-0.7,1-1.5,1-2.4v-7.2c0-1-0.3-1.8-1-2.4c-0.7-0.7-1.5-1-2.5-1h-12.1c-1,0-1.8,0.3-2.5,1
				C235.7-67,235.3-66.2,235.3-65.3 M238.9-67.8h12.1c0.7,0,1.3,0.2,1.8,0.7c0.5,0.5,0.8,1.1,0.8,1.8v7.2c0,0.7-0.3,1.3-0.8,1.8
				c-0.5,0.5-1.1,0.8-1.8,0.8h-8.5c-0.1,0-0.2,0-0.3,0.1l-2.3,2.3v-2c0-0.1,0-0.2-0.1-0.3c-0.1-0.1-0.2-0.1-0.3-0.1h-0.4
				c-0.7,0-1.3-0.3-1.8-0.8c-0.5-0.5-0.8-1.1-0.8-1.8v-7.2c0-0.7,0.3-1.3,0.8-1.8C237.5-67.5,238.1-67.8,238.9-67.8z"/>
			<path fill="#009966" stroke="#009966" stroke-width="0.5" stroke-miterlimit="10" d="M250.1-60.8c0.2-0.2,0.4-0.5,0.4-0.8
				c0-0.3-0.1-0.6-0.4-0.8c-0.2-0.2-0.5-0.4-0.9-0.4s-0.6,0.1-0.9,0.4c-0.2,0.2-0.4,0.5-0.4,0.8c0,0.3,0.1,0.6,0.4,0.8
				c0.2,0.2,0.5,0.3,0.9,0.3S249.8-60.6,250.1-60.8 M241.8-61.7c0-0.3-0.1-0.6-0.4-0.8c-0.2-0.2-0.5-0.4-0.9-0.4s-0.6,0.1-0.9,0.4
				c-0.2,0.2-0.4,0.5-0.4,0.8c0,0.3,0.1,0.6,0.4,0.8c0.2,0.2,0.5,0.3,0.9,0.3s0.6-0.1,0.9-0.3C241.7-61.1,241.8-61.4,241.8-61.7
				 M244-62.5c-0.2,0.2-0.4,0.5-0.4,0.8c0,0.3,0.1,0.6,0.4,0.8c0.2,0.2,0.5,0.3,0.9,0.3c0.3,0,0.6-0.1,0.9-0.3
				c0.2-0.2,0.4-0.5,0.4-0.8c0-0.3-0.1-0.6-0.4-0.8c-0.2-0.2-0.5-0.4-0.9-0.4C244.6-62.9,244.3-62.7,244-62.5z"/>
		</g>
	</g>
</g>
<path fill="#009966" stroke="#009966" stroke-width="0.45" stroke-miterlimit="10" d="M128.5-13.2h-2v2h-11.1v-15.2h2v-2h2v-2h11.1
	v15.2h-2L128.5-13.2L128.5-13.2z M125.9-25.8h-10.1v14.2h10.1V-25.8z M117.3-23.8v-0.5h7.1v0.5H117.3z M117.3-21.8v-0.5h7.1v0.5
	H117.3z M117.3-19.8v-0.5h7.1v0.5H117.3z M117.3-17.8v-0.5h7.1v0.5H117.3z M117.3-15.7v-0.5h7.1v0.5H117.3z M117.3-13.7v-0.5h7.1
	v0.5H117.3z M117.8-27.9v1.5h8.6v12.6h1.5v-14.2H117.8z M119.9-29.9v1.5h8.6v12.6h1.5v-14.2H119.9z"/>
<path fill="#009966" d="M204.3,9.5c0,0-0.1,0-0.1,0.1l-5.2,8.4c-0.1,0.1,0,0.2,0.1,0.2h10.4c0.1,0,0.2-0.1,0.1-0.2l-5.2-8.4
	C204.4,9.5,204.3,9.5,204.3,9.5L204.3,9.5z M199.1,19.9c-0.1,0-0.2,0.1-0.1,0.2l5.2,8.4c0.1,0.1,0.2,0.1,0.2,0l5.2-8.4
	c0.1-0.1,0-0.2-0.1-0.2H199.1L199.1,19.9z"/>
<path fill="#009966" stroke="#009966" stroke-width="0.75" stroke-miterlimit="10" d="M484.6-70.1c-5.3,0-9.6,4.3-9.6,9.6
	s4.3,9.6,9.6,9.6c5.3,0,9.6-4.3,9.6-9.6S489.9-70.1,484.6-70.1z M484.6-51.8c-4.8,0-8.7-3.9-8.7-8.7s3.9-8.7,8.7-8.7
	c4.8,0,8.7,3.9,8.7,8.7S489.5-51.8,484.6-51.8z"/>
<g>
	<path fill="#009966" stroke="#009966" stroke-width="0.75" stroke-miterlimit="10" d="M284.4-20.5c-2,0-3.5,1.2-4.1,2.9h0.4
		c0.6-1.6,1.9-2.5,3.7-2.5c2.1,0,3.9,1.8,3.9,3.9s-1.8,3.9-3.9,3.9c-1.6,0-2.9-1-3.5-2.3h-0.4c0.6,1.6,2.1,2.7,3.9,2.7
		c2.3,0,4.3-1.9,4.3-4.3S286.7-20.5,284.4-20.5z"/>
	<path fill="#009966" stroke="#009966" stroke-width="0.75" stroke-miterlimit="10" d="M284.4-18.9v3.3h2.5v0.4H284
		c0-1.2,0-2.7,0-3.7L284.4-18.9z"/>
</g>
<path fill="#009966" stroke="#009966" stroke-miterlimit="10" d="M253.3-20.6c-0.2,0-0.3,0.1-0.3,0.3v5c0,1.6-1.3,2.9-2.9,2.9h-10.6
	c-1.6,0-2.9-1.3-2.9-2.9v-8.4v-2.2c0-1.6,1.3-2.9,2.9-2.9h4.9c0.2,0,0.3-0.1,0.3-0.3c0-0.2-0.1-0.3-0.3-0.3h-4.9
	c-1.9,0-3.5,1.6-3.5,3.5v2.2v8.4c0,1.9,1.6,3.5,3.5,3.5h10.6c1.9,0,3.5-1.6,3.5-3.5v-5C253.5-20.5,253.4-20.6,253.3-20.6z"/>
<g>
	<g>
		<path fill="#009966" d="M253.9-29.5c0.6,0.6,0.6,1.5,0,2.1l-0.7,0.7l-2.1-2.1l0.7-0.7C252.4-30.1,253.3-30.1,253.9-29.5z"/>
		<polygon fill="#009966" points="243.6,-21.3 242.9,-18.6 245.7,-19.3 252.5,-26.1 250.4,-28.2 		"/>
	</g>
</g>
<path fill="#009966" stroke="#009966" stroke-width="0.75" stroke-miterlimit="10" d="M413.3,19.7c-0.2,0-0.3,0.1-0.3,0.3v5
	c0,1.6-1.3,2.9-2.9,2.9h-10.5c-1.6,0-2.9-1.3-2.9-2.9v-8.4v-2.2c0-1.6,1.3-2.9,2.9-2.9h4.9c0.2,0,0.3-0.1,0.3-0.3
	c0-0.2-0.1-0.3-0.3-0.3h-4.9c-1.9,0-3.5,1.5-3.5,3.5v2.2v8.4c0,1.9,1.5,3.5,3.5,3.5h10.5c1.9,0,3.5-1.5,3.5-3.5v-5
	C413.5,19.8,413.4,19.7,413.3,19.7z"/>
<path fill="#009966" stroke="#009966" stroke-width="0.75" stroke-miterlimit="10" d="M373.8-140.7c-0.2,0-0.3,0.1-0.3,0.3v5.3
	c0,1.7-1.4,3.1-3.1,3.1H359c-1.7,0-3.1-1.4-3.1-3.1v-9v-2.3c0-1.7,1.4-3.1,3.1-3.1h5.3c0.2,0,0.3-0.1,0.3-0.3c0-0.2-0.1-0.3-0.3-0.3
	H359c-2,0-3.7,1.7-3.7,3.7v2.3v9c0,2,1.7,3.7,3.7,3.7h11.3c2,0,3.7-1.7,3.7-3.7v-5.3C374.1-140.6,373.9-140.7,373.8-140.7z"/>
<g>
	<path fill="#009966" d="M374.4-150.3c0.6,0.6,0.6,1.6,0,2.2l-0.7,0.7l-2.2-2.2l0.7-0.7C372.8-150.9,373.8-150.9,374.4-150.3z"/>
	<polygon fill="#009966" points="363.4,-141.5 362.7,-138.6 365.6,-139.3 372.9,-146.6 370.7,-148.8 	"/>
</g>
<path fill="#009966" stroke="#009966" stroke-width="0.75" stroke-miterlimit="10" d="M292.8-141.6h-7.1v-7.1c0-0.5-0.4-0.8-0.8-0.8
	c-0.5,0-0.8,0.4-0.8,0.8v7.1h-7.1c-0.5,0-0.8,0.4-0.8,0.8c0,0.5,0.4,0.8,0.8,0.8h7.1v7.1c0,0.5,0.4,0.8,0.8,0.8
	c0.5,0,0.8-0.4,0.8-0.8v-7.1h7.1c0.5,0,0.8-0.4,0.8-0.8C293.7-141.3,293.3-141.6,292.8-141.6z"/>
<path fill="#009966" stroke="#009966" stroke-width="0.75" stroke-miterlimit="10" d="M253.7-132.5l-4.2-4.2c2.7-3,2.6-7.7-0.3-10.6
	c-3-3-7.9-3-11,0c-3,3-3,7.9,0,11c1.5,1.5,3.5,2.3,5.5,2.3c1.8,0,3.7-0.7,5.1-2l4.2,4.2c0.1,0.1,0.2,0.1,0.3,0.1
	c0.1,0,0.2,0,0.3-0.1C253.9-132.1,253.9-132.3,253.7-132.5z M238.9-137.1c-2.7-2.7-2.7-7,0-9.7c1.3-1.3,3.1-2,4.8-2s3.5,0.7,4.8,2
	c2.7,2.7,2.7,7,0,9.7C245.9-134.4,241.5-134.4,238.9-137.1z"/>
<path fill="#009966" stroke="#009966" stroke-width="0.75" stroke-miterlimit="10" d="M329.7-12.6l-2.1-2.1c1.4-1.5,1.3-3.9-0.2-5.4
	c-1.5-1.5-4-1.5-5.5,0c-1.5,1.5-1.5,4,0,5.5c0.8,0.8,1.8,1.1,2.8,1.1c0.9,0,1.9-0.3,2.6-1l2.1,2.1c0,0,0.1,0.1,0.2,0.1
	c0.1,0,0.1,0,0.2-0.1C329.8-12.4,329.8-12.5,329.7-12.6z M322.2-14.9c-1.3-1.3-1.3-3.5,0-4.9c0.7-0.7,1.6-1,2.4-1
	c0.9,0,1.8,0.3,2.4,1c1.3,1.3,1.3,3.5,0,4.9C325.8-13.6,323.6-13.6,322.2-14.9z"/>
<path fill="#009966" stroke="#009966" stroke-width="0.75" stroke-miterlimit="10" d="M124.8-149.9c-5,0-9.1,4.1-9.1,9.1
	c0,5,4.1,9.1,9.1,9.1c5,0,9.1-4.1,9.1-9.1C134-145.8,129.9-149.9,124.8-149.9z M124.8-132.4c-4.6,0-8.3-3.7-8.3-8.3
	c0-4.6,3.7-8.3,8.3-8.3c4.6,0,8.3,3.7,8.3,8.3C133.2-136.2,129.4-132.4,124.8-132.4z"/>
<path fill="#009966" stroke="#009966" stroke-miterlimit="10" d="M334.2-149.5v5c0,0.2-0.1,0.3-0.3,0.3s-0.3-0.1-0.3-0.3v-4.4
	l-8.6,8.6c-0.1,0.1-0.1,0.1-0.2,0.1c-0.1,0-0.1,0-0.2-0.1c-0.1-0.1-0.1-0.3,0-0.4l8.6-8.6h-4.4c-0.2,0-0.3-0.1-0.3-0.3
	c0-0.2,0.1-0.3,0.3-0.3h5C334.1-149.7,334.2-149.6,334.2-149.5z"/>
<path fill="#009966" stroke="#009966" stroke-width="0.75" stroke-miterlimit="10" d="M333.4-140.4c-0.2,0-0.3,0.1-0.3,0.3v5.1
	c0,1.7-1.3,3-3,3h-10.9c-1.7,0-3-1.3-3-3v-8.6v-2.2c0-1.7,1.3-3,3-3h5.1c0.2,0,0.3-0.1,0.3-0.3c0-0.2-0.1-0.3-0.3-0.3h-5.1
	c-2,0-3.6,1.6-3.6,3.6v2.2v8.6c0,2,1.6,3.6,3.6,3.6h10.9c2,0,3.6-1.6,3.6-3.6v-5.1C333.7-140.3,333.6-140.4,333.4-140.4z"/>
<path fill="#009966" stroke="#009966" stroke-width="0.5" stroke-miterlimit="10" d="M174.2-136.9v-7.9c0-0.2,0.1-1.8-0.5-2.5
	c-0.4-0.5-1.2-0.6-2-0.6h-0.4c-0.1,0-0.3,0-0.6,0v-0.7c0-0.2-0.2-0.4-0.4-0.4s-0.4,0.2-0.4,0.4v0.8c-2.5,0-8,0-10.5,0v-0.8
	c0-0.2-0.2-0.4-0.4-0.4s-0.2,0.2-0.2,0.4v0.8c-0.3,0-0.5,0-0.6,0H158c-0.9,0-1.7,0-2,0.6c-0.6,0.6-0.5,2.2-0.5,2.4v11.6
	c0,0.2,0.2,0.4,0.4,0.4h14.5c0.1,0,0.2,0,0.3-0.1l0,0l3.6-3.7l0,0l0,0l0,0c0,0,0,0,0-0.1S174.2-136.8,174.2-136.9z M156.4-146.9
	c0.2-0.3,0.9-0.3,1.6-0.3h0.4c0.1,0,0.3,0,0.6,0v0.5c0,0.2,0.2,0.4,0.4,0.4s0.3-0.2,0.3-0.4v-0.5c2.5,0,8,0,10.5,0v0.5
	c0,0.2,0.2,0.4,0.4,0.4s0.4-0.2,0.4-0.4v-0.5c0.3,0,0.5,0,0.6,0h0.4c0.7,0,1.3,0,1.6,0.3c0.1,0.3,0.1,1.1,0.1,1.7h-17.4
	C156.1-145.8,156.2-146.6,156.4-146.9z M156.1-144.4h17.4v7.2h-3.3c-0.2,0-0.4,0.2-0.4,0.4v3.4h-13.7V-144.4z M173.1-136.5l-2.4,2.5
	v-2.5H173.1z"/>
<g>
	<rect x="159.8" y="-142.5" fill="#009966" width="1.9" height="1.4"/>
	<rect x="162.6" y="-142.5" fill="#009966" width="1.9" height="1.4"/>
	<rect x="165.3" y="-142.5" fill="#009966" width="1.9" height="1.4"/>
	<rect x="167.9" y="-142.5" fill="#009966" width="1.9" height="1.4"/>
	<rect x="159.8" y="-140.3" fill="#009966" width="1.9" height="1.4"/>
	<rect x="162.6" y="-140.3" fill="#009966" width="1.9" height="1.4"/>
	<rect x="165.3" y="-140.3" fill="#009966" width="1.9" height="1.4"/>
	<rect x="167.9" y="-140.3" fill="#009966" width="1.9" height="1.4"/>
	<rect x="159.8" y="-138.1" fill="#009966" width="1.9" height="1.4"/>
	<rect x="162.6" y="-138.1" fill="#009966" width="1.9" height="1.4"/>
	<rect x="165.3" y="-138.1" fill="#009966" width="1.9" height="1.4"/>
	<rect x="167.9" y="-138.1" fill="#009966" width="1.9" height="1.4"/>
</g>
<g>
	<g>
		<path fill="#EF3C24" d="M205.4-149.6c-0.1-0.2-0.3-0.3-0.5-0.3c-0.2,0-0.4,0.1-0.5,0.3l-9.2,16c-0.1,0.2-0.1,0.4,0,0.6
			c0.1,0.2,0.3,0.3,0.5,0.3h18.5l0,0c0.3,0,0.6-0.3,0.6-0.6c0-0.1,0-0.3-0.1-0.4L205.4-149.6z M196.7-133.9l8.1-14.1l8.1,14.1H196.7
			z"/>
		<path fill="#EF3C24" d="M204.2-143.7v4.9c0,0.3,0.3,0.6,0.6,0.6c0.3,0,0.6-0.3,0.6-0.6v-4.9c0-0.3-0.3-0.6-0.6-0.6
			C204.5-144.3,204.2-144,204.2-143.7z"/>
		<path fill="#EF3C24" d="M204.8-137.3c-0.3,0-0.6,0.3-0.6,0.6v0.4c0,0.3,0.3,0.6,0.6,0.6c0.3,0,0.6-0.3,0.6-0.6v-0.4
			C205.5-137,205.2-137.3,204.8-137.3z"/>
	</g>
</g>
<g>
	<g>
		<path fill="#F26722" d="M125-189.5c-0.1-0.2-0.3-0.3-0.5-0.3s-0.4,0.1-0.5,0.3l-9.2,16c-0.1,0.2-0.1,0.4,0,0.6s0.3,0.3,0.5,0.3
			h18.5l0,0c0.3,0,0.6-0.3,0.6-0.6c0-0.1,0-0.3-0.1-0.4L125-189.5z M116.3-173.9l8.1-14.1l8.1,14.1H116.3z"/>
		<path fill="#F26722" d="M123.8-183.6v4.9c0,0.3,0.3,0.6,0.6,0.6c0.3,0,0.6-0.3,0.6-0.6v-4.9c0-0.3-0.3-0.6-0.6-0.6
			S123.8-183.9,123.8-183.6z"/>
		<path fill="#F26722" d="M124.4-177.2c-0.3,0-0.6,0.3-0.6,0.6v0.4c0,0.3,0.3,0.6,0.6,0.6s0.6-0.3,0.6-0.6v-0.4
			C125.1-176.9,124.8-177.2,124.4-177.2z"/>
	</g>
</g>
<polygon fill="#009966" points="120,-141 122.4,-141 122.4,-137.5 127.2,-137.5 127.2,-141 129.6,-141 124.8,-145.8 "/>
<path fill="#009966" stroke="#009966" stroke-width="0.75" stroke-miterlimit="10" d="M404.7-29.9c-5.1,0-9.2,4.1-9.2,9.2
	c0,5.1,4.1,9.2,9.2,9.2s9.2-4.1,9.2-9.2C413.9-25.7,409.7-29.9,404.7-29.9z M404.7-12.3c-4.6,0-8.4-3.8-8.4-8.4
	c0-4.6,3.8-8.4,8.4-8.4c4.6,0,8.4,3.8,8.4,8.4C413.1-16.1,409.3-12.3,404.7-12.3z"/>
<path fill="#009966" stroke="#009966" stroke-width="0.75" stroke-miterlimit="10" d="M484.8-29.9c-5.1,0-9.2,4.1-9.2,9.2
	c0,5.1,4.1,9.2,9.2,9.2s9.2-4.1,9.2-9.2C494-25.7,489.9-29.9,484.8-29.9z M484.8-12.3c-4.6,0-8.4-3.8-8.4-8.4c0-4.6,3.8-8.4,8.4-8.4
	s8.4,3.8,8.4,8.4C493.2-16.1,489.5-12.3,484.8-12.3z"/>
<path fill="#009966" stroke="#009966" stroke-width="0.75" stroke-miterlimit="10" d="M125.6-56.7l1.9-1.9c0,0,0-0.1,0-0.2
	c0,0-0.1,0-0.2,0l-1.9,1.9l-1.9-1.9c0,0-0.1,0-0.2,0c0,0,0,0.1,0,0.2l1.9,1.9l-1.9,1.9c0,0,0,0.1,0,0.2c0,0,0.1,0,0.1,0s0.1,0,0.1,0
	l1.9-1.9l1.9,1.9c0,0,0.1,0,0.1,0c0,0,0.1,0,0.1,0c0,0,0-0.1,0-0.2L125.6-56.7z"/>
<path fill="#009966" stroke="#009966" stroke-width="0.75" stroke-miterlimit="10" d="M125.5-61.5c-2.7,0-4.8,2.2-4.8,4.8
	c0,2.7,2.2,4.8,4.8,4.8s4.8-2.2,4.8-4.8C130.3-59.3,128.1-61.5,125.5-61.5z M125.5-52.3c-2.4,0-4.4-2-4.4-4.4c0-2.4,2-4.4,4.4-4.4
	c2.4,0,4.4,2,4.4,4.4C129.9-54.2,127.9-52.3,125.5-52.3z"/>
<rect x="164.4" y="-109.4" transform="matrix(-0.5425 -0.8401 0.8401 -0.5425 338.8969 -16.9436)" fill="#009966" stroke="#009966" stroke-width="0.75" stroke-miterlimit="10" width="0.8" height="17.2"/>
<path fill="#009966" stroke="#009966" stroke-width="0.75" stroke-miterlimit="10" d="M164.8-109.7c-4.8,0-8.8,3.9-8.8,8.8
	c0,4.8,3.9,8.8,8.8,8.8s8.8-3.9,8.8-8.8C173.5-105.8,169.6-109.7,164.8-109.7z M164.8-92.9c-4.4,0-8-3.6-8-8c0-4.4,3.6-8,8-8
	c4.4,0,8,3.6,8,8C172.7-96.5,169.2-92.9,164.8-92.9z"/>
<g>
	<path fill="#009966" stroke="#009966" stroke-width="0.75" stroke-miterlimit="10" d="M405-55.1c0.3,0,0.5-0.2,0.5-0.5v-7.1
		c0-0.3-0.2-0.5-0.5-0.5s-0.5,0.2-0.5,0.5v7.1C404.5-55.4,404.7-55.1,405-55.1z"/>
	<path fill="#009966" stroke="#009966" stroke-width="0.75" stroke-miterlimit="10" d="M404.9-64.6c0.3,0,0.5-0.2,0.5-0.5v-1
		c0-0.3-0.2-0.5-0.5-0.5s-0.5,0.2-0.5,0.5v1C404.4-64.8,404.7-64.6,404.9-64.6z"/>
</g>
<path fill="#009966" stroke="#009966" stroke-width="0.75" stroke-miterlimit="10" d="M405-69.7c-4.9,0-8.9,4-8.9,8.9
	c0,4.9,4,8.9,8.9,8.9s8.9-4,8.9-8.9C413.9-65.8,409.9-69.7,405-69.7z M405-52.7c-4.5,0-8.1-3.6-8.1-8.1c0-4.5,3.6-8.1,8.1-8.1
	s8.1,3.6,8.1,8.1C413.1-56.4,409.4-52.7,405-52.7z"/>
<path fill="#009966" stroke="#009966" stroke-width="0.75" stroke-miterlimit="10" d="M285-69.8c-5.2,0-9.4,4.2-9.4,9.4
	c0,5.2,4.2,9.4,9.4,9.4c5.2,0,9.4-4.2,9.4-9.4C294.3-65.6,290.1-69.8,285-69.8z M285-51.9c-4.7,0-8.5-3.8-8.5-8.5
	c0-4.7,3.8-8.5,8.5-8.5c4.7,0,8.5,3.8,8.5,8.5C293.5-55.7,289.7-51.9,285-51.9z"/>
<polygon fill="#009966" points="289.9,-60.9 287.4,-60.9 287.4,-64.5 282.5,-64.5 282.5,-60.9 280,-60.9 284.9,-56 "/>
<path fill="#009966" stroke="#009966" stroke-width="0.75" stroke-miterlimit="10" d="M124.8-109.5c-4.9,0-8.8,4-8.8,8.8
	c0,4.9,4,8.8,8.8,8.8s8.8-4,8.8-8.8C133.6-105.5,129.6-109.5,124.8-109.5z M124.8-92.6c-4.4,0-8-3.6-8-8c0-4.4,3.6-8,8-8s8,3.6,8,8
	C132.8-96.2,129.2-92.6,124.8-92.6z"/>
<polygon fill="#009966" points="129.4,-101.1 127.1,-101.1 127.1,-104.5 122.4,-104.5 122.4,-101.1 120.1,-101.1 124.8,-96.4 "/>
<path fill="#009966" stroke="#009966" stroke-width="0.75" stroke-miterlimit="10" d="M445.4-149.8c-5,0-9,4.1-9,9c0,5,4.1,9,9,9
	s9-4.1,9-9C454.4-145.8,450.4-149.8,445.4-149.8z M445.4-132.5c-4.5,0-8.2-3.7-8.2-8.2c0-4.5,3.7-8.2,8.2-8.2s8.2,3.7,8.2,8.2
	C453.6-136.2,449.9-132.5,445.4-132.5z"/>
<path fill="#009966" stroke="#009966" stroke-width="0.75" stroke-miterlimit="10" d="M249.8-104.4c-0.1-0.1-0.3-0.1-0.4,0l-6.8,6.8
	l-2.2-2.2c-0.1-0.1-0.3-0.1-0.4,0s-0.1,0.3,0,0.4l2.4,2.4c0.1,0.1,0.1,0.1,0.2,0.1s0.1,0,0.2-0.1l7-7
	C249.9-104.1,249.9-104.3,249.8-104.4z"/>
<path fill="#009966" stroke="#009966" stroke-width="0.75" stroke-miterlimit="10" d="M167.9-58.9c-0.1-0.1-0.2-0.1-0.2,0l-3.6,3.6
	l-1.2-1.2c-0.1-0.1-0.2-0.1-0.2,0s-0.1,0.2,0,0.2l1.3,1.3c0,0,0.1,0,0.1,0s0.1,0,0.1,0l3.8-3.8C168-58.7,168-58.8,167.9-58.9z"/>
<path fill="#009966" stroke="#009966" stroke-width="0.45" stroke-miterlimit="10" d="M244.9-110.1c-5.2,0-9.5,4.2-9.5,9.5
	c0,5.2,4.2,9.5,9.5,9.5s9.5-4.2,9.5-9.5C254.4-105.9,250.1-110.1,244.9-110.1z M244.9-92c-4.8,0-8.6-3.9-8.6-8.6
	c0-4.8,3.9-8.6,8.6-8.6s8.6,3.9,8.6,8.6C253.6-95.9,249.7-92,244.9-92z"/>
<g>
	<path fill="#009966" stroke="#009966" stroke-width="0.75" stroke-miterlimit="10" d="M448.4-63.9c0.1-0.1,0.1-0.3,0-0.4
		c-0.1-0.1-0.3-0.1-0.4,0l-4.4,4.4l0.4,0.4L448.4-63.9z"/>
	<path fill="#009966" stroke="#009966" stroke-width="0.75" stroke-miterlimit="10" d="M441.2-57.5l-2.1-2.1c-0.1-0.1-0.3-0.1-0.4,0
		c-0.1,0.1-0.1,0.3,0,0.4l2.3,2.3c0.1,0.1,0.1,0.1,0.2,0.1c0.1,0,0.1,0,0.2-0.1l0.2-0.2L441.2-57.5L441.2-57.5z"/>
	<path fill="#009966" stroke="#009966" stroke-width="0.75" stroke-miterlimit="10" d="M441.7-59.9c-0.1-0.1-0.3-0.1-0.4,0
		c-0.1,0.1-0.1,0.3,0,0.4l0.9,0.9l0.4-0.4L441.7-59.9z"/>
	<path fill="#009966" stroke="#009966" stroke-width="0.75" stroke-miterlimit="10" d="M451.1-64.5c-0.1-0.1-0.3-0.1-0.4,0l-6.8,6.8
		l-0.8-0.8l-0.4,0.4l1,1c0.1,0.1,0.1,0.1,0.2,0.1c0.1,0,0.1,0,0.2-0.1l7-7C451.2-64.2,451.2-64.4,451.1-64.5z"/>
	
		<rect x="442.4" y="-58.8" transform="matrix(0.7074 -0.7068 0.7068 0.7074 170.9138 295.7714)" fill="#009966" stroke="#009966" stroke-width="0.75" stroke-miterlimit="10" width="0.6" height="0.6"/>
</g>
<path fill="#009966" stroke="#009966" stroke-width="0.75" stroke-miterlimit="10" d="M444.9-70.1c-5.2,0-9.4,4.2-9.4,9.4
	c0,5.2,4.2,9.4,9.4,9.4s9.4-4.2,9.4-9.4C454.3-65.9,450.1-70.1,444.9-70.1z M444.9-52.1c-4.7,0-8.6-3.8-8.6-8.6
	c0-4.7,3.8-8.6,8.6-8.6c4.7,0,8.6,3.8,8.6,8.6C453.5-56,449.6-52.1,444.9-52.1z"/>
<circle fill="#009966" cx="325" cy="-60.5" r="5.2"/>
<path fill="#009966" stroke="#009966" stroke-width="0.75" stroke-miterlimit="10" d="M325-69.5c-4.9,0-9,4-9,9c0,4.9,4,9,9,9
	c4.9,0,9-4,9-9C334-65.4,330-69.5,325-69.5z M325-52.3c-4.5,0-8.2-3.7-8.2-8.2c0-4.5,3.7-8.2,8.2-8.2c4.5,0,8.2,3.7,8.2,8.2
	C333.2-56,329.5-52.3,325-52.3z"/>
<circle fill="#009966" cx="404.7" cy="-140.9" r="5.2"/>
<path fill="#009966" stroke="#009966" stroke-width="0.75" stroke-miterlimit="10" d="M404.7-149.9c-5,0-9.1,4.1-9.1,9.1
	c0,5,4.1,9.1,9.1,9.1c5,0,9.1-4.1,9.1-9.1C413.8-145.9,409.7-149.9,404.7-149.9z M404.7-132.6c-4.6,0-8.3-3.7-8.3-8.3
	c0-4.6,3.7-8.3,8.3-8.3s8.3,3.7,8.3,8.3C413-136.3,409.2-132.6,404.7-132.6z"/>
<g>
	<path fill="#009966" d="M409.5-106.1v3.5h1v-3.9c0-0.2-0.1-0.3-0.2-0.4l-3.3-2.9c-0.1-0.1-0.3-0.1-0.4-0.1h-9.4
		c-0.3,0-0.6,0.3-0.6,0.6v17.4c0,0.3,0.3,0.6,0.6,0.6h12.7c0.3,0,0.6-0.3,0.6-0.6v-4.6h-1v4.2h-11.9V-109h8.8v2.9H409.5z"/>
	<g>
		<path fill="#009966" d="M405.3-100.3c-0.1,0-0.2,0-0.4,0h-0.2v0.7h0.3c0.2,0,0.3,0,0.4,0c0.1,0,0.1-0.1,0.2-0.1
			c0-0.1,0.1-0.1,0.1-0.2c0-0.1,0-0.2-0.1-0.2C405.5-100.3,405.4-100.3,405.3-100.3z"/>
		<path fill="#009966" d="M407.9-100.2c-0.1-0.1-0.1-0.1-0.2-0.1c-0.1,0-0.2,0-0.4,0H407v1.6h0.4c0.1,0,0.2,0,0.3,0
			c0.1,0,0.1-0.1,0.2-0.1c0.1,0,0.1-0.1,0.1-0.2c0-0.1,0-0.3,0-0.4s0-0.3,0-0.4C408-100.1,407.9-100.1,407.9-100.2z"/>
		<path fill="#009966" d="M411.3-101.9h-7.9c-0.4,0-0.7,0.3-0.7,0.7v3.4c0,0.4,0.3,0.7,0.7,0.7h7.9c0.4,0,0.7-0.3,0.7-0.7v-3.4
			C412-101.6,411.7-101.9,411.3-101.9z M406-99.6c-0.1,0.1-0.1,0.2-0.2,0.2c-0.1,0.1-0.2,0.1-0.3,0.1c-0.1,0-0.3,0-0.5,0h-0.3v0.9
			h-0.5v-2.4h0.8c0.3,0,0.5,0,0.6,0c0.1,0,0.3,0.1,0.3,0.2c0.1,0.1,0.1,0.3,0.1,0.5C406.1-99.9,406.1-99.7,406-99.6z M408.5-99
			c-0.1,0.2-0.1,0.3-0.3,0.4c-0.1,0.1-0.2,0.1-0.3,0.2c-0.1,0-0.3,0.1-0.4,0.1h-0.9v-2.4h0.9c0.2,0,0.4,0,0.5,0
			c0.1,0,0.3,0.1,0.4,0.2c0.1,0.1,0.2,0.2,0.2,0.4c0.1,0.2,0.1,0.3,0.1,0.6C408.6-99.3,408.5-99.1,408.5-99z M410.5-100.3h-1.2v0.6
			h1v0.4h-1v1h-0.5v-2.4h1.7V-100.3z"/>
	</g>
</g>
<path fill="#009966" stroke="#009966" stroke-width="0.5" stroke-miterlimit="10" d="M453.9-105.6c-0.1-0.1-0.4-0.1-0.5,0l-9.1,9.1
	l-2.9-2.9c-0.1-0.1-0.4-0.1-0.5,0c-0.1,0.1-0.1,0.4,0,0.5l3.1,3.1c0.1,0.1,0.2,0.1,0.3,0.1c0.1,0,0.2,0,0.3-0.1l9.4-9.4
	C454-105.2,454-105.4,453.9-105.6z"/>
<path fill="#009966" d="M448.1-106.2v3.5h1v-3.8c0-0.2-0.1-0.3-0.2-0.4l-3.2-2.9c-0.1-0.1-0.3-0.1-0.4-0.1H436
	c-0.3,0-0.6,0.3-0.6,0.6v17.2c0,0.3,0.3,0.6,0.6,0.6h12.5c0.3,0,0.6-0.3,0.6-0.6v-4.5h-1v4.2h-11.8v-16.5h8.7v2.9H448.1z"/>
<rect x="279.7" y="-101.8" fill="#009966" width="9.1" height="0.8"/>
<rect x="279.7" y="-99.5" fill="#009966" width="9.1" height="0.8"/>
<rect x="279.7" y="-104.1" fill="#009966" width="5.3" height="0.8"/>
<rect x="279.7" y="-97.3" fill="#009966" width="9.1" height="0.8"/>
<path fill="#009966" d="M290.3-106.5v10.3h1v-10.7c0-0.2-0.1-0.3-0.2-0.5l-3.4-3.1c-0.1-0.1-0.3-0.2-0.4-0.2h-9.8
	c-0.4,0-0.6,0.3-0.6,0.6v18.3c0,0.4,0.3,0.6,0.6,0.6h13.3c0.4,0,0.6-0.3,0.6-0.6v-4.8h-1v4.4h-12.5v-17.5h9.2v3H290.3z"/>
<g>
	<path fill="#009966" d="M197.4-69.9v16.3h1.1v-15.1h6.9v5.1h5.1v10h1.1v-10.9l-5.4-5.4H197.4z M206.5-64.8v-3.1l3.1,3.1H206.5z"/>
	<polygon fill="#009966" points="202.3,-54.4 202.3,-51.6 206.6,-51.6 206.6,-54.4 209.3,-54.4 204.5,-58.3 199.6,-54.4 	"/>
</g>
<g>
	<path fill="#009966" d="M476.7-110.7v17.9h1.3v-16.6h7.5v5.6h5.6v11h1.3v-11.9l-6-6H476.7z M486.8-105.2v-3.4l3.4,3.4H486.8z"/>
	<polygon fill="#009966" points="486.9,-95 486.9,-98 482.2,-98 482.2,-95 479.2,-95 484.5,-90.7 489.9,-95 	"/>
</g>
<path fill="#009966" d="M512.7-110.7v17.9h1.3v-16.6h7.5v5.6h5.6v11h1.3v-11.9l-6-6H512.7z M522.7-105.2v-3.4l3.4,3.4H522.7z"/>
<path fill="#009966" d="M117.8-70v17.5h1.2v-16.3h7.4v5.5h5.5v10.8h1.2v-11.7l-5.8-5.8H117.8z M127.7-64.5v-3.4l3.4,3.4H127.7z"/>
<path fill="#009966" stroke="#009966" stroke-width="0.75" stroke-miterlimit="10" d="M165.4-61.6c-2.6,0-4.6,2.1-4.6,4.6
	c0,2.6,2.1,4.6,4.6,4.6s4.6-2.1,4.6-4.6C170-59.5,168-61.6,165.4-61.6z M165.4-52.7c-2.3,0-4.2-1.9-4.2-4.2c0-2.3,1.9-4.2,4.2-4.2
	s4.2,1.9,4.2,4.2C169.6-54.6,167.7-52.7,165.4-52.7z"/>
<path fill="#009966" d="M158-70v17.1h1.2v-15.9h7.2v5.3h5.3v10.6h1.2v-11.4l-5.7-5.7H158z M167.6-64.6v-3.3l3.3,3.3H167.6z"/>
<path fill="#009966" stroke="#009966" stroke-width="0.75" stroke-miterlimit="10" d="M96-62.5c-2.6,0-4.6,2.1-4.6,4.6
	c0,2.6,2.1,4.6,4.6,4.6c2.6,0,4.6-2.1,4.6-4.6C100.6-60.4,98.5-62.5,96-62.5z M96-53.6c-2.3,0-4.2-1.9-4.2-4.2
	c0-2.3,1.9-4.2,4.2-4.2c2.3,0,4.2,1.9,4.2,4.2C100.2-55.5,98.3-53.6,96-53.6z"/>
<path fill="#009966" d="M88.6-70.9v17.1h1.2v-15.9H97v5.3h5.3v10.6h1.2v-11.4l-5.7-5.7H88.6z M98.2-65.5v-3.3l3.3,3.3H98.2z"/>
<g>
	<path fill="#009966" d="M276.8-30.2v17.4h1.2V-29h7.3v5.4h5.4v10.7h1.2v-11.6l-5.8-5.8H276.8z M286.5-24.8v-3.3l3.3,3.3H286.5z"/>
</g>
<path fill="#009966" d="M317.5-30.4v17.6h1.2v-16.4h7.4v5.5h5.5v10.9h1.2v-11.7l-5.9-5.9H317.5z M327.4-24.9v-3.4l3.4,3.4H327.4z"/>
<path fill="#009966" stroke="#009966" stroke-width="0.75" stroke-miterlimit="10" d="M100.1-12.6L98-14.8c1.4-1.5,1.3-3.9-0.2-5.4
	c-1.5-1.5-4-1.5-5.5,0c-1.5,1.5-1.5,4,0,5.5c0.8,0.8,1.8,1.1,2.8,1.1c0.9,0,1.9-0.3,2.6-1l2.1,2.1c0,0,0.1,0.1,0.2,0.1
	c0.1,0,0.1,0,0.2-0.1C100.2-12.4,100.2-12.5,100.1-12.6z M92.6-14.9c-1.3-1.3-1.3-3.5,0-4.9c0.7-0.7,1.6-1,2.4-1s1.8,0.3,2.4,1
	c1.3,1.3,1.3,3.5,0,4.9C96.1-13.6,94-13.6,92.6-14.9z"/>
<path fill="#009966" d="M87.9-30.4v17.6h1.2v-16.4h7.4v5.5h5.5v10.9h1.2v-11.7l-5.9-5.9H87.9z M97.7-24.9v-3.4l3.4,3.4H97.7z"/>
<path fill="#009966" stroke="#009966" stroke-width="0.75" stroke-miterlimit="10" d="M43.5-12.6l-2.1-2.1c1.4-1.5,1.3-3.9-0.2-5.4
	c-1.5-1.5-4-1.5-5.5,0c-1.5,1.5-1.5,4,0,5.5c0.8,0.8,1.8,1.1,2.8,1.1c0.9,0,1.9-0.3,2.6-1l2.1,2.1c0,0,0.1,0.1,0.2,0.1
	c0.1,0,0.1,0,0.2-0.1C43.5-12.4,43.5-12.5,43.5-12.6z M36-14.9c-1.3-1.3-1.3-3.5,0-4.9c0.7-0.7,1.6-1,2.4-1c0.9,0,1.8,0.3,2.4,1
	c1.3,1.3,1.3,3.5,0,4.9C39.5-13.6,37.3-13.6,36-14.9z"/>
<path fill="#009966" d="M31.2-30.4v17.6h1.2v-16.4h7.4v5.5h5.5v10.9h1.2v-11.7l-5.9-5.9H31.2z M41.1-24.9v-3.4l3.4,3.4H41.1z"/>
<path fill="#009966" d="M357-30.3v17.6h1.2V-29h7.4v5.5h5.5v10.8h1.2v-11.7l-5.8-5.8H357z M366.8-24.8v-3.4l3.4,3.4H366.8z"/>
<path fill="#009966" stroke="#009966" stroke-width="0.75" stroke-miterlimit="10" d="M364.7-18.7c-2.8,0-4.9,3.3-4.9,3.3
	s2.2,3.2,4.9,3.2c2.8,0,4.9-3.3,4.9-3.3S367.4-18.7,364.7-18.7z M364.7-12.8c-2.4,0-4.2-2.8-4.2-2.8s1.9-2.8,4.2-2.8
	s4.2,2.8,4.2,2.8S367-12.8,364.7-12.8z"/>
<path fill="none" stroke="#009966" stroke-width="0.5" stroke-miterlimit="10" d="M364.7-17c-0.8,0-1.6,0.6-1.6,1.6
	c0,0.8,0.6,1.6,1.6,1.6c0.8,0,1.6-0.6,1.6-1.6C366.2-16.3,365.5-17,364.7-17z M364.7-14.3c-0.6,0-1.1-0.5-1.1-1.1
	c0-0.5,0.5-1.2,1.1-1.2s1.1,0.5,1.1,1.1S365.3-14.3,364.7-14.3z"/>
<g>
	<g>
		<g>
			<g>
				<polygon fill="#009966" points="123.3,14.8 119.2,10.7 115.2,14.8 117.8,14.8 117.8,29.3 120.7,29.3 120.7,14.8 				"/>
				<rect x="123.7" y="10.7" fill="#009966" width="8.7" height="2.8"/>
				<rect x="122.8" y="15.8" fill="#009966" width="9.5" height="2.8"/>
				<rect x="122.8" y="21.3" fill="#009966" width="9.5" height="2.8"/>
				<rect x="122.8" y="26.4" fill="#009966" width="9.6" height="2.8"/>
			</g>
		</g>
	</g>
</g>
<g>
	<g>
		<g>
			<g>
				<polygon fill="#009966" points="155.8,24.2 159.6,28 163.3,24.2 160.9,24.2 160.9,11 158.2,11 158.2,24.2 				"/>
				<rect x="162.8" y="25.4" fill="#009966" width="8.9" height="2.6"/>
				<rect x="162.8" y="20.7" fill="#009966" width="9.7" height="2.6"/>
				<rect x="162.8" y="15.7" fill="#009966" width="9.7" height="2.6"/>
				<rect x="162.8" y="11" fill="#009966" width="9.8" height="2.6"/>
			</g>
		</g>
	</g>
</g>
<path fill="#009966" d="M436.3-20.9H449l-2.7-2.7c-0.2-0.2-0.2-0.6,0-0.8c0.2-0.2,0.6-0.2,0.8,0l3.6,3.6c0.2,0.2,0.2,0.6,0,0.8
	l-3.6,3.6c-0.1,0.1-0.2,0.2-0.4,0.2s-0.3-0.1-0.4-0.2c-0.2-0.2-0.2-0.6,0-0.8l2.7-2.7h-12.7c-0.3,0-0.5-0.2-0.5-0.5
	C435.8-20.7,436-20.9,436.3-20.9z M450.7-29.8h-11c-2.1,0-3.9,1.7-3.9,3.9v2.3c0,0.3,0.2,0.5,0.5,0.5s0.5-0.2,0.5-0.5v-2.3
	c0-1.5,1.3-2.8,2.8-2.8h11c1.5,0,2.8,1.3,2.8,2.8v11c0,1.5-1.3,2.8-2.8,2.8h-11c-1.5,0-2.8-1.3-2.8-2.8v-2.3c0-0.3-0.2-0.5-0.5-0.5
	s-0.5,0.2-0.5,0.5v2.3c0,2.1,1.7,3.9,3.9,3.9h11c2.1,0,3.9-1.7,3.9-3.9v-11C454.6-28.1,452.9-29.8,450.7-29.8z"/>
<path fill="#009966" d="M445.2-20.4"/>
<path fill="#009966" d="M445.2-20.4"/>
<polyline fill="none" stroke="#009966" stroke-width="0.95" stroke-miterlimit="10" points="239.6,19.4 241.1,21.4 243.6,18.1 "/>
<path fill="none" stroke="#009966" stroke-width="0.95" stroke-miterlimit="10" d="M249.8,23.7h-10.2c-2.1,0-3.8-1.7-3.8-3.8l0,0
	c0-2.1,1.7-3.8,3.8-3.8h10.2c2.1,0,3.8,1.7,3.8,3.8l0,0C253.6,21.9,251.9,23.7,249.8,23.7z"/>
<circle fill="none" stroke="#009966" stroke-width="0.95" stroke-miterlimit="10" cx="249.6" cy="19.9" r="2.5"/>
<path fill="none" stroke="#009966" stroke-width="0.95" stroke-miterlimit="10" d="M290,23.7h-10.2c-2.1,0-3.8-1.7-3.8-3.8l0,0
	c0-2.1,1.7-3.8,3.8-3.8H290c2.1,0,3.8,1.7,3.8,3.8l0,0C293.8,21.9,292.1,23.7,290,23.7z"/>
<circle fill="none" stroke="#009966" stroke-width="0.95" stroke-miterlimit="10" cx="280.6" cy="19.9" r="2.5"/>
<g>
	<path fill="#009966" d="M331.2,17.9c-0.3,0-0.5,0-0.8-0.1c-0.2,0-0.3-0.2-0.2-0.4c0-0.2,0.2-0.3,0.4-0.2c1.3,0.3,2.6-0.3,3.2-1.5
		c0.3-0.7,0.4-1.5,0.2-2.2c-0.2-0.7-0.8-1.3-1.4-1.7c-0.7-0.3-1.5-0.4-2.2-0.2c-0.7,0.2-1.3,0.8-1.7,1.4c-0.1,0.1-0.3,0.2-0.4,0.1
		c-0.1-0.1-0.2-0.3-0.1-0.4c0.4-0.8,1.1-1.4,2-1.7c0.9-0.3,1.8-0.2,2.7,0.2c0.8,0.4,1.4,1.1,1.7,2c0.3,0.9,0.2,1.8-0.2,2.7
		C333.7,17.1,332.5,17.9,331.2,17.9z M331.2,12.8v3.1 M329.6,14.3h3.1 M331.5,15.9v-1.3h1.2c0.2,0,0.3-0.1,0.3-0.3
		c0-0.2-0.1-0.3-0.3-0.3h-1.2v-1.3c0-0.2-0.1-0.3-0.3-0.3s-0.3,0.1-0.3,0.3V14h-1.3c-0.2,0-0.3,0.1-0.3,0.3c0,0.2,0.1,0.3,0.3,0.3
		h1.3v1.3c0,0.2,0.1,0.3,0.3,0.3S331.5,16.1,331.5,15.9z"/>
	<g>
		<path fill="#009966" d="M323.1,27.5c-2.5,0-4.8-1.6-6.1-4.2c-0.4,0-0.9-0.3-1.2-0.9c-0.5-0.9-0.8-2.4-0.4-3.1
			c0.2-0.3,0.4-0.4,0.7-0.4c0,0,0,0,0,0c0.1-2,0.8-3.9,2-5.3c1.3-1.5,3-2.4,4.9-2.4c1.8,0,3.6,0.8,4.9,2.4c1.2,1.4,1.9,3.3,2,5.3
			c0,0,0,0,0,0c0.2,0,0.9,0.1,0.9,1.4c0,1.3-0.7,3-1.7,3.1C327.9,25.9,325.6,27.5,323.1,27.5z M317.2,22.7c0.1,0,0.2,0.1,0.3,0.2
			c1.1,2.5,3.2,4,5.6,4c2.3,0,4.5-1.5,5.6-4c0.1-0.1,0.2-0.2,0.3-0.2c0,0,0,0,0.1,0l0,0c0.6,0,1.2-1.4,1.2-2.5
			c0-0.5-0.1-0.8-0.3-0.8c0,0-0.1,0-0.2,0c-0.1,0-0.2,0-0.3,0c-0.1-0.1-0.1-0.1-0.1-0.2c0-4.1-2.9-7.5-6.3-7.5
			c-3.4,0-6.3,3.3-6.3,7.5c0,0.1-0.1,0.2-0.1,0.2c-0.1,0.1-0.2,0.1-0.3,0c-0.1,0-0.1,0-0.2,0c0,0-0.1,0-0.1,0.1
			c-0.3,0.4-0.1,1.7,0.4,2.5c0.1,0.2,0.4,0.6,0.7,0.6C317.1,22.7,317.1,22.7,317.2,22.7C317.2,22.7,317.2,22.7,317.2,22.7z"/>
	</g>
	<g>
		<path fill="#009966" d="M329.6,19.2c-1.8-0.4-3.6-2.6-4.6-4.4c-0.9,0.8-1.8,1.6-2.8,2.2c-2.5,1.7-5.7,2.2-5.7,2.2s0.2-2.5,1.8-4.6
			c0.7-0.9,1.6-1.8,2.7-2.3c1.6-0.8,3.8-0.6,5.3,0.4c0.4,0.3,0.8,0.6,1.1,1c0.6,0.8,1.1,1.8,1.4,2.7c0.3,0.8,0.5,1.6,0.7,2.4
			C329.6,18.9,329.6,19,329.6,19.2z"/>
		<path fill="#009966" d="M329.6,19.5c-1.7-0.4-3.6-2.5-4.7-4.3c-0.7,0.7-1.6,1.3-2.6,2c-2.5,1.7-5.7,2.3-5.8,2.3
			c-0.1,0-0.3-0.2-0.2-0.3c0-0.1,0,0.1,0,0c0-0.1,0.2-2.5,1.8-4.8c0.8-1,1.8-1.9,2.8-2.4c0.7-0.3,1.5-0.5,2.4-0.5
			c1.1,0,2.2,0.3,3.1,0.9c0.4,0.2,0.8,0.6,1.2,1.1c0.6,0.8,1.1,1.8,1.5,2.8c0.3,0.7,0.5,1.5,0.7,2.5c0,0.2,0.1,0.3,0.1,0.5
			c0,0,0,0,0,0.1C329.9,19.3,329.8,19.5,329.6,19.5"/>
	</g>
</g>
<path fill="#009966" d="M251.1-181.7c-0.3,0-0.5,0-0.8-0.1c-0.2,0-0.3-0.2-0.2-0.4c0-0.2,0.2-0.3,0.4-0.2c1.3,0.3,2.6-0.3,3.2-1.5
	c0.3-0.7,0.4-1.5,0.2-2.2c-0.2-0.7-0.8-1.3-1.5-1.7c-0.7-0.3-1.5-0.4-2.2-0.2c-0.7,0.2-1.3,0.8-1.7,1.5c-0.1,0.1-0.3,0.2-0.4,0.1
	c-0.1-0.1-0.2-0.3-0.1-0.4c0.4-0.8,1.1-1.5,2-1.8c0.9-0.3,1.8-0.2,2.7,0.2c0.8,0.4,1.5,1.1,1.8,2c0.3,0.9,0.2,1.8-0.2,2.7
	C253.7-182.4,252.4-181.7,251.1-181.7z"/>
<g>
	<path fill="#009966" d="M242.9-172c-2.6,0-4.9-1.6-6.1-4.2c-0.5,0-0.9-0.3-1.2-0.9c-0.5-0.9-0.8-2.4-0.4-3.2
		c0.2-0.3,0.4-0.4,0.7-0.4c0,0,0,0,0,0c0.1-2,0.8-3.9,2.1-5.4c1.3-1.5,3.1-2.4,4.9-2.4c1.9,0,3.6,0.9,4.9,2.4c1.2,1.4,2,3.3,2.1,5.4
		c0,0,0,0,0,0c0.2,0,0.9,0.1,0.9,1.4c0,1.3-0.7,3-1.8,3.1C247.8-173.6,245.5-172,242.9-172z M237-176.8c0.1,0,0.2,0.1,0.3,0.2
		c1.1,2.5,3.3,4.1,5.7,4.1c2.4,0,4.5-1.6,5.7-4.1c0.1-0.1,0.2-0.2,0.3-0.2c0,0,0,0,0.1,0l0,0c0.6,0,1.2-1.4,1.2-2.5
		c0-0.5-0.1-0.8-0.3-0.8c0,0-0.1,0-0.2,0c-0.1,0-0.2,0-0.3,0c-0.1-0.1-0.1-0.1-0.1-0.3c0-4.2-2.9-7.5-6.4-7.5
		c-3.5,0-6.3,3.4-6.4,7.5c0,0.1-0.1,0.2-0.1,0.3c-0.1,0.1-0.2,0.1-0.3,0c-0.1,0-0.1,0-0.2,0c0,0-0.1,0-0.2,0.1
		c-0.3,0.4-0.1,1.7,0.4,2.6c0.1,0.2,0.4,0.6,0.7,0.6C236.9-176.8,236.9-176.8,237-176.8C237-176.8,237-176.8,237-176.8z"/>
</g>
<g>
	<path fill="#009966" d="M249.6-180.3c-1.8-0.4-3.7-2.6-4.7-4.5c-0.9,0.8-1.9,1.6-2.9,2.3c-2.5,1.7-5.7,2.2-5.7,2.2s0.2-2.5,1.8-4.7
		c0.7-0.9,1.7-1.8,2.7-2.4c1.6-0.8,3.8-0.6,5.3,0.4c0.4,0.3,0.9,0.6,1.2,1c0.6,0.8,1.1,1.8,1.4,2.7c0.3,0.8,0.5,1.6,0.7,2.5
		C249.5-180.6,249.5-180.5,249.6-180.3z"/>
	<path fill="#009966" d="M249.6-180c-1.8-0.4-3.7-2.5-4.7-4.4c-0.8,0.7-1.6,1.4-2.7,2.1c-2.5,1.7-5.8,2.3-5.9,2.3
		c-0.1,0-0.3-0.2-0.3-0.3c0-0.1,0,0.1,0,0c0-0.1,0.2-2.6,1.9-4.8c0.8-1.1,1.8-1.9,2.8-2.4c0.7-0.3,1.6-0.5,2.4-0.5
		c1.2,0,2.3,0.3,3.1,0.9c0.4,0.2,0.9,0.6,1.2,1.1c0.7,0.8,1.1,1.8,1.5,2.8c0.3,0.7,0.5,1.5,0.8,2.5c0,0.2,0.1,0.3,0.1,0.5
		c0,0,0,0.1,0,0.1C249.8-180.2,249.7-180,249.6-180"/>
</g>
<path fill="#009966" d="M491.7,19.6c-0.2,0-0.5,0-0.7-0.1c-0.2,0-0.2-0.2-0.2-0.3c0-0.2,0.2-0.2,0.3-0.2c1.2,0.3,2.4-0.3,3-1.4
	c0.3-0.6,0.4-1.4,0.1-2.1c-0.2-0.7-0.7-1.2-1.3-1.6c-0.6-0.3-1.4-0.4-2.1-0.1c-0.7,0.2-1.2,0.7-1.6,1.3c-0.1,0.1-0.2,0.2-0.4,0.1
	c-0.1-0.1-0.2-0.2-0.1-0.4c0.4-0.8,1.1-1.4,1.9-1.6c0.8-0.3,1.7-0.2,2.5,0.2c0.8,0.4,1.4,1.1,1.6,1.9c0.3,0.8,0.2,1.7-0.2,2.5
	C494,18.9,492.9,19.6,491.7,19.6z"/>
<g>
	<g>
		<path fill="#009966" d="M484.1,28.6c-2.4,0-4.5-1.5-5.6-3.9c-0.4,0-0.8-0.3-1.1-0.8c-0.5-0.8-0.7-2.3-0.3-2.9
			c0.1-0.2,0.4-0.4,0.6-0.4c0,0,0,0,0,0c0.1-1.9,0.8-3.6,1.9-5c1.2-1.4,2.8-2.2,4.6-2.2c1.7,0,3.3,0.8,4.6,2.2
			c1.1,1.3,1.8,3.1,1.9,5c0,0,0,0,0,0c0.2,0,0.8,0.1,0.8,1.3c0,1.2-0.6,2.8-1.6,2.9C488.6,27.1,486.5,28.6,484.1,28.6z M478.6,24.1
			c0.1,0,0.2,0.1,0.3,0.2c1,2.3,3,3.8,5.2,3.8c2.2,0,4.2-1.4,5.2-3.8c0.1-0.1,0.2-0.2,0.3-0.2c0,0,0,0,0.1,0l0,0
			c0.6,0,1.1-1.3,1.1-2.3c0-0.4-0.1-0.7-0.3-0.7c0,0-0.1,0-0.2,0c-0.1,0-0.2,0-0.3,0c-0.1-0.1-0.1-0.1-0.1-0.2c0-3.8-2.7-7-5.9-7
			c-3.2,0-5.9,3.1-5.9,7c0,0.1,0,0.2-0.1,0.2c-0.1,0.1-0.2,0.1-0.3,0c-0.1,0-0.1,0-0.2,0c0,0-0.1,0-0.1,0.1
			c-0.2,0.4-0.1,1.6,0.3,2.4c0.1,0.2,0.4,0.6,0.7,0.6C478.5,24.1,478.6,24.1,478.6,24.1C478.6,24.1,478.6,24.1,478.6,24.1z"/>
	</g>
</g>
<g>
	<g>
		<path fill="#009966" d="M490.2,20.9c-1.7-0.3-3.4-2.4-4.3-4.1c-0.8,0.8-1.7,1.4-2.6,2.1c-2.3,1.6-5.3,2-5.3,2s0.2-2.3,1.7-4.3
			c0.6-0.9,1.5-1.7,2.5-2.2c1.5-0.7,3.5-0.6,4.9,0.3c0.4,0.2,0.8,0.6,1.1,0.9c0.6,0.7,1,1.7,1.3,2.5c0.3,0.7,0.5,1.5,0.7,2.3
			C490.2,20.6,490.2,20.7,490.2,20.9z"/>
		<path fill="#009966" d="M490.2,21.1c-1.6-0.3-2.8-1.4-3.8-3.2c-0.7,2.1-4.8,2.9-5.7,2.4c-2.3,1.6-2.7,0.7-2.8,0.7
			c-0.1,0-0.2-0.2-0.2-0.3c0-0.1,0,0.1,0,0c0-0.1,0.2-2.4,1.7-4.4c0.7-1,1.6-1.8,2.6-2.2c0.7-0.3,1.4-0.5,2.2-0.5
			c1.1,0,2.1,0.3,2.9,0.8c0.3,0.2,0.8,0.6,1.1,1c0.6,0.8,1,1.7,1.4,2.6c0.3,0.7,0.5,1.4,0.7,2.3c0,0.2,0.1,0.3,0.1,0.4
			c0,0,0,0,0,0.1C490.5,21,490.4,21.1,490.2,21.1"/>
	</g>
</g>
<g>
	<g>
		<path fill="#009966" d="M478.8,21c-1.3,0-2.4-0.8-3-2.1c-0.2,0-0.4-0.2-0.6-0.4c-0.3-0.4-0.4-1.2-0.2-1.6c0.1-0.1,0.2-0.2,0.3-0.2
			c0,0,0,0,0,0c0-1,0.4-1.9,1-2.6c0.6-0.8,1.5-1.2,2.4-1.2c0.9,0,1.8,0.4,2.4,1.2c0.6,0.7,1,1.6,1,2.6c0,0,0,0,0,0
			c0.1,0,0.4,0,0.4,0.7c0,0.6-0.3,1.5-0.9,1.5C481.2,20.2,480.1,21,478.8,21z M475.9,18.6c0.1,0,0.1,0,0.1,0.1c0.5,1.2,1.6,2,2.8,2
			c1.2,0,2.2-0.8,2.8-2c0-0.1,0.1-0.1,0.2-0.1c0,0,0,0,0,0l0,0c0.3,0,0.6-0.7,0.6-1.2c0-0.2-0.1-0.4-0.1-0.4c0,0-0.1,0-0.1,0
			c0,0-0.1,0-0.1,0c0,0-0.1-0.1-0.1-0.1c0-2-1.4-3.7-3.1-3.7c-1.7,0-3.1,1.7-3.1,3.7c0,0,0,0.1-0.1,0.1c0,0-0.1,0-0.1,0
			c0,0-0.1,0-0.1,0c0,0,0,0-0.1,0.1c-0.1,0.2-0.1,0.8,0.2,1.3C475.5,18.4,475.7,18.6,475.9,18.6C475.9,18.6,475.9,18.6,475.9,18.6
			C475.9,18.6,475.9,18.6,475.9,18.6z"/>
	</g>
	<g>
		<path fill="#009966" d="M482.1,16.9c-0.9-0.2-1.8-1.3-2.3-2.2c-0.4,0.4-0.9,0.8-1.4,1.1c-1.2,0.8-2.8,1.1-2.8,1.1s0.1-1.2,0.9-2.3
			c0.3-0.5,0.8-0.9,1.3-1.2c0.8-0.4,1.9-0.3,2.6,0.2c0.2,0.1,0.4,0.3,0.6,0.5c0.3,0.4,0.5,0.9,0.7,1.3c0.2,0.4,0.3,0.8,0.4,1.2
			C482,16.7,482.1,16.8,482.1,16.9z"/>
		<path fill="#009966" d="M482.1,17c-0.9-0.2-1.5-0.8-2-1.7c-0.4,1.1-2.5,1.5-3,1.3c-1.2,0.8-1.4,0.4-1.5,0.4c0,0-0.1-0.1-0.1-0.2
			c0,0,0,0,0,0c0-0.1,0.1-1.3,0.9-2.4c0.4-0.5,0.9-1,1.4-1.2c0.4-0.2,0.8-0.3,1.2-0.3c0.6,0,1.1,0.2,1.5,0.4
			c0.2,0.1,0.4,0.3,0.6,0.5c0.3,0.4,0.5,0.9,0.7,1.4c0.1,0.4,0.3,0.7,0.4,1.2c0,0.1,0,0.2,0,0.2c0,0,0,0,0,0
			C482.2,16.9,482.1,17,482.1,17"/>
	</g>
</g>
<g>
	<g>
		<path fill="#009966" d="M482.1,16.5c-0.9,0-1.8-0.6-2.2-1.6c-0.2,0-0.3-0.1-0.4-0.3c-0.2-0.3-0.3-0.9-0.1-1.2
			c0.1-0.1,0.1-0.2,0.2-0.2c0,0,0,0,0,0c0-0.7,0.3-1.4,0.8-2c0.5-0.6,1.1-0.9,1.8-0.9c0.7,0,1.3,0.3,1.8,0.9c0.5,0.5,0.7,1.2,0.8,2
			c0,0,0,0,0,0c0.1,0,0.3,0,0.3,0.5c0,0.5-0.2,1.1-0.6,1.1C483.9,15.9,483,16.5,482.1,16.5z M479.9,14.7c0,0,0.1,0,0.1,0.1
			c0.4,0.9,1.2,1.5,2.1,1.5c0.9,0,1.7-0.6,2.1-1.5c0,0,0.1-0.1,0.1-0.1c0,0,0,0,0,0l0,0c0.2,0,0.4-0.5,0.4-0.9c0-0.2,0-0.3-0.1-0.3
			c0,0,0,0-0.1,0c0,0-0.1,0-0.1,0c0,0-0.1-0.1-0.1-0.1c0-1.5-1.1-2.8-2.3-2.8c-1.3,0-2.3,1.2-2.3,2.8c0,0,0,0.1-0.1,0.1
			c0,0-0.1,0-0.1,0c0,0,0,0-0.1,0c0,0,0,0-0.1,0c-0.1,0.2-0.1,0.6,0.1,0.9C479.7,14.6,479.8,14.7,479.9,14.7
			C479.9,14.7,479.9,14.7,479.9,14.7C479.9,14.7,479.9,14.7,479.9,14.7z"/>
	</g>
	<g>
		<path fill="#009966" d="M484.5,13.4c-0.7-0.1-1.4-1-1.7-1.6c-0.3,0.3-0.7,0.6-1.1,0.8c-0.9,0.6-2.1,0.8-2.1,0.8s0.1-0.9,0.7-1.7
			c0.3-0.3,0.6-0.7,1-0.9c0.6-0.3,1.4-0.2,2,0.1c0.1,0.1,0.3,0.2,0.4,0.4c0.2,0.3,0.4,0.7,0.5,1c0.1,0.3,0.2,0.6,0.3,0.9
			C484.5,13.3,484.5,13.3,484.5,13.4z"/>
		<path fill="#009966" d="M484.5,13.5c-0.6-0.1-1.1-0.6-1.5-1.3c-0.3,0.8-1.9,1.1-2.3,1c-0.9,0.6-1.1,0.3-1.1,0.3
			c0,0-0.1-0.1-0.1-0.1c0,0,0,0,0,0c0,0,0.1-0.9,0.7-1.8c0.3-0.4,0.7-0.7,1-0.9c0.3-0.1,0.6-0.2,0.9-0.2c0.4,0,0.8,0.1,1.2,0.3
			c0.1,0.1,0.3,0.2,0.4,0.4c0.2,0.3,0.4,0.7,0.5,1c0.1,0.3,0.2,0.6,0.3,0.9c0,0.1,0,0.1,0,0.2c0,0,0,0,0,0
			C484.6,13.4,484.6,13.5,484.5,13.5"/>
	</g>
</g>
<g>
	<g>
		<path fill="#009966" d="M371.1,17.9c-0.3,0-0.5,0-0.8-0.1c-0.2,0-0.3-0.2-0.2-0.4c0-0.2,0.2-0.3,0.4-0.2c1.3,0.3,2.6-0.3,3.2-1.5
			c0.3-0.7,0.4-1.5,0.2-2.2c-0.2-0.7-0.8-1.3-1.4-1.7c-0.7-0.3-1.5-0.4-2.2-0.2c-0.7,0.2-1.3,0.8-1.7,1.4c-0.1,0.1-0.3,0.2-0.4,0.1
			c-0.1-0.1-0.2-0.3-0.1-0.4c0.4-0.8,1.1-1.4,2-1.7c0.9-0.3,1.8-0.2,2.7,0.2c0.8,0.4,1.4,1.1,1.7,2c0.3,0.9,0.2,1.8-0.2,2.7
			C373.6,17.1,372.4,17.9,371.1,17.9z"/>
		<g>
			<path fill="#009966" d="M362.9,27.5c-2.5,0-4.8-1.6-6.1-4.2c-0.4,0-0.9-0.3-1.2-0.9c-0.5-0.9-0.8-2.4-0.4-3.1
				c0.2-0.3,0.4-0.4,0.7-0.4c0,0,0,0,0,0c0.1-2,0.8-3.9,2-5.3c1.3-1.5,3-2.4,4.9-2.4c1.8,0,3.6,0.8,4.9,2.4c1.2,1.4,1.9,3.3,2,5.3
				c0,0,0,0,0,0c0.2,0,0.9,0.1,0.9,1.4c0,1.3-0.7,3-1.7,3.1C367.8,25.9,365.5,27.5,362.9,27.5z M357.1,22.7c0.1,0,0.2,0.1,0.3,0.2
				c1.1,2.5,3.2,4,5.6,4c2.3,0,4.5-1.5,5.6-4c0.1-0.1,0.2-0.2,0.3-0.2c0,0,0,0,0.1,0l0,0c0.6,0,1.2-1.4,1.2-2.5
				c0-0.5-0.1-0.8-0.3-0.8c0,0-0.1,0-0.2,0c-0.1,0-0.2,0-0.3,0c-0.1-0.1-0.1-0.1-0.1-0.2c0-4.1-2.9-7.5-6.3-7.5
				c-3.4,0-6.3,3.3-6.3,7.5c0,0.1-0.1,0.2-0.1,0.2c-0.1,0.1-0.2,0.1-0.3,0c-0.1,0-0.1,0-0.2,0c0,0-0.1,0-0.1,0.1
				c-0.3,0.4-0.1,1.7,0.4,2.5c0.1,0.2,0.4,0.6,0.7,0.6C357,22.7,357,22.7,357.1,22.7C357,22.7,357,22.7,357.1,22.7z"/>
		</g>
		<g>
			<path fill="#009966" d="M369.5,19.2c-1.8-0.4-3.6-2.6-4.6-4.4c-0.9,0.8-1.8,1.6-2.8,2.2c-2.5,1.7-5.7,2.2-5.7,2.2
				s0.2-2.5,1.8-4.6c0.7-0.9,1.6-1.8,2.7-2.3c1.6-0.8,3.8-0.6,5.3,0.4c0.4,0.3,0.8,0.6,1.1,1c0.6,0.8,1.1,1.8,1.4,2.7
				c0.3,0.8,0.5,1.6,0.7,2.4C369.4,18.9,369.5,19,369.5,19.2z"/>
			<path fill="#009966" d="M369.5,19.5c-1.7-0.4-3.6-2.5-4.7-4.3c-0.7,0.7-1.6,1.3-2.6,2c-2.5,1.7-5.7,2.3-5.8,2.3
				c-0.1,0-0.3-0.2-0.2-0.3c0-0.1,0,0.1,0,0c0-0.1,0.2-2.5,1.8-4.8c0.8-1,1.8-1.9,2.8-2.4c0.7-0.3,1.5-0.5,2.4-0.5
				c1.1,0,2.2,0.3,3.1,0.9c0.4,0.2,0.8,0.6,1.2,1.1c0.6,0.8,1.1,1.8,1.5,2.8c0.3,0.7,0.5,1.5,0.7,2.5c0,0.2,0.1,0.3,0.1,0.5
				c0,0,0,0,0,0.1C369.7,19.3,369.6,19.5,369.5,19.5"/>
		</g>
	</g>
</g>
<path fill="#009966" stroke="#009966" stroke-width="0.5" stroke-miterlimit="10" d="M371.3,14.3l1.2-1.2c0,0,0-0.1,0-0.1
	c0,0-0.1,0-0.1,0L371.3,14.3l-1.3-1.3c0,0-0.1,0-0.1,0c0,0,0,0.1,0,0.1l1.2,1.2l-1.2,1.2c0,0,0,0.1,0,0.1c0,0,0,0,0,0s0,0,0,0
	L371.3,14.3l1.1,1.3c0,0,0,0,0,0c0,0,0,0,0,0c0,0,0-0.1,0-0.1L371.3,14.3z"/>
<g>
	<g>
		<path fill="#009966" stroke="#009966" stroke-width="0.15" stroke-miterlimit="10" d="M413.1,12l-1.4-1.4c-0.4-0.4-1.1-0.4-1.5,0
			l-7.8,7.7l-1.6,4.5l4.5-1.6l7.8-7.7C413.5,13,413.5,12.4,413.1,12z M402.3,20.6l0.7-1.8l1.8,1.8l-1.8,0.6L402.3,20.6z M403.7,19
			l6.1-6.1l0.4,0.4l-6.1,6.1L403.7,19z M403.5,18.8l-0.3-0.4l6.1-6.1l0.3,0.4L403.5,18.8z M404.2,19.5l6.1-6.1l0.4,0.4l-6.1,6.1
			L404.2,19.5z M409.6,12.1l0.2-0.2l2,2l-0.2,0.2L409.6,12.1z M405.1,20.5l-0.3-0.4l6.1-6.1l0.3,0.4L405.1,20.5z M412.7,13l-0.6,0.6
			l-2-2l0.6-0.6c0.2-0.2,0.4-0.2,0.6,0l1.4,1.4C412.9,12.6,412.9,12.8,412.7,13z"/>
	</g>
</g>
<circle fill="#009966" cx="444.8" cy="19.3" r="9.1"/>
<path fill="#FFFFFF" stroke="#FFFFFF" stroke-miterlimit="10" d="M445.5,19.2l3.9-3.9c0.1-0.1,0.1-0.2,0-0.3c-0.1-0.1-0.2-0.1-0.3,0
	l-3.9,3.9l-3.9-3.9c-0.1-0.1-0.2-0.1-0.3,0c-0.1,0.1-0.1,0.2,0,0.3l3.9,3.9l-3.9,3.9c-0.1,0.1-0.1,0.2,0,0.3c0,0,0.1,0.1,0.2,0.1
	c0.1,0,0.1,0,0.2-0.1l3.9-3.9l3.9,3.9c0,0,0.1,0.1,0.2,0.1s0.1,0,0.2-0.1c0.1-0.1,0.1-0.2,0-0.3L445.5,19.2z"/>
<g>
	<polygon fill="#009966" points="489.9,15.8 491.3,14.9 491.3,14.7 489.4,15.8 491.3,16.8 491.3,16.6 	"/>
	<path fill="#009966" d="M492,15.4l0-0.6l-1.7,1l1.7,1l0-0.6c1.8,0,2,1.3,2,1.3C494,15.8,492.5,15.5,492,15.4z"/>
</g>
<path fill="#009966" stroke="#009966" stroke-width="0.95" stroke-miterlimit="10" d="M485.1-26c-1.7,0-3.3,0.7-4.3,2v-1.6
	c0-0.1-0.1-0.2-0.2-0.2s-0.2,0.1-0.2,0.2v2.1c0,0,0,0,0,0c0,0,0,0,0,0c0,0,0,0,0,0c0,0,0,0,0,0c0,0,0,0,0,0c0,0,0,0,0,0c0,0,0,0,0,0
	c0,0,0,0,0,0c0,0,0,0,0,0c0,0,0,0,0,0h2.1c0.1,0,0.2-0.1,0.2-0.2s-0.1-0.2-0.2-0.2H481c1-1.2,2.5-2,4.1-2c2.9,0,5.3,2.4,5.3,5.3
	s-2.4,5.3-5.3,5.3c-1.1,0-2.2-0.3-3.1-1c-0.1-0.1-0.2,0-0.3,0c-0.1,0.1,0,0.2,0,0.3c1,0.7,2.1,1,3.3,1c3.2,0,5.7-2.6,5.7-5.7
	S488.3-26,485.1-26z"/>
<path fill="#009966" d="M490.9-181.8c-0.3,0-0.5,0-0.8-0.1c-0.2,0-0.3-0.2-0.2-0.4c0-0.2,0.2-0.3,0.4-0.2c1.3,0.3,2.6-0.3,3.2-1.5
	c0.3-0.7,0.4-1.5,0.2-2.2c-0.2-0.7-0.8-1.3-1.4-1.7c-0.7-0.3-1.5-0.4-2.2-0.2c-0.7,0.2-1.3,0.8-1.7,1.4c-0.1,0.1-0.3,0.2-0.4,0.1
	c-0.1-0.1-0.2-0.3-0.1-0.4c0.4-0.8,1.1-1.4,2-1.7c0.9-0.3,1.8-0.2,2.7,0.2c0.8,0.4,1.4,1.1,1.7,2c0.3,0.9,0.2,1.8-0.2,2.7
	C493.4-182.5,492.2-181.8,490.9-181.8z"/>
<g>
	<path fill="#009966" d="M482.8-172.1c-2.5,0-4.8-1.6-6.1-4.2c-0.4,0-0.9-0.3-1.2-0.9c-0.5-0.9-0.8-2.4-0.4-3.1
		c0.2-0.3,0.4-0.4,0.7-0.4c0,0,0,0,0,0c0.1-2,0.8-3.9,2-5.3c1.3-1.5,3-2.4,4.9-2.4c1.8,0,3.6,0.8,4.9,2.4c1.2,1.4,1.9,3.3,2,5.3
		c0,0,0,0,0,0c0.2,0,0.9,0.1,0.9,1.4c0,1.3-0.7,3-1.7,3.1C487.6-173.8,485.3-172.1,482.8-172.1z M476.9-176.9c0.1,0,0.2,0.1,0.3,0.2
		c1.1,2.5,3.2,4,5.6,4c2.3,0,4.5-1.5,5.6-4c0.1-0.1,0.2-0.2,0.3-0.2c0,0,0,0,0.1,0l0,0c0.6,0,1.2-1.4,1.2-2.5c0-0.5-0.1-0.8-0.3-0.8
		c0,0-0.1,0-0.2,0c-0.1,0-0.2,0-0.3,0c-0.1-0.1-0.1-0.1-0.1-0.2c0-4.1-2.9-7.5-6.3-7.5c-3.4,0-6.3,3.3-6.3,7.5
		c0,0.1-0.1,0.2-0.1,0.2c-0.1,0.1-0.2,0.1-0.3,0c-0.1,0-0.1,0-0.2,0c0,0-0.1,0-0.1,0.1c-0.3,0.4-0.1,1.7,0.4,2.5
		c0.1,0.2,0.4,0.6,0.7,0.6C476.8-176.9,476.9-176.9,476.9-176.9C476.9-176.9,476.9-176.9,476.9-176.9z"/>
</g>
<g>
	<path fill="#009966" d="M489.4-180.4c-1.8-0.4-3.6-2.6-4.6-4.4c-0.9,0.8-1.8,1.6-2.8,2.2c-2.5,1.7-5.7,2.2-5.7,2.2s0.2-2.5,1.8-4.6
		c0.7-0.9,1.6-1.8,2.7-2.3c1.6-0.8,3.8-0.6,5.3,0.4c0.4,0.3,0.8,0.6,1.1,1c0.6,0.8,1.1,1.8,1.4,2.7c0.3,0.8,0.5,1.6,0.7,2.4
		C489.3-180.7,489.3-180.6,489.4-180.4z"/>
	<path fill="#009966" d="M489.4-180.1c-1.7-0.4-3.6-2.5-4.7-4.3c-0.7,0.7-1.6,1.3-2.6,2c-2.5,1.7-5.7,2.3-5.8,2.3
		c-0.1,0-0.3-0.2-0.2-0.3c0-0.1,0,0.1,0,0c0-0.1,0.2-2.5,1.8-4.8c0.8-1,1.8-1.9,2.8-2.4c0.7-0.3,1.5-0.5,2.4-0.5
		c1.1,0,2.2,0.3,3.1,0.9c0.4,0.2,0.8,0.6,1.2,1.1c0.6,0.8,1.1,1.8,1.5,2.8c0.3,0.7,0.5,1.5,0.7,2.5c0,0.2,0.1,0.3,0.1,0.5
		c0,0,0,0,0,0.1C489.6-180.3,489.5-180.1,489.4-180.1"/>
</g>
<rect x="490.9" y="-187.2" transform="matrix(0.5406 0.8413 -0.8413 0.5406 69.6882 -498.1504)" fill="none" stroke="#009966" stroke-width="0.5" stroke-miterlimit="10" width="0.2" height="3.9"/>
<path fill="none" stroke="#009966" stroke-width="0.5" stroke-miterlimit="10" d="M491-187.3c-1.1,0-2,0.9-2,2l0,0c0,1.1,0.9,2,2,2
	c1.1,0,2-0.9,2-2l0,0C493-186.4,492.1-187.3,491-187.3L491-187.3L491-187.3z"/>
<path fill="#009966" d="M405-187.9c-0.1,0-0.1,0-0.2,0.1l-7.2,11.5c-0.1,0.2,0,0.3,0.2,0.3h14.4c0.2,0,0.3-0.1,0.2-0.3l-7.2-11.5
	C405.2-187.9,405.1-187.9,405-187.9L405-187.9z"/>
<path fill="#009966" stroke="#009966" stroke-width="0.5" stroke-miterlimit="10" d="M355.9-188.1v14.4c0,0.9,0.6,1.6,1.4,1.6h15.5
	c0.8,0,1.4-0.7,1.4-1.6v-14.4c0-0.9-0.6-1.6-1.4-1.6h-15.5C356.5-189.7,355.9-189,355.9-188.1z M356.6-188.1c0-0.4,0.3-0.7,0.6-0.7
	h15.5c0.3,0,0.6,0.3,0.6,0.7v14.4c0,0.4-0.3,0.7-0.6,0.7h-15.5c-0.3,0-0.6-0.3-0.6-0.7V-188.1z"/>
<path fill="#009966" stroke="#009966" stroke-miterlimit="10" d="M364.9-184.9c-0.1-0.1-0.2-0.1-0.3,0c-0.1,0.1-0.1,0.2,0,0.3
	l3.9,3.9l-3.9,3.9c-0.1,0.1-0.1,0.2,0,0.3c0.1,0.1,0.2,0.1,0.3,0l4-4c0,0,0.1-0.1,0.1-0.2s0-0.1-0.1-0.2L364.9-184.9z"/>
<path fill="#009966" stroke="#009966" stroke-miterlimit="10" d="M362-184.7c-0.1-0.1-0.2-0.1-0.3,0c-0.1,0.1-0.1,0.2,0,0.3l3.9,3.9
	l-3.9,3.9c-0.1,0.1-0.1,0.2,0,0.3c0.1,0.1,0.2,0.1,0.3,0l4-4c0,0,0.1-0.1,0.1-0.2s0-0.1-0.1-0.2L362-184.7z"/>
<path fill="#009966" stroke="#009966" stroke-width="0.5" stroke-miterlimit="10" d="M315.8-188.1v14.4c0,0.9,0.6,1.6,1.4,1.6h15.5
	c0.8,0,1.4-0.7,1.4-1.6v-14.4c0-0.9-0.6-1.6-1.4-1.6h-15.5C316.4-189.7,315.8-189,315.8-188.1z M316.5-188.1c0-0.4,0.3-0.7,0.6-0.7
	h15.5c0.3,0,0.6,0.3,0.6,0.7v14.4c0,0.4-0.3,0.7-0.6,0.7h-15.5c-0.3,0-0.6-0.3-0.6-0.7V-188.1z"/>
<g>
	<path fill="#009966" stroke="#009966" stroke-miterlimit="10" d="M325.5-184.9c0.1-0.1,0.2-0.1,0.3,0c0.1,0.1,0.1,0.2,0,0.3
		l-3.9,3.9l3.9,3.9c0.1,0.1,0.1,0.2,0,0.3c-0.1,0.1-0.2,0.1-0.3,0l-4-4c0,0-0.1-0.1-0.1-0.2s0-0.1,0.1-0.2L325.5-184.9z"/>
	<path fill="#009966" stroke="#009966" stroke-miterlimit="10" d="M328.5-184.7c0.1-0.1,0.2-0.1,0.3,0c0.1,0.1,0.1,0.2,0,0.3
		l-3.9,3.9l3.9,3.9c0.1,0.1,0.1,0.2,0,0.3c-0.1,0.1-0.2,0.1-0.3,0l-4-4c0,0-0.1-0.1-0.1-0.2s0-0.1,0.1-0.2L328.5-184.7z"/>
</g>
<path fill="#009966" d="M449.7-181.2l-2.8,0.9l1.8,2.4c0.5,0.6,0.3,1.5-0.3,1.9c-0.3,0.2-0.5,0.3-0.8,0.3c-0.4,0-0.9-0.2-1.1-0.6
	l-1.8-2.4l-1.8,2.4c-0.3,0.4-0.7,0.6-1.1,0.6c-0.3,0-0.6-0.1-0.8-0.3c-0.6-0.5-0.8-1.3-0.3-1.9l1.8-2.4l-2.9-0.9
	c-0.7-0.2-1.1-1-0.9-1.8c0.2-0.7,1-1.1,1.8-0.9l2.9,0.9v-3c0-0.8,0.6-1.4,1.4-1.4c0.8,0,1.4,0.6,1.4,1.4v3l2.9-0.9
	c0.7-0.2,1.5,0.2,1.8,0.9C450.9-182.3,450.5-181.5,449.7-181.2z"/>
<path fill="#009966" stroke="#009966" stroke-width="0.5" stroke-miterlimit="10" d="M290.9-182c1.5-1.6,1.5-4.1-0.1-5.7
	c-0.8-0.8-1.8-1.2-2.9-1.2c-1.1,0-2.1,0.4-2.9,1.2l-3.4,3.4c-0.2,0.2-0.2,0.5,0,0.7c0.1,0.1,0.2,0.1,0.3,0.1s0.2,0,0.3-0.1l3.4-3.4
	c1.2-1.2,3.2-1.2,4.3,0c1.2,1.2,1.2,3.2,0,4.3l-8.5,8.5c-0.8,0.8-2.1,0.8-2.9,0c-0.8-0.8-0.8-2.1,0-2.9l6.9-6.9l0,0
	c0.4-0.4,1-0.4,1.4,0c0.2,0.2,0.3,0.4,0.3,0.7c0,0.3-0.1,0.5-0.3,0.7l-6,6c-0.2,0.2-0.2,0.5,0,0.7c0.1,0.1,0.2,0.1,0.3,0.1
	s0.2,0,0.3-0.1l6-6c0.4-0.4,0.6-0.9,0.6-1.4c0-0.5-0.2-1-0.6-1.4c-0.7-0.7-1.9-0.8-2.7-0.1c0,0,0,0,0,0l-7,7c-1.2,1.2-1.2,3.1,0,4.2
	c0.6,0.6,1.4,0.9,2.1,0.9c0.8,0,1.5-0.3,2.1-0.9L290.9-182L290.9-182L290.9-182L290.9-182C290.9-182,290.9-182,290.9-182z"/>
<title>interface_004-information-detail-window-application</title>
<desc>Created with Sketch.</desc>
<path fill="#009966" stroke="#009966" stroke-width="0.5" stroke-miterlimit="10" d="M174.7-171.2L174.7-171.2l0-13.6
	c-0.3,0.2-0.5,0.5-0.8,0.7l0,12.1h-18.1v-13.4h11.1c0.3-0.4,0.7-0.8,1-1.2c0.3-0.4,0.8-0.2,0.9,0.2c0.1,0,0.1,0.1,0.2,0.1
	c0,0,0,0,0,0c1.4,0,2.7,0,4.1,0c0,0,0-0.1,0.1-0.1c-0.1-0.1-0.1-0.3,0-0.5c0.1-0.3,0.3-0.5,0.4-0.8c-0.3,0-0.6-0.1-0.6-0.5
	c0-0.1-0.1-0.4,0-0.5c0,0-0.1,0.4-0.1,0.4c-0.1,0-0.2-0.2-0.3-0.2c-0.1,0-0.1-0.1-0.3,0c-0.2,0.1-0.4,0.3-0.5,0.4c0,0,0,0,0,0
	c0,0-0.1,0.1-0.1,0.1c-0.2,0.1-0.4,0.1-0.5,0c-0.1,0.1-0.2,0.2-0.3,0.4c-0.5,0.5-1.2-0.2-0.7-0.7c0.3-0.3,0.6-0.7,0.9-1H155v18.1
	h19.2l0,0C174.4-171.2,174.5-171.2,174.7-171.2L174.7-171.2L174.7-171.2z"/>
<rect x="155.8" y="-188.5" fill="#FFFFFF" width="18.1" height="2.4"/>
<rect x="156.6" y="-187.7" fill="#009966" stroke="#009966" stroke-width="0.5" stroke-miterlimit="10" width="0.8" height="0.8"/>
<rect x="158.2" y="-187.7" fill="#009966" stroke="#009966" stroke-width="0.5" stroke-miterlimit="10" width="0.8" height="0.8"/>
<rect x="159.7" y="-187.7" fill="#009966" stroke="#009966" stroke-width="0.5" stroke-miterlimit="10" width="0.8" height="0.8"/>
<path fill="#009966" stroke="#009966" stroke-width="0.5" stroke-miterlimit="10" d="M214.7-171.2L214.7-171.2l0-13.6
	c-0.3,0.2-0.5,0.5-0.8,0.7l0,12.1h-18.1v-13.4h11.1c0.3-0.4,0.7-0.8,1-1.2c0.3-0.4,0.8-0.2,0.9,0.2c0.1,0,0.1,0.1,0.2,0.1
	c0,0,0,0,0,0c1.4,0,2.7,0,4.1,0c0,0,0-0.1,0.1-0.1c-0.1-0.1-0.1-0.3,0-0.5c0.1-0.3,0.3-0.5,0.4-0.8c-0.3,0-0.6-0.1-0.6-0.5
	c0-0.1-0.1-0.4,0-0.5c0,0-0.1,0.4-0.1,0.4c-0.1,0-0.2-0.2-0.3-0.2c-0.1,0-0.1-0.1-0.3,0c-0.2,0.1-0.4,0.3-0.5,0.4c0,0,0,0,0,0
	c0,0-0.1,0.1-0.1,0.1c-0.2,0.1-0.4,0.1-0.5,0c-0.1,0.1-0.2,0.2-0.3,0.4c-0.5,0.5-1.2-0.2-0.7-0.7c0.3-0.3,0.6-0.7,0.9-1H195v18.1
	h19.2l0,0C214.4-171.2,214.5-171.2,214.7-171.2L214.7-171.2L214.7-171.2z"/>
<rect x="195.8" y="-188.5" fill="#FFFFFF" width="18.1" height="2.4"/>
<rect x="198.2" y="-187.7" fill="#009966" stroke="#009966" stroke-width="0.5" stroke-miterlimit="10" width="0.8" height="0.8"/>
<rect x="196.6" y="-187.7" fill="#009966" stroke="#009966" stroke-width="0.5" stroke-miterlimit="10" width="0.8" height="0.8"/>
<rect x="199.7" y="-187.7" fill="#009966" stroke="#009966" stroke-width="0.5" stroke-miterlimit="10" width="0.8" height="0.8"/>
<g>
	<path fill="#009966" d="M253-187.1c0.2,0.2,0.2,0.5,0,0.7l-0.2,0.2l-0.7-0.7l0.2-0.2C252.5-187.2,252.8-187.2,253-187.1z"/>
	<polygon fill="#009966" points="249.6,-184.4 249.4,-183.5 250.3,-183.7 252.5,-185.9 251.8,-186.6 	"/>
</g>
<rect x="168.4" y="-186.9" fill="#FFFFFF" width="5" height="1.6"/>
<g>
	<path fill="#009966" stroke="#009966" stroke-width="0.15" stroke-miterlimit="10" d="M174.4-187.4l-1.4-1.3
		c-0.4-0.4-1.1-0.3-1.4,0.1l-7.2,8.1l-1.4,4.5l4.3-1.8l7.2-8.1C174.8-186.4,174.8-187,174.4-187.4z M164.1-178.2l0.5-1.8l1.9,1.7
		l-1.7,0.7L164.1-178.2z M165.4-179.9l5.7-6.4l0.4,0.4l-5.7,6.4L165.4-179.9z M165.2-180l-0.4-0.3l5.7-6.4l0.4,0.3L165.2-180z
		 M166-179.4l5.7-6.4l0.4,0.4l-5.7,6.4L166-179.4z M170.9-187.1l0.2-0.2l2.1,1.9l-0.2,0.2L170.9-187.1z M166.9-178.5l-0.4-0.3
		l5.7-6.4l0.4,0.3L166.9-178.5z M174-186.4l-0.6,0.6l-2.1-1.9l0.6-0.6c0.1-0.2,0.4-0.2,0.6,0l1.4,1.3
		C174.1-186.8,174.1-186.5,174-186.4z"/>
</g>
<path fill="#FFFFFF" d="M212.2-189.2c0,0-0.8,0.9-0.9,1c-0.1,0-2.5,1.2-2.5,1.2s-0.7-0.1-0.7,0.1s0.3,3.6,0.3,3.6l1.3,2.2
	c0,0,2.1-2.1,2.2-2.2c0.1-0.1,2.8-2.2,2.8-2.2l-1.7-2.6L212.2-189.2z"/>
<g>
	<path fill="#009966" stroke="#009966" stroke-width="0.15" stroke-miterlimit="10" d="M214.2-188.3c0.6,0.6,0.6,1.5,0,2.1l-0.7,0.7
		l-2.1-2.1l0.7-0.7C212.7-188.9,213.6-188.9,214.2-188.3z"/>
	<polygon fill="#009966" stroke="#009966" stroke-width="0.15" stroke-miterlimit="10" points="203.8,-180 203.1,-177.2 
		205.9,-177.9 212.8,-184.9 210.7,-186.9 	"/>
</g>
<path fill="#009966" stroke="#009966" stroke-width="0.75" stroke-miterlimit="10" d="M97.7-58h-1.6v-1.6c0-0.1-0.1-0.2-0.2-0.2
	c-0.1,0-0.2,0.1-0.2,0.2v1.6h-1.6c-0.1,0-0.2,0.1-0.2,0.2s0.1,0.2,0.2,0.2h1.6v1.6c0,0.1,0.1,0.2,0.2,0.2c0.1,0,0.2-0.1,0.2-0.2
	v-1.6h1.6c0.1,0,0.2-0.1,0.2-0.2S97.8-58,97.7-58z"/>
<path fill="#009966" stroke="#009966" stroke-width="0.75" stroke-miterlimit="10" d="M65.9-27.6c-2.6,0-4.6,2.1-4.6,4.6
	c0,2.6,2.1,4.6,4.6,4.6s4.6-2.1,4.6-4.6C70.5-25.5,68.4-27.6,65.9-27.6z M65.9-18.7c-2.3,0-4.2-1.9-4.2-4.2c0-2.3,1.9-4.2,4.2-4.2
	c2.3,0,4.2,1.9,4.2,4.2C70.1-20.6,68.2-18.7,65.9-18.7z"/>
<path fill="#009966" stroke="#009966" stroke-width="0.75" stroke-miterlimit="10" d="M67.5-23.1H66v-1.6c0-0.1-0.1-0.2-0.2-0.2
	c-0.1,0-0.2,0.1-0.2,0.2v1.6H64c-0.1,0-0.2,0.1-0.2,0.2c0,0.1,0.1,0.2,0.2,0.2h1.6v1.6c0,0.1,0.1,0.2,0.2,0.2c0.1,0,0.2-0.1,0.2-0.2
	v-1.6h1.6c0.1,0,0.2-0.1,0.2-0.2C67.7-23.1,67.7-23.1,67.5-23.1z"/>
<rect x="519.5" y="-98.9" fill="#009966" width="6" height="8.1"/>
<polygon fill="#009966" points="523.4,-100.8 517.5,-100.8 517.5,-92.6 518.8,-92.6 518.8,-99.5 523.4,-99.5 "/>
<polygon fill="#009966" points="521.4,-102.8 515.5,-102.8 515.5,-94.7 516.8,-94.7 516.8,-101.5 521.4,-101.5 "/>
<g>
</g>
<g>
</g>
<g>
</g>
<g>
</g>
<g>
</g>
<g>
</g>
<g>
</g>
<g>
</g>
<g>
</g>
<g>
</g>
<g>
</g>
<g>
</g>
<g>
</g>
<g>
</g>
<g>
</g>
<g>
</g>
<g>
</g>
<g>
</g>
<g>
</g>
<g>
</g>
<g>
</g>
<g>
</g>
<g>
</g>
<g>
</g>
<g>
</g>
<g>
</g>
<g>
</g>
<g>
</g>
<g>
</g>
<g>
</g>
<g>
	<g>
		<path fill="#009966" d="M67.1-71.2c-5.2,0-9.3,4.2-9.3,9.3s4.2,9.3,9.3,9.3h9.3v-9.3C76.4-67,72.3-71.2,67.1-71.2z M67.1-54.2
			c-4.2,0-7.6-3.4-7.6-7.6s3.4-7.6,7.6-7.6s7.6,3.4,7.6,7.6S71.3-54.2,67.1-54.2z"/>
	</g>
	<path fill="#009966" d="M70.9-62.6h-3.1v-3.1c0-0.4-0.3-0.7-0.7-0.7c-0.4,0-0.7,0.3-0.7,0.7v3.1h-3.1c-0.4,0-0.7,0.3-0.7,0.7
		s0.3,0.7,0.7,0.7h3.1v3.1c0,0.4,0.3,0.7,0.7,0.7c0.4,0,0.7-0.3,0.7-0.7v-3.1h3.1c0.4,0,0.7-0.3,0.7-0.7
		C71.6-62.2,71.3-62.6,70.9-62.6z"/>
</g>
<path fill="#009966" d="M74.3-28.3v-2.9h-2.9v-1.4h-1.6v1.4h-8.2v-1.4H60v1.4h-2.9v15.7H60v2.9h17.1v-15.7H74.3z M58.5-16.8v-13H60
	v1.5h1.6v-1.5h8.2v1.5h1.6v-1.5h1.5v13H58.5z M75.9-13.9H61.7v-1.6h12.6V-27h1.6V-13.9z"/>
<path fill="#009966" d="M73.8,2.5h-4.3C69.5,1.1,68.4,0,67,0c-1.4,0-2.5,1.1-2.5,2.5h-4.4v3h13.6V2.5z M67,3.7
	c-0.7,0-1.2-0.6-1.2-1.2c0-0.7,0.6-1.2,1.2-1.2c0.7,0,1.2,0.6,1.2,1.2C68.3,3.2,67.7,3.7,67,3.7z"/>
<g>
	<path fill="#009966" d="M74.7,2.5v3.7H59.4V2.5h-1.1v17.4h17.4V2.5H74.7z M74.8,19H59.3V7.3h15.5V19z"/>
	<rect x="59.3" y="7.3" fill="#FFFFFF" width="15.5" height="11.7"/>
</g>
<path fill="#009966" stroke="#009966" stroke-width="0.75" stroke-miterlimit="10" d="M69.4,11.2c-0.1-0.1-0.2-0.1-0.2,0l-3.6,3.6
	l-1.2-1.2c-0.1-0.1-0.2-0.1-0.2,0c-0.1,0.1-0.1,0.2,0,0.2l1.3,1.3c0,0,0.1,0,0.1,0c0,0,0.1,0,0.1,0l3.8-3.8
	C69.5,11.3,69.5,11.2,69.4,11.2z"/>
<path fill="#009966" stroke="#009966" stroke-width="0.75" stroke-miterlimit="10" d="M66.9,8.5c-2.6,0-4.6,2.1-4.6,4.6
	c0,2.6,2.1,4.6,4.6,4.6s4.6-2.1,4.6-4.6C71.5,10.6,69.5,8.5,66.9,8.5z M66.9,17.3c-2.3,0-4.2-1.9-4.2-4.2c0-2.3,1.9-4.2,4.2-4.2
	s4.2,1.9,4.2,4.2C71.1,15.4,69.2,17.3,66.9,17.3z"/>
<path fill="#009966" d="M30.3,1c-0.7,0-0.7,0-0.7,0.7v16.3c0,0.7,0,0.7,0.7,0.7s0.7,0,0.7-0.7V1.8C31,1,31,1,30.3,1z"/>
<g>
	<path fill="#009966" d="M47.4,1.4c-5.9-1.5-10.4,1.5-14.9,0v10c4.5,1.5,8.9-1.5,14.9,0l-3-5.2L47.4,1.4z M45.2,10.3
		c-4.5-1.1-7.9,1.1-11.3,0V2.7c3.4,1.1,6.8-1.1,11.3,0l-2.3,3.7L45.2,10.3z"/>
	<path fill="#FFFFFF" d="M45.2,2.7c-4.5-1.1-7.9,1.1-11.3,0v7.6c3.4,1.1,6.8-1.1,11.3,0l-2.3-3.9L45.2,2.7z"/>
</g>
<g>
	<path fill="#009966" stroke="#009966" stroke-miterlimit="10" d="M5.8,18.6h-3c-0.9,0-1.7-0.7-1.7-1.7V8.9c0-0.9,0.7-1.7,1.7-1.7h3
		V18.6z M2.8,7.8c-0.6,0-1.1,0.5-1.1,1.1V17c0,0.6,0.5,1.1,1.1,1.1h2.5V7.8H2.8z"/>
	<path fill="#009966" stroke="#009966" stroke-miterlimit="10" d="M14.9,18.6H5.3V7.4l3.8-5.5c0.4-0.5,1-0.8,1.7-0.8h0.1
		c0.7,0,1.3,0.3,1.7,0.8c0.4,0.5,0.5,1.2,0.3,1.8l-1,3.5h5.1c0.7,0,1.5,0.4,1.9,1c0.6,0.8,0.7,1.8,0.3,3l-1.7,5.1
		C17.1,17.2,15.9,18.6,14.9,18.6z M5.8,18.1h9c0.7,0,1.8-1.2,2-2l1.7-5.1c0.3-0.9,0.3-1.8-0.2-2.5c-0.3-0.5-0.9-0.8-1.5-0.8h-5.7
		l1.2-4.2c0.1-0.5,0-1-0.2-1.4c-0.3-0.4-0.7-0.6-1.2-0.6h-0.1c-0.5,0-0.9,0.2-1.2,0.6L5.8,7.6V18.1z"/>
</g>
</svg>
