<?xml version="1.0" encoding="utf-8"?>
<!-- Generator: Adobe Illustrator 18.1.1, SVG Export Plug-In . SVG Version: 6.00 Build 0)  -->
<svg version="1.1" id="Layer_1" xmlns="http://www.w3.org/2000/svg" xmlns:xlink="http://www.w3.org/1999/xlink" x="0px" y="0px"
	 viewBox="0 0 20 20" enable-background="new 0 0 20 20" xml:space="preserve">
<path fill="#2E3192" d="M0.7,9.4h13.4l-2.9-2.9c-0.2-0.2-0.2-0.6,0-0.8c0.2-0.2,0.6-0.2,0.8,0l3.9,3.9c0.2,0.2,0.2,0.6,0,0.8
	L12,14.2c-0.1,0.1-0.3,0.2-0.4,0.2s-0.3-0.1-0.4-0.2c-0.2-0.2-0.2-0.6,0-0.8l2.9-2.9H0.7c-0.3,0-0.6-0.3-0.6-0.6
	C0.1,9.6,0.3,9.4,0.7,9.4z M15.9,0H4.2C1.9,0,0.1,1.8,0.1,4.1v2.4c0,0.3,0.3,0.6,0.6,0.6s0.6-0.3,0.6-0.6V4.1c0-1.6,1.3-3,3-3h11.7
	c1.6,0,3,1.3,3,3v11.7c0,1.6-1.3,3-3,3H4.2c-1.6,0-3-1.3-3-3v-2.4c0-0.3-0.3-0.6-0.6-0.6s-0.6,0.3-0.6,0.6v2.4
	c0,2.3,1.8,4.1,4.1,4.1h11.7c2.3,0,4.1-1.8,4.1-4.1V4.1C20,1.8,18.2,0,15.9,0z"/>
<path fill="#2E3192" d="M10,10"/>
<path fill="#2E3192" d="M10,10"/>
</svg>
