<?xml version="1.0" encoding="utf-8"?>
<!-- Generator: Adobe Illustrator 18.1.1, SVG Export Plug-In . SVG Version: 6.00 Build 0)  -->
<svg version="1.1" id="Layer_1" xmlns="http://www.w3.org/2000/svg" xmlns:xlink="http://www.w3.org/1999/xlink" x="0px" y="0px"
	 viewBox="434.6 447.4 20 20" enable-background="new 434.6 447.4 20 20" xml:space="preserve">
<path fill="#FFFFFF" d="M454.2,453.7c-0.2-0.2-0.4-0.2-0.6,0l-9.7,9.7l-3.1-3.1c-0.2-0.2-0.4-0.2-0.6,0c-0.2,0.2-0.2,0.4,0,0.6
	l3.4,3.4c0.1,0.1,0.2,0.1,0.3,0.1s0.2-0.1,0.3-0.1l10.1-10.1C454.4,454.2,454.4,453.9,454.2,453.7z"/>
<path fill="#FFFFFF" d="M449.6,466.7h-13.8v-18.5h9.2v4.6h4.6v3.7h0.8v-4.2l-4.9-4.9H435v20h15.4v-7.7h-0.8V466.7L449.6,466.7z
	 M445.8,448.7l3.3,3.3h-3.3V448.7z"/>
</svg>
