<?xml version="1.0" encoding="utf-8"?>
<!-- Generator: Adobe Illustrator 18.1.1, SVG Export Plug-In . SVG Version: 6.00 Build 0)  -->
<svg version="1.1" id="Layer_1" xmlns="http://www.w3.org/2000/svg" xmlns:xlink="http://www.w3.org/1999/xlink" x="0px" y="0px"
	 viewBox="0 0 20 20" enable-background="new 0 0 20 20" xml:space="preserve">
<g>
	<path fill="#2E368F" d="M16.3,4.6v3.6h1v-4c0-0.2-0.1-0.3-0.2-0.5l-3.4-3c-0.1-0.1-0.3-0.2-0.4-0.2H3.5c-0.4,0-0.6,0.3-0.6,0.6
		v18.1c0,0.4,0.3,0.6,0.6,0.6h13.2c0.4,0,0.6-0.3,0.6-0.6v-4.8h-1V19H3.9V1.6h9.2v3H16.3z"/>
	<g>
		<path fill="#2E368F" d="M11.9,10.6c-0.1,0-0.2,0-0.4,0h-0.2v0.7h0.3c0.2,0,0.3,0,0.4,0c0.1,0,0.1-0.1,0.2-0.1
			c0-0.1,0.1-0.1,0.1-0.2c0-0.1,0-0.2-0.1-0.2C12.1,10.7,12,10.7,11.9,10.6z"/>
		<path fill="#2E368F" d="M14.6,10.8c-0.1-0.1-0.1-0.1-0.2-0.1c-0.1,0-0.2,0-0.4,0h-0.2v1.7h0.4c0.1,0,0.2,0,0.3,0
			c0.1,0,0.2-0.1,0.2-0.1c0.1,0,0.1-0.1,0.1-0.2c0-0.1,0.1-0.3,0.1-0.5s0-0.3-0.1-0.4C14.7,10.9,14.6,10.8,14.6,10.8z"/>
		<path fill="#2E368F" d="M18.1,9H9.9C9.5,9,9.1,9.3,9.1,9.7v3.5c0,0.4,0.3,0.7,0.7,0.7h8.2c0.4,0,0.7-0.3,0.7-0.7V9.7
			C18.8,9.3,18.5,9,18.1,9z M12.7,11.4c-0.1,0.1-0.1,0.2-0.2,0.2c-0.1,0.1-0.2,0.1-0.3,0.1c-0.1,0-0.3,0-0.5,0h-0.3v0.9h-0.5v-2.5
			h0.8c0.3,0,0.5,0,0.6,0c0.1,0,0.3,0.1,0.4,0.2c0.1,0.1,0.1,0.3,0.1,0.5C12.8,11.1,12.7,11.3,12.7,11.4z M15.2,12
			c-0.1,0.2-0.2,0.3-0.3,0.4c-0.1,0.1-0.2,0.2-0.4,0.2c-0.1,0-0.3,0.1-0.4,0.1h-1v-2.5h0.9c0.2,0,0.4,0,0.5,0c0.1,0,0.3,0.1,0.4,0.2
			c0.1,0.1,0.2,0.2,0.2,0.4c0.1,0.2,0.1,0.4,0.1,0.6C15.3,11.7,15.3,11.9,15.2,12z M17.3,10.6h-1.2v0.6h1v0.4h-1v1.1h-0.5v-2.5h1.7
			V10.6z"/>
	</g>
</g>
</svg>
