<?xml version="1.0" encoding="utf-8"?>
<!-- Generator: Adobe Illustrator 18.1.1, SVG Export Plug-In . SVG Version: 6.00 Build 0)  -->
<svg version="1.1" id="Layer_1" xmlns="http://www.w3.org/2000/svg" xmlns:xlink="http://www.w3.org/1999/xlink" x="0px" y="0px"
	 viewBox="0 0 20 20" enable-background="new 0 0 20 20" xml:space="preserve">
<g>
	<path fill="#2E3192" d="M10.1,0.7C5,0.7,0.8,4.8,0.8,9.9c0,5.1,4.1,9.2,9.2,9.2s9.2-4.1,9.2-9.2C19.3,4.8,15.2,0.7,10.1,0.7z
		 M10.1,18.3c-4.6,0-8.4-3.8-8.4-8.4c0-4.6,3.8-8.4,8.4-8.4s8.4,3.8,8.4,8.4C18.5,14.6,14.7,18.3,10.1,18.3z"/>
	
		<rect x="9.7" y="0.9" transform="matrix(-0.5425 -0.8401 0.8401 -0.5425 7.4339 23.6239)" fill="#2E3192" width="0.9" height="17.7"/>
</g>
</svg>
