<?xml version="1.0" encoding="utf-8"?>
<!-- Generator: Adobe Illustrator 18.1.1, SVG Export Plug-In . SVG Version: 6.00 Build 0)  -->
<svg version="1.1" id="Layer_1" xmlns="http://www.w3.org/2000/svg" xmlns:xlink="http://www.w3.org/1999/xlink" x="0px" y="0px"
	 viewBox="0 0 20 20" enable-background="new 0 0 20 20" xml:space="preserve">
<path fill="#2E368F" stroke="#2E368F" stroke-width="0.75" stroke-miterlimit="10" d="M251.9,230.9l4-4c0.1-0.1,0.1-0.2,0-0.3
	c-0.1-0.1-0.2-0.1-0.3,0l-4,4l-4-4c-0.1-0.1-0.2-0.1-0.3,0c-0.1,0.1-0.1,0.2,0,0.3l4,4l-4,4c-0.1,0.1-0.1,0.2,0,0.3
	c0,0,0.1,0.1,0.2,0.1s0.1,0,0.2-0.1l4-4l4,4c0,0,0.1,0.1,0.2,0.1s0.1,0,0.2-0.1c0.1-0.1,0.1-0.2,0-0.3L251.9,230.9z"/>
<path fill="#2E368F" stroke="#2E368F" stroke-width="0.75" stroke-miterlimit="10" d="M334.7,187c0.1-0.1,0.1-0.2,0-0.3
	c-0.1-0.1-0.2-0.1-0.3,0l-1.8,1.8l0.3,0.3L334.7,187z"/>
<path fill="#2E368F" stroke="#2E368F" stroke-width="0.75" stroke-miterlimit="10" d="M334.3,195c0,0,0.1,0.1,0.2,0.1
	c0.1,0,0.1,0,0.2-0.1c0.1-0.1,0.1-0.2,0-0.3l-2.2-2.2l-0.3,0.3L334.3,195z"/>
<path fill="#2E368F" stroke="#2E368F" stroke-width="0.75" stroke-miterlimit="10" d="M330.8,190.8l0.3-0.3l-0.3-0.3l-0.3,0.3
	l-3.8-3.8c-0.1-0.1-0.2-0.1-0.3,0c-0.1,0.1-0.1,0.2,0,0.3l3.8,3.8l-3.8,3.8c-0.1,0.1-0.1,0.2,0,0.3c0,0,0.1,0.1,0.2,0.1
	c0.1,0,0.1,0,0.2-0.1l3.8-3.8l1.3,1.3l0.3-0.3L330.8,190.8z"/>
<path fill="#2E368F" stroke="#2E368F" stroke-width="0.75" stroke-miterlimit="10" d="M329.3,194.9c-0.1,0.1-0.1,0.2,0,0.3
	c0,0,0.1,0.1,0.2,0.1c0.1,0,0.1,0,0.2-0.1l1.9-1.9l-0.3-0.3L329.3,194.9z"/>
<path fill="#2E368F" stroke="#2E368F" stroke-width="0.75" stroke-miterlimit="10" d="M329.6,187c-0.1-0.1-0.2-0.1-0.3,0
	c-0.1,0.1-0.1,0.2,0,0.3l2.2,2.2l0.3-0.3L329.6,187z"/>
<path fill="#2E368F" stroke="#2E368F" stroke-width="0.75" stroke-miterlimit="10" d="M333.7,191.1l3.8-3.8c0.1-0.1,0.1-0.2,0-0.3
	c-0.1-0.1-0.2-0.1-0.3,0l-3.8,3.8l-1.3-1.3l-0.3,0.3l1.3,1.3l-0.4,0.4l0.3,0.3l0.4-0.4l3.8,3.8c0,0,0.1,0.1,0.2,0.1
	c0.1,0,0.1,0,0.2-0.1c0.1-0.1,0.1-0.2,0-0.3L333.7,191.1z"/>
<rect x="331.9" y="192.2" transform="matrix(-0.7072 -0.707 0.707 -0.7072 430.9429 563.3199)" fill="#2E368F" stroke="#2E368F" stroke-width="0.75" stroke-miterlimit="10" width="0.5" height="0.5"/>
<rect x="331.6" y="189.3" transform="matrix(0.7067 0.7075 -0.7075 0.7067 231.4098 -179.1778)" fill="#2E368F" stroke="#2E368F" stroke-width="0.75" stroke-miterlimit="10" width="0.5" height="0.5"/>
<g>
	<path fill="#2E368F" stroke="#2E368F" stroke-width="0.45" stroke-miterlimit="10" d="M178,147.6h-2.4c0.1-0.2,0.2-0.5,0.2-0.8v-2
		c0-1.8-1.5-3.3-3.3-3.3H170c-1.8,0-3.3,1.5-3.3,3.3v2c0,0.3,0.1,0.6,0.2,0.8h-2.4c-1,0-1.8,0.8-1.8,1.8v8.3c0,1,0.8,1.8,1.8,1.8
		H178c1,0,1.8-0.8,1.8-1.8v-8.3C179.8,148.4,179,147.6,178,147.6z M167.7,146.8v-2c0-1.3,1.1-2.3,2.3-2.3h2.5c1.3,0,2.3,1.1,2.3,2.3
		v2c0,0.4-0.4,0.8-0.8,0.8h-5.6C168.1,147.6,167.7,147.3,167.7,146.8z M178.9,157.7c0,0.4-0.4,0.8-0.8,0.8h-13.5
		c-0.4,0-0.8-0.4-0.8-0.8v-8.3c0-0.4,0.4-0.8,0.8-0.8h4h5.6h4c0.4,0,0.8,0.4,0.8,0.8V157.7z"/>
	<path fill="#2E368F" stroke="#2E368F" stroke-width="0.45" stroke-miterlimit="10" d="M171.3,151c-1,0-1.9,0.8-1.9,1.9
		c0,0.9,0.6,1.6,1.4,1.8v1.6c0,0.3,0.2,0.5,0.5,0.5s0.5-0.2,0.5-0.5v-1.6c0.8-0.2,1.4-0.9,1.4-1.8C173.2,151.8,172.3,151,171.3,151z
		 M171.3,153.8c-0.5,0-0.9-0.4-0.9-0.9s0.4-0.9,0.9-0.9s0.9,0.4,0.9,0.9S171.8,153.8,171.3,153.8z"/>
</g>
<g>
	<path fill="#2E368F" stroke="#2E368F" stroke-width="0.45" stroke-miterlimit="10" d="M219.1,148.6h-2.4c0.1-0.2,0.2-0.5,0.2-0.8
		v-2c0-1.8-1.5-3.3-3.3-3.3h-2.5c-1.8,0-3.3,1.5-3.3,3.3c0,0.3,0.2,0.5,0.5,0.5s0.5-0.2,0.5-0.5c0-1.3,1.1-2.3,2.3-2.3h2.5
		c1.3,0,2.3,1.1,2.3,2.3v2c0,0.4-0.4,0.8-0.8,0.8h-5.6h-4c-1,0-1.8,0.8-1.8,1.8v8.3c0,1,0.8,1.8,1.8,1.8h13.5c1,0,1.8-0.8,1.8-1.8
		v-8.3C220.9,149.4,220.1,148.6,219.1,148.6z M219.9,158.6c0,0.4-0.4,0.8-0.8,0.8h-13.5c-0.4,0-0.8-0.4-0.8-0.8v-8.3
		c0-0.4,0.4-0.8,0.8-0.8h4h5.6h4c0.4,0,0.8,0.4,0.8,0.8V158.6z"/>
	<path fill="#2E368F" stroke="#2E368F" stroke-width="0.45" stroke-miterlimit="10" d="M212.4,151.9c-1,0-1.9,0.8-1.9,1.9
		c0,0.9,0.6,1.6,1.4,1.8v1.6c0,0.3,0.2,0.5,0.5,0.5c0.3,0,0.5-0.2,0.5-0.5v-1.6c0.8-0.2,1.4-0.9,1.4-1.8
		C214.3,152.8,213.4,151.9,212.4,151.9z M212.4,154.7c-0.5,0-0.9-0.4-0.9-0.9s0.4-0.9,0.9-0.9s0.9,0.4,0.9,0.9
		S212.9,154.7,212.4,154.7z"/>
</g>
<path fill="#2E368F" d="M59,141.9H44.7c-1,0-1.8,0.8-1.8,1.8v14.4c0,1,0.8,1.8,1.8,1.8H59c1,0,1.8-0.8,1.8-1.8v-14.4
	C60.9,142.7,60,141.9,59,141.9z M56.7,148.5c0,0-5.8,5.8-5.8,5.8c-0.3,0.3-0.5,0.2-0.8,0l-2.8-2.8c-0.3-0.3-0.3-0.5,0-0.8
	c0.3-0.3,0.5-0.3,0.8,0l2.4,2.4l5.3-5.4c0.3-0.3,0.5-0.3,0.8,0C56.9,148,56.9,148.3,56.7,148.5z"/>
<path fill="#2E368F" stroke="#2E368F" stroke-width="0.5" stroke-miterlimit="10" d="M18.9,222.9c0.4,0,0.8,0.4,0.8,0.8V238
	c0,0.4-0.4,0.8-0.8,0.8H4.6c-0.4,0-0.8-0.4-0.8-0.8v-14.3c0-0.4,0.4-0.8,0.8-0.8L18.9,222.9 M18.9,221.8H4.6c-1,0-1.9,0.8-1.9,1.9
	V238c0,1,0.8,1.9,1.9,1.9h14.3c1,0,1.9-0.8,1.9-1.9v-14.3C20.8,222.7,20,221.8,18.9,221.8L18.9,221.8z"/>
<path fill="#2E368F" stroke="#2E368F" stroke-miterlimit="10" d="M338,111.1c0.1-0.1,0.1-0.2,0.1-0.3c0-0.1,0-0.2-0.1-0.3l-8.2-8.2
	c-0.2-0.2-0.5-0.2-0.6,0c-0.2,0.2-0.2,0.5,0,0.6l7.8,7.8l-7.8,7.8c-0.2,0.2-0.2,0.5,0,0.6c0.2,0.2,0.5,0.2,0.6,0L338,111.1z"/>
<path fill="#2E368F" stroke="#2E368F" stroke-miterlimit="10" d="M52.4,226.9c-0.1-0.1-0.2-0.1-0.3-0.1c-0.1,0-0.2,0-0.3,0.1
	l-8.2,8.2c-0.2,0.2-0.2,0.5,0,0.6c0.2,0.2,0.5,0.2,0.6,0l7.8-7.8l7.8,7.8c0.2,0.2,0.5,0.2,0.6,0s0.2-0.5,0-0.6L52.4,226.9z"/>
<path fill="#2E368F" stroke="#2E368F" stroke-miterlimit="10" d="M211.5,195.8c0.1,0.1,0.2,0.1,0.3,0.1s0.2,0,0.3-0.1l8.2-8.2
	c0.2-0.2,0.2-0.5,0-0.6c-0.2-0.2-0.5-0.2-0.6,0l-7.8,7.8l-7.8-7.8c-0.2-0.2-0.5-0.2-0.6,0c-0.2,0.2-0.2,0.5,0,0.6L211.5,195.8z"/>
<g transform="matrix( 1, 0, 0, 1, 0,0) ">
	<g>
		<g id="a_3_">
			<path fill="#2E368F" stroke="#2E368F" stroke-width="0.5" stroke-miterlimit="10" d="M82.3,186.3v7.2c0,0.9,0.3,1.7,1,2.4
				c0.7,0.7,1.5,1,2.4,1v2.6c0,0.1,0,0.2,0.1,0.3c0,0.1,0.1,0.1,0.2,0.2c0.1,0,0.1,0,0.2,0c0.1,0,0.2,0,0.3-0.1l3-2.9h8.3
				c1,0,1.8-0.3,2.5-1c0.7-0.7,1-1.5,1-2.4v-7.2c0-1-0.3-1.8-1-2.4c-0.7-0.7-1.5-1-2.5-1H85.8c-1,0-1.8,0.3-2.5,1
				C82.6,184.5,82.3,185.3,82.3,186.3 M85.8,183.8h12.1c0.7,0,1.3,0.2,1.8,0.7c0.5,0.5,0.8,1.1,0.8,1.8v7.2c0,0.7-0.3,1.3-0.8,1.8
				c-0.5,0.5-1.1,0.8-1.8,0.8h-8.5c-0.1,0-0.2,0-0.3,0.1l-2.3,2.3v-2c0-0.1,0-0.2-0.1-0.3c-0.1-0.1-0.2-0.1-0.3-0.1h-0.4
				c-0.7,0-1.3-0.3-1.8-0.8c-0.5-0.5-0.8-1.1-0.8-1.8v-7.2c0-0.7,0.3-1.3,0.8-1.8C84.5,184,85.1,183.8,85.8,183.8z"/>
			<path fill="#2E368F" stroke="#2E368F" stroke-width="0.5" stroke-miterlimit="10" d="M97,190.7c0.2-0.2,0.4-0.5,0.4-0.8
				c0-0.3-0.1-0.6-0.4-0.8c-0.2-0.2-0.5-0.4-0.9-0.4c-0.3,0-0.6,0.1-0.9,0.4c-0.2,0.2-0.4,0.5-0.4,0.8c0,0.3,0.1,0.6,0.4,0.8
				c0.2,0.2,0.5,0.3,0.9,0.3C96.5,191.1,96.8,190.9,97,190.7 M88.7,189.9c0-0.3-0.1-0.6-0.4-0.8c-0.2-0.2-0.5-0.4-0.9-0.4
				c-0.3,0-0.6,0.1-0.9,0.4c-0.2,0.2-0.4,0.5-0.4,0.8c0,0.3,0.1,0.6,0.4,0.8c0.2,0.2,0.5,0.3,0.9,0.3c0.3,0,0.6-0.1,0.9-0.3
				C88.6,190.5,88.7,190.2,88.7,189.9 M91,189c-0.2,0.2-0.4,0.5-0.4,0.8c0,0.3,0.1,0.6,0.4,0.8c0.2,0.2,0.5,0.3,0.9,0.3
				c0.3,0,0.6-0.1,0.9-0.3c0.2-0.2,0.4-0.5,0.4-0.8c0-0.3-0.1-0.6-0.4-0.8c-0.2-0.2-0.5-0.4-0.9-0.4C91.5,188.7,91.2,188.8,91,189z"
				/>
		</g>
	</g>
</g>
<path fill="#2E368F" stroke="#2E368F" stroke-width="0.45" stroke-miterlimit="10" d="M-24.6,238.3h-2v2h-11.1v-15.2h2v-2h2v-2h11.1
	v15.2h-2L-24.6,238.3L-24.6,238.3z M-27.1,225.7h-10.1v14.2h10.1V225.7z M-35.7,227.7v-0.5h7.1v0.5H-35.7z M-35.7,229.7v-0.5h7.1
	v0.5H-35.7z M-35.7,231.8v-0.5h7.1v0.5H-35.7z M-35.7,233.8v-0.5h7.1v0.5H-35.7z M-35.7,235.8v-0.5h7.1v0.5H-35.7z M-35.7,237.8
	v-0.5h7.1v0.5H-35.7z M-35.2,223.7v1.5h8.6v12.6h1.5v-14.2H-35.2z M-33.2,221.7v1.5h8.6v12.6h1.5v-14.2H-33.2z"/>
<path fill="#2E368F" d="M51.2,261.1c0,0-0.1,0-0.1,0.1l-5.2,8.4c-0.1,0.1,0,0.2,0.1,0.2h10.4c0.1,0,0.2-0.1,0.1-0.2l-5.2-8.4
	C51.3,261.1,51.3,261.1,51.2,261.1L51.2,261.1z M46,271.5c-0.1,0-0.2,0.1-0.1,0.2l5.2,8.4c0.1,0.1,0.2,0.1,0.2,0l5.2-8.4
	c0.1-0.1,0-0.2-0.1-0.2H46L46,271.5z"/>
<path fill="#2E368F" stroke="#2E368F" stroke-width="0.75" stroke-miterlimit="10" d="M331.6,181.4c-5.3,0-9.6,4.3-9.6,9.6
	s4.3,9.6,9.6,9.6c5.3,0,9.6-4.3,9.6-9.6S336.8,181.4,331.6,181.4z M331.6,199.7c-4.8,0-8.7-3.9-8.7-8.7s3.9-8.7,8.7-8.7
	c4.8,0,8.7,3.9,8.7,8.7S336.4,199.7,331.6,199.7z"/>
<g>
	<path fill="#2E368F" stroke="#2E368F" stroke-width="0.75" stroke-miterlimit="10" d="M131.3,231.1c-1.9,0-3.5,1.2-4.1,2.9h0.4
		c0.6-1.6,1.9-2.5,3.7-2.5c2.1,0,3.9,1.8,3.9,3.9s-1.8,3.9-3.9,3.9c-1.6,0-2.9-1-3.5-2.3h-0.4c0.6,1.6,2.1,2.7,3.9,2.7
		c2.3,0,4.3-1.9,4.3-4.3C135.6,233,133.7,231.1,131.3,231.1z"/>
	<path fill="#2E368F" stroke="#2E368F" stroke-width="0.75" stroke-miterlimit="10" d="M131.3,232.7v3.3h2.5v0.4h-2.9
		c0-1.2,0-2.7,0-3.7H131.3z"/>
</g>
<path fill="#2E368F" stroke="#2E368F" stroke-miterlimit="10" d="M100.2,231c-0.2,0-0.3,0.1-0.3,0.3v5c0,1.6-1.3,2.9-2.9,2.9H86.4
	c-1.6,0-2.9-1.3-2.9-2.9v-8.4v-2.2c0-1.6,1.3-2.9,2.9-2.9h4.9c0.2,0,0.3-0.1,0.3-0.3s-0.1-0.3-0.3-0.3h-4.9c-1.9,0-3.5,1.6-3.5,3.5
	v2.2v8.4c0,1.9,1.6,3.5,3.5,3.5H97c1.9,0,3.5-1.6,3.5-3.5v-5C100.5,231.1,100.4,231,100.2,231z"/>
<g>
	<g>
		<path fill="#2E368F" d="M100.8,222c0.6,0.6,0.6,1.5,0,2.1l-0.7,0.7l-2.1-2.1l0.7-0.7C99.3,221.5,100.2,221.5,100.8,222z"/>
		<polygon fill="#2E368F" points="90.5,230.2 89.9,233 92.6,232.3 99.4,225.4 97.4,223.4 		"/>
	</g>
</g>
<g>
	<g>
		<path fill="#2E368F" d="M-54.6,164c0.3,0.3,0.3,0.7,0,0.9l-0.3,0.3l-0.9-0.9l0.3-0.3C-55.2,163.7-54.8,163.7-54.6,164z"/>
		<polygon fill="#2E368F" points="-59.1,167.6 -59.4,168.8 -58.2,168.5 -55.2,165.5 -56.1,164.6 		"/>
	</g>
</g>
<path fill="#2E368F" stroke="#2E368F" stroke-miterlimit="10" d="M-143.7,239.6c0-0.2-0.1-0.3-0.3-0.3h-5.2c-1.7,0-3-1.4-3-3v-10.9
	c0-1.7,1.4-3,3-3h8.7h2.3c1.7,0,3,1.4,3,3v5.1c0,0.2,0.1,0.3,0.3,0.3c0.2,0,0.3-0.1,0.3-0.3v-5.1c0-2-1.6-3.6-3.6-3.6h-2.3h-8.7
	c-2,0-3.6,1.6-3.6,3.6v10.9c0,2,1.6,3.6,3.6,3.6h5.2C-143.8,239.9-143.7,239.8-143.7,239.6z"/>
<path fill="#2E368F" stroke="#2E368F" stroke-width="0.75" stroke-miterlimit="10" d="M260.2,271.2c-0.2,0-0.3,0.1-0.3,0.3v5
	c0,1.6-1.3,2.9-2.9,2.9h-10.5c-1.6,0-2.9-1.3-2.9-2.9v-8.4v-2.2c0-1.6,1.3-2.9,2.9-2.9h4.9c0.2,0,0.3-0.1,0.3-0.3
	c0-0.2-0.1-0.3-0.3-0.3h-4.9c-1.9,0-3.5,1.5-3.5,3.5v2.2v8.4c0,1.9,1.5,3.5,3.5,3.5H257c1.9,0,3.5-1.5,3.5-3.5v-5
	C260.4,271.3,260.3,271.2,260.2,271.2z"/>
<path fill="#2E368F" stroke="#2E368F" stroke-width="0.75" stroke-miterlimit="10" d="M220.7,110.8c-0.2,0-0.3,0.1-0.3,0.3v5.3
	c0,1.7-1.4,3.1-3.1,3.1H206c-1.7,0-3.1-1.4-3.1-3.1v-9v-2.3c0-1.7,1.4-3.1,3.1-3.1h5.3c0.2,0,0.3-0.1,0.3-0.3c0-0.2-0.1-0.3-0.3-0.3
	H206c-2,0-3.7,1.7-3.7,3.7v2.3v9c0,2,1.7,3.7,3.7,3.7h11.3c2,0,3.7-1.7,3.7-3.7v-5.3C221,111,220.9,110.8,220.7,110.8z"/>
<g>
	<path fill="#2E368F" d="M221.3,101.3c0.6,0.6,0.6,1.6,0,2.2l-0.7,0.7l-2.2-2.2l0.7-0.7C219.7,100.7,220.7,100.7,221.3,101.3z"/>
	<polygon fill="#2E368F" points="210.4,110 209.6,112.9 212.6,112.2 219.9,104.9 217.7,102.7 	"/>
</g>
<path fill="#2E368F" stroke="#2E368F" stroke-width="0.75" stroke-miterlimit="10" d="M139.8,109.9h-7.1v-7.1c0-0.5-0.4-0.8-0.8-0.8
	c-0.5,0-0.8,0.4-0.8,0.8v7.1h-7.1c-0.5,0-0.8,0.4-0.8,0.8c0,0.5,0.4,0.8,0.8,0.8h7.1v7.1c0,0.5,0.4,0.8,0.8,0.8
	c0.5,0,0.8-0.4,0.8-0.8v-7.1h7.1c0.5,0,0.8-0.4,0.8-0.8C140.6,110.3,140.2,109.9,139.8,109.9z"/>
<path fill="#2E368F" stroke="#2E368F" stroke-width="0.75" stroke-miterlimit="10" d="M100.7,119l-4.2-4.2c2.7-3,2.6-7.7-0.3-10.6
	c-3-3-7.9-3-11,0c-3,3-3,7.9,0,11c1.5,1.5,3.5,2.3,5.5,2.3c1.8,0,3.7-0.7,5.1-2l4.2,4.2c0.1,0.1,0.2,0.1,0.3,0.1s0.2,0,0.3-0.1
	C100.8,119.5,100.8,119.2,100.7,119z M85.8,114.5c-2.7-2.7-2.7-7,0-9.7c1.3-1.3,3.1-2,4.8-2s3.5,0.7,4.8,2c2.7,2.7,2.7,7,0,9.7
	C92.8,117.2,88.5,117.2,85.8,114.5z"/>
<path fill="#2E368F" stroke="#2E368F" stroke-width="0.75" stroke-miterlimit="10" d="M176.6,238.9l-2.1-2.1
	c1.4-1.5,1.3-3.9-0.2-5.4c-1.5-1.5-4-1.5-5.5,0c-1.5,1.5-1.5,4,0,5.5c0.8,0.8,1.8,1.1,2.8,1.1c0.9,0,1.9-0.3,2.6-1l2.1,2.1
	c0,0,0.1,0.1,0.2,0.1s0.1,0,0.2-0.1C176.7,239.2,176.7,239,176.6,238.9z M169.1,236.6c-1.3-1.3-1.3-3.5,0-4.9c0.7-0.7,1.6-1,2.4-1
	c0.9,0,1.8,0.3,2.4,1c1.3,1.3,1.3,3.5,0,4.9C172.7,238,170.5,238,169.1,236.6z"/>
<path fill="#2E368F" stroke="#2E368F" stroke-width="0.75" stroke-miterlimit="10" d="M-28.2,101.7c-5,0-9.1,4.1-9.1,9.1
	c0,5,4.1,9.1,9.1,9.1s9.1-4.1,9.1-9.1C-19.1,105.8-23.2,101.7-28.2,101.7z M-28.2,119.1c-4.6,0-8.3-3.7-8.3-8.3
	c0-4.6,3.7-8.3,8.3-8.3s8.3,3.7,8.3,8.3C-19.9,115.4-23.6,119.1-28.2,119.1z"/>
<path fill="#2E368F" stroke="#2E368F" stroke-miterlimit="10" d="M180.3,102.9v4.6c0,0.1-0.1,0.2-0.2,0.2s-0.2-0.1-0.2-0.2v-4
	l-7.8,7.8c0,0-0.1,0.1-0.2,0.1c0,0-0.1,0-0.2-0.1c-0.1-0.1-0.1-0.2,0-0.3l7.8-7.8h-4c-0.1,0-0.2-0.1-0.2-0.2s0.1-0.2,0.2-0.2h4.6
	C180.2,102.7,180.3,102.8,180.3,102.9z"/>
<path fill="#2E368F" stroke="#2E368F" stroke-width="0.75" stroke-miterlimit="10" d="M179.6,111.1c-0.1,0-0.2,0.1-0.2,0.2v4.6
	c0,1.5-1.2,2.7-2.7,2.7h-9.8c-1.5,0-2.7-1.2-2.7-2.7v-7.8v-2c0-1.5,1.2-2.7,2.7-2.7h4.6c0.1,0,0.2-0.1,0.2-0.2s-0.1-0.2-0.2-0.2
	h-4.6c-1.8,0-3.2,1.4-3.2,3.2v2v7.8c0,1.8,1.4,3.2,3.2,3.2h9.8c1.8,0,3.2-1.4,3.2-3.2v-4.6C179.8,111.2,179.7,111.1,179.6,111.1z"/>
<path fill="#2E368F" stroke="#2E368F" stroke-miterlimit="10" d="M-78.1,154.4v4.3c0,0.1-0.1,0.2-0.2,0.2c-0.1,0-0.2-0.1-0.2-0.2
	v-3.8l-7.4,7.4c0,0-0.1,0.1-0.2,0.1s-0.1,0-0.2-0.1c-0.1-0.1-0.1-0.2,0-0.3l7.4-7.4h-3.8c-0.1,0-0.2-0.1-0.2-0.2
	c0-0.1,0.1-0.2,0.2-0.2h4.3C-78.2,154.1-78.1,154.2-78.1,154.4z"/>
<path fill="#2E368F" stroke="#2E368F" stroke-width="0.75" stroke-miterlimit="10" d="M-80.7,164.3c-0.1,0-0.2,0.1-0.2,0.2v4.4
	c0,1.4-1.2,2.6-2.6,2.6h-9.4c-1.4,0-2.6-1.2-2.6-2.6v-7.5v-1.9c0-1.4,1.2-2.6,2.6-2.6h4.4c0.1,0,0.2-0.1,0.2-0.2
	c0-0.1-0.1-0.2-0.2-0.2h-4.4c-1.7,0-3.1,1.4-3.1,3.1v1.9v7.5c0,1.7,1.4,3.1,3.1,3.1h9.4c1.7,0,3.1-1.4,3.1-3.1v-4.4
	C-80.5,164.4-80.6,164.3-80.7,164.3z"/>
<path fill="#2E368F" stroke="#2E368F" stroke-width="0.5" stroke-miterlimit="10" d="M21.2,114.6v-7.9c0-0.2,0.1-1.8-0.5-2.5
	c-0.4-0.5-1.2-0.6-2-0.6h-0.4c-0.1,0-0.3,0-0.6,0v-0.7c0-0.2-0.2-0.4-0.4-0.4c-0.2,0-0.4,0.2-0.4,0.4v0.8c-2.5,0-8,0-10.5,0v-0.8
	c0-0.2-0.2-0.4-0.4-0.4c-0.2,0-0.2,0.2-0.2,0.4v0.8c-0.3,0-0.5,0-0.6,0H4.9c-0.9,0-1.7,0-2,0.6c-0.6,0.6-0.5,2.2-0.5,2.4v11.6
	c0,0.2,0.2,0.4,0.4,0.4h14.5c0.1,0,0.2,0,0.3-0.1l0,0l3.6-3.7l0,0l0,0l0,0c0,0,0,0,0-0.1C21.2,114.7,21.2,114.7,21.2,114.6z
	 M3.4,104.7c0.2-0.3,0.9-0.3,1.6-0.3h0.4c0.1,0,0.3,0,0.6,0v0.5c0,0.2,0.2,0.4,0.4,0.4c0.2,0,0.3-0.2,0.3-0.4v-0.5c2.5,0,8,0,10.5,0
	v0.5c0,0.2,0.2,0.4,0.4,0.4s0.4-0.2,0.4-0.4v-0.5c0.3,0,0.5,0,0.6,0h0.4c0.7,0,1.3,0,1.6,0.3c0.1,0.3,0.1,1.1,0.1,1.7H3.1
	C3.1,105.8,3.2,105,3.4,104.7z M3.1,107.1h17.4v7.2h-3.3c-0.2,0-0.4,0.2-0.4,0.4v3.4H3.1V107.1z M20,115l-2.4,2.5V115H20z"/>
<g>
	<rect x="6.8" y="109.1" fill="#2E368F" width="1.9" height="1.4"/>
	<rect x="9.5" y="109.1" fill="#2E368F" width="1.9" height="1.4"/>
	<rect x="12.2" y="109.1" fill="#2E368F" width="1.9" height="1.4"/>
	<rect x="14.8" y="109.1" fill="#2E368F" width="1.9" height="1.4"/>
	<rect x="6.8" y="111.2" fill="#2E368F" width="1.9" height="1.4"/>
	<rect x="9.5" y="111.2" fill="#2E368F" width="1.9" height="1.4"/>
	<rect x="12.2" y="111.2" fill="#2E368F" width="1.9" height="1.4"/>
	<rect x="14.8" y="111.2" fill="#2E368F" width="1.9" height="1.4"/>
	<rect x="6.8" y="113.5" fill="#2E368F" width="1.9" height="1.4"/>
	<rect x="9.5" y="113.5" fill="#2E368F" width="1.9" height="1.4"/>
	<rect x="12.2" y="113.5" fill="#2E368F" width="1.9" height="1.4"/>
	<rect x="14.8" y="113.5" fill="#2E368F" width="1.9" height="1.4"/>
</g>
<g>
	<g>
		<path fill="#EF3C24" d="M52.3,101.9c-0.1-0.2-0.3-0.3-0.5-0.3c-0.2,0-0.4,0.1-0.5,0.3l-9.2,16c-0.1,0.2-0.1,0.4,0,0.6
			c0.1,0.2,0.3,0.3,0.5,0.3H61l0,0c0.3,0,0.6-0.3,0.6-0.6c0-0.1,0-0.3-0.1-0.4L52.3,101.9z M43.6,117.6l8.1-14.1l8.1,14.1H43.6z"/>
		<path fill="#EF3C24" d="M51.1,107.9v4.9c0,0.3,0.3,0.6,0.6,0.6c0.3,0,0.6-0.3,0.6-0.6v-4.9c0-0.3-0.3-0.6-0.6-0.6
			C51.4,107.3,51.1,107.5,51.1,107.9z"/>
		<path fill="#EF3C24" d="M51.8,114.2c-0.3,0-0.6,0.3-0.6,0.6v0.4c0,0.3,0.3,0.6,0.6,0.6s0.6-0.3,0.6-0.6v-0.4
			C52.4,114.5,52.1,114.2,51.8,114.2z"/>
	</g>
</g>
<g>
	<g>
		<path fill="#F26722" d="M-28.1,62c-0.1-0.2-0.3-0.3-0.5-0.3c-0.2,0-0.4,0.1-0.5,0.3l-9.2,16c-0.1,0.2-0.1,0.4,0,0.6
			s0.3,0.3,0.5,0.3h18.5l0,0c0.3,0,0.6-0.3,0.6-0.6c0-0.1,0-0.3-0.1-0.4L-28.1,62z M-36.8,77.7l8.1-14.1l8.1,14.1H-36.8z"/>
		<path fill="#F26722" d="M-29.3,68v4.9c0,0.3,0.3,0.6,0.6,0.6s0.6-0.3,0.6-0.6V68c0-0.3-0.3-0.6-0.6-0.6
			C-29,67.3-29.3,67.6-29.3,68z"/>
		<path fill="#F26722" d="M-28.6,74.3c-0.3,0-0.6,0.3-0.6,0.6v0.4c0,0.3,0.3,0.6,0.6,0.6c0.3,0,0.6-0.3,0.6-0.6V75
			C-28,74.6-28.3,74.3-28.6,74.3z"/>
	</g>
</g>
<polygon fill="#2E368F" points="-33.1,110.5 -30.7,110.5 -30.7,114.1 -25.9,114.1 -25.9,110.5 -23.5,110.5 -28.3,105.7 "/>
<path fill="#2E368F" stroke="#2E368F" stroke-width="0.75" stroke-miterlimit="10" d="M251.6,221.7c-5.1,0-9.2,4.1-9.2,9.2
	c0,5.1,4.1,9.2,9.2,9.2c5.1,0,9.2-4.1,9.2-9.2C260.8,225.8,256.7,221.7,251.6,221.7z M251.6,239.2c-4.6,0-8.4-3.8-8.4-8.4
	c0-4.6,3.8-8.4,8.4-8.4c4.6,0,8.4,3.8,8.4,8.4C260,235.5,256.2,239.2,251.6,239.2z"/>
<path fill="#2E368F" stroke="#2E368F" stroke-width="0.75" stroke-miterlimit="10" d="M331.8,221.7c-5.1,0-9.2,4.1-9.2,9.2
	c0,5.1,4.1,9.2,9.2,9.2s9.2-4.1,9.2-9.2C341,225.8,336.8,221.7,331.8,221.7z M331.8,239.2c-4.6,0-8.4-3.8-8.4-8.4
	c0-4.6,3.8-8.4,8.4-8.4s8.4,3.8,8.4,8.4C340.1,235.5,336.4,239.2,331.8,239.2z"/>
<path fill="#2E368F" stroke="#2E368F" stroke-width="0.75" stroke-miterlimit="10" d="M-27.5,194.9l1.9-1.9c0,0,0-0.1,0-0.2
	c0,0-0.1,0-0.2,0l-1.9,1.9l-1.9-1.9c0,0-0.1,0-0.2,0c0,0,0,0.1,0,0.2l1.9,1.9l-1.9,1.9c0,0,0,0.1,0,0.2c0,0,0.1,0,0.1,0s0.1,0,0.1,0
	l1.9-1.9l1.9,1.9c0,0,0.1,0,0.1,0c0,0,0.1,0,0.1,0c0,0,0-0.1,0-0.2L-27.5,194.9z"/>
<path fill="#2E368F" stroke="#2E368F" stroke-width="0.75" stroke-miterlimit="10" d="M-27.6,190c-2.7,0-4.8,2.2-4.8,4.8
	c0,2.7,2.2,4.8,4.8,4.8s4.8-2.2,4.8-4.8C-22.8,192.2-24.9,190-27.6,190z M-27.6,199.3c-2.4,0-4.4-2-4.4-4.4c0-2.4,2-4.4,4.4-4.4
	s4.4,2,4.4,4.4C-23.2,197.3-25.2,199.3-27.6,199.3z"/>
<rect x="11.4" y="142.2" transform="matrix(-0.5425 -0.8401 0.8401 -0.5425 -108.5308 242.472)" fill="#2E368F" stroke="#2E368F" stroke-width="0.75" stroke-miterlimit="10" width="0.8" height="17.2"/>
<path fill="#2E368F" stroke="#2E368F" stroke-width="0.75" stroke-miterlimit="10" d="M11.7,141.9c-4.8,0-8.8,3.9-8.8,8.8
	c0,4.8,3.9,8.8,8.8,8.8s8.8-3.9,8.8-8.8C20.4,145.8,16.5,141.9,11.7,141.9z M11.7,158.6c-4.4,0-8-3.6-8-8c0-4.4,3.6-8,8-8s8,3.6,8,8
	C19.7,155,16.1,158.6,11.7,158.6z"/>
<g>
	<path fill="#2E368F" stroke="#2E368F" stroke-width="0.75" stroke-miterlimit="10" d="M251.9,196.4c0.3,0,0.5-0.2,0.5-0.5v-7.1
		c0-0.3-0.2-0.5-0.5-0.5c-0.3,0-0.5,0.2-0.5,0.5v7.1C251.4,196.2,251.7,196.4,251.9,196.4z"/>
	<path fill="#2E368F" stroke="#2E368F" stroke-width="0.75" stroke-miterlimit="10" d="M251.9,187c0.3,0,0.5-0.2,0.5-0.5v-1
		c0-0.3-0.2-0.5-0.5-0.5c-0.3,0-0.5,0.2-0.5,0.5v1C251.4,186.8,251.6,187,251.9,187z"/>
</g>
<path fill="#2E368F" stroke="#2E368F" stroke-width="0.75" stroke-miterlimit="10" d="M251.9,181.8c-4.9,0-8.9,4-8.9,8.9
	c0,4.9,4,8.9,8.9,8.9s8.9-4,8.9-8.9C260.8,185.8,256.8,181.8,251.9,181.8z M251.9,198.8c-4.5,0-8.1-3.6-8.1-8.1
	c0-4.5,3.6-8.1,8.1-8.1s8.1,3.6,8.1,8.1C260,195.2,256.4,198.8,251.9,198.8z"/>
<path fill="#2E368F" stroke="#2E368F" stroke-width="0.75" stroke-miterlimit="10" d="M131.9,181.7c-5.2,0-9.4,4.2-9.4,9.4
	c0,5.2,4.2,9.4,9.4,9.4c5.2,0,9.4-4.2,9.4-9.4C141.3,185.9,137.1,181.7,131.9,181.7z M131.9,199.6c-4.7,0-8.5-3.8-8.5-8.5
	c0-4.7,3.8-8.5,8.5-8.5c4.7,0,8.5,3.8,8.5,8.5C140.5,195.8,136.6,199.6,131.9,199.6z"/>
<polygon fill="#2E368F" points="136.8,190.7 134.3,190.7 134.3,187 129.4,187 129.4,190.7 127,190.7 131.9,195.6 "/>
<path fill="#2E368F" stroke="#2E368F" stroke-width="0.75" stroke-miterlimit="10" d="M-28.3,142.1c-4.9,0-8.8,4-8.8,8.8
	c0,4.9,4,8.8,8.8,8.8s8.8-4,8.8-8.8C-19.5,146-23.4,142.1-28.3,142.1z M-28.3,158.9c-4.4,0-8-3.6-8-8c0-4.4,3.6-8,8-8s8,3.6,8,8
	C-20.2,155.3-23.8,158.9-28.3,158.9z"/>
<polygon fill="#2E368F" points="-23.7,150.5 -26,150.5 -26,147 -30.6,147 -30.6,150.5 -32.9,150.5 -28.3,155.1 "/>
<path fill="#2E368F" stroke="#2E368F" stroke-width="0.75" stroke-miterlimit="10" d="M292.3,101.7c-5,0-9,4.1-9,9c0,5,4.1,9,9,9
	s9-4.1,9-9C301.3,105.8,297.3,101.7,292.3,101.7z M292.3,119c-4.5,0-8.2-3.7-8.2-8.2c0-4.5,3.7-8.2,8.2-8.2s8.2,3.7,8.2,8.2
	C300.6,115.3,296.9,119,292.3,119z"/>
<path fill="#2E368F" stroke="#2E368F" stroke-width="0.75" stroke-miterlimit="10" d="M96.7,147.2c-0.1-0.1-0.3-0.1-0.4,0l-6.8,6.8
	l-2.2-2.2c-0.1-0.1-0.3-0.1-0.4,0c-0.1,0.1-0.1,0.3,0,0.4l2.4,2.4c0.1,0.1,0.1,0.1,0.2,0.1c0.1,0,0.1,0,0.2-0.1l7-7
	C96.9,147.5,96.9,147.3,96.7,147.2z"/>
<path fill="#2E368F" stroke="#2E368F" stroke-width="0.45" stroke-miterlimit="10" d="M91.8,141.4c-5.2,0-9.5,4.2-9.5,9.5
	c0,5.2,4.2,9.5,9.5,9.5s9.5-4.2,9.5-9.5C101.3,145.7,97.1,141.4,91.8,141.4z M91.8,159.5c-4.8,0-8.6-3.9-8.6-8.6
	c0-4.8,3.9-8.6,8.6-8.6s8.6,3.9,8.6,8.6C100.5,155.6,96.6,159.5,91.8,159.5z"/>
<path fill="#2E368F" stroke="#2E368F" stroke-width="0.45" stroke-miterlimit="10" d="M-34.8,22.9c-5.2,0-9.5,4.2-9.5,9.5
	c0,5.2,4.2,9.5,9.5,9.5s9.5-4.2,9.5-9.5C-25.3,27.2-29.6,22.9-34.8,22.9z M-34.8,41c-4.8,0-8.6-3.9-8.6-8.6c0-4.8,3.9-8.6,8.6-8.6
	s8.6,3.9,8.6,8.6C-26.2,37.2-30,41-34.8,41z"/>
<g>
	<path fill="#2E368F" stroke="#2E368F" stroke-width="0.75" stroke-miterlimit="10" d="M295.3,187.7c0.1-0.1,0.1-0.3,0-0.4
		c-0.1-0.1-0.3-0.1-0.4,0l-4.4,4.4l0.4,0.4L295.3,187.7z"/>
	<path fill="#2E368F" stroke="#2E368F" stroke-width="0.75" stroke-miterlimit="10" d="M288.1,194.1l-2.1-2.1
		c-0.1-0.1-0.3-0.1-0.4,0c-0.1,0.1-0.1,0.3,0,0.4l2.3,2.3c0.1,0.1,0.1,0.1,0.2,0.1c0.1,0,0.1,0,0.2-0.1l0.2-0.2L288.1,194.1
		L288.1,194.1z"/>
	<path fill="#2E368F" stroke="#2E368F" stroke-width="0.75" stroke-miterlimit="10" d="M288.7,191.7c-0.1-0.1-0.3-0.1-0.4,0
		c-0.1,0.1-0.1,0.3,0,0.4l0.9,0.9l0.4-0.4L288.7,191.7z"/>
	<path fill="#2E368F" stroke="#2E368F" stroke-width="0.75" stroke-miterlimit="10" d="M298,187c-0.1-0.1-0.3-0.1-0.4,0l-6.8,6.8
		L290,193l-0.4,0.4l1,1c0.1,0.1,0.1,0.1,0.2,0.1c0.1,0,0.1,0,0.2-0.1l7-7C298.1,187.3,298.1,187.2,298,187z"/>
	
		<rect x="289.3" y="192.7" transform="matrix(0.7074 -0.7068 0.7068 0.7074 -51.6824 261.185)" fill="#2E368F" stroke="#2E368F" stroke-width="0.75" stroke-miterlimit="10" width="0.6" height="0.6"/>
</g>
<path fill="#2E368F" stroke="#2E368F" stroke-width="0.75" stroke-miterlimit="10" d="M291.8,181.5c-5.2,0-9.4,4.2-9.4,9.4
	c0,5.2,4.2,9.4,9.4,9.4s9.4-4.2,9.4-9.4C301.2,185.7,297,181.5,291.8,181.5z M291.8,199.4c-4.7,0-8.6-3.8-8.6-8.6
	c0-4.7,3.8-8.6,8.6-8.6c4.7,0,8.6,3.8,8.6,8.6C300.4,195.6,296.5,199.4,291.8,199.4z"/>
<circle fill="#2E368F" cx="172" cy="191.1" r="5.2"/>
<path fill="#2E368F" stroke="#2E368F" stroke-width="0.75" stroke-miterlimit="10" d="M172,182.1c-4.9,0-9,4-9,9c0,4.9,4,9,9,9
	c4.9,0,9-4,9-9C180.9,186.1,176.9,182.1,172,182.1z M172,199.2c-4.5,0-8.2-3.7-8.2-8.2c0-4.5,3.7-8.2,8.2-8.2s8.2,3.7,8.2,8.2
	C180.1,195.6,176.5,199.2,172,199.2z"/>
<circle fill="#2E368F" cx="251.6" cy="110.7" r="5.2"/>
<path fill="#2E368F" stroke="#2E368F" stroke-width="0.75" stroke-miterlimit="10" d="M251.6,101.6c-5,0-9.1,4.1-9.1,9.1
	c0,5,4.1,9.1,9.1,9.1s9.1-4.1,9.1-9.1C260.7,105.7,256.6,101.6,251.6,101.6z M251.6,118.9c-4.6,0-8.3-3.7-8.3-8.3
	c0-4.6,3.7-8.3,8.3-8.3c4.6,0,8.3,3.7,8.3,8.3C259.9,115.2,256.2,118.9,251.6,118.9z"/>
<g>
	<path fill="#2E368F" d="M256.5,145.4v3.5h1v-3.9c0-0.2-0.1-0.3-0.2-0.4l-3.3-2.9c-0.1-0.1-0.3-0.1-0.4-0.1h-9.4
		c-0.3,0-0.6,0.3-0.6,0.6v17.4c0,0.3,0.3,0.6,0.6,0.6h12.7c0.3,0,0.6-0.3,0.6-0.6V155h-1v4.2h-11.9v-16.7h8.8v2.9H256.5z"/>
	<g>
		<path fill="#2E368F" d="M252.3,151.2c-0.1,0-0.2,0-0.4,0h-0.2v0.7h0.3c0.2,0,0.3,0,0.4,0c0.1,0,0.1-0.1,0.2-0.1
			c0-0.1,0.1-0.1,0.1-0.2c0-0.1,0-0.2-0.1-0.2C252.4,151.3,252.4,151.2,252.3,151.2z"/>
		<path fill="#2E368F" d="M254.8,151.3c-0.1-0.1-0.1-0.1-0.2-0.1c-0.1,0-0.2,0-0.4,0h-0.2v1.6h0.4c0.1,0,0.2,0,0.3,0
			c0.1,0,0.1-0.1,0.2-0.1c0.1,0,0.1-0.1,0.1-0.2c0-0.1,0-0.3,0-0.4c0-0.2,0-0.3,0-0.4C254.9,151.5,254.8,151.4,254.8,151.3z"/>
		<path fill="#2E368F" d="M258.2,149.6h-7.9c-0.4,0-0.7,0.3-0.7,0.7v3.4c0,0.4,0.3,0.7,0.7,0.7h7.9c0.4,0,0.7-0.3,0.7-0.7v-3.4
			C258.9,149.9,258.6,149.6,258.2,149.6z M253,151.9c-0.1,0.1-0.1,0.2-0.2,0.2c-0.1,0.1-0.2,0.1-0.3,0.1c-0.1,0-0.3,0-0.5,0h-0.3
			v0.9h-0.5v-2.4h0.8c0.3,0,0.5,0,0.6,0c0.1,0,0.3,0.1,0.3,0.2c0.1,0.1,0.1,0.3,0.1,0.5C253.1,151.7,253,151.8,253,151.9z
			 M255.4,152.5c-0.1,0.2-0.1,0.3-0.3,0.4c-0.1,0.1-0.2,0.1-0.3,0.2c-0.1,0-0.3,0.1-0.4,0.1h-0.9v-2.4h0.9c0.2,0,0.4,0,0.5,0
			c0.1,0,0.3,0.1,0.4,0.2c0.1,0.1,0.2,0.2,0.2,0.4c0.1,0.2,0.1,0.3,0.1,0.6C255.5,152.2,255.5,152.4,255.4,152.5z M257.4,151.2h-1.2
			v0.6h1v0.4h-1v1h-0.5v-2.4h1.7V151.2z"/>
	</g>
</g>
<path fill="#2E368F" stroke="#2E368F" stroke-width="0.5" stroke-miterlimit="10" d="M300.8,146c-0.1-0.1-0.4-0.1-0.5,0l-9.1,9.1
	l-2.9-2.9c-0.1-0.1-0.4-0.1-0.5,0s-0.1,0.4,0,0.5l3.1,3.1c0.1,0.1,0.2,0.1,0.3,0.1c0.1,0,0.2,0,0.3-0.1l9.4-9.4
	C300.9,146.4,300.9,146.1,300.8,146z"/>
<path fill="#2E368F" d="M295.1,145.3v3.5h1V145c0-0.2-0.1-0.3-0.2-0.4l-3.2-2.9c-0.1-0.1-0.3-0.1-0.4-0.1h-9.3
	c-0.3,0-0.6,0.3-0.6,0.6v17.2c0,0.3,0.3,0.6,0.6,0.6h12.5c0.3,0,0.6-0.3,0.6-0.6v-4.5h-1v4.2h-11.8v-16.5h8.7v2.9H295.1z"/>
<rect x="126.6" y="149.7" fill="#2E368F" width="9.1" height="0.8"/>
<rect x="126.6" y="152" fill="#2E368F" width="9.1" height="0.8"/>
<rect x="126.6" y="147.4" fill="#2E368F" width="5.3" height="0.8"/>
<rect x="126.6" y="154.3" fill="#2E368F" width="9.1" height="0.8"/>
<path fill="#2E368F" d="M137.2,145.1v10.3h1v-10.7c0-0.2-0.1-0.3-0.2-0.5l-3.4-3.1c-0.1-0.1-0.3-0.2-0.4-0.2h-9.8
	c-0.4,0-0.6,0.3-0.6,0.6v18.3c0,0.4,0.3,0.6,0.6,0.6h13.3c0.4,0,0.6-0.3,0.6-0.6v-4.8h-1v4.4h-12.5v-17.5h9.2v3H137.2z"/>
<g>
	<path fill="#2E368F" d="M44.3,181.7V198h1.1v-15.1h6.9v5.1h5.1v10h1.1v-10.9l-5.4-5.4H44.3z M53.4,186.8v-3.1l3.1,3.1H53.4z"/>
	<polygon fill="#2E368F" points="49.3,197.2 49.3,199.9 53.5,199.9 53.5,197.2 56.3,197.2 51.4,193.3 46.5,197.2 	"/>
</g>
<g>
	<path fill="#2E368F" d="M323.6,140.8v17.9h1.3v-16.6h7.5v5.6h5.6v11h1.3v-11.9l-6-6H323.6z M333.7,146.4v-3.4l3.4,3.4H333.7z"/>
	<polygon fill="#2E368F" points="333.8,156.5 333.8,153.5 329.1,153.5 329.1,156.5 326.1,156.5 331.4,160.8 336.8,156.5 	"/>
</g>
<path fill="#2E368F" d="M359.6,140.8v17.9h1.3v-16.6h7.5v5.6h5.6v11h1.3v-11.9l-6-6H359.6z M369.6,146.4v-3.4l3.4,3.4H369.6z"/>
<path fill="#2E368F" d="M-35.3,181.6v17.5h1.2v-16.3h7.4v5.5h5.5v10.8h1.2v-11.7l-5.8-5.8H-35.3z M-25.4,187v-3.4l3.4,3.4H-25.4z"/>
<path fill="#2E368F" stroke="#2E368F" stroke-width="0.75" stroke-miterlimit="10" d="M12.3,190c-2.6,0-4.6,2.1-4.6,4.6
	c0,2.6,2.1,4.6,4.6,4.6s4.6-2.1,4.6-4.6C17,192,14.9,190,12.3,190z M12.3,198.8c-2.3,0-4.2-1.9-4.2-4.2c0-2.3,1.9-4.2,4.2-4.2
	s4.2,1.9,4.2,4.2C16.6,196.9,14.7,198.8,12.3,198.8z"/>
<path fill="#2E368F" d="M4.9,181.6v17.1h1.2v-15.9h7.2v5.3h5.3v10.6h1.2v-11.4l-5.7-5.7H4.9z M14.5,186.9v-3.3l3.3,3.3H14.5z"/>
<path fill="#2E368F" stroke="#2E368F" stroke-width="0.75" stroke-miterlimit="10" d="M-57.1,189.1c-2.6,0-4.6,2.1-4.6,4.6
	c0,2.6,2.1,4.6,4.6,4.6c2.6,0,4.6-2.1,4.6-4.6C-52.4,191.2-54.5,189.1-57.1,189.1z M-57.1,197.9c-2.3,0-4.2-1.9-4.2-4.2
	c0-2.3,1.9-4.2,4.2-4.2c2.3,0,4.2,1.9,4.2,4.2C-52.9,196-54.8,197.9-57.1,197.9z"/>
<path fill="#2E368F" d="M-64.5,180.7v17.1h1.2v-15.9h7.2v5.3h5.3v10.6h1.2v-11.4l-5.7-5.7H-64.5z M-54.9,186v-3.3l3.3,3.3H-54.9z"/>
<g>
	<path fill="#2E368F" d="M123.7,221.3v17.4h1.2v-16.1h7.3v5.4h5.4v10.7h1.2v-11.6l-5.8-5.8H123.7z M133.5,226.8v-3.3l3.3,3.3H133.5z
		"/>
</g>
<path fill="#2E368F" d="M164.4,221.2v17.6h1.2v-16.4h7.4v5.5h5.5v10.9h1.2V227l-5.9-5.9H164.4z M174.3,226.7v-3.4l3.4,3.4H174.3z"/>
<path fill="#2E368F" stroke="#2E368F" stroke-width="0.75" stroke-miterlimit="10" d="M-53,238.9l-2.1-2.1c1.4-1.5,1.3-3.9-0.2-5.4
	c-1.5-1.5-4-1.5-5.5,0c-1.5,1.5-1.5,4,0,5.5c0.8,0.8,1.8,1.1,2.8,1.1c0.9,0,1.9-0.3,2.6-1l2.1,2.1c0,0,0.1,0.1,0.2,0.1
	s0.1,0,0.2-0.1C-52.9,239.2-52.9,239-53,238.9z M-60.5,236.6c-1.3-1.3-1.3-3.5,0-4.9c0.7-0.7,1.6-1,2.4-1s1.8,0.3,2.4,1
	c1.3,1.3,1.3,3.5,0,4.9C-56.9,238-59.1,238-60.5,236.6z"/>
<path fill="#2E368F" d="M-65.2,221.2v17.6h1.2v-16.4h7.4v5.5h5.5v10.9h1.2V227l-5.9-5.9H-65.2z M-55.3,226.7v-3.4l3.4,3.4H-55.3z"/>
<path fill="#2E368F" d="M-121.9,221.2v17.6h1.2v-16.4h7.4v5.5h5.5v10.9h1.2V227l-5.9-5.9H-121.9z M-112,226.7v-3.4l3.4,3.4H-112z"/>
<path fill="#2E368F" d="M203.9,221.3v17.6h1.2v-16.3h7.4v5.5h5.5v10.8h1.2v-11.7l-5.8-5.8H203.9z M213.8,226.8v-3.4l3.4,3.4H213.8z"
	/>
<path fill="#2E368F" stroke="#2E368F" stroke-width="0.75" stroke-miterlimit="10" d="M211.6,232.8c-2.8,0-4.9,3.3-4.9,3.3
	s2.2,3.2,4.9,3.2c2.8,0,4.9-3.3,4.9-3.3S214.4,232.8,211.6,232.8z M211.6,238.8c-2.4,0-4.2-2.8-4.2-2.8s1.9-2.8,4.2-2.8
	s4.2,2.8,4.2,2.8S214,238.8,211.6,238.8z"/>
<path fill="none" stroke="#2E368F" stroke-width="0.5" stroke-miterlimit="10" d="M211.6,234.6c-0.8,0-1.6,0.6-1.6,1.6
	c0,0.8,0.6,1.6,1.6,1.6c0.8,0,1.6-0.6,1.6-1.6C213.1,235.3,212.4,234.6,211.6,234.6z M211.6,237.2c-0.6,0-1.1-0.5-1.1-1.1
	c0-0.5,0.5-1.2,1.1-1.2s1.1,0.5,1.1,1.1C212.7,236.6,212.2,237.2,211.6,237.2z"/>
<path fill="#2E368F" stroke="#2E368F" stroke-width="0.75" stroke-miterlimit="10" d="M-114.1,231.3c-2.8,0-4.9,3.3-4.9,3.3
	s2.2,3.2,4.9,3.2c2.8,0,4.9-3.3,4.9-3.3S-111.3,231.3-114.1,231.3z M-114.1,237.3c-2.4,0-4.2-2.8-4.2-2.8s1.9-2.8,4.2-2.8
	c2.4,0,4.2,2.8,4.2,2.8S-111.7,237.3-114.1,237.3z"/>
<path fill="none" stroke="#2E368F" stroke-width="0.5" stroke-miterlimit="10" d="M-114.1,233.1c-0.8,0-1.6,0.6-1.6,1.6
	c0,0.8,0.6,1.6,1.6,1.6c0.8,0,1.6-0.6,1.6-1.6C-112.5,233.8-113.3,233.1-114.1,233.1z M-114.1,235.7c-0.6,0-1.1-0.5-1.1-1.1
	c0-0.5,0.5-1.2,1.1-1.2c0.6,0,1.1,0.5,1.1,1.1C-113,235.1-113.5,235.7-114.1,235.7z"/>
<g>
	<g>
		<g>
			<g>
				<polygon fill="#2E368F" points="-29.7,266.3 -33.8,262.3 -37.9,266.3 -35.3,266.3 -35.3,280.8 -32.4,280.8 -32.4,266.3 				"/>
				<rect x="-29.4" y="262.3" fill="#2E368F" width="8.7" height="2.8"/>
				<rect x="-30.2" y="267.4" fill="#2E368F" width="9.5" height="2.8"/>
				<rect x="-30.2" y="272.8" fill="#2E368F" width="9.5" height="2.8"/>
				<rect x="-30.3" y="278" fill="#2E368F" width="9.6" height="2.8"/>
			</g>
		</g>
	</g>
</g>
<g>
	<g>
		<g>
			<g>
				<polygon fill="#2E368F" points="2.8,275.8 6.5,279.5 10.3,275.8 7.9,275.8 7.9,262.5 5.2,262.5 5.2,275.8 				"/>
				<rect x="9.8" y="276.9" fill="#2E368F" width="8.9" height="2.6"/>
				<rect x="9.8" y="272.2" fill="#2E368F" width="9.7" height="2.6"/>
				<rect x="9.8" y="267.2" fill="#2E368F" width="9.7" height="2.6"/>
				<rect x="9.8" y="262.5" fill="#2E368F" width="9.8" height="2.6"/>
			</g>
		</g>
	</g>
</g>
<path fill="#2E368F" d="M283.3,230.6h12.7l-2.7-2.7c-0.2-0.2-0.2-0.6,0-0.8c0.2-0.2,0.6-0.2,0.8,0l3.6,3.6c0.2,0.2,0.2,0.6,0,0.8
	l-3.6,3.6c-0.1,0.1-0.2,0.2-0.4,0.2s-0.3-0.1-0.4-0.2c-0.2-0.2-0.2-0.6,0-0.8l2.7-2.7h-12.7c-0.3,0-0.5-0.2-0.5-0.5
	C282.7,230.8,282.9,230.6,283.3,230.6z M297.6,221.7h-11c-2.1,0-3.9,1.7-3.9,3.9v2.3c0,0.3,0.2,0.5,0.5,0.5s0.5-0.2,0.5-0.5v-2.3
	c0-1.5,1.3-2.8,2.8-2.8h11c1.5,0,2.8,1.3,2.8,2.8v11c0,1.5-1.3,2.8-2.8,2.8h-11c-1.5,0-2.8-1.3-2.8-2.8v-2.3c0-0.3-0.2-0.5-0.5-0.5
	s-0.5,0.2-0.5,0.5v2.3c0,2.1,1.7,3.9,3.9,3.9h11c2.1,0,3.9-1.7,3.9-3.9v-11C301.5,223.5,299.8,221.7,297.6,221.7z"/>
<path fill="#2E368F" d="M292.1,231.1"/>
<path fill="#2E368F" d="M292.1,231.1"/>
<polyline fill="none" stroke="#2E368F" stroke-width="0.95" stroke-miterlimit="10" points="86.5,270.9 88,272.9 90.6,269.7 "/>
<path fill="none" stroke="#2E368F" stroke-width="0.95" stroke-miterlimit="10" d="M96.7,275.2H86.5c-2.1,0-3.8-1.7-3.8-3.8l0,0
	c0-2.1,1.7-3.8,3.8-3.8h10.2c2.1,0,3.8,1.7,3.8,3.8l0,0C100.5,273.5,98.8,275.2,96.7,275.2z"/>
<circle fill="none" stroke="#2E368F" stroke-width="0.95" stroke-miterlimit="10" cx="96.5" cy="271.5" r="2.5"/>
<path fill="none" stroke="#2E368F" stroke-width="0.95" stroke-miterlimit="10" d="M137,275.2h-10.2c-2.1,0-3.8-1.7-3.8-3.8l0,0
	c0-2.1,1.7-3.8,3.8-3.8h10.2c2.1,0,3.8,1.7,3.8,3.8l0,0C140.8,273.5,139.1,275.2,137,275.2z"/>
<circle fill="none" stroke="#2E368F" stroke-width="0.95" stroke-miterlimit="10" cx="127.6" cy="271.5" r="2.5"/>
<g>
	<path fill="#2E368F" d="M178.1,269.4c-0.3,0-0.5,0-0.8-0.1c-0.2,0-0.3-0.2-0.2-0.4c0-0.2,0.2-0.3,0.4-0.2c1.3,0.3,2.6-0.3,3.2-1.5
		c0.3-0.7,0.4-1.5,0.2-2.2c-0.2-0.7-0.8-1.3-1.4-1.7c-0.7-0.3-1.5-0.4-2.2-0.2c-0.7,0.2-1.3,0.8-1.7,1.4c-0.1,0.1-0.3,0.2-0.4,0.1
		c-0.1-0.1-0.2-0.3-0.1-0.4c0.4-0.8,1.1-1.4,2-1.7c0.9-0.3,1.8-0.2,2.7,0.2c0.8,0.4,1.4,1.1,1.7,2c0.3,0.9,0.2,1.8-0.2,2.7
		C180.6,268.7,179.4,269.4,178.1,269.4z M178.1,264.3v3.1 M176.5,265.9h3.1 M178.4,267.5v-1.3h1.2c0.2,0,0.3-0.1,0.3-0.3
		c0-0.2-0.1-0.3-0.3-0.3h-1.2v-1.3c0-0.2-0.1-0.3-0.3-0.3c-0.2,0-0.3,0.1-0.3,0.3v1.3h-1.3c-0.2,0-0.3,0.1-0.3,0.3
		c0,0.2,0.1,0.3,0.3,0.3h1.3v1.3c0,0.2,0.1,0.3,0.3,0.3C178.3,267.8,178.4,267.6,178.4,267.5z"/>
	<g>
		<path fill="#2E368F" d="M170,279c-2.5,0-4.8-1.6-6.1-4.2c-0.4,0-0.9-0.3-1.2-0.9c-0.5-0.9-0.8-2.4-0.4-3.1
			c0.2-0.3,0.4-0.4,0.7-0.4c0,0,0,0,0,0c0.1-2,0.8-3.9,2-5.3c1.3-1.5,3-2.4,4.9-2.4c1.8,0,3.6,0.8,4.9,2.4c1.2,1.4,1.9,3.3,2,5.3
			c0,0,0,0,0,0c0.2,0,0.9,0.1,0.9,1.4c0,1.3-0.7,3-1.7,3.1C174.8,277.4,172.5,279,170,279z M164.1,274.2c0.1,0,0.2,0.1,0.3,0.2
			c1.1,2.5,3.2,4,5.6,4c2.3,0,4.5-1.5,5.6-4c0.1-0.1,0.2-0.2,0.3-0.2c0,0,0,0,0.1,0l0,0c0.6,0,1.2-1.4,1.2-2.5
			c0-0.5-0.1-0.8-0.3-0.8c0,0-0.1,0-0.2,0c-0.1,0-0.2,0-0.3,0c-0.1-0.1-0.1-0.1-0.1-0.2c0-4.1-2.9-7.5-6.3-7.5
			c-3.4,0-6.3,3.3-6.3,7.5c0,0.1-0.1,0.2-0.1,0.2c-0.1,0.1-0.2,0.1-0.3,0c-0.1,0-0.1,0-0.2,0c0,0-0.1,0-0.1,0.1
			c-0.3,0.4-0.1,1.7,0.4,2.5c0.1,0.2,0.4,0.6,0.7,0.6C164,274.2,164.1,274.2,164.1,274.2C164.1,274.2,164.1,274.2,164.1,274.2z"/>
	</g>
	<g>
		<path fill="#2E368F" d="M176.6,270.7c-1.8-0.4-3.6-2.6-4.6-4.4c-0.9,0.8-1.8,1.6-2.8,2.2c-2.5,1.7-5.7,2.2-5.7,2.2
			s0.2-2.5,1.8-4.6c0.7-0.9,1.6-1.8,2.7-2.3c1.6-0.8,3.8-0.6,5.3,0.4c0.4,0.3,0.8,0.6,1.1,1c0.6,0.8,1.1,1.8,1.4,2.7
			c0.3,0.8,0.5,1.6,0.7,2.4C176.5,270.4,176.5,270.6,176.6,270.7z"/>
		<path fill="#2E368F" d="M176.6,271c-1.7-0.4-3.6-2.5-4.7-4.3c-0.7,0.7-1.6,1.3-2.6,2c-2.5,1.7-5.7,2.3-5.8,2.3
			c-0.1,0-0.3-0.2-0.2-0.3c0-0.1,0,0.1,0,0c0-0.1,0.2-2.5,1.8-4.8c0.8-1,1.8-1.9,2.8-2.4c0.7-0.3,1.5-0.5,2.4-0.5
			c1.1,0,2.2,0.3,3.1,0.9c0.4,0.2,0.8,0.6,1.2,1.1c0.6,0.8,1.1,1.8,1.5,2.8c0.3,0.7,0.5,1.5,0.7,2.5c0,0.2,0.1,0.3,0.1,0.5
			c0,0,0,0,0,0.1C176.8,270.9,176.7,271,176.6,271"/>
	</g>
</g>
<path fill="#2E368F" d="M98.1,69.9c-0.3,0-0.5,0-0.8-0.1c-0.2,0-0.3-0.2-0.2-0.4c0-0.2,0.2-0.3,0.4-0.2c1.3,0.3,2.6-0.3,3.2-1.5
	c0.3-0.7,0.4-1.5,0.2-2.2c-0.2-0.7-0.8-1.3-1.5-1.7c-0.7-0.3-1.5-0.4-2.2-0.2c-0.7,0.2-1.3,0.8-1.7,1.5c-0.1,0.1-0.3,0.2-0.4,0.1
	c-0.1-0.1-0.2-0.3-0.1-0.4c0.4-0.8,1.1-1.5,2-1.8c0.9-0.3,1.8-0.2,2.7,0.2c0.8,0.4,1.5,1.1,1.8,2c0.3,0.9,0.2,1.8-0.2,2.7
	C100.6,69.1,99.4,69.9,98.1,69.9z"/>
<g>
	<path fill="#2E368F" d="M89.8,79.6c-2.6,0-4.9-1.6-6.1-4.2c-0.5,0-0.9-0.3-1.2-0.9c-0.5-0.9-0.8-2.4-0.4-3.2
		c0.2-0.3,0.4-0.4,0.7-0.4c0,0,0,0,0,0c0.1-2,0.8-3.9,2.1-5.4c1.3-1.5,3.1-2.4,4.9-2.4c1.9,0,3.6,0.9,4.9,2.4c1.2,1.4,2,3.3,2.1,5.4
		c0,0,0,0,0,0c0.2,0,0.9,0.1,0.9,1.4c0,1.3-0.7,3-1.8,3.1C94.7,78,92.4,79.6,89.8,79.6z M83.9,74.7c0.1,0,0.2,0.1,0.3,0.2
		c1.1,2.5,3.3,4.1,5.7,4.1c2.4,0,4.5-1.6,5.7-4.1c0.1-0.1,0.2-0.2,0.3-0.2c0,0,0,0,0.1,0l0,0c0.6,0,1.2-1.4,1.2-2.5
		c0-0.5-0.1-0.8-0.3-0.8c0,0-0.1,0-0.2,0c-0.1,0-0.2,0-0.3,0s-0.1-0.1-0.1-0.3c0-4.2-2.9-7.5-6.4-7.5c-3.5,0-6.3,3.4-6.4,7.5
		c0,0.1-0.1,0.2-0.1,0.3s-0.2,0.1-0.3,0c-0.1,0-0.1,0-0.2,0c0,0-0.1,0-0.2,0.1c-0.3,0.4-0.1,1.7,0.4,2.6c0.1,0.2,0.4,0.6,0.7,0.6
		C83.8,74.8,83.8,74.8,83.9,74.7C83.9,74.7,83.9,74.7,83.9,74.7z"/>
</g>
<g>
	<path fill="#2E368F" d="M96.5,71.2c-1.8-0.4-3.7-2.6-4.7-4.5c-0.9,0.8-1.9,1.6-2.9,2.3c-2.5,1.7-5.7,2.2-5.7,2.2s0.2-2.5,1.8-4.7
		c0.7-0.9,1.7-1.8,2.7-2.4c1.6-0.8,3.8-0.6,5.3,0.4c0.4,0.3,0.9,0.6,1.2,1c0.6,0.8,1.1,1.8,1.4,2.7c0.3,0.8,0.5,1.6,0.7,2.5
		C96.4,70.9,96.5,71.1,96.5,71.2z"/>
	<path fill="#2E368F" d="M96.5,71.5c-1.8-0.4-3.7-2.5-4.7-4.4c-0.8,0.7-1.6,1.4-2.7,2.1c-2.5,1.7-5.8,2.3-5.9,2.3
		c-0.1,0-0.3-0.2-0.3-0.3c0-0.1,0,0.1,0,0c0-0.1,0.2-2.6,1.9-4.8c0.8-1.1,1.8-1.9,2.8-2.4c0.7-0.3,1.6-0.5,2.4-0.5
		c1.2,0,2.3,0.3,3.1,0.9c0.4,0.2,0.9,0.6,1.2,1.1c0.7,0.8,1.1,1.8,1.5,2.8c0.3,0.7,0.5,1.5,0.8,2.5c0,0.2,0.1,0.3,0.1,0.5
		c0,0,0,0.1,0,0.1C96.7,71.4,96.6,71.5,96.5,71.5"/>
</g>
<path fill="#2E368F" d="M338.6,271.2c-0.2,0-0.5,0-0.7-0.1c-0.2,0-0.2-0.2-0.2-0.3c0-0.2,0.2-0.2,0.3-0.2c1.2,0.3,2.4-0.3,3-1.4
	c0.3-0.6,0.4-1.4,0.1-2.1c-0.2-0.7-0.7-1.2-1.3-1.6c-0.6-0.3-1.4-0.4-2.1-0.1c-0.7,0.2-1.2,0.7-1.6,1.3c-0.1,0.1-0.2,0.2-0.4,0.1
	c-0.1-0.1-0.2-0.2-0.1-0.4c0.4-0.8,1.1-1.4,1.9-1.6c0.8-0.3,1.7-0.2,2.5,0.2c0.8,0.4,1.4,1.1,1.6,1.9c0.3,0.8,0.2,1.7-0.2,2.5
	C341,270.5,339.8,271.2,338.6,271.2z"/>
<g>
	<g>
		<path fill="#2E368F" d="M331,280.1c-2.4,0-4.5-1.5-5.6-3.9c-0.4,0-0.8-0.3-1.1-0.8c-0.5-0.8-0.7-2.3-0.3-2.9
			c0.1-0.2,0.4-0.4,0.6-0.4c0,0,0,0,0,0c0.1-1.9,0.8-3.6,1.9-5c1.2-1.4,2.8-2.2,4.6-2.2c1.7,0,3.3,0.8,4.6,2.2
			c1.1,1.3,1.8,3.1,1.9,5c0,0,0,0,0,0c0.2,0,0.8,0.1,0.8,1.3c0,1.2-0.6,2.8-1.6,2.9C335.5,278.6,333.4,280.1,331,280.1z
			 M325.6,275.7c0.1,0,0.2,0.1,0.3,0.2c1,2.3,3,3.8,5.2,3.8c2.2,0,4.2-1.4,5.2-3.8c0.1-0.1,0.2-0.2,0.3-0.2c0,0,0,0,0.1,0l0,0
			c0.6,0,1.1-1.3,1.1-2.3c0-0.4-0.1-0.7-0.3-0.7c0,0-0.1,0-0.2,0c-0.1,0-0.2,0-0.3,0c-0.1-0.1-0.1-0.1-0.1-0.2c0-3.8-2.7-7-5.9-7
			c-3.2,0-5.9,3.1-5.9,7c0,0.1,0,0.2-0.1,0.2c-0.1,0.1-0.2,0.1-0.3,0c-0.1,0-0.1,0-0.2,0c0,0-0.1,0-0.1,0.1
			c-0.2,0.4-0.1,1.6,0.3,2.4c0.1,0.2,0.4,0.6,0.7,0.6C325.5,275.7,325.5,275.7,325.6,275.7C325.5,275.7,325.6,275.7,325.6,275.7z"/>
	</g>
</g>
<g>
	<g>
		<path fill="#2E368F" d="M337.2,272.4c-1.7-0.3-3.4-2.4-4.3-4.1c-0.8,0.8-1.7,1.4-2.6,2.1c-2.3,1.6-5.3,2-5.3,2s0.2-2.3,1.7-4.3
			c0.6-0.9,1.5-1.7,2.5-2.2c1.5-0.7,3.5-0.6,4.9,0.3c0.4,0.2,0.8,0.6,1.1,0.9c0.6,0.7,1,1.7,1.3,2.5c0.3,0.7,0.5,1.5,0.7,2.3
			C337.1,272.1,337.1,272.3,337.2,272.4z"/>
		<path fill="#2E368F" d="M337.2,272.7c-1.6-0.3-2.8-1.4-3.8-3.2c-0.7,2.1-4.8,2.9-5.7,2.4c-2.3,1.6-2.7,0.7-2.8,0.7
			c-0.1,0-0.2-0.2-0.2-0.3c0-0.1,0,0.1,0,0c0-0.1,0.2-2.4,1.7-4.4c0.7-1,1.6-1.8,2.6-2.2c0.7-0.3,1.4-0.5,2.2-0.5
			c1.1,0,2.1,0.3,2.9,0.8c0.3,0.2,0.8,0.6,1.1,1c0.6,0.8,1,1.7,1.4,2.6c0.3,0.7,0.5,1.4,0.7,2.3c0,0.2,0.1,0.3,0.1,0.4
			c0,0,0,0,0,0.1C337.4,272.5,337.3,272.7,337.2,272.7"/>
	</g>
</g>
<g>
	<g>
		<path fill="#2E368F" d="M325.7,272.5c-1.3,0-2.4-0.8-3-2.1c-0.2,0-0.4-0.2-0.6-0.4c-0.3-0.4-0.4-1.2-0.2-1.6
			c0.1-0.1,0.2-0.2,0.3-0.2c0,0,0,0,0,0c0-1,0.4-1.9,1-2.6c0.6-0.8,1.5-1.2,2.4-1.2c0.9,0,1.8,0.4,2.4,1.2c0.6,0.7,1,1.6,1,2.6
			c0,0,0,0,0,0c0.1,0,0.4,0,0.4,0.7c0,0.6-0.3,1.5-0.9,1.5C328.1,271.7,327,272.5,325.7,272.5z M322.8,270.1c0.1,0,0.1,0,0.1,0.1
			c0.5,1.2,1.6,2,2.8,2c1.2,0,2.2-0.8,2.8-2c0-0.1,0.1-0.1,0.2-0.1c0,0,0,0,0,0l0,0c0.3,0,0.6-0.7,0.6-1.2c0-0.2-0.1-0.4-0.1-0.4
			c0,0-0.1,0-0.1,0c0,0-0.1,0-0.1,0c0,0-0.1-0.1-0.1-0.1c0-2-1.4-3.7-3.1-3.7c-1.7,0-3.1,1.7-3.1,3.7c0,0,0,0.1-0.1,0.1
			c0,0-0.1,0-0.1,0c0,0-0.1,0-0.1,0c0,0,0,0-0.1,0.1c-0.1,0.2-0.1,0.8,0.2,1.3C322.5,269.9,322.6,270.1,322.8,270.1
			C322.8,270.1,322.8,270.1,322.8,270.1C322.8,270.1,322.8,270.1,322.8,270.1z"/>
	</g>
	<g>
		<path fill="#2E368F" d="M329,268.4c-0.9-0.2-1.8-1.3-2.3-2.2c-0.4,0.4-0.9,0.8-1.4,1.1c-1.2,0.8-2.8,1.1-2.8,1.1s0.1-1.2,0.9-2.3
			c0.3-0.5,0.8-0.9,1.3-1.2c0.8-0.4,1.9-0.3,2.6,0.2c0.2,0.1,0.4,0.3,0.6,0.5c0.3,0.4,0.5,0.9,0.7,1.3c0.2,0.4,0.3,0.8,0.4,1.2
			C329,268.2,329,268.3,329,268.4z"/>
		<path fill="#2E368F" d="M329,268.5c-0.9-0.2-1.5-0.8-2-1.7c-0.4,1.1-2.5,1.5-3,1.3c-1.2,0.8-1.4,0.4-1.5,0.4c0,0-0.1-0.1-0.1-0.2
			c0,0,0,0,0,0c0-0.1,0.1-1.3,0.9-2.4c0.4-0.5,0.9-1,1.4-1.2c0.4-0.2,0.8-0.3,1.2-0.3c0.6,0,1.1,0.2,1.5,0.4
			c0.2,0.1,0.4,0.3,0.6,0.5c0.3,0.4,0.5,0.9,0.7,1.4c0.1,0.4,0.3,0.7,0.4,1.2c0,0.1,0,0.2,0,0.2c0,0,0,0,0,0
			C329.1,268.5,329.1,268.5,329,268.5"/>
	</g>
</g>
<g>
	<g>
		<path fill="#2E368F" d="M329,268c-0.9,0-1.8-0.6-2.2-1.6c-0.2,0-0.3-0.1-0.4-0.3c-0.2-0.3-0.3-0.9-0.1-1.2
			c0.1-0.1,0.1-0.2,0.2-0.2c0,0,0,0,0,0c0-0.7,0.3-1.4,0.8-2c0.5-0.6,1.1-0.9,1.8-0.9c0.7,0,1.3,0.3,1.8,0.9c0.5,0.5,0.7,1.2,0.8,2
			c0,0,0,0,0,0c0.1,0,0.3,0,0.3,0.5c0,0.5-0.2,1.1-0.6,1.1C330.8,267.4,330,268,329,268z M326.9,266.2c0,0,0.1,0,0.1,0.1
			c0.4,0.9,1.2,1.5,2.1,1.5c0.9,0,1.7-0.6,2.1-1.5c0,0,0.1-0.1,0.1-0.1c0,0,0,0,0,0l0,0c0.2,0,0.4-0.5,0.4-0.9c0-0.2,0-0.3-0.1-0.3
			c0,0,0,0-0.1,0c0,0-0.1,0-0.1,0c0,0-0.1-0.1-0.1-0.1c0-1.5-1.1-2.8-2.3-2.8c-1.3,0-2.3,1.2-2.3,2.8c0,0,0,0.1-0.1,0.1
			c0,0-0.1,0-0.1,0c0,0,0,0-0.1,0c0,0,0,0-0.1,0c-0.1,0.2-0.1,0.6,0.1,0.9C326.6,266.1,326.7,266.2,326.9,266.2
			C326.8,266.2,326.8,266.2,326.9,266.2C326.8,266.2,326.9,266.2,326.9,266.2z"/>
	</g>
	<g>
		<path fill="#2E368F" d="M331.5,264.9c-0.7-0.1-1.4-1-1.7-1.6c-0.3,0.3-0.7,0.6-1.1,0.8c-0.9,0.6-2.1,0.8-2.1,0.8s0.1-0.9,0.7-1.7
			c0.3-0.3,0.6-0.7,1-0.9c0.6-0.3,1.4-0.2,2,0.1c0.1,0.1,0.3,0.2,0.4,0.4c0.2,0.3,0.4,0.7,0.5,1c0.1,0.3,0.2,0.6,0.3,0.9
			C331.5,264.8,331.5,264.9,331.5,264.9z"/>
		<path fill="#2E368F" d="M331.5,265.1c-0.6-0.1-1.1-0.6-1.5-1.3c-0.3,0.8-1.9,1.1-2.3,1c-0.9,0.6-1.1,0.3-1.1,0.3
			c0,0-0.1-0.1-0.1-0.1c0,0,0,0,0,0c0,0,0.1-0.9,0.7-1.8c0.3-0.4,0.7-0.7,1-0.9c0.3-0.1,0.6-0.2,0.9-0.2c0.4,0,0.8,0.1,1.2,0.3
			c0.1,0.1,0.3,0.2,0.4,0.4c0.2,0.3,0.4,0.7,0.5,1c0.1,0.3,0.2,0.6,0.3,0.9c0,0.1,0,0.1,0,0.2c0,0,0,0,0,0
			C331.6,265,331.5,265.1,331.5,265.1"/>
	</g>
</g>
<g>
	<g>
		<path fill="#2E368F" d="M218,269.4c-0.3,0-0.5,0-0.8-0.1c-0.2,0-0.3-0.2-0.2-0.4c0-0.2,0.2-0.3,0.4-0.2c1.3,0.3,2.6-0.3,3.2-1.5
			c0.3-0.7,0.4-1.5,0.2-2.2c-0.2-0.7-0.8-1.3-1.4-1.7c-0.7-0.3-1.5-0.4-2.2-0.2c-0.7,0.2-1.3,0.8-1.7,1.4c-0.1,0.1-0.3,0.2-0.4,0.1
			c-0.1-0.1-0.2-0.3-0.1-0.4c0.4-0.8,1.1-1.4,2-1.7c0.9-0.3,1.8-0.2,2.7,0.2c0.8,0.4,1.4,1.1,1.7,2c0.3,0.9,0.2,1.8-0.2,2.7
			C220.5,268.7,219.3,269.4,218,269.4z"/>
		<g>
			<path fill="#2E368F" d="M209.9,279c-2.5,0-4.8-1.6-6.1-4.2c-0.4,0-0.9-0.3-1.2-0.9c-0.5-0.9-0.8-2.4-0.4-3.1
				c0.2-0.3,0.4-0.4,0.7-0.4c0,0,0,0,0,0c0.1-2,0.8-3.9,2-5.3c1.3-1.5,3-2.4,4.9-2.4c1.8,0,3.6,0.8,4.9,2.4c1.2,1.4,1.9,3.3,2,5.3
				c0,0,0,0,0,0c0.2,0,0.9,0.1,0.9,1.4c0,1.3-0.7,3-1.7,3.1C214.7,277.4,212.4,279,209.9,279z M204,274.2c0.1,0,0.2,0.1,0.3,0.2
				c1.1,2.5,3.2,4,5.6,4c2.3,0,4.5-1.5,5.6-4c0.1-0.1,0.2-0.2,0.3-0.2c0,0,0,0,0.1,0l0,0c0.6,0,1.2-1.4,1.2-2.5
				c0-0.5-0.1-0.8-0.3-0.8c0,0-0.1,0-0.2,0c-0.1,0-0.2,0-0.3,0c-0.1-0.1-0.1-0.1-0.1-0.2c0-4.1-2.9-7.5-6.3-7.5
				c-3.4,0-6.3,3.3-6.3,7.5c0,0.1-0.1,0.2-0.1,0.2c-0.1,0.1-0.2,0.1-0.3,0c-0.1,0-0.1,0-0.2,0c0,0-0.1,0-0.1,0.1
				c-0.3,0.4-0.1,1.7,0.4,2.5c0.1,0.2,0.4,0.6,0.7,0.6C203.9,274.2,203.9,274.2,204,274.2C204,274.2,204,274.2,204,274.2z"/>
		</g>
		<g>
			<path fill="#2E368F" d="M216.4,270.7c-1.8-0.4-3.6-2.6-4.6-4.4c-0.9,0.8-1.8,1.6-2.8,2.2c-2.5,1.7-5.7,2.2-5.7,2.2
				s0.2-2.5,1.8-4.6c0.7-0.9,1.6-1.8,2.7-2.3c1.6-0.8,3.8-0.6,5.3,0.4c0.4,0.3,0.8,0.6,1.1,1c0.6,0.8,1.1,1.8,1.4,2.7
				c0.3,0.8,0.5,1.6,0.7,2.4C216.4,270.4,216.4,270.6,216.4,270.7z"/>
			<path fill="#2E368F" d="M216.4,271c-1.7-0.4-3.6-2.5-4.7-4.3c-0.7,0.7-1.6,1.3-2.6,2c-2.5,1.7-5.7,2.3-5.8,2.3
				c-0.1,0-0.3-0.2-0.2-0.3c0-0.1,0,0.1,0,0c0-0.1,0.2-2.5,1.8-4.8c0.8-1,1.8-1.9,2.8-2.4c0.7-0.3,1.5-0.5,2.4-0.5
				c1.1,0,2.2,0.3,3.1,0.9c0.4,0.2,0.8,0.6,1.2,1.1c0.6,0.8,1.1,1.8,1.5,2.8c0.3,0.7,0.5,1.5,0.7,2.5c0,0.2,0.1,0.3,0.1,0.5
				c0,0,0,0,0,0.1C216.7,270.9,216.6,271,216.4,271"/>
		</g>
	</g>
</g>
<path fill="#2E368F" stroke="#2E368F" stroke-width="0.5" stroke-miterlimit="10" d="M218.3,265.8l1.2-1.2c0,0,0-0.1,0-0.1
	c0,0-0.1,0-0.1,0L218.3,265.8l-1.3-1.3c0,0-0.1,0-0.1,0c0,0,0,0.1,0,0.1l1.2,1.2l-1.2,1.2c0,0,0,0.1,0,0.1c0,0,0,0,0,0c0,0,0,0,0,0
	L218.3,265.8l1.1,1.3c0,0,0,0,0,0c0,0,0,0,0,0c0,0,0-0.1,0-0.1L218.3,265.8z"/>
<g>
	<g>
		<path fill="#2E368F" stroke="#2E368F" stroke-width="0.15" stroke-miterlimit="10" d="M260.1,263.5l-1.4-1.4
			c-0.4-0.4-1.1-0.4-1.5,0l-7.8,7.7l-1.6,4.5l4.5-1.6l7.8-7.7C260.5,264.6,260.5,263.9,260.1,263.5z M249.2,272.2l0.7-1.8l1.8,1.8
			l-1.8,0.6L249.2,272.2z M250.6,270.5l6.1-6.1l0.4,0.4l-6.1,6.1L250.6,270.5z M250.4,270.4l-0.3-0.4l6.1-6.1l0.3,0.4L250.4,270.4z
			 M251.2,271.1l6.1-6.1l0.4,0.4l-6.1,6.1L251.2,271.1z M256.5,263.6l0.2-0.2l2,2l-0.2,0.2L256.5,263.6z M252.1,272l-0.3-0.4
			l6.1-6.1l0.3,0.4L252.1,272z M259.6,264.5l-0.6,0.6l-2-2l0.6-0.6c0.2-0.2,0.4-0.2,0.6,0l1.4,1.4
			C259.8,264.1,259.8,264.4,259.6,264.5z"/>
	</g>
</g>
<circle fill="#2E368F" cx="291.8" cy="270.8" r="9.1"/>
<path fill="#FFFFFF" stroke="#FFFFFF" stroke-miterlimit="10" d="M292.5,270.8l3.9-3.9c0.1-0.1,0.1-0.2,0-0.3s-0.2-0.1-0.3,0
	l-3.9,3.9l-3.9-3.9c-0.1-0.1-0.2-0.1-0.3,0s-0.1,0.2,0,0.3l3.9,3.9l-3.9,3.9c-0.1,0.1-0.1,0.2,0,0.3c0,0,0.1,0.1,0.2,0.1
	c0.1,0,0.1,0,0.2-0.1l3.9-3.9l3.9,3.9c0,0,0.1,0.1,0.2,0.1s0.1,0,0.2-0.1c0.1-0.1,0.1-0.2,0-0.3L292.5,270.8z"/>
<polygon fill="#2E368F" points="336.8,267.3 338.2,266.5 338.2,266.3 336.4,267.3 338.2,268.3 338.2,268.1 "/>
<path fill="#2E368F" d="M338.9,266.9l0-0.6l-1.7,1l1.7,1l0-0.6c1.8,0,2,1.3,2,1.3C340.9,267.4,339.4,267,338.9,266.9z"/>
<path fill="#2E368F" stroke="#2E368F" stroke-width="0.95" stroke-miterlimit="10" d="M332.1,225.6c-1.7,0-3.3,0.7-4.3,2V226
	c0-0.1-0.1-0.2-0.2-0.2s-0.2,0.1-0.2,0.2v2.1c0,0,0,0,0,0c0,0,0,0,0,0c0,0,0,0,0,0c0,0,0,0,0,0c0,0,0,0,0,0c0,0,0,0,0,0c0,0,0,0,0,0
	c0,0,0,0,0,0c0,0,0,0,0,0c0,0,0,0,0,0h2.1c0.1,0,0.2-0.1,0.2-0.2s-0.1-0.2-0.2-0.2h-1.7c1-1.2,2.5-2,4.1-2c2.9,0,5.3,2.4,5.3,5.3
	c0,2.9-2.4,5.3-5.3,5.3c-1.1,0-2.2-0.3-3.1-1c-0.1-0.1-0.2,0-0.3,0c-0.1,0.1,0,0.2,0,0.3c1,0.7,2.1,1,3.3,1c3.2,0,5.7-2.6,5.7-5.7
	C337.8,228.1,335.2,225.6,332.1,225.6z"/>
<path fill="#2E368F" d="M337.9,69.8c-0.3,0-0.5,0-0.8-0.1c-0.2,0-0.3-0.2-0.2-0.4c0-0.2,0.2-0.3,0.4-0.2c1.3,0.3,2.6-0.3,3.2-1.5
	c0.3-0.7,0.4-1.5,0.2-2.2c-0.2-0.7-0.8-1.3-1.4-1.7c-0.7-0.3-1.5-0.4-2.2-0.2c-0.7,0.2-1.3,0.8-1.7,1.4c-0.1,0.1-0.3,0.2-0.4,0.1
	c-0.1-0.1-0.2-0.3-0.1-0.4c0.4-0.8,1.1-1.4,2-1.7c0.9-0.3,1.8-0.2,2.7,0.2c0.8,0.4,1.4,1.1,1.7,2c0.3,0.9,0.2,1.8-0.2,2.7
	C340.4,69.1,339.2,69.8,337.9,69.8z"/>
<g>
	<path fill="#2E368F" d="M329.7,79.4c-2.5,0-4.8-1.6-6.1-4.2c-0.4,0-0.9-0.3-1.2-0.9c-0.5-0.9-0.8-2.4-0.4-3.1
		c0.2-0.3,0.4-0.4,0.7-0.4c0,0,0,0,0,0c0.1-2,0.8-3.9,2-5.3c1.3-1.5,3-2.4,4.9-2.4c1.8,0,3.6,0.8,4.9,2.4c1.2,1.4,1.9,3.3,2,5.3
		c0,0,0,0,0,0c0.2,0,0.9,0.1,0.9,1.4c0,1.3-0.7,3-1.7,3.1C334.6,77.8,332.3,79.4,329.7,79.4z M323.9,74.6c0.1,0,0.2,0.1,0.3,0.2
		c1.1,2.5,3.2,4,5.6,4c2.3,0,4.5-1.5,5.6-4c0.1-0.1,0.2-0.2,0.3-0.2c0,0,0,0,0.1,0l0,0c0.6,0,1.2-1.4,1.2-2.5c0-0.5-0.1-0.8-0.3-0.8
		c0,0-0.1,0-0.2,0c-0.1,0-0.2,0-0.3,0c-0.1-0.1-0.1-0.1-0.1-0.2c0-4.1-2.9-7.5-6.3-7.5c-3.4,0-6.3,3.3-6.3,7.5
		c0,0.1-0.1,0.2-0.1,0.2c-0.1,0.1-0.2,0.1-0.3,0c-0.1,0-0.1,0-0.2,0c0,0-0.1,0-0.1,0.1c-0.3,0.4-0.1,1.7,0.4,2.5
		c0.1,0.2,0.4,0.6,0.7,0.6C323.8,74.6,323.8,74.6,323.9,74.6C323.8,74.6,323.8,74.6,323.9,74.6z"/>
</g>
<g>
	<path fill="#2E368F" d="M336.3,71.1c-1.8-0.4-3.6-2.6-4.6-4.4c-0.9,0.8-1.8,1.6-2.8,2.2c-2.5,1.7-5.7,2.2-5.7,2.2s0.2-2.5,1.8-4.6
		c0.7-0.9,1.6-1.8,2.7-2.3c1.6-0.8,3.8-0.6,5.3,0.4c0.4,0.3,0.8,0.6,1.1,1c0.6,0.8,1.1,1.8,1.4,2.7c0.3,0.8,0.5,1.6,0.7,2.4
		C336.2,70.8,336.3,71,336.3,71.1z"/>
	<path fill="#2E368F" d="M336.3,71.4c-1.7-0.4-3.6-2.5-4.7-4.3c-0.7,0.7-1.6,1.3-2.6,2c-2.5,1.7-5.7,2.3-5.8,2.3
		c-0.1,0-0.3-0.2-0.2-0.3c0-0.1,0,0.1,0,0c0-0.1,0.2-2.5,1.8-4.8c0.8-1,1.8-1.9,2.8-2.4c0.7-0.3,1.5-0.5,2.4-0.5
		c1.1,0,2.2,0.3,3.1,0.9c0.4,0.2,0.8,0.6,1.2,1.1c0.6,0.8,1.1,1.8,1.5,2.8c0.3,0.7,0.5,1.5,0.7,2.5c0,0.2,0.1,0.3,0.1,0.5
		c0,0,0,0,0,0.1C336.5,71.3,336.4,71.4,336.3,71.4"/>
</g>
<rect x="337.8" y="64.4" transform="matrix(0.5406 0.8413 -0.8413 0.5406 210.9922 -253.7977)" fill="none" stroke="#2E368F" stroke-width="0.5" stroke-miterlimit="10" width="0.2" height="3.9"/>
<path fill="none" stroke="#2E368F" stroke-width="0.5" stroke-miterlimit="10" d="M337.9,64.3c-1.1,0-2,0.9-2,2l0,0c0,1.1,0.9,2,2,2
	c1.1,0,2-0.9,2-2l0,0C339.9,65.2,339,64.3,337.9,64.3L337.9,64.3L337.9,64.3z"/>
<path fill="#2E368F" d="M251.9,63.7c-0.1,0-0.1,0-0.2,0.1l-7.2,11.5c-0.1,0.2,0,0.3,0.2,0.3h14.4c0.2,0,0.3-0.1,0.2-0.3l-7.2-11.5
	C252.1,63.7,252,63.7,251.9,63.7L251.9,63.7z"/>
<path fill="#2E368F" stroke="#2E368F" stroke-width="0.5" stroke-miterlimit="10" d="M202.8,63.4v14.4c0,0.9,0.6,1.6,1.4,1.6h15.5
	c0.8,0,1.4-0.7,1.4-1.6V63.4c0-0.9-0.6-1.6-1.4-1.6h-15.5C203.4,61.8,202.8,62.5,202.8,63.4z M203.6,63.4c0-0.4,0.3-0.7,0.6-0.7
	h15.5c0.3,0,0.6,0.3,0.6,0.7v14.4c0,0.4-0.3,0.7-0.6,0.7h-15.5c-0.3,0-0.6-0.3-0.6-0.7V63.4z"/>
<path fill="#2E368F" stroke="#2E368F" stroke-miterlimit="10" d="M211.9,66.6c-0.1-0.1-0.2-0.1-0.3,0c-0.1,0.1-0.1,0.2,0,0.3
	l3.9,3.9l-3.9,3.9c-0.1,0.1-0.1,0.2,0,0.3c0.1,0.1,0.2,0.1,0.3,0l4-4c0,0,0.1-0.1,0.1-0.2s0-0.1-0.1-0.2L211.9,66.6z"/>
<path fill="#2E368F" stroke="#2E368F" stroke-miterlimit="10" d="M208.9,66.8c-0.1-0.1-0.2-0.1-0.3,0c-0.1,0.1-0.1,0.2,0,0.3
	l3.9,3.9l-3.9,3.9c-0.1,0.1-0.1,0.2,0,0.3c0.1,0.1,0.2,0.1,0.3,0l4-4c0,0,0.1-0.1,0.1-0.2s0-0.1-0.1-0.2L208.9,66.8z"/>
<path fill="#2E368F" stroke="#2E368F" stroke-width="0.5" stroke-miterlimit="10" d="M162.7,63.4v14.4c0,0.9,0.6,1.6,1.4,1.6h15.5
	c0.8,0,1.4-0.7,1.4-1.6V63.4c0-0.9-0.6-1.6-1.4-1.6h-15.5C163.3,61.8,162.7,62.5,162.7,63.4z M163.4,63.4c0-0.4,0.3-0.7,0.6-0.7
	h15.5c0.3,0,0.6,0.3,0.6,0.7v14.4c0,0.4-0.3,0.7-0.6,0.7h-15.5c-0.3,0-0.6-0.3-0.6-0.7V63.4z"/>
<g>
	<path fill="#2E368F" stroke="#2E368F" stroke-miterlimit="10" d="M172.5,66.6c0.1-0.1,0.2-0.1,0.3,0c0.1,0.1,0.1,0.2,0,0.3
		l-3.9,3.9l3.9,3.9c0.1,0.1,0.1,0.2,0,0.3c-0.1,0.1-0.2,0.1-0.3,0l-4-4c0,0-0.1-0.1-0.1-0.2s0-0.1,0.1-0.2L172.5,66.6z"/>
	<path fill="#2E368F" stroke="#2E368F" stroke-miterlimit="10" d="M175.5,66.8c0.1-0.1,0.2-0.1,0.3,0c0.1,0.1,0.1,0.2,0,0.3
		l-3.9,3.9l3.9,3.9c0.1,0.1,0.1,0.2,0,0.3c-0.1,0.1-0.2,0.1-0.3,0l-4-4c0,0-0.1-0.1-0.1-0.2s0-0.1,0.1-0.2L175.5,66.8z"/>
</g>
<path fill="#2E368F" d="M296.7,70.3l-2.8,0.9l1.8,2.4c0.5,0.6,0.3,1.5-0.3,1.9c-0.3,0.2-0.5,0.3-0.8,0.3c-0.4,0-0.9-0.2-1.1-0.6
	l-1.8-2.4l-1.8,2.4c-0.3,0.4-0.7,0.6-1.1,0.6c-0.3,0-0.6-0.1-0.8-0.3c-0.6-0.5-0.8-1.3-0.3-1.9l1.8-2.4l-2.9-0.9
	c-0.7-0.2-1.1-1-0.9-1.8c0.2-0.7,1-1.1,1.8-0.9l2.9,0.9v-3c0-0.8,0.6-1.4,1.4-1.4c0.8,0,1.4,0.6,1.4,1.4v3l2.9-0.9
	c0.7-0.2,1.5,0.2,1.8,0.9C297.8,69.3,297.4,70.1,296.7,70.3z"/>
<path fill="#2E368F" stroke="#2E368F" stroke-width="0.5" stroke-miterlimit="10" d="M137.8,69.5c1.5-1.6,1.5-4.1-0.1-5.7
	c-0.8-0.8-1.8-1.2-2.9-1.2c-1.1,0-2.1,0.4-2.9,1.2l-3.4,3.4c-0.2,0.2-0.2,0.5,0,0.7c0.1,0.1,0.2,0.1,0.3,0.1s0.2,0,0.3-0.1l3.4-3.4
	c1.2-1.2,3.2-1.2,4.3,0c1.2,1.2,1.2,3.2,0,4.3l-8.5,8.5c-0.8,0.8-2.1,0.8-2.9,0c-0.8-0.8-0.8-2.1,0-2.9l6.9-6.9l0,0
	c0.4-0.4,1-0.4,1.4,0c0.2,0.2,0.3,0.4,0.3,0.7c0,0.3-0.1,0.5-0.3,0.7l-6,6c-0.2,0.2-0.2,0.5,0,0.7c0.1,0.1,0.2,0.1,0.3,0.1
	c0.1,0,0.2,0,0.3-0.1l6-6c0.4-0.4,0.6-0.9,0.6-1.4c0-0.5-0.2-1-0.6-1.4c-0.7-0.7-1.9-0.8-2.7-0.1c0,0,0,0,0,0l-7,7
	c-1.2,1.2-1.2,3.1,0,4.2c0.6,0.6,1.4,0.9,2.1,0.9c0.8,0,1.5-0.3,2.1-0.9L137.8,69.5L137.8,69.5L137.8,69.5L137.8,69.5
	C137.8,69.5,137.8,69.5,137.8,69.5z"/>
<title>interface_004-information-detail-window-application</title>
<desc>Created with Sketch.</desc>
<path fill="#2E368F" stroke="#2E368F" stroke-width="0.5" stroke-miterlimit="10" d="M21.6,80.4L21.6,80.4l0-13.6
	c-0.3,0.2-0.5,0.5-0.8,0.7l0,12.1H2.7V66.2h11.1c0.3-0.4,0.7-0.8,1-1.2c0.3-0.4,0.8-0.2,0.9,0.2c0.1,0,0.1,0.1,0.2,0.1c0,0,0,0,0,0
	c1.4,0,2.7,0,4.1,0c0,0,0-0.1,0.1-0.1c-0.1-0.1-0.1-0.3,0-0.5c0.1-0.3,0.3-0.5,0.4-0.8c-0.3,0-0.6-0.1-0.6-0.5c0-0.1-0.1-0.4,0-0.5
	c0,0-0.1,0.4-0.1,0.4c-0.1,0-0.2-0.2-0.3-0.2c-0.1,0-0.1-0.1-0.3,0c-0.2,0.1-0.4,0.3-0.5,0.4c0,0,0,0,0,0c0,0-0.1,0.1-0.1,0.1
	c-0.2,0.1-0.4,0.1-0.5,0c-0.1,0.1-0.2,0.2-0.3,0.4c-0.5,0.5-1.2-0.2-0.7-0.7c0.3-0.3,0.6-0.7,0.9-1H1.9v18.1h19.2l0,0
	C21.3,80.4,21.5,80.4,21.6,80.4L21.6,80.4L21.6,80.4z"/>
<rect x="2.7" y="63.1" fill="#FFFFFF" width="18.1" height="2.4"/>
<rect x="3.5" y="63.8" fill="#2E368F" stroke="#2E368F" stroke-width="0.5" stroke-miterlimit="10" width="0.8" height="0.8"/>
<rect x="5.1" y="63.8" fill="#2E368F" stroke="#2E368F" stroke-width="0.5" stroke-miterlimit="10" width="0.8" height="0.8"/>
<rect x="6.7" y="63.8" fill="#2E368F" stroke="#2E368F" stroke-width="0.5" stroke-miterlimit="10" width="0.8" height="0.8"/>
<path fill="#2E368F" stroke="#2E368F" stroke-width="0.5" stroke-miterlimit="10" d="M61.6,80.4L61.6,80.4l0-13.6
	c-0.3,0.2-0.5,0.5-0.8,0.7l0,12.1H42.7V66.2h11.1c0.3-0.4,0.7-0.8,1-1.2c0.3-0.4,0.8-0.2,0.9,0.2c0.1,0,0.1,0.1,0.2,0.1c0,0,0,0,0,0
	c1.4,0,2.7,0,4.1,0c0,0,0-0.1,0.1-0.1c-0.1-0.1-0.1-0.3,0-0.5c0.1-0.3,0.3-0.5,0.4-0.8c-0.3,0-0.6-0.1-0.6-0.5c0-0.1-0.1-0.4,0-0.5
	c0,0-0.1,0.4-0.1,0.4c-0.1,0-0.2-0.2-0.3-0.2c-0.1,0-0.1-0.1-0.3,0c-0.2,0.1-0.4,0.3-0.5,0.4c0,0,0,0,0,0c0,0-0.1,0.1-0.1,0.1
	c-0.2,0.1-0.4,0.1-0.5,0c-0.1,0.1-0.2,0.2-0.3,0.4c-0.5,0.5-1.2-0.2-0.7-0.7c0.3-0.3,0.6-0.7,0.9-1H41.9v18.1h19.2l0,0
	C61.3,80.4,61.5,80.4,61.6,80.4L61.6,80.4L61.6,80.4z"/>
<rect x="42.7" y="63.1" fill="#FFFFFF" width="18.1" height="2.4"/>
<rect x="45.1" y="63.8" fill="#2E368F" stroke="#2E368F" stroke-width="0.5" stroke-miterlimit="10" width="0.8" height="0.8"/>
<rect x="43.5" y="63.8" fill="#2E368F" stroke="#2E368F" stroke-width="0.5" stroke-miterlimit="10" width="0.8" height="0.8"/>
<rect x="46.7" y="63.8" fill="#2E368F" stroke="#2E368F" stroke-width="0.5" stroke-miterlimit="10" width="0.8" height="0.8"/>
<g>
	<path fill="#2E368F" d="M99.9,64.5c0.2,0.2,0.2,0.5,0,0.7l-0.2,0.2L99,64.7l0.2-0.2C99.4,64.3,99.7,64.3,99.9,64.5z"/>
	<polygon fill="#2E368F" points="96.5,67.2 96.3,68.1 97.2,67.8 99.4,65.6 98.8,64.9 	"/>
</g>
<rect x="15.4" y="64.7" fill="#FFFFFF" width="5" height="1.6"/>
<g>
	<path fill="#2E368F" stroke="#2E368F" stroke-width="0.15" stroke-miterlimit="10" d="M21.3,64.1l-1.4-1.3
		c-0.4-0.4-1.1-0.3-1.4,0.1L11.2,71l-1.4,4.5l4.3-1.8l7.2-8.1C21.7,65.2,21.7,64.5,21.3,64.1z M11.1,73.4l0.5-1.8l1.9,1.7L11.7,74
		L11.1,73.4z M12.3,71.6l5.7-6.4l0.4,0.4L12.7,72L12.3,71.6z M12.2,71.5l-0.4-0.3l5.7-6.4l0.4,0.3L12.2,71.5z M12.9,72.2l5.7-6.4
		l0.4,0.4l-5.7,6.4L12.9,72.2z M17.8,64.5l0.2-0.2l2.1,1.9l-0.2,0.2L17.8,64.5z M13.9,73.1l-0.4-0.3l5.7-6.4l0.4,0.3L13.9,73.1z
		 M20.9,65.2l-0.6,0.6L18.3,64l0.6-0.6c0.1-0.2,0.4-0.2,0.6,0l1.4,1.3C21,64.8,21.1,65,20.9,65.2z"/>
</g>
<path fill="#FFFFFF" d="M59.1,62.3c0,0-0.8,0.9-0.9,1c-0.1,0-2.5,1.2-2.5,1.2s-0.7-0.1-0.7,0.1c0,0.2,0.3,3.6,0.3,3.6l1.3,2.2
	c0,0,2.1-2.1,2.2-2.2c0.1-0.1,2.8-2.2,2.8-2.2L60,63.3L59.1,62.3z"/>
<g>
	<path fill="#2E368F" stroke="#2E368F" stroke-width="0.15" stroke-miterlimit="10" d="M61.1,63.2c0.6,0.6,0.6,1.5,0,2.1L60.4,66
		l-2.1-2.1l0.7-0.7C59.6,62.6,60.5,62.6,61.1,63.2z"/>
	<polygon fill="#2E368F" stroke="#2E368F" stroke-width="0.15" stroke-miterlimit="10" points="50.7,71.5 50,74.3 52.8,73.6 
		59.7,66.7 57.7,64.6 	"/>
</g>
<path fill="#2E368F" stroke="#2E368F" stroke-width="0.75" stroke-miterlimit="10" d="M-55.4,193.5H-57V192c0-0.1-0.1-0.2-0.2-0.2
	c-0.1,0-0.2,0.1-0.2,0.2v1.6h-1.6c-0.1,0-0.2,0.1-0.2,0.2c0,0.1,0.1,0.2,0.2,0.2h1.6v1.6c0,0.1,0.1,0.2,0.2,0.2
	c0.1,0,0.2-0.1,0.2-0.2v-1.6h1.6c0.1,0,0.2-0.1,0.2-0.2C-55.2,193.6-55.3,193.5-55.4,193.5z"/>
<path fill="#2E368F" stroke="#2E368F" stroke-width="0.75" stroke-miterlimit="10" d="M-57.1,161.6c-2.6,0-4.6,2.1-4.6,4.6
	c0,2.6,2.1,4.6,4.6,4.6c2.6,0,4.6-2.1,4.6-4.6C-52.4,163.7-54.5,161.6-57.1,161.6z M-57.1,170.4c-2.3,0-4.2-1.9-4.2-4.2
	c0-2.3,1.9-4.2,4.2-4.2c2.3,0,4.2,1.9,4.2,4.2C-52.9,168.5-54.8,170.4-57.1,170.4z"/>
<path fill="#2E368F" d="M-64.5,153.2v17.1h1.2v-15.9h7.2v5.3h5.3v10.6h1.2v-11.4l-5.7-5.7H-64.5z M-54.9,158.5v-3.3l3.3,3.3H-54.9z"
	/>
<path fill="#2E368F" stroke="#2E368F" stroke-width="0.75" stroke-miterlimit="10" d="M-57.1,31.5c-2.6,0-4.6,2.1-4.6,4.6
	c0,2.6,2.1,4.6,4.6,4.6c2.6,0,4.6-2.1,4.6-4.6C-52.5,33.6-54.6,31.5-57.1,31.5z M-57.1,40.4c-2.3,0-4.2-1.9-4.2-4.2
	c0-2.3,1.9-4.2,4.2-4.2c2.3,0,4.2,1.9,4.2,4.2C-52.9,38.5-54.8,40.4-57.1,40.4z"/>
<path fill="#2E368F" d="M-64.5,23.1v17.1h1.2V24.3h7.2v5.3h5.3v10.6h1.2V28.8l-5.7-5.7H-64.5z M-54.9,28.5v-3.3l3.3,3.3H-54.9z"/>
<g>
	<g>
		<path fill="#2E368F" d="M-52.7,133.9c0.4,0.4,0.4,1,0,1.5l-0.5,0.5l-1.5-1.5l0.5-0.5C-53.7,133.5-53.1,133.5-52.7,133.9z"/>
		<polygon fill="#2E368F" points="-59.9,139.7 -60.4,141.7 -58.5,141.2 -53.6,136.4 -55.1,134.9 		"/>
	</g>
</g>
<path fill="#2E368F" d="M-64.5,124.9v17.1h1.2v-15.9h7.2v5.3h5.3v10.6h1.2v-11.4l-5.7-5.7H-64.5z M-54.9,130.2v-3.3l3.3,3.3H-54.9z"
	/>
<path fill="#2E368F" stroke="#2E368F" stroke-width="0.75" stroke-miterlimit="10" d="M-87.2,223.9c-2.6,0-4.6,2.1-4.6,4.6
	c0,2.6,2.1,4.6,4.6,4.6s4.6-2.1,4.6-4.6C-82.6,226-84.7,223.9-87.2,223.9z M-87.2,232.8c-2.3,0-4.2-1.9-4.2-4.2
	c0-2.3,1.9-4.2,4.2-4.2s4.2,1.9,4.2,4.2C-83,230.9-84.9,232.8-87.2,232.8z"/>
<path fill="#2E368F" stroke="#2E368F" stroke-width="0.75" stroke-miterlimit="10" d="M-85.5,228.4h-1.6v-1.6c0-0.1-0.1-0.2-0.2-0.2
	c-0.1,0-0.2,0.1-0.2,0.2v1.6H-89c-0.1,0-0.2,0.1-0.2,0.2s0.1,0.2,0.2,0.2h1.6v1.6c0,0.1,0.1,0.2,0.2,0.2c0.1,0,0.2-0.1,0.2-0.2v-1.6
	h1.6c0.1,0,0.2-0.1,0.2-0.2S-85.4,228.4-85.5,228.4z"/>
<rect x="366.4" y="152.7" fill="#2E368F" width="6" height="8.1"/>
<polygon fill="#2E368F" points="370.3,150.8 364.4,150.8 364.4,158.9 365.7,158.9 365.7,152.1 370.3,152.1 "/>
<polygon fill="#2E368F" points="368.4,148.8 362.4,148.8 362.4,156.9 363.7,156.9 363.7,150.1 368.4,150.1 "/>
<g>
</g>
<g>
</g>
<g>
</g>
<g>
</g>
<g>
</g>
<g>
</g>
<g>
</g>
<g>
</g>
<g>
</g>
<g>
</g>
<g>
</g>
<g>
</g>
<g>
</g>
<g>
</g>
<g>
</g>
<g>
</g>
<g>
</g>
<g>
</g>
<g>
</g>
<g>
</g>
<g>
</g>
<g>
</g>
<g>
</g>
<g>
</g>
<g>
</g>
<g>
</g>
<g>
</g>
<g>
</g>
<g>
</g>
<g>
</g>
<g>
	<g>
		<path fill="#2E368F" d="M-86,180.4c-5.2,0-9.3,4.2-9.3,9.3c0,5.2,4.2,9.3,9.3,9.3h9.3v-9.3C-76.6,184.5-80.8,180.4-86,180.4z
			 M-86,197.3c-4.2,0-7.6-3.4-7.6-7.6s3.4-7.6,7.6-7.6s7.6,3.4,7.6,7.6S-81.8,197.3-86,197.3z"/>
	</g>
	<path fill="#2E368F" d="M-82.2,189h-3.1v-3.1c0-0.4-0.3-0.7-0.7-0.7c-0.4,0-0.7,0.3-0.7,0.7v3.1h-3.1c-0.4,0-0.7,0.3-0.7,0.7
		c0,0.4,0.3,0.7,0.7,0.7h3.1v3.1c0,0.4,0.3,0.7,0.7,0.7c0.4,0,0.7-0.3,0.7-0.7v-3.1h3.1c0.4,0,0.7-0.3,0.7-0.7
		C-81.5,189.3-81.8,189-82.2,189z"/>
</g>
<path fill="#2E368F" d="M-78.8,223.2v-2.9h-2.9v-1.4h-1.6v1.4h-8.2v-1.4H-93v1.4h-2.9v15.7h2.9v2.9h17.1v-15.7H-78.8z M-94.5,234.8
	v-13h1.5v1.5h1.6v-1.5h8.2v1.5h1.6v-1.5h1.5v13H-94.5z M-77.2,237.7h-14.2v-1.6h12.6v-11.5h1.6V237.7z"/>
<path fill="#2E368F" d="M-79.3,254h-4.3c0-1.4-1.1-2.5-2.5-2.5c-1.4,0-2.5,1.1-2.5,2.5h-4.4v3h13.6V254z M-86,255.3
	c-0.7,0-1.2-0.6-1.2-1.2c0-0.7,0.6-1.2,1.2-1.2c0.7,0,1.2,0.6,1.2,1.2C-84.8,254.7-85.4,255.3-86,255.3z"/>
<g>
	<path fill="#2E368F" d="M-78.4,254v3.7h-15.3V254h-1.1v17.4h17.4V254H-78.4z M-78.3,270.5h-15.5v-11.7h15.5V270.5z"/>
	<rect x="-93.8" y="258.9" fill="#FFFFFF" width="15.5" height="11.7"/>
</g>
<path fill="#2E368F" stroke="#2E368F" stroke-width="0.75" stroke-miterlimit="10" d="M-83.7,262.7c-0.1-0.1-0.2-0.1-0.2,0l-3.6,3.6
	l-1.2-1.2c-0.1-0.1-0.2-0.1-0.2,0c-0.1,0.1-0.1,0.2,0,0.2l1.3,1.3c0,0,0.1,0,0.1,0c0,0,0.1,0,0.1,0l3.8-3.8
	C-83.6,262.9-83.6,262.8-83.7,262.7z"/>
<path fill="#2E368F" stroke="#2E368F" stroke-width="0.75" stroke-miterlimit="10" d="M-86.2,260c-2.6,0-4.6,2.1-4.6,4.6
	c0,2.6,2.1,4.6,4.6,4.6s4.6-2.1,4.6-4.6C-81.5,262.1-83.6,260-86.2,260z M-86.2,268.9c-2.3,0-4.2-1.9-4.2-4.2c0-2.3,1.9-4.2,4.2-4.2
	s4.2,1.9,4.2,4.2C-81.9,267-83.8,268.9-86.2,268.9z"/>
<path fill="#2E368F" d="M-122.8,252.6c-0.7,0-0.7,0-0.7,0.7v16.3c0,0.7,0,0.7,0.7,0.7s0.7,0,0.7-0.7v-16.3
	C-122,252.6-122,252.6-122.8,252.6z"/>
<g>
	<path fill="#2E368F" d="M-105.7,252.9c-5.9-1.5-10.4,1.5-14.9,0v10c4.5,1.5,8.9-1.5,14.9,0l-3-5.2L-105.7,252.9z M-107.9,261.8
		c-4.5-1.1-7.9,1.1-11.3,0v-7.6c3.4,1.1,6.8-1.1,11.3,0l-2.3,3.7L-107.9,261.8z"/>
	<path fill="#FFFFFF" d="M-107.9,254.2c-4.5-1.1-7.9,1.1-11.3,0v7.6c3.4,1.1,6.8-1.1,11.3,0l-2.3-3.9L-107.9,254.2z"/>
</g>
<g>
	<path fill="#2E368F" stroke="#2E368F" stroke-miterlimit="10" d="M-147.2,270.2h-3c-0.9,0-1.7-0.7-1.7-1.7v-8.1
		c0-0.9,0.7-1.7,1.7-1.7h3V270.2z M-150.2,259.3c-0.6,0-1.1,0.5-1.1,1.1v8.1c0,0.6,0.5,1.1,1.1,1.1h2.5v-10.3H-150.2z"/>
	<path fill="#2E368F" stroke="#2E368F" stroke-miterlimit="10" d="M-138.2,270.2h-9.5V259l3.8-5.5c0.4-0.5,1-0.8,1.7-0.8h0.1
		c0.7,0,1.3,0.3,1.7,0.8c0.4,0.5,0.5,1.2,0.3,1.8l-1,3.5h5.1c0.7,0,1.5,0.4,1.9,1c0.6,0.8,0.7,1.8,0.3,3l-1.7,5.1
		C-135.9,268.8-137.1,270.2-138.2,270.2z M-147.2,269.7h9c0.7,0,1.8-1.2,2-2l1.7-5.1c0.3-0.9,0.3-1.8-0.2-2.5
		c-0.3-0.5-0.9-0.8-1.5-0.8h-5.7l1.2-4.2c0.1-0.5,0-1-0.2-1.4c-0.3-0.4-0.7-0.6-1.2-0.6h-0.1c-0.5,0-0.9,0.2-1.2,0.6l-3.8,5.4V269.7
		z"/>
</g>
<path fill="#2E368F" d="M-119.9,226l0.7-0.6l0.7,0.5l0-3.6h-1.3C-119.9,222.3-119.9,226-119.9,226z"/>
<path fill="#2E368F" d="M-18.7,29.9l1-0.9l1.1,0.8l0-5.7h-2.1C-18.7,24.1-18.7,30-18.7,29.9z"/>
<path fill="none" d="M-139.8,202.8c-0.9-0.9-2-1.3-3.1-1.3c-1.1,0-2.3,0.4-3.1,1.3c-1.7,1.7-1.7,4.5,0,6.3c1.7,1.7,4.5,1.7,6.3,0
	C-138.1,207.3-138.1,204.5-139.8,202.8z"/>
<path fill="#2E368F" d="M-92.6,133.1c0-0.3,0.2-0.5,0.5-0.5h12.6l-2.7-2.7c-0.2-0.2-0.2-0.6,0-0.8c0.1-0.1,0.2-0.2,0.4-0.2
	c0.1,0,0.3,0.1,0.4,0.2l3.6,3.6c0.2,0.2,0.2,0.6,0,0.8l-3.6,3.6c-0.2,0.2-0.6,0.2-0.8,0c-0.2-0.2-0.2-0.6,0-0.8l2.7-2.7h-12.6
	C-92.4,133.7-92.6,133.4-92.6,133.1z"/>
<path fill="#2E368F" d="M-92.4,142.5h10.9c2.1,0,3.9-1.7,3.9-3.9v-2.3c0-0.3-0.2-0.5-0.5-0.5s-0.5,0.2-0.5,0.5v2.3
	c0,1.5-1.3,2.8-2.8,2.8h-10.9c-1.5,0-2.8-1.3-2.8-2.8v-10.9c0-1.5,1.3-2.8,2.8-2.8h10.9c1.5,0,2.8,1.3,2.8,2.8v2.2
	c0,0.3,0.2,0.5,0.5,0.5s0.5-0.2,0.5-0.5v-2.2c0-2.1-1.7-3.9-3.9-3.9h-10.9c-2.1,0-3.9,1.7-3.9,3.9v10.9
	C-96.3,140.7-94.6,142.5-92.4,142.5z"/>
<path fill="#2E368F" d="M-86.9,133.1"/>
<path fill="#2E368F" d="M-86.9,133.1"/>
<g>
	<path fill="#2E368F" stroke="#2E368F" stroke-width="0.25" stroke-miterlimit="10" d="M-87.6,96.3c2.6,0,4.7,2.1,4.7,4.7
		c0,0.9-0.3,1.8-0.8,2.6l0,0l0,0l-2,4h-3.7l-2.2-4l0,0l0,0c-0.5-0.8-0.8-1.6-0.8-2.6C-92.3,98.5-90.2,96.3-87.6,96.3 M-87.6,95.7
		c-3,0-5.4,2.4-5.4,5.4c0,1.1,0.3,2.1,0.9,2.9l0,0l2.4,4.4h4.5l2.2-4.4l0,0c0.5-0.8,0.9-1.8,0.9-2.9C-82.2,98.1-84.6,95.7-87.6,95.7
		L-87.6,95.7z"/>
	<path fill="#2E368F" stroke="#2E368F" stroke-width="0.25" stroke-miterlimit="10" d="M-90.2,100.7h-0.7c0-1.6,1.3-2.9,2.9-2.9v0.7
		C-89.2,98.5-90.2,99.5-90.2,100.7z"/>
	<rect x="-89.8" y="108.8" fill="#2E368F" stroke="#2E368F" stroke-width="0.25" stroke-miterlimit="10" width="4.5" height="0.8"/>
	<rect x="-89.8" y="110" fill="#2E368F" stroke="#2E368F" stroke-width="0.25" stroke-miterlimit="10" width="4.5" height="0.8"/>
	<rect x="-89.8" y="111.2" fill="#2E368F" stroke="#2E368F" stroke-width="0.25" stroke-miterlimit="10" width="4.5" height="0.8"/>
	<rect x="-88.8" y="112.4" fill="#2E368F" stroke="#2E368F" stroke-width="0.25" stroke-miterlimit="10" width="2.7" height="0.8"/>
</g>
<path fill="none" d="M-113.7,131h-3.1c-0.4,0-0.7-0.3-0.7-0.7v-3.4c-3.1,1-5.4,3.9-5.4,7.4c0,4.3,3.5,7.7,7.7,7.7s7.7-3.5,7.7-7.7
	c0-3.5-2.3-6.4-5.4-7.4v3.4C-113,130.7-113.3,131-113.7,131z"/>
<path fill="#12A049" stroke="#12A049" stroke-width="0.45" stroke-miterlimit="10" d="M-113,126.1v0.8c3.1,1,5.4,3.9,5.4,7.4
	c0,4.3-3.5,7.7-7.7,7.7s-7.7-3.5-7.7-7.7c0-3.5,2.3-6.4,5.4-7.4v-0.8c-3.6,1-6.2,4.3-6.2,8.1c0,4.7,3.8,8.5,8.5,8.5
	c4.7,0,8.5-3.8,8.5-8.5C-106.8,130.3-109.4,127.1-113,126.1z"/>
<path fill="#12A049" d="M-113.5,130c0,0.3-0.3,0.6-0.6,0.6h-2.4c-0.3,0-0.6-0.3-0.6-0.6v-5c0-0.3,0.3-0.6,0.6-0.6h2.4
	c0.3,0,0.6,0.3,0.6,0.6V130z"/>
<path fill="none" d="M-135.5,131h-3.1c-0.4,0-0.7-0.3-0.7-0.7v-3.4c-3.1,1-5.4,3.9-5.4,7.4c0,4.3,3.5,7.7,7.7,7.7
	c4.3,0,7.7-3.5,7.7-7.7c0-3.5-2.3-6.4-5.4-7.4v3.4C-134.7,130.7-135.1,131-135.5,131z"/>
<path fill="#EF3C24" stroke="#EF3C24" stroke-width="0.45" stroke-miterlimit="10" d="M-134.7,126.1v0.8c3.1,1,5.4,3.9,5.4,7.4
	c0,4.3-3.5,7.7-7.7,7.7c-4.3,0-7.7-3.5-7.7-7.7c0-3.5,2.3-6.4,5.4-7.4v-0.8c-3.6,1-6.2,4.3-6.2,8.1c0,4.7,3.8,8.5,8.5,8.5
	c4.7,0,8.5-3.8,8.5-8.5C-128.6,130.3-131.2,127.1-134.7,126.1z"/>
<path fill="#EF3C24" d="M-135.3,130c0,0.3-0.3,0.6-0.6,0.6h-2.4c-0.3,0-0.6-0.3-0.6-0.6v-5c0-0.3,0.3-0.6,0.6-0.6h2.4
	c0.3,0,0.6,0.3,0.6,0.6V130z"/>
<path fill="#2E368F" stroke="#2E368F" stroke-width="0.5" stroke-miterlimit="10" d="M-143,213.8c-4.4,0-8-3.6-8-8c0-4.4,3.6-8,8-8
	s8,3.6,8,8c0,2.1-0.8,4.1-2.2,5.5l0.5,0.5c1.5-1.6,2.4-3.7,2.4-6c0-4.8-3.9-8.8-8.8-8.8s-8.8,3.9-8.8,8.8c0,4.8,3.9,8.8,8.8,8.8
	c2.3,0,4.4-0.9,5.9-2.3l-0.5-0.5C-139,213-140.9,213.8-143,213.8z"/>
<path fill="#FFFFFF" stroke="#FFFFFF" stroke-miterlimit="10" d="M-139.4,212.4c0,0,1.2-0.4,2.7-2.8l2.1,1.5l0.3,1.6l-3.2,2.2
	l-0.8-0.9L-139.4,212.4z"/>
<path fill="#2E368F" stroke="#2E368F" stroke-width="0.75" stroke-miterlimit="10" d="M-136,237.8l-3.1-3.1c2-2.2,1.9-5.6-0.2-7.7
	c-2.2-2.2-5.8-2.2-8-0.1c-2.2,2.2-2.2,5.8-0.1,8c1.1,1.1,2.5,1.7,4,1.7c1.3,0,2.7-0.5,3.7-1.4l3.1,3.1c0.1,0.1,0.1,0.1,0.2,0.1
	c0.1,0,0.2,0,0.2-0.1C-135.9,238.1-135.9,237.9-136,237.8z M-146.8,234.4c-1.9-2-1.9-5.1,0-7c1-1,2.3-1.4,3.5-1.4s2.5,0.5,3.5,1.5
	c1.9,2,1.9,5.1,0,7C-141.7,236.4-144.8,236.4-146.8,234.4z"/>
<g>
	<path fill="#2E368F" stroke="#2E368F" stroke-width="0.75" stroke-miterlimit="10" d="M-136.3,211.9l-2.8-2.8c1.8-2,1.7-5.1-0.2-7
		c-2-2-5.2-2-7.2,0c-1.9,1.9-2,4.8-0.4,6.8c0,0,0.1-0.1,0.1-0.1c0.1-0.1,0.2-0.1,0.3-0.1c0,0,0.1-0.1,0.1-0.1
		c-1.4-1.8-1.3-4.4,0.3-6c0.9-0.9,2-1.3,3.2-1.3c1.2,0,2.3,0.4,3.2,1.3c1.8,1.8,1.8,4.6,0,6.4c-1.1,1.1-2.7,1.5-4.2,1.2
		c-0.1,0.2-0.2,0.4-0.4,0.5c0.5,0.1,0.9,0.2,1.4,0.2c1.2,0,2.4-0.4,3.4-1.3l2.8,2.8c0.1,0.1,0.1,0.1,0.2,0.1s0.2,0,0.2-0.1
		C-136.2,212.2-136.2,212-136.3,211.9z"/>
	<path fill="#2E368F" stroke="#2E368F" stroke-width="0.95" stroke-miterlimit="10" d="M-147.8,205.2c-0.2,1.5,0.2,3,1.2,4.1
		l-1.4-0.2c-0.1,0-0.2,0.1-0.2,0.1c0,0.1,0.1,0.2,0.1,0.2l1.9,0.3c0,0,0,0,0,0c0,0,0,0,0,0c0,0,0,0,0,0c0,0,0,0,0,0c0,0,0,0,0,0
		c0,0,0,0,0,0c0,0,0,0,0,0c0,0,0,0,0,0c0,0,0,0,0,0c0,0,0,0,0,0l0.3-1.9c0-0.1-0.1-0.2-0.1-0.2s-0.2,0.1-0.2,0.1l-0.2,1.5
		c-1-1.1-1.4-2.5-1.2-3.9c0.4-2.6,2.8-4.4,5.4-4c2.6,0.4,4.4,2.8,4,5.4c-0.1,1-0.6,1.9-1.3,2.6c-0.1,0.1-0.1,0.2,0,0.2
		c0.1,0.1,0.2,0.1,0.2,0c0.7-0.8,1.2-1.7,1.4-2.8c0.4-2.8-1.5-5.4-4.3-5.8C-144.8,200.4-147.4,202.4-147.8,205.2z"/>
</g>
<path fill="none" stroke="#B2B1B2" stroke-width="0.25" stroke-miterlimit="10" d="M-350.7,167.9v92.3h103.7
	C-247.1,260.3-350.7,165.7-350.7,167.9z"/>
<g>
	<path fill="#2E368F" stroke="#2E368F" stroke-width="0.5" stroke-miterlimit="10" d="M13.8,193.1c0.1-0.1,0.1-0.1,0-0.2
		c-0.1-0.1-0.1-0.1-0.2,0l-2,2l0.2,0.2L13.8,193.1z"/>
	<path fill="#2E368F" stroke="#2E368F" stroke-width="0.5" stroke-miterlimit="10" d="M10.6,196.2l-1-1c-0.1-0.1-0.1-0.1-0.2,0
		c-0.1,0.1-0.1,0.1,0,0.2l1.1,1.1c0,0,0.1,0,0.1,0c0,0,0.1,0,0.1,0l0.1-0.1L10.6,196.2L10.6,196.2z"/>
	<path fill="#2E368F" stroke="#2E368F" stroke-width="0.5" stroke-miterlimit="10" d="M10.9,195.1c-0.1-0.1-0.1-0.1-0.2,0
		c-0.1,0.1-0.1,0.1,0,0.2l0.4,0.4l0.2-0.2L10.9,195.1z"/>
	<path fill="#2E368F" stroke="#2E368F" stroke-width="0.5" stroke-miterlimit="10" d="M15.1,193c-0.1-0.1-0.1-0.1-0.2,0l-3.1,3.1
		l-0.4-0.4l-0.2,0.2l0.5,0.5c0,0,0.1,0,0.1,0c0,0,0.1,0,0.1,0l3.2-3.2C15.1,193.1,15.1,193,15.1,193z"/>
	
		<rect x="11.1" y="195.6" transform="matrix(0.7074 -0.7068 0.7068 0.7074 -135.0213 65.2314)" fill="#2E368F" stroke="#2E368F" stroke-width="0.5" stroke-miterlimit="10" width="0.3" height="0.3"/>
</g>
<g>
	<path fill="#2E368F" stroke="#2E368F" stroke-width="0.15" stroke-miterlimit="10" d="M141.4,38.8c0,0.7-0.8,1.3-1.7,1.3H124
		c-0.9,0-1.7-0.6-1.7-1.3c0-0.7,0.8-1.3,1.7-1.3h15.7C140.7,37.5,141.4,38.1,141.4,38.8z"/>
	<path fill="#2E368F" stroke="#2E368F" stroke-width="0.15" stroke-miterlimit="10" d="M141.4,38.8c0,0.7-0.8,1.3-1.7,1.3H124
		c-0.9,0-1.7-0.6-1.7-1.3c0-0.7,0.8-1.3,1.7-1.3h15.7C140.7,37.5,141.4,38.1,141.4,38.8z"/>
</g>
<g>
	<path fill="#2E398E" stroke="#2E398E" stroke-width="0.45" stroke-miterlimit="10" d="M-57.1,39.1c0.2,0,0.3-0.1,0.3-0.3v-3.6
		c0-0.2-0.1-0.3-0.3-0.3s-0.3,0.2-0.3,0.3v3.6C-57.3,39-57.2,39.1-57.1,39.1z"/>
	<path fill="#2E398E" stroke="#2E398E" stroke-width="0.45" stroke-miterlimit="10" d="M-57.1,34.3c0.2,0,0.3-0.1,0.3-0.3v-0.5
		c0-0.2-0.1-0.3-0.3-0.3c-0.2,0-0.3,0.1-0.3,0.3V34C-57.4,34.1-57.3,34.3-57.1,34.3z"/>
</g>
<path fill="#2E368F" d="M-20.7,23.1v17.1h1.2V24.3h7.2v5.3h5.3v10.6h1.2V28.8l-5.7-5.7H-20.7z M-11.1,28.5v-3.3l3.3,3.3H-11.1z"/>
<path fill="none" stroke="#2E368F" stroke-miterlimit="10" d="M-29.6,34.7l0-5.9c0-0.4-0.3-0.6-0.6-0.6l-5.9,0c-0.2,0-0.3,0-0.4,0.1
	c-0.1,0.1-0.2,0.3-0.2,0.4c0,0,0,0.3,0,0.3c0,0.2,0.3,0.4,0.5,0.5l-0.3-0.3l2.3,2.3l-4,4l-0.9-0.9l-0.1,0c0,0-0.1-0.1-0.2,0
	c-0.2,0.1-0.2,0.2-0.2,0.3l0,3c0,0.2,0.1,0.3,0.3,0.3h3c0.1,0,0.2,0,0.2-0.1c0,0,0.1,0,0.1-0.1c0,0,0.2-0.1,0.2-0.1
	c0-0.1-0.4-0.4-0.4-0.5l0.2,0.2l-0.8-0.8l4-4l2.5,2.5l0,0c0.1,0,0.2,0,0.3,0C-29.9,35.4-29.6,35.1-29.6,34.7z"/>
<rect x="-17.4" y="31" fill="#2E368F" width="8.4" height="0.7"/>
<rect x="-17.4" y="32.4" fill="#2E368F" width="8.4" height="0.7"/>
<rect x="-17.4" y="33.8" fill="#2E368F" width="8.4" height="0.7"/>
<rect x="-17.4" y="35.3" fill="#2E368F" width="8.4" height="0.7"/>
<rect x="-17.4" y="36.7" fill="#2E368F" width="8.4" height="0.7"/>
<rect x="-17.4" y="38.1" fill="#2E368F" width="8.4" height="0.7"/>
<g>
	<path fill="#2E368F" d="M53,27.7l0.8-0.7l0.8,0.6l0-4.2H53C53,23.5,53,27.8,53,27.7z"/>
	<path fill="#2E368F" d="M51.6,22.8v12.5h0.9V23.6h5.3v3.9h3.9v7.7h0.9v-8.3l-4.2-4.2H51.6z M58.6,26.7v-2.4l2.4,2.4H58.6z"/>
	<rect x="54" y="28.5" fill="#2E368F" width="6.1" height="0.5"/>
	<rect x="54" y="29.6" fill="#2E368F" width="6.1" height="0.5"/>
	<rect x="54" y="30.6" fill="#2E368F" width="6.1" height="0.5"/>
	<rect x="54" y="31.6" fill="#2E368F" width="6.1" height="0.5"/>
	<rect x="54" y="32.7" fill="#2E368F" width="6.1" height="0.5"/>
	<rect x="54" y="33.7" fill="#2E368F" width="6.1" height="0.5"/>
</g>
<rect x="4.7" y="31" fill="#2E368F" width="8.4" height="0.7"/>
<rect x="4.7" y="32.5" fill="#2E368F" width="8.4" height="0.7"/>
<rect x="4.7" y="33.9" fill="#2E368F" width="8.4" height="0.7"/>
<rect x="4.7" y="35.3" fill="#2E368F" width="8.4" height="0.7"/>
<rect x="4.7" y="36.7" fill="#2E368F" width="8.4" height="0.7"/>
<rect x="4.7" y="38.1" fill="#2E368F" width="8.4" height="0.7"/>
<path fill="#2E368F" d="M3.4,29.9l1-0.9l1.1,0.8l0-5.7H3.4C3.4,24.1,3.4,30,3.4,29.9z"/>
<path fill="#2E368F" d="M1.5,23.1v17.1h1.2V24.3h7.2v5.4h5.4v10.6h1.2V28.8l-5.7-5.7H1.5z M11.1,28.5v-3.3l3.3,3.3H11.1z"/>
<rect x="-53.3" y="-75.6" fill="none" width="100.5" height="89.7"/>
<text transform="matrix(1 0 0 1 -53.2619 -58.4194)"><tspan x="0" y="0" font-family="'HelveticaNeue'" font-size="9">2) Resume IDS</tspan><tspan x="0" y="10.8" font-family="'HelveticaNeue'" font-size="9">3) </tspan><tspan x="0" y="21.6" font-family="'HelveticaNeue'" font-size="9">4) Email Response</tspan><tspan x="0" y="32.4" font-family="'HelveticaNeue'" font-size="9">5) File IDS</tspan><tspan x="0" y="43.2" font-family="'HelveticaNeue'" font-size="9">6) </tspan><tspan x="0" y="54" font-family="'HelveticaNeue'" font-size="9">7) Filling Package</tspan></text>
<circle fill="#FFFFFF" cx="14.4" cy="36.7" r="4.3"/>
<circle fill="#FFFFFF" cx="14.3" cy="36.6" r="5.7"/>
<g>
	<g>
		<path fill="#2E368F" d="M16.9,34.4c0.3,0.3,0.3,0.7,0,0.9l-0.3,0.3l-0.9-0.9l0.3-0.3C16.2,34.1,16.6,34.1,16.9,34.4z"/>
		<polygon fill="#2E368F" points="12.3,38 12,39.2 13.2,38.9 16.3,35.9 15.3,35 		"/>
	</g>
</g>
<path fill="#2E368F" stroke="#2E368F" stroke-width="0.75" stroke-miterlimit="10" d="M14.3,32c-2.6,0-4.6,2.1-4.6,4.6
	c0,2.6,2.1,4.6,4.6,4.6s4.6-2.1,4.6-4.6C19,34.1,16.9,32,14.3,32z M14.3,40.9c-2.3,0-4.2-1.9-4.2-4.2c0-2.3,1.9-4.2,4.2-4.2
	s4.2,1.9,4.2,4.2C18.6,39,16.7,40.9,14.3,40.9z"/>
<rect x="4.7" y="8.7" fill="#2E368F" width="8.4" height="0.7"/>
<rect x="4.7" y="10.1" fill="#2E368F" width="8.4" height="0.7"/>
<rect x="4.7" y="11.6" fill="#2E368F" width="8.4" height="0.7"/>
<rect x="4.7" y="13" fill="#2E368F" width="8.4" height="0.7"/>
<rect x="4.7" y="14.4" fill="#2E368F" width="8.4" height="0.7"/>
<rect x="4.7" y="15.8" fill="#2E368F" width="8.4" height="0.7"/>
<path fill="#2E368F" d="M3.4,7.6l1-0.9l1.1,0.8l0-5.7H3.4C3.4,1.8,3.4,7.7,3.4,7.6z"/>
<path fill="#2E368F" d="M1.5,0.8v17.1h1.2V2h7.2v5.4h5.4v10.6h1.2V6.5l-5.7-5.7H1.5z M11.1,6.2V2.9l3.3,3.3H11.1z"/>
<circle fill="#FFFFFF" cx="14.4" cy="14.4" r="4.3"/>
<circle fill="#FFFFFF" cx="14.3" cy="14.3" r="5.7"/>
<path fill="#2E368F" stroke="#2E368F" stroke-width="0.75" stroke-miterlimit="10" d="M14.3,9.6c-2.6,0-4.6,2.1-4.6,4.6
	c0,2.6,2.1,4.6,4.6,4.6s4.6-2.1,4.6-4.6C19,11.7,16.9,9.6,14.3,9.6z M14.3,18.5c-2.3,0-4.2-1.9-4.2-4.2c0-2.3,1.9-4.2,4.2-4.2
	s4.2,1.9,4.2,4.2C18.6,16.6,16.7,18.5,14.3,18.5z"/>
<rect x="27" y="31" fill="#2E368F" width="8.4" height="0.7"/>
<rect x="27" y="32.5" fill="#2E368F" width="8.4" height="0.7"/>
<rect x="27" y="33.9" fill="#2E368F" width="8.4" height="0.7"/>
<rect x="27" y="35.3" fill="#2E368F" width="8.4" height="0.7"/>
<rect x="27" y="36.7" fill="#2E368F" width="8.4" height="0.7"/>
<rect x="27" y="38.1" fill="#2E368F" width="8.4" height="0.7"/>
<path fill="#2E368F" d="M25.7,29.9l1-0.9l1.1,0.8l0-5.7h-2.1C25.7,24.1,25.7,30,25.7,29.9z"/>
<path fill="#2E368F" d="M23.7,23.1v17.1h1.2V24.3h7.2v5.4h5.4v10.6h1.2V28.8L33,23.1H23.7z M33.3,28.5v-3.3l3.3,3.3H33.3z"/>
<circle fill="#FFFFFF" cx="36.7" cy="36.7" r="4.3"/>
<circle fill="#FFFFFF" cx="36.5" cy="36.6" r="5.7"/>
<path fill="#2E368F" stroke="#2E368F" stroke-width="0.75" stroke-miterlimit="10" d="M36.6,32c-2.6,0-4.6,2.1-4.6,4.6
	c0,2.6,2.1,4.6,4.6,4.6c2.6,0,4.6-2.1,4.6-4.6C41.2,34.1,39.1,32,36.6,32z M36.6,40.9c-2.3,0-4.2-1.9-4.2-4.2c0-2.3,1.9-4.2,4.2-4.2
	s4.2,1.9,4.2,4.2C40.8,39,38.9,40.9,36.6,40.9z"/>
<path fill="none" stroke="#2E368F" stroke-width="0.55" stroke-miterlimit="10" d="M38.8,37.3l0-2.6c0-0.2-0.1-0.3-0.3-0.3l-2.6,0
	c-0.1,0-0.1,0-0.2,0c0,0-0.1,0.1-0.1,0.2c0,0,0,0.1,0,0.1c0,0.1,0.2,0.2,0.2,0.2l-0.1-0.1l1,1L35,37.7l-0.4-0.4l0,0c0,0,0,0-0.1,0
	c-0.1,0-0.1,0.1-0.1,0.2l0,1.3c0,0.1,0.1,0.1,0.1,0.1h1.3c0,0,0.1,0,0.1,0c0,0,0,0,0,0c0,0,0.1,0,0.1,0c0,0-0.2-0.2-0.2-0.2l0.1,0.1
	l-0.4-0.4l1.7-1.7l1.1,1.1l0,0c0,0,0.1,0,0.1,0C38.7,37.6,38.8,37.5,38.8,37.3z"/>
<rect x="139.7" y="-16.2" fill="none" width="0" height="2.7"/>
<rect x="139.7" y="-24.4" fill="none" width="0" height="2.7"/>
<rect x="139.7" y="-20.3" fill="none" width="0" height="2.7"/>
<rect x="139.7" y="-12.1" fill="none" width="0" height="2.7"/>
<rect x="139.7" y="-8" fill="none" width="0" height="2.7"/>
<rect x="139.7" y="-3.9" fill="none" width="0" height="2.7"/>
<rect x="139.7" y="0.3" fill="none" width="0" height="5.6"/>
<path fill="none" d="M139.7-27.2v1.4h0v-2.7h-0.2C139.7-28.1,139.7-27.7,139.7-27.2z"/>
<title>folder_2</title>
<description>Created with Sketch (http://www.bohemiancoding.com/sketch)</description>
<polygon fill="#2E368F" points="51.3,28.8 50.3,28.8 50.3,27.8 44.8,27.8 45.3,41.2 46.2,41.2 46.2,29.9 51.3,29.9 "/>
<polygon fill="#F9F9FA" stroke="#2E368F" stroke-miterlimit="10" points="62.8,30.9 62.8,30.9 51.4,30.9 51.4,30.9 47.6,30.9 
	46.6,41.2 61.4,41.2 63.8,30.9 "/>
<g>
	<path fill="#2E368F" stroke="#2E368F" stroke-width="0.5" stroke-miterlimit="10" d="M84.8,28H67.7h-0.4v11.4h17.7V28H84.8z
		 M73.5,33.6l2.8,2.3l2.6-2.2l5.1,5.1H68.3L73.5,33.6z M68,38.2V29l5,4.2L68,38.2z M79.4,33.3l5.1-4.2v9.3L79.4,33.3z M84,28.7
		l-7.7,6.4l-7.7-6.4H84z"/>
</g>
<circle fill="#FFFFFF" cx="81.4" cy="36.4" r="4.2"/>
<circle fill="#FFFFFF" cx="81.3" cy="36.4" r="5.6"/>
<path fill="#2E368F" stroke="#2E368F" stroke-width="0.75" stroke-miterlimit="10" d="M81.3,31.8c-2.5,0-4.5,2-4.5,4.5
	c0,2.5,2,4.5,4.5,4.5s4.5-2,4.5-4.5C85.9,33.9,83.8,31.8,81.3,31.8z M81.3,40.5c-2.3,0-4.1-1.9-4.1-4.1c0-2.3,1.9-4.1,4.1-4.1
	s4.1,1.9,4.1,4.1C85.5,38.6,83.6,40.5,81.3,40.5z"/>
<path fill="#2E368F" d="M81,35.1l0-1l-2.6,1.5l2.6,1.5l0-0.9c2.8,0,3,2,3,2C84,35.8,81.8,35.3,81,35.1z"/>
<g>
	<path fill="#2E368F" d="M16.1,14.1l-2-2c-0.1-0.1-0.3,0-0.3,0.1v4c0,0.2,0.2,0.3,0.3,0.1l2-2C16.2,14.3,16.2,14.2,16.1,14.1z"/>
</g>
</svg>
