<?xml version="1.0" encoding="utf-8"?>
<!-- Generator: Adobe Illustrator 18.1.1, SVG Export Plug-In . SVG Version: 6.00 Build 0)  -->
<svg version="1.1" id="Layer_1" xmlns="http://www.w3.org/2000/svg" xmlns:xlink="http://www.w3.org/1999/xlink" x="0px" y="0px"
	 viewBox="584.8 447.4 20 20" enable-background="new 584.8 447.4 20 20" xml:space="preserve">
<path fill="#666666" d="M604,465.9l-4.4-4.4c2.8-3.1,2.7-8-0.3-11c-3.1-3.1-8.3-3.1-11.4,0c-3.1,3.1-3.1,8.3,0,11.4
	c1.6,1.6,3.6,2.4,5.7,2.4c1.9,0,3.8-0.7,5.3-2.1l4.4,4.4c0.1,0.1,0.2,0.1,0.3,0.1c0.1,0,0.3-0.1,0.3-0.1
	C604.2,466.3,604.2,466.1,604,465.9z M588.5,461.1c-2.8-2.8-2.8-7.3,0-10.1c1.4-1.4,3.2-2.1,5-2.1c1.8,0,3.6,0.7,5,2.1
	c2.8,2.8,2.8,7.3,0,10.1C595.8,464,591.3,464,588.5,461.1z"/>
</svg>
