<?xml version="1.0" encoding="utf-8"?>
<!-- Generator: Adobe Illustrator 18.1.1, SVG Export Plug-In . SVG Version: 6.00 Build 0)  -->
<svg version="1.1" id="Layer_1" xmlns="http://www.w3.org/2000/svg" xmlns:xlink="http://www.w3.org/1999/xlink" x="0px" y="0px"
	 viewBox="509.3 447.4 20 20" enable-background="new 509.3 447.4 20 20" xml:space="preserve">
<path fill="#FFFFFF" d="M518.5,447.9c-0.1,0-0.1,0-0.1,0.1l-5.2,8.3c-0.1,0.1,0,0.2,0.1,0.2h10.4c0.1,0,0.2-0.1,0.1-0.2l-5.2-8.3
	C518.6,447.9,518.5,447.9,518.5,447.9L518.5,447.9z M513.3,458.3c-0.1,0-0.2,0.1-0.1,0.2l5.2,8.3c0.1,0.1,0.2,0.1,0.3,0l5.2-8.3
	c0.1-0.1,0-0.2-0.1-0.2H513.3L513.3,458.3z"/>
</svg>
