<?xml version="1.0" encoding="utf-8"?>
<!-- Generator: Adobe Illustrator 18.1.1, SVG Export Plug-In . SVG Version: 6.00 Build 0)  -->
<svg version="1.1" id="Layer_1" xmlns="http://www.w3.org/2000/svg" xmlns:xlink="http://www.w3.org/1999/xlink" x="0px" y="0px"
	 viewBox="0 0 20 20" enable-background="new 0 0 20 20" xml:space="preserve">
<path fill="#2E368F" stroke="#2E368F" stroke-width="0.75" stroke-miterlimit="10" d="M250.1,10.1l4-4c0.1-0.1,0.1-0.2,0-0.3
	c-0.1-0.1-0.2-0.1-0.3,0l-4,4l-4-4c-0.1-0.1-0.2-0.1-0.3,0c-0.1,0.1-0.1,0.2,0,0.3l4,4l-4,4c-0.1,0.1-0.1,0.2,0,0.3
	c0,0,0.1,0.1,0.2,0.1s0.1,0,0.2-0.1l4-4l4,4c0,0,0.1,0.1,0.2,0.1s0.1,0,0.2-0.1c0.1-0.1,0.1-0.2,0-0.3L250.1,10.1z"/>
<path fill="#2E368F" stroke="#2E368F" stroke-width="0.75" stroke-miterlimit="10" d="M332.9-33.8c0.1-0.1,0.1-0.2,0-0.3
	s-0.2-0.1-0.3,0l-1.8,1.8l0.3,0.3L332.9-33.8z"/>
<path fill="#2E368F" stroke="#2E368F" stroke-width="0.75" stroke-miterlimit="10" d="M332.5-25.9c0,0,0.1,0.1,0.2,0.1
	c0.1,0,0.1,0,0.2-0.1c0.1-0.1,0.1-0.2,0-0.3l-2.2-2.2l-0.3,0.3L332.5-25.9z"/>
<path fill="#2E368F" stroke="#2E368F" stroke-width="0.75" stroke-miterlimit="10" d="M329.1-30l0.3-0.3l-0.3-0.3l-0.3,0.3l-3.8-3.8
	c-0.1-0.1-0.2-0.1-0.3,0c-0.1,0.1-0.1,0.2,0,0.3l3.8,3.8l-3.8,3.8c-0.1,0.1-0.1,0.2,0,0.3c0,0,0.1,0.1,0.2,0.1c0.1,0,0.1,0,0.2-0.1
	l3.8-3.8l1.3,1.3l0.3-0.3L329.1-30z"/>
<path fill="#2E368F" stroke="#2E368F" stroke-width="0.75" stroke-miterlimit="10" d="M327.5-25.9c-0.1,0.1-0.1,0.2,0,0.3
	c0,0,0.1,0.1,0.2,0.1c0.1,0,0.1,0,0.2-0.1l1.9-1.9l-0.3-0.3L327.5-25.9z"/>
<path fill="#2E368F" stroke="#2E368F" stroke-width="0.75" stroke-miterlimit="10" d="M327.8-33.8c-0.1-0.1-0.2-0.1-0.3,0
	c-0.1,0.1-0.1,0.2,0,0.3l2.2,2.2l0.3-0.3L327.8-33.8z"/>
<path fill="#2E368F" stroke="#2E368F" stroke-width="0.75" stroke-miterlimit="10" d="M332-29.7l3.8-3.8c0.1-0.1,0.1-0.2,0-0.3
	c-0.1-0.1-0.2-0.1-0.3,0l-3.8,3.8l-1.3-1.3L330-31l1.3,1.3l-0.4,0.4l0.3,0.3l0.4-0.4l3.8,3.8c0,0,0.1,0.1,0.2,0.1
	c0.1,0,0.1,0,0.2-0.1c0.1-0.1,0.1-0.2,0-0.3L332-29.7z"/>
<rect x="330.1" y="-28.6" transform="matrix(-0.7072 -0.707 0.707 -0.7072 584.0295 185.0866)" fill="#2E368F" stroke="#2E368F" stroke-width="0.75" stroke-miterlimit="10" width="0.5" height="0.5"/>
<rect x="329.8" y="-31.5" transform="matrix(0.7067 0.7075 -0.7075 0.7067 74.6549 -242.692)" fill="#2E368F" stroke="#2E368F" stroke-width="0.75" stroke-miterlimit="10" width="0.5" height="0.5"/>
<g>
	<path fill="#2E368F" stroke="#2E368F" stroke-width="0.45" stroke-miterlimit="10" d="M176.3-73.2h-2.4c0.1-0.2,0.2-0.5,0.2-0.8v-2
		c0-1.8-1.5-3.3-3.3-3.3h-2.5c-1.8,0-3.3,1.5-3.3,3.3v2c0,0.3,0.1,0.6,0.2,0.8h-2.4c-1,0-1.8,0.8-1.8,1.8v8.3c0,1,0.8,1.8,1.8,1.8
		h13.5c1,0,1.8-0.8,1.8-1.8v-8.3C178.1-72.4,177.3-73.2,176.3-73.2z M165.9-74v-2c0-1.3,1.1-2.3,2.3-2.3h2.5c1.3,0,2.3,1.1,2.3,2.3
		v2c0,0.4-0.4,0.8-0.8,0.8h-5.6C166.3-73.2,165.9-73.6,165.9-74z M177.1-63.1c0,0.4-0.4,0.8-0.8,0.8h-13.5c-0.4,0-0.8-0.4-0.8-0.8
		v-8.3c0-0.4,0.4-0.8,0.8-0.8h4h5.6h4c0.4,0,0.8,0.4,0.8,0.8V-63.1z"/>
	<path fill="#2E368F" stroke="#2E368F" stroke-width="0.45" stroke-miterlimit="10" d="M169.5-69.8c-1,0-1.9,0.8-1.9,1.9
		c0,0.9,0.6,1.6,1.4,1.8v1.6c0,0.3,0.2,0.5,0.5,0.5s0.5-0.2,0.5-0.5v-1.6c0.8-0.2,1.4-0.9,1.4-1.8C171.4-69,170.6-69.8,169.5-69.8z
		 M169.5-67c-0.5,0-0.9-0.4-0.9-0.9s0.4-0.9,0.9-0.9s0.9,0.4,0.9,0.9S170-67,169.5-67z"/>
</g>
<g>
	<path fill="#2E368F" stroke="#2E368F" stroke-width="0.45" stroke-miterlimit="10" d="M217.3-72.3H215c0.1-0.2,0.2-0.5,0.2-0.8v-2
		c0-1.8-1.5-3.3-3.3-3.3h-2.5c-1.8,0-3.3,1.5-3.3,3.3c0,0.3,0.2,0.5,0.5,0.5s0.5-0.2,0.5-0.5c0-1.3,1.1-2.3,2.3-2.3h2.5
		c1.3,0,2.3,1.1,2.3,2.3v2c0,0.4-0.4,0.8-0.8,0.8h-5.6h-4c-1,0-1.8,0.8-1.8,1.8v8.3c0,1,0.8,1.8,1.8,1.8h13.5c1,0,1.8-0.8,1.8-1.8
		v-8.3C219.1-71.5,218.3-72.3,217.3-72.3z M218.2-62.2c0,0.4-0.4,0.8-0.8,0.8h-13.5c-0.4,0-0.8-0.4-0.8-0.8v-8.3
		c0-0.4,0.4-0.8,0.8-0.8h4h5.6h4c0.4,0,0.8,0.4,0.8,0.8V-62.2z"/>
	<path fill="#2E368F" stroke="#2E368F" stroke-width="0.45" stroke-miterlimit="10" d="M210.6-68.9c-1,0-1.9,0.8-1.9,1.9
		c0,0.9,0.6,1.6,1.4,1.8v1.6c0,0.3,0.2,0.5,0.5,0.5c0.3,0,0.5-0.2,0.5-0.5v-1.6c0.8-0.2,1.4-0.9,1.4-1.8
		C212.5-68,211.6-68.9,210.6-68.9z M210.6-66.1c-0.5,0-0.9-0.4-0.9-0.9s0.4-0.9,0.9-0.9s0.9,0.4,0.9,0.9S211.1-66.1,210.6-66.1z"/>
</g>
<path fill="#2E368F" d="M57.3-78.9H42.9c-1,0-1.8,0.8-1.8,1.8v14.4c0,1,0.8,1.8,1.8,1.8h14.4c1,0,1.8-0.8,1.8-1.8v-14.4
	C59.1-78.1,58.3-78.9,57.3-78.9z M54.9-72.3c0,0-5.8,5.8-5.8,5.8c-0.3,0.3-0.5,0.2-0.8,0l-2.8-2.8c-0.3-0.3-0.3-0.5,0-0.8
	c0.3-0.3,0.5-0.3,0.8,0l2.4,2.4l5.3-5.4c0.3-0.3,0.5-0.3,0.8,0C55.1-72.8,55.1-72.6,54.9-72.3z"/>
<path fill="#2E368F" stroke="#2E368F" stroke-width="0.5" stroke-miterlimit="10" d="M17.2,2.1c0.4,0,0.8,0.4,0.8,0.8v14.3
	c0,0.4-0.4,0.8-0.8,0.8H2.8c-0.4,0-0.8-0.4-0.8-0.8V2.9c0-0.4,0.4-0.8,0.8-0.8L17.2,2.1 M17.2,1H2.8C1.8,1,1,1.8,1,2.9v14.3
	c0,1,0.8,1.9,1.9,1.9h14.3c1,0,1.9-0.8,1.9-1.9V2.9C19,1.8,18.2,1,17.2,1L17.2,1z"/>
<path fill="#2E368F" stroke="#2E368F" stroke-miterlimit="10" d="M336.2-109.7c0.1-0.1,0.1-0.2,0.1-0.3c0-0.1,0-0.2-0.1-0.3
	l-8.2-8.2c-0.2-0.2-0.5-0.2-0.6,0c-0.2,0.2-0.2,0.5,0,0.6l7.8,7.8l-7.8,7.8c-0.2,0.2-0.2,0.5,0,0.6c0.2,0.2,0.5,0.2,0.6,0
	L336.2-109.7z"/>
<path fill="#2E368F" stroke="#2E368F" stroke-miterlimit="10" d="M50.7,6c-0.1-0.1-0.2-0.1-0.3-0.1c-0.1,0-0.2,0-0.3,0.1l-8.2,8.2
	c-0.2,0.2-0.2,0.5,0,0.6s0.5,0.2,0.6,0L50.3,7l7.8,7.8c0.2,0.2,0.5,0.2,0.6,0c0.2-0.2,0.2-0.5,0-0.6L50.7,6z"/>
<path fill="#2E368F" stroke="#2E368F" stroke-miterlimit="10" d="M209.7-25c0.1,0.1,0.2,0.1,0.3,0.1s0.2,0,0.3-0.1l8.2-8.2
	c0.2-0.2,0.2-0.5,0-0.6c-0.2-0.2-0.5-0.2-0.6,0L210-26l-7.8-7.8c-0.2-0.2-0.5-0.2-0.6,0c-0.2,0.2-0.2,0.5,0,0.6L209.7-25z"/>
<g transform="matrix( 1, 0, 0, 1, 0,0) ">
	<g>
		<g id="a_3_">
			<path fill="#2E368F" stroke="#2E368F" stroke-width="0.5" stroke-miterlimit="10" d="M80.5-34.5v7.2c0,0.9,0.3,1.7,1,2.4
				c0.7,0.7,1.5,1,2.4,1v2.6c0,0.1,0,0.2,0.1,0.3c0,0.1,0.1,0.1,0.2,0.2c0.1,0,0.1,0,0.2,0c0.1,0,0.2,0,0.3-0.1l3-2.9h8.3
				c1,0,1.8-0.3,2.5-1c0.7-0.7,1-1.5,1-2.4v-7.2c0-1-0.3-1.8-1-2.4c-0.7-0.7-1.5-1-2.5-1H84c-1,0-1.8,0.3-2.5,1
				C80.8-36.3,80.5-35.5,80.5-34.5 M84-37.1h12.1c0.7,0,1.3,0.2,1.8,0.7c0.5,0.5,0.8,1.1,0.8,1.8v7.2c0,0.7-0.3,1.3-0.8,1.8
				c-0.5,0.5-1.1,0.8-1.8,0.8h-8.5c-0.1,0-0.2,0-0.3,0.1l-2.3,2.3v-2c0-0.1,0-0.2-0.1-0.3c-0.1-0.1-0.2-0.1-0.3-0.1H84
				c-0.7,0-1.3-0.3-1.8-0.8c-0.5-0.5-0.8-1.1-0.8-1.8v-7.2c0-0.7,0.3-1.3,0.8-1.8C82.7-36.8,83.3-37.1,84-37.1z"/>
			<path fill="#2E368F" stroke="#2E368F" stroke-width="0.5" stroke-miterlimit="10" d="M95.2-30.1c0.2-0.2,0.4-0.5,0.4-0.8
				c0-0.3-0.1-0.6-0.4-0.8c-0.2-0.2-0.5-0.4-0.9-0.4c-0.3,0-0.6,0.1-0.9,0.4c-0.2,0.2-0.4,0.5-0.4,0.8c0,0.3,0.1,0.6,0.4,0.8
				c0.2,0.2,0.5,0.3,0.9,0.3C94.7-29.8,95-29.9,95.2-30.1 M86.9-30.9c0-0.3-0.1-0.6-0.4-0.8c-0.2-0.2-0.5-0.4-0.9-0.4
				c-0.3,0-0.6,0.1-0.9,0.4c-0.2,0.2-0.4,0.5-0.4,0.8c0,0.3,0.1,0.6,0.4,0.8c0.2,0.2,0.5,0.3,0.9,0.3c0.3,0,0.6-0.1,0.9-0.3
				C86.8-30.3,86.9-30.6,86.9-30.9 M89.2-31.8c-0.2,0.2-0.4,0.5-0.4,0.8c0,0.3,0.1,0.6,0.4,0.8c0.2,0.2,0.5,0.3,0.9,0.3
				c0.3,0,0.6-0.1,0.9-0.3c0.2-0.2,0.4-0.5,0.4-0.8c0-0.3-0.1-0.6-0.4-0.8c-0.2-0.2-0.5-0.4-0.9-0.4C89.7-32.1,89.4-32,89.2-31.8z"
				/>
		</g>
	</g>
</g>
<path fill="#2E368F" stroke="#2E368F" stroke-width="0.45" stroke-miterlimit="10" d="M-26.4,17.5h-2v2h-11.1V4.4h2v-2h2v-2h11.1
	v15.2h-2L-26.4,17.5L-26.4,17.5z M-28.9,4.9H-39v14.2h10.1V4.9z M-37.5,6.9V6.4h7.1v0.5H-37.5z M-37.5,8.9V8.4h7.1v0.5H-37.5z
	 M-37.5,11v-0.5h7.1V11H-37.5z M-37.5,13v-0.5h7.1V13H-37.5z M-37.5,15v-0.5h7.1V15H-37.5z M-37.5,17v-0.5h7.1V17H-37.5z M-37,2.9
	v1.5h8.6V17h1.5V2.9H-37z M-35,0.8v1.5h8.6V15h1.5V0.8H-35z"/>
<path fill="#2E368F" d="M49.4,40.2c0,0-0.1,0-0.1,0.1l-5.2,8.4c-0.1,0.1,0,0.2,0.1,0.2h10.4c0.1,0,0.2-0.1,0.1-0.2l-5.2-8.4
	C49.5,40.3,49.5,40.2,49.4,40.2L49.4,40.2z M44.2,50.7c-0.1,0-0.2,0.1-0.1,0.2l5.2,8.4c0.1,0.1,0.2,0.1,0.2,0l5.2-8.4
	c0.1-0.1,0-0.2-0.1-0.2H44.2L44.2,50.7z"/>
<path fill="#2E368F" stroke="#2E368F" stroke-width="0.75" stroke-miterlimit="10" d="M329.8-39.4c-5.3,0-9.6,4.3-9.6,9.6
	s4.3,9.6,9.6,9.6c5.3,0,9.6-4.3,9.6-9.6S335.1-39.4,329.8-39.4z M329.8-21.1c-4.8,0-8.7-3.9-8.7-8.7s3.9-8.7,8.7-8.7
	c4.8,0,8.7,3.9,8.7,8.7S334.6-21.1,329.8-21.1z"/>
<g>
	<path fill="#2E368F" stroke="#2E368F" stroke-width="0.75" stroke-miterlimit="10" d="M129.6,10.3c-1.9,0-3.5,1.2-4.1,2.9h0.4
		c0.6-1.6,1.9-2.5,3.7-2.5c2.1,0,3.9,1.8,3.9,3.9s-1.8,3.9-3.9,3.9c-1.6,0-2.9-1-3.5-2.3h-0.4c0.6,1.6,2.1,2.7,3.9,2.7
		c2.3,0,4.3-1.9,4.3-4.3S131.9,10.3,129.6,10.3z"/>
	<path fill="#2E368F" stroke="#2E368F" stroke-width="0.75" stroke-miterlimit="10" d="M129.6,11.8v3.3h2.5v0.4h-2.9
		c0-1.2,0-2.7,0-3.7L129.6,11.8z"/>
</g>
<path fill="#2E368F" stroke="#2E368F" stroke-miterlimit="10" d="M98.4,10.2c-0.2,0-0.3,0.1-0.3,0.3v5c0,1.6-1.3,2.9-2.9,2.9H84.6
	c-1.6,0-2.9-1.3-2.9-2.9V7V4.8c0-1.6,1.3-2.9,2.9-2.9h4.9c0.2,0,0.3-0.1,0.3-0.3s-0.1-0.3-0.3-0.3h-4.9c-1.9,0-3.5,1.6-3.5,3.5V7
	v8.4c0,1.9,1.6,3.5,3.5,3.5h10.6c1.9,0,3.5-1.6,3.5-3.5v-5C98.7,10.3,98.6,10.2,98.4,10.2z"/>
<g>
	<g>
		<path fill="#2E368F" d="M99,1.2c0.6,0.6,0.6,1.5,0,2.1l-0.7,0.7l-2.1-2.1L97,1.2C97.5,0.6,98.5,0.6,99,1.2z"/>
		<polygon fill="#2E368F" points="88.8,9.4 88.1,12.2 90.8,11.5 97.7,4.6 95.6,2.6 		"/>
	</g>
</g>
<path fill="#2E368F" stroke="#2E368F" stroke-width="0.75" stroke-miterlimit="10" d="M258.4,50.4c-0.2,0-0.3,0.1-0.3,0.3v5
	c0,1.6-1.3,2.9-2.9,2.9h-10.5c-1.6,0-2.9-1.3-2.9-2.9v-8.4v-2.2c0-1.6,1.3-2.9,2.9-2.9h4.9c0.2,0,0.3-0.1,0.3-0.3s-0.1-0.3-0.3-0.3
	h-4.9c-1.9,0-3.5,1.5-3.5,3.5v2.2v8.4c0,1.9,1.5,3.5,3.5,3.5h10.5c1.9,0,3.5-1.5,3.5-3.5v-5C258.7,50.5,258.6,50.4,258.4,50.4z"/>
<path fill="#2E368F" stroke="#2E368F" stroke-width="0.75" stroke-miterlimit="10" d="M218.9-110c-0.2,0-0.3,0.1-0.3,0.3v5.3
	c0,1.7-1.4,3.1-3.1,3.1h-11.3c-1.7,0-3.1-1.4-3.1-3.1v-9v-2.3c0-1.7,1.4-3.1,3.1-3.1h5.3c0.2,0,0.3-0.1,0.3-0.3
	c0-0.2-0.1-0.3-0.3-0.3h-5.3c-2,0-3.7,1.7-3.7,3.7v2.3v9c0,2,1.7,3.7,3.7,3.7h11.3c2,0,3.7-1.7,3.7-3.7v-5.3
	C219.2-109.9,219.1-110,218.9-110z"/>
<g>
	<path fill="#2E368F" d="M219.5-119.5c0.6,0.6,0.6,1.6,0,2.2l-0.7,0.7l-2.2-2.2l0.7-0.7C218-120.2,218.9-120.2,219.5-119.5z"/>
	<polygon fill="#2E368F" points="208.6,-110.8 207.9,-107.9 210.8,-108.6 218.1,-115.9 215.9,-118.1 	"/>
</g>
<path fill="#2E368F" stroke="#2E368F" stroke-width="0.75" stroke-miterlimit="10" d="M138-110.9h-7.1v-7.1c0-0.5-0.4-0.8-0.8-0.8
	c-0.5,0-0.8,0.4-0.8,0.8v7.1H122c-0.5,0-0.8,0.4-0.8,0.8s0.4,0.8,0.8,0.8h7.1v7.1c0,0.5,0.4,0.8,0.8,0.8c0.5,0,0.8-0.4,0.8-0.8v-7.1
	h7.1c0.5,0,0.8-0.4,0.8-0.8S138.4-110.9,138-110.9z"/>
<path fill="#2E368F" stroke="#2E368F" stroke-width="0.75" stroke-miterlimit="10" d="M98.9-101.8l-4.2-4.2c2.7-3,2.6-7.7-0.3-10.6
	c-3-3-7.9-3-11,0c-3,3-3,7.9,0,11c1.5,1.5,3.5,2.3,5.5,2.3c1.8,0,3.7-0.7,5.1-2l4.2,4.2c0.1,0.1,0.2,0.1,0.3,0.1s0.2,0,0.3-0.1
	C99.1-101.3,99.1-101.6,98.9-101.8z M84-106.3c-2.7-2.7-2.7-7,0-9.7c1.3-1.3,3.1-2,4.8-2s3.5,0.7,4.8,2c2.7,2.7,2.7,7,0,9.7
	C91-103.7,86.7-103.7,84-106.3z"/>
<path fill="#2E368F" stroke="#2E368F" stroke-width="0.75" stroke-miterlimit="10" d="M174.9,18.1l-2.1-2.1c1.4-1.5,1.3-3.9-0.2-5.4
	c-1.5-1.5-4-1.5-5.5,0c-1.5,1.5-1.5,4,0,5.5c0.8,0.8,1.8,1.1,2.8,1.1c0.9,0,1.9-0.3,2.6-1l2.1,2.1c0,0,0.1,0.1,0.2,0.1
	c0.1,0,0.1,0,0.2-0.1C175,18.4,175,18.2,174.9,18.1z M167.4,15.8c-1.3-1.3-1.3-3.5,0-4.9c0.7-0.7,1.6-1,2.4-1c0.9,0,1.8,0.3,2.4,1
	c1.3,1.3,1.3,3.5,0,4.9C170.9,17.2,168.7,17.2,167.4,15.8z"/>
<path fill="#2E368F" stroke="#2E368F" stroke-width="0.75" stroke-miterlimit="10" d="M-30-119.2c-5,0-9.1,4.1-9.1,9.1
	c0,5,4.1,9.1,9.1,9.1s9.1-4.1,9.1-9.1C-20.9-115.1-25-119.2-30-119.2z M-30-101.7c-4.6,0-8.3-3.7-8.3-8.3c0-4.6,3.7-8.3,8.3-8.3
	s8.3,3.7,8.3,8.3C-21.7-105.4-25.4-101.7-30-101.7z"/>
<path fill="#2E368F" stroke="#2E368F" stroke-miterlimit="10" d="M179.4-118.7v5c0,0.2-0.1,0.3-0.3,0.3s-0.3-0.1-0.3-0.3v-4.4
	l-8.6,8.6c-0.1,0.1-0.1,0.1-0.2,0.1c-0.1,0-0.1,0-0.2-0.1c-0.1-0.1-0.1-0.3,0-0.4l8.6-8.6h-4.4c-0.2,0-0.3-0.1-0.3-0.3
	c0-0.2,0.1-0.3,0.3-0.3h5C179.3-119,179.4-118.9,179.4-118.7z"/>
<path fill="#2E368F" stroke="#2E368F" stroke-width="0.75" stroke-miterlimit="10" d="M178.6-109.7c-0.2,0-0.3,0.1-0.3,0.3v5.1
	c0,1.7-1.3,3-3,3h-10.9c-1.7,0-3-1.3-3-3v-8.6v-2.2c0-1.7,1.3-3,3-3h5.1c0.2,0,0.3-0.1,0.3-0.3c0-0.2-0.1-0.3-0.3-0.3h-5.1
	c-2,0-3.6,1.6-3.6,3.6v2.2v8.6c0,2,1.6,3.6,3.6,3.6h10.9c2,0,3.6-1.6,3.6-3.6v-5.1C178.9-109.6,178.8-109.7,178.6-109.7z"/>
<path fill="#2E368F" stroke="#2E368F" stroke-width="0.5" stroke-miterlimit="10" d="M19.4-106.2v-7.9c0-0.2,0.1-1.8-0.5-2.5
	c-0.4-0.5-1.2-0.6-2-0.6h-0.4c-0.1,0-0.3,0-0.6,0v-0.7c0-0.2-0.2-0.4-0.4-0.4s-0.4,0.2-0.4,0.4v0.8c-2.5,0-8,0-10.5,0v-0.8
	c0-0.2-0.2-0.4-0.4-0.4c-0.2,0-0.2,0.2-0.2,0.4v0.8c-0.3,0-0.5,0-0.6,0H3.1c-0.9,0-1.7,0-2,0.6c-0.6,0.6-0.5,2.2-0.5,2.4v11.6
	c0,0.2,0.2,0.4,0.4,0.4h14.5c0.1,0,0.2,0,0.3-0.1l0,0l3.6-3.7l0,0l0,0l0,0c0,0,0,0,0-0.1S19.4-106.1,19.4-106.2z M1.6-116.1
	c0.2-0.3,0.9-0.3,1.6-0.3h0.4c0.1,0,0.3,0,0.6,0v0.5c0,0.2,0.2,0.4,0.4,0.4c0.2,0,0.3-0.2,0.3-0.4v-0.5c2.5,0,8,0,10.5,0v0.5
	c0,0.2,0.2,0.4,0.4,0.4c0.2,0,0.4-0.2,0.4-0.4v-0.5c0.3,0,0.5,0,0.6,0h0.4c0.7,0,1.3,0,1.6,0.3c0.1,0.3,0.1,1.1,0.1,1.7H1.3
	C1.3-115.1,1.4-115.8,1.6-116.1z M1.3-113.7h17.4v7.2h-3.3c-0.2,0-0.4,0.2-0.4,0.4v3.4H1.3V-113.7z M18.2-105.8l-2.4,2.5v-2.5H18.2z
	"/>
<g>
	<rect x="5" y="-111.7" fill="#2E368F" width="1.9" height="1.4"/>
	<rect x="7.7" y="-111.7" fill="#2E368F" width="1.9" height="1.4"/>
	<rect x="10.4" y="-111.7" fill="#2E368F" width="1.9" height="1.4"/>
	<rect x="13.1" y="-111.7" fill="#2E368F" width="1.9" height="1.4"/>
	<rect x="5" y="-109.6" fill="#2E368F" width="1.9" height="1.4"/>
	<rect x="7.7" y="-109.6" fill="#2E368F" width="1.9" height="1.4"/>
	<rect x="10.4" y="-109.6" fill="#2E368F" width="1.9" height="1.4"/>
	<rect x="13.1" y="-109.6" fill="#2E368F" width="1.9" height="1.4"/>
	<rect x="5" y="-107.4" fill="#2E368F" width="1.9" height="1.4"/>
	<rect x="7.7" y="-107.4" fill="#2E368F" width="1.9" height="1.4"/>
	<rect x="10.4" y="-107.4" fill="#2E368F" width="1.9" height="1.4"/>
	<rect x="13.1" y="-107.4" fill="#2E368F" width="1.9" height="1.4"/>
</g>
<g>
	<g>
		<path fill="#2E368F" d="M50.6-118.9c-0.1-0.2-0.3-0.3-0.5-0.3c-0.2,0-0.4,0.1-0.5,0.3l-9.2,16c-0.1,0.2-0.1,0.4,0,0.6
			c0.1,0.2,0.3,0.3,0.5,0.3h18.5l0,0c0.3,0,0.6-0.3,0.6-0.6c0-0.1,0-0.3-0.1-0.4L50.6-118.9z M41.9-103.2l8.1-14.1l8.1,14.1H41.9z"
			/>
		<path fill="#2E368F" d="M49.4-112.9v4.9c0,0.3,0.3,0.6,0.6,0.6c0.3,0,0.6-0.3,0.6-0.6v-4.9c0-0.3-0.3-0.6-0.6-0.6
			C49.6-113.6,49.4-113.3,49.4-112.9z"/>
		<path fill="#2E368F" d="M50-106.6c-0.3,0-0.6,0.3-0.6,0.6v0.4c0,0.3,0.3,0.6,0.6,0.6s0.6-0.3,0.6-0.6v-0.4
			C50.6-106.3,50.3-106.6,50-106.6z"/>
	</g>
</g>
<polygon fill="#2E368F" points="-34.8,-110.3 -32.4,-110.3 -32.4,-106.7 -27.6,-106.7 -27.6,-110.3 -25.2,-110.3 -30,-115.1 "/>
<path fill="#2E368F" stroke="#2E368F" stroke-width="0.75" stroke-miterlimit="10" d="M249.8,0.9c-5.1,0-9.2,4.1-9.2,9.2
	c0,5.1,4.1,9.2,9.2,9.2s9.2-4.1,9.2-9.2C259,5,254.9,0.9,249.8,0.9z M249.8,18.4c-4.6,0-8.4-3.8-8.4-8.4c0-4.6,3.8-8.4,8.4-8.4
	c4.6,0,8.4,3.8,8.4,8.4C258.2,14.7,254.5,18.4,249.8,18.4z"/>
<path fill="#2E368F" stroke="#2E368F" stroke-width="0.75" stroke-miterlimit="10" d="M330,0.9c-5.1,0-9.2,4.1-9.2,9.2
	c0,5.1,4.1,9.2,9.2,9.2s9.2-4.1,9.2-9.2C339.2,5,335.1,0.9,330,0.9z M330,18.4c-4.6,0-8.4-3.8-8.4-8.4c0-4.6,3.8-8.4,8.4-8.4
	s8.4,3.8,8.4,8.4C338.4,14.7,334.6,18.4,330,18.4z"/>
<path fill="#2E368F" stroke="#2E368F" stroke-width="0.75" stroke-miterlimit="10" d="M-29.2-25.9l1.9-1.9c0,0,0-0.1,0-0.2
	s-0.1,0-0.2,0l-1.9,1.9l-1.9-1.9c0,0-0.1,0-0.2,0c0,0,0,0.1,0,0.2l1.9,1.9l-1.9,1.9c0,0,0,0.1,0,0.2c0,0,0.1,0,0.1,0
	c0,0,0.1,0,0.1,0l1.9-1.9l1.9,1.9c0,0,0.1,0,0.1,0c0,0,0.1,0,0.1,0c0,0,0-0.1,0-0.2L-29.2-25.9z"/>
<path fill="#2E368F" stroke="#2E368F" stroke-width="0.75" stroke-miterlimit="10" d="M-29.4-30.8c-2.7,0-4.8,2.2-4.8,4.8
	c0,2.7,2.2,4.8,4.8,4.8s4.8-2.2,4.8-4.8C-24.5-28.6-26.7-30.8-29.4-30.8z M-29.4-21.5c-2.4,0-4.4-2-4.4-4.4c0-2.4,2-4.4,4.4-4.4
	s4.4,2,4.4,4.4C-25-23.5-26.9-21.5-29.4-21.5z"/>
<rect x="9.6" y="-78.6" transform="matrix(-0.5425 -0.8401 0.8401 -0.5425 74.2343 -99.618)" fill="#2E368F" stroke="#2E368F" stroke-width="0.75" stroke-miterlimit="10" width="0.8" height="17.2"/>
<path fill="#2E368F" stroke="#2E368F" stroke-width="0.75" stroke-miterlimit="10" d="M9.9-79c-4.8,0-8.8,3.9-8.8,8.8
	c0,4.8,3.9,8.8,8.8,8.8s8.8-3.9,8.8-8.8C18.7-75,14.7-79,9.9-79z M9.9-62.2c-4.4,0-8-3.6-8-8c0-4.4,3.6-8,8-8s8,3.6,8,8
	C17.9-65.8,14.3-62.2,9.9-62.2z"/>
<g>
	<path fill="#2E368F" stroke="#2E368F" stroke-width="0.75" stroke-miterlimit="10" d="M250.2-24.4c0.3,0,0.5-0.2,0.5-0.5V-32
		c0-0.3-0.2-0.5-0.5-0.5c-0.3,0-0.5,0.2-0.5,0.5v7.1C249.7-24.6,249.9-24.4,250.2-24.4z"/>
	<path fill="#2E368F" stroke="#2E368F" stroke-width="0.75" stroke-miterlimit="10" d="M250.1-33.8c0.3,0,0.5-0.2,0.5-0.5v-1
		c0-0.3-0.2-0.5-0.5-0.5c-0.3,0-0.5,0.2-0.5,0.5v1C249.6-34.1,249.8-33.8,250.1-33.8z"/>
</g>
<path fill="#2E368F" stroke="#2E368F" stroke-width="0.75" stroke-miterlimit="10" d="M250.1-39c-4.9,0-8.9,4-8.9,8.9
	c0,4.9,4,8.9,8.9,8.9c4.9,0,8.9-4,8.9-8.9C259-35,255-39,250.1-39z M250.1-22c-4.5,0-8.1-3.6-8.1-8.1c0-4.5,3.6-8.1,8.1-8.1
	s8.1,3.6,8.1,8.1C258.2-25.6,254.6-22,250.1-22z"/>
<path fill="#2E368F" stroke="#2E368F" stroke-width="0.75" stroke-miterlimit="10" d="M130.1-39.1c-5.2,0-9.4,4.2-9.4,9.4
	c0,5.2,4.2,9.4,9.4,9.4c5.2,0,9.4-4.2,9.4-9.4C139.5-34.9,135.3-39.1,130.1-39.1z M130.1-21.2c-4.7,0-8.5-3.8-8.5-8.5
	c0-4.7,3.8-8.5,8.5-8.5c4.7,0,8.5,3.8,8.5,8.5C138.7-25,134.8-21.2,130.1-21.2z"/>
<polygon fill="#2E368F" points="135,-30.1 132.6,-30.1 132.6,-33.8 127.7,-33.8 127.7,-30.1 125.2,-30.1 130.1,-25.2 "/>
<path fill="#2E368F" stroke="#2E368F" stroke-width="0.75" stroke-miterlimit="10" d="M-30.1-78.8c-4.9,0-8.8,4-8.8,8.8
	c0,4.9,4,8.8,8.8,8.8s8.8-4,8.8-8.8C-21.2-74.8-25.2-78.8-30.1-78.8z M-30.1-61.9c-4.4,0-8-3.6-8-8c0-4.4,3.6-8,8-8s8,3.6,8,8
	C-22-65.5-25.6-61.9-30.1-61.9z"/>
<polygon fill="#2E368F" points="-25.5,-70.3 -27.8,-70.3 -27.8,-73.8 -32.4,-73.8 -32.4,-70.3 -34.7,-70.3 -30.1,-65.7 "/>
<path fill="#2E368F" stroke="#2E368F" stroke-width="0.75" stroke-miterlimit="10" d="M290.5-119.1c-5,0-9,4.1-9,9c0,5,4.1,9,9,9
	s9-4.1,9-9C299.6-115,295.5-119.1,290.5-119.1z M290.5-101.8c-4.5,0-8.2-3.7-8.2-8.2c0-4.5,3.7-8.2,8.2-8.2s8.2,3.7,8.2,8.2
	C298.8-105.5,295.1-101.8,290.5-101.8z"/>
<path fill="#2E368F" stroke="#2E368F" stroke-width="0.75" stroke-miterlimit="10" d="M95-73.6c-0.1-0.1-0.3-0.1-0.4,0l-6.8,6.8
	L85.6-69c-0.1-0.1-0.3-0.1-0.4,0c-0.1,0.1-0.1,0.3,0,0.4l2.4,2.4c0.1,0.1,0.1,0.1,0.2,0.1c0.1,0,0.1,0,0.2-0.1l7-7
	C95.1-73.4,95.1-73.5,95-73.6z"/>
<path fill="#2E368F" stroke="#2E368F" stroke-width="0.75" stroke-miterlimit="10" d="M13.1-28.2c-0.1-0.1-0.2-0.1-0.2,0l-3.6,3.6
	L8-25.7c-0.1-0.1-0.2-0.1-0.2,0s-0.1,0.2,0,0.2l1.3,1.3c0,0,0.1,0,0.1,0s0.1,0,0.1,0l3.8-3.8C13.1-28,13.1-28.1,13.1-28.2z"/>
<path fill="#2E368F" stroke="#2E368F" stroke-width="0.45" stroke-miterlimit="10" d="M90.1-79.4c-5.2,0-9.5,4.2-9.5,9.5
	c0,5.2,4.2,9.5,9.5,9.5s9.5-4.2,9.5-9.5C99.5-75.2,95.3-79.4,90.1-79.4z M90.1-61.3c-4.8,0-8.6-3.9-8.6-8.6c0-4.8,3.9-8.6,8.6-8.6
	s8.6,3.9,8.6,8.6C98.7-65.2,94.8-61.3,90.1-61.3z"/>
<g>
	<path fill="#2E368F" stroke="#2E368F" stroke-width="0.75" stroke-miterlimit="10" d="M293.6-33.1c0.1-0.1,0.1-0.3,0-0.4
		c-0.1-0.1-0.3-0.1-0.4,0l-4.4,4.4l0.4,0.4L293.6-33.1z"/>
	<path fill="#2E368F" stroke="#2E368F" stroke-width="0.75" stroke-miterlimit="10" d="M286.4-26.7l-2.1-2.1c-0.1-0.1-0.3-0.1-0.4,0
		c-0.1,0.1-0.1,0.3,0,0.4l2.3,2.3c0.1,0.1,0.1,0.1,0.2,0.1c0.1,0,0.1,0,0.2-0.1l0.2-0.2L286.4-26.7L286.4-26.7z"/>
	<path fill="#2E368F" stroke="#2E368F" stroke-width="0.75" stroke-miterlimit="10" d="M286.9-29.1c-0.1-0.1-0.3-0.1-0.4,0
		c-0.1,0.1-0.1,0.3,0,0.4l0.9,0.9l0.4-0.4L286.9-29.1z"/>
	<path fill="#2E368F" stroke="#2E368F" stroke-width="0.75" stroke-miterlimit="10" d="M296.2-33.8c-0.1-0.1-0.3-0.1-0.4,0L289-27
		l-0.8-0.8l-0.4,0.4l1,1c0.1,0.1,0.1,0.1,0.2,0.1c0.1,0,0.1,0,0.2-0.1l7-7C296.3-33.5,296.3-33.7,296.2-33.8z"/>
	
		<rect x="287.5" y="-28.1" transform="matrix(0.7074 -0.7068 0.7068 0.7074 103.8782 195.3153)" fill="#2E368F" stroke="#2E368F" stroke-width="0.75" stroke-miterlimit="10" width="0.6" height="0.6"/>
</g>
<path fill="#2E368F" stroke="#2E368F" stroke-width="0.75" stroke-miterlimit="10" d="M290-39.4c-5.2,0-9.4,4.2-9.4,9.4
	c0,5.2,4.2,9.4,9.4,9.4s9.4-4.2,9.4-9.4C299.4-35.1,295.2-39.4,290-39.4z M290-21.4c-4.7,0-8.6-3.8-8.6-8.6c0-4.7,3.8-8.6,8.6-8.6
	c4.7,0,8.6,3.8,8.6,8.6C298.6-25.2,294.8-21.4,290-21.4z"/>
<circle fill="#2E368F" cx="170.2" cy="-29.8" r="5.2"/>
<path fill="#2E368F" stroke="#2E368F" stroke-width="0.75" stroke-miterlimit="10" d="M170.2-38.7c-4.9,0-9,4-9,9c0,4.9,4,9,9,9
	c4.9,0,9-4,9-9C179.1-34.7,175.1-38.7,170.2-38.7z M170.2-21.6c-4.5,0-8.2-3.7-8.2-8.2c0-4.5,3.7-8.2,8.2-8.2s8.2,3.7,8.2,8.2
	C178.4-25.2,174.7-21.6,170.2-21.6z"/>
<circle fill="#2E368F" cx="249.8" cy="-110.2" r="5.2"/>
<path fill="#2E368F" stroke="#2E368F" stroke-width="0.75" stroke-miterlimit="10" d="M249.8-119.2c-5,0-9.1,4.1-9.1,9.1
	c0,5,4.1,9.1,9.1,9.1c5,0,9.1-4.1,9.1-9.1C258.9-115.1,254.8-119.2,249.8-119.2z M249.8-101.9c-4.6,0-8.3-3.7-8.3-8.3
	c0-4.6,3.7-8.3,8.3-8.3s8.3,3.7,8.3,8.3C258.1-105.6,254.4-101.9,249.8-101.9z"/>
<g>
	<path fill="#2E368F" d="M254.7-75.4v3.5h1v-3.9c0-0.2-0.1-0.3-0.2-0.4l-3.3-2.9c-0.1-0.1-0.3-0.1-0.4-0.1h-9.4
		c-0.3,0-0.6,0.3-0.6,0.6v17.4c0,0.3,0.3,0.6,0.6,0.6H255c0.3,0,0.6-0.3,0.6-0.6v-4.6h-1v4.2h-11.9v-16.7h8.8v2.9H254.7z"/>
	<g>
		<path fill="#2E368F" d="M250.5-69.6c-0.1,0-0.2,0-0.4,0h-0.2v0.7h0.3c0.2,0,0.3,0,0.4,0c0.1,0,0.1-0.1,0.2-0.1
			c0-0.1,0.1-0.1,0.1-0.2c0-0.1,0-0.2-0.1-0.2C250.6-69.5,250.6-69.6,250.5-69.6z"/>
		<path fill="#2E368F" d="M253-69.5c-0.1-0.1-0.1-0.1-0.2-0.1c-0.1,0-0.2,0-0.4,0h-0.2v1.6h0.4c0.1,0,0.2,0,0.3,0
			c0.1,0,0.1-0.1,0.2-0.1c0.1,0,0.1-0.1,0.1-0.2c0-0.1,0-0.3,0-0.4s0-0.3,0-0.4C253.1-69.3,253.1-69.4,253-69.5z"/>
		<path fill="#2E368F" d="M256.4-71.2h-7.9c-0.4,0-0.7,0.3-0.7,0.7v3.4c0,0.4,0.3,0.7,0.7,0.7h7.9c0.4,0,0.7-0.3,0.7-0.7v-3.4
			C257.1-70.9,256.8-71.2,256.4-71.2z M251.2-68.9c-0.1,0.1-0.1,0.2-0.2,0.2c-0.1,0.1-0.2,0.1-0.3,0.1c-0.1,0-0.3,0-0.5,0h-0.3v0.9
			h-0.5V-70h0.8c0.3,0,0.5,0,0.6,0c0.1,0,0.3,0.1,0.3,0.2c0.1,0.1,0.1,0.3,0.1,0.5C251.3-69.1,251.3-69,251.2-68.9z M253.6-68.3
			c-0.1,0.2-0.1,0.3-0.3,0.4c-0.1,0.1-0.2,0.1-0.3,0.2c-0.1,0-0.3,0.1-0.4,0.1h-0.9V-70h0.9c0.2,0,0.4,0,0.5,0
			c0.1,0,0.3,0.1,0.4,0.2c0.1,0.1,0.2,0.2,0.2,0.4c0.1,0.2,0.1,0.3,0.1,0.6C253.7-68.6,253.7-68.4,253.6-68.3z M255.6-69.6h-1.2v0.6
			h1v0.4h-1v1H254V-70h1.7V-69.6z"/>
	</g>
</g>
<path fill="#2E368F" stroke="#2E368F" stroke-width="0.5" stroke-miterlimit="10" d="M299-74.8c-0.1-0.1-0.4-0.1-0.5,0l-9.1,9.1
	l-2.9-2.9c-0.1-0.1-0.4-0.1-0.5,0c-0.1,0.1-0.1,0.4,0,0.5l3.1,3.1c0.1,0.1,0.2,0.1,0.3,0.1c0.1,0,0.2,0,0.3-0.1l9.4-9.4
	C299.2-74.4,299.2-74.7,299-74.8z"/>
<path fill="#2E368F" d="M293.3-75.5v3.5h1v-3.8c0-0.2-0.1-0.3-0.2-0.4l-3.2-2.9c-0.1-0.1-0.3-0.1-0.4-0.1h-9.3
	c-0.3,0-0.6,0.3-0.6,0.6v17.2c0,0.3,0.3,0.6,0.6,0.6h12.5c0.3,0,0.6-0.3,0.6-0.6V-66h-1v4.2h-11.8v-16.5h8.7v2.9H293.3z"/>
<rect x="124.9" y="-71.1" fill="#2E368F" width="9.1" height="0.8"/>
<rect x="124.9" y="-68.8" fill="#2E368F" width="9.1" height="0.8"/>
<rect x="124.9" y="-73.4" fill="#2E368F" width="5.3" height="0.8"/>
<rect x="124.9" y="-66.5" fill="#2E368F" width="9.1" height="0.8"/>
<path fill="#2E368F" d="M135.4-75.7v10.3h1v-10.7c0-0.2-0.1-0.3-0.2-0.5l-3.4-3.1c-0.1-0.1-0.3-0.2-0.4-0.2h-9.8
	c-0.4,0-0.6,0.3-0.6,0.6v18.3c0,0.4,0.3,0.6,0.6,0.6h13.3c0.4,0,0.6-0.3,0.6-0.6v-4.8h-1v4.4h-12.5v-17.5h9.2v3H135.4z"/>
<g>
	<path fill="#2E368F" d="M42.5-39.1v16.3h1.1V-38h6.9v5.1h5.1v10h1.1v-10.9l-5.4-5.4H42.5z M51.7-34v-3.1l3.1,3.1H51.7z"/>
	<polygon fill="#2E368F" points="47.5,-23.6 47.5,-20.9 51.8,-20.9 51.8,-23.6 54.5,-23.6 49.6,-27.5 44.8,-23.6 	"/>
</g>
<g>
	<path fill="#2E368F" d="M321.9-80v17.9h1.3v-16.6h7.5v5.6h5.6v11h1.3v-11.9l-6-6H321.9z M331.9-74.4v-3.4l3.4,3.4H331.9z"/>
	<polygon fill="#2E368F" points="332,-64.3 332,-67.3 327.3,-67.3 327.3,-64.3 324.3,-64.3 329.7,-60 335,-64.3 	"/>
</g>
<path fill="#2E368F" d="M-37-39.2v17.5h1.2V-38h7.4v5.5h5.5v10.8h1.2v-11.7l-5.8-5.8H-37z M-27.2-33.8v-3.4l3.4,3.4H-27.2z"/>
<path fill="#2E368F" stroke="#2E368F" stroke-width="0.75" stroke-miterlimit="10" d="M10.6-30.9c-2.6,0-4.6,2.1-4.6,4.6
	c0,2.6,2.1,4.6,4.6,4.6s4.6-2.1,4.6-4.6C15.2-28.8,13.1-30.9,10.6-30.9z M10.6-22c-2.3,0-4.2-1.9-4.2-4.2c0-2.3,1.9-4.2,4.2-4.2
	s4.2,1.9,4.2,4.2C14.8-23.9,12.9-22,10.6-22z"/>
<path fill="#2E368F" d="M3.2-39.2v17.1h1.2V-38h7.2v5.3h5.3v10.6h1.2v-11.4l-5.7-5.7H3.2z M12.8-33.9v-3.3l3.3,3.3H12.8z"/>
<g>
	<path fill="#2E368F" d="M121.9,0.5v17.4h1.2V1.7h7.3v5.4h5.4v10.7h1.2V6.3l-5.8-5.8H121.9z M131.7,5.9V2.6l3.3,3.3H131.7z"/>
</g>
<path fill="#2E368F" d="M162.6,0.4V18h1.2V1.6h7.4v5.5h5.5V18h1.2V6.2l-5.9-5.9H162.6z M172.5,5.9V2.5l3.4,3.4H172.5z"/>
<path fill="#2E368F" d="M202.1,0.5V18h1.2V1.7h7.4v5.5h5.5V18h1.2V6.3l-5.8-5.8H202.1z M212,6V2.6l3.4,3.4H212z"/>
<path fill="#2E368F" stroke="#2E368F" stroke-width="0.75" stroke-miterlimit="10" d="M209.8,12c-2.8,0-4.9,3.3-4.9,3.3
	s2.2,3.2,4.9,3.2c2.8,0,4.9-3.3,4.9-3.3S212.6,12,209.8,12z M209.8,17.9c-2.4,0-4.2-2.8-4.2-2.8s1.9-2.8,4.2-2.8s4.2,2.8,4.2,2.8
	S212.2,17.9,209.8,17.9z"/>
<path fill="none" stroke="#2E368F" stroke-width="0.5" stroke-miterlimit="10" d="M209.8,13.7c-0.8,0-1.6,0.6-1.6,1.6
	c0,0.8,0.6,1.6,1.6,1.6c0.8,0,1.6-0.6,1.6-1.6C211.4,14.5,210.6,13.7,209.8,13.7z M209.8,16.4c-0.6,0-1.1-0.5-1.1-1.1
	s0.5-1.2,1.1-1.2s1.1,0.5,1.1,1.1S210.5,16.4,209.8,16.4z"/>
<g>
	<g>
		<g>
			<g>
				<polygon fill="#2E368F" points="-31.5,45.5 -35.6,41.4 -39.7,45.5 -37.1,45.5 -37.1,60 -34.1,60 -34.1,45.5 				"/>
				<rect x="-31.2" y="41.4" fill="#2E368F" width="8.7" height="2.8"/>
				<rect x="-32" y="46.6" fill="#2E368F" width="9.5" height="2.8"/>
				<rect x="-32" y="52" fill="#2E368F" width="9.5" height="2.8"/>
				<rect x="-32" y="57.1" fill="#2E368F" width="9.6" height="2.8"/>
			</g>
		</g>
	</g>
</g>
<g>
	<g>
		<g>
			<g>
				<polygon fill="#2E368F" points="1,55 4.7,58.7 8.5,55 6.1,55 6.1,41.7 3.4,41.7 3.4,55 				"/>
				<rect x="8" y="56.1" fill="#2E368F" width="8.9" height="2.6"/>
				<rect x="8" y="51.4" fill="#2E368F" width="9.7" height="2.6"/>
				<rect x="8" y="46.4" fill="#2E368F" width="9.7" height="2.6"/>
				<rect x="8" y="41.7" fill="#2E368F" width="9.8" height="2.6"/>
			</g>
		</g>
	</g>
</g>
<path fill="#2E368F" d="M281.5,9.8h12.7l-2.7-2.7c-0.2-0.2-0.2-0.6,0-0.8c0.2-0.2,0.6-0.2,0.8,0l3.6,3.6c0.2,0.2,0.2,0.6,0,0.8
	l-3.6,3.6c-0.1,0.1-0.2,0.2-0.4,0.2s-0.3-0.1-0.4-0.2c-0.2-0.2-0.2-0.6,0-0.8l2.7-2.7h-12.7c-0.3,0-0.5-0.2-0.5-0.5
	C280.9,10,281.2,9.8,281.5,9.8z M295.9,0.9h-11c-2.1,0-3.9,1.7-3.9,3.9v2.3c0,0.3,0.2,0.5,0.5,0.5s0.5-0.2,0.5-0.5V4.8
	c0-1.5,1.3-2.8,2.8-2.8h11c1.5,0,2.8,1.3,2.8,2.8v11c0,1.5-1.3,2.8-2.8,2.8h-11c-1.5,0-2.8-1.3-2.8-2.8v-2.3c0-0.3-0.2-0.5-0.5-0.5
	s-0.5,0.2-0.5,0.5v2.3c0,2.1,1.7,3.9,3.9,3.9h11c2.1,0,3.9-1.7,3.9-3.9v-11C299.7,2.7,298,0.9,295.9,0.9z"/>
<path fill="#2E368F" d="M290.3,10.3"/>
<path fill="#2E368F" d="M290.3,10.3"/>
<polyline fill="none" stroke="#2E368F" stroke-width="0.95" stroke-miterlimit="10" points="84.7,50.1 86.3,52.1 88.8,48.9 "/>
<path fill="none" stroke="#2E368F" stroke-width="0.95" stroke-miterlimit="10" d="M94.9,54.4H84.7c-2.1,0-3.8-1.7-3.8-3.8l0,0
	c0-2.1,1.7-3.8,3.8-3.8h10.2c2.1,0,3.8,1.7,3.8,3.8l0,0C98.7,52.7,97,54.4,94.9,54.4z"/>
<circle fill="none" stroke="#2E368F" stroke-width="0.95" stroke-miterlimit="10" cx="94.7" cy="50.7" r="2.5"/>
<path fill="none" stroke="#2E368F" stroke-width="0.95" stroke-miterlimit="10" d="M135.2,54.4h-10.2c-2.1,0-3.8-1.7-3.8-3.8l0,0
	c0-2.1,1.7-3.8,3.8-3.8h10.2c2.1,0,3.8,1.7,3.8,3.8l0,0C139,52.7,137.3,54.4,135.2,54.4z"/>
<circle fill="none" stroke="#2E368F" stroke-width="0.95" stroke-miterlimit="10" cx="125.8" cy="50.7" r="2.5"/>
<g>
	<path fill="#2E368F" d="M176.4,48.6c-0.3,0-0.5,0-0.8-0.1c-0.2,0-0.3-0.2-0.2-0.4c0-0.2,0.2-0.3,0.4-0.2c1.3,0.3,2.6-0.3,3.2-1.5
		c0.3-0.7,0.4-1.5,0.2-2.2c-0.2-0.7-0.8-1.3-1.4-1.7c-0.7-0.3-1.5-0.4-2.2-0.2c-0.7,0.2-1.3,0.8-1.7,1.4c-0.1,0.1-0.3,0.2-0.4,0.1
		c-0.1-0.1-0.2-0.3-0.1-0.4c0.4-0.8,1.1-1.4,2-1.7c0.9-0.3,1.8-0.2,2.7,0.2c0.8,0.4,1.4,1.1,1.7,2c0.3,0.9,0.2,1.8-0.2,2.7
		C178.9,47.9,177.7,48.6,176.4,48.6z M176.4,43.5v3.1 M174.8,45.1h3.1 M176.7,46.6v-1.3h1.2c0.2,0,0.3-0.1,0.3-0.3
		c0-0.2-0.1-0.3-0.3-0.3h-1.2v-1.3c0-0.2-0.1-0.3-0.3-0.3c-0.2,0-0.3,0.1-0.3,0.3v1.3h-1.3c-0.2,0-0.3,0.1-0.3,0.3
		c0,0.2,0.1,0.3,0.3,0.3h1.3v1.3c0,0.2,0.1,0.3,0.3,0.3C176.5,46.9,176.7,46.8,176.7,46.6z"/>
	<g>
		<path fill="#2E368F" d="M168.2,58.2c-2.5,0-4.8-1.6-6.1-4.2c-0.4,0-0.9-0.3-1.2-0.9c-0.5-0.9-0.8-2.4-0.4-3.1
			c0.2-0.3,0.4-0.4,0.7-0.4c0,0,0,0,0,0c0.1-2,0.8-3.9,2-5.3c1.3-1.5,3-2.4,4.9-2.4c1.8,0,3.6,0.8,4.9,2.4c1.2,1.4,1.9,3.3,2,5.3
			c0,0,0,0,0,0c0.2,0,0.9,0.1,0.9,1.4c0,1.3-0.7,3-1.7,3.1C173.1,56.6,170.8,58.2,168.2,58.2z M162.4,53.4c0.1,0,0.2,0.1,0.3,0.2
			c1.1,2.5,3.2,4,5.6,4c2.3,0,4.5-1.5,5.6-4c0.1-0.1,0.2-0.2,0.3-0.2c0,0,0,0,0.1,0l0,0c0.6,0,1.2-1.4,1.2-2.5
			c0-0.5-0.1-0.8-0.3-0.8c0,0-0.1,0-0.2,0c-0.1,0-0.2,0-0.3,0c-0.1-0.1-0.1-0.1-0.1-0.2c0-4.1-2.9-7.5-6.3-7.5
			c-3.4,0-6.3,3.3-6.3,7.5c0,0.1-0.1,0.2-0.1,0.2c-0.1,0.1-0.2,0.1-0.3,0c-0.1,0-0.1,0-0.2,0c0,0-0.1,0-0.1,0.1
			c-0.3,0.4-0.1,1.7,0.4,2.5c0.1,0.2,0.4,0.6,0.7,0.6C162.3,53.4,162.3,53.4,162.4,53.4C162.3,53.4,162.4,53.4,162.4,53.4z"/>
	</g>
	<g>
		<path fill="#2E368F" d="M174.8,49.9c-1.8-0.4-3.6-2.6-4.6-4.4c-0.9,0.8-1.8,1.6-2.8,2.2c-2.5,1.7-5.7,2.2-5.7,2.2s0.2-2.5,1.8-4.6
			c0.7-0.9,1.6-1.8,2.7-2.3c1.6-0.8,3.8-0.6,5.3,0.4c0.4,0.3,0.8,0.6,1.1,1c0.6,0.8,1.1,1.8,1.4,2.7c0.3,0.8,0.5,1.6,0.7,2.4
			C174.7,49.6,174.8,49.8,174.8,49.9z"/>
		<path fill="#2E368F" d="M174.8,50.2c-1.7-0.4-3.6-2.5-4.7-4.3c-0.7,0.7-1.6,1.3-2.6,2c-2.5,1.7-5.7,2.3-5.8,2.3
			c-0.1,0-0.3-0.2-0.2-0.3c0-0.1,0,0.1,0,0c0-0.1,0.2-2.5,1.8-4.8c0.8-1,1.8-1.9,2.8-2.4c0.7-0.3,1.5-0.5,2.4-0.5
			c1.1,0,2.2,0.3,3.1,0.9c0.4,0.2,0.8,0.6,1.2,1.1c0.6,0.8,1.1,1.8,1.5,2.8c0.3,0.7,0.5,1.5,0.7,2.5c0,0.2,0.1,0.3,0.1,0.5
			c0,0,0,0,0,0.1C175.1,50.1,174.9,50.2,174.8,50.2"/>
	</g>
</g>
<path fill="#2E368F" d="M96.3-150.9c-0.3,0-0.5,0-0.8-0.1c-0.2,0-0.3-0.2-0.2-0.4c0-0.2,0.2-0.3,0.4-0.2c1.3,0.3,2.6-0.3,3.2-1.5
	c0.3-0.7,0.4-1.5,0.2-2.2c-0.2-0.7-0.8-1.3-1.5-1.7c-0.7-0.3-1.5-0.4-2.2-0.2c-0.7,0.2-1.3,0.8-1.7,1.5c-0.1,0.1-0.3,0.2-0.4,0.1
	c-0.1-0.1-0.2-0.3-0.1-0.4c0.4-0.8,1.1-1.5,2-1.8c0.9-0.3,1.8-0.2,2.7,0.2c0.8,0.4,1.5,1.1,1.8,2c0.3,0.9,0.2,1.8-0.2,2.7
	C98.8-151.7,97.6-150.9,96.3-150.9z"/>
<g>
	<path fill="#2E368F" d="M88.1-141.2c-2.6,0-4.9-1.6-6.1-4.2c-0.5,0-0.9-0.3-1.2-0.9c-0.5-0.9-0.8-2.4-0.4-3.2
		c0.2-0.3,0.4-0.4,0.7-0.4c0,0,0,0,0,0c0.1-2,0.8-3.9,2.1-5.4c1.3-1.5,3.1-2.4,4.9-2.4c1.9,0,3.6,0.9,4.9,2.4c1.2,1.4,2,3.3,2.1,5.4
		c0,0,0,0,0,0c0.2,0,0.9,0.1,0.9,1.4c0,1.3-0.7,3-1.8,3.1C92.9-142.8,90.6-141.2,88.1-141.2z M82.1-146.1c0.1,0,0.2,0.1,0.3,0.2
		c1.1,2.5,3.3,4.1,5.7,4.1c2.4,0,4.5-1.6,5.7-4.1c0.1-0.1,0.2-0.2,0.3-0.2c0,0,0,0,0.1,0l0,0c0.6,0,1.2-1.4,1.2-2.5
		c0-0.5-0.1-0.8-0.3-0.8c0,0-0.1,0-0.2,0c-0.1,0-0.2,0-0.3,0c-0.1-0.1-0.1-0.1-0.1-0.3c0-4.2-2.9-7.5-6.4-7.5
		c-3.5,0-6.3,3.4-6.4,7.5c0,0.1-0.1,0.2-0.1,0.3c-0.1,0.1-0.2,0.1-0.3,0c-0.1,0-0.1,0-0.2,0c0,0-0.1,0-0.2,0.1
		c-0.3,0.4-0.1,1.7,0.4,2.6c0.1,0.2,0.4,0.6,0.7,0.6C82-146.1,82.1-146.1,82.1-146.1C82.1-146.1,82.1-146.1,82.1-146.1z"/>
</g>
<g>
	<path fill="#2E368F" d="M94.7-149.6c-1.8-0.4-3.7-2.6-4.7-4.5c-0.9,0.8-1.9,1.6-2.9,2.3c-2.5,1.7-5.7,2.2-5.7,2.2s0.2-2.5,1.8-4.7
		c0.7-0.9,1.7-1.8,2.7-2.4c1.6-0.8,3.8-0.6,5.3,0.4c0.4,0.3,0.9,0.6,1.2,1c0.6,0.8,1.1,1.8,1.4,2.7c0.3,0.8,0.5,1.6,0.7,2.5
		C94.6-149.9,94.7-149.7,94.7-149.6z"/>
	<path fill="#2E368F" d="M94.7-149.3c-1.8-0.4-3.7-2.5-4.7-4.4c-0.8,0.7-1.6,1.4-2.7,2.1c-2.5,1.7-5.8,2.3-5.9,2.3
		c-0.1,0-0.3-0.2-0.3-0.3c0-0.1,0,0.1,0,0c0-0.1,0.2-2.6,1.9-4.8c0.8-1.1,1.8-1.9,2.8-2.4c0.7-0.3,1.6-0.5,2.4-0.5
		c1.2,0,2.3,0.3,3.1,0.9c0.4,0.2,0.9,0.6,1.2,1.1c0.7,0.8,1.1,1.8,1.5,2.8c0.3,0.7,0.5,1.5,0.8,2.5c0,0.2,0.1,0.3,0.1,0.5
		c0,0,0,0.1,0,0.1C95-149.4,94.8-149.3,94.7-149.3"/>
</g>
<path fill="#2E368F" d="M336.9,50.3c-0.2,0-0.5,0-0.7-0.1c-0.2,0-0.2-0.2-0.2-0.3c0-0.2,0.2-0.2,0.3-0.2c1.2,0.3,2.4-0.3,3-1.4
	c0.3-0.6,0.4-1.4,0.1-2.1c-0.2-0.7-0.7-1.2-1.3-1.6c-0.6-0.3-1.4-0.4-2.1-0.1c-0.7,0.2-1.2,0.7-1.6,1.3c-0.1,0.1-0.2,0.2-0.4,0.1
	c-0.1-0.1-0.2-0.2-0.1-0.4c0.4-0.8,1.1-1.4,1.9-1.6c0.8-0.3,1.7-0.2,2.5,0.2c0.8,0.4,1.4,1.1,1.6,1.9c0.3,0.8,0.2,1.7-0.2,2.5
	C339.2,49.7,338.1,50.3,336.9,50.3z"/>
<g>
	<g>
		<path fill="#2E368F" d="M329.3,59.3c-2.4,0-4.5-1.5-5.6-3.9c-0.4,0-0.8-0.3-1.1-0.8c-0.5-0.8-0.7-2.3-0.3-2.9
			c0.1-0.2,0.4-0.4,0.6-0.4c0,0,0,0,0,0c0.1-1.9,0.8-3.6,1.9-5c1.2-1.4,2.8-2.2,4.6-2.2c1.7,0,3.3,0.8,4.6,2.2
			c1.1,1.3,1.8,3.1,1.9,5c0,0,0,0,0,0c0.2,0,0.8,0.1,0.8,1.3c0,1.2-0.6,2.8-1.6,2.9C333.8,57.8,331.6,59.3,329.3,59.3z M323.8,54.8
			c0.1,0,0.2,0.1,0.3,0.2c1,2.3,3,3.8,5.2,3.8c2.2,0,4.2-1.4,5.2-3.8c0.1-0.1,0.2-0.2,0.3-0.2c0,0,0,0,0.1,0l0,0
			c0.6,0,1.1-1.3,1.1-2.3c0-0.4-0.1-0.7-0.3-0.7c0,0-0.1,0-0.2,0c-0.1,0-0.2,0-0.3,0c-0.1-0.1-0.1-0.1-0.1-0.2c0-3.8-2.7-7-5.9-7
			c-3.2,0-5.9,3.1-5.9,7c0,0.1,0,0.2-0.1,0.2c-0.1,0.1-0.2,0.1-0.3,0c-0.1,0-0.1,0-0.2,0c0,0-0.1,0-0.1,0.1
			c-0.2,0.4-0.1,1.6,0.3,2.4c0.1,0.2,0.4,0.6,0.7,0.6C323.7,54.8,323.7,54.8,323.8,54.8C323.8,54.8,323.8,54.8,323.8,54.8z"/>
	</g>
</g>
<g>
	<g>
		<path fill="#2E368F" d="M335.4,51.6c-1.7-0.3-3.4-2.4-4.3-4.1c-0.8,0.8-1.7,1.4-2.6,2.1c-2.3,1.6-5.3,2-5.3,2s0.2-2.3,1.7-4.3
			c0.6-0.9,1.5-1.7,2.5-2.2c1.5-0.7,3.5-0.6,4.9,0.3c0.4,0.2,0.8,0.6,1.1,0.9c0.6,0.7,1,1.7,1.3,2.5c0.3,0.7,0.5,1.5,0.7,2.3
			C335.3,51.3,335.4,51.5,335.4,51.6z"/>
		<path fill="#2E368F" d="M335.4,51.9c-1.6-0.3-2.8-1.4-3.8-3.2c-0.7,2.1-4.8,2.9-5.7,2.4c-2.3,1.6-2.7,0.7-2.8,0.7
			c-0.1,0-0.2-0.2-0.2-0.3c0-0.1,0,0.1,0,0c0-0.1,0.2-2.4,1.7-4.4c0.7-1,1.6-1.8,2.6-2.2c0.7-0.3,1.4-0.5,2.2-0.5
			c1.1,0,2.1,0.3,2.9,0.8c0.3,0.2,0.8,0.6,1.1,1c0.6,0.8,1,1.7,1.4,2.6c0.3,0.7,0.5,1.4,0.7,2.3c0,0.2,0.1,0.3,0.1,0.4
			c0,0,0,0,0,0.1C335.6,51.7,335.5,51.9,335.4,51.9"/>
	</g>
</g>
<g>
	<g>
		<path fill="#2E368F" d="M324,51.7c-1.3,0-2.4-0.8-3-2.1c-0.2,0-0.4-0.2-0.6-0.4c-0.3-0.4-0.4-1.2-0.2-1.6c0.1-0.1,0.2-0.2,0.3-0.2
			c0,0,0,0,0,0c0-1,0.4-1.9,1-2.6c0.6-0.8,1.5-1.2,2.4-1.2c0.9,0,1.8,0.4,2.4,1.2c0.6,0.7,1,1.6,1,2.6c0,0,0,0,0,0
			c0.1,0,0.4,0,0.4,0.7c0,0.6-0.3,1.5-0.9,1.5C326.4,50.9,325.2,51.7,324,51.7z M321.1,49.3c0.1,0,0.1,0,0.1,0.1
			c0.5,1.2,1.6,2,2.8,2c1.2,0,2.2-0.8,2.8-2c0-0.1,0.1-0.1,0.2-0.1c0,0,0,0,0,0l0,0c0.3,0,0.6-0.7,0.6-1.2c0-0.2-0.1-0.4-0.1-0.4
			c0,0-0.1,0-0.1,0c0,0-0.1,0-0.1,0c0,0-0.1-0.1-0.1-0.1c0-2-1.4-3.7-3.1-3.7c-1.7,0-3.1,1.7-3.1,3.7c0,0,0,0.1-0.1,0.1
			c0,0-0.1,0-0.1,0c0,0-0.1,0-0.1,0c0,0,0,0-0.1,0.1c-0.1,0.2-0.1,0.8,0.2,1.3C320.7,49.1,320.8,49.3,321.1,49.3
			C321,49.3,321,49.3,321.1,49.3C321,49.3,321,49.3,321.1,49.3z"/>
	</g>
	<g>
		<path fill="#2E368F" d="M327.2,47.6c-0.9-0.2-1.8-1.3-2.3-2.2c-0.4,0.4-0.9,0.8-1.4,1.1c-1.2,0.8-2.8,1.1-2.8,1.1s0.1-1.2,0.9-2.3
			c0.3-0.5,0.8-0.9,1.3-1.2c0.8-0.4,1.9-0.3,2.6,0.2c0.2,0.1,0.4,0.3,0.6,0.5c0.3,0.4,0.5,0.9,0.7,1.3c0.2,0.4,0.3,0.8,0.4,1.2
			C327.2,47.4,327.2,47.5,327.2,47.6z"/>
		<path fill="#2E368F" d="M327.2,47.7c-0.9-0.2-1.5-0.8-2-1.7c-0.4,1.1-2.5,1.5-3,1.3c-1.2,0.8-1.4,0.4-1.5,0.4c0,0-0.1-0.1-0.1-0.2
			c0,0,0,0,0,0c0-0.1,0.1-1.3,0.9-2.4c0.4-0.5,0.9-1,1.4-1.2c0.4-0.2,0.8-0.3,1.2-0.3c0.6,0,1.1,0.2,1.5,0.4
			c0.2,0.1,0.4,0.3,0.6,0.5c0.3,0.4,0.5,0.9,0.7,1.4c0.1,0.4,0.3,0.7,0.4,1.2c0,0.1,0,0.2,0,0.2c0,0,0,0,0,0
			C327.4,47.7,327.3,47.7,327.2,47.7"/>
	</g>
</g>
<g>
	<g>
		<path fill="#2E368F" d="M327.3,47.2c-0.9,0-1.8-0.6-2.2-1.6c-0.2,0-0.3-0.1-0.4-0.3c-0.2-0.3-0.3-0.9-0.1-1.2
			c0.1-0.1,0.1-0.2,0.2-0.2c0,0,0,0,0,0c0-0.7,0.3-1.4,0.8-2c0.5-0.6,1.1-0.9,1.8-0.9c0.7,0,1.3,0.3,1.8,0.9c0.5,0.5,0.7,1.2,0.8,2
			c0,0,0,0,0,0c0.1,0,0.3,0,0.3,0.5c0,0.5-0.2,1.1-0.6,1.1C329.1,46.6,328.2,47.2,327.3,47.2z M325.1,45.4c0,0,0.1,0,0.1,0.1
			c0.4,0.9,1.2,1.5,2.1,1.5c0.9,0,1.7-0.6,2.1-1.5c0,0,0.1-0.1,0.1-0.1c0,0,0,0,0,0l0,0c0.2,0,0.4-0.5,0.4-0.9c0-0.2,0-0.3-0.1-0.3
			c0,0,0,0-0.1,0c0,0-0.1,0-0.1,0c0,0-0.1-0.1-0.1-0.1c0-1.5-1.1-2.8-2.3-2.8c-1.3,0-2.3,1.2-2.3,2.8c0,0,0,0.1-0.1,0.1
			c0,0-0.1,0-0.1,0c0,0,0,0-0.1,0c0,0,0,0-0.1,0c-0.1,0.2-0.1,0.6,0.1,0.9C324.8,45.3,324.9,45.4,325.1,45.4
			C325.1,45.4,325.1,45.4,325.1,45.4C325.1,45.4,325.1,45.4,325.1,45.4z"/>
	</g>
	<g>
		<path fill="#2E368F" d="M329.7,44.1c-0.7-0.1-1.4-1-1.7-1.6c-0.3,0.3-0.7,0.6-1.1,0.8c-0.9,0.6-2.1,0.8-2.1,0.8s0.1-0.9,0.7-1.7
			c0.3-0.3,0.6-0.7,1-0.9c0.6-0.3,1.4-0.2,2,0.1c0.1,0.1,0.3,0.2,0.4,0.4c0.2,0.3,0.4,0.7,0.5,1c0.1,0.3,0.2,0.6,0.3,0.9
			C329.7,44,329.7,44.1,329.7,44.1z"/>
		<path fill="#2E368F" d="M329.7,44.2c-0.6-0.1-1.1-0.6-1.5-1.3c-0.3,0.8-1.9,1.1-2.3,1c-0.9,0.6-1.1,0.3-1.1,0.3
			c0,0-0.1-0.1-0.1-0.1c0,0,0,0,0,0c0,0,0.1-0.9,0.7-1.8c0.3-0.4,0.7-0.7,1-0.9c0.3-0.1,0.6-0.2,0.9-0.2c0.4,0,0.8,0.1,1.2,0.3
			c0.1,0.1,0.3,0.2,0.4,0.4c0.2,0.3,0.4,0.7,0.5,1c0.1,0.3,0.2,0.6,0.3,0.9c0,0.1,0,0.1,0,0.2c0,0,0,0,0,0
			C329.8,44.2,329.8,44.2,329.7,44.2"/>
	</g>
</g>
<g>
	<g>
		<path fill="#2E368F" d="M216.2,48.6c-0.3,0-0.5,0-0.8-0.1c-0.2,0-0.3-0.2-0.2-0.4c0-0.2,0.2-0.3,0.4-0.2c1.3,0.3,2.6-0.3,3.2-1.5
			c0.3-0.7,0.4-1.5,0.2-2.2c-0.2-0.7-0.8-1.3-1.4-1.7c-0.7-0.3-1.5-0.4-2.2-0.2c-0.7,0.2-1.3,0.8-1.7,1.4c-0.1,0.1-0.3,0.2-0.4,0.1
			c-0.1-0.1-0.2-0.3-0.1-0.4c0.4-0.8,1.1-1.4,2-1.7c0.9-0.3,1.8-0.2,2.7,0.2c0.8,0.4,1.4,1.1,1.7,2c0.3,0.9,0.2,1.8-0.2,2.7
			C218.7,47.9,217.5,48.6,216.2,48.6z"/>
		<g>
			<path fill="#2E368F" d="M208.1,58.2c-2.5,0-4.8-1.6-6.1-4.2c-0.4,0-0.9-0.3-1.2-0.9c-0.5-0.9-0.8-2.4-0.4-3.1
				c0.2-0.3,0.4-0.4,0.7-0.4c0,0,0,0,0,0c0.1-2,0.8-3.9,2-5.3c1.3-1.5,3-2.4,4.9-2.4c1.8,0,3.6,0.8,4.9,2.4c1.2,1.4,1.9,3.3,2,5.3
				c0,0,0,0,0,0c0.2,0,0.9,0.1,0.9,1.4c0,1.3-0.7,3-1.7,3.1C212.9,56.6,210.6,58.2,208.1,58.2z M202.2,53.4c0.1,0,0.2,0.1,0.3,0.2
				c1.1,2.5,3.2,4,5.6,4c2.3,0,4.5-1.5,5.6-4c0.1-0.1,0.2-0.2,0.3-0.2c0,0,0,0,0.1,0l0,0c0.6,0,1.2-1.4,1.2-2.5
				c0-0.5-0.1-0.8-0.3-0.8c0,0-0.1,0-0.2,0c-0.1,0-0.2,0-0.3,0c-0.1-0.1-0.1-0.1-0.1-0.2c0-4.1-2.9-7.5-6.3-7.5
				c-3.4,0-6.3,3.3-6.3,7.5c0,0.1-0.1,0.2-0.1,0.2c-0.1,0.1-0.2,0.1-0.3,0c-0.1,0-0.1,0-0.2,0c0,0-0.1,0-0.1,0.1
				c-0.3,0.4-0.1,1.7,0.4,2.5c0.1,0.2,0.4,0.6,0.7,0.6C202.1,53.4,202.1,53.4,202.2,53.4C202.2,53.4,202.2,53.4,202.2,53.4z"/>
		</g>
		<g>
			<path fill="#2E368F" d="M214.7,49.9c-1.8-0.4-3.6-2.6-4.6-4.4c-0.9,0.8-1.8,1.6-2.8,2.2c-2.5,1.7-5.7,2.2-5.7,2.2
				s0.2-2.5,1.8-4.6c0.7-0.9,1.6-1.8,2.7-2.3c1.6-0.8,3.8-0.6,5.3,0.4c0.4,0.3,0.8,0.6,1.1,1c0.6,0.8,1.1,1.8,1.4,2.7
				c0.3,0.8,0.5,1.6,0.7,2.4C214.6,49.6,214.6,49.8,214.7,49.9z"/>
			<path fill="#2E368F" d="M214.7,50.2c-1.7-0.4-3.6-2.5-4.7-4.3c-0.7,0.7-1.6,1.3-2.6,2c-2.5,1.7-5.7,2.3-5.8,2.3
				c-0.1,0-0.3-0.2-0.2-0.3c0-0.1,0,0.1,0,0c0-0.1,0.2-2.5,1.8-4.8c0.8-1,1.8-1.9,2.8-2.4c0.7-0.3,1.5-0.5,2.4-0.5
				c1.1,0,2.2,0.3,3.1,0.9c0.4,0.2,0.8,0.6,1.2,1.1c0.6,0.8,1.1,1.8,1.5,2.8c0.3,0.7,0.5,1.5,0.7,2.5c0,0.2,0.1,0.3,0.1,0.5
				c0,0,0,0,0,0.1C214.9,50.1,214.8,50.2,214.7,50.2"/>
		</g>
	</g>
</g>
<path fill="#2E368F" stroke="#2E368F" stroke-width="0.5" stroke-miterlimit="10" d="M216.5,45l1.2-1.2c0,0,0-0.1,0-0.1
	c0,0-0.1,0-0.1,0L216.5,45l-1.3-1.3c0,0-0.1,0-0.1,0c0,0,0,0.1,0,0.1l1.2,1.2l-1.2,1.2c0,0,0,0.1,0,0.1c0,0,0,0,0,0c0,0,0,0,0,0
	L216.5,45l1.1,1.3c0,0,0,0,0,0c0,0,0,0,0,0c0,0,0-0.1,0-0.1L216.5,45z"/>
<g>
	<g>
		<path fill="#2E368F" stroke="#2E368F" stroke-width="0.15" stroke-miterlimit="10" d="M258.3,42.7l-1.4-1.4
			c-0.4-0.4-1.1-0.4-1.5,0l-7.8,7.7l-1.6,4.5l4.5-1.6l7.8-7.7C258.7,43.8,258.7,43.1,258.3,42.7z M247.5,51.4l0.7-1.8l1.8,1.8
			l-1.8,0.6L247.5,51.4z M248.8,49.7l6.1-6.1l0.4,0.4l-6.1,6.1L248.8,49.7z M248.7,49.6l-0.3-0.4l6.1-6.1l0.3,0.4L248.7,49.6z
			 M249.4,50.3l6.1-6.1l0.4,0.4l-6.1,6.1L249.4,50.3z M254.8,42.8l0.2-0.2l2,2l-0.2,0.2L254.8,42.8z M250.3,51.2l-0.3-0.4l6.1-6.1
			l0.3,0.4L250.3,51.2z M257.9,43.7l-0.6,0.6l-2-2l0.6-0.6c0.2-0.2,0.4-0.2,0.6,0l1.4,1.4C258,43.3,258,43.6,257.9,43.7z"/>
	</g>
</g>
<circle fill="#2E368F" cx="290" cy="50" r="9.1"/>
<path fill="#FFFFFF" stroke="#FFFFFF" stroke-miterlimit="10" d="M290.7,50l3.9-3.9c0.1-0.1,0.1-0.2,0-0.3c-0.1-0.1-0.2-0.1-0.3,0
	l-3.9,3.9l-3.9-3.9c-0.1-0.1-0.2-0.1-0.3,0c-0.1,0.1-0.1,0.2,0,0.3L290,50l-3.9,3.9c-0.1,0.1-0.1,0.2,0,0.3c0,0,0.1,0.1,0.2,0.1
	c0.1,0,0.1,0,0.2-0.1l3.9-3.9l3.9,3.9c0,0,0.1,0.1,0.2,0.1s0.1,0,0.2-0.1c0.1-0.1,0.1-0.2,0-0.3L290.7,50z"/>
<g>
	<polygon fill="#2E368F" points="335,46.5 336.5,45.6 336.5,45.5 334.6,46.5 336.5,47.5 336.5,47.3 	"/>
	<path fill="#2E368F" d="M337.1,46.1l0-0.6l-1.7,1l1.7,1l0-0.6c1.8,0,2,1.3,2,1.3C339.1,46.6,337.6,46.2,337.1,46.1z"/>
</g>
<path fill="#2E368F" stroke="#2E368F" stroke-width="0.95" stroke-miterlimit="10" d="M330.3,4.8c-1.7,0-3.3,0.7-4.3,2V5.2
	c0-0.1-0.1-0.2-0.2-0.2s-0.2,0.1-0.2,0.2v2.1c0,0,0,0,0,0c0,0,0,0,0,0c0,0,0,0,0,0c0,0,0,0,0,0c0,0,0,0,0,0c0,0,0,0,0,0c0,0,0,0,0,0
	c0,0,0,0,0,0c0,0,0,0,0,0c0,0,0,0,0,0h2.1c0.1,0,0.2-0.1,0.2-0.2c0-0.1-0.1-0.2-0.2-0.2h-1.7c1-1.2,2.5-2,4.1-2
	c2.9,0,5.3,2.4,5.3,5.3s-2.4,5.3-5.3,5.3c-1.1,0-2.2-0.3-3.1-1c-0.1-0.1-0.2,0-0.3,0c-0.1,0.1,0,0.2,0,0.3c1,0.7,2.1,1,3.3,1
	c3.2,0,5.7-2.6,5.7-5.7S333.4,4.8,330.3,4.8z"/>
<path fill="#2E368F" d="M336.1-151c-0.3,0-0.5,0-0.8-0.1c-0.2,0-0.3-0.2-0.2-0.4c0-0.2,0.2-0.3,0.4-0.2c1.3,0.3,2.6-0.3,3.2-1.5
	c0.3-0.7,0.4-1.5,0.2-2.2c-0.2-0.7-0.8-1.3-1.4-1.7c-0.7-0.3-1.5-0.4-2.2-0.2c-0.7,0.2-1.3,0.8-1.7,1.4c-0.1,0.1-0.3,0.2-0.4,0.1
	c-0.1-0.1-0.2-0.3-0.1-0.4c0.4-0.8,1.1-1.4,2-1.7c0.9-0.3,1.8-0.2,2.7,0.2c0.8,0.4,1.4,1.1,1.7,2c0.3,0.9,0.2,1.8-0.2,2.7
	C338.6-151.7,337.4-151,336.1-151z"/>
<g>
	<path fill="#2E368F" d="M327.9-141.4c-2.5,0-4.8-1.6-6.1-4.2c-0.4,0-0.9-0.3-1.2-0.9c-0.5-0.9-0.8-2.4-0.4-3.1
		c0.2-0.3,0.4-0.4,0.7-0.4c0,0,0,0,0,0c0.1-2,0.8-3.9,2-5.3c1.3-1.5,3-2.4,4.9-2.4c1.8,0,3.6,0.8,4.9,2.4c1.2,1.4,1.9,3.3,2,5.3
		c0,0,0,0,0,0c0.2,0,0.9,0.1,0.9,1.4c0,1.3-0.7,3-1.7,3.1C332.8-143,330.5-141.4,327.9-141.4z M322.1-146.2c0.1,0,0.2,0.1,0.3,0.2
		c1.1,2.5,3.2,4,5.6,4c2.3,0,4.5-1.5,5.6-4c0.1-0.1,0.2-0.2,0.3-0.2c0,0,0,0,0.1,0l0,0c0.6,0,1.2-1.4,1.2-2.5c0-0.5-0.1-0.8-0.3-0.8
		c0,0-0.1,0-0.2,0c-0.1,0-0.2,0-0.3,0c-0.1-0.1-0.1-0.1-0.1-0.2c0-4.1-2.9-7.5-6.3-7.5c-3.4,0-6.3,3.3-6.3,7.5
		c0,0.1-0.1,0.2-0.1,0.2c-0.1,0.1-0.2,0.1-0.3,0c-0.1,0-0.1,0-0.2,0c0,0-0.1,0-0.1,0.1c-0.3,0.4-0.1,1.7,0.4,2.5
		c0.1,0.2,0.4,0.6,0.7,0.6C322-146.2,322-146.2,322.1-146.2C322.1-146.2,322.1-146.2,322.1-146.2z"/>
</g>
<g>
	<path fill="#2E368F" d="M334.5-149.7c-1.8-0.4-3.6-2.6-4.6-4.4c-0.9,0.8-1.8,1.6-2.8,2.2c-2.5,1.7-5.7,2.2-5.7,2.2s0.2-2.5,1.8-4.6
		c0.7-0.9,1.6-1.8,2.7-2.3c1.6-0.8,3.8-0.6,5.3,0.4c0.4,0.3,0.8,0.6,1.1,1c0.6,0.8,1.1,1.8,1.4,2.7c0.3,0.8,0.5,1.6,0.7,2.4
		C334.5-150,334.5-149.8,334.5-149.7z"/>
	<path fill="#2E368F" d="M334.5-149.4c-1.7-0.4-3.6-2.5-4.7-4.3c-0.7,0.7-1.6,1.3-2.6,2c-2.5,1.7-5.7,2.3-5.8,2.3
		c-0.1,0-0.3-0.2-0.2-0.3c0-0.1,0,0.1,0,0c0-0.1,0.2-2.5,1.8-4.8c0.8-1,1.8-1.9,2.8-2.4c0.7-0.3,1.5-0.5,2.4-0.5
		c1.1,0,2.2,0.3,3.1,0.9c0.4,0.2,0.8,0.6,1.2,1.1c0.6,0.8,1.1,1.8,1.5,2.8c0.3,0.7,0.5,1.5,0.7,2.5c0,0.2,0.1,0.3,0.1,0.5
		c0,0,0,0,0,0.1C334.8-149.5,334.7-149.4,334.5-149.4"/>
</g>
<rect x="336" y="-156.5" transform="matrix(0.5406 0.8413 -0.8413 0.5406 24.4033 -353.7569)" fill="none" stroke="#2E368F" stroke-width="0.5" stroke-miterlimit="10" width="0.2" height="3.9"/>
<path fill="none" stroke="#2E368F" stroke-width="0.5" stroke-miterlimit="10" d="M336.1-156.5c-1.1,0-2,0.9-2,2l0,0
	c0,1.1,0.9,2,2,2c1.1,0,2-0.9,2-2l0,0C338.1-155.6,337.2-156.5,336.1-156.5L336.1-156.5L336.1-156.5z"/>
<path fill="#2E368F" d="M250.2-157.1c-0.1,0-0.1,0-0.2,0.1l-7.2,11.5c-0.1,0.2,0,0.3,0.2,0.3h14.4c0.2,0,0.3-0.1,0.2-0.3l-7.2-11.5
	C250.3-157.1,250.2-157.1,250.2-157.1L250.2-157.1z"/>
<path fill="#2E368F" stroke="#2E368F" stroke-width="0.5" stroke-miterlimit="10" d="M201-157.4v14.4c0,0.9,0.6,1.6,1.4,1.6h15.5
	c0.8,0,1.4-0.7,1.4-1.6v-14.4c0-0.9-0.6-1.6-1.4-1.6h-15.5C201.7-159,201-158.3,201-157.4z M201.8-157.4c0-0.4,0.3-0.7,0.6-0.7h15.5
	c0.3,0,0.6,0.3,0.6,0.7v14.4c0,0.4-0.3,0.7-0.6,0.7h-15.5c-0.3,0-0.6-0.3-0.6-0.7V-157.4z"/>
<path fill="#2E368F" stroke="#2E368F" stroke-miterlimit="10" d="M210.1-154.2c-0.1-0.1-0.2-0.1-0.3,0c-0.1,0.1-0.1,0.2,0,0.3
	l3.9,3.9l-3.9,3.9c-0.1,0.1-0.1,0.2,0,0.3c0.1,0.1,0.2,0.1,0.3,0l4-4c0,0,0.1-0.1,0.1-0.2s0-0.1-0.1-0.2L210.1-154.2z"/>
<path fill="#2E368F" stroke="#2E368F" stroke-miterlimit="10" d="M207.1-154c-0.1-0.1-0.2-0.1-0.3,0c-0.1,0.1-0.1,0.2,0,0.3l3.9,3.9
	l-3.9,3.9c-0.1,0.1-0.1,0.2,0,0.3c0.1,0.1,0.2,0.1,0.3,0l4-4c0,0,0.1-0.1,0.1-0.2s0-0.1-0.1-0.2L207.1-154z"/>
<path fill="#2E368F" stroke="#2E368F" stroke-width="0.5" stroke-miterlimit="10" d="M160.9-157.4v14.4c0,0.9,0.6,1.6,1.4,1.6h15.5
	c0.8,0,1.4-0.7,1.4-1.6v-14.4c0-0.9-0.6-1.6-1.4-1.6h-15.5C161.5-159,160.9-158.3,160.9-157.4z M161.7-157.4c0-0.4,0.3-0.7,0.6-0.7
	h15.5c0.3,0,0.6,0.3,0.6,0.7v14.4c0,0.4-0.3,0.7-0.6,0.7h-15.5c-0.3,0-0.6-0.3-0.6-0.7V-157.4z"/>
<g>
	<path fill="#2E368F" stroke="#2E368F" stroke-miterlimit="10" d="M170.7-154.2c0.1-0.1,0.2-0.1,0.3,0c0.1,0.1,0.1,0.2,0,0.3
		l-3.9,3.9l3.9,3.9c0.1,0.1,0.1,0.2,0,0.3c-0.1,0.1-0.2,0.1-0.3,0l-4-4c0,0-0.1-0.1-0.1-0.2s0-0.1,0.1-0.2L170.7-154.2z"/>
	<path fill="#2E368F" stroke="#2E368F" stroke-miterlimit="10" d="M173.7-154c0.1-0.1,0.2-0.1,0.3,0c0.1,0.1,0.1,0.2,0,0.3l-3.9,3.9
		l3.9,3.9c0.1,0.1,0.1,0.2,0,0.3c-0.1,0.1-0.2,0.1-0.3,0l-4-4c0,0-0.1-0.1-0.1-0.2s0-0.1,0.1-0.2L173.7-154z"/>
</g>
<path fill="#2E368F" d="M294.9-150.5l-2.8,0.9l1.8,2.4c0.5,0.6,0.3,1.5-0.3,1.9c-0.3,0.2-0.5,0.3-0.8,0.3c-0.4,0-0.9-0.2-1.1-0.6
	l-1.8-2.4l-1.8,2.4c-0.3,0.4-0.7,0.6-1.1,0.6c-0.3,0-0.6-0.1-0.8-0.3c-0.6-0.5-0.8-1.3-0.3-1.9l1.8-2.4l-2.9-0.9
	c-0.7-0.2-1.1-1-0.9-1.8c0.2-0.7,1-1.1,1.8-0.9l2.9,0.9v-3c0-0.8,0.6-1.4,1.4-1.4c0.8,0,1.4,0.6,1.4,1.4v3l2.9-0.9
	c0.7-0.2,1.5,0.2,1.8,0.9C296-151.5,295.6-150.7,294.9-150.5z"/>
<path fill="#2E368F" stroke="#2E368F" stroke-width="0.5" stroke-miterlimit="10" d="M136-151.3c1.5-1.6,1.5-4.1-0.1-5.7
	c-0.8-0.8-1.8-1.2-2.9-1.2c-1.1,0-2.1,0.4-2.9,1.2l-3.4,3.4c-0.2,0.2-0.2,0.5,0,0.7c0.1,0.1,0.2,0.1,0.3,0.1c0.1,0,0.2,0,0.3-0.1
	l3.4-3.4c1.2-1.2,3.2-1.2,4.3,0c1.2,1.2,1.2,3.2,0,4.3l-8.5,8.5c-0.8,0.8-2.1,0.8-2.9,0c-0.8-0.8-0.8-2.1,0-2.9l6.9-6.9l0,0
	c0.4-0.4,1-0.4,1.4,0c0.2,0.2,0.3,0.4,0.3,0.7c0,0.3-0.1,0.5-0.3,0.7l-6,6c-0.2,0.2-0.2,0.5,0,0.7c0.1,0.1,0.2,0.1,0.3,0.1
	c0.1,0,0.2,0,0.3-0.1l6-6c0.4-0.4,0.6-0.9,0.6-1.4c0-0.5-0.2-1-0.6-1.4c-0.7-0.7-1.9-0.8-2.7-0.1c0,0,0,0,0,0l-7,7
	c-1.2,1.2-1.2,3.1,0,4.2c0.6,0.6,1.4,0.9,2.1,0.9c0.8,0,1.5-0.3,2.1-0.9L136-151.3L136-151.3L136-151.3L136-151.3
	C136-151.3,136-151.3,136-151.3z"/>
<title>interface_004-information-detail-window-application</title>
<desc>Created with Sketch.</desc>
<path fill="#2E368F" stroke="#2E368F" stroke-width="0.5" stroke-miterlimit="10" d="M19.8-140.5L19.8-140.5l0-13.6
	c-0.3,0.2-0.5,0.5-0.8,0.7l0,12.1H1v-13.4H12c0.3-0.4,0.7-0.8,1-1.2c0.3-0.4,0.8-0.2,0.9,0.2c0.1,0,0.1,0.1,0.2,0.1c0,0,0,0,0,0
	c1.4,0,2.7,0,4.1,0c0,0,0-0.1,0.1-0.1c-0.1-0.1-0.1-0.3,0-0.5c0.1-0.3,0.3-0.5,0.4-0.8c-0.3,0-0.6-0.1-0.6-0.5c0-0.1-0.1-0.4,0-0.5
	c0,0-0.1,0.4-0.1,0.4c-0.1,0-0.2-0.2-0.3-0.2c-0.1,0-0.1-0.1-0.3,0c-0.2,0.1-0.4,0.3-0.5,0.4c0,0,0,0,0,0c0,0-0.1,0.1-0.1,0.1
	c-0.2,0.1-0.4,0.1-0.5,0c-0.1,0.1-0.2,0.2-0.3,0.4c-0.5,0.5-1.2-0.2-0.7-0.7c0.3-0.3,0.6-0.7,0.9-1H0.2v18.1h19.2l0,0
	C19.5-140.4,19.7-140.4,19.8-140.5L19.8-140.5L19.8-140.5z"/>
<rect x="1" y="-157.8" fill="#FFFFFF" width="18.1" height="2.4"/>
<rect x="1.7" y="-157" fill="#2E368F" stroke="#2E368F" stroke-width="0.5" stroke-miterlimit="10" width="0.8" height="0.8"/>
<rect x="3.3" y="-157" fill="#2E368F" stroke="#2E368F" stroke-width="0.5" stroke-miterlimit="10" width="0.8" height="0.8"/>
<rect x="4.9" y="-157" fill="#2E368F" stroke="#2E368F" stroke-width="0.5" stroke-miterlimit="10" width="0.8" height="0.8"/>
<path fill="#2E368F" stroke="#2E368F" stroke-width="0.5" stroke-miterlimit="10" d="M59.8-140.5L59.8-140.5l0-13.6
	c-0.3,0.2-0.5,0.5-0.8,0.7l0,12.1H41v-13.4H52c0.3-0.4,0.7-0.8,1-1.2c0.3-0.4,0.8-0.2,0.9,0.2c0.1,0,0.1,0.1,0.2,0.1c0,0,0,0,0,0
	c1.4,0,2.7,0,4.1,0c0,0,0-0.1,0.1-0.1c-0.1-0.1-0.1-0.3,0-0.5c0.1-0.3,0.3-0.5,0.4-0.8c-0.3,0-0.6-0.1-0.6-0.5c0-0.1-0.1-0.4,0-0.5
	c0,0-0.1,0.4-0.1,0.4c-0.1,0-0.2-0.2-0.3-0.2c-0.1,0-0.1-0.1-0.3,0c-0.2,0.1-0.4,0.3-0.5,0.4c0,0,0,0,0,0c0,0-0.1,0.1-0.1,0.1
	c-0.2,0.1-0.4,0.1-0.5,0c-0.1,0.1-0.2,0.2-0.3,0.4c-0.5,0.5-1.2-0.2-0.7-0.7c0.3-0.3,0.6-0.7,0.9-1H40.2v18.1h19.2l0,0
	C59.5-140.4,59.7-140.4,59.8-140.5L59.8-140.5L59.8-140.5z"/>
<rect x="41" y="-157.8" fill="#FFFFFF" width="18.1" height="2.4"/>
<rect x="43.3" y="-157" fill="#2E368F" stroke="#2E368F" stroke-width="0.5" stroke-miterlimit="10" width="0.8" height="0.8"/>
<rect x="41.7" y="-157" fill="#2E368F" stroke="#2E368F" stroke-width="0.5" stroke-miterlimit="10" width="0.8" height="0.8"/>
<rect x="44.9" y="-157" fill="#2E368F" stroke="#2E368F" stroke-width="0.5" stroke-miterlimit="10" width="0.8" height="0.8"/>
<g>
	<path fill="#2E368F" d="M98.1-156.3c0.2,0.2,0.2,0.5,0,0.7l-0.2,0.2l-0.7-0.7l0.2-0.2C97.6-156.5,97.9-156.5,98.1-156.3z"/>
	<polygon fill="#2E368F" points="94.8,-153.7 94.5,-152.8 95.4,-153 97.7,-155.2 97,-155.9 	"/>
</g>
<rect x="13.6" y="-156.2" fill="#FFFFFF" width="5" height="1.6"/>
<g>
	<path fill="#2E368F" stroke="#2E368F" stroke-width="0.15" stroke-miterlimit="10" d="M19.5-156.7l-1.4-1.3
		c-0.4-0.4-1.1-0.3-1.4,0.1l-7.2,8.1L8-145.3l4.3-1.8l7.2-8.1C20-155.6,19.9-156.3,19.5-156.7z M9.3-147.4l0.5-1.8l1.9,1.7l-1.7,0.7
		L9.3-147.4z M10.5-149.2l5.7-6.4l0.4,0.4l-5.7,6.4L10.5-149.2z M10.4-149.3l-0.4-0.3l5.7-6.4l0.4,0.3L10.4-149.3z M11.1-148.6
		l5.7-6.4l0.4,0.4l-5.7,6.4L11.1-148.6z M16-156.3l0.2-0.2l2.1,1.9l-0.2,0.2L16-156.3z M12.1-147.8l-0.4-0.3l5.7-6.4l0.4,0.3
		L12.1-147.8z M19.1-155.6l-0.6,0.6l-2.1-1.9l0.6-0.6c0.1-0.2,0.4-0.2,0.6,0l1.4,1.3C19.3-156.1,19.3-155.8,19.1-155.6z"/>
</g>
<path fill="#FFFFFF" d="M57.4-158.5c0,0-0.8,0.9-0.9,1c-0.1,0-2.5,1.2-2.5,1.2s-0.7-0.1-0.7,0.1c0,0.2,0.3,3.6,0.3,3.6l1.3,2.2
	c0,0,2.1-2.1,2.2-2.2c0.1-0.1,2.8-2.2,2.8-2.2l-1.7-2.6L57.4-158.5z"/>
<g>
	<path fill="#2E368F" stroke="#2E368F" stroke-width="0.15" stroke-miterlimit="10" d="M59.3-157.6c0.6,0.6,0.6,1.5,0,2.1l-0.7,0.7
		l-2.1-2.1l0.7-0.7C57.8-158.2,58.8-158.2,59.3-157.6z"/>
	<polygon fill="#2E368F" stroke="#2E368F" stroke-width="0.15" stroke-miterlimit="10" points="48.9,-149.3 48.3,-146.5 51,-147.2 
		58,-154.1 55.9,-156.2 	"/>
</g>
</svg>
