<?xml version="1.0" encoding="utf-8"?>
<!-- Generator: Adobe Illustrator 18.1.1, SVG Export Plug-In . SVG Version: 6.00 Build 0)  -->
<svg version="1.1" id="Layer_1" xmlns="http://www.w3.org/2000/svg" xmlns:xlink="http://www.w3.org/1999/xlink" x="0px" y="0px"
	 viewBox="0 0 20 20" enable-background="new 0 0 20 20" xml:space="preserve">
<g>
	<g>
		<g>
			<g id="Layer_5_1_">
				<path fill="#2e3192" d="M17,10c0.1-0.3,0.1-0.6,0.1-0.9c0-2.5-2-4.5-4.5-4.5c-1.9,0-3.5,1.1-4.2,2.7C7.9,7,7.2,6.8,6.5,6.8
					c-1.8,0-3.3,1.4-3.4,3.2c-1,0.4-1.7,1.4-1.7,2.6c0,1.6,1.3,2.8,2.8,2.8c0,0,3.1,0,4.1,0c0.2,0,0.2-0.2,0.2-0.2v-1.8
					c0-0.2-0.1-0.3-0.3-0.3H7.5c-0.2,0-0.2-0.1-0.1-0.2l2.4-3.2c0.1-0.1,0.2-0.1,0.3,0l2.4,3.2c0.1,0.1,0,0.2-0.1,0.2h-0.8
					c-0.2,0-0.3,0.1-0.3,0.3v1.8c0,0,0,0.2,0.2,0.2c1,0,4.1,0,4.1,0c1.6,0,2.8-1.3,2.8-2.8C18.5,11.5,17.9,10.5,17,10z"/>
			</g>
		</g>
	</g>
</g>
</svg>
