<?xml version="1.0" encoding="utf-8"?>
<!-- Generator: Adobe Illustrator 18.1.1, SVG Export Plug-In . SVG Version: 6.00 Build 0)  -->
<svg version="1.1" id="Layer_1" xmlns="http://www.w3.org/2000/svg" xmlns:xlink="http://www.w3.org/1999/xlink" x="0px" y="0px"
	 viewBox="485.3 447.4 20 20" enable-background="new 485.3 447.4 20 20" xml:space="preserve">
<g>
	<g>
		<g>
			<path fill="#2E3192" d="M502.8,467.4h-14.9c-0.8,0-1.5-0.8-1.5-1.6v-11.6c0-0.7,0.6-1.2,1.5-1.2h3.4c0.2,0,0.4,0.2,0.4,0.4
				c0,0.2-0.2,0.4-0.4,0.4h-3.4c-0.3,0-0.8,0.1-0.8,0.5v11.6c0,0.4,0.4,0.8,0.8,0.8h14.9c0.3,0,0.5-0.4,0.5-0.8v-11.6
				c0-0.3-0.1-0.5-0.5-0.5h-3.6c-0.2,0-0.4-0.2-0.4-0.4c0-0.2,0.2-0.4,0.4-0.4h3.6c0.8,0,1.3,0.5,1.3,1.2v11.6
				C504.1,466.6,503.6,467.4,502.8,467.4z"/>
		</g>
		<g>
			<g>
				<path fill="#2E3192" d="M498.1,452.2c-0.1,0-0.2,0-0.3-0.1l-2.9-2.9c-0.2-0.2-0.2-0.4,0-0.5s0.4-0.2,0.5,0l2.9,2.9
					c0.2,0.2,0.2,0.4,0,0.5C498.3,452.1,498.2,452.2,498.1,452.2z"/>
			</g>
			<g>
				<path fill="#2E3192" d="M492.3,452.1c-0.1,0-0.2,0-0.3-0.1c-0.2-0.2-0.2-0.4,0-0.5l2.9-2.9c0.2-0.2,0.4-0.2,0.5,0
					c0.2,0.2,0.2,0.4,0,0.5l-2.9,2.9C492.5,452.1,492.4,452.1,492.3,452.1z"/>
			</g>
		</g>
		<g>
			<path fill="#2E3192" d="M495.2,460.6c-0.2,0-0.4-0.2-0.4-0.4v-11.3c0-0.2,0.2-0.4,0.4-0.4c0.2,0,0.4,0.2,0.4,0.4v11.3
				C495.6,460.4,495.4,460.6,495.2,460.6z"/>
		</g>
		<g>
			<path fill="#2E3192" d="M498.9,464.1h-7.2c-0.2,0-0.4-0.2-0.4-0.4c0-0.2,0.2-0.4,0.4-0.4h7.2c0.2,0,0.4,0.2,0.4,0.4
				C499.3,463.9,499.1,464.1,498.9,464.1z"/>
		</g>
	</g>
</g>
</svg>
