<?xml version="1.0" encoding="utf-8"?>
<!-- Generator: Adobe Illustrator 18.1.1, SVG Export Plug-In . SVG Version: 6.00 Build 0)  -->
<svg version="1.1" id="Layer_1" xmlns="http://www.w3.org/2000/svg" xmlns:xlink="http://www.w3.org/1999/xlink" x="0px" y="0px"
	 viewBox="0 0 20 20" enable-background="new 0 0 20 20" xml:space="preserve">
<path fill="#2E368F" d="M2.1,0.5V18h1.2V1.7h7.4v5.5h5.5V18h1.2V6.3l-5.8-5.8H2.1z M12,6V2.6L15.4,6H12z"/>
<path fill="#2E368F" stroke="#2E368F" stroke-width="0.75" stroke-miterlimit="10" d="M9.8,12c-2.8,0-4.9,3.3-4.9,3.3
	s2.2,3.2,4.9,3.2c2.8,0,4.9-3.3,4.9-3.3S12.6,12,9.8,12z M9.8,17.9c-2.4,0-4.2-2.8-4.2-2.8s1.9-2.8,4.2-2.8s4.2,2.8,4.2,2.8
	S12.2,17.9,9.8,17.9z"/>
<path fill="none" stroke="#2E368F" stroke-width="0.5" stroke-miterlimit="10" d="M9.8,13.7c-0.8,0-1.6,0.6-1.6,1.6
	c0,0.8,0.6,1.6,1.6,1.6c0.8,0,1.6-0.6,1.6-1.6C11.4,14.5,10.6,13.7,9.8,13.7z M9.8,16.4c-0.6,0-1.1-0.5-1.1-1.1s0.5-1.2,1.1-1.2
	s1.1,0.5,1.1,1.1S10.5,16.4,9.8,16.4z"/>
</svg>
