<?xml version="1.0" encoding="utf-8"?>
<!-- Generator: Adobe Illustrator 18.1.1, SVG Export Plug-In . SVG Version: 6.00 Build 0)  -->
<svg version="1.1" id="Layer_1" xmlns="http://www.w3.org/2000/svg" xmlns:xlink="http://www.w3.org/1999/xlink" x="0px" y="0px"
	 viewBox="0 0 20 20" enable-background="new 0 0 20 20" xml:space="preserve">
<g>
	<path fill="none" d="M12.5,5.7h3.7c0.1,0,0.1-0.1,0.1-0.1l-4.1-4.1c-0.1-0.1-0.1-0.1-0.1,0.1v3.7C12.1,5.4,12.3,5.7,12.5,5.7z"/>
	<path fill="none" d="M16.4,6.1h-3.9c-0.5,0-0.8-0.4-0.8-0.8V1.3c0-0.1-0.1-0.2-0.2-0.2H3.9c-0.3,0-0.5,0.2-0.5,0.5v16.9
		c0,0.3,0.2,0.5,0.5,0.5h12.3c0.3,0,0.5-0.2,0.5-0.5V6.3C16.6,6.2,16.5,6.1,16.4,6.1z"/>
	<g>
		<path fill="none" d="M16.4,6.1h-3.9c-0.5,0-0.8-0.4-0.8-0.8V1.3c0-0.1-0.1-0.2-0.2-0.2H3.9c-0.3,0-0.5,0.2-0.5,0.5v16.9
			c0,0.3,0.2,0.5,0.5,0.5h12.3c0.3,0,0.5-0.2,0.5-0.5V6.3C16.6,6.2,16.5,6.1,16.4,6.1z"/>
		<path fill="none" d="M12.5,5.7h3.7c0.1,0,0.1-0.1,0.1-0.1l-4.1-4.1c-0.1-0.1-0.1-0.1-0.1,0.1v3.7C12.1,5.4,12.3,5.7,12.5,5.7z"/>
		<path fill="#2E3192" d="M16.7,5.4L12.4,1c-0.2-0.2-0.5-0.3-0.7-0.3h-0.1H3.8C3.4,0.7,3,1.1,3,1.5v17c0,0.5,0.4,0.8,0.8,0.8h12.4
			c0.5,0,0.8-0.4,0.8-0.8V6.2V6.1C17,5.8,16.9,5.5,16.7,5.4z M12.1,1.5c0-0.1,0.1-0.1,0.1-0.1l4.1,4.1c0.1,0.1,0.1,0.1-0.1,0.1h-3.7
			c-0.3,0-0.5-0.2-0.5-0.5V1.5z M16.6,18.4c0,0.3-0.2,0.5-0.5,0.5H3.9c-0.3,0-0.5-0.2-0.5-0.5V1.6c0-0.3,0.2-0.5,0.5-0.5h7.6
			c0.1,0,0.2,0.1,0.2,0.2v3.9c0,0.5,0.4,0.8,0.8,0.8h3.9c0.1,0,0.2,0.1,0.2,0.2V18.4z"/>
	</g>
</g>
<path fill="#2E3192" d="M10,9.8c-2.1,0-3.7,2.5-3.7,2.5S8,14.7,10,14.7c2.1,0,3.7-2.5,3.7-2.5S12.1,9.8,10,9.8z M10,14.3
	c-1.8,0-3.2-2.1-3.2-2.1s1.4-2.1,3.2-2.1s3.2,2.1,3.2,2.1S11.8,14.3,10,14.3z"/>
<path fill="#2E3192" d="M10,10.6c-0.9,0-1.7,0.7-1.7,1.7c0,0.9,0.7,1.7,1.7,1.7c0.9,0,1.7-0.7,1.7-1.7C11.7,11.4,10.9,10.6,10,10.6z
	 M10,13.5c-0.7,0-1.2-0.6-1.2-1.2S9.3,11,10,11s1.2,0.6,1.2,1.2S10.7,13.5,10,13.5z"/>
</svg>
